<?xml version="1.0" encoding="UTF-8"?>
<svg version="1.1" viewBox="0 0 400 200" xmlns="http://www.w3.org/2000/svg">
<g fill-rule="evenodd">
<path d="m161.7 89.379c-3.39 0.512-6.585 2.611-7.768 5.104-1.504 3.166-1.393 3.533 1.168 3.882 4.028 0.549 4.222 0.513 4.69-0.865 1.243-3.657 6.776-3.941 7.804-0.4 0.128 0.44 0.204 1.427 0.169 2.194l-0.063 1.395-0.8 0.135c-0.44 0.074-1.7 0.239-2.8 0.366-7.421 0.858-10.981 3.342-11.884 8.293-1.605 8.802 7.855 13.501 15.05 7.476 1.679-1.407 1.459-1.412 2.53 0.057 1.478 2.031 2.521 2.618 3.422 1.928 0.509-0.39 3.022-2.593 3.642-3.193 0.64-0.618 0.605-1.026-0.173-2.051-0.251-0.33-0.71-1.095-1.021-1.7l-0.566-1.1-0.105-7.7c-0.111-8.146-0.165-8.626-1.163-10.19-1.829-2.866-6.981-4.408-12.132-3.631m70.4-0.061c-4.576 0.656-7.917 3.37-8.907 7.236-0.363 1.414-0.219 1.531 2.254 1.824 1.129 0.134 2.375 0.282 2.769 0.33 0.891 0.107 1.232-0.16 1.671-1.308 0.925-2.42 3.796-3.522 6.121-2.35 1.485 0.749 1.883 1.843 1.809 4.977l-0.017 0.727-1.15 0.127c-7.414 0.817-9.76 1.609-12.197 4.119-3.666 3.776-2.753 11.464 1.614 13.593 3.8 1.852 8.368 1.056 11.833-2.064 0.987-0.888 0.935-0.888 1.606 0.021 2.387 3.235 2.807 3.288 5.714 0.733 2.492-2.192 2.511-2.245 1.391-3.851-1.352-1.939-1.373-2.086-1.468-10.332-0.092-8.033-0.112-8.189-1.269-10.034-1.778-2.836-6.858-4.453-11.774-3.748m-38.7 0.318c-0.275 0.115-0.836 0.347-1.246 0.515-1.026 0.421-2.423 1.851-3.084 3.155-0.69 1.363-0.863 1.139-0.867-1.116s0.095-2.19-3.332-2.19c-3.911 0-3.471-1.868-3.471 14.733v13.844l0.445 0.312c0.595 0.417 5.863 0.444 6.405 0.033 0.324-0.247 0.35-0.931 0.35-9.305 0-10.526 0.087-11.304 1.406-12.623 1.248-1.248 3.415-1.342 4.559-0.198 1.194 1.194 1.235 1.598 1.235 12.161 0 11.482-0.429 10.243 3.544 10.243 4.082 0 3.635 1.269 3.704-10.5 0.064-10.997-0.015-10.413 1.583-11.78 1.687-1.444 4.166-1.043 5.093 0.823 0.351 0.706 0.38 1.441 0.435 10.857 0.053 9.098 0.092 10.125 0.388 10.35 0.463 0.352 5.842 0.348 6.324-4e-3 0.481-0.352 0.405-23.773-0.081-24.946-2.406-5.806-10.689-6.23-13.727-0.703-0.593 1.079-0.75 1.076-1.294-0.029-1.465-2.974-5.625-4.779-8.369-3.632m90.1 0.145c-3.485 0.982-6.401 3.808-7.655 7.419-0.75 2.159-0.836 2.525-1.061 4.5-1.382 12.14 6.217 20.684 15.454 17.377 10.967-3.927 11.234-25.225 0.362-28.92-2.025-0.689-2.402-0.756-4.114-0.735-1.002 0.012-2.313 0.17-2.986 0.359m31.158-0.076c-1.806 0.569-3.095 1.773-4.214 3.938-0.753 1.457-0.844 1.335-0.844-1.136 0-1.31-0.085-2.112-0.24-2.267-0.304-0.304-5.614-0.332-6.173-0.033-0.588 0.315-0.609 28.13-0.021 28.662 0.556 0.503 5.803 0.488 6.408-0.019 0.412-0.344 0.419-0.497 0.479-9.65 0.059-9.037 0.073-9.331 0.499-10.384 1.323-3.271 4.813-3.884 6.248-1.098l0.5 0.971 0.052 9.905c0.052 9.786 0.058 9.91 0.473 10.256 0.586 0.489 5.643 0.52 6.33 0.039l0.445-0.312v-10.314c0-10.298-0.194-13.683-0.822-14.353-0.098-0.105-0.178-0.317-0.178-0.473 0-0.473-1.337-2.139-2.193-2.732-1.747-1.211-4.695-1.647-6.749-1m-62.546 0.476c-0.231 0.373-0.145 4.838 0.098 5.131 0.196 0.236 1.085 0.288 4.903 0.288 2.565 0 4.711 0.076 4.768 0.17 0.058 0.093-0.834 1.51-1.981 3.15-1.148 1.639-3.057 4.365-4.242 6.057-2.43 3.47-2.514 3.592-3.757 5.518l-0.901 1.395v3.03c0 3.812-8e-3 3.8 2.16 2.918 5.689-2.314 11.438-2.3 16.554 0.043 1.959 0.897 2.17 0.595 2.057-2.95-0.082-2.59-0.106-2.639-1.705-3.422-2.086-1.021-3.949-1.469-6.816-1.638-1.238-0.073-2.25-0.213-2.25-0.312 0-0.19 0.815-1.389 4.592-6.759 1.277-1.815 2.453-3.496 2.615-3.736 0.161-0.24 0.878-1.275 1.593-2.3l1.3-1.864 0.068-2.277c0.052-1.743 5e-3 -2.317-0.2-2.447-0.364-0.231-18.714-0.226-18.856 5e-3m35.718 4.824c1.407 0.391 2.018 1.371 2.805 4.495 0.38 1.507 0.323 9.069-0.079 10.5-0.741 2.64-1.488 3.653-3.025 4.099-3.498 1.017-5.331-2.435-5.331-10.041 0-7.105 1.862-10.099 5.63-9.053m-120.03 12.057c-4e-3 3.6-1.23 6.103-3.442 7.027-3.338 1.395-5.951-2.481-4.163-6.175 0.84-1.735 2.563-2.637 5.507-2.882 2.271-0.189 2.1-0.354 2.098 2.03m70.002 0.203c0 4.166-1.642 6.763-4.477 7.083-2.327 0.262-4.078-2.234-3.501-4.991 0.566-2.704 2.425-4.079 5.862-4.338 2.298-0.173 2.116-0.366 2.116 2.246m34.554 14.928c-1.576 1.24-0.839 3.44 1.152 3.44 1.069 0 1.572-0.356 1.898-1.345 0.563-1.705-1.631-3.211-3.05-2.095m-80.783 0.541c-0.546 0.145-0.565 0.558-0.568 11.902-3e-3 11.912-0.037 11.564 1.107 11.564 0.519 0 0.96-0.546 1.17-1.45 0.168-0.724 0.479-0.691 1.281 0.134 2.271 2.339 6.346 2.173 8.565-0.348 3.281-3.727 3.251-11.494-0.057-14.543-2.37-2.184-6.445-2.312-8.065-0.253-0.725 0.922-0.804 0.614-0.804-3.133 0-4.161-0.236-4.509-2.629-3.873m80.543 5.78c-0.276 0.276-0.314 1.378-0.314 9.076 0 9.952-0.117 9.31 1.7 9.31s1.7 0.633 1.7-9.238c0-5.606-0.073-8.826-0.207-9.075-0.272-0.509-2.389-0.563-2.879-0.073m-120.94 0.202c-0.288 0.288-0.281 0.443 0.076 1.75 0.68 2.49 1.324 4.796 1.659 5.934 0.311 1.06 0.529 1.825 0.885 3.1 0.092 0.33 0.308 1.095 0.48 1.7 0.173 0.605 0.534 1.91 0.804 2.9 0.732 2.691 0.57 2.5 2.121 2.5h1.352l0.331-1.25c0.407-1.534 0.663-2.519 0.912-3.5 0.105-0.412 0.336-1.29 0.514-1.95s0.405-1.515 0.505-1.9c0.099-0.385 0.296-1.143 0.438-1.684 0.408-1.559 0.628-1.325 1.438 1.529 0.414 1.46 0.824 2.88 0.911 3.155 0.088 0.275 0.318 1.085 0.512 1.8 0.878 3.237 1.107 3.799 1.559 3.823 2.075 0.111 2.261 0.03 2.549-1.099 0.101-0.398 0.267-1.016 0.368-1.374s0.423-1.55 0.716-2.65c0.791-2.966 1.106-4.132 1.3-4.8 0.096-0.33 0.306-1.095 0.467-1.7 0.16-0.605 0.528-1.955 0.816-3 0.926-3.355 0.897-3.6-0.421-3.6-1.262 0-1.411 0.181-2.06 2.5-0.093 0.33-0.542 1.905-0.998 3.5s-0.952 3.35-1.102 3.9c-0.679 2.491-0.761 2.533-1.299 0.65-1.236-4.325-1.279-4.476-1.708-6.05-0.18-0.66-0.399-1.425-0.488-1.7-0.088-0.275-0.281-0.905-0.427-1.4-0.725-2.447-2.646-1.93-3.396 0.915-0.23 0.872-0.629 2.395-0.887 3.385s-0.645 2.475-0.861 3.3c-0.215 0.825-0.448 1.748-0.517 2.05-0.07 0.303-0.249 0.55-0.399 0.55-0.151 0-0.333-0.247-0.406-0.55-0.293-1.221-0.509-2.036-1.02-3.85-0.294-1.045-0.667-2.395-0.827-3-0.857-3.222-1.063-3.784-1.463-3.998-0.589-0.315-2.075-0.246-2.434 0.114m27.83-0.067c-0.275 0.122-0.86 0.38-1.3 0.573-4.759 2.091-5.88 11.233-1.882 15.356 1.697 1.751 5.575 2.654 7.723 1.799 2.19-0.872 3.392-1.877 4.245-3.549 0.552-1.082 0.53-1.2-0.28-1.538-1.387-0.58-2.035-0.412-2.723 0.708-2.409 3.913-7.465 2.173-7.922-2.728l-0.119-1.27h5.689c6.255 0 6.169 0.017 6.169-1.228 0-2.584-1.442-5.791-3.162-7.033-1.67-1.205-4.933-1.758-6.438-1.09m35.6 0.259c-4.716 1.703-4.563 7.802 0.233 9.322 0.725 0.229 1.561 0.408 3.56 0.763 4.33 0.769 4.595 4.488 0.364 5.111-2.077 0.306-5.157-1.17-5.157-2.471 0-0.792-2.654-0.607-2.912 0.203-0.265 0.836 1.376 3.136 2.744 3.846 2.356 1.222 6.696 1.264 8.794 0.085 3.672-2.065 3.54-7.365-0.226-9.029-0.671-0.297-2.124-0.648-4.7-1.136-4.196-0.795-4.031-4.601 0.2-4.601 1.774 0 2.333 0.309 3.752 2.067l0.459 0.569 1.145-0.333c1.59-0.462 1.554-1.235-0.142-3.067-1.612-1.742-5.299-2.345-8.114-1.329m17.527-0.1c-6.605 2.509-7.162 14.087-0.827 17.201 1.356 0.666 4.452 0.808 6.018 0.276 2.997-1.019 5.449-4.542 3.532-5.074-1.396-0.388-1.797-0.287-2.351 0.591-2.499 3.959-7.16 2.772-8.105-2.064-0.364-1.86-0.748-1.738 5.483-1.738 6.591 0 6.123 0.123 6.123-1.602 0-5.616-4.984-9.448-9.873-7.59m23.154-0.132c-0.095 0.248 5.292 16.721 5.746 17.574 0.232 0.435 2.989 0.518 3.325 0.1 0.224-0.279 0.836-2.085 3.239-9.55 0.902-2.805 1.714-5.28 1.804-5.5 1.005-2.467 0.901-2.9-0.7-2.9h-1.262l-0.338 0.95c-0.185 0.523-0.41 1.13-0.498 1.35s-0.538 1.615-1 3.1c-0.461 1.485-0.953 3.06-1.093 3.5s-0.46 1.475-0.71 2.3c-0.489 1.61-0.903 2.298-1.075 1.786-0.052-0.158-0.325-1.006-0.607-1.886-0.502-1.572-1.899-5.9-3.016-9.35l-0.567-1.75h-1.571c-1.151 0-1.599 0.074-1.677 0.276m27.282 0.109c-2.362 0.924-3.379 2.045-4.455 4.915-1.183 3.156-0.34 8.655 1.68 10.956 3.493 3.978 11.219 1.478 11.298-3.656l0.014-0.9-1.256-0.06-1.256-0.059-0.298 0.759c-1.222 3.124-3.36 4.18-5.427 2.682-2.744-1.987-2.792-9.403-0.077-11.641 1.87-1.541 4.376-0.626 5.319 1.942 0.448 1.22 0.76 1.478 1.783 1.474 1.184-5e-3 1.386-0.2 1.27-1.227-0.444-3.945-4.897-6.631-8.595-5.185m16.12-0.088c-4.892 1.545-7.148 8.384-4.564 13.835 2.659 5.609 11.211 5.515 13.623-0.15 0.281-0.66 0.102-0.94-0.755-1.186-1.375-0.394-1.74-0.278-2.378 0.758-2.425 3.942-7.705 2.228-7.977-2.59l-0.077-1.364 5.572-3e-3c6.58-4e-3 6.167 0.136 6.013-2.027-0.393-5.508-4.658-8.788-9.457-7.273m15.262 0.181c-2.39 0.799-3.545 2.33-3.545 4.695 0 3.27 1.797 4.561 7.693 5.531 3.484 0.573 3.787 4.194 0.411 4.895-2.437 0.506-4.674-0.35-5.578-2.135-0.518-1.024-2.935-0.96-3.088 0.083-0.14 0.957 1.496 3.123 2.832 3.748 5.379 2.518 11.33 0.219 11.33-4.376 0-3.481-1.331-4.508-7.4-5.712-0.495-0.098-1.133-0.228-1.419-0.289-1.453-0.309-2.173-2.509-1.131-3.458 1.637-1.491 4.127-1.21 5.877 0.664l1.028 1.1 1.122-0.326c1.195-0.347 1.319-0.557 0.932-1.575-1.025-2.695-5.402-4.069-9.064-2.845m-63.292-0.083c-0.756 0.179-1.924 1.023-2.38 1.718-0.421 0.642-0.673 0.616-0.673-0.068 0-0.931-0.507-1.445-1.424-1.445-1.693 0-1.576-0.644-1.576 8.691 0 9.717-0.147 8.909 1.621 8.909h1.379l7e-3 -4.65c9e-3 -5.893 0.262-7.213 1.711-8.935 0.627-0.745 1.852-1.415 2.587-1.415 1.043 0 1.295-0.308 1.295-1.584 0-1.438-0.541-1.698-2.547-1.221m-51.106 2.198c3.521 1.599 3.705 10.783 0.253 12.652-2.005 1.087-4.49-0.299-5.295-2.953-1.658-5.465 1.402-11.351 5.042-9.699m-16.887 0.077c1.249 0.522 2.54 2.637 2.54 4.162 0 0.528-0.511 0.588-4.5 0.525l-3.6-0.057-0.067-0.476c-0.365-2.582 3.16-5.184 5.627-4.154m53.759 0.195c1.052 0.555 1.648 1.377 2.082 2.867 0.494 1.702 0.533 1.686-3.979 1.622l-3.822-0.054-0.061-0.738c-0.231-2.772 3.278-5.017 5.78-3.697m66.2-2e-3c1.231 0.647 2.219 2.279 2.138 3.537l-0.057 0.9-3.8 0.049c-4.507 0.059-4.505 0.06-4.037-1.386 0.972-3 3.428-4.323 5.756-3.1" fill="#060606"/>
<path d="m0 100v100h200 200v-100-100h-200-200v100m150.8-45.508c2.365 0.738 5.2 1.611 6.3 1.941s2.034 0.635 2.076 0.676c0.176 0.176-0.513 0.38-7.476 2.217-2.75 0.726-5.141 1.361-5.314 1.411-0.172 0.05-1.207-0.148-2.3-0.439-1.092-0.291-2.751-0.734-3.686-0.984s-2.96-0.79-4.5-1.2c-2.749-0.733-3.05-0.837-2.883-0.991 0.046-0.042 1.298-0.452 2.783-0.912 1.485-0.459 2.925-0.913 3.2-1.008s1.715-0.547 3.2-1.005c1.485-0.457 2.88-0.911 3.1-1.008 0.541-0.239 0.598-0.226 5.5 1.302m33.406-1.011c0.821 0.265 2.574 0.814 3.894 1.22s3.615 1.121 5.1 1.59c3.204 1.01 3.308 0.882-1.8 2.212-2.915 0.758-5.429 1.426-7.223 1.919l-1.522 0.418-3.078-0.835c-1.692-0.46-4.067-1.098-5.277-1.42-5.54-1.472-5.379-1.259-1.8-2.398 1.65-0.526 4.35-1.373 6-1.882 1.65-0.51 3.18-1.006 3.4-1.102 0.587-0.258 0.673-0.247 2.306 0.278m-52.812 6.514c0.718 0.217 2.116 0.63 3.106 0.917 0.99 0.286 2.79 0.821 4 1.188 1.21 0.366 2.875 0.866 3.7 1.109 0.825 0.244 1.613 0.533 1.75 0.642 0.448 0.355 0.355 21.349-0.095 21.349-0.309 0-9.579-2.987-10.555-3.401-0.22-0.094-1.03-0.369-1.8-0.611-0.77-0.243-1.512-0.53-1.65-0.639-0.27-0.214-0.384-20.548-0.117-20.816 0.184-0.184 0.193-0.182 1.661 0.262m31.034 10.108c-0.04 5.718-0.097 10.425-0.129 10.459-0.16 0.175-14.098 4.772-14.19 4.68-0.06-0.06-0.109-4.902-0.109-10.761v-10.652l2.25-0.69c1.238-0.38 2.79-0.852 3.45-1.05 6.837-2.052 8.241-2.452 8.5-2.42 0.263 0.032 0.291 1.306 0.228 10.434m5.212-10.216c0.583 0.158 2.59 0.75 4.46 1.316s3.715 1.118 4.1 1.226c0.385 0.109 1.578 0.467 2.65 0.797l1.95 0.599v10.654c0 5.86-0.05 10.704-0.111 10.766-0.061 0.061-3.346-0.967-7.3-2.284l-7.189-2.396v-10.349c0-5.692 0.06-10.409 0.133-10.483 0.17-0.169 0.072-0.181 1.307 0.154m31.387 10.217c-0.04 5.718-0.096 10.422-0.125 10.455-0.161 0.179-14.093 4.784-14.188 4.689-0.063-0.063-0.114-4.909-0.114-10.769v-10.654l1.95-0.592c1.073-0.326 3.21-0.966 4.75-1.422 2.82-0.834 5.775-1.726 6.7-2.023 1.171-0.376 1.107-1.018 1.027 10.316m-105.03 14.604c1.155 0.364 3.315 1.035 4.8 1.491 5.775 1.772 5.856 1.812 4.45 2.184-3.867 1.025-5.844 1.545-8.821 2.322l-3.472 0.906-2.128-0.592c-1.991-0.553-3.619-0.99-7.529-2.018-0.88-0.232-1.937-0.51-2.35-0.619-0.922-0.243-0.954-0.488-0.1-0.752 0.358-0.11 2.63-0.831 5.05-1.602 6.644-2.116 6.961-2.204 7.5-2.089 0.275 0.059 1.445 0.405 2.6 0.769m34.643-0.626c1.135 0.374 5.823 1.82 7.957 2.454 0.935 0.279 1.88 0.581 2.1 0.671 0.22 0.091 0.738 0.268 1.15 0.395 0.413 0.126 0.75 0.309 0.75 0.406s-0.337 0.266-0.75 0.376c-0.412 0.11-1.29 0.343-1.95 0.519-0.66 0.175-2.55 0.679-4.2 1.119-5.344 1.425-5.977 1.566-6.492 1.445-0.782-0.183-9.113-2.411-10.858-2.904-2.001-0.565-1.981-0.601 0.8-1.46 1.292-0.4 2.575-0.806 2.85-0.904s1.985-0.639 3.8-1.203c1.815-0.565 3.39-1.057 3.5-1.095 0.352-0.122 0.47-0.106 1.343 0.181m40.977 5.572c5.075 1.932 5.78 3.661 5.78 14.173 0 7.309 4e-3 7.338 1.254 9.266 1.35 2.083 1.327 2.163-1.221 4.308-0.588 0.495-1.35 1.15-1.695 1.456-1.299 1.156-2.221 0.842-3.838-1.307-1.204-1.599-1.068-1.579-2.466-0.364-3.832 3.331-10.438 3.497-13.389 0.336-0.679-0.727-1.009-1.235-1.683-2.584-0.646-1.295-0.643-6.021 5e-3 -7.273 0.104-0.201 0.356-0.722 0.561-1.158 1.573-3.352 5.739-5.179 13.322-5.843l1.35-0.118v-1.237c0-5.029-5.635-6.298-7.583-1.709-0.257 0.605-0.568 1.171-0.692 1.258-0.598 0.421-5.934-0.316-6.455-0.891-0.601-0.664 0.639-3.93 2.079-5.472 1.624-1.74 3.314-2.611 6.551-3.377 1.338-0.316 6.833 0.046 8.12 0.536m69.88-0.113c5.297 2.069 5.899 3.471 5.902 13.751 3e-3 7.704 0.016 7.796 1.477 10.054 1.281 1.981 1.486 1.522-2.101 4.703-2.295 2.035-3.534 1.741-5.473-1.299-0.422-0.661-0.507-0.671-1.124-0.128-5.158 4.532-12.924 4.206-15.203-0.638-0.177-0.376-0.447-0.945-0.6-1.265-0.374-0.781-0.397-6.38-0.028-6.749 0.138-0.138 0.25-0.371 0.25-0.52 0-0.302 1.144-2.132 1.723-2.756 1.136-1.223 3.198-2.397 5.077-2.89 0.495-0.129 1.215-0.32 1.6-0.423 0.689-0.185 3.198-0.518 5.45-0.724l1.15-0.105v-1.557c0-4.782-6.009-5.883-7.506-1.376-0.459 1.382-0.593 1.445-2.74 1.291-3.999-0.286-4.65-0.569-4.487-1.95 0.429-3.618 4.079-6.968 8.533-7.831 1.376-0.266 7.11 0.025 8.1 0.412m-41.8-0.141c0.068 0.11 0.283 0.2 0.478 0.2 0.739 0 2.271 1.275 3.286 2.735l1.022 1.471 0.283-0.553c3.017-5.897 12.31-5.297 14.331 0.924 0.421 1.295 0.482 24.462 0.066 24.964-0.294 0.355-6.573 0.372-6.926 0.019-0.18-0.18-0.24-2.57-0.24-9.527 0-10.587-0.084-11.503-1.148-12.567-1.36-1.36-3.965-0.749-5.06 1.187l-0.479 0.847-0.072 9.8c-0.087 11.805 0.39 10.5-3.841 10.5-4.25 0-3.772 1.304-3.85-10.508-0.07-10.638-0.085-10.79-1.192-11.872-1.019-0.996-3.048-0.93-4.113 0.135-1.266 1.266-1.315 1.691-1.399 12.333-0.088 11.149 0.396 9.897-3.83 9.906-4.333 9e-3 -3.816 2.016-3.816-14.81v-14.155l0.527-0.414c0.472-0.372 0.799-0.415 3.155-0.415 3.478 0 3.518 0.027 3.518 2.333v1.711l0.918-1.247c1.088-1.478 1.734-2.071 2.682-2.463 0.385-0.159 0.925-0.383 1.2-0.498 0.646-0.27 4.337-0.3 4.5-0.036m92.138 0.142c2.124 0.605 4.328 2.126 5.67 3.911 1.468 1.952 2.254 3.846 3.073 7.4 0.281 1.22 0.285 6.546 6e-3 7.624-0.511 1.975-0.82 3.05-0.984 3.423-0.097 0.22-0.331 0.76-0.521 1.2-2.911 6.74-11.501 8.971-17.538 4.556-0.526-0.385-1.201-1.027-1.5-1.428-0.299-0.4-0.682-0.882-0.852-1.07-0.262-0.292-1.274-2.334-1.812-3.658-1.444-3.553-1.422-9.508 0.051-13.98 2.049-6.217 8.347-9.705 14.407-7.978m29.911 0.039c2.782 1.017 4.057 2.634 4.746 6.019 0.476 2.341 0.453 22.905-0.026 23.434-0.491 0.543-6.436 0.555-6.926 0.014-0.28-0.31-0.327-1.539-0.39-10.25-0.078-10.772-0.077-10.762-1.228-11.84-1.319-1.235-3.78-0.723-4.69 0.976-0.882 1.648-0.892 1.763-0.981 11.466-0.104 11.221 0.362 10-3.819 10-4.356 0-3.835 2.029-3.835-14.926v-14.264l0.59-0.305c0.434-0.224 1.232-0.305 3.01-0.305s2.576 0.081 3.01 0.305l0.59 0.305v2.035 2.036l0.55-1.079c0.656-1.285 2.12-2.837 3.068-3.25 0.375-0.164 0.907-0.394 1.182-0.511 0.873-0.373 3.976-0.288 5.149 0.14m-48.699 0.297c0.299 0.227 0.35 0.615 0.35 2.658v2.393l-1.035 1.485c-0.57 0.817-1.342 1.936-1.715 2.486-0.374 0.55-0.807 1.18-0.962 1.4s-1.673 2.38-3.372 4.8l-3.089 4.4 2.136 0.13c3.825 0.232 7.758 1.532 8.38 2.77 0.274 0.545 0.362 5.349 0.104 5.7-0.383 0.521-0.824 0.718-1.181 0.528-0.201-0.107-0.726-0.341-1.166-0.521-0.44-0.179-0.935-0.399-1.101-0.488-0.165-0.088-0.975-0.317-1.8-0.509-0.824-0.191-1.775-0.429-2.113-0.529-0.858-0.253-5.283-0.227-6.433 0.038-2.938 0.677-3.613 0.901-5.812 1.927-1.313 0.614-1.641-0.063-1.641-3.387 0-3.582-0.066-3.446 5.426-11.161 0.821-1.154 1.665-2.39 1.876-2.748 0.212-0.358 0.455-0.65 0.541-0.65s0.157-0.087 0.157-0.193 0.675-1.142 1.5-2.301c0.825-1.158 1.5-2.152 1.5-2.206 0-0.055-2.085-0.1-4.634-0.1-5.764 0-5.366 0.225-5.366-3.031 0-3.51-1.067-3.17 9.95-3.163 7.291 5e-3 9.221 0.061 9.5 0.272m-190.96 2.012c2.754 0.819 5.908 1.753 7.008 2.076l2 0.586 0.052 10.724c0.048 9.908 0.026 10.724-0.283 10.724-0.378 0-13.252-4.27-13.869-4.6-0.491-0.263-0.648-21-0.158-21 0.133 0 2.495 0.67 5.25 1.49m27.504 8.76c-5e-3 5.638-0.082 10.367-0.17 10.509-0.089 0.143-2.628 1.098-5.643 2.124-3.016 1.026-5.618 1.914-5.783 1.974-1.078 0.391-2.326 0.743-2.637 0.743-0.351 0-0.364-0.445-0.315-10.725l0.052-10.726 4.7-1.387c5.198-1.534 7.843-2.324 8.6-2.567 1.309-0.421 1.208-1.276 1.196 10.055m6.224-9.632c1.144 0.34 3.385 1.01 4.98 1.488s3.8 1.133 4.9 1.455l2 0.585 0.052 10.577c0.029 5.817 0.012 10.682-0.038 10.811-0.06 0.157-2.421-0.552-7.152-2.147-3.884-1.31-7.084-2.383-7.112-2.384-0.144-8e-3 -0.024-21.003 0.12-21.003 0.094 0 1.106 0.278 2.25 0.618m30.335 9.765c-0.03 5.711-0.113 10.442-0.185 10.514-0.071 0.071-1.196 0.487-2.5 0.925-1.303 0.437-2.55 0.875-2.77 0.972-0.868 0.384-8.422 2.806-8.75 2.806-0.369 0-0.561-20.788-0.197-21.311 0.081-0.116 2.262-0.829 4.847-1.585 2.585-0.757 5.645-1.664 6.8-2.018 1.155-0.353 2.26-0.652 2.455-0.664 0.337-0.021 0.353 0.52 0.3 10.361m141.39-5.548c-2.338 0.64-3.537 5.238-2.969 11.388 0.481 5.22 1.605 7.374 3.847 7.376 2.991 3e-3 4.174-2.615 4.174-9.239 0-7.773-1.452-10.51-5.052-9.525m-120.95 10.154c-2.985 0.451-4.6 2.186-4.6 4.942 0 3.054 2.421 4.691 4.796 3.243 1.762-1.074 2.804-3.648 2.804-6.924v-1.45l-1.05 0.027c-0.578 0.014-1.455 0.088-1.95 0.162m70.2-0.051c-2.025 0.214-4.062 1.746-4.568 3.434-1.144 3.819 1.852 6.628 4.884 4.578 1.642-1.111 2.484-3.216 2.484-6.214v-1.936l-1.05 0.032c-0.578 0.018-1.365 0.065-1.75 0.106m-118.72 11.325c7.109 2.208 6.984 2.143 5.07 2.624-0.798 0.2-2.531 0.658-3.851 1.018-1.32 0.359-3.66 0.98-5.2 1.38l-2.8 0.727-3.7-1.006c-10.613-2.883-9.935-2.57-7.3-3.369 1.885-0.572 9.001-2.808 10-3.143 1.049-0.351 0.685-0.434 7.781 1.769m-21.98 4.719c0.33 0.1 1.814 0.544 3.299 0.985 1.485 0.442 3.735 1.114 5 1.494s2.953 0.886 3.75 1.124l1.45 0.432v10.598c0 9.227-0.039 10.612-0.299 10.712-0.24 0.092-9.616-2.859-11.201-3.525-0.22-0.092-0.895-0.329-1.5-0.526s-1.212-0.441-1.35-0.542c-0.367-0.268-0.365-20.934 1e-3 -20.934 0.139 0 0.521 0.082 0.85 0.182m31.699 10.206c0 8.094-0.055 10.423-0.25 10.545-0.258 0.162-6.82 2.419-11.5 3.956l-2.65 0.87v-10.755-10.755l0.55-0.219c0.303-0.12 2.26-0.722 4.35-1.338 2.09-0.615 4.97-1.465 6.4-1.888s2.713-0.777 2.85-0.787c0.197-0.013 0.25 2.185 0.25 10.371m149.38-9.242c1.3 1.576 0.362 3.554-1.685 3.554s-2.985-1.978-1.685-3.554c0.569-0.692 0.692-0.746 1.685-0.746s1.116 0.054 1.685 0.746m-81.172 0.261c0.36 0.193 0.387 0.451 0.387 3.699v3.491l0.891-0.68c2.415-1.843 5.893-1.457 8.136 0.904 3.786 3.984 2.846 13.685-1.545 15.944-2.51 1.291-5.299 1.051-7.197-0.62-0.924-0.813-1.273-0.803-1.282 0.039-0.01 0.939-1.957 1.45-2.396 0.629-0.379-0.707-0.276-22.915 0.107-23.299 0.365-0.365 2.285-0.436 2.899-0.107m64.566 5.772c0.209 0.209 0.709 1.446 1.111 2.75s0.81 2.551 0.907 2.771c0.096 0.22 0.549 1.615 1.007 3.1s0.908 2.88 1 3.1 0.208 0.535 0.258 0.7c0.071 0.231 0.124 0.209 0.233-0.1 0.078-0.22 0.212-0.58 0.299-0.8 0.086-0.22 0.406-1.21 0.71-2.2 0.305-0.99 0.757-2.43 1.005-3.2 0.249-0.77 0.781-2.435 1.182-3.7 0.824-2.595 0.996-2.8 2.36-2.8 1.128 0 1.749 0.269 1.75 0.757 1e-3 0.318-2.418 8.047-2.799 8.943-0.093 0.22-0.774 2.266-1.512 4.547-1.517 4.69-1.466 4.616-3.265 4.717-1.83 0.101-1.931-0.021-3.193-3.864-0.577-1.76-1.13-3.38-1.227-3.6s-0.324-0.895-0.505-1.5-0.406-1.28-0.5-1.5-0.319-0.895-0.5-1.5-0.404-1.28-0.497-1.5-0.323-0.895-0.51-1.5c-0.188-0.605-0.419-1.254-0.513-1.441-0.416-0.824-0.453-2.011-0.072-2.289 0.588-0.43 2.806-0.356 3.271 0.109m16.581-0.139c0.18 0.18 0.24 2.517 0.24 9.289v9.048l-0.445 0.312c-0.259 0.182-0.864 0.311-1.455 0.311s-1.196-0.129-1.455-0.311l-0.445-0.312v-9.048c0-10.314-0.157-9.529 1.9-9.529 0.838 0 1.518 0.098 1.66 0.24m-121.23 0.254c0.231 0.162 0.467 0.5 0.525 0.75 0.057 0.251 0.258 0.996 0.446 1.656 0.578 2.033 1.551 5.665 1.923 7.183 0.444 1.811 0.511 1.765 1.151-0.783 1.098-4.379 1.269-5.029 1.42-5.4 0.089-0.22 0.278-0.926 0.42-1.57 0.369-1.677 0.786-2.132 1.949-2.124 1.425 0.01 1.604 0.24 2.335 2.994 0.19 0.715 0.415 1.525 0.5 1.8s0.313 1.085 0.506 1.8c0.192 0.715 0.461 1.66 0.597 2.1 0.135 0.44 0.366 1.278 0.513 1.862 0.325 1.299 0.393 1.166 1.497-2.962 0.162-0.605 0.438-1.595 0.613-2.2s0.432-1.505 0.571-2c0.14-0.495 0.369-1.305 0.509-1.8 0.346-1.222 0.817-1.6 1.992-1.6 1.621 0 1.707 0.473 0.728 4-0.486 1.754-1.338 4.871-1.722 6.3-0.089 0.33-0.312 1.14-0.496 1.8s-0.548 2.01-0.808 3c-0.981 3.736-0.955 3.7-2.673 3.7-1.104 0-1.55-0.297-1.75-1.164-0.184-0.797-0.683-2.472-0.893-2.995-0.101-0.253-0.184-0.666-0.184-0.917 0-0.252-0.067-0.525-0.15-0.607-0.082-0.083-0.256-0.57-0.385-1.084-0.129-0.513-0.328-1.248-0.442-1.633s-0.316-1.13-0.45-1.655c-0.133-0.525-0.328-0.927-0.431-0.892-0.156 0.052-1.304 4.157-1.943 6.947-0.841 3.672-1.054 4-2.589 4-1.381 0-1.702-0.233-2.012-1.459-0.116-0.463-0.299-1.048-0.405-1.3-0.106-0.253-0.193-0.666-0.193-0.917 0-0.252-0.067-0.525-0.15-0.607-0.082-0.083-0.256-0.57-0.385-1.084-0.129-0.513-0.326-1.248-0.437-1.633-0.257-0.887-1.065-3.768-1.711-6.1-0.274-0.99-0.646-2.295-0.827-2.9-0.556-1.862-0.577-2.191-0.164-2.504 0.502-0.38 2.463-0.381 3.005-2e-3m29.669-0.041c3.12 1.1 5.2 4.353 5.2 8.132 0 1.666 0.237 1.601-6.117 1.662l-5.583 0.053 0.058 0.9c0.306 4.792 5.592 6.407 7.642 2.335 0.49-0.976 2.286-1.128 3.35-0.284 0.946 0.75-1.267 3.984-3.35 4.898-0.385 0.168-0.916 0.406-1.181 0.529-0.698 0.323-4.435 0.281-5.143-0.058-0.317-0.152-0.879-0.421-1.25-0.598-3.1-1.481-5.106-7.336-3.844-11.222 0.089-0.275 0.273-0.86 0.408-1.3 1.196-3.895 6.028-6.381 9.81-5.047m36.724 0.063c2.903 0.843 5.519 4.884 3.163 4.884-0.255 0-0.519 0.09-0.587 0.2-0.265 0.429-1.467 0.22-1.841-0.319-1.186-1.712-2.513-2.31-4.415-1.988-2.463 0.416-2.726 3.341-0.344 3.81 5.828 1.149 6.46 1.385 7.762 2.907 1.625 1.899 1.507 4.984-0.262 6.812-3.511 3.628-11.192 2.589-13.13-1.776-0.593-1.334-0.396-1.743 0.983-2.039 1.567-0.336 1.698-0.293 2.357 0.778 1.698 2.76 6.783 2.889 7.29 0.185 0.295-1.57-0.716-2.313-3.9-2.87-2.059-0.36-2.345-0.451-4-1.279-3.438-1.72-3.223-7.398 0.335-8.861 0.421-0.173 0.99-0.409 1.265-0.524 0.787-0.329 4.089-0.279 5.324 0.08m17.045 0.073c2.441 0.892 4.085 3.015 4.721 6.095 0.742 3.593 1.064 3.396-5.732 3.516l-5.658 0.1 0.048 1.099c0.205 4.692 5.084 6.111 7.554 2.198 0.266-0.421 0.661-0.822 0.878-0.891 0.625-0.198 2.58 0.451 2.724 0.906 0.295 0.93-1.776 3.699-3.304 4.417-0.385 0.181-0.961 0.451-1.281 0.6-2.121 0.99-6.251 0.059-8.148-1.839-4.179-4.179-2.987-13.794 1.963-15.83 0.421-0.173 0.991-0.409 1.266-0.524 0.883-0.369 3.786-0.28 4.969 0.153m15.522-0.157c1.137 0.518 0.639 3.368-0.589 3.368-3.176 0-4.302 2.515-4.302 9.612 0 5.44 0.03 5.311-1.271 5.522-2.57 0.417-2.554 0.479-2.486-9.408 0.065-9.297-0.055-8.726 1.829-8.726 1.158 0 1.728 0.395 1.728 1.197 0 0.533 3e-3 0.532 0.879-0.308 1.303-1.248 3.072-1.776 4.212-1.257m33.862-0.049c0.191 0.101 0.633 0.289 0.982 0.418 1.672 0.618 3.631 3.418 3.713 5.307 0.049 1.123-0.163 1.285-1.693 1.289-1.285 3e-3 -1.462-0.156-1.961-1.763-0.666-2.145-3.277-2.997-4.852-1.584-2.554 2.292-2.542 9.158 0.02 11.11 1.798 1.37 3.994 0.416 4.91-2.134 0.779-2.169 3.995-2.017 3.603 0.169-1.199 6.672-10.093 7.862-13.06 1.748-1.123-2.313-1.476-5.256-0.929-7.743 0.83-3.781 2.254-5.692 5.011-6.726 0.74-0.278 3.779-0.342 4.256-0.091m16.621 0.127c3.06 1.066 4.723 3.569 5.124 7.713 0.2 2.071 0.491 1.977-6.112 1.977h-5.586v0.777c0 4.821 5.099 6.615 7.644 2.689 0.297-0.459 0.718-0.891 0.935-0.959 0.611-0.194 2.58 0.45 2.72 0.889 0.303 0.955-1.74 3.7-3.299 4.433-0.385 0.181-0.961 0.451-1.281 0.6-1.996 0.932-6.02 0.114-7.97-1.619-4.334-3.853-3.196-14.006 1.8-16.057 0.413-0.169 0.976-0.402 1.251-0.517 0.771-0.322 3.77-0.276 4.774 0.074m15.846-0.094c3.308 1.054 5.612 4.491 3.38 5.043-1.815 0.448-1.91 0.434-2.524-0.39-0.316-0.423-0.682-0.838-0.815-0.923s-0.396-0.309-0.584-0.498c-0.694-0.693-3.584-0.488-4.293 0.305-1.077 1.204-0.516 2.835 1.081 3.145 5.555 1.079 6.44 1.385 7.5 2.593 1.769 2.015 1.918 4.72 0.371 6.748-3.364 4.411-13.736 2.572-13.736-2.436 0-1.369 2.825-1.561 3.561-0.242 1.635 2.928 7.439 2.82 7.439-0.139 0-1.369-0.938-1.959-4-2.513-2.065-0.374-2.355-0.467-4-1.285-3.655-1.817-3.273-7.54 0.601-8.998 0.385-0.145 0.879-0.339 1.099-0.431 0.586-0.246 4.129-0.23 4.92 0.021m-139.2 2.849c-1.243 0.468-2.493 2.088-2.652 3.437l-0.071 0.598 3.685 0.055c4.175 0.062 4.108 0.084 3.706-1.251-0.726-2.413-2.666-3.593-4.668-2.839m17.073 0.014c-3.355 1.462-3.775 9.748-0.601 11.864 2.87 1.914 5.518-0.768 5.498-5.566-0.02-4.757-2.149-7.495-4.897-6.298m36.641-0.076c-0.973 0.293-1.888 1.155-2.422 2.283-0.951 2.01-1.088 1.931 3.235 1.868l3.75-0.054-0.063-0.783c-0.19-2.373-2.346-3.96-4.5-3.314m66.2-0.01c-1.346 0.428-2.702 2.149-2.799 3.552l-0.038 0.555 3.75 0.054 3.75 0.055v-0.499c0-2.314-2.587-4.376-4.663-3.717" fill="#fbfbfb"/>
<path d="m145.3 53.19c-0.22 0.097-1.615 0.554-3.1 1.015s-3.195 0.996-3.8 1.187c-0.605 0.192-2.069 0.648-3.253 1.015-2.842 0.879-3.282 0.634 5.153 2.882 0.99 0.264 2.694 0.718 3.786 1.009 1.093 0.291 2.128 0.489 2.3 0.439 0.173-0.05 2.564-0.685 5.314-1.411 6.963-1.837 7.652-2.041 7.476-2.217-0.042-0.041-0.976-0.346-2.076-0.676s-3.935-1.203-6.3-1.941c-4.902-1.528-4.959-1.541-5.5-1.302m36.6 0.013c-0.22 0.096-1.75 0.592-3.4 1.102-1.65 0.509-4.35 1.356-6 1.882-3.579 1.139-3.74 0.926 1.8 2.398 1.21 0.322 3.585 0.96 5.277 1.42l3.078 0.835 1.522-0.418c1.794-0.493 4.308-1.161 7.223-1.919 5.108-1.33 5.004-1.202 1.8-2.212-1.485-0.469-3.78-1.184-5.1-1.59s-3.073-0.955-3.894-1.22c-1.633-0.525-1.719-0.536-2.306-0.278m-52.167 6.53c-0.267 0.268-0.153 20.602 0.117 20.816 0.138 0.109 0.88 0.396 1.65 0.639 0.77 0.242 1.58 0.517 1.8 0.611 0.976 0.414 10.246 3.401 10.555 3.401 0.45 0 0.543-20.994 0.095-21.349-0.137-0.109-0.925-0.398-1.75-0.642-0.825-0.243-2.49-0.743-3.7-1.109-1.21-0.367-3.01-0.902-4-1.188-0.99-0.287-2.388-0.7-3.106-0.917-1.468-0.444-1.477-0.446-1.661-0.262m28.667 0.947c-5.499 1.647-5.77 1.729-8.15 2.459l-2.25 0.69v10.652c0 5.859 0.049 10.701 0.109 10.761 0.092 0.092 14.03-4.505 14.19-4.68 0.264-0.289 0.166-20.861-0.099-20.893-0.165-0.02-1.875 0.435-3.8 1.011m7.933-0.947c-0.073 0.074-0.133 4.791-0.133 10.483v10.349l7.189 2.396c3.954 1.317 7.239 2.345 7.3 2.284 0.061-0.062 0.111-4.906 0.111-10.766v-10.654l-1.95-0.599c-1.072-0.33-2.265-0.688-2.65-0.797-0.385-0.108-2.23-0.66-4.1-1.226-5.191-1.572-5.569-1.668-5.767-1.47m31.667 0.055c-0.925 0.297-3.88 1.189-6.7 2.023-1.54 0.456-3.677 1.096-4.75 1.422l-1.95 0.592v10.654c0 5.86 0.051 10.705 0.113 10.768 0.094 0.093 14.034-4.514 14.191-4.691 0.028-0.031 0.083-4.734 0.123-10.452 0.08-11.334 0.144-10.692-1.027-10.316m-108.4 24.441c-0.715 0.219-3.28 1.028-5.7 1.799s-4.692 1.492-5.05 1.602c-0.854 0.264-0.822 0.509 0.1 0.752 0.413 0.109 1.47 0.387 2.35 0.619 3.91 1.028 5.538 1.465 7.529 2.018l2.128 0.592 3.472-0.906c2.977-0.777 4.954-1.297 8.821-2.322 1.406-0.372 1.325-0.412-4.45-2.184-1.485-0.456-3.645-1.127-4.8-1.491-2.921-0.92-2.946-0.923-4.4-0.479m37.7-0.328c-0.11 0.038-1.685 0.53-3.5 1.095-1.815 0.564-3.525 1.105-3.8 1.203s-1.558 0.504-2.85 0.904c-1.292 0.399-2.35 0.798-2.35 0.887 0 0.162 0.184 0.22 3.5 1.097 0.99 0.262 3.285 0.878 5.1 1.369s3.529 0.946 3.808 1.012c0.517 0.121 1.207-0.033 6.492-1.45 3.684-0.987 5.176-1.385 6.15-1.638 0.413-0.108 0.75-0.275 0.75-0.372s-0.337-0.28-0.75-0.406c-0.412-0.127-0.93-0.306-1.15-0.399s-0.58-0.213-0.8-0.266c-0.449-0.107-6.91-2.091-8.876-2.725-1.299-0.419-1.373-0.433-1.724-0.311m-52.7 16.909v10.41l0.85 0.385c0.468 0.213 1.009 0.388 1.203 0.391 0.194 2e-3 0.509 0.095 0.7 0.206 0.503 0.293 11.141 3.798 11.526 3.798 0.296 0 0.32-0.945 0.273-10.729l-0.052-10.729-1-0.284c-0.55-0.157-3.704-1.088-7.008-2.071-3.305-0.983-6.117-1.787-6.25-1.787-0.186 0-0.242 2.407-0.242 10.41m30.8-9.924c-2.192 0.69-3.639 1.124-8.1 2.427-2.2 0.643-4.066 1.263-4.147 1.378-0.377 0.536-0.171 21.309 0.211 21.309 0.311 0 1.56-0.352 2.636-0.743 0.165-0.06 2.767-0.948 5.783-1.974 3.015-1.026 5.555-1.981 5.644-2.124 0.328-0.527 0.108-20.648-0.227-20.699-0.165-0.025-0.975 0.166-1.8 0.426m6 10.014c0 5.775 0.022 10.501 0.05 10.503 0.028 1e-3 3.228 1.074 7.112 2.384 4.731 1.595 7.092 2.304 7.152 2.147 0.05-0.129 0.067-4.994 0.038-10.811l-0.052-10.577-2-0.585c-1.1-0.322-3.305-0.977-4.9-1.455-5.723-1.716-7.062-2.106-7.23-2.106-0.093 0-0.17 4.725-0.17 10.5m30-9.816c-1.155 0.355-4.215 1.263-6.8 2.02-2.585 0.756-4.766 1.469-4.847 1.585-0.31 0.445-0.179 21.114 0.135 21.234 0.241 0.092 7.534-2.167 8.812-2.73 0.22-0.097 1.467-0.534 2.77-0.971 1.304-0.438 2.429-0.854 2.5-0.925 0.311-0.311 0.143-20.79-0.17-20.825-0.165-0.018-1.245 0.257-2.4 0.612m-33.1 23.81c-0.999 0.335-8.115 2.571-10 3.143-2.223 0.674-2.202 0.796 0.251 1.439 1.182 0.31 2.419 0.648 2.749 0.752 0.33 0.103 2.265 0.637 4.3 1.186l3.7 0.998 2.8-0.727c1.54-0.4 3.88-1.021 5.2-1.38 1.32-0.36 3.053-0.818 3.851-1.018 1.914-0.481 2.039-0.416-5.07-2.624-7.096-2.203-6.732-2.12-7.781-1.769m-15.3 16.682c0 8.069 0.056 10.416 0.25 10.558 0.138 0.101 0.745 0.345 1.35 0.542s1.28 0.434 1.5 0.526c1.585 0.666 10.961 3.617 11.201 3.525 0.26-0.1 0.299-1.485 0.299-10.712v-10.598l-1.45-0.432c-0.797-0.238-2.485-0.744-3.75-1.124s-3.515-1.052-5-1.494c-1.485-0.441-2.969-0.885-3.299-0.985-0.329-0.1-0.711-0.182-0.85-0.182-0.198 0-0.251 2.179-0.251 10.376m29.7-9.572c-1.43 0.423-4.31 1.273-6.4 1.888-2.09 0.616-4.047 1.218-4.35 1.338l-0.55 0.219v10.675c0 8.406 0.053 10.677 0.25 10.679 0.36 4e-3 13.601-4.438 13.9-4.664 0.194-0.146 0.25-2.497 0.25-10.563 0-8.177-0.053-10.372-0.25-10.359-0.137 0.01-1.42 0.364-2.85 0.787" fill="#fbb334"/>
<path d="m193.85 89.338c0.193 0.05 0.508 0.05 0.7 0 0.193-0.05 0.035-0.092-0.35-0.092s-0.542 0.042-0.35 0.092m2.35-0.059c0 0.043 0.352 0.113 0.783 0.154s0.741 5e-3 0.688-0.079c-0.095-0.154-1.471-0.224-1.471-0.075m11.41 0.11c-0.187 0.119 0.025 0.143 0.6 0.07 0.49-0.063 0.928-0.147 0.973-0.187 0.188-0.163-1.305-0.052-1.573 0.117m2.807-0.117c0.046 0.04 0.483 0.124 0.973 0.187 0.575 0.073 0.787 0.049 0.6-0.07-0.268-0.169-1.761-0.28-1.573-0.117m19.983 0.131c-0.211 0.138-0.092 0.158 0.4 0.068 0.863-0.158 1.025-0.272 0.383-0.268-0.265 2e-3 -0.618 0.092-0.783 0.2m7.417-0.132c0.046 0.039 0.398 0.129 0.783 0.2 0.492 0.09 0.611 0.07 0.4-0.068-0.271-0.178-1.382-0.301-1.183-0.132m46.735 0.07c0.249 0.048 0.609 0.046 0.8-4e-3 0.192-0.05-0.012-0.089-0.452-0.087-0.44 3e-3 -0.596 0.044-0.348 0.091m2.865-0.068c0.046 0.041 0.523 0.121 1.06 0.179 0.597 0.064 0.869 0.037 0.7-0.07-0.259-0.165-1.941-0.268-1.76-0.109m27.833 0.065c0.193 0.05 0.507 0.05 0.7 0s0.035-0.092-0.35-0.092-0.542 0.042-0.35 0.092m2.8 0c0.193 0.05 0.508 0.05 0.7 0 0.193-0.05 0.035-0.092-0.35-0.092s-0.542 0.042-0.35 0.092m-136.32 0.677l-0.527 0.414v14.155c0 15.121-0.019 14.816 0.91 14.816 0.099 0-0.021-0.14-0.265-0.311l-0.445-0.312v-14.177-14.177l0.445-0.312c0.646-0.453 5.45-0.449 6.16 5e-3l0.495 0.316-0.472-0.416c-0.713-0.628-5.503-0.629-6.301-1e-3m16.49-0.351c0.318 0.244 1.583 0.904 1.583 0.826 0-0.133-1.259-0.888-1.483-0.889-0.101-1e-3 -0.146 0.028-0.1 0.063m14.4 0.011c0.204 0.186 1.783 0.923 1.783 0.833 0-0.114-1.509-0.908-1.725-0.908-0.078 0-0.104 0.034-0.058 0.075m39.383 0.325c-0.908 0.908-0.477 5.8 0.51 5.8 0.099 0-0.021-0.14-0.265-0.311-0.585-0.41-0.688-4.817-0.127-5.379 0.283-0.283 1.333-0.312 9.581-0.264 5.095 0.03 9.221-0.013 9.17-0.096-0.251-0.406-18.455-0.164-18.869 0.25m52.2-0.272c1.633 0.143 4.945 0.16 4.732 0.025-0.128-0.081-1.402-0.133-2.832-0.116-1.43 0.016-2.285 0.058-1.9 0.091m-113.14 0.787l-0.561 0.514 0.65-0.452c0.358-0.249 0.65-0.48 0.65-0.515 0-0.157-0.221-0.022-0.739 0.453m14.019 0.056c-0.429 0.314-0.96 0.785-1.18 1.047s-0.039 0.163 0.402-0.221c0.441-0.383 1.026-0.85 1.3-1.037 0.274-0.186 0.444-0.344 0.378-0.35-0.066-5e-3 -0.471 0.247-0.9 0.561m104.52 1.488l0.098 2.041 0.06-1.882c0.032-1.035-0.012-1.954-0.099-2.041s-0.114 0.76-0.059 1.882m11.201-2.012c0.055 0.06 0.55 0.446 1.1 0.859 0.589 0.442 0.82 0.554 0.562 0.272-0.241-0.263-0.736-0.649-1.1-0.859s-0.617-0.332-0.562-0.272m-106.2 0.616c0 0.034 0.293 0.327 0.65 0.65l0.65 0.587-0.587-0.65c-0.548-0.606-0.713-0.742-0.713-0.587m65.5 0.337c-0.33 0.219-0.51 0.396-0.4 0.394 0.201-3e-3 1.288-0.782 1.1-0.788-0.055-2e-3 -0.37 0.175-0.7 0.394m-37.5 0.263c0 0.034 0.293 0.327 0.65 0.65l0.65 0.587-0.587-0.65c-0.548-0.606-0.713-0.742-0.713-0.587m50.6-4e-3c0 0.051 0.423 0.44 0.941 0.864 0.517 0.424 0.876 0.666 0.797 0.538-0.168-0.272-1.738-1.538-1.738-1.402m-68.011 1.091l-0.689 0.75 0.75-0.689c0.413-0.379 0.75-0.717 0.75-0.75 0-0.153-0.169-9e-3 -0.811 0.689m53.211 0.15c-0.486 0.495-0.838 0.9-0.783 0.9s0.497-0.405 0.983-0.9 0.838-0.9 0.783-0.9-0.497 0.405-0.983 0.9m32.526-0.25l-0.359 0.65 0.412-0.5c0.365-0.443 0.528-0.8 0.364-0.8-0.031 0-0.219 0.292-0.417 0.65m-107.68 0.2c-0.283 0.357-0.681 1.15-0.578 1.15 0.048 0 0.273-0.315 0.5-0.7 0.413-0.7 0.452-0.922 0.078-0.45m-14.458 0.661c-0.241 0.39-0.399 0.749-0.351 0.797s0.289-0.271 0.535-0.71c0.556-0.989 0.415-1.056-0.184-0.087m-34.453 0.139c-0.543 0.734-0.909 1.366-0.608 1.05 0.371-0.39 1.287-1.7 1.188-1.7-0.055 0-0.316 0.292-0.58 0.65m69.911 0.2c-0.283 0.357-0.681 1.15-0.578 1.15 0.048 0 0.273-0.315 0.5-0.7 0.413-0.7 0.452-0.922 0.078-0.45m-7.217 0.95c0.01 0.52 0.325 1.373 0.332 0.9 3e-3 -0.22-0.071-0.58-0.166-0.8-0.105-0.245-0.17-0.284-0.166-0.1m-51.334 0.833c0.22 0.122 0.584 0.367 0.81 0.544 0.225 0.178 0.156 0.076-0.154-0.227-0.309-0.302-0.673-0.547-0.809-0.544s-0.067 0.106 0.153 0.227m57.489 0.295c-0.11 0.29-0.163 0.565-0.118 0.61 0.046 0.045 0.178-0.192 0.295-0.528 0.261-0.746 0.104-0.819-0.177-0.082m62.011-0.319c-0.219 0.148-0.138 0.167 0.3 0.069 0.735-0.165 0.895-0.279 0.383-0.275-0.21 2e-3 -0.518 0.094-0.683 0.206m1.817-0.137c0.046 0.039 0.353 0.132 0.683 0.206 0.438 0.098 0.519 0.079 0.3-0.069-0.27-0.183-1.184-0.31-0.983-0.137m-56.13 0.978l-0.587 0.65 0.65-0.587c0.358-0.323 0.65-0.616 0.65-0.65 0-0.155-0.165-0.019-0.713 0.587m5.896-0.119c0.23 0.347 0.417 0.724 0.417 0.838s0.082 0.258 0.181 0.319c0.344 0.213-0.01-0.617-0.512-1.202l-0.502-0.586 0.416 0.631m-44.933 0.412c0.303 0.046 0.798 0.046 1.1 0 0.303-0.046 0.055-0.083-0.55-0.083s-0.852 0.037-0.55 0.083m14.702-2e-3c0.249 0.048 0.609 0.046 0.8-4e-3 0.192-0.05-0.012-0.089-0.452-0.087-0.44 3e-3 -0.596 0.044-0.348 0.091m38.694 0.459c0 0.385 0.042 0.543 0.092 0.35 0.05-0.192 0.05-0.508 0-0.7s-0.092-0.035-0.092 0.35m15.754 0c-0.235 0.33-0.382 0.6-0.327 0.6s0.292-0.27 0.527-0.6 0.382-0.6 0.327-0.6-0.292 0.27-0.527 0.6m-93.776 0.205c0.303 0.895 0.474 1.069 0.29 0.295-0.078-0.33-0.228-0.688-0.334-0.795-0.105-0.108-0.085 0.117 0.044 0.5m23.037-0.09l-0.561 0.514 0.65-0.452c0.358-0.249 0.65-0.48 0.65-0.515 0-0.157-0.221-0.022-0.739 0.453m18.239-0.231c0.22 0.18 0.569 0.528 0.775 0.772l0.374 0.444-0.289-0.485c-0.159-0.267-0.508-0.615-0.775-0.772-0.463-0.274-0.467-0.272-0.085 0.041m14.332 0.542c-0.021 0.482 0.085 0.817 0.318 1 0.305 0.239 0.32 0.235 0.116-0.027-0.128-0.165-0.271-0.615-0.318-1l-0.084-0.699-0.032 0.726m101.82 10.413l-0.048 11.138-0.445 0.312c-0.244 0.171-0.348 0.311-0.23 0.311 0.874 0 0.881-0.111 0.825-11.818l-0.053-11.082-0.049 11.139m-149.36-4.239c0 3.685 0.027 5.193 0.06 3.35 0.033-1.842 0.033-4.858 0-6.7s-0.06-0.335-0.06 3.35m-22.667-6.081c-0.013 0.23 0.18 0.59 0.427 0.8 0.446 0.378 0.447 0.378 0.121-0.019-0.181-0.22-0.374-0.58-0.427-0.8-0.094-0.385-0.098-0.384-0.121 0.019m64.834 1.181c2e-3 0.55 0.041 0.751 0.087 0.447 0.045-0.304 0.044-0.754-3e-3 -1-0.048-0.246-0.085 3e-3 -0.084 0.553m57.657-0.186c-0.073 0.293-0.095 0.572-0.048 0.619s0.146-0.154 0.22-0.447c0.073-0.293 0.095-0.572 0.048-0.619s-0.146 0.154-0.22 0.447m-65.383 0.586c0.067 0.44 0.155 0.838 0.196 0.883 0.151 0.172 0.038-0.899-0.136-1.283-0.127-0.279-0.145-0.158-0.06 0.4m49.869-0.1c-0.235 0.33-0.382 0.6-0.327 0.6s0.292-0.27 0.527-0.6 0.382-0.6 0.327-0.6-0.292 0.27-0.527 0.6m-105-0.204c0.494 0.162 2.145 0.272 1.983 0.132-0.045-0.04-0.623-0.123-1.283-0.184-0.745-0.069-1.011-0.05-0.7 0.052m34.525 0.112c-0.069 0.178-0.117 0.475-0.108 0.658 0.01 0.184 0.097 0.069 0.194-0.256 0.188-0.631 0.121-0.944-0.086-0.402m35.475-0.109c0.494 0.159 2.345 0.268 2.183 0.129-0.045-0.04-0.668-0.121-1.383-0.181-0.78-0.065-1.1-0.045-0.8 0.052m13.062 0.901c1e-3 0.66 0.038 0.906 0.083 0.546 0.044-0.359 0.044-0.899-2e-3 -1.2-0.046-0.3-0.082-6e-3 -0.081 0.654m60.366-0.5c0 0.165 0.077 0.48 0.172 0.7 0.108 0.252 0.172 0.289 0.172 0.1 0-0.165-0.077-0.48-0.172-0.7-0.108-0.252-0.172-0.289-0.172-0.1m-30.121 0.717c-0.186 0.285-0.305 0.552-0.262 0.594 0.042 0.042 0.234-0.191 0.427-0.517 0.431-0.73 0.302-0.79-0.165-0.077m14.743 0.183c3e-3 0.44 0.044 0.596 0.091 0.348 0.048-0.249 0.046-0.609-4e-3 -0.8-0.05-0.192-0.089 0.012-0.087 0.452m-7.95 0.1c-0.076 0.346-0.096 0.67-0.045 0.721s0.15-0.195 0.22-0.546c0.167-0.834 5e-3 -0.995-0.175-0.175m-71.454 0.2c0 0.385 0.042 0.543 0.092 0.35 0.05-0.192 0.05-0.507 0-0.7-0.05-0.192-0.092-0.035-0.092 0.35m-14.4 0.6c0 0.385 0.042 0.543 0.092 0.35 0.05-0.192 0.05-0.508 0-0.7s-0.092-0.035-0.092 0.35m-23.946 0.01c-0.395 0.107-0.189 0.125 0.6 0.052 0.66-0.062 1.238-0.146 1.283-0.187 0.149-0.134-1.266-0.032-1.883 0.135m71.052-0.069c0.249 0.048 0.609 0.046 0.8-4e-3 0.192-0.05-0.012-0.089-0.452-0.087-0.44 3e-3 -0.596 0.044-0.348 0.091m21.974 0.509l-0.359 0.65 0.412-0.5c0.365-0.443 0.528-0.8 0.364-0.8-0.031 0-0.219 0.292-0.417 0.65m8.592 0.5c-0.406 0.633-0.529 0.904-0.273 0.603 0.505-0.594 1.229-1.753 1.095-1.753-0.046 0-0.416 0.518-0.822 1.15m43.728-0.55c0 0.385 0.042 0.543 0.092 0.35 0.05-0.192 0.05-0.507 0-0.7-0.05-0.192-0.092-0.035-0.092 0.35m7.002 8.419c-0.051 9.621-0.037 9.781 0.84 9.781 0.086 0-0.034-0.157-0.267-0.35-0.419-0.346-0.424-0.455-0.474-9.45l-0.051-9.1-0.048 9.119m-34.798-8.119c3e-3 0.44 0.044 0.596 0.091 0.348 0.048-0.249 0.046-0.609-4e-3 -0.8-0.05-0.192-0.089 0.012-0.087 0.452m-79.402 8.339l-0.048 8.938-0.445 0.312c-0.244 0.171-0.348 0.311-0.23 0.311 0.858 0 0.882-0.278 0.825-9.618l-0.054-8.882-0.048 8.939m28.402-8.501c0.193 0.05 0.507 0.05 0.7 0s0.035-0.092-0.35-0.092-0.543 0.042-0.35 0.092m67.207 0.962c2e-3 0.55 0.041 0.751 0.087 0.447 0.045-0.304 0.044-0.754-3e-3 -1-0.048-0.246-0.085 3e-3 -0.084 0.553m-7.978 2.5c0 1.595 0.032 2.247 0.07 1.45 0.037-0.797 0.037-2.103 0-2.9-0.038-0.797-0.07-0.145-0.07 1.45m19.369 5.639l-0.048 8.338-0.445 0.312c-0.244 0.171-0.348 0.311-0.23 0.311 0.853 0 0.882-0.322 0.825-9.018l-0.055-8.282-0.047 8.339m-83.598-7.441c-0.357 0.218-0.65 0.439-0.65 0.492s0.315-0.089 0.7-0.317c0.385-0.227 0.7-0.449 0.7-0.493 0-0.128-0.063-0.101-0.75 0.318m47.817 1.602c0 0.825 0.036 1.163 0.079 0.75 0.043-0.412 0.043-1.087 0-1.5-0.043-0.412-0.079-0.075-0.079 0.75m-109.27 0.596c-0.282 0.088 0.154 0.111 1 0.053 0.825-0.058 1.538-0.137 1.583-0.177 0.16-0.139-2.087-0.031-2.583 0.124m71.541-0.055l1.042 0.079 0.072 1.34 0.071 1.34-0.013-1.4-0.013-1.4-1.1-0.019-1.1-0.019 1.041 0.079m27.259 0.459c-0.235 0.33-0.382 0.6-0.327 0.6s0.292-0.27 0.527-0.6 0.382-0.6 0.327-0.6-0.292 0.27-0.527 0.6m-110.47 0.25l-0.359 0.65 0.412-0.5c0.365-0.443 0.528-0.8 0.364-0.8-0.031 0-0.219 0.293-0.417 0.65m100.83 0.8c-0.956 1.354-1.341 1.981-1.012 1.65 0.342-0.343 2.1-2.9 1.995-2.9-0.055 0-0.497 0.563-0.983 1.25m28.305 0.05c2e-3 0.55 0.041 0.751 0.087 0.447 0.045-0.304 0.044-0.754-3e-3 -1-0.048-0.246-0.085 3e-3 -0.084 0.553m-50.958-0.073c-0.393 0.346-0.808 0.818-0.923 1.05-0.115 0.233 0.025 0.137 0.311-0.213 0.286-0.349 0.766-0.819 1.066-1.043 0.301-0.225 0.483-0.411 0.404-0.415-0.079-3e-3 -0.465 0.276-0.858 0.621m67.133 0.273c-0.021 0.44-0.084 1.025-0.14 1.3l-0.103 0.5 0.215-0.493c0.118-0.271 0.181-0.856 0.14-1.3l-0.074-0.807-0.038 0.8m-15.982 1.6c3e-3 0.44 0.044 0.596 0.091 0.348 0.048-0.249 0.046-0.609-4e-3 -0.8-0.05-0.192-0.089 0.012-0.087 0.452m-8.016 0c-3e-3 0.22 0.071 0.58 0.166 0.8 0.219 0.51 0.219-0.016 0-0.7-0.129-0.402-0.161-0.422-0.166-0.1m-107.33 0.9c-0.077 0.455-0.098 0.869-0.046 0.92 0.051 0.051 0.153-0.282 0.226-0.74s0.094-0.872 0.046-0.92c-0.047-0.048-0.149 0.285-0.226 0.74m123 0.2c-0.076 0.346-0.096 0.67-0.045 0.721s0.15-0.195 0.22-0.546c0.167-0.834 5e-3 -0.995-0.175-0.175m-130.44 0.7c1e-3 0.66 0.038 0.906 0.083 0.546 0.044-0.359 0.044-0.899-2e-3 -1.2-0.046-0.3-0.082-6e-3 -0.081 0.654m77.463-0.592c-0.069 0.178-0.117 0.475-0.108 0.658 0.01 0.184 0.097 0.069 0.194-0.256 0.188-0.631 0.121-0.944-0.086-0.402m26.692-0.036c0.046 0.04 0.488 0.126 0.983 0.191 0.601 0.08 0.767 0.06 0.5-0.058-0.382-0.169-1.657-0.283-1.483-0.133m-112.15 1.728c0 0.825 0.036 1.163 0.079 0.75 0.043-0.412 0.043-1.087 0-1.5-0.043-0.412-0.079-0.075-0.079 0.75m93.561-0.8c0 0.165 0.077 0.48 0.172 0.7 0.108 0.252 0.172 0.289 0.172 0.1 0-0.165-0.077-0.48-0.172-0.7-0.108-0.252-0.172-0.289-0.172-0.1m5.298 1.45c-0.175 0.652-0.154 5.909 0.024 6.019 0.082 0.05 0.15-1.384 0.15-3.189 0-1.804-0.012-3.28-0.027-3.28-0.014 0-0.081 0.203-0.147 0.45m20.531 0.01c0.244 0.253 0.48 0.434 0.525 0.401 0.117-0.083-0.611-0.861-0.806-0.861-0.089 0 0.038 0.207 0.281 0.46m-105.26 0.39c-0.294 0.402-0.342 0.542-0.126 0.366 0.328-0.266 0.824-1.016 0.672-1.016-0.039 0-0.284 0.293-0.546 0.65m80.306 0.263c0.186 0.337 0.516 0.832 0.733 1.1l0.395 0.487-0.338-0.613c-0.186-0.337-0.516-0.832-0.733-1.1l-0.395-0.487 0.338 0.613m42.608 0.237c-0.432 0.552-0.467 0.645-0.131 0.352 0.401-0.35 0.93-1.102 0.775-1.102-0.031 0-0.321 0.338-0.644 0.75m-53.413 0.175c-0.36 0.306-0.433 0.428-0.184 0.304 0.367-0.182 1.055-0.841 0.858-0.822-0.04 4e-3 -0.344 0.237-0.674 0.518m-74.801 0.044c0.218 0.257 0.578 0.561 0.799 0.674 0.425 0.218 0.363 0.15-0.597-0.646-0.577-0.479-0.584-0.48-0.202-0.028m135.55 1.145c-0.247 0.377-0.41 0.686-0.361 0.686 0.139 0 0.967-1.215 0.884-1.297-0.04-0.041-0.276 0.234-0.523 0.611m-133.7-0.173c0.248 0.048 0.653 0.048 0.9 0s0.045-0.087-0.45-0.087-0.697 0.039-0.45 0.087m70 0c0.248 0.048 0.653 0.048 0.9 0s0.045-0.087-0.45-0.087-0.697 0.039-0.45 0.087m44.23 0.359c0.337 0.652 0.614 1.014 0.612 0.8 0-0.11-0.185-0.425-0.41-0.7-0.272-0.332-0.339-0.366-0.202-0.1m-29.235 0.311c0.072 0.277-0.081 0.622-0.469 1.051l-0.576 0.638 0.65-0.587c0.633-0.573 0.835-1.175 0.469-1.401-0.1-0.062-0.133 0.073-0.074 0.299m47.153 1.539c-0.538 0.633-0.77 0.97-0.516 0.75 0.483-0.418 1.71-1.9 1.573-1.9-0.043 0-0.519 0.518-1.057 1.15m-126.91 0.4l-0.689 0.75 0.7-0.625c0.385-0.344 0.835-0.675 1-0.735 0.26-0.094 0.258-0.111-0.011-0.124-0.171-9e-3 -0.621 0.322-1 0.734m70.712-0.552c-0.067 0.109 5e-3 0.149 0.162 0.089 0.174-0.067 0.447 0.145 0.707 0.552 0.233 0.363 0.425 0.585 0.427 0.492 0.012-0.605-1.049-1.533-1.296-1.133m22.253 0.147c0.359 0.044 0.899 0.044 1.2-2e-3 0.3-0.046 6e-3 -0.082-0.654-0.081s-0.906 0.038-0.546 0.083m17.246-0.082c0 0.034 0.293 0.327 0.65 0.65l0.65 0.587-0.587-0.65c-0.548-0.606-0.713-0.742-0.713-0.587m-20.5 0.337c-0.544 0.139-0.554 0.154-0.1 0.162 0.275 6e-3 0.68-0.067 0.9-0.162 0.493-0.212 0.033-0.212-0.8 0m6.9-3e-3c0.165 0.108 0.518 0.198 0.783 0.2 0.642 4e-3 0.48-0.11-0.383-0.268-0.492-0.09-0.611-0.07-0.4 0.068m-19.9 1.53l-1.4 1.316 1.45-1.242c1.265-1.084 1.599-1.417 1.4-1.396-0.027 3e-3 -0.68 0.598-1.45 1.322m-90.3-0.427c0.373 0.385 0.723 0.7 0.778 0.7s-0.205-0.315-0.578-0.7-0.723-0.7-0.778-0.7 0.205 0.315 0.578 0.7m12.1 0.225c-0.36 0.306-0.433 0.428-0.184 0.304 0.367-0.182 1.055-0.841 0.858-0.822-0.04 4e-3 -0.344 0.237-0.674 0.518m8.285 9e-3l-0.485 0.534 0.544-0.384c0.299-0.211 0.546-0.451 0.55-0.534 0.01-0.246-0.1-0.177-0.609 0.384m66.207 0.516c0.828 0.883 1.008 1.042 1.008 0.892 0-0.032-0.427-0.46-0.95-0.95l-0.95-0.892 0.892 0.95m-70.191 0.018c0.274 0.313 0.679 0.661 0.899 0.775 0.421 0.217 0.409 0.204-0.699-0.745l-0.7-0.598 0.5 0.568m132 0.108c0 0.195 0.778 0.923 0.861 0.806 0.033-0.045-0.148-0.281-0.401-0.525-0.253-0.243-0.46-0.37-0.46-0.281m-21 0.339c0 0.135 1.039 0.513 1.138 0.414 0.045-0.046-0.192-0.178-0.528-0.295-0.335-0.117-0.61-0.171-0.61-0.119m-123.53 0.732c0.127 0.081 1.131 0.135 2.231 0.12 2.228-0.03 1.904-0.123-0.731-0.21-0.952-0.031-1.627 9e-3 -1.5 0.09m70.001 0c0.287 0.183 4.106 0.174 4.573-0.011 0.189-0.075-0.814-0.136-2.23-0.136-1.415 0-2.47 0.066-2.343 0.147m55.33-0.056c0.165 0.112 0.473 0.204 0.683 0.206 0.512 4e-3 0.352-0.11-0.383-0.275-0.438-0.098-0.519-0.079-0.3 0.069m5.6 9e-3c-0.412 0.132-0.43 0.163-0.1 0.177 0.22 9e-3 0.535-0.07 0.7-0.177 0.35-0.226 0.107-0.226-0.6 0m-3.245 0.347c0.471 0.042 1.191 0.041 1.6-2e-3 0.41-0.043 0.025-0.077-0.855-0.076-0.88 0-1.215 0.035-0.745 0.078m-13.77 2.203l-0.485 0.55 0.6-0.5c0.33-0.275 0.638-0.522 0.683-0.55 0.046-0.027-6e-3 -0.05-0.115-0.05s-0.416 0.247-0.683 0.55m2.232-0.5c0.045 0.028 0.353 0.275 0.683 0.55l0.6 0.5-0.485-0.55c-0.267-0.303-0.574-0.55-0.683-0.55s-0.161 0.023-0.115 0.05m-2.884 1.283c-0.179 0.179-0.164 1.309 0.021 1.6 0.081 0.128 0.148-0.21 0.147-0.75s-8e-3 -0.982-0.018-0.982c-9e-3 -1e-3 -0.076 0.059-0.15 0.132m4.166 0.87c-1e-3 0.529 0.066 0.858 0.147 0.73 0.194-0.305 0.197-1.483 4e-3 -1.601-0.082-0.051-0.15 0.341-0.151 0.871m-84.605 10.597c0 6.325 0.025 8.913 0.056 5.75s0.031-8.338 0-11.5-0.056-0.575-0.056 5.75m66.006-6.218c0.77 0.065 1.535 0.192 1.7 0.283 0.165 0.09 0.125 0.023-0.088-0.15-0.277-0.224-0.766-0.306-1.7-0.283l-1.312 0.033 1.4 0.117m10.45 0.034c-0.193 0.112-0.35 0.296-0.35 0.408 0 0.113 0.141 0.063 0.314-0.11 0.71-0.709 2.78-0.367 2.939 0.486 0.092 0.497 0.093 0.497 0.12-0.043 0.043-0.866-1.963-1.358-3.023-0.741m-116.4 0.262c-0.381 0.29-0.457 1.045-0.153 1.522 0.133 0.208 0.157 0.083 0.078-0.409-0.15-0.931 0.139-1.15 1.632-1.242l1.193-0.073-1.2-0.032c-0.734-0.019-1.336 0.072-1.55 0.234m9.465 0.249c-0.228 0.29-0.415 0.627-0.414 0.75 0 0.123 0.176-0.065 0.39-0.416 0.347-0.568 0.508-0.648 1.45-0.713l1.059-0.074-1.035-0.037c-0.904-0.032-1.089 0.03-1.45 0.49m10.88-0.378c0.547 0.042 1.132 0.183 1.3 0.314 0.267 0.207 0.271 0.193 0.031-0.113-0.206-0.262-0.531-0.341-1.3-0.314l-1.026 0.036 0.995 0.077m8.155-0.011c0.193 0.05 0.508 0.05 0.7 0 0.193-0.05 0.035-0.092-0.35-0.092s-0.542 0.042-0.35 0.092m2.567-0.066c0.046 0.039 0.443 0.127 0.883 0.194 0.545 0.084 0.704 0.062 0.5-0.069-0.273-0.174-1.577-0.292-1.383-0.125m33.206 0.11c-0.171 0.108 0.098 0.138 0.7 0.08 1.355-0.132 1.543-0.228 0.477-0.243-0.495-7e-3 -1.025 0.066-1.177 0.163m3.127-0.041c0.247 0.048 0.653 0.048 0.9 0 0.248-0.048 0.045-0.087-0.45-0.087s-0.697 0.039-0.45 0.087m14.802 0c0.249 0.048 0.609 0.046 0.8-4e-3 0.192-0.05-0.012-0.089-0.452-0.087-0.44 3e-3 -0.596 0.044-0.348 0.091m2.4 0c0.249 0.048 0.609 0.046 0.8-4e-3 0.192-0.05-0.012-0.089-0.452-0.087-0.44 3e-3 -0.596 0.044-0.348 0.091m15.348 0.06c-0.257 0.112-0.043 0.133 0.6 0.058 0.55-0.063 1.038-0.148 1.083-0.187 0.174-0.15-1.301-0.036-1.683 0.129m32.6-0.074c1.414 0.148 3.256 0.161 3.17 0.023-0.052-0.082-0.921-0.136-1.932-0.118s-1.568 0.06-1.238 0.095m15.75 0.011c0.193 0.05 0.507 0.05 0.7 0s0.035-0.092-0.35-0.092-0.542 0.042-0.35 0.092m2.6 0c0.193 0.05 0.508 0.05 0.7 0 0.193-0.05 0.035-0.092-0.35-0.092s-0.543 0.042-0.35 0.092m12.573 0.044c-0.171 0.108 0.098 0.138 0.7 0.08 1.355-0.132 1.543-0.228 0.477-0.243-0.495-7e-3 -1.025 0.066-1.177 0.163m3.127-0.041c0.248 0.048 0.653 0.048 0.9 0s0.045-0.087-0.45-0.087-0.697 0.039-0.45 0.087m-140 0.573c-0.775 0.421-0.688 0.566 0.1 0.166 0.754-0.384 0.887-0.483 0.633-0.472-0.1 4e-3 -0.43 0.142-0.733 0.306m43.067-0.239c0.205 0.184 1.383 0.725 1.383 0.635 0-0.115-1.109-0.71-1.323-0.71-0.079 0-0.106 0.034-0.06 0.075m25.377 0.274c1.287 0.088 1.606 0.299 1.606 1.064 0 0.31 0.074 0.609 0.164 0.665 0.282 0.174 3e-3 -1.16-0.319-1.528-0.233-0.265-0.578-0.341-1.426-0.313l-1.119 0.037 1.094 0.075m-33.556 0.981l-0.938 0.929 1-0.864c0.55-0.475 1.038-0.893 1.083-0.929 0.046-0.036 0.018-0.066-0.061-0.066-0.08 0-0.568 0.418-1.084 0.93m17.762-0.43c-0.373 0.275-0.593 0.497-0.489 0.493 0.201-8e-3 1.467-0.99 1.278-0.992-0.061-1e-3 -0.416 0.224-0.789 0.499m66.261 0.015l-0.561 0.514 0.65-0.452c0.357-0.249 0.65-0.48 0.65-0.515 0-0.157-0.221-0.022-0.739 0.453m9.194 0.524c0.587 0.584 1.223 1.286 1.412 1.561 0.335 0.487 0.338 0.487 0.116 0.021-0.281-0.591-1.726-2.176-2.227-2.445-0.203-0.108 0.111 0.28 0.699 0.863m6.406-0.524l-0.561 0.514 0.65-0.452c0.357-0.249 0.65-0.48 0.65-0.515 0-0.157-0.221-0.022-0.739 0.453m-126.39 0.145c0.315 0.271 0.795 0.751 1.066 1.066l0.493 0.574-0.424-0.642c-0.234-0.353-0.714-0.833-1.067-1.067l-0.642-0.424 0.574 0.493m16.926-0.397c0 0.034 0.293 0.327 0.65 0.65l0.65 0.587-0.587-0.65c-0.548-0.606-0.713-0.742-0.713-0.587m45.887 0.587l-0.587 0.65 0.65-0.587c0.606-0.548 0.742-0.713 0.587-0.713-0.034 0-0.327 0.293-0.65 0.65m-72.348 0.056c-0.309 0.272-0.482 0.494-0.385 0.494s0.388-0.225 0.646-0.5c0.598-0.636 0.466-0.633-0.261 6e-3m46.661 0.194c0.373 0.385 0.723 0.7 0.778 0.7s-0.205-0.315-0.578-0.7-0.723-0.7-0.778-0.7 0.205 0.315 0.578 0.7m16.8 0c0.373 0.385 0.723 0.7 0.778 0.7s-0.205-0.315-0.578-0.7-0.723-0.7-0.778-0.7 0.205 0.315 0.578 0.7m-70.275-0.192c-0.069 0.178-0.117 0.475-0.108 0.658 0.01 0.184 0.097 0.069 0.194-0.256 0.188-0.631 0.121-0.944-0.086-0.402m152.77 0.293c0.949 1.108 0.962 1.12 0.745 0.699-0.114-0.22-0.462-0.625-0.775-0.899l-0.568-0.5 0.598 0.7m-77.852 7.599c-0.022 4.455 0.026 8.204 0.107 8.331 0.133 0.21 0.126-8.828-0.011-14.231-0.031-1.21-0.074 1.445-0.096 5.9m-84.532-7.286c-0.073 0.293-0.095 0.572-0.048 0.619s0.146-0.154 0.22-0.447c0.073-0.293 0.095-0.572 0.048-0.619s-0.146 0.154-0.22 0.447m135.66-0.164c-0.575 0.695-0.819 1.05-0.72 1.05 0.055 0 0.341-0.315 0.634-0.7 0.545-0.714 0.611-0.984 0.086-0.35m-66.774 0.698c-0.585 0.88-0.63 1.043-0.125 0.452 0.446-0.522 0.645-0.9 0.475-0.9-0.028 0-0.186 0.202-0.35 0.448m-12.241 0.116c-0.188 0.075 0.326 0.136 1.143 0.136s1.331-0.061 1.143-0.136c-0.189-0.075-0.703-0.136-1.143-0.136s-0.954 0.061-1.143 0.136m99.46-0.092c0.046 0.04 0.623 0.122 1.283 0.181 0.725 0.066 1.042 0.043 0.8-0.058-0.385-0.161-2.254-0.271-2.083-0.123m-62.727 0.311c-0.104 0.101-0.415 0.223-0.69 0.273l-0.5 0.09 0.526 0.027c0.289 0.015 0.637-0.108 0.774-0.273 0.272-0.328 0.195-0.41-0.11-0.117m31.26-0.042c0.248 0.048 0.652 0.048 0.9 0s0.045-0.087-0.45-0.087-0.697 0.039-0.45 0.087m-88.463 0.709l-0.587 0.65 0.65-0.587c0.358-0.323 0.65-0.616 0.65-0.65 0-0.155-0.165-0.019-0.713 0.587m4.512-0.1c0.262 0.358 0.507 0.65 0.546 0.65 0.152 0-0.344-0.75-0.672-1.016-0.216-0.176-0.168-0.036 0.126 0.366m82.412-0.028c-0.341 0.286-0.714 0.714-0.829 0.95-0.17 0.349-0.134 0.335 0.193-0.071 0.22-0.275 0.654-0.702 0.963-0.949 0.309-0.248 0.501-0.45 0.427-0.451s-0.413 0.234-0.754 0.521m3.289-0.395c0.11 0.097 0.515 0.445 0.899 0.775l0.7 0.598-0.5-0.568c-0.274-0.313-0.679-0.661-0.899-0.775-0.22-0.113-0.31-0.127-0.2-0.03m17.1 0.491c0.385 0.375 0.737 0.66 0.782 0.633 0.133-0.079-0.642-0.869-1.08-1.101-0.221-0.118-0.087 0.093 0.298 0.468m11.001-0.119c-0.258 0.275-0.431 0.533-0.385 0.574s0.293-0.184 0.549-0.499c0.573-0.706 0.472-0.752-0.164-0.075m-159.17-0.099c0 0.165 0.077 0.48 0.172 0.7 0.108 0.252 0.172 0.289 0.172 0.1 0-0.165-0.077-0.48-0.172-0.7-0.108-0.252-0.172-0.289-0.172-0.1m13.686 0.314c-0.073 0.293-0.095 0.572-0.048 0.619s0.146-0.154 0.22-0.447c0.073-0.293 0.095-0.572 0.048-0.619s-0.146 0.154-0.22 0.447m55.509 0.426c-0.013 0.242-0.18 0.532-0.373 0.644s-0.249 0.207-0.124 0.21c0.355 0.01 0.716-0.539 0.614-0.934-0.075-0.289-0.098-0.273-0.117 0.08m-9.73 0.315c-0.062 0.25-0.032 0.674 0.067 0.942 0.148 0.401 0.177 0.32 0.16-0.454-0.022-1.059-0.062-1.144-0.227-0.488m34.928 0.252c-0.342 0.389-0.621 0.767-0.621 0.84s0.068 0.047 0.152-0.057c0.083-0.104 0.415-0.483 0.737-0.84 0.322-0.358 0.533-0.65 0.469-0.65s-0.396 0.318-0.737 0.707m-28.713-0.307c0.445 0.875 1.816 1.408 2.166 0.842 0.054-0.087-0.228-0.12-0.626-0.074-0.607 0.071-0.802-8e-3 -1.208-0.492-0.266-0.317-0.415-0.441-0.332-0.276m89.346 0.8c0 0.495 0.039 0.697 0.087 0.45s0.048-0.652 0-0.9c-0.048-0.247-0.087-0.045-0.087 0.45m-82.832 0.022c-0.123 0.354-0.189 0.678-0.146 0.721 0.043 0.042 0.179-0.212 0.302-0.565 0.123-0.354 0.189-0.678 0.146-0.721-0.043-0.042-0.179 0.212-0.302 0.565m77.012-0.012c0.117 0.336 0.249 0.573 0.295 0.528 0.099-0.099-0.279-1.138-0.414-1.138-0.052 0 2e-3 0.275 0.119 0.61m16.047-0.26c0.397 0.469 1.195 0.587 1.719 0.253 0.206-0.131 0.063-0.154-0.455-0.07-0.573 0.092-0.861 0.03-1.2-0.256l-0.445-0.377 0.381 0.45m-164.76 0.35c0.165 0.735 0.279 0.895 0.275 0.383-2e-3 -0.21-0.094-0.518-0.206-0.683-0.148-0.219-0.167-0.138-0.069 0.3m29.106 0.1c0 0.165 0.077 0.48 0.172 0.7 0.108 0.252 0.172 0.289 0.172 0.1 0-0.165-0.077-0.48-0.172-0.7-0.108-0.252-0.172-0.289-0.172-0.1m-25.914 0.514c-0.073 0.293-0.095 0.572-0.048 0.619s0.146-0.154 0.22-0.447c0.073-0.293 0.095-0.572 0.048-0.619s-0.146 0.154-0.22 0.447m18.442 0.436c-0.213 0.819-0.072 0.85 3.849 0.85 2.074 0 3.813-0.068 3.864-0.15s-1.631-0.15-3.738-0.15h-3.831l0.063-0.45c0.073-0.531-0.076-0.604-0.207-0.1m11.391 0.75c0.059 0.66 0.141 1.238 0.181 1.283 0.148 0.171 0.038-1.698-0.123-2.083-0.101-0.242-0.124 0.075-0.058 0.8m17.107 0.1c0 0.495 0.039 0.697 0.087 0.45s0.048-0.652 0-0.9c-0.048-0.247-0.087-0.045-0.087 0.45m25.01-0.5c0.04 0.385 0.189 0.4 3.936 0.4 3.741 0 3.897-0.016 3.955-0.4 0.055-0.366 0.041-0.37-0.158-0.05-0.194 0.313-0.608 0.35-3.892 0.35-3.328 0-3.685-0.033-3.779-0.35-0.08-0.272-0.094-0.261-0.062 0.05m66.171 0c0.067 0.384 0.23 0.4 3.968 0.407l3.897 7e-3 -3.7-0.059c-3.233-0.053-3.734-0.104-3.968-0.408-0.249-0.323-0.263-0.319-0.197 0.053m-70.107 0.342c-0.067 0.252-0.113 0.728-0.102 1.058 0.015 0.414 0.073 0.292 0.187-0.394 0.175-1.045 0.124-1.443-0.085-0.664m21.397-0.134c-0.069 0.178-0.117 0.475-0.108 0.658 0.01 0.184 0.097 0.069 0.194-0.256 0.188-0.631 0.121-0.944-0.086-0.402m-92.122 0.209c2e-3 0.211 0.094 0.518 0.206 0.683 0.148 0.219 0.167 0.138 0.069-0.3-0.165-0.735-0.279-0.895-0.275-0.383m2.322 0.191c-0.069 0.178-0.117 0.475-0.108 0.658 0.01 0.184 0.097 0.069 0.194-0.256 0.188-0.631 0.121-0.944-0.086-0.402m3.289-0.025c-0.316 0.381-0.221 0.569 0.166 0.329 0.148-0.091 0.232-0.276 0.187-0.411-0.058-0.174-0.16-0.151-0.353 0.082m57.586 0.117c0.684 0.219 1.21 0.219 0.7 0-0.22-0.095-0.58-0.169-0.8-0.166-0.322 5e-3 -0.302 0.037 0.1 0.166m99.2 0c0.684 0.219 1.21 0.219 0.7 0-0.22-0.095-0.58-0.169-0.8-0.166-0.322 5e-3 -0.302 0.037 0.1 0.166m-76.165 0.734c-0.019 0.458-0.087 0.998-0.15 1.2-0.108 0.344-0.102 0.345 0.111 0.013 0.125-0.193 0.192-0.733 0.15-1.2l-0.076-0.847-0.035 0.834m-21.335-0.334c0.22 0.095 0.535 0.172 0.7 0.172 0.189 0 0.152-0.064-0.1-0.172-0.22-0.095-0.535-0.172-0.7-0.172-0.189 0-0.152 0.064 0.1 0.172m56.37 1.4c0 0.935 0.034 1.317 0.076 0.85 0.043-0.467 0.043-1.232 0-1.7-0.042-0.468-0.076-0.085-0.076 0.85m-124.64-1.2c0 0.165 0.077 0.48 0.172 0.7 0.108 0.252 0.172 0.289 0.172 0.1 0-0.165-0.077-0.48-0.172-0.7-0.108-0.252-0.172-0.289-0.172-0.1m59.154 0.166c0.108 0.202 0.353 0.494 0.545 0.65 0.216 0.176 0.168 0.036-0.126-0.366-0.526-0.718-0.723-0.851-0.419-0.284m81.087 1.134c0 0.88 0.035 1.215 0.078 0.745 0.042-0.471 0.041-1.191-2e-3 -1.6-0.043-0.41-0.077-0.025-0.076 0.855m15.577-0.7c0 0.385 0.042 0.542 0.092 0.35 0.05-0.193 0.05-0.507 0-0.7-0.05-0.192-0.092-0.035-0.092 0.35m-135.39 0.6c0 0.605 0.037 0.853 0.083 0.55s0.046-0.797 0-1.1c-0.046-0.302-0.083-0.055-0.083 0.55m148.64-0.874c0.11 0.096 0.56 0.49 1 0.875l0.799 0.699-0.599-0.667c-0.33-0.367-0.78-0.761-1-0.875s-0.31-0.128-0.2-0.032m-151.08 0.308c-0.013 0.183-0.075 0.498-0.138 0.7-0.109 0.347-0.103 0.347 0.113 0.01 0.126-0.196 0.188-0.511 0.139-0.7-0.082-0.31-0.093-0.311-0.114-0.01m31.427 0.466c3e-3 0.44 0.044 0.596 0.091 0.348 0.048-0.249 0.046-0.609-4e-3 -0.8-0.05-0.192-0.089 0.012-0.087 0.452m21.55 0.2c0.373 0.385 0.723 0.7 0.778 0.7s-0.205-0.315-0.578-0.7-0.723-0.7-0.778-0.7 0.205 0.315 0.578 0.7m-35.046-0.145l-0.117 0.445h-5.606c-3.084 0-5.649 0.067-5.7 0.15s2.455 0.125 5.568 0.094c5.841-0.058 6.307-0.126 6.055-0.882-0.046-0.138-0.136-0.052-0.2 0.193m59.292 4.155c-0.027 2.695-0.129 4.71-0.245 4.851-0.11 0.132-0.063 0.123 0.104-0.021 0.257-0.223 0.294-0.95 0.245-4.851l-0.058-4.589-0.046 4.61m-90.132-3.596c-0.073 0.293-0.095 0.572-0.048 0.619s0.146-0.154 0.22-0.447c0.073-0.293 0.095-0.572 0.048-0.619s-0.146 0.154-0.22 0.447m-4.59 0.186c0.072 0.33 0.209 0.735 0.306 0.9 0.112 0.192 0.129 0.084 0.046-0.3-0.072-0.33-0.209-0.735-0.306-0.9-0.112-0.192-0.129-0.084-0.046 0.3m52.511 0.434c-0.019 0.458-0.087 0.998-0.15 1.2-0.108 0.344-0.102 0.345 0.111 0.013 0.125-0.193 0.192-0.733 0.15-1.2l-0.076-0.847-0.035 0.834m25.015-0.602c-0.137 0.056-0.239 0.386-0.226 0.735l0.023 0.633 0.128-0.6 0.129-0.6 5.598-0.105 5.598-0.105-5.5-0.029c-3.025-0.016-5.612 0.016-5.75 0.071m68.9 0.018c1.568 0.033 4.133 0.033 5.7 0 1.568-0.034 0.285-0.062-2.85-0.062s-4.417 0.028-2.85 0.062m-72.936 0.767c8e-3 0.43 0.091 0.963 0.184 1.183 0.106 0.249 0.128-0.015 0.058-0.7-0.134-1.317-0.261-1.572-0.242-0.483m-56.5-3e-3c-0.073 0.293-0.095 0.572-0.048 0.619s0.146-0.154 0.22-0.447c0.073-0.293 0.095-0.572 0.048-0.619s-0.146 0.154-0.22 0.447m110.91 0.203c0.011 0.321 0.096 0.808 0.19 1.083 0.114 0.337 0.132 0.174 0.054-0.5-0.13-1.125-0.274-1.471-0.244-0.583m-114.4 0.305c-0.123 0.354-0.189 0.678-0.146 0.721 0.043 0.042 0.179-0.212 0.302-0.565 0.123-0.354 0.189-0.678 0.146-0.721-0.043-0.042-0.179 0.212-0.302 0.565m-9.568-0.161c0.052 0.409 0.395 0.493 0.517 0.126 0.044-0.133-0.013-0.185-0.128-0.114s-0.26 0.016-0.322-0.122c-0.063-0.138-0.093-0.089-0.067 0.11m159.95-0.061c0.275 0.088 0.68 0.16 0.9 0.16 0.317 0 0.296-0.033-0.1-0.16-0.275-0.088-0.68-0.16-0.9-0.16-0.317 0-0.296 0.033 0.1 0.16m-143.8 0.517c2e-3 0.32 0.089 0.718 0.194 0.883 0.131 0.204 0.153 0.045 0.069-0.5-0.152-0.989-0.267-1.157-0.263-0.383m3.8 0c2e-3 0.32 0.089 0.718 0.194 0.883 0.131 0.204 0.153 0.045 0.069-0.5-0.152-0.989-0.267-1.157-0.263-0.383m17.431 0.083c0.01 0.52 0.325 1.373 0.332 0.9 3e-3 -0.22-0.071-0.58-0.166-0.8-0.105-0.245-0.17-0.284-0.166-0.1m7.28 0.314c-0.073 0.293-0.095 0.572-0.048 0.619s0.146-0.154 0.22-0.447c0.073-0.293 0.095-0.572 0.048-0.619s-0.146 0.154-0.22 0.447m86.774-0.203c-0.375 0.3-0.373 0.304 0.049 0.1 0.602-0.291 2.322-0.265 2.663 0.039 0.239 0.213 0.241 0.198 0.016-0.1-0.348-0.46-2.17-0.486-2.728-0.039m-67.75 0.226c0.564 0.467 0.76 1.294 0.491 2.066-0.117 0.336-0.13 0.559-0.029 0.497 0.655-0.405 0.343-2.317-0.44-2.701l-0.46-0.226 0.438 0.364m4.324 1.163c1e-3 0.66 0.038 0.906 0.083 0.546 0.044-0.359 0.044-0.899-2e-3 -1.2-0.046-0.3-0.082-6e-3 -0.081 0.654m99.2 0c1e-3 0.66 0.038 0.906 0.083 0.546 0.044-0.359 0.044-0.899-2e-3 -1.2-0.046-0.3-0.082-6e-3 -0.081 0.654m-164.15-0.186c-0.073 0.293-0.095 0.572-0.048 0.619s0.146-0.154 0.22-0.447c0.073-0.293 0.095-0.572 0.048-0.619s-0.146 0.154-0.22 0.447m25.174-0.199c-0.213 0.173-0.268 0.253-0.122 0.178s0.506-0.209 0.8-0.297c0.428-0.13 0.453-0.165 0.122-0.179-0.226-9e-3 -0.586 0.125-0.8 0.298m53.484 0.097l-0.472 0.412 0.542-0.33c0.358-0.218 0.764-0.29 1.2-0.212 0.496 0.088 0.56 0.071 0.258-0.068-0.634-0.294-1.021-0.244-1.528 0.198m38.856-0.212c0 0.165 0.077 0.48 0.172 0.7 0.108 0.252 0.172 0.289 0.172 0.1 0-0.165-0.077-0.48-0.172-0.7-0.108-0.252-0.172-0.289-0.172-0.1m27.344 0.212l-0.472 0.412 0.542-0.33c0.358-0.218 0.764-0.29 1.2-0.212 0.496 0.088 0.56 0.071 0.258-0.068-0.634-0.294-1.021-0.244-1.528 0.198m-92.272-0.064c0.33 0.048 0.735 0.192 0.9 0.32 0.261 0.202 0.264 0.187 0.026-0.118-0.17-0.216-0.514-0.339-0.9-0.32l-0.626 0.03 0.6 0.088m99.2 0c0.33 0.048 0.735 0.192 0.9 0.32 0.261 0.202 0.264 0.187 0.026-0.118-0.17-0.216-0.514-0.339-0.9-0.32l-0.626 0.03 0.6 0.088m-84.785 0.452c0.073 0.275 0.217 0.635 0.319 0.8 0.129 0.208 0.144 0.147 0.051-0.2-0.073-0.275-0.217-0.635-0.319-0.8-0.129-0.208-0.144-0.147-0.051 0.2m-48.815 1.167c0.33 0.367 0.78 0.761 1 0.875s0.31 0.128 0.2 0.032-0.56-0.49-1-0.875l-0.799-0.699 0.599 0.667m22.019 0.281c-0.738 0.769-0.655 0.867 0.15 0.174 0.317-0.274 0.851-1.053 0.688-1.005-0.031 9e-3 -0.408 0.383-0.838 0.831m86.594-0.098c-0.432 0.552-0.467 0.645-0.131 0.352 0.401-0.35 0.93-1.102 0.775-1.102-0.031 0-0.321 0.338-0.644 0.75m-103.31 0.232c-0.385 0.375-0.519 0.586-0.298 0.468 0.438-0.232 1.213-1.022 1.08-1.101-0.045-0.027-0.397 0.258-0.782 0.633m98.784-0.109c0.266 0.328 1.016 0.824 1.016 0.672 0-0.039-0.292-0.284-0.65-0.546-0.402-0.294-0.542-0.342-0.366-0.126m-122.76 0.161c-0.013 0.183-0.075 0.498-0.138 0.7-0.109 0.347-0.103 0.347 0.113 0.01 0.126-0.196 0.188-0.511 0.139-0.7-0.082-0.31-0.093-0.311-0.114-0.01m14.577-0.112c0 0.116 0.293 0.524 0.65 0.906 0.358 0.383 0.507 0.51 0.331 0.284-0.175-0.227-0.468-0.635-0.65-0.907-0.182-0.271-0.331-0.399-0.331-0.283m36.603 0.478c0.293 0.57 0.997 1.514 0.997 1.336 0-0.123-0.937-1.547-1.139-1.731-0.063-0.058 0 0.12 0.142 0.395m-30.703 0.4c0.22 0.095 0.535 0.172 0.7 0.172 0.189 0 0.152-0.064-0.1-0.172-0.22-0.095-0.535-0.172-0.7-0.172-0.189 0-0.152 0.064 0.1 0.172m1.8 0c-0.252 0.108-0.289 0.172-0.1 0.172 0.165 0 0.48-0.077 0.7-0.172 0.252-0.108 0.289-0.172 0.1-0.172-0.165 0-0.48 0.077-0.7 0.172m16.5 0c-0.402 0.129-0.422 0.161-0.1 0.166 0.22 3e-3 0.58-0.071 0.8-0.166 0.51-0.219-0.016-0.219-0.7 0m18.1 0c0.22 0.095 0.535 0.172 0.7 0.172 0.189 0 0.152-0.064-0.1-0.172-0.22-0.095-0.535-0.172-0.7-0.172-0.189 0-0.152 0.064 0.1 0.172m67.3 3e-3c0.165 0.105 0.563 0.192 0.883 0.194 0.774 4e-3 0.606-0.111-0.383-0.263-0.545-0.084-0.704-0.062-0.5 0.069m26.791 0.487c0.39 0.548 1.462 1.498 1.698 1.505 0.104 3e-3 -0.085-0.198-0.418-0.445-0.334-0.247-0.824-0.679-1.089-0.96-0.265-0.28-0.351-0.325-0.191-0.1m-124 0.46l-0.689 0.75 0.75-0.689c0.698-0.642 0.842-0.811 0.689-0.811-0.033 0-0.371 0.338-0.75 0.75m108.61-0.05c0.373 0.385 0.723 0.7 0.778 0.7s-0.205-0.315-0.578-0.7-0.723-0.7-0.778-0.7 0.205 0.315 0.578 0.7m-126.58-0.266c-0.013 0.183-0.075 0.498-0.138 0.7-0.109 0.347-0.103 0.347 0.113 0.01 0.126-0.196 0.188-0.511 0.139-0.7-0.082-0.31-0.093-0.311-0.114-0.01m55.064 0.416l-0.587 0.65 0.65-0.587c0.606-0.548 0.742-0.713 0.587-0.713-0.034 0-0.327 0.293-0.65 0.65m4.913-0.587c0 0.034 0.293 0.327 0.65 0.65l0.65 0.587-0.587-0.65c-0.548-0.606-0.713-0.742-0.713-0.587m77.687 0.587l-0.587 0.65 0.65-0.587c0.606-0.548 0.742-0.713 0.587-0.713-0.034 0-0.327 0.293-0.65 0.65m-147.17 0.064c-0.073 0.293-0.095 0.572-0.048 0.619s0.146-0.154 0.22-0.447c0.073-0.293 0.095-0.572 0.048-0.619s-0.146 0.154-0.22 0.447m34.419-0.381c-0.073 0.074-0.132 0.231-0.13 0.35 2e-3 0.12 0.088 0.083 0.191-0.081 0.157-0.247 0.317-0.179 0.947 0.4l0.759 0.698-0.689-0.75c-0.707-0.769-0.846-0.848-1.078-0.617m128.87 0.704c-0.495 0.451-0.72 0.725-0.5 0.609 0.376-0.199 1.676-1.456 1.487-1.438-0.048 5e-3 -0.492 0.378-0.987 0.829m-146.4-0.045c0.275 0.231 0.68 0.513 0.9 0.627 0.273 0.142 0.241 0.075-0.1-0.211-0.275-0.231-0.68-0.513-0.9-0.627-0.273-0.142-0.241-0.075 0.1 0.211m36.39 0.073c0.278 0.357 1.641 1.144 1.952 1.126 0.087-5e-3 -0.202-0.195-0.642-0.424-0.44-0.228-0.978-0.561-1.197-0.741-0.375-0.308-0.381-0.306-0.113 0.039m75.51 0.749c-0.33 0.211-0.51 0.384-0.4 0.384 0.11-1e-3 0.47-0.179 0.8-0.398s0.51-0.391 0.4-0.384-0.47 0.186-0.8 0.398m-90.831 0.633c0.127 0.081 0.816 0.147 1.531 0.147s1.404-0.066 1.531-0.147-0.562-0.147-1.531-0.147-1.658 0.066-1.531 0.147m17.931-0.056c0.165 0.112 0.472 0.204 0.683 0.206 0.512 4e-3 0.352-0.11-0.383-0.275-0.438-0.098-0.519-0.079-0.3 0.069m5.2 9e-3c-0.412 0.132-0.43 0.163-0.1 0.177 0.22 9e-3 0.535-0.07 0.7-0.177 0.35-0.226 0.107-0.226-0.6 0m78-9e-3c0.165 0.112 0.473 0.204 0.683 0.206 0.512 4e-3 0.352-0.11-0.383-0.275-0.438-0.098-0.519-0.079-0.3 0.069m16 0c0.165 0.112 0.473 0.204 0.683 0.206 0.512 4e-3 0.352-0.11-0.383-0.275-0.438-0.098-0.519-0.079-0.3 0.069m-52.952 0.243c0.139 0.088 0.792 0.154 1.452 0.147 1.46-0.015 1.245-0.124-0.452-0.229-0.688-0.043-1.138-6e-3 -1 0.082m-80.698 0.111c0.358 0.044 0.943 0.044 1.3 0 0.358-0.045 0.065-0.081-0.65-0.081s-1.008 0.036-0.65 0.081m36.596-1e-3c0.355 0.045 0.985 0.045 1.4 2e-3 0.414-0.043 0.124-0.079-0.646-0.08s-1.11 0.034-0.754 0.078m16.8 0c0.355 0.045 0.985 0.045 1.4 2e-3 0.414-0.043 0.124-0.079-0.646-0.08s-1.11 0.034-0.754 0.078m11.707 0c0.304 0.045 0.754 0.044 1-3e-3 0.246-0.048-3e-3 -0.085-0.553-0.084-0.55 2e-3 -0.751 0.041-0.447 0.087m38.6 0c0.304 0.045 0.754 0.044 1-3e-3 0.246-0.048-3e-3 -0.085-0.553-0.084-0.55 2e-3 -0.751 0.041-0.447 0.087m15.893 0c0.355 0.045 0.985 0.045 1.4 2e-3 0.414-0.043 0.124-0.079-0.646-0.08s-1.11 0.034-0.754 0.078m16.2 0c0.355 0.045 0.985 0.045 1.4 2e-3 0.414-0.043 0.124-0.079-0.646-0.08s-1.11 0.034-0.754 0.078m-43.392 0.201c0.359 0.044 0.899 0.044 1.2-2e-3 0.3-0.046 6e-3 -0.082-0.654-0.081s-0.906 0.038-0.546 0.083" fill="#9c9c9c"/>
<path d="m195.15 89.341c0.249 0.048 0.609 0.046 0.8-4e-3 0.192-0.05-0.012-0.089-0.452-0.087-0.44 3e-3 -0.596 0.044-0.348 0.091m14.298-3e-3c0.193 0.05 0.507 0.05 0.7 0s0.035-0.092-0.35-0.092-0.543 0.042-0.35 0.092m76.603 6e-3c0.304 0.045 0.754 0.044 1-3e-3 0.246-0.048-3e-3 -0.085-0.553-0.084-0.55 2e-3 -0.751 0.041-0.447 0.087m30.497-3e-3c0.248 0.048 0.653 0.048 0.9 0s0.045-0.087-0.45-0.087-0.697 0.039-0.45 0.087m-13.855 15.159c0 7.7 0.025 10.821 0.055 6.935 0.03-3.885 0.03-10.185 0-14-0.03-3.814-0.055-0.635-0.055 7.065m-47.834-8.751c1.299 0.035 3.369 0.035 4.6 0 1.232-0.035 0.169-0.063-2.361-0.063s-3.537 0.029-2.239 0.063m-9.572 7.651c0 3.355 0.027 4.728 0.061 3.05 0.033-1.678 0.033-4.422 0-6.1-0.034-1.677-0.061-0.305-0.061 3.05m-49.632-1.7c2e-3 0.55 0.041 0.751 0.087 0.447 0.045-0.304 0.044-0.754-3e-3 -1-0.048-0.246-0.085 3e-3 -0.084 0.553m102.99 2.2c3e-3 0.44 0.044 0.596 0.091 0.348 0.048-0.249 0.046-0.609-4e-3 -0.8-0.05-0.192-0.089 0.012-0.087 0.452m-102.96 6.4c0 3.85 0.027 5.397 0.06 3.437 0.033-1.959 0.032-5.109 0-7-0.033-1.89-0.06-0.287-0.06 3.563m102.96-4.7c0 0.385 0.042 0.542 0.092 0.35s0.05-0.508 0-0.7-0.092-0.035-0.092 0.35m-115.1 13.749c0.797 0.037 2.103 0.037 2.9 0 0.798-0.038 0.145-0.07-1.45-0.07s-2.247 0.032-1.45 0.07m14.4 0c0.798 0.037 2.103 0.037 2.9 0 0.798-0.038 0.145-0.07-1.45-0.07s-2.247 0.032-1.45 0.07m14.309 0c0.858 0.037 2.208 0.037 3-1e-3 0.793-0.038 0.091-0.068-1.559-0.068s-2.298 0.031-1.441 0.069m92.691 0c0.798 0.037 2.103 0.037 2.9 0 0.798-0.038 0.145-0.07-1.45-0.07s-2.247 0.032-1.45 0.07m14.6 0c0.798 0.037 2.103 0.037 2.9 0 0.798-0.038 0.145-0.07-1.45-0.07s-2.247 0.032-1.45 0.07m-127.3 3.195c0.304 0.045 0.754 0.044 1-3e-3 0.246-0.048-3e-3 -0.085-0.553-0.084-0.55 2e-3 -0.751 0.041-0.447 0.087m-11.503 5.797c0.248 0.048 0.653 0.048 0.9 0 0.248-0.048 0.045-0.087-0.45-0.087s-0.697 0.039-0.45 0.087m119.8 0c0.249 0.048 0.609 0.046 0.8-4e-3 0.192-0.05-0.012-0.089-0.452-0.087-0.44 3e-3 -0.596 0.044-0.348 0.091m-28.86 9.159c0 4.84 0.026 6.791 0.058 4.336s0.032-6.415 0-8.8-0.058-0.376-0.058 4.464m3.6 0c0 4.84 0.026 6.791 0.058 4.336s0.032-6.415 0-8.8-0.058-0.376-0.058 4.464m14.058-2.159c0.248 0.048 0.652 0.048 0.9 0s0.045-0.087-0.45-0.087-0.697 0.039-0.45 0.087m-83.696 1.859c0 0.495 0.039 0.698 0.087 0.45 0.048-0.247 0.048-0.652 0-0.9-0.048-0.247-0.087-0.045-0.087 0.45m20.992 0.4c0 0.385 0.042 0.543 0.092 0.35 0.05-0.192 0.05-0.508 0-0.7s-0.092-0.035-0.092 0.35m-60.494 9.341c0.249 0.048 0.609 0.046 0.8-4e-3 0.192-0.05-0.012-0.089-0.452-0.087-0.44 3e-3 -0.596 0.044-0.348 0.091" fill="#7c7c7c"/>
<path d="m163.76 89.148c0.581 0.04 1.481 0.04 2-1e-3s0.043-0.074-1.057-0.074c-1.1 1e-3 -1.524 0.034-0.943 0.075m70 0c0.581 0.04 1.481 0.04 2-1e-3s0.043-0.074-1.057-0.074c-1.1 1e-3 -1.524 0.034-0.943 0.075m55.043 0.443c0.165 0.112 0.472 0.204 0.683 0.206 0.512 4e-3 0.352-0.11-0.383-0.275-0.438-0.098-0.519-0.079-0.3 0.069m-105.15 0.357c0.743 0.039 1.958 0.039 2.7 0 0.743-0.038 0.135-0.07-1.35-0.07s-2.092 0.032-1.35 0.07m71.95-4e-3c8.444 0.14 15.354 0.142 15.269 6e-3 -0.051-0.082-4.25-0.13-9.331-0.105-5.081 0.024-7.753 0.069-5.938 0.099m49.25 4e-3c0.743 0.039 1.958 0.039 2.7 0 0.743-0.038 0.135-0.07-1.35-0.07s-2.092 0.032-1.35 0.07m-116.91 0.262c0.133 0.172 0.271 1.111 0.309 2.1l0.067 1.79 0.041-1.826c0.034-1.532-0.015-1.869-0.309-2.1-0.308-0.241-0.321-0.236-0.108 0.036m63.927 1.69c0 0.88 0.035 1.215 0.078 0.745 0.042-0.471 0.041-1.191-2e-3 -1.6-0.043-0.41-0.077-0.025-0.076 0.855m19.373 0.434c-0.023 1.118-0.094 2.198-0.157 2.4-0.106 0.338-0.098 0.339 0.107 0.021 0.138-0.214 0.198-1.123 0.157-2.4l-0.065-2.055-0.042 2.034m7.45 0.116l-0.992 1.05 1.05-0.992c0.578-0.546 1.05-1.019 1.05-1.05 0-0.15-0.185 0.016-1.108 0.992m-53.303-0.1l-0.689 0.75 0.75-0.689c0.413-0.379 0.75-0.717 0.75-0.75 0-0.153-0.169-9e-3 -0.811 0.689m26.461 1.95c3e-3 0.44 0.044 0.596 0.091 0.348 0.048-0.249 0.046-0.609-4e-3 -0.8-0.05-0.192-0.089 0.012-0.087 0.452m-89.25 0.509c-0.219 0.148-0.138 0.167 0.3 0.069 0.735-0.165 0.895-0.279 0.383-0.275-0.211 2e-3 -0.518 0.094-0.683 0.206m70-6e-3c-0.211 0.138-0.092 0.158 0.4 0.068 0.863-0.158 1.025-0.272 0.383-0.268-0.265 2e-3 -0.618 0.092-0.783 0.2m53.55 0.138c0.247 0.048 0.653 0.048 0.9 0 0.248-0.048 0.045-0.087-0.45-0.087s-0.697 0.039-0.45 0.087m-55.051 0.686c-0.393 0.346-0.808 0.818-0.923 1.05-0.115 0.233 0.025 0.137 0.311-0.213 0.286-0.349 0.766-0.819 1.066-1.043 0.301-0.225 0.483-0.411 0.404-0.415-0.079-3e-3 -0.465 0.276-0.858 0.621m4.901-0.572c0 0.039 0.293 0.284 0.65 0.546 0.402 0.294 0.542 0.342 0.366 0.126-0.266-0.328-1.016-0.824-1.016-0.672m48.338 0.595c-0.623 0.617-0.625 0.625-0.047 0.152 0.335-0.275 0.695-0.567 0.799-0.65 0.105-0.084 0.126-0.152 0.047-0.152s-0.438 0.293-0.799 0.65m-117.62 0.169c0.322 0.395 0.625 0.685 0.675 0.643 0.049-0.041-0.214-0.364-0.586-0.718l-0.675-0.644 0.586 0.719m25.338 0.325c0.304 0.045 0.754 0.044 1-3e-3 0.246-0.048-3e-3 -0.085-0.553-0.084-0.55 2e-3 -0.751 0.041-0.447 0.087m14.397-6e-3c0.193 0.05 0.507 0.05 0.7 0s0.035-0.092-0.35-0.092-0.543 0.042-0.35 0.092m10.844 11.162c0 6.27 0.025 8.806 0.056 5.636 0.031-3.171 0.031-8.301 0-11.4-0.031-3.1-0.056-0.506-0.056 5.764m52.352-10.35c-0.517 0.748-0.686 1.05-0.584 1.05 0.046 0 0.323-0.36 0.614-0.8 0.592-0.894 0.566-1.11-0.03-0.25m-116.82 0.369c-0.033 0.608 0.629 1.128 1.309 1.026l0.568-0.085-0.626-0.03c-0.665-0.032-0.97-0.283-1.129-0.93-0.095-0.385-0.099-0.384-0.122 0.019m22.266 6.081c0 3.575 0.027 5.038 0.061 3.25 0.033-1.787 0.033-4.712 0-6.5-0.034-1.787-0.061-0.325-0.061 3.25m-7.449-4.467c-0.027 1.088-0.124 1.667-0.29 1.735-0.196 0.079-0.194 0.104 6e-3 0.116 0.39 0.024 0.469-0.383 0.393-2.003l-0.07-1.481-0.039 1.633m56.21-0.595c0.193 0.05 0.507 0.05 0.7 0s0.035-0.092-0.35-0.092-0.543 0.042-0.35 0.092m-66.4 0.4c0.193 0.05 0.508 0.05 0.7 0 0.193-0.05 0.035-0.092-0.35-0.092s-0.542 0.042-0.35 0.092m70 0c0.193 0.05 0.507 0.05 0.7 0s0.035-0.092-0.35-0.092-0.543 0.042-0.35 0.092m-31.793 1.162c2e-3 0.55 0.041 0.751 0.087 0.447 0.045-0.304 0.044-0.754-3e-3 -1-0.048-0.246-0.085 3e-3 -0.084 0.553m14.435 9.3c0 5.225 0.026 7.363 0.058 4.75 0.031-2.612 0.031-6.887 0-9.5-0.032-2.612-0.058-0.475-0.058 4.75m80.562-8.6c0 0.495 0.039 0.698 0.087 0.45 0.048-0.247 0.048-0.652 0-0.9-0.048-0.247-0.087-0.045-0.087 0.45m-101.96 8.4c0 4.895 0.026 6.898 0.058 4.45 0.032-2.447 0.032-6.452 0-8.9-0.032-2.447-0.058-0.445-0.058 4.45m93.589-4.9c0 1.76 0.031 2.453 0.068 1.541 0.037-0.913 0.037-2.353-1e-3 -3.2-0.037-0.848-0.067-0.101-0.067 1.659m-7.631-2.2c3e-3 0.44 0.044 0.596 0.091 0.348 0.048-0.249 0.046-0.609-4e-3 -0.8-0.05-0.192-0.089 0.012-0.087 0.452m16.226 2.9c0 1.265 0.032 1.783 0.072 1.15 0.039-0.633 0.039-1.667 0-2.3-0.04-0.633-0.072-0.115-0.072 1.15m-16.414-0.3c1e-3 0.66 0.038 0.906 0.083 0.546 0.044-0.359 0.044-0.899-2e-3 -1.2-0.046-0.3-0.082-6e-3 -0.081 0.654m-119.98 0.15l-0.587 0.65 0.65-0.587c0.358-0.323 0.65-0.616 0.65-0.65 0-0.155-0.165-0.019-0.713 0.587m13.112 2.509l0.099 2.341 0.058-2.183c0.032-1.2-0.012-2.254-0.099-2.341-0.086-0.087-0.112 0.896-0.058 2.183m65.801-1.75c-0.219 0.148-0.138 0.167 0.3 0.069 0.735-0.165 0.895-0.279 0.383-0.275-0.21 2e-3 -0.518 0.094-0.683 0.206m41.25 1.691c3e-3 0.44 0.044 0.596 0.091 0.348 0.048-0.249 0.046-0.609-4e-3 -0.8-0.05-0.192-0.089 0.012-0.087 0.452m15.996 1.7c0 0.385 0.042 0.543 0.092 0.35 0.05-0.192 0.05-0.508 0-0.7s-0.092-0.035-0.092 0.35m-53 0.4c0 0.385 0.042 0.543 0.092 0.35 0.05-0.192 0.05-0.507 0-0.7-0.05-0.192-0.092-0.035-0.092 0.35m-77.984 1.1c1e-3 0.66 0.038 0.906 0.083 0.546 0.044-0.359 0.044-0.899-2e-3 -1.2-0.046-0.3-0.082-6e-3 -0.081 0.654m85.588-0.2c3e-3 0.44 0.044 0.596 0.091 0.348 0.048-0.249 0.046-0.609-4e-3 -0.8-0.05-0.192-0.089 0.012-0.087 0.452m29.778-0.5c0 0.165 0.077 0.48 0.172 0.7 0.108 0.252 0.172 0.289 0.172 0.1 0-0.165-0.077-0.48-0.172-0.7-0.108-0.252-0.172-0.289-0.172-0.1m7.575 0.117c2e-3 0.211 0.094 0.518 0.206 0.683 0.148 0.219 0.167 0.138 0.069-0.3-0.165-0.735-0.279-0.895-0.275-0.383m-21.049 0.028c0.359 0.044 0.899 0.044 1.2-2e-3 0.3-0.046 6e-3 -0.082-0.654-0.081s-0.906 0.038-0.546 0.083m-39.487 1.655c0 0.825 0.036 1.163 0.079 0.75 0.043-0.412 0.043-1.087 0-1.5-0.043-0.412-0.079-0.075-0.079 0.75m28.777 3.719c-0.049 3.17 0.189 3.826 1.206 3.317 0.438-0.219 0.436-0.223-0.065-0.118-0.842 0.176-0.968-0.216-1.035-3.231l-0.062-2.787-0.044 2.819m-98.81-2.219c-3e-3 0.22 0.071 0.58 0.166 0.8 0.219 0.51 0.219-0.016 0-0.7-0.129-0.402-0.161-0.422-0.166-0.1m8.166-0.037c0 0.034 0.293 0.327 0.65 0.65l0.65 0.587-0.587-0.65c-0.548-0.606-0.713-0.742-0.713-0.587m128.4 0.567c-0.385 0.338-0.519 0.522-0.298 0.41 0.366-0.184 1.271-1.051 1.079-1.032-0.045 5e-3 -0.396 0.284-0.781 0.622m-16.725 2.07c0 1.21 0.033 1.679 0.073 1.043 0.04-0.637 0.039-1.627-1e-3 -2.2-0.04-0.574-0.073-0.053-0.072 1.157m-39.852-1.282c0.259 0.165 1.941 0.268 1.76 0.109-0.045-0.041-0.523-0.121-1.06-0.179-0.597-0.064-0.869-0.037-0.7 0.07m-69.473 0.123c0.248 0.048 0.653 0.048 0.9 0s0.045-0.087-0.45-0.087-0.697 0.039-0.45 0.087m84.873 0.548c-0.013 0.214-0.268 0.664-0.568 1l-0.546 0.611 0.665-0.624c0.439-0.411 0.633-0.751 0.569-1-0.092-0.358-0.098-0.357-0.12 0.013m-79.736 1.761l-0.587 0.65 0.65-0.587c0.358-0.323 0.65-0.616 0.65-0.65 0-0.155-0.165-0.019-0.713 0.587m93.166-0.506c0.304 0.045 0.754 0.044 1-3e-3 0.246-0.048-3e-3 -0.085-0.553-0.084-0.55 2e-3 -0.751 0.041-0.447 0.087m-2.301 0.197c0.249 0.048 0.609 0.046 0.8-4e-3 0.192-0.05-0.012-0.089-0.452-0.087-0.44 3e-3 -0.596 0.044-0.348 0.091m4.8 0c0.249 0.048 0.609 0.046 0.8-4e-3 0.192-0.05-0.012-0.089-0.452-0.087-0.44 3e-3 -0.596 0.044-0.348 0.091m-18.065 0.909l-0.587 0.65 0.65-0.587c0.606-0.548 0.742-0.713 0.587-0.713-0.034 0-0.327 0.292-0.65 0.65m-91.687-0.387c0 0.034 0.293 0.327 0.65 0.65l0.65 0.587-0.587-0.65c-0.548-0.606-0.713-0.742-0.713-0.587m87.292 1.487c0.804 0.851 1.108 1.044 1.6 1.02l0.608-0.03-0.6-0.084c-0.361-0.051-0.999-0.458-1.6-1.02l-1-0.936 0.992 1.05m2.795 0.3l-0.587 0.65 0.65-0.587c0.606-0.548 0.742-0.713 0.587-0.713-0.034 0-0.327 0.293-0.65 0.65m-70.599 0.369c-0.074 0.121-0.433 0.184-0.798 0.142-0.364-0.043-0.618-6e-3 -0.564 0.081 0.168 0.273 1.213 0.172 1.474-0.142 0.137-0.165 0.198-0.3 0.136-0.3s-0.173 0.099-0.248 0.219m-16.088 0.172c0.165 0.112 0.472 0.204 0.683 0.206 0.512 4e-3 0.352-0.11-0.383-0.275-0.438-0.098-0.519-0.079-0.3 0.069m128.66 0.556c0.526 0.042 1.336 0.041 1.8-1e-3s0.034-0.076-0.956-0.075-1.37 0.035-0.844 0.076m-13.841 2.78c-0.228 0.29-0.412 0.627-0.409 0.75s0.106 0.043 0.228-0.177 0.358-0.557 0.525-0.75c0.167-0.192 0.251-0.35 0.187-0.35-0.065 0-0.304 0.237-0.531 0.527m-77.532 4.173c0 1.98 0.03 2.763 0.066 1.74 0.037-1.023 0.036-2.643 0-3.6-0.037-0.957-0.067-0.12-0.066 1.86m77.867 1.516c-0.193 0.112-0.349 0.312-0.347 0.444 2e-3 0.146 0.077 0.123 0.193-0.06 0.119-0.189 0.653-0.344 1.447-0.419l1.257-0.12-1.1-0.024c-0.605-0.014-1.257 0.067-1.45 0.179m-16.004 0.128c0.355 0.045 0.985 0.045 1.4 2e-3 0.414-0.043 0.124-0.079-0.646-0.08s-1.11 0.034-0.754 0.078m12.008 1e-3c0.359 0.044 0.899 0.044 1.2-2e-3 0.3-0.046 6e-3 -0.082-0.654-0.081s-0.906 0.038-0.546 0.083m-17.354 0.24c-0.321 0.092-0.024 0.139 0.829 0.13 0.731-8e-3 1.226-0.081 1.1-0.162-0.28-0.18-1.254-0.164-1.929 0.032m4.277 0.103c-0.061 0.158-0.025 0.44 0.079 0.626 0.149 0.266 0.184 0.205 0.167-0.287-0.025-0.693-0.081-0.769-0.246-0.339m59.223-0.088c-0.252 0.108-0.289 0.172-0.1 0.172 0.165 0 0.48-0.077 0.7-0.172 0.252-0.108 0.289-0.172 0.1-0.172-0.165 0-0.48 0.077-0.7 0.172m-160.14 0.914c0.163 0.495 0.327 0.87 0.365 0.832 0.11-0.111-0.321-1.522-0.499-1.632-0.09-0.056-0.029 0.304 0.134 0.8m99.104 0.486c0 0.605 0.037 0.853 0.083 0.55 0.046-0.302 0.046-0.797 0-1.1-0.046-0.302-0.083-0.055-0.083 0.55m-50.66-0.537c0 0.034 0.293 0.327 0.65 0.65l0.65 0.587-0.587-0.65c-0.548-0.606-0.713-0.742-0.713-0.587m9.789 0.687l-0.689 0.75 0.75-0.689c0.698-0.642 0.842-0.811 0.689-0.811-0.033 0-0.371 0.338-0.75 0.75m99.2 0l-0.689 0.75 0.75-0.689c0.698-0.642 0.842-0.811 0.689-0.811-0.033 0-0.371 0.338-0.75 0.75m-89.389-0.487c0 0.034 0.293 0.327 0.65 0.65l0.65 0.587-0.587-0.65c-0.548-0.606-0.713-0.742-0.713-0.587m17.408 0.639c0.381 0.441 0.853 1.026 1.051 1.3 0.346 0.48 0.346 0.475 3e-3 -0.158-0.195-0.361-0.668-0.946-1.05-1.3l-0.695-0.644 0.691 0.802m66.192-2e-3c0.373 0.385 0.723 0.7 0.778 0.7s-0.205-0.315-0.578-0.7-0.723-0.7-0.778-0.7 0.205 0.315 0.578 0.7m15.6-0.637c0 0.034 0.293 0.327 0.65 0.65l0.65 0.587-0.587-0.65c-0.548-0.606-0.713-0.742-0.713-0.587m-123.8 1.14c-0.211 0.138-0.092 0.158 0.4 0.068 0.863-0.158 1.025-0.272 0.383-0.268-0.265 2e-3 -0.618 0.092-0.783 0.2m46.89 6.597c0 3.795 0.027 5.348 0.06 3.45 0.033-1.897 0.033-5.003 0-6.9s-0.06-0.345-0.06 3.45m50.471-6.25c-0.352 0.41-0.616 0.85-0.51 0.85 0.04 0 0.273-0.27 0.517-0.6 0.482-0.652 0.478-0.814-7e-3 -0.25m-98.928 0.6l-0.751 0.75 0.709-0.599c0.39-0.33 0.795-0.668 0.899-0.75 0.105-0.083 0.124-0.151 0.042-0.151-0.081 0-0.485 0.338-0.899 0.75m117.97 0.149c-0.258 0.275-0.431 0.533-0.385 0.574s0.293-0.184 0.549-0.499c0.573-0.706 0.472-0.752-0.164-0.075m-102.88 0.409c-0.069 0.178-0.111 0.79-0.095 1.358l0.031 1.034 0.133-1.3c0.142-1.391 0.128-1.607-0.069-1.092m38.362 0.542l-0.587 0.65 0.65-0.587c0.606-0.548 0.742-0.713 0.587-0.713-0.034 0-0.327 0.293-0.65 0.65m60.77 0.65c2e-3 0.55 0.041 0.751 0.087 0.447 0.045-0.304 0.044-0.754-3e-3 -1-0.048-0.246-0.085 3e-3 -0.084 0.553m-5.735 0.4c0.165 0.735 0.279 0.895 0.275 0.383-2e-3 -0.211-0.094-0.518-0.206-0.683-0.148-0.219-0.167-0.138-0.069 0.3m-7.822 0.9c-0.076 0.346-0.096 0.67-0.045 0.721s0.15-0.195 0.22-0.546c0.167-0.834 5e-3 -0.995-0.175-0.175m-102.42 2.5c0 1.54 0.032 2.144 0.07 1.341 0.038-0.802 0.037-2.062-1e-3 -2.8-0.038-0.737-0.069-0.081-0.069 1.459m-17.105-1.645c0.085 0.085 1.859 0.129 3.941 0.099l3.785-0.055-3.94-0.099c-2.168-0.055-3.871-0.03-3.786 0.055m123.63-0.055l-3.9 0.113 3.838 0.044c2.391 0.027 3.885-0.032 3.962-0.157 0.068-0.11 0.096-0.18 0.062-0.157-0.034 0.024-1.817 0.095-3.962 0.157m7.462 0.9c1e-3 0.66 0.038 0.906 0.083 0.546 0.044-0.359 0.044-0.899-2e-3 -1.2-0.046-0.3-0.082-6e-3 -0.081 0.654m-75.612-0.751c1.072 0.036 2.828 0.036 3.9 0 1.073-0.036 0.195-0.065-1.95-0.065s-3.022 0.029-1.95 0.065m48.196 0.651c0 0.385 0.042 0.542 0.092 0.35s0.05-0.507 0-0.7c-0.05-0.192-0.092-0.035-0.092 0.35m-60.546-0.2c0.22 0.095 0.535 0.172 0.7 0.172 0.189 0 0.152-0.064-0.1-0.172-0.22-0.095-0.535-0.172-0.7-0.172-0.189 0-0.152 0.064 0.1 0.172m21.754 0.6c0 0.495 0.039 0.698 0.087 0.45 0.048-0.247 0.048-0.653 0-0.9s-0.087-0.045-0.087 0.45m35.396-0.1c3e-3 0.44 0.044 0.596 0.091 0.348 0.048-0.249 0.046-0.609-4e-3 -0.8-0.05-0.192-0.089 0.012-0.087 0.452m33.532-0.334c0.108 0.202 0.353 0.494 0.545 0.65 0.216 0.176 0.168 0.036-0.126-0.366-0.526-0.718-0.723-0.851-0.419-0.284m8.518-0.166c0.22 0.095 0.535 0.172 0.7 0.172 0.189 0 0.152-0.064-0.1-0.172-0.22-0.095-0.535-0.172-0.7-0.172-0.189 0-0.152 0.064 0.1 0.172m-146.24 1.5c1e-3 0.66 0.038 0.906 0.083 0.546 0.044-0.359 0.044-0.899-2e-3 -1.2-0.046-0.3-0.082-6e-3 -0.081 0.654m28.992-0.1c0 0.495 0.039 0.697 0.087 0.45s0.048-0.652 0-0.9c-0.048-0.247-0.087-0.045-0.087 0.45m21.146 0.1c0.373 0.385 0.723 0.7 0.778 0.7s-0.205-0.315-0.578-0.7-0.723-0.7-0.778-0.7 0.205 0.315 0.578 0.7m24.286 4c0 2.64 0.029 3.692 0.063 2.339 0.035-1.354 0.035-3.514 0-4.8-0.035-1.287-0.063-0.179-0.063 2.461m-17.409-3.412c-0.061 0.159-0.076 0.451-0.032 0.65 0.048 0.226 0.117 0.118 0.182-0.288 0.109-0.681 0.038-0.852-0.15-0.362m47.169 0.312c0 0.385 0.042 0.543 0.092 0.35 0.05-0.192 0.05-0.508 0-0.7s-0.092-0.035-0.092 0.35m3.4 0c0 0.385 0.042 0.543 0.092 0.35 0.05-0.192 0.05-0.508 0-0.7s-0.092-0.035-0.092 0.35m-104 0.6c0 0.385 0.042 0.543 0.092 0.35 0.05-0.192 0.05-0.508 0-0.7-0.05-0.193-0.092-0.035-0.092 0.35m112.4 0.743c0.303 0.046 0.798 0.046 1.1 0 0.303-0.046 0.055-0.083-0.55-0.083s-0.853 0.037-0.55 0.083m1.934 0.807c0.096 0.69 0.11 0.704 0.176 0.176 0.039-0.316-8e-3 -0.654-0.104-0.75-0.101-0.101-0.131 0.144-0.072 0.574m32.878 0.55c1e-3 0.66 0.038 0.906 0.083 0.546 0.044-0.359 0.044-0.899-2e-3 -1.2-0.046-0.3-0.082-6e-3 -0.081 0.654m-102.53-0.1c0.158 0.863 0.272 1.025 0.268 0.383-2e-3 -0.266-0.092-0.618-0.2-0.783-0.138-0.211-0.158-0.092-0.068 0.4m41.585-0.064c-0.116 0.301-0.163 0.31-0.322 0.058-0.113-0.179-0.187-0.201-0.189-0.056-5e-3 0.392 0.334 0.479 0.603 0.155 0.138-0.166 0.204-0.349 0.147-0.406-0.057-0.058-0.165 0.055-0.239 0.249m-75.914 7e-3c0.165 0.061 0.48 0.194 0.7 0.295 0.394 0.181 0.394 0.179 0.012-0.127-0.214-0.171-0.529-0.304-0.7-0.295-0.27 0.013-0.271 0.031-0.012 0.127m126.44 1.764c0.299 0.314 0.58 0.532 0.624 0.482 0.043-0.049-0.201-0.306-0.544-0.572l-0.624-0.483 0.544 0.573m-85.303 0.662c0.398 0.742 1.57 1.878 2.291 2.22 0.434 0.206 0.432 0.197-0.032-0.128-0.638-0.447-1.808-1.615-2.264-2.261-0.327-0.463-0.327-0.45 5e-3 0.169m-25.228 0.988c-0.705 0.845-0.719 0.88-0.133 0.343 0.555-0.509 1.164-1.315 0.977-1.293-0.031 3e-3 -0.411 0.431-0.844 0.95m119.7 0.097c-0.569 0.702-0.592 0.761-0.131 0.346 0.478-0.431 1.046-1.207 0.875-1.196-0.031 2e-3 -0.366 0.384-0.744 0.85m-136.42 0.096l-0.689 0.75 0.75-0.689c0.698-0.642 0.842-0.811 0.689-0.811-0.033 0-0.371 0.338-0.75 0.75m31.161-0.609c0.248 0.048 0.653 0.048 0.9 0s0.045-0.087-0.45-0.087-0.697 0.039-0.45 0.087m99.402 0c0.249 0.048 0.609 0.046 0.8-4e-3 0.192-0.05-0.012-0.089-0.452-0.087-0.44 3e-3 -0.596 0.044-0.348 0.091m-123.66 0.474c-0.072 0.228-0.078 0.468-0.013 0.533s0.118-0.026 0.118-0.203c0-0.469 0.366-0.62 0.759-0.312 0.307 0.24 0.314 0.232 0.067-0.083-0.369-0.47-0.77-0.442-0.931 0.065m30.094 0.335l-0.689 0.75 0.75-0.689c0.698-0.642 0.842-0.811 0.689-0.811-0.033 0-0.371 0.337-0.75 0.75m72.052-0.239c0.298 0.325 0.838 0.753 1.2 0.949 0.635 0.344 0.641 0.344 0.164-1e-3 -0.273-0.198-0.813-0.625-1.2-0.95l-0.705-0.591 0.541 0.593m-58.141 1.596c-0.5 0.241-0.517 0.269-0.1 0.167 0.567-0.139 1.204-0.463 0.9-0.459-0.11 2e-3 -0.47 0.133-0.8 0.292m-80.75 0.438c0.358 0.044 0.943 0.044 1.3 0 0.358-0.045 0.065-0.081-0.65-0.081s-1.008 0.036-0.65 0.081m23.9 1e-3c0.413 0.043 1.088 0.043 1.5 0 0.413-0.043 0.075-0.079-0.75-0.079s-1.162 0.036-0.75 0.079m36.7 0c0.468 0.043 1.232 0.043 1.7 0 0.468-0.042 0.085-0.076-0.85-0.076s-1.317 0.034-0.85 0.076m16.805 1e-3c0.471 0.042 1.191 0.041 1.6-2e-3 0.41-0.043 0.025-0.077-0.855-0.076-0.88 0-1.215 0.035-0.745 0.078m11.599-2e-3c0.359 0.044 0.899 0.044 1.2-2e-3 0.3-0.046 6e-3 -0.082-0.654-0.081s-0.906 0.038-0.546 0.083m16.392-1e-3c0.355 0.045 0.985 0.045 1.4 2e-3 0.414-0.043 0.124-0.079-0.646-0.08s-1.11 0.034-0.754 0.078m22.208 1e-3c0.359 0.044 0.899 0.044 1.2-2e-3 0.3-0.046 6e-3 -0.082-0.654-0.081s-0.906 0.038-0.546 0.083m16.001 2e-3c0.471 0.042 1.191 0.041 1.6-2e-3 0.41-0.043 0.025-0.077-0.855-0.076-0.88 0-1.215 0.035-0.745 0.078m16.2 0c0.471 0.042 1.191 0.041 1.6-2e-3 0.41-0.043 0.025-0.077-0.855-0.076-0.88 0-1.215 0.035-0.745 0.078" fill="#747474"/>
</g>
</svg>
