<?xml version="1.0" encoding="UTF-8"?>
<svg version="1.1" viewBox="0 0 400 400" xmlns="http://www.w3.org/2000/svg">
<g fill-rule="evenodd">
<path d="m0 27c0 22.602 0.089 27 0.548 27 0.385 0 0.629-0.813 0.817-2.721 0.147-1.497 0.591-3.253 0.986-3.902 0.394-0.649 0.819-1.939 0.944-2.867 0.124-0.929 0.499-1.961 0.833-2.295s0.731-1.194 0.884-1.911c0.152-0.717 0.504-1.574 0.782-1.904s0.717-1.261 0.976-2.068 0.732-1.684 1.05-1.949c0.319-0.265 0.58-0.72 0.58-1.011 0-0.292 0.45-1.016 1-1.61 0.55-0.593 1-1.252 1-1.463s0.448-0.949 0.996-1.641c0.961-1.212 1.479-1.89 3.204-4.191 1.533-2.044 10.641-10.867 11.218-10.867 0.32 0 0.582-0.162 0.582-0.36 0-0.345 1.793-1.608 3.974-2.8 0.564-0.309 1.162-0.79 1.328-1.069 0.167-0.28 0.823-0.623 1.459-0.762 0.636-0.14 1.473-0.604 1.86-1.032 0.386-0.427 0.99-0.783 1.341-0.789 0.351-7e-3 1.358-0.456 2.238-0.998s1.983-0.987 2.451-0.988 1.065-0.26 1.326-0.574c0.261-0.315 1.396-0.77 2.522-1.012 1.125-0.241 2.295-0.645 2.598-0.897 0.304-0.252 1.922-0.652 3.597-0.888 1.744-0.247 3.114-0.645 3.208-0.931 0.131-0.397-5.461-0.5-27.069-0.5h-27.233v27m345.7-26.5c0.095 0.287 1.458 0.679 3.196 0.92 1.667 0.232 3.272 0.617 3.567 0.857s1.572 0.649 2.837 0.908 2.3 0.636 2.3 0.838c0 0.201 0.825 0.573 1.834 0.827s1.921 0.689 2.028 0.967c0.106 0.277 0.786 0.616 1.511 0.752 0.724 0.135 1.64 0.603 2.034 1.039s1.04 0.792 1.434 0.792c0.395 0 1.203 0.45 1.797 1 0.593 0.55 1.295 1 1.559 1s0.854 0.315 1.311 0.7c0.797 0.671 1.346 1.108 4.51 3.588 2.732 2.141 5.598 4.927 8.29 8.056 0.499 0.581 1.264 1.422 1.7 1.87s0.792 1.033 0.792 1.3 0.162 0.486 0.36 0.486c0.337 0 1.526 1.674 2.782 3.916 0.298 0.532 0.883 1.309 1.3 1.726s0.758 1.004 0.758 1.304 0.349 0.99 0.775 1.532c0.427 0.542 0.903 1.492 1.058 2.111 0.156 0.62 0.617 1.461 1.025 1.869s0.742 1.126 0.742 1.595 0.341 1.414 0.758 2.1c0.416 0.686 0.886 2.057 1.043 3.047s0.514 2.07 0.794 2.4c0.279 0.33 0.626 1.5 0.771 2.6 1.189 9.001 1.434 5.032 1.434-23.2v-27.4h-27.233c-21.609 0-27.199 0.103-27.067 0.5m-236.5 203.1v116.02l62.1-0.108c48.787-0.084 62.343-0.215 63.233-0.609 0.622-0.277 3.317-0.693 5.988-0.925 2.67-0.231 5.065-0.595 5.321-0.807 0.256-0.213 1.794-0.641 3.418-0.952 1.625-0.311 3.491-0.845 4.147-1.187s1.696-0.623 2.311-0.625c0.615-1e-3 1.964-0.452 2.997-1.002s2.302-1 2.819-1 1.397-0.36 1.957-0.8c0.559-0.44 1.328-0.8 1.709-0.8s1.136-0.349 1.678-0.775c0.542-0.427 1.505-0.906 2.14-1.065 0.635-0.16 1.51-0.621 1.944-1.025s1.044-0.735 1.356-0.735c0.311 0 1.101-0.45 1.755-1s1.417-1 1.696-1 0.833-0.36 1.231-0.8 0.9-0.8 1.116-0.8 0.794-0.405 1.284-0.9c0.491-0.495 1.691-1.567 2.668-2.382 4.397-3.668 11.132-11.787 11.132-13.42 0-0.252 0.245-0.602 0.543-0.778 0.299-0.176 0.759-0.981 1.021-1.788s0.738-1.684 1.056-1.949c0.334-0.277 0.582-1.182 0.584-2.132 2e-3 -0.938 0.428-2.514 0.987-3.651 0.541-1.1 0.99-2.456 0.996-3.014 7e-3 -0.557 0.355-1.997 0.773-3.2 1.967-5.657 1.971-27.005 6e-3 -32.873-0.421-1.258-0.766-2.881-0.766-3.606 0-0.726-0.347-1.967-0.772-2.759-0.424-0.792-0.902-2.134-1.061-2.984-0.159-0.849-0.527-1.782-0.818-2.072-0.29-0.29-0.714-1.219-0.941-2.063-0.228-0.845-0.671-1.749-0.985-2.01s-0.687-1.001-0.829-1.644c-0.141-0.644-0.493-1.306-0.782-1.473-0.289-0.166-0.806-0.977-1.149-1.802-0.342-0.825-0.811-1.5-1.043-1.5-0.231 0-0.42-0.28-0.42-0.622 0-0.798-9.157-9.983-10.32-10.353-0.484-0.153-0.88-0.427-0.88-0.609 0-0.181-0.72-0.617-1.6-0.969s-1.6-0.822-1.6-1.044-0.245-0.403-0.544-0.403-1.17-0.424-1.934-0.943-2.031-1.064-2.816-1.211c-0.784-0.147-1.634-0.518-1.889-0.825s-1.218-0.68-2.14-0.828c-0.922-0.149-2.081-0.526-2.574-0.839s-1.707-0.68-2.697-0.815c-2.529-0.347-3.493-1.133-2.406-1.961 1.737-1.322 3.862-2.578 4.364-2.578 0.29 0 0.986-0.36 1.545-0.8 0.56-0.44 1.15-0.8 1.313-0.8 0.162 0 1.278-0.675 2.478-1.5 1.201-0.825 2.48-1.682 2.842-1.905s1.288-1.003 2.058-1.735c0.77-0.731 1.991-1.79 2.714-2.353 1.317-1.026 6.262-6.739 7.17-8.284 0.266-0.453 0.806-1.453 1.2-2.223s0.92-1.532 1.17-1.694 0.572-0.921 0.716-1.688c0.144-0.766 0.528-1.659 0.854-1.985s0.745-1.406 0.93-2.401c0.186-0.994 0.621-2.239 0.966-2.766 0.346-0.527 0.748-2.108 0.894-3.512 0.146-1.405 0.55-3.634 0.898-4.954 0.87-3.301 0.858-12.934-0.022-17-0.357-1.65-0.761-4.202-0.898-5.672-0.138-1.47-0.597-3.353-1.021-4.185-0.424-0.831-0.771-1.915-0.771-2.406 0-0.492-0.45-1.741-1-2.775-0.55-1.035-1-2.132-1-2.438s-0.322-1.044-0.716-1.64c-0.94-1.423-1.51-2.379-2.451-4.111-0.426-0.784-1.058-1.662-1.404-1.949s-0.629-0.701-0.629-0.92-0.72-1.096-1.6-1.95-1.6-1.721-1.6-1.927c0-0.205-0.351-0.484-0.78-0.621-0.428-0.136-0.89-0.598-1.026-1.026-0.137-0.429-0.496-0.78-0.798-0.78-0.303 0-0.786-0.32-1.073-0.712-0.288-0.392-1.423-1.285-2.523-1.985s-2.27-1.518-2.6-1.818c-0.33-0.299-1.185-0.778-1.9-1.063-0.715-0.286-1.3-0.674-1.3-0.863s-0.495-0.463-1.1-0.61c-0.605-0.146-1.55-0.576-2.1-0.955s-1.45-0.826-2-0.994-1.478-0.641-2.062-1.052c-0.584-0.412-1.579-0.748-2.211-0.748s-1.541-0.275-2.02-0.61c-0.48-0.336-1.915-0.788-3.189-1.005-1.275-0.217-2.858-0.652-3.518-0.966-0.66-0.313-2.784-0.769-4.72-1.012s-4.006-0.659-4.6-0.925c-0.825-0.368-16.118-0.507-64.78-0.589l-63.7-0.107v116.01m114.95-83.279c3.428 0.293 5.365 0.635 5.8 1.026 0.359 0.322 1.373 0.705 2.253 0.851 1.535 0.255 4.884 1.743 7.76 3.447 1.551 0.919 5.64 4.919 5.64 5.517 0 0.218 0.45 0.882 1 1.476 0.55 0.593 1 1.478 1 1.966 0 0.489 0.337 1.317 0.749 1.842s0.883 1.926 1.046 3.115 0.584 2.809 0.935 3.6c0.961 2.165 0.955 15.25-8e-3 17.239-0.372 0.77-0.798 2.257-0.946 3.305-0.147 1.047-0.607 2.336-1.022 2.863s-0.754 1.21-0.754 1.517c0 0.308-0.45 1.17-1 1.915s-1 1.503-1 1.683c0 0.793-8.241 8.317-9.109 8.317-0.211 0-0.827 0.349-1.369 0.775-0.542 0.427-1.511 0.901-2.154 1.054-0.642 0.153-1.464 0.535-1.827 0.849-0.362 0.314-1.738 0.724-3.058 0.91-1.32 0.187-2.824 0.581-3.342 0.876-0.768 0.437-7.775 0.536-38.141 0.536h-37.2l-0.102-31.956c-0.107-33.359-0.134-32.813 1.631-33.174 1.873-0.383 68.242 0.026 73.218 0.451m3.63 93.642c0.123 0.199 1.979 0.485 4.124 0.636 2.417 0.169 4.431 0.539 5.299 0.972 0.77 0.385 2.018 0.821 2.774 0.969 0.755 0.148 1.655 0.512 2 0.808 0.344 0.296 1.207 0.733 1.917 0.972 0.711 0.238 1.521 0.624 1.8 0.858 0.28 0.233 1.499 1.082 2.709 1.885 2.354 1.562 8 7.18 8 7.959 0 0.259 0.349 0.914 0.775 1.456 0.427 0.542 0.901 1.511 1.054 2.154 0.153 0.642 0.525 1.453 0.826 1.801s0.734 1.698 0.961 3c0.228 1.302 0.633 2.799 0.899 3.327 0.676 1.338 0.676 17.139 0 18.479-0.266 0.528-0.671 2.027-0.899 3.33s-0.656 2.743-0.952 3.2-0.667 1.357-0.826 1.999c-0.158 0.643-0.636 1.612-1.063 2.154-0.426 0.542-0.775 1.23-0.775 1.529 0 0.298-0.36 0.767-0.8 1.042s-0.8 0.647-0.8 0.827c0 1.189-7.715 8.28-9.009 8.28-0.278 0-0.609 0.27-0.736 0.6-0.126 0.33-0.479 0.6-0.783 0.6s-1.346 0.422-2.316 0.937c-0.969 0.516-2.462 1.069-3.318 1.229-0.855 0.161-1.955 0.554-2.443 0.874-2.568 1.682-83.265 2.663-86.095 1.046l-0.9-0.514v-35.612c0-23.784 0.138-35.87 0.414-36.386 0.456-0.852 77.64-1.258 78.163-0.411m-227.78 158.84v27.2h27.033c21.449 0 26.999-0.103 26.868-0.5-0.095-0.285-1.241-0.62-2.664-0.779-1.374-0.154-3.261-0.649-4.194-1.1-0.932-0.452-2.079-0.821-2.548-0.821s-1.699-0.45-2.733-1c-1.035-0.55-2.192-1-2.573-1-0.38 0-0.9-0.252-1.156-0.561-0.256-0.308-0.939-0.679-1.518-0.825-0.578-0.145-1.495-0.612-2.037-1.039-0.542-0.426-1.204-0.775-1.47-0.775s-0.806-0.355-1.199-0.79c-0.393-0.434-1.096-0.909-1.562-1.055-0.756-0.236-2.068-1.148-3.847-2.674-0.33-0.283-2.1-1.762-3.933-3.288s-4.606-4.308-6.163-6.183c-1.556-1.876-3.071-3.61-3.367-3.854-0.295-0.244-0.537-0.621-0.537-0.838s-0.375-0.733-0.833-1.148-1.095-1.297-1.414-1.962c-0.32-0.664-1.014-1.928-1.543-2.808-1.369-2.277-3.305-6.224-3.629-7.4-0.152-0.55-0.54-1.301-0.862-1.669-0.323-0.368-0.684-1.448-0.803-2.4s-0.54-2.271-0.934-2.931c-0.396-0.662-0.845-2.5-1.002-4.1-0.2-2.052-0.444-2.9-0.832-2.9-0.459 0-0.548 4.428-0.548 27.2m399.05-26.1c-0.116 0.605-0.327 1.91-0.47 2.9s-0.48 2.16-0.748 2.6-0.714 1.835-0.99 3.1-0.648 2.3-0.826 2.3-0.522 0.785-0.763 1.744c-0.242 0.959-0.702 1.962-1.022 2.228s-0.705 1.056-0.855 1.756c-0.15 0.699-0.611 1.594-1.026 1.988-0.414 0.393-0.753 0.923-0.753 1.178s-0.481 1.193-1.069 2.084c-0.588 0.892-1.533 2.342-2.099 3.222s-1.135 1.69-1.264 1.8-1.289 1.46-2.577 3c-2.35 2.81-5.221 5.708-7.133 7.2-0.564 0.44-1.797 1.482-2.742 2.315-0.944 0.833-2.436 1.986-3.316 2.561-0.88 0.576-2.05 1.372-2.6 1.769-0.55 0.396-2.309 1.382-3.908 2.19-1.6 0.808-3.006 1.625-3.124 1.817-0.118 0.191-0.538 0.348-0.932 0.348s-1.563 0.45-2.598 1c-1.034 0.55-2.264 1-2.733 1s-1.616 0.369-2.548 0.821c-0.933 0.451-2.82 0.946-4.194 1.1-1.423 0.159-2.569 0.494-2.664 0.779-0.131 0.397 5.419 0.5 26.868 0.5h27.033v-27.2c0-24.721-0.193-30.042-0.947-26.1" fill="#fafafb"/>
<path d="m63.2 0.581c0 0.882-2.504 1.449-7.528 1.703-3.329 0.169-4.694 0.395-5.151 0.852-0.343 0.343-1.716 0.752-3.052 0.909-1.375 0.162-2.615 0.54-2.856 0.87-0.235 0.321-1.183 0.711-2.108 0.867-0.925 0.157-2.092 0.606-2.593 0.999-0.502 0.393-1.482 0.839-2.179 0.991-0.696 0.152-1.357 0.513-1.467 0.801-0.111 0.288-0.671 0.642-1.244 0.786s-1.398 0.617-1.832 1.051c-0.435 0.435-1.144 0.79-1.576 0.79s-0.977 0.358-1.211 0.795c-0.235 0.438-0.876 0.908-1.425 1.046-0.55 0.138-1.181 0.59-1.403 1.005s-0.745 0.754-1.162 0.754c-0.418 0-0.873 0.36-1.013 0.8s-0.438 0.8-0.664 0.8-1.58 1.17-3.01 2.6-2.751 2.6-2.936 2.6-0.45 0.36-0.59 0.8c-0.14 0.441-0.602 0.987-1.027 1.214-0.425 0.228-0.773 0.666-0.773 0.973 0 0.308-0.36 0.673-0.8 0.813s-0.8 0.595-0.8 1.013c0 0.417-0.339 0.94-0.754 1.162s-0.867 0.853-1.005 1.403c-0.138 0.549-0.608 1.19-1.046 1.425-0.437 0.234-0.795 0.772-0.795 1.197s-0.336 0.952-0.747 1.172-0.855 0.94-0.988 1.601c-0.132 0.661-0.606 1.568-1.052 2.015-0.447 0.446-0.813 1.234-0.813 1.75s-0.341 1.247-0.758 1.624c-0.417 0.378-0.878 1.482-1.024 2.455-0.148 0.986-0.55 1.929-0.909 2.13-0.424 0.237-0.745 1.206-0.936 2.83-0.16 1.358-0.558 2.774-0.884 3.146-0.394 0.451-0.662 1.947-0.802 4.477-0.227 4.121-0.842 6.4-1.726 6.4-0.48 0-0.561 19.936-0.561 138.4 0 115.38 0.089 138.4 0.536 138.4 0.979 0 1.572 2.154 1.761 6.4 0.128 2.899 0.384 4.51 0.825 5.2 0.352 0.55 0.767 2.064 0.923 3.364 0.176 1.471 0.514 2.493 0.895 2.707 0.337 0.188 0.732 1.139 0.878 2.112s0.607 2.077 1.024 2.455c0.417 0.377 0.758 1.073 0.758 1.546s0.45 1.471 1 2.216 1 1.637 1 1.981c0 0.345 0.36 0.851 0.8 1.126s0.8 0.827 0.8 1.227c0 0.399 0.45 1.149 1 1.666s1 1.225 1 1.574c0 0.348 0.36 0.858 0.8 1.133s0.8 0.762 0.8 1.082c0 0.321 0.36 0.776 0.8 1.011s0.8 0.68 0.8 0.987c0 0.308 0.36 0.673 0.8 0.813s0.8 0.406 0.8 0.592c0 0.453 4.339 4.808 4.79 4.808 0.196 0 0.47 0.36 0.61 0.8s0.51 0.8 0.824 0.8c0.313 0 0.794 0.36 1.069 0.8s0.716 0.8 0.981 0.8c0.264 0 0.716 0.324 1.003 0.72 0.288 0.396 1.108 0.958 1.823 1.249 0.715 0.29 1.3 0.696 1.3 0.9 0 0.205 0.526 0.556 1.168 0.78s1.26 0.647 1.373 0.941 0.766 0.658 1.451 0.808c0.685 0.151 1.461 0.618 1.723 1.038 0.283 0.452 0.928 0.764 1.581 0.764 0.607 0 1.461 0.357 1.898 0.794s1.562 0.909 2.5 1.048 1.928 0.531 2.198 0.871c0.271 0.341 1.502 0.756 2.736 0.923 1.234 0.168 2.542 0.565 2.908 0.883 0.432 0.376 2.095 0.672 4.755 0.847 4.494 0.296 6.509 0.814 6.509 1.673 0 0.48 19.993 0.561 138.8 0.561s138.8-0.081 138.8-0.561c0-0.859 2.015-1.377 6.509-1.673 2.66-0.175 4.323-0.471 4.755-0.847 0.366-0.318 1.674-0.715 2.908-0.883 1.234-0.167 2.465-0.582 2.736-0.922 0.27-0.339 1.17-0.718 1.998-0.841 0.829-0.124 1.978-0.596 2.554-1.049s1.544-0.824 2.151-0.824 1.205-0.264 1.329-0.587 0.818-0.836 1.543-1.138c0.724-0.303 1.564-0.849 1.866-1.213s0.878-0.662 1.28-0.662 0.875-0.246 1.051-0.546 0.905-0.845 1.62-1.21c0.715-0.366 1.3-0.828 1.3-1.027 0-0.2 0.405-0.491 0.9-0.647 0.495-0.157 1.135-0.619 1.423-1.027 0.287-0.409 0.68-0.743 0.872-0.743 0.5 0 6.405-5.838 6.405-6.333 0-0.227 0.36-0.527 0.8-0.667s0.8-0.502 0.8-0.804c0-0.303 0.315-0.789 0.7-1.079 0.385-0.291 0.928-0.886 1.206-1.323 1.679-2.636 2.099-3.251 2.57-3.765 0.561-0.611 1.526-2.266 2.485-4.261 0.326-0.677 0.873-1.464 1.216-1.749 0.343-0.284 0.623-0.921 0.623-1.414s0.371-1.369 0.824-1.945 0.925-1.725 1.049-2.554c0.123-0.828 0.505-1.73 0.849-2.004 0.367-0.292 0.742-1.495 0.91-2.923 0.158-1.334 0.556-2.73 0.885-3.102 0.413-0.468 0.686-2.098 0.884-5.277 0.281-4.513 0.945-7.2 1.779-7.2 0.703 0 0.579-272.65-0.124-272.92-0.799-0.307-1.36-3.08-1.673-8.277-0.19-3.144-0.464-4.812-0.866-5.27-0.323-0.369-0.688-1.779-0.811-3.134-0.163-1.8-0.423-2.587-0.965-2.925-0.46-0.288-0.741-0.929-0.741-1.69 0-0.679-0.446-1.83-1-2.581-0.55-0.745-1-1.743-1-2.216s-0.36-1.186-0.8-1.584-0.8-1.029-0.8-1.401-0.355-1.086-0.788-1.585c-0.434-0.5-0.909-1.293-1.058-1.762-0.148-0.468-0.603-1.087-1.011-1.375-0.409-0.287-0.743-0.751-0.743-1.03s-0.45-0.93-1-1.447-1-1.247-1-1.623-0.36-0.778-0.8-0.893c-0.479-0.125-0.8-0.546-0.8-1.047 0-0.483-0.258-0.837-0.609-0.837-0.334 0-0.813-0.45-1.064-1-0.25-0.55-0.697-1-0.991-1-0.295 0-0.536-0.274-0.536-0.609 0-0.334-0.45-0.813-1-1.064-0.55-0.25-1-0.697-1-0.991 0-0.295-0.181-0.536-0.403-0.536-0.221 0-0.794-0.45-1.272-1s-1.095-1-1.37-1c-0.276 0-0.615-0.36-0.755-0.8s-0.503-0.8-0.806-0.8c-0.304 0-1.038-0.45-1.632-1-0.593-0.55-1.316-1-1.606-1s-0.721-0.36-0.956-0.8-0.772-0.8-1.191-0.8c-0.42 0-0.999-0.336-1.286-0.746-0.288-0.411-1.12-0.878-1.85-1.038s-1.422-0.54-1.539-0.843c-0.116-0.303-0.812-0.664-1.546-0.802-0.735-0.138-1.638-0.584-2.008-0.993s-1.464-0.862-2.432-1.007-1.907-0.527-2.087-0.848c-0.201-0.358-1.353-0.711-2.982-0.913-1.513-0.188-2.931-0.605-3.296-0.97-0.475-0.474-1.426-0.64-3.679-0.64-4.307 0-8.043-0.713-8.625-1.645-0.646-1.034-273.88-1.207-273.88-0.174m172.14 86.084c4.999 0.208 6.469 0.397 6.97 0.898 0.42 0.42 1.689 0.712 3.753 0.864 2.128 0.156 3.359 0.447 3.875 0.913 0.416 0.377 1.726 0.794 2.911 0.928 1.321 0.15 2.432 0.532 2.871 0.988 0.426 0.443 1.273 0.744 2.096 0.744 0.948 0 1.538 0.251 1.881 0.8 0.307 0.491 0.933 0.8 1.622 0.8 0.684 0 1.485 0.391 2.05 1 0.527 0.569 1.372 1 1.958 1 0.567 0 1.268 0.315 1.558 0.7 0.509 0.677 1.489 1.319 4.219 2.761 0.715 0.378 1.3 0.904 1.3 1.17 0 0.265 0.45 0.595 1 0.733s1 0.518 1 0.844c0 0.325 0.211 0.592 0.469 0.592s1.865 1.485 3.57 3.3c1.706 1.815 3.451 3.66 3.877 4.1s0.896 1.188 1.045 1.663c0.148 0.475 0.523 0.96 0.832 1.079 0.31 0.119 0.683 0.855 0.829 1.637 0.147 0.782 0.498 1.421 0.78 1.421 0.571 0 0.998 0.869 0.998 2.033 0 0.422 0.332 1.099 0.737 1.504s0.857 1.61 1.003 2.677c0.148 1.079 0.62 2.318 1.063 2.789 0.595 0.634 0.797 1.402 0.797 3.034 0 1.438 0.239 2.523 0.7 3.174 1.177 1.663 1.282 24.275 0.122 26.241-0.531 0.9-0.822 2.095-0.822 3.371 0 1.466-0.214 2.191-0.829 2.806-0.466 0.466-0.962 1.673-1.134 2.763-0.168 1.064-0.605 2.233-0.971 2.6-0.366 0.366-0.666 1.005-0.666 1.421s-0.345 1.078-0.768 1.471c-0.422 0.394-0.892 1.216-1.046 1.827-0.153 0.61-0.617 1.292-1.032 1.514s-0.754 0.673-0.754 1.003c0 0.583-0.247 0.909-2.795 3.686-0.663 0.722-1.205 1.487-1.205 1.7 0 0.212-0.287 0.386-0.637 0.386-0.351 0-0.732 0.36-0.847 0.8s-0.331 0.8-0.479 0.8-1.072 0.737-2.053 1.638-2.234 1.931-2.784 2.29-1.144 0.882-1.32 1.162c-0.176 0.281-0.605 0.51-0.954 0.51s-1.051 0.45-1.561 1-1.289 1-1.732 1-0.998 0.36-1.233 0.8-0.737 0.803-1.114 0.806-1.136 0.268-1.686 0.587c-0.55 0.32-1.512 0.791-2.139 1.047-1.552 0.634-0.676 1.146 1.977 1.154 1.525 4e-3 2.22 0.207 2.762 0.806 0.432 0.478 1.232 0.8 1.984 0.8 0.716 0 1.846 0.432 2.616 1 0.745 0.55 1.817 1 2.381 1 0.567 0 1.234 0.333 1.491 0.744 0.255 0.409 1.048 0.86 1.761 1.003 0.712 0.142 1.547 0.617 1.854 1.056 0.307 0.438 0.812 0.797 1.122 0.797 0.309 0 0.756 0.36 0.991 0.8s0.647 0.803 0.914 0.807c1.304 0.02 9.886 8.481 9.886 9.747 0 0.249 0.36 0.678 0.8 0.953s0.8 0.761 0.8 1.081c0 0.319 0.345 0.903 0.768 1.296 0.422 0.394 0.892 1.216 1.046 1.827 0.153 0.61 0.617 1.292 1.032 1.514 0.479 0.256 0.754 0.837 0.754 1.593 0 0.688 0.332 1.474 0.787 1.864 0.453 0.387 0.904 1.449 1.061 2.496 0.15 1.002 0.542 2.019 0.871 2.259 0.329 0.241 0.738 1.472 0.91 2.736 0.171 1.264 0.611 2.63 0.978 3.034 0.491 0.543 0.725 1.814 0.892 4.856 0.137 2.477 0.427 4.32 0.728 4.621 1.234 1.234 1.355 19.754 0.135 20.648-0.465 0.341-0.697 1.411-0.854 3.947-0.16 2.567-0.439 3.838-1.062 4.847-0.499 0.807-0.846 2.037-0.846 2.999 0 1.134-0.226 1.789-0.743 2.152-0.534 0.376-0.799 1.193-0.94 2.9-0.153 1.857-0.384 2.503-1.056 2.949-0.474 0.314-0.861 0.987-0.861 1.494 0 0.508-0.247 1.17-0.548 1.471-0.302 0.301-0.846 1.124-1.21 1.829-0.365 0.704-0.818 1.28-1.009 1.28-0.19 0-0.449 0.405-0.576 0.9-0.126 0.495-1.045 1.786-2.043 2.869s-1.814 2.036-1.814 2.118c0 0.328-4.426 4.513-4.773 4.513-0.205 0-0.487 0.36-0.627 0.8s-0.443 0.8-0.674 0.8-1.035 0.54-1.787 1.2-1.587 1.2-1.857 1.2c-0.269 0-0.714 0.36-0.989 0.8s-0.74 0.8-1.034 0.8-0.861 0.36-1.259 0.8-1.058 0.8-1.466 0.8-1.049 0.359-1.425 0.798-1.279 0.91-2.007 1.047c-0.728 0.136-1.505 0.587-1.727 1.002-0.271 0.507-0.84 0.753-1.74 0.753-0.898 0-1.518 0.267-1.886 0.813-0.329 0.487-1.191 0.913-2.149 1.061-0.88 0.137-2.029 0.581-2.554 0.987-0.535 0.414-1.606 0.739-2.438 0.739-0.938 0-1.731 0.273-2.156 0.743-0.483 0.533-1.47 0.81-3.504 0.98-2.055 0.172-2.973 0.432-3.35 0.947-0.403 0.551-1.225 0.742-3.659 0.853-1.895 0.086-3.773 0.43-4.739 0.868-1.328 0.602-3.13 0.767-10.6 0.973-4.95 0.136-9.81 0.417-10.8 0.624-3.768 0.789-110.04 0.512-110.64-0.288-0.571-0.751-0.859-233.66-0.29-234.23 0.345-0.346 118.74-0.347 127.07-2e-3m-85.039 65.61c0.076 24.108 0.205 30.744 0.6 31.001 0.729 0.473 67.588 0.117 73.085-0.389 3.466-0.32 4.7-0.584 5.069-1.089 0.268-0.366 1.236-0.766 2.152-0.889 0.917-0.123 1.759-0.466 1.873-0.762 0.113-0.296 0.908-0.727 1.765-0.958 0.858-0.231 1.559-0.588 1.559-0.794s0.585-0.673 1.3-1.039c0.715-0.365 1.444-0.91 1.62-1.21s0.651-0.546 1.057-0.546c0.452 0 0.833-0.386 0.987-1 0.138-0.55 0.5-1 0.804-1 0.305 0 0.742-0.54 0.972-1.2s0.617-1.2 0.86-1.2c0.242 0 0.704-0.63 1.026-1.4s0.746-1.4 0.944-1.4 0.479-0.708 0.626-1.574c0.146-0.866 0.612-1.974 1.035-2.462 0.542-0.625 0.769-1.487 0.769-2.925 0-1.122 0.301-3.556 0.669-5.411 0.573-2.889 0.598-3.777 0.173-6.2-0.273-1.555-0.603-4.538-0.733-6.628-0.166-2.665-0.445-4.099-0.935-4.8-0.385-0.55-0.816-1.684-0.959-2.521-0.142-0.837-0.519-1.621-0.837-1.743s-0.578-0.496-0.578-0.832c0-0.535-1.984-2.916-3.538-4.244-0.295-0.253-0.946-0.865-1.446-1.36-0.499-0.495-1.105-0.9-1.346-0.9s-0.765-0.35-1.163-0.777c-0.399-0.428-1.512-0.955-2.474-1.171s-1.888-0.618-2.058-0.892c-0.169-0.274-1.414-0.629-2.765-0.789-1.351-0.159-2.775-0.578-3.165-0.93-0.639-0.579-4.429-0.641-38.876-0.641h-38.169l0.097 30.675m0.809 98.22c-0.058 19.198-0.086 34.955-0.062 35.016 0.202 0.506 81.493 0.01 82.003-0.501 0.552-0.551 1.168-0.705 4.696-1.17 0.848-0.112 1.748-0.459 2-0.772 0.251-0.313 1.036-0.676 1.745-0.806 0.708-0.13 1.653-0.603 2.1-1.049 0.446-0.447 1.25-0.813 1.785-0.813 0.622 0 1.065-0.289 1.227-0.8 0.14-0.44 0.496-0.8 0.792-0.8 0.586 0 5.008-4.285 5.008-4.852 0-0.192 0.27-0.348 0.6-0.348s0.6-0.244 0.6-0.542c0-0.297 0.45-1.027 1-1.62 0.55-0.594 1-1.42 1-1.836s0.334-0.992 0.741-1.279c0.451-0.318 0.854-1.279 1.029-2.452 0.158-1.061 0.607-2.248 0.998-2.639 0.555-0.555 0.759-1.623 0.932-4.871 0.121-2.289 0.443-5.031 0.716-6.095 0.397-1.548 0.394-2.387-0.013-4.2-0.279-1.246-0.621-4.214-0.758-6.595-0.198-3.439-0.386-4.406-0.912-4.701-0.365-0.204-0.789-1.135-0.943-2.07-0.155-0.935-0.621-2.022-1.036-2.416-0.414-0.393-0.754-1.037-0.754-1.43s-0.45-1.137-1-1.654-1-1.172-1-1.456-0.348-0.702-0.773-0.93c-0.425-0.227-0.887-0.773-1.027-1.214-0.14-0.44-0.506-0.8-0.813-0.8-0.503 0-1.565-0.853-4.001-3.212-0.448-0.433-1.185-0.788-1.638-0.788s-1.134-0.342-1.512-0.76c-0.379-0.419-1.289-0.873-2.024-1.011-0.734-0.138-1.427-0.491-1.54-0.784-0.121-0.317-1.192-0.646-2.628-0.808-1.44-0.163-2.701-0.551-3.106-0.956-0.631-0.631-3.699-0.689-42.003-0.786l-41.322-0.106-0.107 34.906" fill="#533b7b"/>
<path d="m54.269 0.565c-0.142 0.369-1.166 0.662-2.943 0.842-1.499 0.152-3.126 0.528-3.615 0.836-0.488 0.309-1.782 0.752-2.874 0.986-1.091 0.234-2.199 0.684-2.46 0.999-0.261 0.314-0.858 0.573-1.326 0.574s-1.571 0.446-2.451 0.988-1.887 0.991-2.238 0.998c-0.351 6e-3 -0.955 0.362-1.341 0.789-0.387 0.428-1.224 0.892-1.86 1.032-0.636 0.139-1.292 0.482-1.459 0.762-0.166 0.279-0.764 0.76-1.328 1.069-2.181 1.192-3.974 2.455-3.974 2.8 0 0.198-0.262 0.36-0.582 0.36-0.577 0-9.685 8.823-11.218 10.867-1.725 2.301-2.243 2.979-3.204 4.191-0.548 0.692-0.996 1.43-0.996 1.641s-0.45 0.87-1 1.463c-0.55 0.594-1 1.318-1 1.61 0 0.291-0.261 0.746-0.58 1.011-0.318 0.265-0.791 1.142-1.05 1.949s-0.698 1.738-0.976 2.068-0.63 1.187-0.782 1.904c-0.153 0.717-0.55 1.577-0.884 1.911s-0.709 1.366-0.833 2.295c-0.125 0.928-0.55 2.218-0.944 2.867-0.395 0.649-0.839 2.405-0.986 3.902-0.188 1.908-0.432 2.721-0.817 2.721-0.342 0-0.548 0.45-0.548 1.2 0 2.054 1.115 1.491 1.386-0.7 0.385-3.115 1.045-6.072 1.406-6.295 0.186-0.115 0.461-0.973 0.611-1.907s0.616-2.293 1.035-3.021c0.419-0.727 0.762-1.535 0.762-1.794 0-0.45 1.686-4.219 2.453-5.483 0.2-0.33 0.675-1.23 1.056-2.001 3.629-7.353 15.518-19.831 22.291-23.396 0.66-0.347 1.92-1.065 2.8-1.596 1.95-1.176 7.258-3.806 7.689-3.809 0.171-2e-3 0.851-0.292 1.511-0.646 0.66-0.353 2.1-0.884 3.2-1.179 4.365-1.171 6.888-1.764 8.77-2.062 2.349-0.371 2.999-1.311 0.906-1.311-0.829 0-1.478 0.228-1.607 0.565m288.53-0.189c0 0.623 0.604 0.819 3.767 1.22 3.02 0.383 6.659 1.405 10.433 2.931 3.544 1.433 7.752 3.472 8.003 3.878 0.134 0.217 0.549 0.398 0.921 0.401s1.576 0.641 2.676 1.418c1.1 0.776 2.459 1.718 3.021 2.094 5.319 3.555 13.607 12.015 16.579 16.922 0.44 0.727 0.996 1.644 1.236 2.038 0.239 0.394 0.703 1.033 1.03 1.419 0.686 0.811 4.334 8.161 4.334 8.733 0 0.21 0.334 1.009 0.741 1.776 0.408 0.767 0.874 2.108 1.035 2.98 0.161 0.873 0.556 2.096 0.878 2.718 0.322 0.623 0.751 2.585 0.953 4.36 0.421 3.689 0.691 4.736 1.22 4.736 0.516 0 0.472-3.1-0.046-3.273-0.23-0.077-0.613-1.487-0.851-3.133-0.237-1.647-0.659-3.264-0.937-3.594s-0.635-1.41-0.792-2.4-0.627-2.361-1.043-3.047c-0.417-0.686-0.758-1.631-0.758-2.1s-0.334-1.187-0.742-1.595-0.869-1.249-1.025-1.869c-0.155-0.619-0.631-1.569-1.058-2.111-0.426-0.542-0.775-1.232-0.775-1.532s-0.341-0.887-0.758-1.304-1.002-1.194-1.3-1.726c-1.256-2.242-2.445-3.916-2.782-3.916-0.198 0-0.36-0.219-0.36-0.486s-0.356-0.852-0.792-1.3-1.201-1.289-1.7-1.87c-2.692-3.129-5.558-5.915-8.29-8.056-3.164-2.48-3.713-2.917-4.51-3.588-0.457-0.385-1.047-0.7-1.311-0.7s-0.966-0.45-1.559-1c-0.594-0.55-1.402-1-1.797-1-0.394 0-1.04-0.356-1.434-0.792s-1.31-0.904-2.034-1.039c-0.725-0.136-1.405-0.475-1.511-0.752-0.107-0.278-1.019-0.713-2.028-0.967s-1.834-0.626-1.834-0.827c0-0.202-1.028-0.58-2.284-0.84-1.256-0.261-2.651-0.709-3.1-0.996-0.449-0.286-2.045-0.648-3.548-0.804-1.736-0.18-2.808-0.484-2.943-0.833-0.236-0.616-2.925-0.775-2.925-0.174m-233.99 87.198c-0.579 1.082-0.579 230.97 0 232.05 0.751 1.403 123.94 1.037 127.66-0.379 0.576-0.219 2.846-0.596 5.043-0.838 2.198-0.242 5-0.793 6.228-1.224 1.228-0.432 2.732-0.789 3.342-0.794 0.611-5e-3 1.832-0.336 2.714-0.737s2.242-0.849 3.022-0.995c0.781-0.146 2.122-0.625 2.981-1.063s1.826-0.796 2.148-0.796c0.699 0 10.929-4.997 12.645-6.177 0.66-0.454 1.5-1.005 1.866-1.224 3.863-2.316 10.195-8.159 13.288-12.261 1.218-1.616 2.478-3.209 2.799-3.541s0.704-1.084 0.851-1.671c0.148-0.588 0.504-1.159 0.792-1.269 0.288-0.111 0.744-0.889 1.014-1.729s0.714-1.798 0.987-2.128c0.272-0.33 0.608-1.47 0.746-2.533s0.5-2.413 0.805-3c0.909-1.749 2.354-7.268 2.689-10.267 0.172-1.54 0.503-3.77 0.738-4.955 0.612-3.099 0.519-11.59-0.177-16.21-0.329-2.181-0.598-4.734-0.598-5.674s-0.204-2.216-0.452-2.835c-0.249-0.619-0.776-2.386-1.172-3.926-1.372-5.339-5.186-14.246-6.603-15.422-0.315-0.262-0.573-0.706-0.573-0.987 0-1.437-10.508-12.586-11.867-12.59-0.256 0-0.54-0.221-0.629-0.489-0.48-1.441-14.285-7.732-18.003-8.204-3.487-0.443-3.01-1.379 1.899-3.731 0.88-0.422 1.96-0.99 2.4-1.262 3.076-1.904 4.127-2.59 5.061-3.304 0.583-0.446 1.663-1.251 2.4-1.789 7.808-5.704 15.095-17.4 16.959-27.222 0.314-1.65 0.797-3.54 1.075-4.2 0.819-1.946 0.674-16.856-0.199-20.4-0.379-1.54-0.863-3.943-1.077-5.34-0.213-1.397-0.557-2.747-0.764-3s-0.587-1.27-0.844-2.26c-0.451-1.733-1.584-4.529-2.513-6.2-0.245-0.44-0.706-1.317-1.025-1.948-2.952-5.847-10.246-13.183-17.216-17.316-2.875-1.706-10.378-5.336-11.027-5.336-0.364 0-1.33-0.335-2.146-0.744s-2.268-0.864-3.226-1.011-2.218-0.514-2.8-0.815c-0.583-0.301-2.139-0.67-3.458-0.819-1.32-0.15-3.389-0.546-4.598-0.881-5.697-1.579-130.36-2.107-131.19-0.556m128.87 0.708c0.594 0.266 2.664 0.682 4.6 0.925s4.06 0.699 4.72 1.012c0.66 0.314 2.243 0.749 3.518 0.966 1.274 0.217 2.709 0.669 3.189 1.005 0.479 0.335 1.388 0.61 2.02 0.61s1.627 0.336 2.211 0.748c0.584 0.411 1.512 0.884 2.062 1.052s1.45 0.615 2 0.994 1.495 0.809 2.1 0.955c0.605 0.147 1.1 0.421 1.1 0.61s0.585 0.577 1.3 0.863c0.715 0.285 1.57 0.764 1.9 1.063 0.33 0.3 1.5 1.118 2.6 1.818s2.235 1.593 2.523 1.985c0.287 0.392 0.77 0.712 1.073 0.712 0.302 0 0.661 0.351 0.798 0.78 0.136 0.428 0.598 0.89 1.026 1.026 0.429 0.137 0.78 0.416 0.78 0.621 0 0.206 0.72 1.073 1.6 1.927s1.6 1.731 1.6 1.95 0.283 0.633 0.629 0.92 0.978 1.165 1.404 1.949c0.941 1.732 1.511 2.688 2.451 4.111 0.394 0.596 0.716 1.334 0.716 1.64s0.45 1.403 1 2.438c0.55 1.034 1 2.283 1 2.775 0 0.491 0.347 1.575 0.771 2.406 0.424 0.832 0.883 2.715 1.021 4.185 0.137 1.47 0.541 4.022 0.898 5.672 0.88 4.066 0.892 13.699 0.022 17-0.348 1.32-0.752 3.549-0.898 4.954-0.146 1.404-0.548 2.985-0.894 3.512-0.345 0.527-0.78 1.772-0.966 2.766-0.185 0.995-0.604 2.075-0.93 2.401s-0.71 1.219-0.854 1.985c-0.144 0.767-0.466 1.526-0.716 1.688s-0.776 0.924-1.17 1.694-0.934 1.77-1.2 2.223c-0.908 1.545-5.853 7.258-7.17 8.284-0.723 0.563-1.944 1.622-2.714 2.353-0.77 0.732-1.696 1.512-2.058 1.735s-1.641 1.08-2.842 1.905c-1.2 0.825-2.316 1.5-2.478 1.5-0.163 0-0.753 0.36-1.313 0.8-0.559 0.44-1.255 0.8-1.545 0.8-0.502 0-2.627 1.256-4.364 2.578-1.087 0.828-0.123 1.614 2.406 1.961 0.99 0.135 2.204 0.502 2.697 0.815s1.652 0.69 2.574 0.839c0.922 0.148 1.885 0.521 2.14 0.828s1.105 0.678 1.889 0.825c0.785 0.147 2.052 0.692 2.816 1.211s1.635 0.943 1.934 0.943 0.544 0.181 0.544 0.403 0.72 0.692 1.6 1.044 1.6 0.788 1.6 0.969c0 0.182 0.396 0.456 0.88 0.609 1.163 0.37 10.32 9.555 10.32 10.353 0 0.342 0.189 0.622 0.42 0.622 0.232 0 0.701 0.675 1.043 1.5 0.343 0.825 0.86 1.636 1.149 1.802 0.289 0.167 0.641 0.829 0.782 1.473 0.142 0.643 0.515 1.383 0.829 1.644s0.757 1.165 0.985 2.01c0.227 0.844 0.651 1.773 0.941 2.063 0.291 0.29 0.659 1.223 0.818 2.072 0.159 0.85 0.637 2.192 1.061 2.984 0.425 0.792 0.772 2.033 0.772 2.759 0 0.725 0.345 2.348 0.766 3.606 1.965 5.868 1.961 27.216-6e-3 32.873-0.418 1.203-0.766 2.643-0.773 3.2-6e-3 0.558-0.455 1.914-0.996 3.014-0.559 1.137-0.985 2.713-0.987 3.651-2e-3 0.95-0.25 1.855-0.584 2.132-0.318 0.265-0.794 1.142-1.056 1.949s-0.722 1.612-1.021 1.788c-0.298 0.176-0.543 0.526-0.543 0.778 0 1.633-6.735 9.752-11.132 13.42-0.977 0.815-2.177 1.887-2.668 2.382-0.49 0.495-1.068 0.9-1.284 0.9s-0.718 0.36-1.116 0.8-0.952 0.8-1.231 0.8-1.042 0.45-1.696 1-1.444 1-1.755 1c-0.312 0-0.922 0.331-1.356 0.735s-1.309 0.865-1.944 1.025c-0.635 0.159-1.598 0.638-2.14 1.065-0.542 0.426-1.297 0.775-1.678 0.775s-1.15 0.36-1.709 0.8c-0.56 0.44-1.44 0.8-1.957 0.8s-1.786 0.45-2.819 1-2.382 1.001-2.997 1.002c-0.615 2e-3 -1.655 0.283-2.311 0.625s-2.522 0.876-4.147 1.187c-1.624 0.311-3.162 0.739-3.418 0.952-0.256 0.212-2.651 0.576-5.321 0.807-2.671 0.232-5.366 0.648-5.988 0.925-0.89 0.394-14.446 0.525-63.233 0.609l-62.1 0.108v-116.02-116.01l63.7 0.107c48.662 0.082 63.955 0.221 64.78 0.589m-86.751 31.588c-1.765 0.361-1.738-0.185-1.631 33.174l0.102 31.956h37.2c30.366 0 37.373-0.099 38.141-0.536 0.518-0.295 2.022-0.689 3.342-0.876 1.32-0.186 2.696-0.596 3.058-0.91 0.363-0.314 1.185-0.696 1.827-0.849 0.643-0.153 1.612-0.627 2.154-1.054 0.542-0.426 1.158-0.775 1.369-0.775 0.868 0 9.109-7.524 9.109-8.317 0-0.18 0.45-0.938 1-1.683s1-1.607 1-1.915c0-0.307 0.339-0.99 0.754-1.517s0.875-1.816 1.022-2.863c0.148-1.048 0.574-2.535 0.946-3.305 0.963-1.989 0.969-15.074 8e-3 -17.239-0.351-0.791-0.772-2.411-0.935-3.6s-0.634-2.59-1.046-3.115-0.749-1.353-0.749-1.842c0-0.488-0.45-1.373-1-1.966-0.55-0.594-1-1.258-1-1.476 0-0.598-4.089-4.598-5.64-5.517-2.876-1.704-6.225-3.192-7.76-3.447-0.88-0.146-1.894-0.529-2.253-0.851-1.326-1.19-73.799-2.544-79.018-1.477m70.881 0.882c3.81 0.203 6.02 0.504 6.887 0.936 0.701 0.351 2.047 0.761 2.989 0.912 0.943 0.152 2.309 0.619 3.037 1.038 0.727 0.419 1.514 0.762 1.748 0.762 1.471 0 9.129 6.548 9.129 7.806 0 0.259 0.36 0.796 0.8 1.194s0.8 1.014 0.8 1.368 0.361 1.317 0.802 2.14c0.441 0.822 0.981 2.71 1.201 4.194s0.575 3.418 0.789 4.298c0.618 2.545 0.492 11.296-0.196 13.564-0.328 1.08-0.598 2.52-0.6 3.2s-0.446 2.136-0.987 3.236-0.99 2.161-0.996 2.359c-0.095 2.715-8.05 10.411-13.436 12.998-1.087 0.522-2.513 1.211-3.169 1.53-0.655 0.32-2.725 0.85-4.6 1.178-1.874 0.329-4.343 0.764-5.487 0.968-1.202 0.215-16.552 0.328-36.4 0.269l-34.321-0.102-0.102-31.712-0.103-31.712 0.903-0.363c1.09-0.438 63.277-0.492 71.312-0.061m-72.196 93.622c-0.276 0.516-0.414 12.602-0.414 36.386v35.612l0.9 0.514c2.83 1.617 83.527 0.636 86.095-1.046 0.488-0.32 1.588-0.713 2.443-0.874 0.856-0.16 2.349-0.713 3.318-1.229 0.97-0.515 2.012-0.937 2.316-0.937s0.657-0.27 0.783-0.6c0.127-0.33 0.458-0.6 0.736-0.6 1.294 0 9.009-7.091 9.009-8.28 0-0.18 0.36-0.552 0.8-0.827s0.8-0.744 0.8-1.042c0-0.299 0.349-0.987 0.775-1.529 0.427-0.542 0.905-1.511 1.063-2.154 0.159-0.642 0.53-1.542 0.826-1.999s0.724-1.897 0.952-3.2 0.633-2.802 0.899-3.33c0.676-1.34 0.676-17.141 0-18.479-0.266-0.528-0.671-2.025-0.899-3.327-0.227-1.302-0.66-2.652-0.961-3s-0.673-1.159-0.826-1.801c-0.153-0.643-0.627-1.612-1.054-2.154-0.426-0.542-0.775-1.197-0.775-1.456 0-0.779-5.646-6.397-8-7.959-1.21-0.803-2.429-1.652-2.709-1.885-0.279-0.234-1.089-0.62-1.8-0.858-0.71-0.239-1.573-0.676-1.917-0.972-0.345-0.296-1.245-0.66-2-0.808-0.756-0.148-2.004-0.584-2.774-0.969-0.868-0.433-2.882-0.803-5.299-0.972-2.145-0.151-4.001-0.437-4.124-0.636-0.523-0.847-77.707-0.441-78.163 0.411m80.07 0.445c4.445 0.453 8.52 1.5 11.756 3.022 1.122 0.527 2.219 0.959 2.438 0.959s0.724 0.36 1.122 0.8 0.938 0.8 1.2 0.8c0.261 0 0.999 0.45 1.638 1 0.639 0.549 1.287 0.999 1.44 1 1.452 2e-3 7.301 7.383 8.513 10.741 0.289 0.803 0.814 1.999 1.165 2.659 0.352 0.66 0.64 1.666 0.642 2.236 1e-3 0.57 0.362 2.444 0.802 4.164 1.098 4.292 1.098 11.612 0 15.8-0.432 1.65-0.789 3.545-0.793 4.211s-0.251 1.566-0.55 2-0.777 1.508-1.063 2.387c-1.969 6.048-8.638 13.187-14.794 15.838-0.55 0.236-1.64 0.761-2.422 1.164-0.783 0.404-2.133 0.863-3 1.021-0.868 0.157-2.103 0.552-2.745 0.877-2.853 1.446-84.141 1.926-85.042 0.502-0.731-1.158-0.5-70.233 0.238-70.971 0.77-0.771 72.099-0.959 79.455-0.21m-229.68 129.38c0 0.919 0.188 1.4 0.548 1.4 0.388 0 0.632 0.848 0.832 2.9 0.157 1.6 0.606 3.438 1.002 4.1 0.394 0.66 0.815 1.979 0.934 2.931s0.48 2.032 0.803 2.4c0.322 0.368 0.71 1.119 0.862 1.669 0.324 1.176 2.26 5.123 3.629 7.4 0.529 0.88 1.223 2.144 1.543 2.808 0.319 0.665 0.956 1.547 1.414 1.962s0.833 0.931 0.833 1.148 0.242 0.594 0.537 0.838c0.296 0.244 1.811 1.978 3.367 3.854 1.557 1.875 4.33 4.657 6.163 6.183s3.603 3.005 3.933 3.288c1.779 1.526 3.091 2.438 3.847 2.674 0.466 0.146 1.169 0.621 1.562 1.055 0.393 0.435 0.933 0.79 1.199 0.79s0.928 0.349 1.47 0.775c0.542 0.427 1.459 0.894 2.037 1.039 0.579 0.146 1.262 0.517 1.518 0.825 0.256 0.309 0.776 0.561 1.156 0.561 0.381 0 1.538 0.45 2.573 1 1.034 0.55 2.283 1 2.775 1 0.491 0 1.607 0.368 2.478 0.817 0.872 0.449 2.726 0.927 4.121 1.061 1.569 0.151 2.615 0.45 2.743 0.783 0.27 0.705 3.056 0.743 2.821 0.039-0.196-0.589-1.793-0.983-4.3-1.061-0.99-0.031-2.522-0.384-3.404-0.785s-2.322-0.862-3.2-1.025-2.157-0.641-2.843-1.063c-0.686-0.421-1.463-0.766-1.725-0.766-0.535 0-5.715-2.412-6.028-2.806-0.11-0.139-0.547-0.381-0.97-0.538-6.886-2.549-22.352-17.99-25.385-25.343-0.292-0.707-0.782-1.494-1.088-1.749-0.306-0.254-0.557-0.76-0.557-1.124s-0.312-1.107-0.694-1.651c-0.748-1.065-2.004-4.279-3.515-8.989-0.85-2.65-1.289-4.712-1.596-7.5-0.292-2.657-1.395-3.368-1.395-0.9m399.04-0.766c-0.134 0.349-0.348 1.654-0.476 2.9-0.129 1.246-0.668 3.573-1.2 5.17-0.531 1.596-0.966 3.251-0.966 3.676s-0.166 0.876-0.369 1.001c-0.204 0.126-0.677 1.171-1.052 2.324-0.375 1.152-0.929 2.379-1.23 2.726-0.302 0.348-0.549 0.898-0.549 1.223s-0.45 1.201-1 1.946-1 1.532-1 1.748c0 1.083-5.787 8.881-9.389 12.652-5.236 5.483-8.851 8.348-16.011 12.693-1.564 0.949-6.585 3.307-7.041 3.307-0.256 0-1.026 0.338-1.712 0.751-0.686 0.414-1.914 0.87-2.73 1.015-0.815 0.145-2.255 0.598-3.2 1.007-0.944 0.408-3.112 0.867-4.817 1.019-2.276 0.203-3.1 0.427-3.1 0.842 0 0.747 2.636 0.771 2.921 0.027 0.128-0.333 1.174-0.632 2.743-0.783 1.395-0.134 3.249-0.612 4.121-1.061 0.871-0.449 1.987-0.817 2.478-0.817 0.492 0 1.741-0.45 2.775-1 1.035-0.55 2.204-1 2.598-1s0.814-0.157 0.932-0.348c0.118-0.192 1.524-1.009 3.124-1.817 1.599-0.808 3.358-1.794 3.908-2.19 0.55-0.397 1.72-1.193 2.6-1.769 0.88-0.575 2.372-1.728 3.316-2.561 0.945-0.833 2.178-1.875 2.742-2.315 1.912-1.492 4.783-4.39 7.133-7.2 1.288-1.54 2.448-2.89 2.577-3s0.76-1.01 1.402-2c0.643-0.99 1.587-2.44 2.099-3.222 0.512-0.781 0.931-1.629 0.931-1.884s0.339-0.785 0.753-1.178c0.415-0.394 0.876-1.289 1.026-1.988 0.15-0.7 0.535-1.49 0.855-1.756s0.78-1.269 1.022-2.228c0.241-0.959 0.585-1.744 0.763-1.744s0.55-1.035 0.826-2.3 0.723-2.66 0.993-3.1 0.682-2.058 0.915-3.596 0.609-2.858 0.835-2.933c0.504-0.168 0.555-2.871 0.055-2.871-0.197 0-0.467 0.285-0.601 0.634" fill="#ac9cbc"/>
<path d="m58.267 0.569c-0.12 0.313-0.634 0.648-1.143 0.746-0.804 0.153-0.778 0.183 0.202 0.231 1.245 0.06 2.674-0.56 2.674-1.16 0-0.608-1.49-0.45-1.733 0.183m281.73-0.183c0 0.6 1.429 1.22 2.674 1.16 0.98-0.048 1.006-0.078 0.202-0.231-0.509-0.098-1.023-0.433-1.143-0.746-0.243-0.633-1.733-0.791-1.733-0.183m-286.3 1.49c0.385 0.1 1.015 0.1 1.4 0 0.385-0.101 0.07-0.183-0.7-0.183s-1.085 0.082-0.7 0.183m291.2 0c0.385 0.1 1.015 0.1 1.4 0 0.385-0.101 0.07-0.183-0.7-0.183s-1.085 0.082-0.7 0.183m-296.5 1.124c-0.58 0.332-0.748 0.572-0.4 0.573 0.33 1e-3 0.949-0.263 1.376-0.586 0.988-0.747 0.339-0.739-0.976 0.013m302.4 0c0.55 0.314 1.27 0.571 1.6 0.57s-6e-3 -0.264-0.746-0.586c-1.703-0.739-2.16-0.731-0.854 0.016m-308.2 2.014c-0.66 0.303-0.919 0.558-0.576 0.568 0.342 0.01 0.972-0.246 1.4-0.569 0.948-0.717 0.745-0.717-0.824 1e-3m314.38-0.036c0.428 0.342 1.058 0.608 1.4 0.59 0.539-0.027 0.542-0.061 0.024-0.254-0.33-0.122-0.96-0.388-1.4-0.59-0.787-0.362-0.788-0.358-0.024 0.254m3.533 1.422c0.56 0.44 1.148 0.8 1.308 0.8s-0.167-0.36-0.726-0.8c-0.56-0.44-1.148-0.8-1.308-0.8s0.167 0.36 0.726 0.8m3.835 1.976c0.52 0.453 1.135 0.824 1.367 0.824 0.492 0 0.468-0.02-1.111-0.945l-1.2-0.702 0.944 0.823m5.223 2.969c0.533 0.656 2.033 1.648 2.033 1.344 0-0.076-0.585-0.567-1.3-1.09-0.804-0.589-1.084-0.686-0.733-0.254m12.433 10.519c0 0.218 0.495 0.833 1.1 1.366l1.1 0.97-1-1.2c-0.55-0.66-1.045-1.275-1.1-1.367-0.055-0.091-0.1 0.012-0.1 0.231m-371.92 10.12c-0.481 0.651-0.875 1.316-0.875 1.478 0 0.161 0.45-0.317 1-1.062s1-1.41 1-1.478c0-0.327-0.325-0.02-1.125 1.062m382.36 4.929c-0.065 0.624 1.099 2.997 1.626 3.315 0.426 0.257 0.443 0.203 0.08-0.251-0.254-0.317-0.734-1.207-1.068-1.977-0.333-0.77-0.62-1.259-0.638-1.087m-386.13 2.101c-0.999 1.336-0.869 1.709 0.146 0.419 0.465-0.591 0.78-1.138 0.7-1.215s-0.461 0.282-0.846 0.796m388.31 3.091c0.218 1.138 1.79 4.018 1.793 3.284 0-0.226-0.243-0.766-0.541-1.2-0.297-0.434-0.749-1.329-1.002-1.989-0.449-1.169-0.455-1.171-0.25-0.095m-391.7 6.179c-0.273 0.582-0.422 1.131-0.332 1.221 0.24 0.241 1.101-1.487 0.954-1.914-0.069-0.201-0.349 0.111-0.622 0.693m393.52-0.484c0 0.22 0.258 0.85 0.572 1.4s0.572 0.82 0.572 0.6-0.258-0.85-0.572-1.4-0.572-0.82-0.572-0.6m-394.73 6c4e-3 0.88 0.086 1.193 0.182 0.695 0.096-0.497 0.092-1.217-8e-3 -1.6-0.1-0.382-0.179 0.025-0.174 0.905m396.4 0c4e-3 0.88 0.086 1.193 0.182 0.695 0.096-0.497 0.092-1.217-8e-3 -1.6-0.1-0.382-0.179 0.025-0.174 0.905m-396.9 2.933c0 0.504-0.251 0.867-0.6 0.867-0.33 0-0.6 0.27-0.6 0.6s0.256 0.6 0.568 0.6c0.577 0 1.306-2.259 0.87-2.695-0.131-0.131-0.238 0.152-0.238 0.628m397.24 0.467c-0.054 1.388 0.714 4 1.176 4 0.528 0 0.481-1.9-0.051-2.077-0.238-0.08-0.58-0.77-0.759-1.534-0.263-1.117-0.335-1.193-0.366-0.389m-165.73 29.893c0.94 0.085 2.38 0.084 3.2-2e-3 0.819-0.086 0.049-0.155-1.711-0.154-1.76 2e-3 -2.43 0.072-1.489 0.156m6.689 0.683c2.429 0.715 2.454 0.718 1.98 0.244-0.209-0.208-1.19-0.481-2.18-0.606l-1.8-0.228 2 0.59m8.544 1.833c2.216 1.005 2.583 1.002 1.056-9e-3 -0.66-0.437-1.56-0.792-2-0.789-0.49 4e-3 -0.124 0.314 0.944 0.798m6.656 1.991c0.66 0.437 1.38 0.795 1.6 0.796 0.22 0-0.189-0.358-0.91-0.797-1.698-1.036-2.254-1.035-0.69 1e-3m14.503 7.1c0.518 0.495 1.157 0.895 1.419 0.888 0.263-7e-3 0.118-0.212-0.322-0.456s-1.079-0.644-1.42-0.888c-0.34-0.244-0.195-0.039 0.323 0.456m13.683 13.273c0.441 0.865 0.975 1.679 1.185 1.809 0.211 0.13-0.072-0.577-0.628-1.573-1.242-2.222-1.661-2.4-0.557-0.236m3.615 6.638c0 0.226 0.255 0.776 0.568 1.223 0.312 0.446 0.762 1.431 0.998 2.189l0.43 1.377-0.181-1.261c-0.172-1.201-1.811-4.388-1.815-3.528m-67.089 2.484c1.052 0.082 2.672 0.081 3.6-3e-3s0.068-0.151-1.912-0.15-2.74 0.07-1.688 0.153m9.264 1.118c0.428 0.323 1.148 0.566 1.6 0.541 0.804-0.046 0.804-0.051 0.024-0.239-0.44-0.106-0.971-0.355-1.18-0.554-0.209-0.198-0.569-0.355-0.8-0.348s-0.071 0.277 0.356 0.6m-78.883 31.063c-0.051 16.872 0.042 30.76 0.207 30.862 0.272 0.169 0.269-21.875-7e-3 -50.538-0.059-6.05-0.148 2.804-0.2 19.676m83.817-29.675c1.698 1.036 2.254 1.035 0.69-1e-3 -0.66-0.437-1.38-0.795-1.6-0.796-0.22 0 0.189 0.358 0.91 0.797m6.903 3.499c6e-3 0.165 0.501 0.646 1.1 1.068l1.087 0.768-0.97-1.068c-1.019-1.122-1.238-1.261-1.217-0.768m50.222 5.5c0.157 0.66 0.431 1.92 0.609 2.8 0.294 1.455 0.308 1.41 0.158-0.502-0.091-1.157-0.365-2.417-0.609-2.8-0.357-0.562-0.388-0.464-0.158 0.502m-41.742 9.4c0 0.77 0.082 1.085 0.183 0.7 0.1-0.385 0.1-1.015 0-1.4-0.101-0.385-0.183-0.07-0.183 0.7m0.387 2.8c0 0.55 0.144 1.45 0.32 2l0.32 1v-1c0-0.55-0.144-1.45-0.32-2l-0.32-1v1m0.84 5.2c0 1.21 0.075 1.705 0.167 1.1 0.091-0.605 0.091-1.595 0-2.2-0.092-0.605-0.167-0.11-0.167 1.1m0 4.4c0 1.21 0.075 1.705 0.167 1.1 0.091-0.605 0.091-1.595 0-2.2-0.092-0.605-0.167-0.11-0.167 1.1m41.01-0.8c-0.136 0.77-0.357 1.85-0.492 2.4-0.165 0.67-0.04 0.555 0.38-0.35 0.344-0.743 0.565-1.823 0.492-2.4-0.12-0.941-0.16-0.905-0.38 0.35m-41.73 4.4c-0.152 0.691-0.193 1.341-0.091 1.442 0.102 0.102 0.3-0.389 0.441-1.092 0.333-1.667 0.01-1.99-0.35-0.35m40.2 2.553c0 0.378-0.298 1.263-0.662 1.967-0.587 1.136-0.59 1.22-0.026 0.752 0.678-0.562 1.324-2.77 0.926-3.167-0.131-0.131-0.238 0.071-0.238 0.448m-2.521 7.021c-0.373 0.632-0.678 1.302-0.678 1.488 1e-3 0.186 0.371-0.267 0.822-1.007s0.756-1.409 0.678-1.488c-0.079-0.078-0.449 0.375-0.822 1.007m-40.247 0.064c-0.018 0.351-0.392 0.964-0.832 1.362s-0.8 0.89-0.8 1.093c0 0.202 0.465-0.185 1.034-0.86 0.569-0.676 0.943-1.455 0.832-1.731-0.133-0.328-0.214-0.28-0.234 0.136m36.487 6.999c-0.396 0.57-1.034 1.33-1.419 1.689-0.385 0.358-0.7 0.805-0.7 0.991 0 0.187 0.296 0.044 0.658-0.317 0.782-0.783 2.591-3.4 2.349-3.4-0.093 0-0.493 0.467-0.888 1.037m-43.232 1.663c-0.957 0.935-0.973 0.981-0.106 0.306 1.707-1.33 1.788-1.406 1.505-1.406-0.15 0-0.78 0.495-1.399 1.1m-3.409 2.313c-1.472 1.294-0.945 1.283 0.595-0.013 0.654-0.55 1.04-0.994 0.858-0.987s-0.836 0.457-1.453 1m-7.254 3.6c-0.428 0.323-0.597 0.587-0.377 0.587s0.749-0.264 1.177-0.587c0.427-0.323 0.596-0.588 0.376-0.588s-0.749 0.265-1.176 0.588m-3.724 0.863c0.385 0.1 1.015 0.1 1.4 0 0.385-0.101 0.07-0.183-0.7-0.183s-1.085 0.082-0.7 0.183m48.3 1.781l-2.2 2.032 2.099-1.681c1.84-1.474 2.814-2.435 2.425-2.395-0.068 7e-3 -1.114 0.927-2.324 2.044m-53-1.048c-1.193 0.307-1.597 0.523-1 0.535 0.55 0.011 1.9-0.229 3-0.535 2.511-0.697 0.713-0.697-2 0m42.233 11.937c0.807 0.705 2.119 1.127 1.618 0.519-0.302-0.366-0.827-0.665-1.167-0.665-0.339 0-0.542 0.066-0.451 0.146m5.367 2.254c1.999 1.019 2.339 1.019 0.8 0-0.66-0.437-1.463-0.796-1.785-0.797-0.321-2e-3 0.122 0.357 0.985 0.797m2.978 1.241c0.539 0.215 1.177 0.519 1.419 0.675 0.243 0.156 0.097-0.031-0.322-0.416-0.42-0.385-1.059-0.689-1.419-0.675-0.415 0.016-0.296 0.169 0.322 0.416m6.055 3.259c0.092 0.055 0.702 0.55 1.355 1.1 0.885 0.745 1.038 0.796 0.6 0.2-0.694-0.944-1.249-1.385-1.755-1.394-0.201-3e-3 -0.291 0.039-0.2 0.094m6.767 5.541c1.43 1.407 2.685 2.504 2.788 2.437 0.257-0.165-3.591-3.974-4.588-4.541-0.44-0.251 0.37 0.696 1.8 2.104m-115.1 6.659c9.625 0.06 25.375 0.06 35 0s1.75-0.109-17.5-0.109-27.125 0.049-17.5 0.109m-19.116 0.527c-0.424 0.686-0.045 0.753 0.793 0.14 0.649-0.474 0.669-0.567 0.123-0.567-0.359 0-0.771 0.192-0.916 0.427m75.716-0.145c0.495 0.096 1.305 0.096 1.8 0 0.495-0.095 0.09-0.173-0.9-0.173s-1.395 0.078-0.9 0.173m5.8 0.394c0.385 0.1 1.015 0.1 1.4 0 0.385-0.101 0.07-0.183-0.7-0.183s-1.085 0.082-0.7 0.183m3.676 0.737c0.428 0.323 1.058 0.586 1.4 0.585 0.343-2e-3 0.108-0.272-0.522-0.6-1.45-0.757-1.888-0.749-0.878 0.015m2.657 0.731c0.092 0.079 0.707 0.264 1.367 0.412 0.876 0.196 1.038 0.159 0.6-0.138-0.54-0.365-2.368-0.62-1.967-0.274m-87.842 33.656c0 18.26 0.049 25.788 0.109 16.73 0.06-9.059 0.06-23.999 0-33.2-0.06-9.202-0.109-1.79-0.109 16.47m93.042-31.679c0.092 0.067 0.707 0.437 1.367 0.824l1.2 0.702-0.944-0.823c-0.52-0.453-1.135-0.824-1.367-0.824s-0.347 0.054-0.256 0.121m14.367 15.014c0 0.644 1.205 2.993 1.423 2.775 0.091-0.091-0.192-0.865-0.629-1.722-0.437-0.856-0.794-1.33-0.794-1.053m41.832 1.265c0.384 1.452 0.944 2.403 0.942 1.6-1e-3 -0.33-0.273-1.05-0.605-1.6l-0.602-1 0.265 1m1.082 4.6c3e-3 1.1 0.081 1.503 0.173 0.895 0.092-0.609 0.09-1.509-5e-3 -2-0.095-0.492-0.171 5e-3 -0.168 1.105m-40.869 1.6c-5e-3 0.44 0.24 1.7 0.546 2.8 0.305 1.1 0.559 1.64 0.564 1.2s-0.24-1.7-0.546-2.8c-0.305-1.1-0.559-1.64-0.564-1.2m41.887 6.2c0.35 3.392 0.344 11.654-0.01 14.2-0.235 1.697-0.207 1.849 0.189 1 0.597-1.284 0.583-14.918-0.017-16.6-0.347-0.971-0.378-0.703-0.162 1.4m-40.59 2.6c-1e-3 1.98 0.066 2.84 0.15 1.912s0.085-2.548 3e-3 -3.6c-0.083-1.052-0.152-0.292-0.153 1.688m-0.942 6.6c-0.282 1.331-0.424 2.51-0.314 2.62s0.432-0.889 0.714-2.22 0.424-2.51 0.314-2.62-0.432 0.889-0.714 2.22m-1.502 7.3c-0.399 0.499-1.166 2.68-0.809 2.3 0.281-0.299 1.469-2.8 1.329-2.8-0.066 0-0.3 0.225-0.52 0.5m42.003 4.1c4e-3 0.88 0.086 1.193 0.182 0.695 0.096-0.497 0.092-1.217-8e-3 -1.6-0.1-0.382-0.179 0.025-0.174 0.905m-44.329 1.187c-0.356 0.543-0.585 1.149-0.51 1.347 0.076 0.198 0.43-0.246 0.787-0.987 0.765-1.585 0.635-1.753-0.277-0.36m43.743 1.623c-0.123 0.435-0.346 1.15-0.495 1.59s0.022 0.294 0.38-0.324 0.581-1.334 0.495-1.59c-0.085-0.256-0.256-0.11-0.38 0.324m-48.94 5.49l-1.175 1.3 1.3-1.175c0.715-0.646 1.3-1.231 1.3-1.3 0-0.309-0.33-0.037-1.425 1.175m-7.031 5.123c-0.894 0.779-0.898 0.8-0.066 0.397 0.482-0.233 0.988-0.603 1.123-0.822 0.394-0.636-0.038-0.463-1.057 0.425m52.902 0.228c-0.025 0.468-0.316 1.075-0.646 1.349s-0.6 0.68-0.6 0.903 0.373-0.07 0.829-0.649c0.456-0.58 0.747-1.369 0.647-1.754-0.145-0.556-0.193-0.524-0.23 0.151m-62.004 2.983c-1.579 0.632-0.738 0.775 0.973 0.166 0.872-0.311 1.225-0.561 0.785-0.557s-1.231 0.18-1.758 0.391m-85.242 0.323c0 0.507 1.577 1.399 1.901 1.075 0.128-0.127 0.035-0.232-0.206-0.232s-0.721-0.283-1.066-0.629c-0.346-0.345-0.629-0.442-0.629-0.214m75.513 1.138c1.163 0.081 2.963 0.081 4-2e-3 1.038-0.082 0.087-0.148-2.113-0.147s-3.049 0.068-1.887 0.149m67.387 3.321c-1.263 1.559-1.129 1.917 0.15 0.398 0.577-0.686 0.982-1.306 0.9-1.378-0.083-0.072-0.555 0.369-1.05 0.98m-2.745 3.865c-0.848 1.035-1.333 1.753-1.078 1.595 0.544-0.336 3.078-3.476 2.805-3.476-0.102 0-0.879 0.847-1.727 1.881m-4.167 4.819l-2.588 2.7 2.7-2.588c1.485-1.424 2.7-2.639 2.7-2.7 0-0.295-0.407 0.08-2.812 2.588m-4.188 3.531c-0.66 0.553-1.62 1.357-2.134 1.787s-0.784 0.778-0.6 0.774c0.184-5e-3 1.234-0.808 2.334-1.785 2.122-1.885 2.425-2.473 0.4-0.776m-10.159 6.803c-0.748 0.531-1.188 0.966-0.978 0.966s0.992-0.45 1.737-1c1.735-1.28 1.047-1.249-0.759 0.034m-12.441 5.627c-0.551 0.291-0.731 0.527-0.4 0.527 0.69 0 1.87-0.668 1.588-0.899-0.103-0.085-0.638 0.082-1.188 0.372m-10.504 2.776c-0.13 0.13-0.925 0.482-1.766 0.782-1.257 0.449-1.352 0.549-0.53 0.561 0.55 8e-3 1.54-0.343 2.2-0.78s1.005-0.796 0.767-0.797c-0.239-2e-3 -0.54 0.104-0.671 0.234m-9.99 1.991c-0.125 0.125-1.1 0.389-2.167 0.586l-1.939 0.359 2.102-0.168c2.026-0.162 4.341-0.964 2.865-0.993-0.349-7e-3 -0.736 0.09-0.861 0.216m-10.591 1.268c1.273 0.08 3.253 0.079 4.4-2e-3 1.147-0.08 0.105-0.145-2.315-0.144s-3.358 0.066-2.085 0.146m-90.815 0.404c15.345 0.058 40.455 0.058 55.8 0s2.79-0.106-27.9-0.106-43.245 0.048-27.9 0.106m-136.9 20.1c0 0.444 0.267 0.8 0.6 0.8 0.38 0 0.612 0.403 0.632 1.1 0.017 0.605 0.125 0.865 0.24 0.579 0.368-0.918-0.273-3.279-0.89-3.279-0.32 0-0.582 0.36-0.582 0.8m398.84 0.46c-0.241 0.693-0.421 1.728-0.398 2.3 0.035 0.886 0.089 0.834 0.368-0.349 0.179-0.764 0.521-1.454 0.759-1.534 0.52-0.173 0.584-1.677 0.071-1.677-0.198 0-0.558 0.567-0.8 1.26m-397.15 4.34c0 0.77 0.082 1.085 0.183 0.7 0.1-0.385 0.1-1.015 0-1.4-0.101-0.385-0.183-0.07-0.183 0.7m396.41 1c4e-3 0.88 0.086 1.193 0.182 0.695 0.096-0.497 0.092-1.217-8e-3 -1.6-0.1-0.382-0.179 0.025-0.174 0.905m-395.38 4.4c0.202 0.44 0.468 1.07 0.59 1.4 0.193 0.518 0.227 0.515 0.254-0.024 0.018-0.342-0.248-0.972-0.59-1.4-0.612-0.764-0.616-0.763-0.254 0.024m394.11 0.139c-0.237 0.445-0.425 1.045-0.416 1.335 9e-3 0.289 0.293 0.015 0.631-0.609 0.339-0.625 0.526-1.225 0.417-1.335-0.11-0.109-0.394 0.165-0.632 0.609m-1.353 4.835c-0.373 0.632-0.678 1.302-0.678 1.488 1e-3 0.186 0.371-0.267 0.822-1.007s0.756-1.409 0.678-1.488c-0.079-0.078-0.449 0.375-0.822 1.007m-389.88 3.809c0 0.16 0.36 0.748 0.8 1.308 0.44 0.559 0.8 0.886 0.8 0.726s-0.36-0.748-0.8-1.308c-0.44-0.559-0.8-0.886-0.8-0.726m384.69 7.12l-0.706 1.297 0.806-0.944c0.686-0.804 1.052-1.662 0.706-1.653-0.055 1e-3 -0.418 0.586-0.806 1.3m-377.88 4.86c0.674 0.999 1.398 1.923 1.608 2.053 0.211 0.13-0.168-0.581-0.842-1.579-0.674-0.999-1.398-1.923-1.608-2.053-0.211-0.13 0.168 0.581 0.842 1.579m375.41-1.134c-0.346 0.345-0.629 0.825-0.629 1.066s0.047 0.363 0.104 0.272c0.058-0.092 0.446-0.572 0.862-1.067 0.862-1.024 0.614-1.223-0.337-0.271m-368.24 9.493c1.203 1.253 2.26 2.278 2.349 2.278 0.385 0-2.415-2.956-3.769-3.978-0.421-0.318 0.218 0.447 1.42 1.7m361.19-0.622l-1.378 1.5 1.5-1.378c1.396-1.284 1.684-1.622 1.378-1.622-0.066 0-0.741 0.675-1.5 1.5m-7.578 6.506c0 0.224-0.622 0.704-1.382 1.066-0.761 0.363-1.47 0.886-1.576 1.164-0.107 0.278 0.6-0.032 1.571-0.687 1.871-1.262 2.509-1.949 1.811-1.949-0.233 0-0.424 0.183-0.424 0.406m-339.57 4.915c0.092 0.067 0.707 0.437 1.367 0.824l1.2 0.702-0.944-0.823c-0.52-0.453-1.135-0.824-1.367-0.824s-0.347 0.054-0.256 0.121m4 2c0.092 0.067 0.707 0.437 1.367 0.824l1.2 0.702-0.944-0.823c-0.52-0.453-1.135-0.824-1.367-0.824s-0.347 0.054-0.256 0.121m322.97 0.679c-0.66 0.437-1.02 0.795-0.8 0.795s0.94-0.358 1.6-0.795 1.02-0.795 0.8-0.795-0.94 0.358-1.6 0.795m-317.2 2c0.66 0.437 1.38 0.795 1.6 0.796 0.22 0-0.189-0.358-0.91-0.797-1.698-1.036-2.254-1.035-0.69 1e-3m312.4 0.027c-0.66 0.423-1.02 0.769-0.8 0.768 0.22 0 0.94-0.358 1.6-0.795s1.02-0.783 0.8-0.768-0.94 0.372-1.6 0.795m-308.6 1.059c0.33 0.122 0.96 0.388 1.4 0.59 0.787 0.362 0.788 0.358 0.024-0.254-0.428-0.342-1.058-0.608-1.4-0.59-0.539 0.027-0.542 0.061-0.024 0.254m304.18 0.336c-0.764 0.612-0.763 0.616 0.024 0.254 0.44-0.202 1.07-0.468 1.4-0.59 0.518-0.193 0.515-0.227-0.024-0.254-0.342-0.018-0.972 0.248-1.4 0.59m-299.07 1.261c0.497 0.096 1.217 0.092 1.6-8e-3 0.382-0.1-0.025-0.179-0.905-0.174-0.88 4e-3 -1.193 0.086-0.695 0.182m294 0c0.497 0.096 1.217 0.092 1.6-8e-3 0.382-0.1-0.025-0.179-0.905-0.174-0.88 4e-3 -1.193 0.086-0.695 0.182m-289.78 0.406c0.618 0.093 1.222 0.426 1.342 0.74 0.25 0.651 1.334 0.782 1.334 0.161 0-0.521-1.781-1.209-2.926-1.13-0.647 0.044-0.582 0.104 0.25 0.229m285.18 0.123c-0.495 0.199-0.9 0.548-0.9 0.775 0 0.624 1.083 0.495 1.334-0.158 0.12-0.314 0.724-0.647 1.342-0.74 1.027-0.155 1.037-0.172 0.124-0.204-0.55-0.019-1.405 0.128-1.9 0.327" fill="#8c81a3"/>
<path d="m57.044 0.629c-0.168 0.439-0.04 0.59 0.424 0.5 0.366-0.071 0.741-0.354 0.832-0.629 0.245-0.735-0.972-0.61-1.256 0.129m284.66-0.129c0.091 0.275 0.466 0.558 0.832 0.629 0.464 0.09 0.592-0.061 0.424-0.5-0.284-0.739-1.501-0.864-1.256-0.129m-341.7 56.5c0 0.33 0.27 0.6 0.6 0.6s0.6-0.27 0.6-0.6-0.27-0.6-0.6-0.6-0.6 0.27-0.6 0.6m398.8 0.539c0 0.717 0.479 1.661 0.843 1.661 0.554 0 0.422-0.793-0.243-1.457-0.33-0.33-0.6-0.422-0.6-0.204m-171.9 29.552c0.825 0.087 2.175 0.087 3 0 0.825-0.086 0.15-0.157-1.5-0.157s-2.325 0.071-1.5 0.157m-58.97 33.609c9.311 0.06 24.431 0.06 33.6 0 9.168-0.06 1.55-0.109-16.93-0.109s-25.982 0.049-16.67 0.109m123.37 17.5c4e-3 0.88 0.086 1.193 0.182 0.695 0.096-0.497 0.092-1.217-8e-3 -1.6-0.1-0.382-0.179 0.025-0.174 0.905m-141.36 46.302c0.166 0.166 15.952 0.256 35.08 0.2l34.778-0.102-35.08-0.2c-19.294-0.11-34.944-0.064-34.778 0.102m135.26 24.498c0.746 0.77 1.447 1.4 1.557 1.4s-0.411-0.63-1.157-1.4-1.447-1.4-1.557-1.4 0.411 0.63 1.157 1.4m-62.3 5.691c0.825 0.087 2.175 0.087 3 0 0.825-0.086 0.15-0.157-1.5-0.157s-2.325 0.071-1.5 0.157m6.205 0.392c0.497 0.096 1.217 0.092 1.6-8e-3 0.382-0.1-0.025-0.179-0.905-0.174-0.88 4e-3 -1.193 0.086-0.695 0.182m-79.314 35.117c0 19.14 0.049 27.029 0.109 17.53 0.06-9.498 0.06-25.158 0-34.8-0.06-9.641-0.109-1.87-0.109 17.27m103.79-23.5c0.743 0.935 1.423 1.7 1.511 1.7 0.283 0-1.431-2.251-2.159-2.836-0.387-0.31-0.095 0.201 0.648 1.136m7.31 18.9c0 0.77 0.082 1.085 0.183 0.7 0.1-0.385 0.1-1.015 0-1.4-0.101-0.385-0.183-0.07-0.183 0.7m40.86 9.4c0 2.64 0.065 3.668 0.144 2.284 0.078-1.383 0.077-3.543-2e-3 -4.8-0.079-1.256-0.143-0.124-0.142 2.516m-131.85 31.7c10.175 0.059 26.825 0.059 37 0 10.175-0.06 1.85-0.108-18.5-0.108s-28.675 0.048-18.5 0.108m113.88 13l-1.175 1.3 1.3-1.175c0.715-0.646 1.3-1.231 1.3-1.3 0-0.309-0.33-0.037-1.425 1.175m-30.375 16.114c-0.66 0.303-0.919 0.558-0.576 0.568 0.342 0.01 0.972-0.246 1.4-0.569 0.948-0.717 0.745-0.717-0.824 1e-3m-16.8 3.386c-0.504 0.217-0.578 0.344-0.2 0.344 0.33 0 0.96-0.155 1.4-0.344 0.504-0.217 0.578-0.344 0.2-0.344-0.33 0-0.96 0.155-1.4 0.344m-14.1 1.087c0.605 0.091 1.595 0.091 2.2 0 0.605-0.092 0.11-0.167-1.1-0.167s-1.705 0.075-1.1 0.167m-222.5 21.913c0 0.33 0.27 0.6 0.6 0.6s0.6-0.27 0.6-0.6-0.27-0.6-0.6-0.6-0.6 0.27-0.6 0.6m399.04 0.033c-0.42 1.093-0.266 1.447 0.357 0.824 0.33-0.33 0.6-0.793 0.6-1.028 0-0.656-0.683-0.51-0.957 0.204m-342.4 57.138c0.284 0.739 1.501 0.864 1.256 0.129-0.091-0.275-0.466-0.558-0.832-0.629-0.464-0.09-0.592 0.061-0.424 0.5m285.62-0.304c-0.461 0.46-0.292 0.933 0.333 0.933 0.33 0 0.6-0.27 0.6-0.6 0-0.625-0.473-0.794-0.933-0.333" fill="#a494b4"/>
<path d="m59.766 0.681c-0.311 0.493-1.473 0.82-4.198 1.183l-3.768 0.501 4.2-0.16c4.682-0.178 7.2-0.746 7.2-1.624 0-0.865-2.878-0.781-3.434 0.1m277.03-0.33c0 1.136 4.039 2.078 8.573 2l2.827-0.048-3.744-0.468c-2.677-0.334-3.886-0.662-4.244-1.151-0.521-0.712-3.412-0.994-3.412-0.333m-287.43 2.615c-0.445 0.311-1.34 0.644-1.989 0.74-0.965 0.142-0.881 0.185 0.457 0.234 1.129 0.041 1.925-0.189 2.561-0.74 1.081-0.938 0.246-1.128-1.029-0.234m300.03 0.096c0.401 0.401 1.477 0.71 2.728 0.784 1.754 0.104 1.855 0.076 0.667-0.188-0.77-0.17-1.793-0.523-2.274-0.784-1.27-0.689-1.894-0.584-1.121 0.188m-305.6 1.738c-1.111 0.736-1.133 0.795-0.3 0.797 0.495 2e-3 0.9-0.183 0.9-0.41s0.405-0.576 0.9-0.775c0.508-0.204 0.639-0.371 0.3-0.384-0.33-0.013-1.14 0.335-1.8 0.772m311-0.51c0.33 0.125 0.744 0.471 0.92 0.769 0.176 0.297 0.716 0.54 1.2 0.538 0.8-2e-3 0.771-0.074-0.32-0.797-0.66-0.437-1.47-0.782-1.8-0.766-0.533 0.026-0.533 0.054 0 0.256m-314.8 1.899c-0.55 0.317-1.45 0.764-2 0.994-0.55 0.229-1.27 0.6-1.6 0.825-0.33 0.224-1.211 0.688-1.958 1.03s-1.615 0.878-1.929 1.192c-0.314 0.313-0.756 0.57-0.984 0.57-0.227 0-0.948 0.45-1.602 1s-1.438 1-1.744 1c-0.305 0-0.748 0.36-0.983 0.8s-0.604 0.8-0.818 0.8c-0.435 0-2.712 2.045-6.823 6.13-3.144 3.124-4.776 5.205-3.784 4.824 0.344-0.132 0.625-0.484 0.625-0.783 0-0.298 0.348-0.729 0.773-0.957 0.425-0.227 0.887-0.773 1.027-1.214 0.14-0.44 0.405-0.8 0.59-0.8s1.506-1.17 2.936-2.6 2.784-2.6 3.01-2.6 0.524-0.36 0.664-0.8 0.595-0.8 1.013-0.8c0.417 0 0.94-0.339 1.162-0.754s0.853-0.867 1.403-1.005c0.549-0.138 1.19-0.608 1.425-1.046 0.234-0.437 0.779-0.795 1.211-0.795s1.141-0.355 1.576-0.79c0.434-0.434 1.259-0.907 1.832-1.051s1.133-0.498 1.244-0.786c0.11-0.288 0.771-0.645 1.467-0.793 0.697-0.148 1.563-0.529 1.924-0.848 0.361-0.318 1.171-0.732 1.8-0.921 0.814-0.244 0.913-0.35 0.343-0.371-0.44-0.015-1.25 0.231-1.8 0.549m318.6-0.303c0.44 0.107 1.16 0.512 1.6 0.901 0.44 0.39 1.329 0.834 1.975 0.987 0.647 0.153 1.367 0.527 1.6 0.831 0.234 0.303 0.965 0.655 1.625 0.782 1.146 0.221 1.155 0.212 0.208-0.199-0.545-0.237-1.265-0.669-1.6-0.962-0.334-0.292-1.058-0.667-1.608-0.834-0.55-0.166-1.429-0.637-1.954-1.047s-1.335-0.724-1.8-0.699c-0.807 0.045-0.809 0.056-0.046 0.24m8.2 4.034c0 0.561 0.936 1.28 1.666 1.28 0.388 0 0.899 0.36 1.134 0.8s0.666 0.8 0.956 0.8 1.013 0.45 1.606 1c0.594 0.55 1.328 1 1.632 1 0.303 0 0.666 0.36 0.806 0.8s0.479 0.8 0.755 0.8c0.275 0 0.892 0.45 1.37 1s1.051 1 1.272 1c0.222 0 0.403 0.241 0.403 0.536 0 0.294 0.495 0.757 1.1 1.028 0.797 0.357 0.494-0.069-1.1-1.546-1.21-1.121-2.665-2.484-3.233-3.028-0.569-0.545-1.184-0.99-1.367-0.99s-0.618-0.275-0.966-0.611c-0.907-0.875-3.279-2.5-4.334-2.969-0.495-0.22-0.9-0.585-0.9-0.81 0-0.226-0.18-0.41-0.4-0.41s-0.4 0.144-0.4 0.32m13.6 11.293c0 0.213 0.241 0.387 0.536 0.387 0.294 0 0.741 0.45 0.991 1 0.251 0.55 0.645 1 0.876 1 0.528 0-1.132-2.287-1.864-2.568-0.296-0.114-0.539-0.033-0.539 0.181m3.2 3.424c0 0.351 0.36 0.732 0.8 0.847s0.8 0.517 0.8 0.893 0.45 1.106 1 1.623 1 1.168 1 1.447 0.334 0.743 0.743 1.03c0.408 0.288 0.863 0.907 1.011 1.375 0.149 0.469 0.624 1.262 1.058 1.762 0.433 0.499 0.788 1.213 0.788 1.585s0.36 1.003 0.8 1.401 0.8 0.527 0.8 0.286c0-0.242-0.175-0.547-0.389-0.679-0.213-0.132-0.752-0.998-1.197-1.924-0.807-1.679-1.149-2.228-3.414-5.476-0.66-0.947-1.38-2.014-1.6-2.372-0.843-1.369-2.2-2.479-2.2-1.798m-369.15 1.443c-0.025 0.374-0.36 0.856-0.743 1.07-0.383 0.215-0.595 0.492-0.47 0.616 0.465 0.465 1.651-0.831 1.457-1.592-0.159-0.623-0.206-0.641-0.244-0.094m-2.378 3.514c-0.626 0.847-0.7 1.117-0.261 0.948 0.634-0.243 1.583-1.686 1.297-1.971-0.088-0.089-0.555 0.372-1.036 1.023m-1.817 2.659c-0.746 1.024-0.746 1.026 0.1 0.573 0.467-0.25 0.849-0.718 0.849-1.04 0-0.774-0.069-0.74-0.949 0.467m-1.051 1.885c0 0.296-0.36 0.864-0.8 1.262s-0.8 0.966-0.8 1.262c0 0.846 1.538-0.875 1.833-2.052 0.14-0.555 0.144-1.01 0.01-1.01-0.133 0-0.243 0.242-0.243 0.538m-1.954 3.799c-0.025 0.295-0.406 0.994-0.846 1.554-0.44 0.559-0.801 1.398-0.803 1.863-1e-3 0.465-0.36 1.386-0.797 2.046-1.008 1.522-1.025 2.041-0.035 1.116 0.42-0.394 0.893-1.436 1.049-2.316 0.157-0.88 0.639-1.989 1.072-2.464 0.432-0.476 0.701-1.196 0.597-1.6-0.105-0.405-0.211-0.494-0.237-0.199m385.17 0.285c-9e-3 0.453 0.434 1.433 0.984 2.178 0.64 0.867 1 1.12 1 0.701 0-0.359-0.198-0.776-0.44-0.925-0.241-0.15-0.684-0.835-0.984-1.524-0.419-0.962-0.548-1.062-0.56-0.43m1.986 4.982c-1e-3 0.589 0.346 1.221 0.84 1.529 0.463 0.289 0.722 0.332 0.576 0.095-0.147-0.236-0.525-0.925-0.84-1.529l-0.573-1.099-3e-3 1.004m1.793 4.559c0.096 1.419 0.409 2.612 0.783 2.986 0.769 0.769 0.853 0.021 0.144-1.275-0.263-0.481-0.615-1.594-0.783-2.474-0.247-1.298-0.275-1.154-0.144 0.763m-392.55-0.739c-0.025 0.672-0.31 1.572-0.633 2-0.811 1.072-0.828 2.052-0.024 1.385 0.67-0.556 1.18-2.762 0.894-3.869-0.117-0.455-0.208-0.269-0.237 0.484m-1.791 7.276c-0.337 3.506-0.624 4.5-1.302 4.5-0.348 0-0.553 0.445-0.553 1.2 0 1.626 0.989 1.564 1.597-0.1 0.48-1.313 1.083-8.3 0.716-8.3-0.109 0-0.315 1.215-0.458 2.7m396.01 1.862c0.231 4.982 0.812 7.864 1.643 8.141 0.335 0.112 0.491-0.356 0.491-1.47 0-0.898-0.168-1.633-0.373-1.633-0.553 0-0.895-1.351-1.467-5.8l-0.514-4 0.22 4.762m-289.6 30.505c-0.574 0.574-0.28 233.48 0.296 234.24 0.587 0.773 107.12 0.8 114.44 0.029 1.818-0.191-21.842-0.286-54.798-0.218-31.898 0.065-58.404 0.017-58.9-0.108l-0.903-0.227 0.1-116.69 0.101-116.69 62.4-0.202 62.4-0.202-62.433-0.098c-34.339-0.054-62.554 0.022-62.7 0.169m130.73 0.602c1.1 0.208 2.171 0.548 2.38 0.755s0.732 0.376 1.161 0.376c0.728 0 0.718-0.055-0.141-0.8-0.704-0.611-1.452-0.789-3.161-0.755l-2.239 0.044 2 0.38m7 1.464c1.21 0.148 2.645 0.583 3.189 0.968 0.544 0.384 1.444 0.678 2 0.653 0.827-0.038 0.866-0.082 0.211-0.242-0.44-0.107-1.125-0.483-1.523-0.836-0.483-0.428-1.61-0.669-3.4-0.726l-2.677-0.085 2.2 0.268m7.356 1.954c0.416 0.106 1.316 0.535 2 0.952s1.68 0.759 2.213 0.76c0.532 0 1.297 0.299 1.7 0.663 0.402 0.364 0.731 0.49 0.731 0.28 0-0.761-0.988-1.342-2.284-1.342-0.829 0-1.58-0.299-2.009-0.8-0.429-0.502-1.136-0.783-1.896-0.754-0.783 0.03-0.944 0.115-0.455 0.241m8.044 3.397c0.66 0.231 1.541 0.712 1.958 1.068 0.719 0.614 0.735 0.603 0.311-0.205-0.499-0.953-1.309-1.362-2.602-1.315-0.705 0.025-0.643 0.11 0.333 0.452m4.6 2.403c0.77 0.486 1.691 1.07 2.046 1.298s1.373 0.815 2.263 1.304c0.889 0.489 1.71 1.119 1.823 1.4 0.14 0.35 0.215 0.313 0.236-0.115 0.018-0.344-0.553-0.935-1.268-1.313-2.73-1.442-3.71-2.084-4.219-2.761-0.29-0.385-0.921-0.699-1.404-0.699-0.746 2e-3 -0.668 0.134 0.523 0.886m7.935 5.413c4.844 4.583 5.512 5.275 8.183 8.478 0.265 0.319 1.078 1.579 1.807 2.8 1.042 1.746 1.271 1.965 1.068 1.022-0.142-0.66-0.603-1.522-1.025-1.916-0.423-0.393-0.768-0.914-0.768-1.157 0-0.244-0.373-0.822-0.829-1.285-0.457-0.463-2.226-2.327-3.932-4.142-1.705-1.815-3.312-3.3-3.57-3.3s-0.469-0.251-0.469-0.557c0-0.307-0.285-0.667-0.633-0.8-1.063-0.408-1.039-0.285 0.168 0.857m11.803 14.431c0.364 0.403 0.662 0.951 0.662 1.219s0.45 1.332 1 2.365c0.9 1.691 1 1.769 1 0.782 0-0.603-0.184-1.097-0.409-1.097-0.446 0-1.002-1.177-1.371-2.9-0.14-0.656-0.499-1.1-0.89-1.1-0.603 0-0.602 0.057 8e-3 0.731m-134.94 4.826c-0.549 0.153-1.025 0.589-1.059 0.968-0.045 0.505-0.011 0.527 0.127 0.083 0.167-0.538 4.59-0.616 38.259-0.678 20.939-0.039 35.911-0.194 33.271-0.346-6.305-0.362-69.307-0.386-70.598-0.027m76.465 1.081c0.351 0.352 1.713 0.765 3.034 0.921 1.399 0.165 2.68 0.565 3.077 0.962 0.373 0.373 1.07 0.679 1.547 0.679 0.622 0 0.335-0.284-1.01-1-1.033-0.55-2.482-1-3.22-1s-1.691-0.264-2.119-0.587c-1.125-0.851-2.166-0.831-1.309 0.025m61.187 0.773c-0.029 0.446 0.232 1.22 0.582 1.719s0.778 1.754 0.953 2.789l0.317 1.881 0.047-2.038c0.036-1.551-0.139-2.206-0.731-2.742-0.427-0.387-0.853-1.09-0.945-1.562-0.158-0.807-0.171-0.81-0.223-0.047m-138.26 29.389c0 16.17 0.049 22.785 0.11 14.7 0.06-8.085 0.06-21.315 0-29.4-0.061-8.085-0.11-1.47-0.11 14.7m86.51-27.188c0.495 0.199 0.9 0.536 0.9 0.748s0.405 0.513 0.9 0.669c0.495 0.155 1.288 0.662 1.762 1.127 0.475 0.464 1.105 1.048 1.4 1.297 0.296 0.249 1.145 1.112 1.887 1.917 0.742 0.806 1.447 1.367 1.567 1.248 0.454-0.455-5.183-5.818-6.115-5.818-0.262 0-0.803-0.36-1.201-0.8s-1.011-0.789-1.362-0.775c-0.415 0.017-0.324 0.152 0.262 0.387m53.706 5.199c3e-3 0.324 0.265 1.309 0.582 2.189 0.892 2.474 0.861 21.162-0.038 23.409-0.789 1.971-0.465 2.561 0.442 0.806 1.001-1.935 0.747-24.537-0.292-26.004-0.431-0.609-0.698-0.762-0.694-0.4m-45.206 2.885c0 0.34 0.26 0.718 0.578 0.84s0.698 0.906 0.845 1.743c0.284 1.617 1.292 3.539 1.663 3.168 0.122-0.122-0.048-0.635-0.379-1.14s-0.727-1.486-0.879-2.18c-0.318-1.446-1.828-3.454-1.828-2.431m3.383 9.904c0.089 2.09 0.386 5.073 0.659 6.628 0.425 2.423 0.4 3.311-0.173 6.2-0.368 1.855-0.65 4.272-0.626 5.372 0.043 1.986 0.047 1.979 0.608-1 1.296-6.887 1.293-8.853-0.029-17.2l-0.602-3.8 0.163 3.8m41.316 17.416c-0.112 0.999-0.514 2.159-0.893 2.577-0.378 0.418-0.594 0.996-0.479 1.284 0.158 0.393 0.218 0.399 0.241 0.023 0.018-0.275 0.392-0.86 0.832-1.3 0.563-0.563 0.8-1.333 0.8-2.6 0-2.313-0.239-2.306-0.501 0.016m-42.372 3.847c-0.37 0.458-0.789 1.517-0.93 2.354-0.141 0.836-0.513 1.619-0.827 1.739-0.313 0.12-0.57 0.432-0.57 0.693 0 0.933 1.556-0.939 1.822-2.19 0.147-0.693 0.535-1.564 0.864-1.936 0.328-0.372 0.533-0.86 0.455-1.085s-0.444-0.033-0.814 0.425m39.685 3.643c-0.543 1.152-1.247 2.41-1.564 2.796-0.317 0.387-0.479 0.8-0.36 0.919 0.353 0.353 1.512-1.018 1.512-1.788 0-0.391 0.36-1.126 0.8-1.633 0.642-0.74 1.133-2.421 0.7-2.394-0.055 4e-3 -0.545 0.949-1.088 2.1m-43.058 2.836c-0.465 0.472-0.972 1.263-1.126 1.758-0.155 0.495-0.521 0.9-0.812 0.9-0.448 0-1.016 0.809-1.016 1.447 0 0.199 1.689-1.569 3.1-3.246 1.387-1.648 1.276-2.301-0.146-0.859m39.982 2.88c-0.62 0.95-0.696 1.261-0.269 1.097 0.527-0.202 1.53-2.078 1.244-2.326-0.061-0.053-0.5 0.5-0.975 1.229m-44.816 2.324c-0.176 0.3-0.905 0.845-1.62 1.21-0.715 0.366-1.3 0.833-1.3 1.039s-0.701 0.563-1.559 0.794c-0.857 0.231-1.662 0.688-1.787 1.015-0.296 0.772 0.305 0.769 0.946-4e-3 0.274-0.33 0.732-0.6 1.018-0.6s1.055-0.45 1.709-1 1.356-1 1.561-1 0.795-0.45 1.312-1 0.737-1 0.49-1c-0.248 0-0.594 0.246-0.77 0.546m42.994 0.404c-2.729 3.38-3.564 4.308-5.514 6.13-1.21 1.13-3.348 2.969-4.751 4.087s-2.267 2.033-1.92 2.033 0.775-0.229 0.951-0.51c0.176-0.28 0.77-0.803 1.32-1.162s1.803-1.389 2.784-2.29 1.905-1.638 2.053-1.638 0.364-0.36 0.479-0.8 0.496-0.8 0.847-0.8c0.35 0 0.637-0.174 0.637-0.386 0-0.213 0.542-0.978 1.205-1.7 2.581-2.813 2.848-3.154 2.723-3.479-0.07-0.184-0.437 0.048-0.814 0.515m-52.314 4.54c-0.33 0.125-0.744 0.471-0.92 0.769-0.176 0.297-0.806 0.562-1.4 0.587-0.782 0.034-0.87 0.101-0.32 0.241 0.418 0.107 1.498-0.163 2.4-0.601 0.902-0.437 1.91-0.891 2.24-1.009 0.341-0.121 0.168-0.214-0.4-0.214-0.55 0-1.27 0.102-1.6 0.227m-79.936 2.145l0.136 0.965 34.013 0.102c32.633 0.098 34.159 0.07 37.6-0.69l3.587-0.792-2.8 0.218c-8.546 0.663-71.318 0.587-71.993-0.088-0.64-0.64-0.672-0.623-0.543 0.285m118.14 6.365c-0.398 0.44-0.996 0.8-1.329 0.8-0.332 0-0.498 0.106-0.368 0.237 0.414 0.413 1.882-0.262 2.311-1.064 0.532-0.994 0.301-0.984-0.614 0.027m-3.5 2.033c-0.567 0.622-0.589 0.767-0.114 0.767 0.322 0 0.779-0.36 1.014-0.8 0.536-1.002 0.028-0.983-0.9 0.033m-2.771 1.272c-0.291 0.277-1.067 0.743-1.725 1.035-1.662 0.737-0.426 1.66 2.223 1.66 1.179 0 2.06 0.223 2.373 0.6 0.274 0.33 0.684 0.6 0.911 0.6s0.087-0.36-0.311-0.8c-0.542-0.599-1.237-0.802-2.762-0.806-2.653-8e-3 -3.529-0.52-1.977-1.154 1.983-0.81 3.218-1.628 2.468-1.634-0.37-3e-3 -0.91 0.221-1.2 0.499m5.743 4.287c0.59 0.178 1.485 0.613 1.989 0.966 1.503 1.052 1.81 0.727 0.339-0.358-0.745-0.55-1.815-0.985-2.378-0.966l-1.022 0.035 1.072 0.323m5.528 2.608c0.745 0.55 1.566 1 1.824 1 0.257 0 0.926 0.36 1.485 0.8 1.293 1.017 1.633 1.017 0.998 0-0.275-0.44-1.099-0.912-1.831-1.05-0.732-0.137-1.542-0.587-1.8-1-0.258-0.412-0.82-0.75-1.25-0.75-0.622 0-0.505 0.204 0.574 1m6.075 3.6c0.478 0.55 1.047 1 1.264 1 0.216 0 0.679 0.25 1.027 0.556 1.49 1.307 6.692 6.629 7.328 7.497 0.381 0.521 1.229 1.638 1.884 2.482s1.3 1.879 1.433 2.3c0.134 0.421 0.397 0.765 0.585 0.765s0.55 0.63 0.804 1.4 0.613 1.4 0.798 1.4c0.184 0 0.516 0.495 0.737 1.1l0.402 1.1 0.031-1.086c0.02-0.678-0.252-1.238-0.722-1.489-0.415-0.222-0.879-0.904-1.032-1.514-0.154-0.611-0.624-1.433-1.046-1.827-0.423-0.393-0.768-0.977-0.768-1.296 0-0.32-0.36-0.806-0.8-1.081s-0.8-0.704-0.8-0.953c0-1.266-8.582-9.727-9.886-9.747-0.267-4e-3 -0.679-0.367-0.914-0.807s-0.601-0.8-0.811-0.8c-0.211 0 8e-3 0.45 0.486 1m-128.21 11.901c-0.637 0.466-0.692 2.966-0.776 35.382l-0.091 34.88 0.919 0.418c1.057 0.482 67.315 0.515 75.881 0.038 2.86-0.159-13.05-0.313-35.356-0.343-22.305-0.03-40.575-0.104-40.6-0.165-0.024-0.061 4e-3 -15.816 0.062-35.011l0.107-34.9 40.093-0.063c22.052-0.035 38.474-0.196 36.494-0.358-6.741-0.551-75.963-0.441-76.733 0.122m82.526 0.595c0.326 0.128 0.816 0.456 1.089 0.729 0.514 0.513 4.413 1.213 4.771 0.856 0.11-0.111-0.576-0.327-1.526-0.48s-2.126-0.531-2.613-0.839c-0.487-0.309-1.207-0.548-1.6-0.53-0.555 0.024-0.582 0.083-0.121 0.264m6.658 2.293c0.125 0.324 0.827 0.702 1.561 0.84 0.735 0.138 1.645 0.592 2.024 1.011 0.378 0.418 1.065 0.754 1.526 0.748 1.026-0.016-1.959-1.983-3.013-1.986-0.358-1e-3 -0.875-0.272-1.149-0.602-0.639-0.77-1.243-0.777-0.949-0.011m6.593 3.311c0.301 0.495 0.679 0.9 0.838 0.9 0.16 0 0.843 0.54 1.518 1.2s1.479 1.2 1.787 1.2c0.307 0 0.673 0.36 0.813 0.8 0.14 0.441 0.602 0.987 1.027 1.214 0.425 0.228 0.773 0.646 0.773 0.93s0.45 0.939 1 1.456 1 1.261 1 1.654 0.336 1.037 0.747 1.43c0.411 0.394 0.877 1.436 1.035 2.316 0.159 0.88 0.633 1.922 1.053 2.316 0.977 0.913 0.968 0.636-0.034-1.006-0.439-0.721-0.799-1.691-0.8-2.156 0-0.465-0.361-1.304-0.801-1.863-0.44-0.56-0.8-1.189-0.8-1.399 0-0.944-4.885-6.435-6.754-7.592-0.575-0.356-1.475-1.019-1.999-1.474l-0.952-0.826 0.549 0.9m48.756 1.953c0 0.156 0.255 0.568 0.566 0.916 0.311 0.347 0.759 1.261 0.995 2.031l0.43 1.4-0.231-1.6c-0.187-1.298-1.76-3.753-1.76-2.747m2 5.323c0 0.207 0.177 0.486 0.394 0.62 0.216 0.134 0.56 0.82 0.764 1.524l0.37 1.28 0.036-1.126c0.02-0.62-0.15-1.475-0.378-1.9-0.43-0.803-1.186-1.056-1.186-0.398m1.632 4.544c-0.018 0.396 0.251 1.267 0.597 1.937 0.347 0.669 0.787 2.685 0.978 4.48l0.349 3.263-0.148-3.935c-0.101-2.679-0.333-4.148-0.726-4.6-0.318-0.366-0.677-0.935-0.798-1.265-0.171-0.465-0.228-0.438-0.252 0.12m-39.837 9.08c0.083 2.09 0.369 4.725 0.636 5.856 0.382 1.617 0.381 2.471-4e-3 4-0.27 1.069-0.557 3.564-0.639 5.544-0.124 3.006-0.095 3.237 0.176 1.4 0.179-1.21 0.53-2.92 0.779-3.8 0.565-1.996 0.578-8.263 0.021-10.4-0.229-0.88-0.574-2.68-0.768-4-0.314-2.149-0.336-2.002-0.201 1.4m41.946 2.3c1.217 5.706 1.353 15.475 0.258 18.42-0.535 1.438-0.276 2.118 0.508 1.333 1.104-1.105 0.573-20.853-0.561-20.853-0.269 0-0.348 0.426-0.205 1.1m-43.012 18.555c-0.369 0.378-0.77 1.555-0.89 2.616l-0.219 1.929 0.4-1.58c0.221-0.869 0.685-1.894 1.031-2.277 0.839-0.927 0.538-1.57-0.322-0.688m42.355 5.115c-0.128 1.523-0.514 3.315-0.858 3.98-0.914 1.767-0.753 2.469 0.218 0.953 0.762-1.19 1.668-7.703 1.071-7.703-0.109 0-0.303 1.246-0.431 2.77m-44.673 0.217c-0.268 0.322-0.425 0.755-0.349 0.963 0.076 0.207 0.461-0.057 0.857-0.587 0.766-1.027 0.312-1.364-0.508-0.376m-1.511 2.941c-0.495 0.549-0.9 1.176-0.9 1.394 0 0.217 0.459-0.1 1.019-0.705 0.561-0.605 0.966-1.233 0.9-1.394-0.065-0.162-0.524 0.155-1.019 0.705m-2.1 2.456c0 0.211-0.9 1.243-2 2.294s-2 2.064-2 2.25c0 0.448 3.049-2.426 4.061-3.828 0.436-0.605 0.601-1.1 0.366-1.1s-0.427 0.173-0.427 0.384m46.464 1.827c-0.035 0.446-0.352 1.223-0.705 1.726-0.762 1.088-0.405 1.681 0.48 0.795 0.401-0.4 0.562-1.099 0.455-1.976-0.091-0.746-0.195-0.991-0.23-0.545m-52.231 3.646c-0.35 0.912-0.153 0.935 0.667 0.076 0.533-0.558 0.567-0.733 0.143-0.733-0.307 0-0.671 0.296-0.81 0.657m50.621 1.619c-0.029 0.922-0.233 1.787-0.452 1.923-0.904 0.559-1.325 1.895-0.449 1.426 0.869-0.465 1.435-2.494 1.136-4.073-0.11-0.582-0.201-0.3-0.235 0.724m-53.604 0.074c-0.412 0.413-0.997 0.848-1.3 0.968-0.353 0.141-0.378 0.23-0.068 0.25 0.265 0.018 1.146-0.418 1.956-0.968 0.876-0.594 1.208-1 0.818-1-0.361 0-0.993 0.338-1.406 0.75m-3.963 1.88c-0.227 0.407-1.266 0.748-2.92 0.961-2.855 0.368-3.967 0.718-3.967 1.252 0 0.513 0.545 0.442 1.854-0.241 0.63-0.328 1.629-0.598 2.22-0.6 1.091-2e-3 2.126-0.375 3.926-1.413 0.969-0.559 0.972-0.577 0.12-0.583-0.484-3e-3 -1.039 0.278-1.233 0.624m55.35 2.87c-0.53 1.448-3.74 6.307-5.465 8.271-0.69 0.786-1.072 1.429-0.847 1.429 0.546 0 3.675-3.96 3.675-4.652 0-0.302 0.175-0.548 0.39-0.548 0.214 0 0.687-0.576 1.052-1.28 0.364-0.705 0.908-1.528 1.21-1.829 0.301-0.301 0.548-0.895 0.548-1.32 0-0.96-0.227-0.988-0.563-0.071m-9.247 12.51c-1.301 1.315-2.236 2.39-2.078 2.39 0.404 0 4.809-4.412 4.607-4.614-0.09-0.091-1.229 0.91-2.529 2.224m-4.59 4.058c-0.99 0.873-2.16 1.756-2.6 1.961-0.44 0.206-1.61 0.992-2.6 1.746-0.99 0.755-1.99 1.384-2.222 1.398-0.233 0.015-1.033 0.477-1.778 1.027s-1.668 1-2.049 1c-0.382 0-0.966 0.272-1.298 0.604s-1.019 0.77-1.528 0.974c-0.911 0.366-0.908 0.372 0.161 0.397 0.673 0.015 1.239-0.262 1.489-0.728 0.222-0.415 0.999-0.866 1.727-1.002 0.728-0.137 1.631-0.608 2.007-1.047s1.017-0.798 1.425-0.798 1.068-0.36 1.466-0.8 0.965-0.8 1.259-0.8 0.759-0.36 1.034-0.8 0.72-0.8 0.989-0.8c0.27 0 1.105-0.54 1.857-1.2s1.549-1.2 1.771-1.2c0.375 0 1.045-1.187 0.799-1.417-0.06-0.056-0.919 0.612-1.909 1.485m-16.753 9.784c-0.512 0.358-1.672 0.818-2.579 1.022s-1.769 0.566-1.916 0.804c-0.148 0.239-0.962 0.568-1.81 0.732l-1.542 0.298 1.446 0.046c0.897 0.029 1.832-0.258 2.463-0.754 0.56-0.44 1.382-0.8 1.828-0.8 1.257 0 2.729-0.673 2.996-1.369 0.3-0.783 0.261-0.782-0.886 0.021m-9.469 3.509c-0.44 0.308-1.246 0.643-1.789 0.745-0.751 0.14-0.643 0.198 0.449 0.24 0.98 0.037 1.668-0.201 2.162-0.746 0.835-0.922 0.353-1.062-0.822-0.239m-6.589 1.739c-0.544 0.385-2.069 0.819-3.389 0.964l-2.4 0.265 2.944-0.08c2.179-0.059 3.066-0.248 3.415-0.726 0.26-0.355 0.915-0.728 1.457-0.83l0.984-0.184-1.011-0.055c-0.556-0.029-1.456 0.261-2 0.646m-9.276 1.725c-0.378 0.22-1.728 0.553-3 0.739l-2.313 0.338 2.513 0.049c2.233 0.044 5.287-0.725 5.287-1.331 0-0.367-1.754-0.223-2.487 0.205m159.51 19.275c-0.294 0.715-0.636 3.37-0.758 5.9l-0.223 4.6 0.531-3.8c0.564-4.035 0.893-5.2 1.47-5.2 0.196 0 0.357-0.63 0.357-1.4 0-1.757-0.674-1.806-1.377-0.1m-398.62 0.5c0 0.608 0.228 1 0.582 1 0.626 0 0.825 0.793 1.408 5.6l0.363 3-0.121-4.2c-0.123-4.233-0.697-6.4-1.696-6.4-0.305 0-0.536 0.431-0.536 1m2.403 10.42c-2e-3 0.451 0.204 1.027 0.457 1.28 0.252 0.252 0.592 1.143 0.754 1.98l0.294 1.52 0.043-1.6c0.027-0.989-0.26-2.059-0.751-2.8-0.679-1.025-0.795-1.08-0.797-0.38m394.44 0.329c-0.291 0.35-0.659 1.74-0.818 3.09-0.195 1.653-0.507 2.575-0.957 2.827-0.367 0.206-0.668 0.842-0.668 1.413 0 0.896 0.139 0.779 1-0.841 0.55-1.034 1-2.461 1-3.17 0-0.71 0.283-1.695 0.63-2.189 0.754-1.077 0.59-2.067-0.187-1.13m-392.81 5.051c-0.016 0.33 0.329 1.14 0.766 1.8s0.796 1.581 0.797 2.046c2e-3 0.465 0.336 1.275 0.743 1.8s0.843 1.224 0.969 1.554c0.16 0.421 0.237 0.35 0.259-0.238 0.018-0.461-0.309-1.147-0.726-1.524-0.417-0.378-0.878-1.482-1.024-2.455s-0.498-1.908-0.783-2.076c-0.285-0.169-0.62-0.577-0.745-0.907-0.202-0.533-0.23-0.533-0.256 0m390 3.937c-0.018 0.295-0.392 0.994-0.832 1.554-0.44 0.559-0.8 1.379-0.8 1.823 0 0.517 0.364 0.121 1.016-1.106 0.559-1.051 0.933-2.113 0.832-2.36-0.114-0.276-0.197-0.242-0.216 0.089m-386.43 4.536c0 0.346 0.29 0.87 0.645 1.164 0.354 0.294 0.793 0.901 0.974 1.349 0.227 0.56 0.338 0.62 0.356 0.192 0.014-0.343-0.425-1.233-0.975-1.978-0.601-0.815-1-1.105-1-0.727m383.94 0.625c-0.323 0.386-0.811 1.152-1.085 1.702-0.983 1.973-1.866 3.468-2.381 4.029-0.471 0.514-0.891 1.129-2.57 3.765-0.278 0.437-0.821 1.032-1.206 1.323-0.385 0.29-0.7 0.776-0.7 1.079 0 0.302-0.36 0.664-0.8 0.804s-0.8 0.447-0.8 0.684-1.26 1.639-2.8 3.116-2.8 2.842-2.8 3.034c0 0.574 9.128-8.977 9.401-9.838 0.139-0.438 0.43-0.796 0.647-0.796 0.216 0 0.582-0.54 0.812-1.2s0.565-1.2 0.745-1.2c0.179 0 0.997-1.215 1.816-2.7 0.82-1.485 1.764-3.016 2.099-3.402 0.335-0.387 0.518-0.793 0.408-0.903s-0.464 0.116-0.786 0.503m-381.94 3.259c0 0.197 0.27 0.461 0.6 0.588 0.33 0.126 0.6 0.481 0.6 0.787 0 0.307 0.54 1.237 1.2 2.068s1.2 1.247 1.2 0.925-0.45-1.008-1-1.525-1-1.232-1-1.59c0-0.684-0.736-1.61-1.28-1.61-0.176 0-0.32 0.161-0.32 0.357m4.748 6.777c1.439 1.817 2.052 2.328 2.052 1.709 0-0.222-0.283-0.562-0.629-0.755-0.347-0.194-0.842-0.774-1.1-1.289-0.259-0.515-0.733-1.022-1.053-1.128-0.319-0.106 9e-3 0.553 0.73 1.463m5.955 6.366c2.189 2.145 4.461 4.26 5.049 4.7 0.587 0.44 1.365 1.07 1.728 1.4 0.364 0.33 1.574 1.18 2.69 1.889 1.117 0.709 2.382 1.564 2.811 1.9 0.43 0.336 0.991 0.611 1.246 0.611 0.256 0 0.939 0.373 1.519 0.829s1.054 0.658 1.054 0.449c0-0.571-0.868-1.179-2.135-1.497-0.621-0.156-1.22-0.518-1.329-0.805-0.11-0.286-0.726-0.703-1.368-0.927s-1.168-0.575-1.168-0.78c0-0.204-0.585-0.61-1.3-0.9-0.715-0.291-1.535-0.853-1.823-1.249-0.287-0.396-0.739-0.72-1.003-0.72-0.265 0-0.706-0.36-0.981-0.8s-0.756-0.8-1.069-0.8c-0.314 0-0.684-0.36-0.824-0.8s-0.414-0.8-0.61-0.8c-0.31 0-3.64-3.254-5.106-4.989-0.283-0.336-0.706-0.611-0.939-0.611s1.368 1.755 3.558 3.9m354.42 4.043c-0.288 0.408-0.928 0.87-1.423 1.027-0.495 0.156-0.9 0.447-0.9 0.647 0 0.199-0.585 0.661-1.3 1.027-0.715 0.365-1.444 0.91-1.62 1.21s-0.649 0.546-1.051 0.546-0.967 0.285-1.256 0.633-1.153 0.933-1.92 1.3c-0.768 0.367-1.479 0.926-1.582 1.242-0.121 0.372 0.206 0.266 0.925-0.3 0.611-0.481 1.345-0.875 1.629-0.875 0.285 0 0.765-0.247 1.066-0.548 0.301-0.302 1.124-0.846 1.829-1.21 0.704-0.365 1.28-0.805 1.28-0.978 0-0.174 0.63-0.616 1.4-0.983 0.77-0.368 1.4-0.851 1.4-1.075 0-0.223 0.239-0.406 0.53-0.406 0.292 0 0.953-0.45 1.47-1s0.738-1 0.492-1c-0.245 0-0.682 0.334-0.969 0.743m-336.87 8.491c0.687 0.2 1.474 0.634 1.749 0.964 0.274 0.331 0.882 0.581 1.35 0.556 0.728-0.04 0.744-0.074 0.115-0.237-0.405-0.104-1.08-0.533-1.5-0.953s-1.259-0.748-1.864-0.728l-1.1 0.036 1.25 0.362m322.5 0.306c-0.525 0.407-1.224 0.843-1.554 0.969-0.526 0.2-0.525 0.232 0.011 0.259 0.336 0.018 1.023-0.257 1.528-0.61 0.504-0.353 1.399-0.788 1.989-0.966l1.072-0.323-1.046-0.035c-0.575-0.019-1.475 0.299-2 0.706m-316.67 2.26c1.033 0.55 2.392 1 3.02 1s1.491 0.264 1.919 0.587c1.117 0.845 2.169 0.835 1.321-0.013-0.345-0.345-1.666-0.768-2.936-0.94-1.483-0.202-2.442-0.55-2.679-0.974-0.204-0.363-0.854-0.66-1.447-0.66-0.955 0-0.865 0.113 0.802 1m311.98-0.34c-0.237 0.424-1.196 0.772-2.679 0.974-1.27 0.172-2.591 0.595-2.936 0.94-0.848 0.848 0.204 0.858 1.321 0.013 0.428-0.323 1.291-0.587 1.919-0.587s1.987-0.45 3.02-1c1.667-0.887 1.757-1 0.802-1-0.593 0-1.243 0.297-1.447 0.66m-301.1 3.106c2.722 0.369 4.12 0.742 4.444 1.186 0.582 0.795 2.186 0.859 2.186 0.087 0-0.877-2.063-1.386-6.509-1.607l-4.091-0.204 3.97 0.538m287.83-0.159c-2.731 0.374-3.6 0.721-3.6 1.436 0 0.769 1.606 0.702 2.186-0.091 0.328-0.449 1.691-0.803 4.444-1.154 3.451-0.439 3.656-0.505 1.57-0.499-1.32 3e-3 -3.39 0.142-4.6 0.308" fill="#7c6494"/>
</g>
</svg>
