<?xml version="1.0" encoding="UTF-8"?>
<svg width="400" height="367.29" version="1.1" viewBox="0 0 400 367.28624535315987" xmlns="http://www.w3.org/2000/svg">
<g fill-rule="evenodd">
<path d="m130.82 34.745c-0.422 0.296-0.846 1.07-0.94 1.721-0.227 1.556-1.568 10.324-2.429 15.876-0.809 5.22-1.978 12.846-2.985 19.467-0.4 2.626-1.037 6.593-1.416 8.815-0.378 2.223-1.04 6.355-1.469 9.183-0.43 2.828-1.096 7.126-1.48 9.55-0.385 2.424-1.051 6.722-1.482 9.55-0.43 2.829-1.029 6.63-1.33 8.448-0.302 1.819-0.705 4.463-0.897 5.877s-0.586 3.811-0.877 5.326c-0.29 1.515-0.875 5.069-1.301 7.897-0.738 4.908-1.259 8.265-2.884 18.55-0.399 2.525-1.156 7.401-1.682 10.835-0.526 3.435-1.274 8.145-1.66 10.469-0.922 5.531-2.089 12.758-2.582 15.978-0.216 1.414-0.701 4.554-1.078 6.978-0.376 2.425-1.042 6.722-1.48 9.55-0.437 2.829-1.103 7.126-1.479 9.55-0.375 2.425-1.118 6.888-1.651 9.918-0.532 3.03-1.198 6.997-1.48 8.815-0.933 6.022-1.978 12.409-2.338 14.298-0.196 1.025-0.459 2.69-0.586 3.7-0.126 1.011-0.458 3.077-0.737 4.592s-0.861 5.069-1.294 7.897c-0.432 2.828-1.103 6.878-1.49 8.999-1.068 5.848-0.977 7.518 0.489 8.972 1.165 1.157 6.122 4.251 6.809 4.251 0.19 0 0.747 0.316 1.238 0.702s1.876 1.218 3.08 1.849c1.203 0.631 2.435 1.302 2.738 1.492 1.451 0.909 16.904 9.548 17.079 9.548 0.111 0 1.833 0.991 3.829 2.203 1.995 1.213 3.71 2.204 3.812 2.204s3.631 1.954 7.843 4.342 7.906 4.458 8.209 4.599 1.212 0.658 2.02 1.149c0.808 0.49 1.811 1.05 2.229 1.243 0.417 0.194 3.062 1.67 5.877 3.281 2.814 1.611 6.06 3.438 7.213 4.061 3.059 1.655 3.719 2.033 4.332 2.484 0.303 0.223 1.46 0.878 2.571 1.455 1.111 0.578 5.657 3.105 10.101 5.617 19.244 10.875 19.633 10.989 26.02 7.6 6.256-3.319 9.192-4.915 12.548-6.822 2.02-1.148 5.16-2.881 6.979-3.851 1.818-0.97 4.032-2.151 4.92-2.624 0.888-0.474 1.797-1.007 2.02-1.186s1.976-1.154 3.895-2.166 4.539-2.436 5.821-3.165c1.282-0.728 2.41-1.324 2.507-1.324s1.279-0.644 2.627-1.431c1.349-0.787 3.692-2.089 5.207-2.894 5.009-2.659 8.26-4.43 11.203-6.103 0.808-0.459 3.122-1.713 5.142-2.786 2.02-1.074 5.326-2.894 7.346-4.045 2.02-1.152 4.582-2.549 5.694-3.106 2.61-1.309 3.782-1.96 6.145-3.413 1.063-0.653 2.47-1.432 3.128-1.73 0.657-0.298 2.352-1.211 3.766-2.028 1.414-0.818 3.075-1.722 3.691-2.009 0.615-0.287 2.714-1.443 4.663-2.569 1.95-1.125 3.677-2.053 3.84-2.062 0.162-9e-3 1.433-0.794 2.824-1.745 3.816-2.608 4.455-4.394 3.51-9.809-1.289-7.385-1.933-11.13-2.558-14.876-1.294-7.747-1.827-10.814-2.362-13.591-0.292-1.515-0.635-3.498-0.763-4.408-0.247-1.766-1.392-8.109-2.041-11.305-0.216-1.066-0.616-3.38-0.889-5.142-0.272-1.762-0.93-5.683-1.461-8.713-0.531-3.031-1.522-8.816-2.203-12.856s-1.829-10.652-2.551-14.692c-1.742-9.744-2.504-14.123-4.251-24.427-1.955-11.533-2.886-16.862-3.555-20.348-0.306-1.596-0.782-4.323-1.059-6.061-0.276-1.737-0.85-5.142-1.276-7.567-0.425-2.424-1.077-6.308-1.448-8.631-0.372-2.324-0.779-4.638-0.904-5.143s-0.464-2.406-0.753-4.224c-3.068-19.295-3.622-21.271-5.723-20.425-0.902 0.363-6.892 6.144-25.677 24.781-9.58 9.505-10.393 10.222-11.422 10.071-0.82-0.121-1.058-0.035-0.917 0.331 0.202 0.529-26.068 26.943-85.558 86.026-19.192 19.06-41.545 41.282-49.674 49.382-11.204 11.163-14.884 14.624-15.206 14.302-0.536-0.536 0.218-4.601 1.108-5.974 0.395-0.609 0.66-2.092 0.787-4.407 0.165-2.994 0.233-3.281 0.48-2.021 0.159 0.808 0.366 1.848 0.462 2.311 0.206 1 0.719 0.794 1.021-0.409 0.118-0.474 0.639-1.591 1.157-2.483s1.073-1.87 1.235-2.173c0.161-0.304 0.561-1.047 0.888-1.653s0.868-1.722 1.201-2.48c0.333-0.757 0.754-1.377 0.934-1.377s0.327-0.215 0.327-0.478c0-0.676 0.864-2.454 1.194-2.458 0.151-1e-3 0.275-0.323 0.275-0.716 0-0.392 0.146-0.803 0.325-0.913 0.178-0.111 0.693-0.988 1.144-1.95s0.925-1.832 1.053-1.933c0.323-0.255 1.233-1.902 2.843-5.143 0.753-1.515 1.483-2.837 1.622-2.938s0.452-0.793 0.694-1.537c0.243-0.745 0.556-1.406 0.696-1.47 0.14-0.063 0.748-1.107 1.351-2.319s1.332-2.494 1.62-2.849c0.672-0.826 1.075-1.552 3.159-5.68 0.94-1.862 2.094-3.953 2.563-4.645 0.47-0.692 0.967-1.611 1.103-2.042 0.137-0.431 0.815-1.643 1.506-2.693 0.692-1.05 1.258-2.094 1.258-2.32 0-0.225 0.33-0.709 0.735-1.075 0.404-0.366 0.734-0.947 0.734-1.293 0-0.345 0.296-1.022 0.658-1.504 0.361-0.482 0.856-1.289 1.099-1.794s0.591-1.167 0.772-1.47c0.182-0.303 0.522-0.964 0.756-1.469 0.918-1.987 1.623-3.135 2.097-3.416 0.272-0.161 0.495-0.616 0.495-1.01s0.331-1.047 0.735-1.451 0.734-0.96 0.734-1.236 0.321-0.909 0.712-1.406c0.392-0.498 0.823-1.349 0.959-1.891 0.137-0.542 0.448-1.108 0.692-1.257 0.473-0.287 2.045-3.366 2.045-4.003 0-0.207 0.321-0.668 0.714-1.024 0.392-0.355 0.818-1.122 0.946-1.705s0.403-1.165 0.61-1.293 0.609-0.791 0.895-1.473c0.285-0.682 0.663-1.241 0.84-1.241 0.176 0 0.431-0.587 0.566-1.305 0.134-0.717 0.473-1.392 0.753-1.5 0.279-0.107 0.616-0.688 0.749-1.291 0.132-0.602 0.463-1.181 0.734-1.285 0.272-0.104 0.596-0.655 0.721-1.223s0.548-1.324 0.941-1.679 0.714-0.884 0.714-1.174 0.33-0.948 0.734-1.462c0.404-0.513 0.735-1.148 0.735-1.409s0.217-0.693 0.483-0.96c0.265-0.267 0.932-1.478 1.483-2.69 0.55-1.212 1.163-2.451 1.361-2.755 0.199-0.303 0.611-1.095 0.916-1.76 0.305-0.666 0.798-1.303 1.095-1.417 0.296-0.114 0.539-0.535 0.539-0.936s0.331-1.15 0.735-1.663c0.404-0.514 0.734-1.134 0.734-1.379 0-0.244 0.321-0.735 0.714-1.09s0.816-1.113 0.942-1.685c0.125-0.571 0.455-1.226 0.732-1.456s0.61-0.903 0.74-1.495 0.363-1.076 0.519-1.076c0.155 0 0.559-0.62 0.898-1.378 1.15-2.569 2.071-4.132 2.437-4.132 0.2 0 0.364-0.382 0.364-0.849s0.331-1.204 0.735-1.637c0.404-0.434 0.735-1.101 0.735-1.482s0.33-0.992 0.734-1.358 0.735-0.97 0.735-1.342c0-0.373 0.326-1.004 0.725-1.403s0.834-1.156 0.966-1.683c0.132-0.526 0.467-1.044 0.744-1.15 0.277-0.107 0.503-0.484 0.503-0.84 0-0.355 0.321-1.053 0.712-1.55 0.392-0.498 0.82-1.335 0.952-1.86 0.131-0.525 0.472-1.044 0.757-1.153s0.518-0.358 0.518-0.554c0-0.51 0.617-1.833 1.644-3.525 0.895-1.474 1.412-2.464 1.823-3.489 0.121-0.303 0.614-1.212 1.095-2.02 0.48-0.808 1.503-2.75 2.272-4.316s1.516-2.847 1.66-2.847c0.145 0 0.369-0.484 0.499-1.076s0.482-1.28 0.782-1.529c0.299-0.249 1.044-1.488 1.654-2.753 0.821-1.701 1.38-2.395 2.145-2.662l1.035-0.361-1.771-1.886c-0.975-1.038-2.237-2.582-2.805-3.432-0.569-0.849-5.497-7.476-10.951-14.725-5.455-7.25-11.24-14.953-12.856-17.119-1.616-2.165-4.674-6.232-6.796-9.037-2.121-2.804-4.104-5.459-4.407-5.898-0.958-1.388-11.9-15.925-12.764-16.956-0.454-0.543-0.826-1.091-0.826-1.22-2e-3 -0.772-1.761-1.358-2.509-0.834m-10.829 76.825c-0.092 0.354-0.168 0.065-0.168-0.643 0-0.707 0.076-0.996 0.168-0.642 0.092 0.353 0.092 0.932 0 1.285m-4.299 29.569c-3e-3 0.656-0.166 1.441-0.362 1.744-0.257 0.399-0.357 0.069-0.362-1.193-3e-3 -0.96 0.16-1.745 0.362-1.745s0.365 0.537 0.362 1.194m-1.939 11.019c-0.088 0.454-0.159 0.083-0.159-0.827 0-0.909 0.071-1.28 0.159-0.826 0.087 0.455 0.087 1.198 0 1.653m-1.143 6.93c-0.207 2.979-0.586 3.852-0.586 1.35 0-1.733 0.346-3.964 0.614-3.964 0.085 0 0.072 1.176-0.028 2.614m-1.651 10.297c-0.348 1.156-0.368 1.108-0.325-0.79 0.055-2.472 0.431-3.617 0.584-1.781 0.061 0.737-0.055 1.894-0.259 2.571m-1.469 8.813c-0.361 1.196-0.371 1.178-0.327-0.604 0.024-1.01 0.141-2.002 0.259-2.204 0.392-0.671 0.446 1.555 0.068 2.808m-1.144 8.671c-3e-3 0.555-0.166 1.258-0.362 1.561-0.261 0.403-0.358 0.133-0.362-1.01-3e-3 -0.859 0.16-1.561 0.362-1.561s0.365 0.454 0.362 1.01m-1.777 9.35l-0.331 2.312-0.034-2.939c-0.025-2.111 0.069-2.762 0.331-2.311 0.235 0.402 0.247 1.455 0.034 2.938m-1.165 10.066c-0.573 2.762-0.73 2.482-0.696-1.234 0.03-3.152 0.041-3.19 0.569-1.98 0.438 1.004 0.462 1.604 0.127 3.214m-1.739 9.012l-0.358 2.701-0.024-3.489c-0.019-2.662 0.066-3.303 0.357-2.701 0.259 0.534 0.267 1.659 0.025 3.489m-1.393 8.11c-0.245 4.094-0.532 4.071-0.532-0.043 0-2.095 0.136-3.305 0.356-3.169 0.207 0.128 0.281 1.47 0.176 3.212m-1.294 8.365c-0.041 3.4-0.623 4.21-0.66 0.919-0.025-2.257 0.077-3.131 0.32-2.755 0.196 0.303 0.349 1.129 0.34 1.836m-1.474 9.55c-0.038 3.137-0.65 3.304-0.671 0.184-0.014-2.025 0.09-2.767 0.336-2.388 0.195 0.303 0.347 1.295 0.335 2.204m-1.483 6.428c0.177 1.275 0.114 2.299-0.237 3.857-0.359 1.597-0.373 1.55-0.412-1.377-0.034-2.569 0.404-4.243 0.649-2.48m-1.466 10.58c0.035 1.286-0.096 2.737-0.291 3.225-0.268 0.671-0.36 0.052-0.378-2.532-0.026-3.788 0.566-4.403 0.669-0.693" fill="#fbc305"/>
<path d="m0 183.66v183.65h200 200v-183.65-183.66h-200-200v183.66m134.06-149.54c1.017 0.985 1.848 1.894 1.848 2.02s0.29 0.544 0.643 0.927c0.354 0.384 1.056 1.309 1.561 2.056s1.208 1.627 1.561 1.955c0.354 0.329 0.643 0.808 0.643 1.067 0 0.258 0.149 0.469 0.331 0.469 0.293 0 1.15 1.183 2.489 3.437 0.238 0.4 0.692 0.873 1.01 1.051s0.578 0.555 0.578 0.838 0.215 0.647 0.479 0.808c0.263 0.162 1.048 1.12 1.744 2.13 0.697 1.01 1.473 1.969 1.726 2.131 0.252 0.161 0.459 0.496 0.459 0.744 0 0.249 0.289 0.72 0.642 1.048 0.354 0.329 1.056 1.209 1.561 1.956 0.506 0.747 1.208 1.672 1.562 2.056 0.353 0.383 0.642 0.857 0.642 1.052 0 0.194 0.331 0.531 0.735 0.747s0.735 0.57 0.735 0.786c0 0.217 0.411 0.913 0.915 1.549 0.503 0.635 1.164 1.485 1.469 1.889 2.939 3.896 3.842 5.209 3.85 5.602 5e-3 0.252 0.258 0.459 0.561 0.459s0.551 0.136 0.551 0.303 0.739 1.283 1.643 2.479c0.904 1.197 1.647 2.365 1.653 2.596 5e-3 0.231 0.222 0.502 0.482 0.601 0.259 0.1 0.962 0.897 1.561 1.772s1.337 1.875 1.64 2.222c0.303 0.348 0.834 1.014 1.181 1.482 0.346 0.467 1.258 1.676 2.025 2.686 0.768 1.01 1.642 2.195 1.942 2.633s2.307 3.107 4.461 5.931c2.153 2.824 4.087 5.457 4.298 5.85 0.843 1.576 3.724 4.29 3.724 3.509 0-0.409 0.33-1.164 0.734-1.678 0.404-0.513 0.735-1.164 0.735-1.445s0.151-0.669 0.335-0.86c0.184-0.192 1.036-1.672 1.894-3.288 0.857-1.616 1.698-2.993 1.869-3.061 0.17-0.067 0.309-0.402 0.309-0.745 0-0.342 0.288-1.03 0.64-1.53 0.848-1.204 1.736-2.802 2.494-4.489 0.341-0.758 0.767-1.378 0.947-1.378s0.33-0.289 0.334-0.643c0.015-1.434 3.333-5.47 4.755-5.782 2.339-0.514 3.273 0.285 9.111 7.793 0.35 0.45 1.103 1.359 1.675 2.021 0.571 0.661 1.31 1.657 1.64 2.213 0.331 0.555 0.727 1.01 0.88 1.01s0.522 0.454 0.819 1.01c0.297 0.555 1.086 1.617 1.754 2.359s1.875 2.27 2.683 3.396 1.909 2.526 2.446 3.112c0.537 0.585 1.28 1.536 1.653 2.113 0.69 1.07 1.209 1.752 2.513 3.304 0.404 0.481 1.018 1.245 1.364 1.697 0.347 0.453 1.38 1.763 2.296 2.911s1.666 2.163 1.666 2.256c0 0.094 0.517 0.723 1.148 1.399 0.632 0.676 1.77 2.14 2.53 3.253s1.892 2.519 2.515 3.125c0.623 0.607 1.137 1.301 1.143 1.543 5e-3 0.243 0.218 0.573 0.472 0.735 0.254 0.161 1.039 1.072 1.744 2.023 1.562 2.105 2.218 2.427 2.889 1.417 0.278-0.418 0.643-0.759 0.812-0.759s1.099-0.835 2.067-1.856c0.968-1.02 2.889-2.962 4.268-4.315 1.38-1.354 7.743-7.653 14.142-14 6.398-6.346 12.277-12.007 13.065-12.58 3.409-2.478 6.091-0.224 6.626 5.57 0.14 1.515 0.473 3.416 0.74 4.224s0.606 2.86 0.754 4.559c0.147 1.699 0.477 3.6 0.732 4.224 0.256 0.624 0.58 2.457 0.72 4.073 0.141 1.616 0.474 3.6 0.741 4.408 0.266 0.808 0.604 2.791 0.75 4.408 0.147 1.616 0.405 3.204 0.574 3.528s0.489 2.143 0.711 4.04c0.222 1.898 0.565 3.746 0.762 4.108 0.196 0.361 0.607 2.558 0.912 4.882 0.304 2.325 0.696 4.599 0.869 5.055s0.427 1.977 0.563 3.382c0.137 1.404 0.471 3.379 0.744 4.389 0.272 1.01 0.677 3.242 0.9 4.959 0.222 1.717 0.644 4.197 0.938 5.51s0.54 2.966 0.546 3.673c7e-3 0.707 0.242 2.043 0.523 2.97 0.281 0.926 0.623 2.827 0.759 4.224s0.474 3.283 0.751 4.192 0.607 2.48 0.733 3.49c0.252 2.019 1.367 8.631 2.229 13.223 0.303 1.616 0.789 4.426 1.08 6.244s0.867 5.289 1.282 7.714c0.414 2.424 1.067 6.308 1.452 8.631 0.385 2.324 0.942 5.464 1.237 6.979 0.683 3.506 1.631 8.783 2.044 11.387 0.925 5.822 1.562 9.555 1.913 11.203 0.215 1.01 0.612 3.324 0.881 5.142 0.84 5.673 1.629 10.189 2.225 12.742 0.316 1.351 0.664 3.417 0.773 4.591 0.11 1.174 0.418 2.961 0.686 3.971 1.333 5.027 1.007 8.359-1.037 10.59-1.196 1.306-4.209 3.532-4.797 3.545-0.17 4e-3 -0.73 0.337-1.243 0.741-0.514 0.404-1.242 0.735-1.619 0.735s-0.685 0.164-0.685 0.364c0 0.343-0.643 0.731-4.224 2.552-0.808 0.411-1.759 0.915-2.112 1.12-1.398 0.808-2.026 1.138-4.552 2.39-1.443 0.715-2.818 1.535-3.056 1.821-0.238 0.287-0.917 0.627-1.509 0.757s-1.076 0.371-1.076 0.535-0.62 0.57-1.378 0.902c-0.757 0.332-2.534 1.26-3.948 2.061s-3.191 1.73-3.949 2.063c-0.757 0.333-1.377 0.728-1.377 0.878 0 0.149-0.62 0.538-1.378 0.864-0.757 0.326-1.625 0.757-1.928 0.958s-0.964 0.54-1.469 0.752-1.58 0.776-2.388 1.252-2.543 1.418-3.856 2.093c-1.314 0.675-2.596 1.423-2.849 1.662-0.254 0.24-0.833 0.552-1.286 0.694s-1.218 0.566-1.7 0.942-1.167 0.684-1.522 0.684-0.733 0.227-0.839 0.504-0.648 0.618-1.204 0.757c-0.556 0.14-1.418 0.574-1.916 0.966-0.498 0.391-1.063 0.712-1.256 0.712-0.194 0-0.772 0.33-1.286 0.734s-1.228 0.735-1.588 0.735-0.71 0.148-0.777 0.328c-0.133 0.357-2.138 1.622-3.612 2.279-0.505 0.226-1.166 0.561-1.469 0.745-0.303 0.185-1.13 0.599-1.837 0.921-0.707 0.321-1.368 0.713-1.469 0.869-0.101 0.157-0.762 0.553-1.469 0.881-1.145 0.531-3.894 2.042-7.714 4.238-0.707 0.407-1.905 1.016-2.663 1.355s-1.377 0.75-1.377 0.913c0 0.164-0.662 0.495-1.47 0.737s-1.469 0.564-1.469 0.714-0.454 0.449-1.01 0.665c-0.555 0.216-1.836 0.893-2.847 1.506-1.01 0.613-2.332 1.363-2.938 1.667s-1.763 0.957-2.571 1.451c-1.733 1.059-1.92 1.159-3.122 1.665-0.505 0.213-1.58 0.788-2.388 1.278s-1.86 1.068-2.339 1.284c-0.478 0.217-1.286 0.721-1.794 1.121-0.509 0.4-1.179 0.727-1.489 0.727s-0.884 0.289-1.275 0.643c-1.027 0.93-9.394 0.953-10.42 0.029-0.374-0.338-1.149-0.731-1.721-0.874s-1.121-0.471-1.22-0.73-0.599-0.576-1.109-0.704c-0.511-0.128-1.367-0.521-1.902-0.874-1.556-1.025-2.368-1.507-3.544-2.103-0.607-0.308-1.764-0.956-2.572-1.441s-2.089-1.157-2.846-1.494c-0.758-0.337-1.378-0.744-1.378-0.904s-0.454-0.481-1.01-0.712c-0.555-0.232-1.836-0.901-2.846-1.488-1.011-0.586-2.292-1.256-2.847-1.487-0.556-0.232-1.01-0.57-1.01-0.753 0-0.182-0.207-0.334-0.459-0.338-0.253-4e-3 -1.534-0.658-2.847-1.453-1.313-0.796-2.883-1.704-3.489-2.018s-2.259-1.227-3.673-2.029c-1.415-0.802-3.274-1.786-4.133-2.186-0.858-0.401-1.561-0.9-1.561-1.109 0-0.21-0.294-0.381-0.653-0.381s-1.061-0.288-1.561-0.639c-1.106-0.779-2.71-1.699-4.306-2.468-0.656-0.317-1.193-0.739-1.193-0.938s-0.294-0.362-0.653-0.362-1.062-0.288-1.561-0.64c-1.204-0.848-2.803-1.736-4.49-2.494-0.757-0.341-1.377-0.767-1.377-0.947s-0.324-0.327-0.72-0.327c-0.397 0-1.016-0.317-1.378-0.705-0.361-0.388-1.125-0.822-1.697-0.965-0.572-0.144-1.126-0.488-1.233-0.765-0.106-0.277-0.33-0.504-0.497-0.504-0.457 0-1.83-0.646-3.474-1.636-0.808-0.486-1.965-1.145-2.571-1.463s-1.763-0.985-2.572-1.482c-0.808-0.496-2.047-1.175-2.754-1.508-0.707-0.332-1.369-0.71-1.47-0.839s-0.762-0.519-1.469-0.867-2.442-1.299-3.857-2.114c-1.414-0.816-3.132-1.741-3.818-2.058s-1.483-0.811-1.771-1.099-0.748-0.524-1.022-0.524-0.734-0.236-1.022-0.524-1.085-0.785-1.771-1.104c-0.686-0.32-1.909-0.977-2.717-1.46-0.808-0.484-2.543-1.42-3.857-2.082-1.313-0.661-2.512-1.409-2.665-1.661-0.152-0.252-0.783-0.569-1.402-0.705-0.618-0.136-1.214-0.479-1.323-0.763s-0.413-0.516-0.676-0.516c-2.735 0-5.587-4.712-4.993-8.249 0.239-1.423 0.663-4.157 0.943-6.077 0.661-4.547 1.533-9.891 2.397-14.692 0.382-2.121 1.036-6.005 1.454-8.632 0.418-2.626 1.014-6.262 1.324-8.08 0.31-1.819 0.719-4.463 0.907-5.877 0.189-1.415 0.593-3.977 0.899-5.694 1.061-5.959 2.015-11.949 2.253-14.141 0.131-1.212 0.449-2.865 0.706-3.673 0.258-0.808 0.578-2.709 0.712-4.224s0.477-3.83 0.762-5.143c0.535-2.459 1.258-7.151 2.166-14.048 0.286-2.172 0.684-4.486 0.885-5.143s0.47-2.434 0.599-3.949c0.128-1.515 0.462-3.747 0.742-4.959s0.688-3.833 0.907-5.824 0.541-3.892 0.714-4.224c0.174-0.332 0.511-2.302 0.749-4.377s0.578-4.223 0.757-4.775c0.178-0.551 0.499-2.708 0.714-4.793 0.214-2.086 0.537-4.069 0.717-4.408s0.441-1.939 0.579-3.555 0.481-3.93 0.761-5.142c0.281-1.212 0.68-3.803 0.888-5.757 0.207-1.955 0.531-3.959 0.719-4.453 0.188-0.495 0.453-2.119 0.588-3.609 0.135-1.491 0.544-4.032 0.91-5.648 0.366-1.617 0.775-4.158 0.91-5.649 0.135-1.49 0.404-3.126 0.598-3.636s0.529-2.679 0.744-4.821c0.216-2.141 0.545-4.178 0.731-4.528 0.187-0.349 0.488-2.198 0.669-4.109 0.181-1.91 0.578-4.6 0.883-5.976 0.306-1.377 0.721-3.825 0.924-5.441s0.537-3.93 0.741-5.143c0.205-1.212 0.546-3.36 0.758-4.775 0.212-1.414 0.633-4.224 0.936-6.244s0.791-4.747 1.085-6.06c0.293-1.314 0.635-3.628 0.76-5.143s0.45-3.581 0.722-4.591c0.273-1.01 0.602-3.159 0.731-4.775s0.46-3.765 0.735-4.775 0.603-3.111 0.728-4.669c0.546-6.768 2.971-8.833 6.433-5.478" fill="#fcfbfb"/>
<path d="m202.13 80.198c-0.727 0.39-3.026 3.397-3.042 3.979-3e-3 0.135-0.915 1.821-2.026 3.745-1.112 1.925-2.021 3.603-2.021 3.73s-0.693 1.417-1.54 2.866-2.344 4.206-3.328 6.125c-2.048 3.997-2.839 4.962-4.523 5.518-0.969 0.32-1.417 0.843-2.316 2.706-0.612 1.27-1.359 2.512-1.658 2.761-0.3 0.249-0.652 0.937-0.782 1.529s-0.354 1.076-0.499 1.076c-0.144 0-0.891 1.281-1.66 2.847s-1.792 3.508-2.272 4.316c-0.481 0.808-0.974 1.717-1.095 2.02-0.411 1.025-0.928 2.015-1.823 3.489-0.814 1.341-1.4 2.548-1.827 3.765-0.089 0.253-0.314 0.459-0.5 0.459-0.187 0-0.45 0.442-0.586 0.982-0.135 0.539-0.566 1.388-0.958 1.886-0.391 0.497-0.712 1.195-0.712 1.55 0 0.356-0.226 0.733-0.503 0.84-0.277 0.106-0.612 0.624-0.744 1.15-0.132 0.527-0.567 1.284-0.966 1.683s-0.725 1.03-0.725 1.403c0 0.372-0.331 0.976-0.735 1.342s-0.734 0.977-0.734 1.358-0.331 1.048-0.735 1.482c-0.404 0.433-0.735 1.17-0.735 1.637s-0.164 0.849-0.364 0.849c-0.366 0-1.287 1.563-2.437 4.132-0.339 0.758-0.743 1.378-0.898 1.378-0.156 0-0.389 0.484-0.519 1.076s-0.463 1.265-0.74 1.495-0.607 0.885-0.732 1.456c-0.126 0.572-0.549 1.33-0.942 1.685s-0.714 0.846-0.714 1.09c0 0.245-0.33 0.865-0.734 1.379-0.404 0.513-0.735 1.262-0.735 1.663s-0.243 0.822-0.539 0.936c-0.297 0.114-0.79 0.751-1.095 1.417-0.305 0.665-0.717 1.457-0.916 1.76-0.198 0.304-0.811 1.543-1.361 2.755-0.551 1.212-1.218 2.423-1.483 2.69-0.266 0.267-0.483 0.699-0.483 0.96s-0.331 0.896-0.735 1.409c-0.404 0.514-0.734 1.172-0.734 1.462s-0.321 0.819-0.714 1.174-0.816 1.111-0.941 1.679-0.449 1.119-0.721 1.223c-0.271 0.104-0.602 0.683-0.734 1.285-0.133 0.603-0.47 1.184-0.749 1.291-0.28 0.108-0.619 0.783-0.753 1.5-0.135 0.718-0.39 1.305-0.566 1.305-0.177 0-0.555 0.559-0.84 1.241-0.286 0.682-0.688 1.345-0.895 1.473s-0.482 0.71-0.61 1.293-0.554 1.35-0.946 1.705c-0.393 0.356-0.714 0.817-0.714 1.024 0 0.637-1.572 3.716-2.045 4.003-0.244 0.149-0.555 0.715-0.692 1.257-0.136 0.542-0.567 1.393-0.959 1.891-0.391 0.497-0.712 1.13-0.712 1.406s-0.33 0.832-0.734 1.236-0.735 1.057-0.735 1.451-0.223 0.849-0.495 1.01c-0.474 0.281-1.179 1.429-2.097 3.416-0.234 0.505-0.574 1.166-0.756 1.469-0.181 0.303-0.529 0.965-0.772 1.47s-0.738 1.312-1.099 1.794c-0.362 0.482-0.658 1.159-0.658 1.504 0 0.346-0.33 0.927-0.734 1.293-0.405 0.366-0.735 0.85-0.735 1.075 0 0.226-0.566 1.27-1.258 2.32-0.691 1.05-1.369 2.262-1.506 2.693-0.136 0.431-0.633 1.35-1.103 2.042-0.469 0.692-1.623 2.783-2.563 4.645-2.084 4.128-2.487 4.854-3.159 5.68-0.288 0.355-1.017 1.637-1.62 2.849s-1.211 2.256-1.351 2.319c-0.14 0.064-0.453 0.725-0.696 1.47-0.242 0.744-0.555 1.436-0.694 1.537s-0.869 1.423-1.622 2.938c-1.61 3.241-2.52 4.888-2.843 5.143-0.128 0.101-0.602 0.971-1.053 1.933s-0.966 1.839-1.144 1.95c-0.179 0.11-0.325 0.521-0.325 0.913 0 0.393-0.124 0.715-0.275 0.716-0.33 4e-3 -1.194 1.782-1.194 2.458 0 0.263-0.147 0.478-0.327 0.478s-0.601 0.62-0.934 1.377c-0.333 0.758-0.874 1.874-1.201 2.48s-0.727 1.349-0.888 1.653c-0.162 0.303-0.717 1.281-1.235 2.173s-1.039 2.009-1.157 2.483c-0.302 1.203-0.815 1.409-1.021 0.409-0.096-0.463-0.303-1.503-0.462-2.311-0.247-1.26-0.315-0.973-0.48 2.021-0.127 2.315-0.392 3.798-0.787 4.407-0.89 1.373-1.644 5.438-1.108 5.974 0.322 0.322 4.002-3.139 15.206-14.302 8.129-8.1 30.482-30.322 49.674-49.382 75.424-74.908 85.849-85.469 85.32-86.433-0.398-0.724-7.327-9.515-8.851-11.229-0.27-0.303-0.973-1.212-1.564-2.02-1.56-2.135-8.146-10.551-8.79-11.233-0.302-0.319-2.078-2.569-3.947-4.998-1.869-2.43-4.225-5.461-5.235-6.737-10.604-13.388-10.72-13.509-12.195-12.72m-82.302 30.729c0 0.708 0.076 0.997 0.168 0.643 0.092-0.353 0.092-0.932 0-1.285-0.092-0.354-0.168-0.065-0.168 0.642m-4.855 30.763c5e-3 1.262 0.105 1.592 0.362 1.193 0.469-0.726 0.469-2.938 0-2.938-0.202 0-0.365 0.785-0.362 1.745m-1.374 9.641c0 0.91 0.071 1.281 0.159 0.827 0.087-0.455 0.087-1.198 0-1.653-0.088-0.454-0.159-0.083-0.159 0.826m-1.34 6.291c-0.283 1.417-0.304 4.558-0.027 4.282 0.241-0.241 0.634-5.43 0.411-5.43-0.085 0-0.258 0.516-0.384 1.148m-1.361 8.402c-0.118 0.303-0.234 1.46-0.259 2.571-0.043 1.898-0.023 1.946 0.325 0.79 0.38-1.261 0.319-4.355-0.066-3.361m-1.471 9.366c-0.118 0.202-0.235 1.194-0.259 2.204-0.044 1.782-0.034 1.8 0.327 0.604 0.378-1.253 0.324-3.479-0.068-2.808m-1.8 12.03c4e-3 1.143 0.101 1.413 0.362 1.01 0.469-0.725 0.469-2.571 0-2.571-0.202 0-0.365 0.702-0.362 1.561m-1.418 8.172l0.034 2.939 0.331-2.312c0.213-1.483 0.201-2.536-0.034-2.938-0.262-0.451-0.356 0.2-0.331 2.311m-1.496 9.459c-0.034 3.716 0.123 3.996 0.696 1.234 0.335-1.61 0.311-2.21-0.127-3.214-0.528-1.21-0.539-1.172-0.569 1.98m-1.425 9.458l0.024 3.489 0.358-2.701c0.242-1.83 0.234-2.955-0.025-3.489-0.291-0.602-0.376 0.039-0.357 2.701m-1.543 8.855c0 1.863 0.079 3.309 0.176 3.212 0.364-0.364 0.527-6.166 0.18-6.381-0.22-0.136-0.356 1.074-0.356 3.169m-1.422 9.327c0.031 2.742 0.089 3.055 0.341 1.836 0.415-2.008 0.407-3.929-0.021-4.591-0.243-0.376-0.345 0.498-0.32 2.755m-1.485 8.815c0.013 1.979 0.123 2.699 0.336 2.204 0.434-1.01 0.434-3.92 0-4.592-0.246-0.379-0.35 0.363-0.336 2.388m-1.461 8.724c0.039 2.927 0.053 2.974 0.412 1.377 0.503-2.235 0.431-4.408-0.146-4.408-0.168 0-0.288 1.364-0.266 3.031m-1.486 8.793c0.018 2.584 0.11 3.203 0.378 2.532 0.425-1.063 0.358-5.482-0.088-5.757-0.172-0.107-0.303 1.345-0.29 3.225" fill="#f4880c"/>
<path d="m129.91 34.085c-0.663 0.733-1.457 4.148-2.067 8.89-0.221 1.717-0.641 4.527-0.934 6.244-0.293 1.718-0.858 5.271-1.256 7.898-0.965 6.363-2.077 13.489-3.153 20.202-0.486 3.03-1.23 7.741-1.653 10.468-0.424 2.727-1.008 6.446-1.299 8.264-0.535 3.341-1.793 11.446-3.136 20.202-0.403 2.627-0.91 5.668-1.127 6.758-0.217 1.091-0.711 4.066-1.097 6.612-0.66 4.352-1.229 8.031-2.874 18.586-1.785 11.45-2.343 15-2.972 18.917-2.596 16.16-3.454 21.602-4.199 26.63-0.299 2.02-0.796 5.16-1.105 6.979-0.31 1.818-0.711 4.38-0.893 5.693-0.817 5.905-1.924 12.767-2.221 13.774-0.18 0.606-0.431 2.094-0.56 3.306s-0.464 3.361-0.745 4.775-0.677 3.811-0.881 5.326c-0.338 2.515-0.751 5.063-1.905 11.754-0.226 1.313-0.623 3.792-0.882 5.509-0.797 5.279-2.151 13.442-3.665 22.087-2.156 12.32-1.93 12.918 6.601 17.401 0.606 0.318 1.763 0.972 2.571 1.452s2.247 1.289 3.197 1.797c1.808 0.969 15.133 8.471 16.087 9.058 0.303 0.186 1.543 0.857 2.755 1.49s2.369 1.282 2.571 1.442c0.392 0.311 2.068 1.271 5.326 3.051 1.111 0.607 4.89 2.742 8.399 4.746 3.508 2.003 6.731 3.796 7.162 3.984 0.431 0.187 1.032 0.497 1.335 0.688 0.588 0.371 4.254 2.463 6.979 3.983 0.909 0.508 5.829 3.295 10.934 6.194 5.105 2.9 9.348 5.272 9.429 5.272 0.082 0 1.608 0.849 3.391 1.886 1.784 1.038 4.152 2.386 5.263 2.996 1.112 0.61 4.252 2.373 6.979 3.918 10.162 5.757 11.463 5.788 20.792 0.494 2.243-1.273 4.164-2.315 4.269-2.315 0.104 0 2.381-1.24 5.059-2.755s4.91-2.755 4.96-2.755 1.868-0.992 4.039-2.204 4.053-2.203 4.184-2.203c0.13 0 0.812-0.39 1.516-0.866 0.703-0.476 2.518-1.527 4.033-2.334 6.68-3.561 8.779-4.701 11.02-5.983 1.313-0.752 3.627-2.029 5.142-2.839s4.325-2.337 6.244-3.394c4.81-2.649 7.073-3.885 10.285-5.613 1.515-0.815 3.829-2.102 5.142-2.86 1.313-0.757 3.38-1.899 4.592-2.538 1.212-0.638 3.113-1.66 4.224-2.271s2.929-1.604 4.04-2.206c1.111-0.603 2.682-1.491 3.49-1.974 0.808-0.482 1.812-1.036 2.232-1.23 0.42-0.195 3.396-1.805 6.612-3.58 3.216-1.774 6.344-3.487 6.95-3.806 7.696-4.051 8.221-5.938 5.528-19.847-0.614-3.176-1.383-7.552-2.773-15.794-0.426-2.526-1.094-6.41-1.484-8.632-0.924-5.267-1.334-7.694-2.019-11.938-0.309-1.919-0.715-4.068-0.901-4.775s-0.592-2.938-0.902-4.959c-0.623-4.058-1.404-8.738-2.208-13.223-0.802-4.471-2.881-16.489-3.844-22.222-0.187-1.111-0.592-3.425-0.901-5.142-0.308-1.717-0.833-4.693-1.165-6.612-0.333-1.919-0.906-5.142-1.273-7.162-0.368-2.021-0.778-4.582-0.912-5.694-0.134-1.111-0.391-2.598-0.57-3.305s-0.58-2.939-0.892-4.959-0.991-5.987-1.509-8.815c-0.518-2.829-1.249-6.961-1.623-9.183-0.375-2.222-1.029-6.024-1.453-8.448-0.424-2.425-1.089-6.309-1.477-8.632-0.387-2.323-1.05-6.208-1.472-8.632s-1.013-5.964-1.314-7.867c-1.313-8.308-2.054-10.089-4.169-10.029-1.756 0.05-1.446-0.23-19.441 17.566-18.088 17.888-17.623 17.459-18.642 17.177-0.685-0.189-4.418-4.646-9.473-11.31-1.391-1.833-3.006-3.912-3.59-4.619-1.226-1.486-7.435-9.42-16.103-20.579-11.756-15.132-12.208-15.326-16.658-7.152-0.88 1.616-2.641 4.839-3.912 7.162-1.272 2.323-3.218 5.96-4.324 8.081-3.024 5.8-3.296 5.78-7.579-0.551-0.683-1.01-2.045-2.864-3.026-4.12s-2.775-3.621-3.987-5.255-2.548-3.416-2.97-3.961c-1.865-2.411-6.998-9.27-7.498-10.02-0.303-0.454-1.584-2.113-2.847-3.687-1.263-1.573-2.296-2.955-2.296-3.071s-0.62-1.001-1.377-1.968c-0.758-0.966-1.708-2.218-2.112-2.782-0.404-0.565-1.809-2.405-3.122-4.091-1.313-1.685-3.322-4.354-4.464-5.93-2.702-3.729-8.408-11.317-12.995-17.279-2.696-3.505-4.099-4.213-5.431-2.741m3.423 1.494c0 0.129 0.372 0.677 0.826 1.22 0.864 1.031 11.806 15.568 12.764 16.956 0.303 0.439 2.286 3.094 4.407 5.898 2.122 2.805 5.18 6.872 6.796 9.037 1.616 2.166 7.401 9.869 12.856 17.119 5.454 7.249 10.382 13.876 10.951 14.725 0.568 0.85 1.846 2.411 2.839 3.469l1.806 1.923 0.883-0.829c0.485-0.456 1.43-1.934 2.099-3.284 0.67-1.351 2.177-4.141 3.349-6.201s2.131-3.846 2.131-3.968c0-0.123 0.909-1.797 2.021-3.722 1.111-1.924 2.02-3.587 2.02-3.694 0-0.596 2.394-3.756 3.084-4.07 1.494-0.681 1.603-0.566 12.159 12.76 1.01 1.276 3.366 4.307 5.235 6.737 1.869 2.429 3.645 4.679 3.947 4.998 0.644 0.682 7.23 9.098 8.79 11.233 0.591 0.808 1.294 1.717 1.563 2.02s1.917 2.369 3.662 4.592c4.265 5.432 5.601 6.795 6.66 6.795 0.653 0 3.476-2.581 11.148-10.193 18.742-18.595 24.734-24.378 25.636-24.741 2.101-0.846 2.655 1.13 5.723 20.425 0.289 1.818 0.628 3.719 0.753 4.224s0.532 2.819 0.904 5.143c0.371 2.323 1.023 6.207 1.448 8.631 0.426 2.425 1 5.83 1.276 7.567 0.277 1.738 0.753 4.465 1.059 6.061 0.669 3.486 1.6 8.815 3.555 20.348 1.747 10.304 2.509 14.683 4.251 24.427 0.722 4.04 1.87 10.652 2.551 14.692s1.672 9.825 2.203 12.856c0.531 3.03 1.189 6.951 1.461 8.713 0.273 1.762 0.673 4.076 0.889 5.142 0.649 3.196 1.794 9.539 2.041 11.305 0.128 0.91 0.471 2.893 0.763 4.408 0.535 2.777 1.068 5.844 2.362 13.591 0.625 3.746 1.269 7.491 2.558 14.876 0.945 5.415 0.306 7.201-3.51 9.809-1.391 0.951-2.662 1.736-2.824 1.745-0.163 9e-3 -1.89 0.937-3.84 2.062-1.949 1.126-4.048 2.282-4.663 2.569-0.616 0.287-2.277 1.191-3.691 2.009-1.414 0.817-3.109 1.73-3.766 2.028-0.658 0.298-2.065 1.077-3.128 1.73-2.363 1.453-3.535 2.104-6.145 3.413-1.112 0.557-3.674 1.954-5.694 3.106-2.02 1.151-5.326 2.971-7.346 4.045-2.02 1.073-4.334 2.327-5.142 2.786-2.943 1.673-6.194 3.444-11.203 6.103-1.515 0.805-3.858 2.107-5.207 2.894-1.348 0.787-2.53 1.431-2.627 1.431s-1.225 0.596-2.507 1.324c-1.282 0.729-3.902 2.153-5.821 3.165s-3.672 1.987-3.895 2.166-1.132 0.712-2.02 1.186c-0.888 0.473-3.102 1.654-4.92 2.624-1.819 0.97-4.959 2.703-6.979 3.851s-5.16 2.882-6.977 3.853c-12.859 6.874-10.663 7.196-31.591-4.631-4.444-2.512-8.99-5.039-10.101-5.617-1.111-0.577-2.268-1.232-2.571-1.455-0.613-0.451-1.273-0.829-4.332-2.484-1.153-0.623-4.399-2.45-7.213-4.061-2.815-1.611-5.46-3.087-5.877-3.281-0.418-0.193-1.421-0.753-2.229-1.243-0.808-0.491-1.717-1.008-2.02-1.149s-3.997-2.211-8.209-4.599-7.741-4.342-7.843-4.342-1.817-0.991-3.812-2.204c-1.996-1.212-3.718-2.203-3.829-2.203-0.175 0-15.628-8.639-17.079-9.548-0.303-0.19-1.535-0.861-2.738-1.492-1.204-0.631-2.589-1.463-3.08-1.849s-1.048-0.702-1.238-0.702c-0.687 0-5.644-3.094-6.809-4.251-1.466-1.454-1.557-3.124-0.489-8.972 0.387-2.121 1.058-6.171 1.49-8.999 0.433-2.828 1.015-6.382 1.294-7.897s0.611-3.581 0.737-4.592c0.127-1.01 0.39-2.675 0.586-3.7 0.36-1.889 1.405-8.276 2.338-14.298 0.282-1.818 0.948-5.785 1.48-8.815 0.533-3.03 1.276-7.493 1.651-9.918 0.376-2.424 1.042-6.721 1.479-9.55 0.438-2.828 1.104-7.125 1.48-9.55 0.377-2.424 0.862-5.564 1.078-6.978 0.493-3.22 1.66-10.447 2.582-15.978 0.386-2.324 1.134-7.034 1.66-10.469 0.526-3.434 1.283-8.31 1.682-10.835 1.625-10.285 2.146-13.642 2.884-18.55 0.426-2.828 1.011-6.382 1.301-7.897 0.291-1.515 0.685-3.912 0.877-5.326s0.595-4.058 0.897-5.877c0.301-1.818 0.9-5.619 1.33-8.448 0.431-2.828 1.097-7.126 1.482-9.55 0.384-2.424 1.05-6.722 1.48-9.55 0.429-2.828 1.091-6.96 1.469-9.183 0.379-2.222 1.016-6.189 1.416-8.815 1.007-6.621 2.176-14.247 2.985-19.467 0.861-5.552 2.202-14.32 2.429-15.876 0.288-1.979 3.445-2.791 3.449-0.887" fill="#fae399"/>
<path d="m130.28 32.58c-1.057 0.274-2.405 3.825-2.662 7.012-0.125 1.558-0.453 3.659-0.728 4.669s-0.606 3.159-0.735 4.775-0.458 3.765-0.731 4.775c-0.272 1.01-0.597 3.076-0.722 4.591s-0.467 3.829-0.76 5.143c-0.294 1.313-0.782 4.04-1.085 6.06s-0.724 4.83-0.936 6.244c-0.212 1.415-0.553 3.563-0.758 4.775-0.204 1.213-0.538 3.527-0.741 5.143s-0.618 4.064-0.924 5.441c-0.305 1.376-0.702 4.066-0.883 5.976-0.181 1.911-0.482 3.76-0.669 4.109-0.186 0.35-0.515 2.387-0.731 4.528-0.215 2.142-0.55 4.311-0.744 4.821s-0.463 2.146-0.598 3.636c-0.135 1.491-0.544 4.032-0.91 5.649-0.366 1.616-0.775 4.157-0.91 5.648-0.135 1.49-0.4 3.114-0.588 3.609-0.188 0.494-0.512 2.498-0.719 4.453-0.208 1.954-0.607 4.545-0.888 5.757-0.28 1.212-0.623 3.526-0.761 5.142s-0.399 3.216-0.579 3.555-0.503 2.322-0.717 4.408c-0.215 2.085-0.536 4.242-0.714 4.793-0.179 0.552-0.519 2.7-0.757 4.775s-0.575 4.045-0.749 4.377c-0.173 0.332-0.495 2.233-0.714 4.224s-0.627 4.612-0.907 5.824-0.614 3.444-0.742 4.959c-0.129 1.515-0.398 3.292-0.599 3.949s-0.599 2.971-0.885 5.143c-0.908 6.897-1.631 11.589-2.166 14.048-0.285 1.313-0.628 3.628-0.762 5.143s-0.454 3.416-0.712 4.224c-0.257 0.808-0.575 2.461-0.706 3.673-0.238 2.192-1.192 8.182-2.253 14.141-0.306 1.717-0.71 4.279-0.899 5.694-0.188 1.414-0.597 4.058-0.907 5.877-0.31 1.818-0.906 5.454-1.324 8.08-0.418 2.627-1.072 6.511-1.454 8.632-0.864 4.801-1.736 10.145-2.397 14.692-0.28 1.92-0.704 4.654-0.943 6.077-0.594 3.537 2.258 8.249 4.993 8.249 0.263 0 0.567 0.232 0.676 0.516s0.705 0.627 1.323 0.763c0.619 0.136 1.25 0.453 1.402 0.705 0.153 0.252 1.352 1 2.665 1.661 1.314 0.662 3.049 1.598 3.857 2.082 0.808 0.483 2.031 1.14 2.717 1.46 0.686 0.319 1.483 0.816 1.771 1.104s0.748 0.524 1.022 0.524 0.734 0.236 1.022 0.524 1.085 0.782 1.771 1.099 2.404 1.242 3.818 2.058c1.415 0.815 3.15 1.766 3.857 2.114s1.368 0.738 1.469 0.867 0.763 0.507 1.47 0.839c0.707 0.333 1.946 1.012 2.754 1.508 0.809 0.497 1.966 1.164 2.572 1.482s1.763 0.977 2.571 1.463c1.644 0.99 3.017 1.636 3.474 1.636 0.167 0 0.391 0.227 0.497 0.504 0.107 0.277 0.661 0.621 1.233 0.765 0.572 0.143 1.336 0.577 1.697 0.965 0.362 0.388 0.981 0.705 1.378 0.705 0.396 0 0.72 0.147 0.72 0.327s0.62 0.606 1.377 0.947c1.687 0.758 3.286 1.646 4.49 2.494 0.499 0.352 1.202 0.64 1.561 0.64s0.653 0.163 0.653 0.362 0.537 0.621 1.193 0.938c1.596 0.769 3.2 1.689 4.306 2.468 0.5 0.351 1.202 0.639 1.561 0.639s0.653 0.171 0.653 0.381c0 0.209 0.703 0.708 1.561 1.109 0.859 0.4 2.718 1.384 4.133 2.186 1.414 0.802 3.067 1.715 3.673 2.029s2.176 1.222 3.489 2.018c1.313 0.795 2.594 1.449 2.847 1.453 0.252 4e-3 0.459 0.156 0.459 0.338 0 0.183 0.454 0.521 1.01 0.753 0.555 0.231 1.836 0.901 2.847 1.487 1.01 0.587 2.291 1.256 2.846 1.488 0.556 0.231 1.01 0.552 1.01 0.712s0.62 0.567 1.378 0.904c0.757 0.337 2.038 1.009 2.846 1.494s1.965 1.133 2.572 1.441c1.176 0.596 1.988 1.078 3.544 2.103 0.535 0.353 1.391 0.746 1.902 0.874 0.51 0.128 1.01 0.445 1.109 0.704s0.648 0.587 1.22 0.73 1.347 0.536 1.721 0.874c1.026 0.924 9.393 0.901 10.42-0.029 0.391-0.354 0.965-0.643 1.275-0.643s0.98-0.327 1.489-0.727c0.508-0.4 1.316-0.904 1.794-1.121 0.479-0.216 1.531-0.794 2.339-1.284s1.883-1.065 2.388-1.278c1.202-0.506 1.389-0.606 3.122-1.665 0.808-0.494 1.965-1.147 2.571-1.451s1.928-1.054 2.938-1.667c1.011-0.613 2.292-1.29 2.847-1.506 0.556-0.216 1.01-0.515 1.01-0.665s0.661-0.472 1.469-0.714 1.47-0.573 1.47-0.737c0-0.163 0.619-0.574 1.377-0.913s1.956-0.948 2.663-1.355c3.82-2.196 6.569-3.707 7.714-4.238 0.707-0.328 1.368-0.724 1.469-0.881 0.101-0.156 0.762-0.548 1.469-0.869 0.707-0.322 1.534-0.736 1.837-0.921 0.303-0.184 0.964-0.519 1.469-0.745 1.474-0.657 3.479-1.922 3.612-2.279 0.067-0.18 0.417-0.328 0.777-0.328s1.074-0.331 1.588-0.735 1.092-0.734 1.286-0.734c0.193 0 0.758-0.321 1.256-0.712 0.498-0.392 1.36-0.826 1.916-0.966 0.556-0.139 1.098-0.48 1.204-0.757s0.484-0.504 0.839-0.504 1.04-0.308 1.522-0.684 1.247-0.8 1.7-0.942 1.032-0.454 1.286-0.694c0.253-0.239 1.535-0.987 2.849-1.662 1.313-0.675 3.048-1.617 3.856-2.093s1.883-1.04 2.388-1.252 1.166-0.551 1.469-0.752 1.171-0.632 1.928-0.958c0.758-0.326 1.378-0.715 1.378-0.864 0-0.15 0.62-0.545 1.377-0.878 0.758-0.333 2.535-1.262 3.949-2.063s3.191-1.729 3.948-2.061c0.758-0.332 1.378-0.738 1.378-0.902s0.484-0.405 1.076-0.535 1.271-0.47 1.509-0.757c0.238-0.286 1.613-1.106 3.056-1.821 2.526-1.252 3.154-1.582 4.552-2.39 0.353-0.205 1.304-0.709 2.112-1.12 3.581-1.821 4.224-2.209 4.224-2.552 0-0.2 0.308-0.364 0.685-0.364s1.105-0.331 1.619-0.735c0.513-0.404 1.073-0.737 1.243-0.741 0.588-0.013 3.601-2.239 4.797-3.545 2.044-2.231 2.37-5.563 1.037-10.59-0.268-1.01-0.576-2.797-0.686-3.971-0.109-1.174-0.457-3.24-0.773-4.591-0.596-2.553-1.385-7.069-2.225-12.742-0.269-1.818-0.666-4.132-0.881-5.142-0.351-1.648-0.988-5.381-1.913-11.203-0.413-2.604-1.361-7.881-2.044-11.387-0.295-1.515-0.852-4.655-1.237-6.979-0.385-2.323-1.038-6.207-1.452-8.631-0.415-2.425-0.991-5.896-1.282-7.714s-0.777-4.628-1.08-6.244c-0.862-4.592-1.977-11.204-2.229-13.223-0.126-1.01-0.456-2.581-0.733-3.49s-0.615-2.795-0.751-4.192-0.478-3.298-0.759-4.224c-0.281-0.927-0.516-2.263-0.523-2.97-6e-3 -0.707-0.252-2.36-0.546-3.673s-0.716-3.793-0.938-5.51c-0.223-1.717-0.628-3.949-0.9-4.959-0.273-1.01-0.607-2.985-0.744-4.389-0.136-1.405-0.39-2.926-0.563-3.382s-0.565-2.73-0.869-5.055c-0.305-2.324-0.716-4.521-0.912-4.882-0.197-0.362-0.54-2.21-0.762-4.108-0.222-1.897-0.542-3.716-0.711-4.04s-0.427-1.912-0.574-3.528c-0.146-1.617-0.484-3.6-0.75-4.408-0.267-0.808-0.6-2.792-0.741-4.408-0.14-1.616-0.464-3.449-0.72-4.073-0.255-0.624-0.585-2.525-0.732-4.224-0.148-1.699-0.487-3.751-0.754-4.559s-0.6-2.709-0.74-4.224c-0.535-5.794-3.217-8.048-6.626-5.57-0.788 0.573-6.667 6.234-13.065 12.58-6.399 6.347-12.762 12.646-14.142 14-1.379 1.353-3.3 3.295-4.268 4.315-0.968 1.021-1.898 1.856-2.067 1.856s-0.534 0.341-0.812 0.759c-0.671 1.01-1.327 0.688-2.889-1.417-0.705-0.951-1.49-1.862-1.744-2.023-0.254-0.162-0.465-0.492-0.468-0.735-4e-3 -0.242-0.435-0.847-0.959-1.344s-1.379-1.489-1.9-2.204c-2.76-3.785-3.868-5.157-4.163-5.157-0.278 0 3.067 4.548 4.592 6.244 0.272 0.303 1.296 1.626 2.275 2.939 2.159 2.895 4.056 4.775 4.822 4.775 0.313 0 5.019-4.422 10.458-9.826 30.426-30.228 28.513-29.179 30.623-16.804 4.22 24.755 5.295 31.023 6.207 36.18 0.936 5.292 3.871 22.242 4.262 24.609 0.217 1.314 0.711 4.206 1.098 6.428 0.388 2.223 1.052 6.107 1.476 8.632s1.005 5.749 1.29 7.163c0.286 1.414 0.779 4.141 1.096 6.06s0.907 5.391 1.311 7.714 0.965 5.629 1.248 7.346c0.282 1.717 0.946 5.601 1.474 8.632 0.529 3.03 1.206 7.08 1.505 8.999 0.298 1.919 0.766 4.481 1.04 5.693 0.273 1.212 0.609 3.113 0.747 4.224 0.137 1.111 0.394 2.599 0.571 3.306s0.576 2.938 0.885 4.959c0.623 4.058 1.404 8.738 2.209 13.223 1.426 7.953 2.05 11.613 2.394 14.024 0.206 1.45 0.528 3.041 0.716 3.535 0.688 1.809 1.239 9.521 0.797 11.154-0.55 2.03-2.706 3.851-7.565 6.389-1.212 0.634-2.384 1.299-2.604 1.478-0.22 0.18-1.377 0.844-2.571 1.476-1.194 0.631-3.328 1.774-4.742 2.539-1.414 0.764-3.315 1.786-4.224 2.271-0.909 0.484-2.066 1.152-2.571 1.485-0.838 0.552-3.373 1.915-10.469 5.63-1.414 0.74-2.653 1.459-2.754 1.598s-0.845 0.581-1.653 0.983-2.544 1.321-3.857 2.042-3.379 1.848-4.591 2.504c-1.213 0.656-3.308 1.836-4.656 2.621s-2.559 1.428-2.691 1.428c-0.131 0-1.367 0.659-2.746 1.464s-3.556 2.02-4.839 2.7-3.406 1.847-4.719 2.593c-1.314 0.746-3.049 1.678-3.857 2.07-0.808 0.393-1.717 0.874-2.02 1.07-0.805 0.52-8.471 4.771-12.305 6.824-4.584 2.454-6.28 3.385-13.407 7.357-15.885 8.853-16.015 8.871-25.528 3.48-2.424-1.374-5.73-3.198-7.346-4.053-1.616-0.856-3.187-1.768-3.49-2.027s-1.542-0.989-2.755-1.621c-1.212-0.632-2.451-1.303-2.754-1.49-0.838-0.519-16.634-9.382-17.264-9.687-0.303-0.147-1.212-0.666-2.02-1.153s-1.965-1.146-2.571-1.465c-0.606-0.318-1.763-0.976-2.571-1.462-0.809-0.486-2.429-1.391-3.602-2.012s-5.007-2.777-8.52-4.792-7.347-4.172-8.519-4.792c-1.173-0.621-2.794-1.515-3.602-1.987-0.808-0.473-2.13-1.204-2.938-1.627-0.808-0.422-2.048-1.129-2.755-1.572-0.707-0.442-2.36-1.379-3.673-2.083s-2.826-1.543-3.362-1.864c-0.535-0.321-2.106-1.213-3.489-1.981-1.384-0.769-2.764-1.552-3.067-1.74s-1.046-0.588-1.653-0.89c-0.606-0.302-1.349-0.712-1.652-0.911s-1.517-0.905-2.696-1.569c-1.18-0.663-2.75-1.567-3.49-2.007-0.739-0.441-1.878-1.051-2.53-1.356-1.311-0.612-1.484-0.736-3.575-2.555-1.78-1.549-2.081-4.078-1.166-9.797 0.307-1.919 0.733-4.646 0.946-6.061 0.213-1.414 0.718-4.472 1.121-6.795s1.054-6.207 1.446-8.632c0.392-2.424 1.062-6.556 1.489-9.182 0.841-5.185 1.76-10.897 2.955-18.366 0.42-2.626 1.025-6.18 1.345-7.897s0.717-4.196 0.882-5.51c0.165-1.313 0.552-3.875 0.859-5.693 0.669-3.957 1.462-8.955 2.449-15.427 0.4-2.626 1.053-6.841 1.451-9.366 0.398-2.526 0.974-6.41 1.279-8.632s0.649-4.288 0.765-4.591 0.513-2.535 0.884-4.959c0.37-2.424 1.005-6.557 1.412-9.183 0.406-2.626 0.999-6.51 1.316-8.632 0.317-2.121 0.816-5.261 1.108-6.978 0.293-1.718 0.721-4.362 0.953-5.877 1.117-7.29 1.837-11.856 2.346-14.876 1.052-6.241 1.642-9.928 2.584-16.162 0.519-3.434 1.177-7.567 1.463-9.183 0.285-1.616 0.621-3.847 0.746-4.958 0.126-1.112 0.458-3.26 0.737-4.776 0.28-1.515 0.612-3.663 0.738-4.775 0.125-1.111 0.535-3.673 0.91-5.693 0.829-4.465 1.32-7.601 1.985-12.672 0.279-2.121 0.679-4.518 0.891-5.326s0.494-2.626 0.628-4.04c0.135-1.415 0.47-3.646 0.745-4.959s0.673-3.875 0.883-5.693c1.17-10.104 3.626-11.258 8.532-4.007 0.696 1.029 1.644 2.269 2.107 2.755 0.726 0.762 1.583 1.933 3.151 4.305 0.202 0.305 0.581 0.818 0.843 1.138 2.676 3.281 7.121 9.218 7.972 10.646 0.202 0.339 0.575 0.858 0.829 1.154 0.777 0.903 3.912 4.992 4.497 5.864 0.303 0.451 1.336 1.814 2.296 3.028 0.959 1.214 1.745 2.315 1.745 2.446s0.482 0.767 1.071 1.412 1.622 1.953 2.296 2.908c0.673 0.954 1.513 2.033 1.867 2.398 1.174 1.212 0.645 0.142-1.02-2.064-0.904-1.196-1.643-2.312-1.643-2.479s-0.248-0.303-0.551-0.303-0.556-0.207-0.561-0.459c-8e-3 -0.393-0.911-1.706-3.85-5.602-0.305-0.404-0.966-1.254-1.469-1.889-0.504-0.636-0.915-1.332-0.915-1.549 0-0.216-0.331-0.57-0.735-0.786s-0.735-0.553-0.735-0.747c0-0.195-0.289-0.669-0.642-1.052-0.354-0.384-1.056-1.309-1.562-2.056-0.505-0.747-1.207-1.627-1.561-1.956-0.353-0.328-0.642-0.799-0.642-1.048 0-0.248-0.207-0.583-0.459-0.744-0.253-0.162-1.029-1.121-1.726-2.131-0.696-1.01-1.481-1.968-1.744-2.13-0.264-0.161-0.479-0.525-0.479-0.808s-0.26-0.66-0.578-0.838-0.772-0.651-1.01-1.051c-1.339-2.254-2.196-3.437-2.489-3.437-0.182 0-0.331-0.211-0.331-0.469 0-0.259-0.289-0.738-0.643-1.067-0.353-0.328-1.056-1.208-1.561-1.955s-1.207-1.672-1.561-2.056c-0.353-0.383-0.643-0.801-0.643-0.927s-0.831-1.035-1.848-2.02c-1.766-1.711-2.281-1.921-3.771-1.534m36.798 46.116c0.819 1.061 1.744 2.259 2.056 2.663 0.311 0.404 0.812 1.065 1.112 1.469s1.036 1.396 1.636 2.204c1.279 1.723 1.677 2.25 3.771 4.997 0.863 1.132 1.899 2.505 2.303 3.051 5.252 7.096 7.725 10.212 8.386 10.564 0.957 0.51 0.529-0.114-1.485-2.164-0.649-0.661-1.366-1.55-1.594-1.975-0.228-0.426-2.176-3.085-4.329-5.909-2.154-2.824-4.161-5.493-4.461-5.931s-1.174-1.623-1.942-2.633c-0.767-1.01-1.679-2.215-2.025-2.677-0.347-0.463-0.961-1.242-1.365-1.732s-1.2-1.558-1.769-2.373c-0.568-0.815-1.202-1.482-1.408-1.482s0.295 0.867 1.114 1.928m34.386-0.471c-1.191 0.502-4.207 4.454-4.214 5.522-1e-3 0.303 0.437-0.193 0.974-1.102 1.579-2.672 2.687-3.829 4.109-4.288 0.734-0.237 1.005-0.433 0.6-0.436-0.404-3e-3 -1.065 0.134-1.469 0.304m4.567 2.148c1.819 1.901 8.576 10.347 14.451 18.066 2.581 3.391 4.836 5.951 4.354 4.944-0.197-0.412-0.908-1.367-1.58-2.122s-1.884-2.29-2.692-3.411c-0.808-1.122-2.015-2.646-2.683-3.388s-1.457-1.804-1.754-2.359c-0.297-0.556-0.666-1.01-0.819-1.01s-0.549-0.455-0.88-1.01c-0.33-0.556-1.069-1.552-1.64-2.213-0.572-0.662-1.325-1.571-1.675-2.021-3.317-4.265-4.537-5.736-5.476-6.602-1.963-1.809-1.702-1.064 0.394 1.126m-9.848 5.074c-0.611 1.342-0.344 1.417 0.404 0.112 0.341-0.593 0.488-1.078 0.328-1.078s-0.49 0.435-0.732 0.966m-1.372 2.535c-0.335 0.511-0.536 1.002-0.448 1.091 0.089 0.088 0.451-0.33 0.805-0.93 0.785-1.328 0.494-1.459-0.357-0.161m-1.39 2.434c-0.324 0.462-0.588 1.093-0.587 1.401 1e-3 0.309 0.34 5e-3 0.754-0.674 0.86-1.41 0.724-1.999-0.167-0.727m-2.418 4.628c-0.703 1.362-1.583 2.934-1.957 3.492-0.373 0.559-0.613 1.214-0.532 1.456 0.081 0.243 0.6-0.462 1.154-1.566 1.169-2.329 1.603-3.104 2.507-4.472 0.718-1.087 0.803-1.394 0.382-1.389-0.152 2e-3 -0.851 1.117-1.554 2.479m-3.459 6.391c-0.324 0.462-0.588 1.093-0.587 1.402 1e-3 0.308 0.34 5e-3 0.754-0.675 0.86-1.409 0.724-1.999-0.167-0.727m37.612 3.248c0 0.202 0.13 0.368 0.288 0.368 0.263 0 1.191 1.127 3.201 3.887 1.796 2.466 3.593 4.579 3.756 4.416 0.098-0.097-0.589-1.138-1.526-2.312-0.938-1.174-1.988-2.503-2.335-2.952-0.346-0.45-1.084-1.347-1.64-1.995-0.555-0.647-1.01-1.312-1.01-1.478s-0.165-0.301-0.367-0.301-0.367 0.165-0.367 0.367" fill="#fcf3c8"/>
<path d="m130.49 33.238c-0.657 0.286-1.194 0.718-1.194 0.961 0 0.273 0.276 0.192 0.722-0.211 0.453-0.41 1.069-0.587 1.656-0.475 0.757 0.145 0.855 0.084 0.519-0.322-0.229-0.275-0.437-0.494-0.463-0.486-0.025 8e-3 -0.584 0.248-1.24 0.533m7.631 7.024c0.012 0.374 2.169 3.014 2.184 2.672 6e-3 -0.124-0.486-0.849-1.092-1.612-0.606-0.762-1.097-1.24-1.092-1.06m-11.192 6.958c-0.138 0.737-0.178 1.413-0.088 1.503 0.089 0.09 0.276-0.44 0.414-1.177 0.139-0.737 0.178-1.414 0.089-1.503-0.09-0.09-0.277 0.44-0.415 1.177m20.361 5.397c0.868 1.162 1.646 2.112 1.728 2.112 0.264 0-2.009-3.148-2.668-3.694-0.352-0.292 0.071 0.42 0.94 1.582m-22.155 5.378c-0.136 0.678-0.229 1.585-0.207 2.014 0.023 0.429 0.187 0.037 0.366-0.872s0.272-1.816 0.207-2.015c-0.066-0.199-0.23 0.194-0.366 0.873m-1.113 7.831c-0.124 0.462-0.211 1.171-0.194 1.575 0.018 0.404 0.183 0.09 0.368-0.698 0.358-1.526 0.205-2.295-0.174-0.877m37.578 5.963c0.485 0.516 0.937 0.938 1.005 0.938 0.331 0-0.858-1.482-1.337-1.666-0.302-0.116-0.153 0.211 0.332 0.728m-39.217 4.045c-0.238 1.187-0.418 2.502-0.399 2.923s0.266-0.392 0.548-1.806 0.462-2.729 0.399-2.923-0.309 0.619-0.548 1.806m42.151-0.076c2.018 2.486 2.27 2.708 1.251 1.102-0.545-0.859-1.133-1.562-1.307-1.562s-0.149 0.207 0.056 0.46m37.077 2.78c-1.251 0.525-4.656 5.887-8.205 12.922-0.56 1.111-1.396 2.681-1.856 3.489-0.461 0.809-1.39 2.544-2.066 3.857-0.675 1.313-1.574 3.011-1.999 3.772l-0.772 1.385-1.068-0.8-1.069-0.8 1.008 1.057c1.271 1.334 1.362 1.247 4.034-3.879 1.106-2.121 3.052-5.758 4.324-8.081 1.271-2.323 3.032-5.546 3.912-7.162 4.45-8.174 4.902-7.98 16.658 7.152 8.548 11.005 14.864 19.077 16.101 20.579 0.582 0.707 2.185 2.774 3.563 4.592s3.907 5.041 5.621 7.162c1.715 2.121 3.131 3.878 3.149 3.903 0.018 0.026 0.445 0.158 0.95 0.293 0.851 0.229 0.864 0.214 0.184-0.205-1.1-0.677-2.391-2.07-4.378-4.725-0.983-1.313-2.009-2.636-2.281-2.939-0.602-0.672-7.745-9.775-8.768-11.175-2.054-2.81-2.939-3.884-3.201-3.884-0.158 0-0.288-0.167-0.288-0.371s-1.364-2.092-3.031-4.196c-1.666-2.103-5.509-7.01-8.54-10.904-8.337-10.713-9.721-11.989-11.982-11.042m-34.116 1.076c0.481 0.657 0.931 1.194 1.001 1.194 0.279 0-0.631-1.378-1.234-1.867-0.396-0.322-0.308-0.065 0.233 0.673m-46.814 6.904c-0.141 0.937-0.18 1.779-0.089 1.871 0.092 0.091 0.282-0.6 0.423-1.537 0.14-0.937 0.18-1.779 0.088-1.87-0.092-0.092-0.282 0.599-0.422 1.536m56.677 6.258c0.365 0.729 1.525 1.902 1.525 1.541 0-0.094-0.429-0.652-0.954-1.239-0.636-0.712-0.826-0.812-0.571-0.302m-58.146 3.292c-0.141 0.937-0.181 1.779-0.089 1.871 0.092 0.091 0.282-0.6 0.423-1.537 0.14-0.937 0.18-1.779 0.088-1.87-0.092-0.092-0.282 0.599-0.422 1.536m62.532 2.555c0.209 0.404 0.987 1.395 1.728 2.203l1.349 1.47-1.39-1.837c-1.746-2.308-2.169-2.769-1.687-1.836m-65.471 16.178c-0.14 0.937-0.18 1.779-0.088 1.87 0.091 0.092 0.282-0.599 0.422-1.536 0.141-0.937 0.18-1.779 0.089-1.871-0.092-0.091-0.282 0.6-0.423 1.537m-1.279 8.087c-0.263 1.32-0.405 2.472-0.317 2.561 0.089 0.088 0.376-0.92 0.638-2.24 0.263-1.32 0.405-2.472 0.317-2.561-0.089-0.088-0.376 0.92-0.638 2.24m-1.659 10.278c-0.141 0.937-0.181 1.779-0.089 1.871s0.282-0.6 0.423-1.537c0.14-0.937 0.18-1.778 0.088-1.87s-0.282 0.599-0.422 1.536m-1.486 9.35c-0.141 0.835-0.174 1.601-0.073 1.702s0.299-0.499 0.44-1.335c0.141-0.835 0.174-1.601 0.073-1.702s-0.299 0.5-0.44 1.335m-1.453 9.383c-0.14 0.937-0.18 1.779-0.088 1.871 0.092 0.091 0.282-0.6 0.422-1.537 0.141-0.937 0.18-1.779 0.089-1.87-0.092-0.092-0.282 0.599-0.423 1.536m-1.469 9.55c-0.141 0.937-0.18 1.779-0.089 1.871 0.092 0.092 0.282-0.6 0.423-1.537 0.14-0.937 0.18-1.779 0.088-1.87-0.091-0.092-0.282 0.599-0.422 1.536m-1.506 9.146c-0.139 0.737-0.16 1.432-0.048 1.544s0.317-0.399 0.456-1.136c0.138-0.737 0.159-1.432 0.047-1.544-0.112-0.113-0.317 0.399-0.455 1.136m-0.813 5.714c0 0.707 0.076 0.996 0.168 0.642 0.092-0.353 0.092-0.932 0-1.285-0.092-0.354-0.168-0.065-0.168 0.643m-0.636 3.673c-0.141 0.835-0.18 1.595-0.086 1.69 0.095 0.094 0.282-0.518 0.416-1.36 0.135-0.842 0.173-1.602 0.086-1.69-0.088-0.087-0.275 0.524-0.416 1.36m-1.433 9.219c-0.134 0.842-0.173 1.602-0.085 1.69s0.275-0.524 0.416-1.359c0.141-0.836 0.179-1.596 0.085-1.69s-0.281 0.517-0.416 1.359m-1.469 9.55c-0.135 0.842-0.173 1.602-0.085 1.69 0.087 0.088 0.274-0.524 0.416-1.359 0.141-0.836 0.179-1.596 0.085-1.69s-0.281 0.517-0.416 1.359m-0.87 5.84c0 0.707 0.076 0.997 0.168 0.643 0.093-0.353 0.093-0.932 0-1.285-0.092-0.354-0.168-0.065-0.168 0.642m-0.636 3.673c-0.141 0.836-0.174 1.602-0.073 1.703s0.299-0.5 0.44-1.335c0.141-0.836 0.174-1.602 0.073-1.703s-0.299 0.5-0.44 1.335m-1.627 10.128c-0.252 1.128-0.376 2.134-0.274 2.235 0.101 0.101 0.378-0.751 0.615-1.894 0.238-1.143 0.361-2.149 0.275-2.235-0.086-0.087-0.363 0.766-0.616 1.894m-0.675 4.198c0 0.707 0.075 0.996 0.168 0.642 0.092-0.353 0.092-0.932 0-1.285-0.093-0.354-0.168-0.065-0.168 0.643m-0.6 3.709c-0.134 0.842-0.173 1.603-0.085 1.69 0.088 0.088 0.275-0.524 0.416-1.359s0.179-1.596 0.085-1.69-0.281 0.518-0.416 1.359m-1.469 9.183c-0.135 0.842-0.173 1.602-0.085 1.69 0.087 0.088 0.275-0.524 0.416-1.359 0.141-0.836 0.179-1.596 0.085-1.69s-0.281 0.517-0.416 1.359m-2.339 14.288c0 0.708 0.076 0.997 0.168 0.643 0.092-0.353 0.092-0.932 0-1.285-0.092-0.354-0.168-0.065-0.168 0.642m-2.069 12.893c-0.134 0.842-0.173 1.602-0.085 1.69s0.275-0.524 0.416-1.359c0.141-0.836 0.179-1.596 0.085-1.69-0.094-0.095-0.281 0.517-0.416 1.359m-0.771 3.636c-0.141 0.836-0.18 1.596-0.085 1.69 0.094 0.094 0.281-0.517 0.416-1.359 0.134-0.842 0.173-1.602 0.085-1.69s-0.275 0.524-0.416 1.359m-1.082 7.183c-0.138 0.737-0.177 1.414-0.088 1.504 0.09 0.09 0.277-0.44 0.415-1.177s0.178-1.414 0.088-1.504c-0.09-0.089-0.276 0.44-0.415 1.177m-0.853 6.408c0 0.707 0.076 0.996 0.168 0.643 0.092-0.354 0.092-0.932 0-1.286s-0.168-0.064-0.168 0.643" fill="#f4e4c4"/>
</g>
</svg>
