<svg id="svg" version="1.1" width="400" height="367.28624535315987" viewBox="0 0 400 367.28624535315987" xmlns="http://www.w3.org/2000/svg" xmlns:xlink="http://www.w3.org/1999/xlink" ><g id="svgg"><path id="path0" d="M130.825 34.745 C 130.403 35.041,129.979 35.815,129.885 36.466 C 129.658 38.022,128.317 46.790,127.456 52.342 C 126.647 57.562,125.478 65.188,124.471 71.809 C 124.071 74.435,123.434 78.402,123.055 80.624 C 122.677 82.847,122.015 86.979,121.586 89.807 C 121.156 92.635,120.490 96.933,120.106 99.357 C 119.721 101.781,119.055 106.079,118.624 108.907 C 118.194 111.736,117.595 115.537,117.294 117.355 C 116.992 119.174,116.589 121.818,116.397 123.232 C 116.205 124.646,115.811 127.043,115.520 128.558 C 115.230 130.073,114.645 133.627,114.219 136.455 C 113.481 141.363,112.960 144.720,111.335 155.005 C 110.936 157.530,110.179 162.406,109.653 165.840 C 109.127 169.275,108.379 173.985,107.993 176.309 C 107.071 181.840,105.904 189.067,105.411 192.287 C 105.195 193.701,104.710 196.841,104.333 199.265 C 103.957 201.690,103.291 205.987,102.853 208.815 C 102.416 211.644,101.750 215.941,101.374 218.365 C 100.999 220.790,100.256 225.253,99.723 228.283 C 99.191 231.313,98.525 235.280,98.243 237.098 C 97.310 243.120,96.265 249.507,95.905 251.396 C 95.709 252.421,95.446 254.086,95.319 255.096 C 95.193 256.107,94.861 258.173,94.582 259.688 C 94.303 261.203,93.721 264.757,93.288 267.585 C 92.856 270.413,92.185 274.463,91.798 276.584 C 90.730 282.432,90.821 284.102,92.287 285.556 C 93.452 286.713,98.409 289.807,99.096 289.807 C 99.286 289.807,99.843 290.123,100.334 290.509 C 100.825 290.895,102.210 291.727,103.414 292.358 C 104.617 292.989,105.849 293.660,106.152 293.850 C 107.603 294.759,123.056 303.398,123.231 303.398 C 123.342 303.398,125.064 304.389,127.060 305.601 C 129.055 306.814,130.770 307.805,130.872 307.805 C 130.974 307.805,134.503 309.759,138.715 312.147 C 142.927 314.535,146.621 316.605,146.924 316.746 C 147.227 316.887,148.136 317.404,148.944 317.895 C 149.752 318.385,150.755 318.945,151.173 319.138 C 151.590 319.332,154.235 320.808,157.050 322.419 C 159.864 324.030,163.110 325.857,164.263 326.480 C 167.322 328.135,167.982 328.513,168.595 328.964 C 168.898 329.187,170.055 329.842,171.166 330.419 C 172.277 330.997,176.823 333.524,181.267 336.036 C 200.511 346.911,200.900 347.025,207.287 343.636 C 213.543 340.317,216.479 338.721,219.835 336.814 C 221.855 335.666,224.995 333.933,226.814 332.963 C 228.632 331.993,230.846 330.812,231.734 330.339 C 232.622 329.865,233.531 329.332,233.754 329.153 C 233.977 328.974,235.730 327.999,237.649 326.987 C 239.568 325.975,242.188 324.551,243.470 323.822 C 244.752 323.094,245.880 322.498,245.977 322.498 C 246.074 322.498,247.256 321.854,248.604 321.067 C 249.953 320.280,252.296 318.978,253.811 318.173 C 258.820 315.514,262.071 313.743,265.014 312.070 C 265.822 311.611,268.136 310.357,270.156 309.284 C 272.176 308.210,275.482 306.390,277.502 305.239 C 279.522 304.087,282.084 302.690,283.196 302.133 C 285.806 300.824,286.978 300.173,289.341 298.720 C 290.404 298.067,291.811 297.288,292.469 296.990 C 293.126 296.692,294.821 295.779,296.235 294.962 C 297.649 294.144,299.310 293.240,299.926 292.953 C 300.541 292.666,302.640 291.510,304.589 290.384 C 306.539 289.259,308.266 288.331,308.429 288.322 C 308.591 288.313,309.862 287.528,311.253 286.577 C 315.069 283.969,315.708 282.183,314.763 276.768 C 313.474 269.383,312.830 265.638,312.205 261.892 C 310.911 254.145,310.378 251.078,309.843 248.301 C 309.551 246.786,309.208 244.803,309.080 243.893 C 308.833 242.127,307.688 235.784,307.039 232.588 C 306.823 231.522,306.423 229.208,306.150 227.446 C 305.878 225.684,305.220 221.763,304.689 218.733 C 304.158 215.702,303.167 209.917,302.486 205.877 C 301.805 201.837,300.657 195.225,299.935 191.185 C 298.193 181.441,297.431 177.062,295.684 166.758 C 293.729 155.225,292.798 149.896,292.129 146.410 C 291.823 144.814,291.347 142.087,291.070 140.349 C 290.794 138.612,290.220 135.207,289.794 132.782 C 289.369 130.358,288.717 126.474,288.346 124.151 C 287.974 121.827,287.567 119.513,287.442 119.008 C 287.317 118.503,286.978 116.602,286.689 114.784 C 283.621 95.489,283.067 93.513,280.966 94.359 C 280.064 94.722,274.074 100.503,255.289 119.140 C 245.709 128.645,244.896 129.362,243.867 129.211 C 243.047 129.090,242.809 129.176,242.950 129.542 C 243.152 130.071,216.882 156.485,157.392 215.568 C 138.200 234.628,115.847 256.850,107.718 264.950 C 96.514 276.113,92.834 279.574,92.512 279.252 C 91.976 278.716,92.730 274.651,93.620 273.278 C 94.015 272.669,94.280 271.186,94.407 268.871 C 94.572 265.877,94.640 265.590,94.887 266.850 C 95.046 267.658,95.253 268.698,95.349 269.161 C 95.555 270.161,96.068 269.955,96.370 268.752 C 96.488 268.278,97.009 267.161,97.527 266.269 C 98.045 265.377,98.600 264.399,98.762 264.096 C 98.923 263.792,99.323 263.049,99.650 262.443 C 99.977 261.837,100.518 260.721,100.851 259.963 C 101.184 259.206,101.605 258.586,101.785 258.586 C 101.965 258.586,102.112 258.371,102.112 258.108 C 102.112 257.432,102.976 255.654,103.306 255.650 C 103.457 255.649,103.581 255.327,103.581 254.934 C 103.581 254.542,103.727 254.131,103.906 254.021 C 104.084 253.910,104.599 253.033,105.050 252.071 C 105.501 251.109,105.975 250.239,106.103 250.138 C 106.426 249.883,107.336 248.236,108.946 244.995 C 109.699 243.480,110.429 242.158,110.568 242.057 C 110.707 241.956,111.020 241.264,111.262 240.520 C 111.505 239.775,111.818 239.114,111.958 239.050 C 112.098 238.987,112.706 237.943,113.309 236.731 C 113.912 235.519,114.641 234.237,114.929 233.882 C 115.601 233.056,116.004 232.330,118.088 228.202 C 119.028 226.340,120.182 224.249,120.651 223.557 C 121.121 222.865,121.618 221.946,121.754 221.515 C 121.891 221.084,122.569 219.872,123.260 218.822 C 123.952 217.772,124.518 216.728,124.518 216.502 C 124.518 216.277,124.848 215.793,125.253 215.427 C 125.657 215.061,125.987 214.480,125.987 214.134 C 125.987 213.789,126.283 213.112,126.645 212.630 C 127.006 212.148,127.501 211.341,127.744 210.836 C 127.987 210.331,128.335 209.669,128.516 209.366 C 128.698 209.063,129.038 208.402,129.272 207.897 C 130.190 205.910,130.895 204.762,131.369 204.481 C 131.641 204.320,131.864 203.865,131.864 203.471 C 131.864 203.077,132.195 202.424,132.599 202.020 C 133.003 201.616,133.333 201.060,133.333 200.784 C 133.333 200.508,133.654 199.875,134.045 199.378 C 134.437 198.880,134.868 198.029,135.004 197.487 C 135.141 196.945,135.452 196.379,135.696 196.230 C 136.169 195.943,137.741 192.864,137.741 192.227 C 137.741 192.020,138.062 191.559,138.455 191.203 C 138.847 190.848,139.273 190.081,139.401 189.498 C 139.529 188.915,139.804 188.333,140.011 188.205 C 140.218 188.077,140.620 187.414,140.906 186.732 C 141.191 186.050,141.569 185.491,141.746 185.491 C 141.922 185.491,142.177 184.904,142.312 184.186 C 142.446 183.469,142.785 182.794,143.065 182.686 C 143.344 182.579,143.681 181.998,143.814 181.395 C 143.946 180.793,144.277 180.214,144.548 180.110 C 144.820 180.006,145.144 179.455,145.269 178.887 C 145.394 178.319,145.817 177.563,146.210 177.208 C 146.603 176.853,146.924 176.324,146.924 176.034 C 146.924 175.744,147.254 175.086,147.658 174.572 C 148.062 174.059,148.393 173.424,148.393 173.163 C 148.393 172.902,148.610 172.470,148.876 172.203 C 149.141 171.936,149.808 170.725,150.359 169.513 C 150.909 168.301,151.522 167.062,151.720 166.758 C 151.919 166.455,152.331 165.663,152.636 164.998 C 152.941 164.332,153.434 163.695,153.731 163.581 C 154.027 163.467,154.270 163.046,154.270 162.645 C 154.270 162.244,154.601 161.495,155.005 160.982 C 155.409 160.468,155.739 159.848,155.739 159.603 C 155.739 159.359,156.060 158.868,156.453 158.513 C 156.846 158.158,157.269 157.400,157.395 156.828 C 157.520 156.257,157.850 155.602,158.127 155.372 C 158.404 155.142,158.737 154.469,158.867 153.877 C 158.997 153.285,159.230 152.801,159.386 152.801 C 159.541 152.801,159.945 152.181,160.284 151.423 C 161.434 148.854,162.355 147.291,162.721 147.291 C 162.921 147.291,163.085 146.909,163.085 146.442 C 163.085 145.975,163.416 145.238,163.820 144.805 C 164.224 144.371,164.555 143.704,164.555 143.323 C 164.555 142.942,164.885 142.331,165.289 141.965 C 165.693 141.599,166.024 140.995,166.024 140.623 C 166.024 140.250,166.350 139.619,166.749 139.220 C 167.148 138.821,167.583 138.064,167.715 137.537 C 167.847 137.011,168.182 136.493,168.459 136.387 C 168.736 136.280,168.962 135.903,168.962 135.547 C 168.962 135.192,169.283 134.494,169.674 133.997 C 170.066 133.499,170.494 132.662,170.626 132.137 C 170.757 131.612,171.098 131.093,171.383 130.984 C 171.668 130.875,171.901 130.626,171.901 130.430 C 171.901 129.920,172.518 128.597,173.545 126.905 C 174.440 125.431,174.957 124.441,175.368 123.416 C 175.489 123.113,175.982 122.204,176.463 121.396 C 176.943 120.588,177.966 118.646,178.735 117.080 C 179.504 115.514,180.251 114.233,180.395 114.233 C 180.540 114.233,180.764 113.749,180.894 113.157 C 181.024 112.565,181.376 111.877,181.676 111.628 C 181.975 111.379,182.720 110.140,183.330 108.875 C 184.151 107.174,184.710 106.480,185.475 106.213 L 186.510 105.852 184.739 103.966 C 183.764 102.928,182.502 101.384,181.934 100.534 C 181.365 99.685,176.437 93.058,170.983 85.809 C 165.528 78.559,159.743 70.856,158.127 68.690 C 156.511 66.525,153.453 62.458,151.331 59.653 C 149.210 56.849,147.227 54.194,146.924 53.755 C 145.966 52.367,135.024 37.830,134.160 36.799 C 133.706 36.256,133.334 35.708,133.334 35.579 C 133.332 34.807,131.573 34.221,130.825 34.745 M119.996 111.570 C 119.904 111.924,119.828 111.635,119.828 110.927 C 119.828 110.220,119.904 109.931,119.996 110.285 C 120.088 110.638,120.088 111.217,119.996 111.570 M115.697 141.139 C 115.694 141.795,115.531 142.580,115.335 142.883 C 115.078 143.282,114.978 142.952,114.973 141.690 C 114.970 140.730,115.133 139.945,115.335 139.945 C 115.537 139.945,115.700 140.482,115.697 141.139 M113.758 152.158 C 113.670 152.612,113.599 152.241,113.599 151.331 C 113.599 150.422,113.670 150.051,113.758 150.505 C 113.845 150.960,113.845 151.703,113.758 152.158 M112.615 159.088 C 112.408 162.067,112.029 162.940,112.029 160.438 C 112.029 158.705,112.375 156.474,112.643 156.474 C 112.728 156.474,112.715 157.650,112.615 159.088 M110.964 169.385 C 110.616 170.541,110.596 170.493,110.639 168.595 C 110.694 166.123,111.070 164.978,111.223 166.814 C 111.284 167.551,111.168 168.708,110.964 169.385 M109.495 178.198 C 109.134 179.394,109.124 179.376,109.168 177.594 C 109.192 176.584,109.309 175.592,109.427 175.390 C 109.819 174.719,109.873 176.945,109.495 178.198 M108.351 186.869 C 108.348 187.424,108.185 188.127,107.989 188.430 C 107.728 188.833,107.631 188.563,107.627 187.420 C 107.624 186.561,107.787 185.859,107.989 185.859 C 108.191 185.859,108.354 186.313,108.351 186.869 M106.574 196.219 L 106.243 198.531 106.209 195.592 C 106.184 193.481,106.278 192.830,106.540 193.281 C 106.775 193.683,106.787 194.736,106.574 196.219 M105.409 206.285 C 104.836 209.047,104.679 208.767,104.713 205.051 C 104.743 201.899,104.754 201.861,105.282 203.071 C 105.720 204.075,105.744 204.675,105.409 206.285 M103.670 215.297 L 103.312 217.998 103.288 214.509 C 103.269 211.847,103.354 211.206,103.645 211.808 C 103.904 212.342,103.912 213.467,103.670 215.297 M102.277 223.407 C 102.032 227.501,101.745 227.478,101.745 223.364 C 101.745 221.269,101.881 220.059,102.101 220.195 C 102.308 220.323,102.382 221.665,102.277 223.407 M100.983 231.772 C 100.942 235.172,100.360 235.982,100.323 232.691 C 100.298 230.434,100.400 229.560,100.643 229.936 C 100.839 230.239,100.992 231.065,100.983 231.772 M99.509 241.322 C 99.471 244.459,98.859 244.626,98.838 241.506 C 98.824 239.481,98.928 238.739,99.174 239.118 C 99.369 239.421,99.521 240.413,99.509 241.322 M98.026 247.750 C 98.203 249.025,98.140 250.049,97.789 251.607 C 97.430 253.204,97.416 253.157,97.377 250.230 C 97.343 247.661,97.781 245.987,98.026 247.750 M96.560 258.330 C 96.595 259.616,96.464 261.067,96.269 261.555 C 96.001 262.226,95.909 261.607,95.891 259.023 C 95.865 255.235,96.457 254.620,96.560 258.330 " stroke="none" fill="#fbc305" fill-rule="evenodd"></path><path id="path1" d="M0.000 183.655 L 0.000 367.309 200.000 367.309 L 400.000 367.309 400.000 183.655 L 400.000 0.000 200.000 0.000 L 0.000 0.000 0.000 183.655 M134.056 34.114 C 135.073 35.099,135.904 36.008,135.904 36.134 C 135.904 36.260,136.194 36.678,136.547 37.061 C 136.901 37.445,137.603 38.370,138.108 39.117 C 138.613 39.864,139.316 40.744,139.669 41.072 C 140.023 41.401,140.312 41.880,140.312 42.139 C 140.312 42.397,140.461 42.608,140.643 42.608 C 140.936 42.608,141.793 43.791,143.132 46.045 C 143.370 46.445,143.824 46.918,144.142 47.096 C 144.460 47.274,144.720 47.651,144.720 47.934 C 144.720 48.217,144.935 48.581,145.199 48.742 C 145.462 48.904,146.247 49.862,146.943 50.872 C 147.640 51.882,148.416 52.841,148.669 53.003 C 148.921 53.164,149.128 53.499,149.128 53.747 C 149.128 53.996,149.417 54.467,149.770 54.795 C 150.124 55.124,150.826 56.004,151.331 56.751 C 151.837 57.498,152.539 58.423,152.893 58.807 C 153.246 59.190,153.535 59.664,153.535 59.859 C 153.535 60.053,153.866 60.390,154.270 60.606 C 154.674 60.822,155.005 61.176,155.005 61.392 C 155.005 61.609,155.416 62.305,155.920 62.941 C 156.423 63.576,157.084 64.426,157.389 64.830 C 160.328 68.726,161.231 70.039,161.239 70.432 C 161.244 70.684,161.497 70.891,161.800 70.891 C 162.103 70.891,162.351 71.027,162.351 71.194 C 162.351 71.361,163.090 72.477,163.994 73.673 C 164.898 74.870,165.641 76.038,165.647 76.269 C 165.652 76.500,165.869 76.771,166.129 76.870 C 166.388 76.970,167.091 77.767,167.690 78.642 C 168.289 79.517,169.027 80.517,169.330 80.864 C 169.633 81.212,170.164 81.878,170.511 82.346 C 170.857 82.813,171.769 84.022,172.536 85.032 C 173.304 86.042,174.178 87.227,174.478 87.665 C 174.778 88.103,176.785 90.772,178.939 93.596 C 181.092 96.420,183.026 99.053,183.237 99.446 C 184.080 101.022,186.961 103.736,186.961 102.955 C 186.961 102.546,187.291 101.791,187.695 101.277 C 188.099 100.764,188.430 100.113,188.430 99.832 C 188.430 99.551,188.581 99.163,188.765 98.972 C 188.949 98.780,189.801 97.300,190.659 95.684 C 191.516 94.068,192.357 92.691,192.528 92.623 C 192.698 92.556,192.837 92.221,192.837 91.878 C 192.837 91.536,193.125 90.848,193.477 90.348 C 194.325 89.144,195.213 87.546,195.971 85.859 C 196.312 85.101,196.738 84.481,196.918 84.481 C 197.098 84.481,197.248 84.192,197.252 83.838 C 197.267 82.404,200.585 78.368,202.007 78.056 C 204.346 77.542,205.280 78.341,211.118 85.849 C 211.468 86.299,212.221 87.208,212.793 87.870 C 213.364 88.531,214.103 89.527,214.433 90.083 C 214.764 90.638,215.160 91.093,215.313 91.093 C 215.466 91.093,215.835 91.547,216.132 92.103 C 216.429 92.658,217.218 93.720,217.886 94.462 C 218.554 95.204,219.761 96.732,220.569 97.858 C 221.377 98.984,222.478 100.384,223.015 100.970 C 223.552 101.555,224.295 102.506,224.668 103.083 C 225.358 104.153,225.877 104.835,227.181 106.387 C 227.585 106.868,228.199 107.632,228.545 108.084 C 228.892 108.537,229.925 109.847,230.841 110.995 C 231.757 112.143,232.507 113.158,232.507 113.251 C 232.507 113.345,233.024 113.974,233.655 114.650 C 234.287 115.326,235.425 116.790,236.185 117.903 C 236.945 119.016,238.077 120.422,238.700 121.028 C 239.323 121.635,239.837 122.329,239.843 122.571 C 239.848 122.814,240.061 123.144,240.315 123.306 C 240.569 123.467,241.354 124.378,242.059 125.329 C 243.621 127.434,244.277 127.756,244.948 126.746 C 245.226 126.328,245.591 125.987,245.760 125.987 C 245.929 125.987,246.859 125.152,247.827 124.131 C 248.795 123.111,250.716 121.169,252.095 119.816 C 253.475 118.462,259.838 112.163,266.237 105.816 C 272.635 99.470,278.514 93.809,279.302 93.236 C 282.711 90.758,285.393 93.012,285.928 98.806 C 286.068 100.321,286.401 102.222,286.668 103.030 C 286.935 103.838,287.274 105.890,287.422 107.589 C 287.569 109.288,287.899 111.189,288.154 111.813 C 288.410 112.437,288.734 114.270,288.874 115.886 C 289.015 117.502,289.348 119.486,289.615 120.294 C 289.881 121.102,290.219 123.085,290.365 124.702 C 290.512 126.318,290.770 127.906,290.939 128.230 C 291.108 128.554,291.428 130.373,291.650 132.270 C 291.872 134.168,292.215 136.016,292.412 136.378 C 292.608 136.739,293.019 138.936,293.324 141.260 C 293.628 143.585,294.020 145.859,294.193 146.315 C 294.366 146.771,294.620 148.292,294.756 149.697 C 294.893 151.101,295.227 153.076,295.500 154.086 C 295.772 155.096,296.177 157.328,296.400 159.045 C 296.622 160.762,297.044 163.242,297.338 164.555 C 297.632 165.868,297.878 167.521,297.884 168.228 C 297.891 168.935,298.126 170.271,298.407 171.198 C 298.688 172.124,299.030 174.025,299.166 175.422 C 299.302 176.819,299.640 178.705,299.917 179.614 C 300.194 180.523,300.524 182.094,300.650 183.104 C 300.902 185.123,302.017 191.735,302.879 196.327 C 303.182 197.943,303.668 200.753,303.959 202.571 C 304.250 204.389,304.826 207.860,305.241 210.285 C 305.655 212.709,306.308 216.593,306.693 218.916 C 307.078 221.240,307.635 224.380,307.930 225.895 C 308.613 229.401,309.561 234.678,309.974 237.282 C 310.899 243.104,311.536 246.837,311.887 248.485 C 312.102 249.495,312.499 251.809,312.768 253.627 C 313.608 259.300,314.397 263.816,314.993 266.369 C 315.309 267.720,315.657 269.786,315.766 270.960 C 315.876 272.134,316.184 273.921,316.452 274.931 C 317.785 279.958,317.459 283.290,315.415 285.521 C 314.219 286.827,311.206 289.053,310.618 289.066 C 310.448 289.070,309.888 289.403,309.375 289.807 C 308.861 290.211,308.133 290.542,307.756 290.542 C 307.379 290.542,307.071 290.706,307.071 290.906 C 307.071 291.249,306.428 291.637,302.847 293.458 C 302.039 293.869,301.088 294.373,300.735 294.578 C 299.337 295.386,298.709 295.716,296.183 296.968 C 294.740 297.683,293.365 298.503,293.127 298.789 C 292.889 299.076,292.210 299.416,291.618 299.546 C 291.026 299.676,290.542 299.917,290.542 300.081 C 290.542 300.245,289.922 300.651,289.164 300.983 C 288.407 301.315,286.630 302.243,285.216 303.044 C 283.802 303.845,282.025 304.774,281.267 305.107 C 280.510 305.440,279.890 305.835,279.890 305.985 C 279.890 306.134,279.270 306.523,278.512 306.849 C 277.755 307.175,276.887 307.606,276.584 307.807 C 276.281 308.008,275.620 308.347,275.115 308.559 C 274.610 308.771,273.535 309.335,272.727 309.811 C 271.919 310.287,270.184 311.229,268.871 311.904 C 267.557 312.579,266.275 313.327,266.022 313.566 C 265.768 313.806,265.189 314.118,264.736 314.260 C 264.283 314.402,263.518 314.826,263.036 315.202 C 262.554 315.578,261.869 315.886,261.514 315.886 C 261.159 315.886,260.781 316.113,260.675 316.390 C 260.569 316.667,260.027 317.008,259.471 317.147 C 258.915 317.287,258.053 317.721,257.555 318.113 C 257.057 318.504,256.492 318.825,256.299 318.825 C 256.105 318.825,255.527 319.155,255.013 319.559 C 254.499 319.963,253.785 320.294,253.425 320.294 C 253.065 320.294,252.715 320.442,252.648 320.622 C 252.515 320.979,250.510 322.244,249.036 322.901 C 248.531 323.127,247.870 323.462,247.567 323.646 C 247.264 323.831,246.437 324.245,245.730 324.567 C 245.023 324.888,244.362 325.280,244.261 325.436 C 244.160 325.593,243.499 325.989,242.792 326.317 C 241.647 326.848,238.898 328.359,235.078 330.555 C 234.371 330.962,233.173 331.571,232.415 331.910 C 231.657 332.249,231.038 332.660,231.038 332.823 C 231.038 332.987,230.376 333.318,229.568 333.560 C 228.760 333.802,228.099 334.124,228.099 334.274 C 228.099 334.424,227.645 334.723,227.089 334.939 C 226.534 335.155,225.253 335.832,224.242 336.445 C 223.232 337.058,221.910 337.808,221.304 338.112 C 220.698 338.416,219.541 339.069,218.733 339.563 C 217.000 340.622,216.813 340.722,215.611 341.228 C 215.106 341.441,214.031 342.016,213.223 342.506 C 212.415 342.996,211.363 343.574,210.884 343.790 C 210.406 344.007,209.598 344.511,209.090 344.911 C 208.581 345.311,207.911 345.638,207.601 345.638 C 207.291 345.638,206.717 345.927,206.326 346.281 C 205.299 347.211,196.932 347.234,195.906 346.310 C 195.532 345.972,194.757 345.579,194.185 345.436 C 193.613 345.293,193.064 344.965,192.965 344.706 C 192.866 344.447,192.366 344.130,191.856 344.002 C 191.345 343.874,190.489 343.481,189.954 343.128 C 188.398 342.103,187.586 341.621,186.410 341.025 C 185.803 340.717,184.646 340.069,183.838 339.584 C 183.030 339.099,181.749 338.427,180.992 338.090 C 180.234 337.753,179.614 337.346,179.614 337.186 C 179.614 337.026,179.160 336.705,178.604 336.474 C 178.049 336.242,176.768 335.573,175.758 334.986 C 174.747 334.400,173.466 333.730,172.911 333.499 C 172.355 333.267,171.901 332.929,171.901 332.746 C 171.901 332.564,171.694 332.412,171.442 332.408 C 171.189 332.404,169.908 331.750,168.595 330.955 C 167.282 330.159,165.712 329.251,165.106 328.937 C 164.500 328.623,162.847 327.710,161.433 326.908 C 160.018 326.106,158.159 325.122,157.300 324.722 C 156.442 324.321,155.739 323.822,155.739 323.613 C 155.739 323.403,155.445 323.232,155.086 323.232 C 154.727 323.232,154.025 322.944,153.525 322.593 C 152.419 321.814,150.815 320.894,149.219 320.125 C 148.563 319.808,148.026 319.386,148.026 319.187 C 148.026 318.988,147.732 318.825,147.373 318.825 C 147.014 318.825,146.311 318.537,145.812 318.185 C 144.608 317.337,143.009 316.449,141.322 315.691 C 140.565 315.350,139.945 314.924,139.945 314.744 C 139.945 314.564,139.621 314.417,139.225 314.417 C 138.828 314.417,138.209 314.100,137.847 313.712 C 137.486 313.324,136.722 312.890,136.150 312.747 C 135.578 312.603,135.024 312.259,134.917 311.982 C 134.811 311.705,134.587 311.478,134.420 311.478 C 133.963 311.478,132.590 310.832,130.946 309.842 C 130.138 309.356,128.981 308.697,128.375 308.379 C 127.769 308.061,126.612 307.394,125.803 306.897 C 124.995 306.401,123.756 305.722,123.049 305.389 C 122.342 305.057,121.680 304.679,121.579 304.550 C 121.478 304.421,120.817 304.031,120.110 303.683 C 119.403 303.335,117.668 302.384,116.253 301.569 C 114.839 300.753,113.121 299.828,112.435 299.511 C 111.749 299.194,110.952 298.700,110.664 298.412 C 110.376 298.124,109.916 297.888,109.642 297.888 C 109.368 297.888,108.908 297.652,108.620 297.364 C 108.332 297.076,107.535 296.579,106.849 296.260 C 106.163 295.940,104.940 295.283,104.132 294.800 C 103.324 294.316,101.589 293.380,100.275 292.718 C 98.962 292.057,97.763 291.309,97.610 291.057 C 97.458 290.805,96.827 290.488,96.208 290.352 C 95.590 290.216,94.994 289.873,94.885 289.589 C 94.776 289.305,94.472 289.073,94.209 289.073 C 91.474 289.073,88.622 284.361,89.216 280.824 C 89.455 279.401,89.879 276.667,90.159 274.747 C 90.820 270.200,91.692 264.856,92.556 260.055 C 92.938 257.934,93.592 254.050,94.010 251.423 C 94.428 248.797,95.024 245.161,95.334 243.343 C 95.644 241.524,96.053 238.880,96.241 237.466 C 96.430 236.051,96.834 233.489,97.140 231.772 C 98.201 225.813,99.155 219.823,99.393 217.631 C 99.524 216.419,99.842 214.766,100.099 213.958 C 100.357 213.150,100.677 211.249,100.811 209.734 C 100.945 208.219,101.288 205.904,101.573 204.591 C 102.108 202.132,102.831 197.440,103.739 190.543 C 104.025 188.371,104.423 186.057,104.624 185.400 C 104.825 184.743,105.094 182.966,105.223 181.451 C 105.351 179.936,105.685 177.704,105.965 176.492 C 106.245 175.280,106.653 172.659,106.872 170.668 C 107.091 168.677,107.413 166.776,107.586 166.444 C 107.760 166.112,108.097 164.142,108.335 162.067 C 108.573 159.992,108.913 157.844,109.092 157.292 C 109.270 156.741,109.591 154.584,109.806 152.499 C 110.020 150.413,110.343 148.430,110.523 148.091 C 110.703 147.752,110.964 146.152,111.102 144.536 C 111.240 142.920,111.583 140.606,111.863 139.394 C 112.144 138.182,112.543 135.591,112.751 133.637 C 112.958 131.682,113.282 129.678,113.470 129.184 C 113.658 128.689,113.923 127.065,114.058 125.575 C 114.193 124.084,114.602 121.543,114.968 119.927 C 115.334 118.310,115.743 115.769,115.878 114.278 C 116.013 112.788,116.282 111.152,116.476 110.642 C 116.670 110.132,117.005 107.963,117.220 105.821 C 117.436 103.680,117.765 101.643,117.951 101.293 C 118.138 100.944,118.439 99.095,118.620 97.184 C 118.801 95.274,119.198 92.584,119.503 91.208 C 119.809 89.831,120.224 87.383,120.427 85.767 C 120.630 84.151,120.964 81.837,121.168 80.624 C 121.373 79.412,121.714 77.264,121.926 75.849 C 122.138 74.435,122.559 71.625,122.862 69.605 C 123.165 67.585,123.653 64.858,123.947 63.545 C 124.240 62.231,124.582 59.917,124.707 58.402 C 124.832 56.887,125.157 54.821,125.429 53.811 C 125.702 52.801,126.031 50.652,126.160 49.036 C 126.289 47.420,126.620 45.271,126.895 44.261 C 127.170 43.251,127.498 41.150,127.623 39.592 C 128.169 32.824,130.594 30.759,134.056 34.114 " stroke="none" fill="#fcfbfb" fill-rule="evenodd"></path><path id="path2" d="M202.130 80.198 C 201.403 80.588,199.104 83.595,199.088 84.177 C 199.085 84.312,198.173 85.998,197.062 87.922 C 195.950 89.847,195.041 91.525,195.041 91.652 C 195.041 91.779,194.348 93.069,193.501 94.518 C 192.654 95.967,191.157 98.724,190.173 100.643 C 188.125 104.640,187.334 105.605,185.650 106.161 C 184.681 106.481,184.233 107.004,183.334 108.867 C 182.722 110.137,181.975 111.379,181.676 111.628 C 181.376 111.877,181.024 112.565,180.894 113.157 C 180.764 113.749,180.540 114.233,180.395 114.233 C 180.251 114.233,179.504 115.514,178.735 117.080 C 177.966 118.646,176.943 120.588,176.463 121.396 C 175.982 122.204,175.489 123.113,175.368 123.416 C 174.957 124.441,174.440 125.431,173.545 126.905 C 172.731 128.246,172.145 129.453,171.718 130.670 C 171.629 130.923,171.404 131.129,171.218 131.129 C 171.031 131.129,170.768 131.571,170.632 132.111 C 170.497 132.650,170.066 133.499,169.674 133.997 C 169.283 134.494,168.962 135.192,168.962 135.547 C 168.962 135.903,168.736 136.280,168.459 136.387 C 168.182 136.493,167.847 137.011,167.715 137.537 C 167.583 138.064,167.148 138.821,166.749 139.220 C 166.350 139.619,166.024 140.250,166.024 140.623 C 166.024 140.995,165.693 141.599,165.289 141.965 C 164.885 142.331,164.555 142.942,164.555 143.323 C 164.555 143.704,164.224 144.371,163.820 144.805 C 163.416 145.238,163.085 145.975,163.085 146.442 C 163.085 146.909,162.921 147.291,162.721 147.291 C 162.355 147.291,161.434 148.854,160.284 151.423 C 159.945 152.181,159.541 152.801,159.386 152.801 C 159.230 152.801,158.997 153.285,158.867 153.877 C 158.737 154.469,158.404 155.142,158.127 155.372 C 157.850 155.602,157.520 156.257,157.395 156.828 C 157.269 157.400,156.846 158.158,156.453 158.513 C 156.060 158.868,155.739 159.359,155.739 159.603 C 155.739 159.848,155.409 160.468,155.005 160.982 C 154.601 161.495,154.270 162.244,154.270 162.645 C 154.270 163.046,154.027 163.467,153.731 163.581 C 153.434 163.695,152.941 164.332,152.636 164.998 C 152.331 165.663,151.919 166.455,151.720 166.758 C 151.522 167.062,150.909 168.301,150.359 169.513 C 149.808 170.725,149.141 171.936,148.876 172.203 C 148.610 172.470,148.393 172.902,148.393 173.163 C 148.393 173.424,148.062 174.059,147.658 174.572 C 147.254 175.086,146.924 175.744,146.924 176.034 C 146.924 176.324,146.603 176.853,146.210 177.208 C 145.817 177.563,145.394 178.319,145.269 178.887 C 145.144 179.455,144.820 180.006,144.548 180.110 C 144.277 180.214,143.946 180.793,143.814 181.395 C 143.681 181.998,143.344 182.579,143.065 182.686 C 142.785 182.794,142.446 183.469,142.312 184.186 C 142.177 184.904,141.922 185.491,141.746 185.491 C 141.569 185.491,141.191 186.050,140.906 186.732 C 140.620 187.414,140.218 188.077,140.011 188.205 C 139.804 188.333,139.529 188.915,139.401 189.498 C 139.273 190.081,138.847 190.848,138.455 191.203 C 138.062 191.559,137.741 192.020,137.741 192.227 C 137.741 192.864,136.169 195.943,135.696 196.230 C 135.452 196.379,135.141 196.945,135.004 197.487 C 134.868 198.029,134.437 198.880,134.045 199.378 C 133.654 199.875,133.333 200.508,133.333 200.784 C 133.333 201.060,133.003 201.616,132.599 202.020 C 132.195 202.424,131.864 203.077,131.864 203.471 C 131.864 203.865,131.641 204.320,131.369 204.481 C 130.895 204.762,130.190 205.910,129.272 207.897 C 129.038 208.402,128.698 209.063,128.516 209.366 C 128.335 209.669,127.987 210.331,127.744 210.836 C 127.501 211.341,127.006 212.148,126.645 212.630 C 126.283 213.112,125.987 213.789,125.987 214.134 C 125.987 214.480,125.657 215.061,125.253 215.427 C 124.848 215.793,124.518 216.277,124.518 216.502 C 124.518 216.728,123.952 217.772,123.260 218.822 C 122.569 219.872,121.891 221.084,121.754 221.515 C 121.618 221.946,121.121 222.865,120.651 223.557 C 120.182 224.249,119.028 226.340,118.088 228.202 C 116.004 232.330,115.601 233.056,114.929 233.882 C 114.641 234.237,113.912 235.519,113.309 236.731 C 112.706 237.943,112.098 238.987,111.958 239.050 C 111.818 239.114,111.505 239.775,111.262 240.520 C 111.020 241.264,110.707 241.956,110.568 242.057 C 110.429 242.158,109.699 243.480,108.946 244.995 C 107.336 248.236,106.426 249.883,106.103 250.138 C 105.975 250.239,105.501 251.109,105.050 252.071 C 104.599 253.033,104.084 253.910,103.906 254.021 C 103.727 254.131,103.581 254.542,103.581 254.934 C 103.581 255.327,103.457 255.649,103.306 255.650 C 102.976 255.654,102.112 257.432,102.112 258.108 C 102.112 258.371,101.965 258.586,101.785 258.586 C 101.605 258.586,101.184 259.206,100.851 259.963 C 100.518 260.721,99.977 261.837,99.650 262.443 C 99.323 263.049,98.923 263.792,98.762 264.096 C 98.600 264.399,98.045 265.377,97.527 266.269 C 97.009 267.161,96.488 268.278,96.370 268.752 C 96.068 269.955,95.555 270.161,95.349 269.161 C 95.253 268.698,95.046 267.658,94.887 266.850 C 94.640 265.590,94.572 265.877,94.407 268.871 C 94.280 271.186,94.015 272.669,93.620 273.278 C 92.730 274.651,91.976 278.716,92.512 279.252 C 92.834 279.574,96.514 276.113,107.718 264.950 C 115.847 256.850,138.200 234.628,157.392 215.568 C 232.816 140.660,243.241 130.099,242.712 129.135 C 242.314 128.411,235.385 119.620,233.861 117.906 C 233.591 117.603,232.888 116.694,232.297 115.886 C 230.737 113.751,224.151 105.335,223.507 104.653 C 223.205 104.334,221.429 102.084,219.560 99.655 C 217.691 97.225,215.335 94.194,214.325 92.918 C 203.721 79.530,203.605 79.409,202.130 80.198 M119.828 110.927 C 119.828 111.635,119.904 111.924,119.996 111.570 C 120.088 111.217,120.088 110.638,119.996 110.285 C 119.904 109.931,119.828 110.220,119.828 110.927 M114.973 141.690 C 114.978 142.952,115.078 143.282,115.335 142.883 C 115.804 142.157,115.804 139.945,115.335 139.945 C 115.133 139.945,114.970 140.730,114.973 141.690 M113.599 151.331 C 113.599 152.241,113.670 152.612,113.758 152.158 C 113.845 151.703,113.845 150.960,113.758 150.505 C 113.670 150.051,113.599 150.422,113.599 151.331 M112.259 157.622 C 111.976 159.039,111.955 162.180,112.232 161.904 C 112.473 161.663,112.866 156.474,112.643 156.474 C 112.558 156.474,112.385 156.990,112.259 157.622 M110.898 166.024 C 110.780 166.327,110.664 167.484,110.639 168.595 C 110.596 170.493,110.616 170.541,110.964 169.385 C 111.344 168.124,111.283 165.030,110.898 166.024 M109.427 175.390 C 109.309 175.592,109.192 176.584,109.168 177.594 C 109.124 179.376,109.134 179.394,109.495 178.198 C 109.873 176.945,109.819 174.719,109.427 175.390 M107.627 187.420 C 107.631 188.563,107.728 188.833,107.989 188.430 C 108.458 187.705,108.458 185.859,107.989 185.859 C 107.787 185.859,107.624 186.561,107.627 187.420 M106.209 195.592 L 106.243 198.531 106.574 196.219 C 106.787 194.736,106.775 193.683,106.540 193.281 C 106.278 192.830,106.184 193.481,106.209 195.592 M104.713 205.051 C 104.679 208.767,104.836 209.047,105.409 206.285 C 105.744 204.675,105.720 204.075,105.282 203.071 C 104.754 201.861,104.743 201.899,104.713 205.051 M103.288 214.509 L 103.312 217.998 103.670 215.297 C 103.912 213.467,103.904 212.342,103.645 211.808 C 103.354 211.206,103.269 211.847,103.288 214.509 M101.745 223.364 C 101.745 225.227,101.824 226.673,101.921 226.576 C 102.285 226.212,102.448 220.410,102.101 220.195 C 101.881 220.059,101.745 221.269,101.745 223.364 M100.323 232.691 C 100.354 235.433,100.412 235.746,100.664 234.527 C 101.079 232.519,101.071 230.598,100.643 229.936 C 100.400 229.560,100.298 230.434,100.323 232.691 M98.838 241.506 C 98.851 243.485,98.961 244.205,99.174 243.710 C 99.608 242.700,99.608 239.790,99.174 239.118 C 98.928 238.739,98.824 239.481,98.838 241.506 M97.377 250.230 C 97.416 253.157,97.430 253.204,97.789 251.607 C 98.292 249.372,98.220 247.199,97.643 247.199 C 97.475 247.199,97.355 248.563,97.377 250.230 M95.891 259.023 C 95.909 261.607,96.001 262.226,96.269 261.555 C 96.694 260.492,96.627 256.073,96.181 255.798 C 96.009 255.691,95.878 257.143,95.891 259.023 " stroke="none" fill="#f4880c" fill-rule="evenodd"></path><path id="path3" d="M129.911 34.085 C 129.248 34.818,128.454 38.233,127.844 42.975 C 127.623 44.692,127.203 47.502,126.910 49.219 C 126.617 50.937,126.052 54.490,125.654 57.117 C 124.689 63.480,123.577 70.606,122.501 77.319 C 122.015 80.349,121.271 85.060,120.848 87.787 C 120.424 90.514,119.840 94.233,119.549 96.051 C 119.014 99.392,117.756 107.497,116.413 116.253 C 116.010 118.880,115.503 121.921,115.286 123.011 C 115.069 124.102,114.575 127.077,114.189 129.623 C 113.529 133.975,112.960 137.654,111.315 148.209 C 109.530 159.659,108.972 163.209,108.343 167.126 C 105.747 183.286,104.889 188.728,104.144 193.756 C 103.845 195.776,103.348 198.916,103.039 200.735 C 102.729 202.553,102.328 205.115,102.146 206.428 C 101.329 212.333,100.222 219.195,99.925 220.202 C 99.745 220.808,99.494 222.296,99.365 223.508 C 99.236 224.720,98.901 226.869,98.620 228.283 C 98.339 229.697,97.943 232.094,97.739 233.609 C 97.401 236.124,96.988 238.672,95.834 245.363 C 95.608 246.676,95.211 249.155,94.952 250.872 C 94.155 256.151,92.801 264.314,91.287 272.959 C 89.131 285.279,89.357 285.877,97.888 290.360 C 98.494 290.678,99.651 291.332,100.459 291.812 C 101.267 292.292,102.706 293.101,103.656 293.609 C 105.464 294.578,118.789 302.080,119.743 302.667 C 120.046 302.853,121.286 303.524,122.498 304.157 C 123.710 304.790,124.867 305.439,125.069 305.599 C 125.461 305.910,127.137 306.870,130.395 308.650 C 131.506 309.257,135.285 311.392,138.794 313.396 C 142.302 315.399,145.525 317.192,145.956 317.380 C 146.387 317.567,146.988 317.877,147.291 318.068 C 147.879 318.439,151.545 320.531,154.270 322.051 C 155.179 322.559,160.099 325.346,165.204 328.245 C 170.309 331.145,174.552 333.517,174.633 333.517 C 174.715 333.517,176.241 334.366,178.024 335.403 C 179.808 336.441,182.176 337.789,183.287 338.399 C 184.399 339.009,187.539 340.772,190.266 342.317 C 200.428 348.074,201.729 348.105,211.058 342.811 C 213.301 341.538,215.222 340.496,215.327 340.496 C 215.431 340.496,217.708 339.256,220.386 337.741 C 223.064 336.226,225.296 334.986,225.346 334.986 C 225.396 334.986,227.214 333.994,229.385 332.782 C 231.556 331.570,233.438 330.579,233.569 330.579 C 233.699 330.579,234.381 330.189,235.085 329.713 C 235.788 329.237,237.603 328.186,239.118 327.379 C 245.798 323.818,247.897 322.678,250.138 321.396 C 251.451 320.644,253.765 319.367,255.280 318.557 C 256.795 317.747,259.605 316.220,261.524 315.163 C 266.334 312.514,268.597 311.278,271.809 309.550 C 273.324 308.735,275.638 307.448,276.951 306.690 C 278.264 305.933,280.331 304.791,281.543 304.152 C 282.755 303.514,284.656 302.492,285.767 301.881 C 286.878 301.270,288.696 300.277,289.807 299.675 C 290.918 299.072,292.489 298.184,293.297 297.701 C 294.105 297.219,295.109 296.665,295.529 296.471 C 295.949 296.276,298.925 294.666,302.141 292.891 C 305.357 291.117,308.485 289.404,309.091 289.085 C 316.787 285.034,317.312 283.147,314.619 269.238 C 314.005 266.062,313.236 261.686,311.846 253.444 C 311.420 250.918,310.752 247.034,310.362 244.812 C 309.438 239.545,309.028 237.118,308.343 232.874 C 308.034 230.955,307.628 228.806,307.442 228.099 C 307.256 227.392,306.850 225.161,306.540 223.140 C 305.917 219.082,305.136 214.402,304.332 209.917 C 303.530 205.446,301.451 193.428,300.488 187.695 C 300.301 186.584,299.896 184.270,299.587 182.553 C 299.279 180.836,298.754 177.860,298.422 175.941 C 298.089 174.022,297.516 170.799,297.149 168.779 C 296.781 166.758,296.371 164.197,296.237 163.085 C 296.103 161.974,295.846 160.487,295.667 159.780 C 295.488 159.073,295.087 156.841,294.775 154.821 C 294.463 152.801,293.784 148.834,293.266 146.006 C 292.748 143.177,292.017 139.045,291.643 136.823 C 291.268 134.601,290.614 130.799,290.190 128.375 C 289.766 125.950,289.101 122.066,288.713 119.743 C 288.326 117.420,287.663 113.535,287.241 111.111 C 286.819 108.687,286.228 105.147,285.927 103.244 C 284.614 94.936,283.873 93.155,281.758 93.215 C 280.002 93.265,280.312 92.985,262.317 110.781 C 244.229 128.669,244.694 128.240,243.675 127.958 C 242.990 127.769,239.257 123.312,234.202 116.648 C 232.811 114.815,231.196 112.736,230.612 112.029 C 229.386 110.543,223.177 102.609,214.509 91.450 C 202.753 76.318,202.301 76.124,197.851 84.298 C 196.971 85.914,195.210 89.137,193.939 91.460 C 192.667 93.783,190.721 97.420,189.615 99.541 C 186.591 105.341,186.319 105.321,182.036 98.990 C 181.353 97.980,179.991 96.126,179.010 94.870 C 178.029 93.614,176.235 91.249,175.023 89.615 C 173.811 87.981,172.475 86.199,172.053 85.654 C 170.188 83.243,165.055 76.384,164.555 75.634 C 164.252 75.180,162.971 73.521,161.708 71.947 C 160.445 70.374,159.412 68.992,159.412 68.876 C 159.412 68.760,158.792 67.875,158.035 66.908 C 157.277 65.942,156.327 64.690,155.923 64.126 C 155.519 63.561,154.114 61.721,152.801 60.035 C 151.488 58.350,149.479 55.681,148.337 54.105 C 145.635 50.376,139.929 42.788,135.342 36.826 C 132.646 33.321,131.243 32.613,129.911 34.085 M133.334 35.579 C 133.334 35.708,133.706 36.256,134.160 36.799 C 135.024 37.830,145.966 52.367,146.924 53.755 C 147.227 54.194,149.210 56.849,151.331 59.653 C 153.453 62.458,156.511 66.525,158.127 68.690 C 159.743 70.856,165.528 78.559,170.983 85.809 C 176.437 93.058,181.365 99.685,181.934 100.534 C 182.502 101.384,183.780 102.945,184.773 104.003 L 186.579 105.926 187.462 105.097 C 187.947 104.641,188.892 103.163,189.561 101.813 C 190.231 100.462,191.738 97.672,192.910 95.612 C 194.082 93.552,195.041 91.766,195.041 91.644 C 195.041 91.521,195.950 89.847,197.062 87.922 C 198.173 85.998,199.082 84.335,199.082 84.228 C 199.082 83.632,201.476 80.472,202.166 80.158 C 203.660 79.477,203.769 79.592,214.325 92.918 C 215.335 94.194,217.691 97.225,219.560 99.655 C 221.429 102.084,223.205 104.334,223.507 104.653 C 224.151 105.335,230.737 113.751,232.297 115.886 C 232.888 116.694,233.591 117.603,233.860 117.906 C 234.129 118.209,235.777 120.275,237.522 122.498 C 241.787 127.930,243.123 129.293,244.182 129.293 C 244.835 129.293,247.658 126.712,255.330 119.100 C 274.072 100.505,280.064 94.722,280.966 94.359 C 283.067 93.513,283.621 95.489,286.689 114.784 C 286.978 116.602,287.317 118.503,287.442 119.008 C 287.567 119.513,287.974 121.827,288.346 124.151 C 288.717 126.474,289.369 130.358,289.794 132.782 C 290.220 135.207,290.794 138.612,291.070 140.349 C 291.347 142.087,291.823 144.814,292.129 146.410 C 292.798 149.896,293.729 155.225,295.684 166.758 C 297.431 177.062,298.193 181.441,299.935 191.185 C 300.657 195.225,301.805 201.837,302.486 205.877 C 303.167 209.917,304.158 215.702,304.689 218.733 C 305.220 221.763,305.878 225.684,306.150 227.446 C 306.423 229.208,306.823 231.522,307.039 232.588 C 307.688 235.784,308.833 242.127,309.080 243.893 C 309.208 244.803,309.551 246.786,309.843 248.301 C 310.378 251.078,310.911 254.145,312.205 261.892 C 312.830 265.638,313.474 269.383,314.763 276.768 C 315.708 282.183,315.069 283.969,311.253 286.577 C 309.862 287.528,308.591 288.313,308.429 288.322 C 308.266 288.331,306.539 289.259,304.589 290.384 C 302.640 291.510,300.541 292.666,299.926 292.953 C 299.310 293.240,297.649 294.144,296.235 294.962 C 294.821 295.779,293.126 296.692,292.469 296.990 C 291.811 297.288,290.404 298.067,289.341 298.720 C 286.978 300.173,285.806 300.824,283.196 302.133 C 282.084 302.690,279.522 304.087,277.502 305.239 C 275.482 306.390,272.176 308.210,270.156 309.284 C 268.136 310.357,265.822 311.611,265.014 312.070 C 262.071 313.743,258.820 315.514,253.811 318.173 C 252.296 318.978,249.953 320.280,248.604 321.067 C 247.256 321.854,246.074 322.498,245.977 322.498 C 245.880 322.498,244.752 323.094,243.470 323.822 C 242.188 324.551,239.568 325.975,237.649 326.987 C 235.730 327.999,233.977 328.974,233.754 329.153 C 233.531 329.332,232.622 329.865,231.734 330.339 C 230.846 330.812,228.632 331.993,226.814 332.963 C 224.995 333.933,221.855 335.666,219.835 336.814 C 217.815 337.962,214.675 339.696,212.858 340.667 C 199.999 347.541,202.195 347.863,181.267 336.036 C 176.823 333.524,172.277 330.997,171.166 330.419 C 170.055 329.842,168.898 329.187,168.595 328.964 C 167.982 328.513,167.322 328.135,164.263 326.480 C 163.110 325.857,159.864 324.030,157.050 322.419 C 154.235 320.808,151.590 319.332,151.173 319.138 C 150.755 318.945,149.752 318.385,148.944 317.895 C 148.136 317.404,147.227 316.887,146.924 316.746 C 146.621 316.605,142.927 314.535,138.715 312.147 C 134.503 309.759,130.974 307.805,130.872 307.805 C 130.770 307.805,129.055 306.814,127.060 305.601 C 125.064 304.389,123.342 303.398,123.231 303.398 C 123.056 303.398,107.603 294.759,106.152 293.850 C 105.849 293.660,104.617 292.989,103.414 292.358 C 102.210 291.727,100.825 290.895,100.334 290.509 C 99.843 290.123,99.286 289.807,99.096 289.807 C 98.409 289.807,93.452 286.713,92.287 285.556 C 90.821 284.102,90.730 282.432,91.798 276.584 C 92.185 274.463,92.856 270.413,93.288 267.585 C 93.721 264.757,94.303 261.203,94.582 259.688 C 94.861 258.173,95.193 256.107,95.319 255.096 C 95.446 254.086,95.709 252.421,95.905 251.396 C 96.265 249.507,97.310 243.120,98.243 237.098 C 98.525 235.280,99.191 231.313,99.723 228.283 C 100.256 225.253,100.999 220.790,101.374 218.365 C 101.750 215.941,102.416 211.644,102.853 208.815 C 103.291 205.987,103.957 201.690,104.333 199.265 C 104.710 196.841,105.195 193.701,105.411 192.287 C 105.904 189.067,107.071 181.840,107.993 176.309 C 108.379 173.985,109.127 169.275,109.653 165.840 C 110.179 162.406,110.936 157.530,111.335 155.005 C 112.960 144.720,113.481 141.363,114.219 136.455 C 114.645 133.627,115.230 130.073,115.520 128.558 C 115.811 127.043,116.205 124.646,116.397 123.232 C 116.589 121.818,116.992 119.174,117.294 117.355 C 117.595 115.537,118.194 111.736,118.624 108.907 C 119.055 106.079,119.721 101.781,120.106 99.357 C 120.490 96.933,121.156 92.635,121.586 89.807 C 122.015 86.979,122.677 82.847,123.055 80.624 C 123.434 78.402,124.071 74.435,124.471 71.809 C 125.478 65.188,126.647 57.562,127.456 52.342 C 128.317 46.790,129.658 38.022,129.885 36.466 C 130.173 34.487,133.330 33.675,133.334 35.579 " stroke="none" fill="#fae399" fill-rule="evenodd"></path><path id="path4" d="M130.285 32.580 C 129.228 32.854,127.880 36.405,127.623 39.592 C 127.498 41.150,127.170 43.251,126.895 44.261 C 126.620 45.271,126.289 47.420,126.160 49.036 C 126.031 50.652,125.702 52.801,125.429 53.811 C 125.157 54.821,124.832 56.887,124.707 58.402 C 124.582 59.917,124.240 62.231,123.947 63.545 C 123.653 64.858,123.165 67.585,122.862 69.605 C 122.559 71.625,122.138 74.435,121.926 75.849 C 121.714 77.264,121.373 79.412,121.168 80.624 C 120.964 81.837,120.630 84.151,120.427 85.767 C 120.224 87.383,119.809 89.831,119.503 91.208 C 119.198 92.584,118.801 95.274,118.620 97.184 C 118.439 99.095,118.138 100.944,117.951 101.293 C 117.765 101.643,117.436 103.680,117.220 105.821 C 117.005 107.963,116.670 110.132,116.476 110.642 C 116.282 111.152,116.013 112.788,115.878 114.278 C 115.743 115.769,115.334 118.310,114.968 119.927 C 114.602 121.543,114.193 124.084,114.058 125.575 C 113.923 127.065,113.658 128.689,113.470 129.184 C 113.282 129.678,112.958 131.682,112.751 133.637 C 112.543 135.591,112.144 138.182,111.863 139.394 C 111.583 140.606,111.240 142.920,111.102 144.536 C 110.964 146.152,110.703 147.752,110.523 148.091 C 110.343 148.430,110.020 150.413,109.806 152.499 C 109.591 154.584,109.270 156.741,109.092 157.292 C 108.913 157.844,108.573 159.992,108.335 162.067 C 108.097 164.142,107.760 166.112,107.586 166.444 C 107.413 166.776,107.091 168.677,106.872 170.668 C 106.653 172.659,106.245 175.280,105.965 176.492 C 105.685 177.704,105.351 179.936,105.223 181.451 C 105.094 182.966,104.825 184.743,104.624 185.400 C 104.423 186.057,104.025 188.371,103.739 190.543 C 102.831 197.440,102.108 202.132,101.573 204.591 C 101.288 205.904,100.945 208.219,100.811 209.734 C 100.677 211.249,100.357 213.150,100.099 213.958 C 99.842 214.766,99.524 216.419,99.393 217.631 C 99.155 219.823,98.201 225.813,97.140 231.772 C 96.834 233.489,96.430 236.051,96.241 237.466 C 96.053 238.880,95.644 241.524,95.334 243.343 C 95.024 245.161,94.428 248.797,94.010 251.423 C 93.592 254.050,92.938 257.934,92.556 260.055 C 91.692 264.856,90.820 270.200,90.159 274.747 C 89.879 276.667,89.455 279.401,89.216 280.824 C 88.622 284.361,91.474 289.073,94.209 289.073 C 94.472 289.073,94.776 289.305,94.885 289.589 C 94.994 289.873,95.590 290.216,96.208 290.352 C 96.827 290.488,97.458 290.805,97.610 291.057 C 97.763 291.309,98.962 292.057,100.275 292.718 C 101.589 293.380,103.324 294.316,104.132 294.800 C 104.940 295.283,106.163 295.940,106.849 296.260 C 107.535 296.579,108.332 297.076,108.620 297.364 C 108.908 297.652,109.368 297.888,109.642 297.888 C 109.916 297.888,110.376 298.124,110.664 298.412 C 110.952 298.700,111.749 299.194,112.435 299.511 C 113.121 299.828,114.839 300.753,116.253 301.569 C 117.668 302.384,119.403 303.335,120.110 303.683 C 120.817 304.031,121.478 304.421,121.579 304.550 C 121.680 304.679,122.342 305.057,123.049 305.389 C 123.756 305.722,124.995 306.401,125.803 306.897 C 126.612 307.394,127.769 308.061,128.375 308.379 C 128.981 308.697,130.138 309.356,130.946 309.842 C 132.590 310.832,133.963 311.478,134.420 311.478 C 134.587 311.478,134.811 311.705,134.917 311.982 C 135.024 312.259,135.578 312.603,136.150 312.747 C 136.722 312.890,137.486 313.324,137.847 313.712 C 138.209 314.100,138.828 314.417,139.225 314.417 C 139.621 314.417,139.945 314.564,139.945 314.744 C 139.945 314.924,140.565 315.350,141.322 315.691 C 143.009 316.449,144.608 317.337,145.812 318.185 C 146.311 318.537,147.014 318.825,147.373 318.825 C 147.732 318.825,148.026 318.988,148.026 319.187 C 148.026 319.386,148.563 319.808,149.219 320.125 C 150.815 320.894,152.419 321.814,153.525 322.593 C 154.025 322.944,154.727 323.232,155.086 323.232 C 155.445 323.232,155.739 323.403,155.739 323.613 C 155.739 323.822,156.442 324.321,157.300 324.722 C 158.159 325.122,160.018 326.106,161.433 326.908 C 162.847 327.710,164.500 328.623,165.106 328.937 C 165.712 329.251,167.282 330.159,168.595 330.955 C 169.908 331.750,171.189 332.404,171.442 332.408 C 171.694 332.412,171.901 332.564,171.901 332.746 C 171.901 332.929,172.355 333.267,172.911 333.499 C 173.466 333.730,174.747 334.400,175.758 334.986 C 176.768 335.573,178.049 336.242,178.604 336.474 C 179.160 336.705,179.614 337.026,179.614 337.186 C 179.614 337.346,180.234 337.753,180.992 338.090 C 181.749 338.427,183.030 339.099,183.838 339.584 C 184.646 340.069,185.803 340.717,186.410 341.025 C 187.586 341.621,188.398 342.103,189.954 343.128 C 190.489 343.481,191.345 343.874,191.856 344.002 C 192.366 344.130,192.866 344.447,192.965 344.706 C 193.064 344.965,193.613 345.293,194.185 345.436 C 194.757 345.579,195.532 345.972,195.906 346.310 C 196.932 347.234,205.299 347.211,206.326 346.281 C 206.717 345.927,207.291 345.638,207.601 345.638 C 207.911 345.638,208.581 345.311,209.090 344.911 C 209.598 344.511,210.406 344.007,210.884 343.790 C 211.363 343.574,212.415 342.996,213.223 342.506 C 214.031 342.016,215.106 341.441,215.611 341.228 C 216.813 340.722,217.000 340.622,218.733 339.563 C 219.541 339.069,220.698 338.416,221.304 338.112 C 221.910 337.808,223.232 337.058,224.242 336.445 C 225.253 335.832,226.534 335.155,227.089 334.939 C 227.645 334.723,228.099 334.424,228.099 334.274 C 228.099 334.124,228.760 333.802,229.568 333.560 C 230.376 333.318,231.038 332.987,231.038 332.823 C 231.038 332.660,231.657 332.249,232.415 331.910 C 233.173 331.571,234.371 330.962,235.078 330.555 C 238.898 328.359,241.647 326.848,242.792 326.317 C 243.499 325.989,244.160 325.593,244.261 325.436 C 244.362 325.280,245.023 324.888,245.730 324.567 C 246.437 324.245,247.264 323.831,247.567 323.646 C 247.870 323.462,248.531 323.127,249.036 322.901 C 250.510 322.244,252.515 320.979,252.648 320.622 C 252.715 320.442,253.065 320.294,253.425 320.294 C 253.785 320.294,254.499 319.963,255.013 319.559 C 255.527 319.155,256.105 318.825,256.299 318.825 C 256.492 318.825,257.057 318.504,257.555 318.113 C 258.053 317.721,258.915 317.287,259.471 317.147 C 260.027 317.008,260.569 316.667,260.675 316.390 C 260.781 316.113,261.159 315.886,261.514 315.886 C 261.869 315.886,262.554 315.578,263.036 315.202 C 263.518 314.826,264.283 314.402,264.736 314.260 C 265.189 314.118,265.768 313.806,266.022 313.566 C 266.275 313.327,267.557 312.579,268.871 311.904 C 270.184 311.229,271.919 310.287,272.727 309.811 C 273.535 309.335,274.610 308.771,275.115 308.559 C 275.620 308.347,276.281 308.008,276.584 307.807 C 276.887 307.606,277.755 307.175,278.512 306.849 C 279.270 306.523,279.890 306.134,279.890 305.985 C 279.890 305.835,280.510 305.440,281.267 305.107 C 282.025 304.774,283.802 303.845,285.216 303.044 C 286.630 302.243,288.407 301.315,289.164 300.983 C 289.922 300.651,290.542 300.245,290.542 300.081 C 290.542 299.917,291.026 299.676,291.618 299.546 C 292.210 299.416,292.889 299.076,293.127 298.789 C 293.365 298.503,294.740 297.683,296.183 296.968 C 298.709 295.716,299.337 295.386,300.735 294.578 C 301.088 294.373,302.039 293.869,302.847 293.458 C 306.428 291.637,307.071 291.249,307.071 290.906 C 307.071 290.706,307.379 290.542,307.756 290.542 C 308.133 290.542,308.861 290.211,309.375 289.807 C 309.888 289.403,310.448 289.070,310.618 289.066 C 311.206 289.053,314.219 286.827,315.415 285.521 C 317.459 283.290,317.785 279.958,316.452 274.931 C 316.184 273.921,315.876 272.134,315.766 270.960 C 315.657 269.786,315.309 267.720,314.993 266.369 C 314.397 263.816,313.608 259.300,312.768 253.627 C 312.499 251.809,312.102 249.495,311.887 248.485 C 311.536 246.837,310.899 243.104,309.974 237.282 C 309.561 234.678,308.613 229.401,307.930 225.895 C 307.635 224.380,307.078 221.240,306.693 218.916 C 306.308 216.593,305.655 212.709,305.241 210.285 C 304.826 207.860,304.250 204.389,303.959 202.571 C 303.668 200.753,303.182 197.943,302.879 196.327 C 302.017 191.735,300.902 185.123,300.650 183.104 C 300.524 182.094,300.194 180.523,299.917 179.614 C 299.640 178.705,299.302 176.819,299.166 175.422 C 299.030 174.025,298.688 172.124,298.407 171.198 C 298.126 170.271,297.891 168.935,297.884 168.228 C 297.878 167.521,297.632 165.868,297.338 164.555 C 297.044 163.242,296.622 160.762,296.400 159.045 C 296.177 157.328,295.772 155.096,295.500 154.086 C 295.227 153.076,294.893 151.101,294.756 149.697 C 294.620 148.292,294.366 146.771,294.193 146.315 C 294.020 145.859,293.628 143.585,293.324 141.260 C 293.019 138.936,292.608 136.739,292.412 136.378 C 292.215 136.016,291.872 134.168,291.650 132.270 C 291.428 130.373,291.108 128.554,290.939 128.230 C 290.770 127.906,290.512 126.318,290.365 124.702 C 290.219 123.085,289.881 121.102,289.615 120.294 C 289.348 119.486,289.015 117.502,288.874 115.886 C 288.734 114.270,288.410 112.437,288.154 111.813 C 287.899 111.189,287.569 109.288,287.422 107.589 C 287.274 105.890,286.935 103.838,286.668 103.030 C 286.401 102.222,286.068 100.321,285.928 98.806 C 285.393 93.012,282.711 90.758,279.302 93.236 C 278.514 93.809,272.635 99.470,266.237 105.816 C 259.838 112.163,253.475 118.462,252.095 119.816 C 250.716 121.169,248.795 123.111,247.827 124.131 C 246.859 125.152,245.929 125.987,245.760 125.987 C 245.591 125.987,245.226 126.328,244.948 126.746 C 244.277 127.756,243.621 127.434,242.059 125.329 C 241.354 124.378,240.569 123.467,240.315 123.306 C 240.061 123.144,239.850 122.814,239.847 122.571 C 239.843 122.329,239.412 121.724,238.888 121.227 C 238.364 120.730,237.509 119.738,236.988 119.023 C 234.228 115.238,233.120 113.866,232.825 113.866 C 232.547 113.866,235.892 118.414,237.417 120.110 C 237.689 120.413,238.713 121.736,239.692 123.049 C 241.851 125.944,243.748 127.824,244.514 127.824 C 244.827 127.824,249.533 123.402,254.972 117.998 C 285.398 87.770,283.485 88.819,285.595 101.194 C 289.815 125.949,290.890 132.217,291.802 137.374 C 292.738 142.666,295.673 159.616,296.064 161.983 C 296.281 163.297,296.775 166.189,297.162 168.411 C 297.550 170.634,298.214 174.518,298.638 177.043 C 299.062 179.568,299.643 182.792,299.928 184.206 C 300.214 185.620,300.707 188.347,301.024 190.266 C 301.341 192.185,301.931 195.657,302.335 197.980 C 302.739 200.303,303.300 203.609,303.583 205.326 C 303.865 207.043,304.529 210.927,305.057 213.958 C 305.586 216.988,306.263 221.038,306.562 222.957 C 306.860 224.876,307.328 227.438,307.602 228.650 C 307.875 229.862,308.211 231.763,308.349 232.874 C 308.486 233.985,308.743 235.473,308.920 236.180 C 309.097 236.887,309.496 239.118,309.805 241.139 C 310.428 245.197,311.209 249.877,312.014 254.362 C 313.440 262.315,314.064 265.975,314.408 268.386 C 314.614 269.836,314.936 271.427,315.124 271.921 C 315.812 273.730,316.363 281.442,315.921 283.075 C 315.371 285.105,313.215 286.926,308.356 289.464 C 307.144 290.098,305.972 290.763,305.752 290.942 C 305.532 291.122,304.375 291.786,303.181 292.418 C 301.987 293.049,299.853 294.192,298.439 294.957 C 297.025 295.721,295.124 296.743,294.215 297.228 C 293.306 297.712,292.149 298.380,291.644 298.713 C 290.806 299.265,288.271 300.628,281.175 304.343 C 279.761 305.083,278.522 305.802,278.421 305.941 C 278.320 306.080,277.576 306.522,276.768 306.924 C 275.960 307.326,274.224 308.245,272.911 308.966 C 271.598 309.687,269.532 310.814,268.320 311.470 C 267.107 312.126,265.012 313.306,263.664 314.091 C 262.316 314.876,261.105 315.519,260.973 315.519 C 260.842 315.519,259.606 316.178,258.227 316.983 C 256.848 317.788,254.671 319.003,253.388 319.683 C 252.105 320.363,249.982 321.530,248.669 322.276 C 247.355 323.022,245.620 323.954,244.812 324.346 C 244.004 324.739,243.095 325.220,242.792 325.416 C 241.987 325.936,234.321 330.187,230.487 332.240 C 225.903 334.694,224.207 335.625,217.080 339.597 C 201.195 348.450,201.065 348.468,191.552 343.077 C 189.128 341.703,185.822 339.879,184.206 339.024 C 182.590 338.168,181.019 337.256,180.716 336.997 C 180.413 336.738,179.174 336.008,177.961 335.376 C 176.749 334.744,175.510 334.073,175.207 333.886 C 174.369 333.367,158.573 324.504,157.943 324.199 C 157.640 324.052,156.731 323.533,155.923 323.046 C 155.115 322.559,153.958 321.900,153.352 321.581 C 152.746 321.263,151.589 320.605,150.781 320.119 C 149.972 319.633,148.352 318.728,147.179 318.107 C 146.006 317.486,142.172 315.330,138.659 313.315 C 135.146 311.300,131.312 309.143,130.140 308.523 C 128.967 307.902,127.346 307.008,126.538 306.536 C 125.730 306.063,124.408 305.332,123.600 304.909 C 122.792 304.487,121.552 303.780,120.845 303.337 C 120.138 302.895,118.485 301.958,117.172 301.254 C 115.859 300.550,114.346 299.711,113.810 299.390 C 113.275 299.069,111.704 298.177,110.321 297.409 C 108.937 296.640,107.557 295.857,107.254 295.669 C 106.951 295.481,106.208 295.081,105.601 294.779 C 104.995 294.477,104.252 294.067,103.949 293.868 C 103.646 293.669,102.432 292.963,101.253 292.299 C 100.073 291.636,98.503 290.732,97.763 290.292 C 97.024 289.851,95.885 289.241,95.233 288.936 C 93.922 288.324,93.749 288.200,91.658 286.381 C 89.878 284.832,89.577 282.303,90.492 276.584 C 90.799 274.665,91.225 271.938,91.438 270.523 C 91.651 269.109,92.156 266.051,92.559 263.728 C 92.962 261.405,93.613 257.521,94.005 255.096 C 94.397 252.672,95.067 248.540,95.494 245.914 C 96.335 240.729,97.254 235.017,98.449 227.548 C 98.869 224.922,99.474 221.368,99.794 219.651 C 100.114 217.934,100.511 215.455,100.676 214.141 C 100.841 212.828,101.228 210.266,101.535 208.448 C 102.204 204.491,102.997 199.493,103.984 193.021 C 104.384 190.395,105.037 186.180,105.435 183.655 C 105.833 181.129,106.409 177.245,106.714 175.023 C 107.019 172.801,107.363 170.735,107.479 170.432 C 107.595 170.129,107.992 167.897,108.363 165.473 C 108.733 163.049,109.368 158.916,109.775 156.290 C 110.181 153.664,110.774 149.780,111.091 147.658 C 111.408 145.537,111.907 142.397,112.199 140.680 C 112.492 138.962,112.920 136.318,113.152 134.803 C 114.269 127.513,114.989 122.947,115.498 119.927 C 116.550 113.686,117.140 109.999,118.082 103.765 C 118.601 100.331,119.259 96.198,119.545 94.582 C 119.830 92.966,120.166 90.735,120.291 89.624 C 120.417 88.512,120.749 86.364,121.028 84.848 C 121.308 83.333,121.640 81.185,121.766 80.073 C 121.891 78.962,122.301 76.400,122.676 74.380 C 123.505 69.915,123.996 66.779,124.661 61.708 C 124.940 59.587,125.340 57.190,125.552 56.382 C 125.764 55.574,126.046 53.756,126.180 52.342 C 126.315 50.927,126.650 48.696,126.925 47.383 C 127.200 46.070,127.598 43.508,127.808 41.690 C 128.978 31.586,131.434 30.432,136.340 37.683 C 137.036 38.712,137.984 39.952,138.447 40.438 C 139.173 41.200,140.030 42.371,141.598 44.743 C 141.800 45.048,142.179 45.561,142.441 45.881 C 145.117 49.162,149.562 55.099,150.413 56.527 C 150.615 56.866,150.988 57.385,151.242 57.681 C 152.019 58.584,155.154 62.673,155.739 63.545 C 156.042 63.996,157.075 65.359,158.035 66.573 C 158.994 67.787,159.780 68.888,159.780 69.019 C 159.780 69.150,160.262 69.786,160.851 70.431 C 161.440 71.076,162.473 72.384,163.147 73.339 C 163.820 74.293,164.660 75.372,165.014 75.737 C 166.188 76.949,165.659 75.879,163.994 73.673 C 163.090 72.477,162.351 71.361,162.351 71.194 C 162.351 71.027,162.103 70.891,161.800 70.891 C 161.497 70.891,161.244 70.684,161.239 70.432 C 161.231 70.039,160.328 68.726,157.389 64.830 C 157.084 64.426,156.423 63.576,155.920 62.941 C 155.416 62.305,155.005 61.609,155.005 61.392 C 155.005 61.176,154.674 60.822,154.270 60.606 C 153.866 60.390,153.535 60.053,153.535 59.859 C 153.535 59.664,153.246 59.190,152.893 58.807 C 152.539 58.423,151.837 57.498,151.331 56.751 C 150.826 56.004,150.124 55.124,149.770 54.795 C 149.417 54.467,149.128 53.996,149.128 53.747 C 149.128 53.499,148.921 53.164,148.669 53.003 C 148.416 52.841,147.640 51.882,146.943 50.872 C 146.247 49.862,145.462 48.904,145.199 48.742 C 144.935 48.581,144.720 48.217,144.720 47.934 C 144.720 47.651,144.460 47.274,144.142 47.096 C 143.824 46.918,143.370 46.445,143.132 46.045 C 141.793 43.791,140.936 42.608,140.643 42.608 C 140.461 42.608,140.312 42.397,140.312 42.139 C 140.312 41.880,140.023 41.401,139.669 41.072 C 139.316 40.744,138.613 39.864,138.108 39.117 C 137.603 38.370,136.901 37.445,136.547 37.061 C 136.194 36.678,135.904 36.260,135.904 36.134 C 135.904 36.008,135.073 35.099,134.056 34.114 C 132.290 32.403,131.775 32.193,130.285 32.580 M167.083 78.696 C 167.902 79.757,168.827 80.955,169.139 81.359 C 169.450 81.763,169.951 82.424,170.251 82.828 C 170.551 83.232,171.287 84.224,171.887 85.032 C 173.166 86.755,173.564 87.282,175.658 90.029 C 176.521 91.161,177.557 92.534,177.961 93.080 C 183.213 100.176,185.686 103.292,186.347 103.644 C 187.304 104.154,186.876 103.530,184.862 101.480 C 184.213 100.819,183.496 99.930,183.268 99.505 C 183.040 99.079,181.092 96.420,178.939 93.596 C 176.785 90.772,174.778 88.103,174.478 87.665 C 174.178 87.227,173.304 86.042,172.536 85.032 C 171.769 84.022,170.857 82.817,170.511 82.355 C 170.164 81.892,169.550 81.113,169.146 80.623 C 168.742 80.133,167.946 79.065,167.377 78.250 C 166.809 77.435,166.175 76.768,165.969 76.768 C 165.763 76.768,166.264 77.635,167.083 78.696 M201.469 78.225 C 200.278 78.727,197.262 82.679,197.255 83.747 C 197.254 84.050,197.692 83.554,198.229 82.645 C 199.808 79.973,200.916 78.816,202.338 78.357 C 203.072 78.120,203.343 77.924,202.938 77.921 C 202.534 77.918,201.873 78.055,201.469 78.225 M206.036 80.373 C 207.855 82.274,214.612 90.720,220.487 98.439 C 223.068 101.830,225.323 104.390,224.841 103.383 C 224.644 102.971,223.933 102.016,223.261 101.261 C 222.589 100.506,221.377 98.971,220.569 97.850 C 219.761 96.728,218.554 95.204,217.886 94.462 C 217.218 93.720,216.429 92.658,216.132 92.103 C 215.835 91.547,215.466 91.093,215.313 91.093 C 215.160 91.093,214.764 90.638,214.433 90.083 C 214.103 89.527,213.364 88.531,212.793 87.870 C 212.221 87.208,211.468 86.299,211.118 85.849 C 207.801 81.584,206.581 80.113,205.642 79.247 C 203.679 77.438,203.940 78.183,206.036 80.373 M196.188 85.447 C 195.577 86.789,195.844 86.864,196.592 85.559 C 196.933 84.966,197.080 84.481,196.920 84.481 C 196.760 84.481,196.430 84.916,196.188 85.447 M194.816 87.982 C 194.481 88.493,194.280 88.984,194.368 89.073 C 194.457 89.161,194.819 88.743,195.173 88.143 C 195.958 86.815,195.667 86.684,194.816 87.982 M193.426 90.416 C 193.102 90.878,192.838 91.509,192.839 91.817 C 192.840 92.126,193.179 91.822,193.593 91.143 C 194.453 89.733,194.317 89.144,193.426 90.416 M191.008 95.044 C 190.305 96.406,189.425 97.978,189.051 98.536 C 188.678 99.095,188.438 99.750,188.519 99.992 C 188.600 100.235,189.119 99.530,189.673 98.426 C 190.842 96.097,191.276 95.322,192.180 93.954 C 192.898 92.867,192.983 92.560,192.562 92.565 C 192.410 92.567,191.711 93.682,191.008 95.044 M187.549 101.435 C 187.225 101.897,186.961 102.528,186.962 102.837 C 186.963 103.145,187.302 102.842,187.716 102.162 C 188.576 100.753,188.440 100.163,187.549 101.435 M225.161 104.683 C 225.161 104.885,225.291 105.051,225.449 105.051 C 225.712 105.051,226.640 106.178,228.650 108.938 C 230.446 111.404,232.243 113.517,232.406 113.354 C 232.504 113.257,231.817 112.216,230.880 111.042 C 229.942 109.868,228.892 108.539,228.545 108.090 C 228.199 107.640,227.461 106.743,226.905 106.095 C 226.350 105.448,225.895 104.783,225.895 104.617 C 225.895 104.451,225.730 104.316,225.528 104.316 C 225.326 104.316,225.161 104.481,225.161 104.683 " stroke="none" fill="#fcf3c8" fill-rule="evenodd"></path><path id="path5" d="M130.487 33.238 C 129.830 33.524,129.293 33.956,129.293 34.199 C 129.293 34.472,129.569 34.391,130.015 33.988 C 130.468 33.578,131.084 33.401,131.671 33.513 C 132.428 33.658,132.526 33.597,132.190 33.191 C 131.961 32.916,131.753 32.697,131.727 32.705 C 131.702 32.713,131.143 32.953,130.487 33.238 M138.118 40.262 C 138.130 40.636,140.287 43.276,140.302 42.934 C 140.308 42.810,139.816 42.085,139.210 41.322 C 138.604 40.560,138.113 40.082,138.118 40.262 M126.926 47.220 C 126.788 47.957,126.748 48.633,126.838 48.723 C 126.927 48.813,127.114 48.283,127.252 47.546 C 127.391 46.809,127.430 46.132,127.341 46.043 C 127.251 45.953,127.064 46.483,126.926 47.220 M147.287 52.617 C 148.155 53.779,148.933 54.729,149.015 54.729 C 149.279 54.729,147.006 51.581,146.347 51.035 C 145.995 50.743,146.418 51.455,147.287 52.617 M125.132 57.995 C 124.996 58.673,124.903 59.580,124.925 60.009 C 124.948 60.438,125.112 60.046,125.291 59.137 C 125.470 58.228,125.563 57.321,125.498 57.122 C 125.432 56.923,125.268 57.316,125.132 57.995 M124.019 65.826 C 123.895 66.288,123.808 66.997,123.825 67.401 C 123.843 67.805,124.008 67.491,124.193 66.703 C 124.551 65.177,124.398 64.408,124.019 65.826 M161.597 71.789 C 162.082 72.305,162.534 72.727,162.602 72.727 C 162.933 72.727,161.744 71.245,161.265 71.061 C 160.963 70.945,161.112 71.272,161.597 71.789 M122.380 75.834 C 122.142 77.021,121.962 78.336,121.981 78.757 C 122.000 79.178,122.247 78.365,122.529 76.951 C 122.811 75.537,122.991 74.222,122.928 74.028 C 122.865 73.834,122.619 74.647,122.380 75.834 M164.531 75.758 C 166.549 78.244,166.801 78.466,165.782 76.860 C 165.237 76.001,164.649 75.298,164.475 75.298 C 164.301 75.298,164.326 75.505,164.531 75.758 M201.608 78.538 C 200.357 79.063,196.952 84.425,193.403 91.460 C 192.843 92.571,192.007 94.141,191.547 94.949 C 191.086 95.758,190.157 97.493,189.481 98.806 C 188.806 100.119,187.907 101.817,187.482 102.578 L 186.710 103.963 185.642 103.163 L 184.573 102.363 185.581 103.420 C 186.852 104.754,186.943 104.667,189.615 99.541 C 190.721 97.420,192.667 93.783,193.939 91.460 C 195.210 89.137,196.971 85.914,197.851 84.298 C 202.301 76.124,202.753 76.318,214.509 91.450 C 223.057 102.455,229.373 110.527,230.610 112.029 C 231.192 112.736,232.795 114.803,234.173 116.621 C 235.551 118.439,238.080 121.662,239.794 123.783 C 241.509 125.904,242.925 127.661,242.943 127.686 C 242.961 127.712,243.388 127.844,243.893 127.979 C 244.744 128.208,244.757 128.193,244.077 127.774 C 242.977 127.097,241.686 125.704,239.699 123.049 C 238.716 121.736,237.690 120.413,237.418 120.110 C 236.816 119.438,229.673 110.335,228.650 108.935 C 226.596 106.125,225.711 105.051,225.449 105.051 C 225.291 105.051,225.161 104.884,225.161 104.680 C 225.161 104.476,223.797 102.588,222.130 100.484 C 220.464 98.381,216.621 93.474,213.590 89.580 C 205.253 78.867,203.869 77.591,201.608 78.538 M167.492 79.614 C 167.973 80.271,168.423 80.808,168.493 80.808 C 168.772 80.808,167.862 79.430,167.259 78.941 C 166.863 78.619,166.951 78.876,167.492 79.614 M120.678 86.518 C 120.537 87.455,120.498 88.297,120.589 88.389 C 120.681 88.480,120.871 87.789,121.012 86.852 C 121.152 85.915,121.192 85.073,121.100 84.982 C 121.008 84.890,120.818 85.581,120.678 86.518 M177.355 92.776 C 177.720 93.505,178.880 94.678,178.880 94.317 C 178.880 94.223,178.451 93.665,177.926 93.078 C 177.290 92.366,177.100 92.266,177.355 92.776 M119.209 96.068 C 119.068 97.005,119.028 97.847,119.120 97.939 C 119.212 98.030,119.402 97.339,119.543 96.402 C 119.683 95.465,119.723 94.623,119.631 94.532 C 119.539 94.440,119.349 95.131,119.209 96.068 M181.741 98.623 C 181.950 99.027,182.728 100.018,183.469 100.826 L 184.818 102.296 183.428 100.459 C 181.682 98.151,181.259 97.690,181.741 98.623 M116.270 114.801 C 116.130 115.738,116.090 116.580,116.182 116.671 C 116.273 116.763,116.464 116.072,116.604 115.135 C 116.745 114.198,116.784 113.356,116.693 113.264 C 116.601 113.173,116.411 113.864,116.270 114.801 M114.991 122.888 C 114.728 124.208,114.586 125.360,114.674 125.449 C 114.763 125.537,115.050 124.529,115.312 123.209 C 115.575 121.889,115.717 120.737,115.629 120.648 C 115.540 120.560,115.253 121.568,114.991 122.888 M113.332 133.166 C 113.191 134.103,113.151 134.945,113.243 135.037 C 113.335 135.129,113.525 134.437,113.666 133.500 C 113.806 132.563,113.846 131.722,113.754 131.630 C 113.662 131.538,113.472 132.229,113.332 133.166 M111.846 142.516 C 111.705 143.351,111.672 144.117,111.773 144.218 C 111.874 144.319,112.072 143.719,112.213 142.883 C 112.354 142.048,112.387 141.282,112.286 141.181 C 112.185 141.080,111.987 141.681,111.846 142.516 M110.393 151.899 C 110.253 152.836,110.213 153.678,110.305 153.770 C 110.397 153.861,110.587 153.170,110.727 152.233 C 110.868 151.296,110.907 150.454,110.816 150.363 C 110.724 150.271,110.534 150.962,110.393 151.899 M108.924 161.449 C 108.783 162.386,108.744 163.228,108.835 163.320 C 108.927 163.412,109.117 162.720,109.258 161.783 C 109.398 160.846,109.438 160.004,109.346 159.913 C 109.255 159.821,109.064 160.512,108.924 161.449 M107.418 170.595 C 107.279 171.332,107.258 172.027,107.370 172.139 C 107.482 172.251,107.687 171.740,107.826 171.003 C 107.964 170.266,107.985 169.571,107.873 169.459 C 107.761 169.346,107.556 169.858,107.418 170.595 M106.605 176.309 C 106.605 177.016,106.681 177.305,106.773 176.951 C 106.865 176.598,106.865 176.019,106.773 175.666 C 106.681 175.312,106.605 175.601,106.605 176.309 M105.969 179.982 C 105.828 180.817,105.789 181.577,105.883 181.672 C 105.978 181.766,106.165 181.154,106.299 180.312 C 106.434 179.470,106.472 178.710,106.385 178.622 C 106.297 178.535,106.110 179.146,105.969 179.982 M104.536 189.201 C 104.402 190.043,104.363 190.803,104.451 190.891 C 104.539 190.979,104.726 190.367,104.867 189.532 C 105.008 188.696,105.046 187.936,104.952 187.842 C 104.858 187.748,104.671 188.359,104.536 189.201 M103.067 198.751 C 102.932 199.593,102.894 200.353,102.982 200.441 C 103.069 200.529,103.256 199.917,103.398 199.082 C 103.539 198.246,103.577 197.486,103.483 197.392 C 103.389 197.298,103.202 197.909,103.067 198.751 M102.197 204.591 C 102.197 205.298,102.273 205.588,102.365 205.234 C 102.458 204.881,102.458 204.302,102.365 203.949 C 102.273 203.595,102.197 203.884,102.197 204.591 M101.561 208.264 C 101.420 209.100,101.387 209.866,101.488 209.967 C 101.589 210.068,101.787 209.467,101.928 208.632 C 102.069 207.796,102.102 207.030,102.001 206.929 C 101.900 206.828,101.702 207.429,101.561 208.264 M99.934 218.392 C 99.682 219.520,99.558 220.526,99.660 220.627 C 99.761 220.728,100.038 219.876,100.275 218.733 C 100.513 217.590,100.636 216.584,100.550 216.498 C 100.464 216.411,100.187 217.264,99.934 218.392 M99.259 222.590 C 99.259 223.297,99.334 223.586,99.427 223.232 C 99.519 222.879,99.519 222.300,99.427 221.947 C 99.334 221.593,99.259 221.882,99.259 222.590 M98.659 226.299 C 98.525 227.141,98.486 227.902,98.574 227.989 C 98.662 228.077,98.849 227.465,98.990 226.630 C 99.131 225.795,99.169 225.034,99.075 224.940 C 98.981 224.846,98.794 225.458,98.659 226.299 M97.190 235.482 C 97.055 236.324,97.017 237.084,97.105 237.172 C 97.192 237.260,97.380 236.648,97.521 235.813 C 97.662 234.977,97.700 234.217,97.606 234.123 C 97.512 234.029,97.325 234.640,97.190 235.482 M94.851 249.770 C 94.851 250.478,94.927 250.767,95.019 250.413 C 95.111 250.060,95.111 249.481,95.019 249.128 C 94.927 248.774,94.851 249.063,94.851 249.770 M92.782 262.663 C 92.648 263.505,92.609 264.265,92.697 264.353 C 92.785 264.441,92.972 263.829,93.113 262.994 C 93.254 262.158,93.292 261.398,93.198 261.304 C 93.104 261.209,92.917 261.821,92.782 262.663 M92.011 266.299 C 91.870 267.135,91.831 267.895,91.926 267.989 C 92.020 268.083,92.207 267.472,92.342 266.630 C 92.476 265.788,92.515 265.028,92.427 264.940 C 92.339 264.852,92.152 265.464,92.011 266.299 M90.929 273.482 C 90.791 274.219,90.752 274.896,90.841 274.986 C 90.931 275.076,91.118 274.546,91.256 273.809 C 91.394 273.072,91.434 272.395,91.344 272.305 C 91.254 272.216,91.068 272.745,90.929 273.482 M90.076 279.890 C 90.076 280.597,90.152 280.886,90.244 280.533 C 90.336 280.179,90.336 279.601,90.244 279.247 C 90.152 278.893,90.076 279.183,90.076 279.890 " stroke="none" fill="#f4e4c4" fill-rule="evenodd"></path></g></svg>