<svg id="svg" version="1.1" width="400" height="400" viewBox="0 0 400 400" xmlns="http://www.w3.org/2000/svg" xmlns:xlink="http://www.w3.org/1999/xlink" ><g id="svgg"><path id="path0" d="M265.000 57.197 L 225.000 57.400 221.617 60.600 C 218.687 63.372,217.065 64.978,215.732 66.426 C 215.550 66.624,214.500 67.675,213.400 68.761 C 212.300 69.846,211.220 70.930,211.000 71.169 C 210.780 71.409,208.260 73.941,205.400 76.798 C 199.185 83.005,199.858 82.335,197.400 84.761 C 196.300 85.846,195.220 86.930,195.000 87.169 C 194.780 87.409,192.260 89.941,189.400 92.798 C 183.185 99.005,183.858 98.335,181.400 100.761 C 180.300 101.846,179.220 102.930,179.000 103.169 C 178.780 103.409,176.260 105.941,173.400 108.798 C 167.185 115.005,167.858 114.335,165.400 116.761 C 164.300 117.846,163.220 118.930,163.000 119.169 C 162.780 119.409,160.260 121.941,157.400 124.798 C 151.185 131.005,151.858 130.335,149.400 132.761 C 148.300 133.846,147.220 134.930,147.000 135.169 C 146.780 135.409,144.260 137.941,141.400 140.798 C 135.185 147.005,135.858 146.335,133.400 148.761 C 132.300 149.846,131.220 150.930,131.000 151.169 C 130.780 151.409,128.260 153.941,125.400 156.798 C 119.185 163.005,119.858 162.335,117.400 164.761 C 116.300 165.846,115.220 166.930,115.000 167.169 C 114.697 167.499,107.519 174.690,103.800 178.389 C 101.223 180.952,99.022 183.113,98.491 183.600 C 98.132 183.930,96.389 185.714,94.619 187.565 C 92.848 189.416,91.220 191.078,91.000 191.258 C 81.005 199.443,80.876 200.932,89.580 207.551 C 90.339 208.128,93.070 210.760,95.650 213.400 C 98.230 216.040,100.669 218.529,101.070 218.931 C 107.251 225.122,116.406 234.257,117.103 234.930 C 117.599 235.408,119.039 236.807,120.303 238.039 C 124.240 241.876,126.266 242.745,127.200 241.000 C 127.494 240.450,127.852 240.000,127.995 240.000 C 128.138 240.000,167.752 200.474,216.027 152.165 C 264.302 103.856,304.295 63.866,304.900 63.299 C 305.505 62.732,306.000 61.954,306.000 61.571 C 306.000 61.188,306.900 60.228,308.000 59.438 C 310.841 57.397,310.532 56.706,306.867 56.897 C 305.840 56.951,287.000 57.086,265.000 57.197 M223.719 191.112 C 223.015 191.710,219.235 195.417,215.319 199.348 C 211.404 203.280,207.750 206.929,207.200 207.457 C 205.198 209.381,204.982 209.593,203.911 210.687 C 197.352 217.386,193.334 221.219,191.000 223.004 C 187.000 226.062,148.400 264.986,148.400 265.960 C 148.400 266.388,148.833 267.247,149.362 267.869 C 151.747 270.674,190.473 309.015,191.044 309.138 C 191.448 309.224,195.121 305.857,200.943 300.065 C 206.034 295.000,215.894 285.218,222.854 278.328 C 229.813 271.437,235.639 265.350,235.800 264.800 C 236.106 263.753,237.515 262.000,238.051 262.000 C 238.414 262.000,302.982 197.475,306.702 193.395 C 308.487 191.437,309.061 190.559,308.702 190.331 C 308.426 190.156,289.480 190.015,266.600 190.018 L 225.000 190.024 223.719 191.112 " stroke="none" fill="#4ec0f8" fill-rule="evenodd"></path><path id="path1" d="M213.248 287.900 C 201.332 299.725,191.587 309.651,191.591 309.959 C 191.596 310.266,198.868 317.778,207.752 326.652 L 223.903 342.787 267.405 342.807 C 291.331 342.818,311.006 342.727,311.128 342.605 C 311.350 342.383,235.611 266.415,235.156 266.405 C 235.022 266.402,225.163 276.075,213.248 287.900 " stroke="none" fill="#045397" fill-rule="evenodd"></path><path id="path2" d="M0.000 200.000 L 0.000 400.000 200.000 400.000 L 400.000 400.000 400.000 200.000 L 400.000 0.000 200.000 0.000 L 0.000 0.000 0.000 200.000 M312.271 56.641 C 312.591 57.475,126.193 244.000,125.039 244.000 C 124.190 244.000,81.381 201.503,80.962 200.245 C 80.761 199.640,94.955 185.246,152.455 127.745 L 224.199 56.000 268.112 56.000 C 308.028 56.000,312.047 56.058,312.271 56.641 M309.300 188.668 C 311.470 188.866,312.000 189.048,312.000 189.590 C 312.000 189.962,295.164 207.081,274.586 227.633 C 254.008 248.185,236.997 265.305,236.783 265.678 C 236.460 266.242,242.795 272.754,274.364 304.307 C 295.246 325.179,312.392 342.604,312.466 343.028 C 312.668 344.191,311.823 344.211,265.765 344.096 L 223.944 343.993 185.687 305.583 C 147.967 267.711,146.818 266.538,146.806 265.857 C 146.795 265.215,223.751 188.836,224.578 188.669 C 225.911 188.398,306.346 188.398,309.300 188.668 " stroke="none" fill="#fbfbfb" fill-rule="evenodd"></path><path id="path3" d="M152.455 127.745 C 94.955 185.246,80.761 199.640,80.962 200.245 C 81.381 201.503,124.190 244.000,125.039 244.000 C 126.193 244.000,312.591 57.475,312.271 56.641 C 312.047 56.058,308.028 56.000,268.112 56.000 L 224.199 56.000 152.455 127.745 M309.550 57.050 C 311.172 57.374,311.130 57.806,309.394 58.630 C 307.798 59.387,307.253 60.000,308.176 60.000 C 308.519 60.000,308.800 60.180,308.800 60.400 C 308.800 60.620,308.621 60.800,308.403 60.800 C 307.621 60.800,300.540 67.453,300.700 68.036 C 300.755 68.236,300.575 68.402,300.300 68.405 C 299.685 68.411,292.561 75.587,292.700 76.060 C 292.755 76.247,292.628 76.400,292.417 76.400 C 291.882 76.400,284.577 83.658,284.700 84.067 C 284.755 84.250,284.575 84.402,284.300 84.405 C 283.685 84.411,276.561 91.587,276.700 92.060 C 276.755 92.247,276.628 92.400,276.417 92.400 C 275.882 92.400,268.577 99.658,268.700 100.067 C 268.755 100.250,268.575 100.402,268.300 100.405 C 267.685 100.411,260.561 107.587,260.700 108.060 C 260.755 108.247,260.628 108.400,260.417 108.400 C 259.882 108.400,252.577 115.658,252.700 116.067 C 252.755 116.250,252.575 116.402,252.300 116.405 C 251.685 116.411,244.561 123.587,244.700 124.060 C 244.755 124.247,244.628 124.400,244.417 124.400 C 243.882 124.400,236.577 131.658,236.700 132.067 C 236.755 132.250,236.575 132.402,236.300 132.405 C 235.685 132.411,228.561 139.587,228.700 140.060 C 228.755 140.247,228.628 140.400,228.417 140.400 C 227.882 140.400,220.577 147.658,220.700 148.067 C 220.755 148.250,220.575 148.402,220.300 148.405 C 219.685 148.411,212.561 155.587,212.700 156.060 C 212.755 156.247,212.628 156.400,212.417 156.400 C 211.882 156.400,204.577 163.658,204.700 164.067 C 204.755 164.250,204.575 164.402,204.300 164.405 C 203.685 164.411,196.561 171.587,196.700 172.060 C 196.755 172.247,196.628 172.400,196.417 172.400 C 195.882 172.400,188.577 179.658,188.700 180.067 C 188.755 180.250,188.575 180.402,188.300 180.405 C 187.685 180.411,180.561 187.587,180.700 188.060 C 180.755 188.247,180.628 188.400,180.417 188.400 C 179.882 188.400,172.577 195.658,172.700 196.067 C 172.755 196.250,172.575 196.402,172.300 196.405 C 171.685 196.411,164.561 203.587,164.700 204.060 C 164.755 204.247,164.628 204.400,164.417 204.400 C 163.882 204.400,156.577 211.658,156.700 212.067 C 156.755 212.250,156.575 212.402,156.300 212.405 C 155.685 212.411,148.561 219.587,148.700 220.060 C 148.755 220.247,148.628 220.400,148.417 220.400 C 147.882 220.400,140.577 227.658,140.700 228.067 C 140.755 228.250,140.575 228.402,140.300 228.405 C 139.685 228.411,132.561 235.587,132.700 236.060 C 132.755 236.247,132.624 236.400,132.410 236.400 C 132.195 236.400,130.475 237.930,128.589 239.800 C 126.702 241.670,125.021 243.200,124.854 243.200 C 124.405 243.200,122.370 240.993,121.842 239.933 C 121.590 239.429,120.976 238.812,120.477 238.563 C 119.426 238.040,116.000 234.562,116.000 234.020 C 116.000 233.819,115.645 233.541,115.211 233.403 C 114.776 233.266,114.191 232.682,113.911 232.106 C 113.630 231.531,112.770 230.712,112.000 230.287 C 111.230 229.862,110.452 229.256,110.272 228.942 C 109.797 228.114,107.229 225.600,106.859 225.600 C 106.686 225.600,106.287 225.017,105.972 224.305 C 105.657 223.592,104.988 222.807,104.485 222.560 C 103.433 222.044,100.000 218.568,100.000 218.020 C 100.000 217.819,99.645 217.541,99.211 217.403 C 98.776 217.266,98.191 216.682,97.911 216.106 C 97.630 215.531,96.770 214.712,96.000 214.287 C 95.230 213.862,94.452 213.256,94.272 212.942 C 93.794 212.109,91.228 209.600,90.854 209.600 C 90.679 209.600,90.294 209.150,90.000 208.600 C 89.706 208.050,89.225 207.600,88.932 207.600 C 88.640 207.600,88.400 207.424,88.400 207.209 C 88.400 206.994,86.808 205.248,84.862 203.329 L 81.324 199.840 152.532 128.620 L 223.740 57.400 264.370 57.196 C 286.716 57.084,305.743 56.949,306.650 56.896 C 307.558 56.843,308.863 56.913,309.550 57.050 M224.578 188.669 C 223.751 188.836,146.795 265.215,146.806 265.857 C 146.809 266.046,146.976 266.459,147.176 266.776 C 147.833 267.812,190.563 310.370,190.755 310.178 C 190.858 310.075,181.236 300.272,169.371 288.394 C 157.507 276.516,147.733 266.596,147.650 266.350 C 147.504 265.911,191.111 222.000,191.693 222.000 C 191.958 222.000,220.562 193.468,223.344 190.429 L 224.488 189.179 268.047 189.212 L 311.606 189.246 308.303 192.685 C 306.486 194.577,304.649 196.411,304.220 196.762 C 303.791 197.113,301.991 198.917,300.220 200.772 C 298.449 202.627,296.649 204.427,296.220 204.772 C 295.791 205.117,293.991 206.917,292.220 208.772 C 290.449 210.627,288.649 212.427,288.220 212.772 C 287.791 213.117,285.991 214.917,284.220 216.772 C 282.449 218.627,280.649 220.427,280.220 220.772 C 279.791 221.117,277.991 222.917,276.220 224.772 C 274.449 226.627,272.649 228.427,272.220 228.772 C 271.791 229.117,269.991 230.917,268.220 232.772 C 266.449 234.627,264.649 236.427,264.220 236.772 C 263.791 237.117,261.991 238.917,260.220 240.772 C 258.449 242.627,256.649 244.427,256.220 244.772 C 255.791 245.117,253.991 246.917,252.220 248.772 C 250.449 250.627,248.647 252.427,248.215 252.772 C 247.261 253.536,245.307 255.495,242.477 258.526 C 241.310 259.777,240.269 260.800,240.164 260.800 C 239.979 260.800,238.912 261.883,236.760 264.255 C 236.024 265.066,235.802 265.635,236.001 266.201 C 236.281 267.000,236.282 267.000,236.546 266.200 C 236.692 265.760,253.729 248.495,274.406 227.833 C 295.082 207.171,312.000 189.962,312.000 189.591 C 312.000 189.047,311.470 188.866,309.300 188.668 C 306.346 188.398,225.911 188.398,224.578 188.669 M246.800 276.877 C 246.800 276.987,247.160 277.493,247.600 278.000 C 248.040 278.507,248.400 278.743,248.400 278.523 C 248.400 278.304,248.040 277.798,247.600 277.400 C 247.160 277.002,246.800 276.766,246.800 276.877 M254.800 284.877 C 254.800 284.987,255.160 285.493,255.600 286.000 C 256.040 286.507,256.400 286.743,256.400 286.523 C 256.400 286.304,256.040 285.798,255.600 285.400 C 255.160 285.002,254.800 284.766,254.800 284.877 M262.800 292.877 C 262.800 292.987,263.160 293.493,263.600 294.000 C 264.040 294.507,264.400 294.743,264.400 294.523 C 264.400 294.304,264.040 293.798,263.600 293.400 C 263.160 293.002,262.800 292.766,262.800 292.877 M270.800 300.877 C 270.800 300.987,271.160 301.493,271.600 302.000 C 272.040 302.507,272.400 302.743,272.400 302.523 C 272.400 302.304,272.040 301.798,271.600 301.400 C 271.160 301.002,270.800 300.766,270.800 300.877 M278.800 308.877 C 278.800 308.987,279.160 309.493,279.600 310.000 C 280.040 310.507,280.400 310.743,280.400 310.523 C 280.400 310.304,280.040 309.798,279.600 309.400 C 279.160 309.002,278.800 308.766,278.800 308.877 M193.600 313.515 C 193.600 313.684,193.960 314.130,194.400 314.507 C 194.840 314.884,195.200 315.054,195.200 314.885 C 195.200 314.716,194.840 314.270,194.400 313.893 C 193.960 313.516,193.600 313.346,193.600 313.515 M286.800 316.877 C 286.800 316.987,287.160 317.493,287.600 318.000 C 288.040 318.507,288.400 318.743,288.400 318.523 C 288.400 318.304,288.040 317.798,287.600 317.400 C 287.160 317.002,286.800 316.766,286.800 316.877 M199.600 319.515 C 199.600 319.684,199.960 320.130,200.400 320.507 C 200.840 320.884,201.200 321.054,201.200 320.885 C 201.200 320.716,200.840 320.270,200.400 319.893 C 199.960 319.516,199.600 319.346,199.600 319.515 M201.600 321.515 C 201.600 321.684,201.960 322.130,202.400 322.507 C 202.840 322.884,203.200 323.054,203.200 322.885 C 203.200 322.716,202.840 322.270,202.400 321.893 C 201.960 321.516,201.600 321.346,201.600 321.515 M203.600 323.515 C 203.600 323.684,203.960 324.130,204.400 324.507 C 204.840 324.884,205.200 325.054,205.200 324.885 C 205.200 324.716,204.840 324.270,204.400 323.893 C 203.960 323.516,203.600 323.346,203.600 323.515 M294.800 324.877 C 294.800 324.987,295.160 325.493,295.600 326.000 C 296.040 326.507,296.400 326.743,296.400 326.523 C 296.400 326.304,296.040 325.798,295.600 325.400 C 295.160 325.002,294.800 324.766,294.800 324.877 M205.600 325.515 C 205.600 325.684,205.960 326.130,206.400 326.507 C 206.840 326.884,207.200 327.054,207.200 326.885 C 207.200 326.716,206.840 326.270,206.400 325.893 C 205.960 325.516,205.600 325.346,205.600 325.515 M207.600 327.515 C 207.600 327.684,207.960 328.130,208.400 328.507 C 208.840 328.884,209.200 329.054,209.200 328.885 C 209.200 328.716,208.840 328.270,208.400 327.893 C 207.960 327.516,207.600 327.346,207.600 327.515 M302.800 332.877 C 302.800 332.987,303.160 333.493,303.600 334.000 C 304.040 334.507,304.400 334.743,304.400 334.523 C 304.400 334.304,304.040 333.798,303.600 333.400 C 303.160 333.002,302.800 332.766,302.800 332.877 M215.600 335.515 C 215.600 335.684,215.960 336.130,216.400 336.507 C 216.840 336.884,217.200 337.054,217.200 336.885 C 217.200 336.716,216.840 336.270,216.400 335.893 C 215.960 335.516,215.600 335.346,215.600 335.515 M217.600 337.515 C 217.600 337.684,217.960 338.130,218.400 338.507 C 218.840 338.884,219.200 339.054,219.200 338.885 C 219.200 338.716,218.840 338.270,218.400 337.893 C 217.960 337.516,217.600 337.346,217.600 337.515 M219.600 339.515 C 219.600 339.684,219.960 340.130,220.400 340.507 C 220.840 340.884,221.200 341.054,221.200 340.885 C 221.200 340.716,220.840 340.270,220.400 339.893 C 219.960 339.516,219.600 339.346,219.600 339.515 M311.022 341.300 C 311.167 341.685,311.467 342.000,311.689 342.000 C 311.912 342.000,312.006 342.457,311.899 343.016 C 311.776 343.660,311.869 343.974,312.152 343.874 C 312.793 343.649,312.473 342.336,311.549 341.400 C 310.881 340.724,310.800 340.708,311.022 341.300 M221.600 341.515 C 221.600 341.684,221.960 342.130,222.400 342.507 C 222.840 342.884,223.200 343.054,223.200 342.885 C 223.200 342.716,222.840 342.270,222.400 341.893 C 221.960 341.516,221.600 341.346,221.600 341.515 M223.935 343.695 C 224.263 344.023,309.592 344.142,309.919 343.814 C 310.033 343.700,290.667 343.561,266.883 343.504 C 243.099 343.447,223.773 343.533,223.935 343.695 " stroke="none" fill="#8bcdec" fill-rule="evenodd"></path><path id="path4" d="M155.151 126.000 C 117.315 163.840,86.482 194.800,86.634 194.800 C 86.786 194.800,87.741 194.069,88.755 193.175 C 89.770 192.281,90.780 191.410,91.000 191.240 C 91.220 191.070,92.848 189.416,94.619 187.565 C 96.389 185.714,98.132 183.930,98.491 183.600 C 99.022 183.113,101.223 180.952,103.800 178.389 C 107.519 174.690,114.697 167.499,115.000 167.169 C 115.220 166.930,116.300 165.846,117.400 164.761 C 119.858 162.335,119.185 163.005,125.400 156.798 C 128.260 153.941,130.780 151.409,131.000 151.169 C 131.220 150.930,132.300 149.846,133.400 148.761 C 135.858 146.335,135.185 147.005,141.400 140.798 C 144.260 137.941,146.780 135.409,147.000 135.169 C 147.220 134.930,148.300 133.846,149.400 132.761 C 151.858 130.335,151.185 131.005,157.400 124.798 C 160.260 121.941,162.780 119.409,163.000 119.169 C 163.220 118.930,164.300 117.846,165.400 116.761 C 167.858 114.335,167.185 115.005,173.400 108.798 C 176.260 105.941,178.780 103.409,179.000 103.169 C 179.220 102.930,180.300 101.846,181.400 100.761 C 183.858 98.335,183.185 99.005,189.400 92.798 C 192.260 89.941,194.780 87.409,195.000 87.169 C 195.220 86.930,196.300 85.846,197.400 84.761 C 198.500 83.675,199.580 82.609,199.800 82.391 C 200.020 82.173,202.421 79.746,205.135 76.998 C 207.849 74.249,210.280 71.865,210.537 71.700 C 210.794 71.535,211.481 70.760,212.063 69.979 C 212.644 69.197,213.760 68.119,214.541 67.584 C 215.323 67.048,216.106 66.303,216.281 65.928 C 216.457 65.553,218.220 63.771,220.200 61.968 C 224.028 58.482,225.157 57.200,224.395 57.200 C 224.147 57.200,192.988 88.160,155.151 126.000 M309.843 57.833 C 309.693 58.223,309.782 58.406,310.075 58.308 C 310.673 58.109,311.002 57.200,310.476 57.200 C 310.261 57.200,309.976 57.485,309.843 57.833 M306.507 60.500 C 305.528 61.751,305.610 62.828,306.628 62.088 C 307.149 61.710,307.581 61.265,307.587 61.100 C 307.594 60.935,307.870 60.800,308.200 60.800 C 308.530 60.800,308.800 60.620,308.800 60.400 C 308.800 59.826,306.972 59.906,306.507 60.500 M223.258 190.465 C 222.566 191.173,222.000 191.904,222.000 192.090 C 222.000 192.565,223.264 191.834,224.166 190.837 L 224.924 190.000 266.562 190.006 C 289.463 190.009,308.426 190.156,308.702 190.331 C 309.060 190.558,308.570 191.329,306.989 193.025 C 304.416 195.785,302.591 198.154,303.765 197.210 C 304.168 196.886,305.691 195.367,307.149 193.835 C 308.607 192.302,310.220 190.643,310.734 190.147 L 311.667 189.246 268.091 189.212 L 224.515 189.179 223.258 190.465 M219.200 194.683 C 218.417 195.495,218.153 195.945,218.600 195.704 C 219.593 195.170,221.474 193.194,220.970 193.216 C 220.766 193.225,219.970 193.885,219.200 194.683 M212.941 201.000 C 210.418 203.530,208.499 205.596,208.677 205.591 C 209.110 205.578,218.278 196.400,217.857 196.400 C 217.676 196.400,215.463 198.470,212.941 201.000 M82.514 198.567 C 81.289 199.840,81.262 199.932,81.946 200.551 C 82.904 201.418,83.169 201.369,82.908 200.371 C 82.777 199.869,83.033 199.081,83.558 198.371 C 84.722 196.797,84.107 196.913,82.514 198.567 M298.226 202.037 C 296.480 203.768,295.130 205.263,295.226 205.359 C 295.472 205.606,296.226 204.944,299.178 201.889 C 302.815 198.125,302.052 198.244,298.226 202.037 M206.870 206.926 C 206.391 207.435,206.000 207.981,206.000 208.140 C 206.000 208.658,207.571 207.601,208.005 206.791 C 208.580 205.716,207.934 205.793,206.870 206.926 M291.028 209.244 C 288.608 211.456,286.441 214.120,287.847 213.157 C 288.779 212.518,293.826 207.200,293.501 207.200 C 293.371 207.200,292.258 208.120,291.028 209.244 M89.613 207.851 C 89.629 208.297,90.611 209.600,90.931 209.600 C 91.161 209.600,92.661 211.083,94.742 213.366 C 95.260 213.935,95.866 214.400,96.089 214.400 C 96.489 214.400,94.556 212.112,92.202 209.800 C 90.480 208.109,89.598 207.445,89.613 207.851 M203.266 210.616 C 202.533 211.377,202.083 211.996,202.266 211.991 C 202.684 211.980,204.062 210.827,204.766 209.900 C 205.693 208.680,204.654 209.176,203.266 210.616 M198.096 215.900 C 196.162 217.825,194.139 219.940,193.602 220.600 C 193.065 221.260,194.734 219.733,197.312 217.207 C 199.891 214.680,202.000 212.565,202.000 212.507 C 202.000 212.115,201.207 212.804,198.096 215.900 M282.226 218.037 C 280.480 219.768,279.130 221.263,279.226 221.359 C 279.472 221.606,280.226 220.944,283.178 217.889 C 286.815 214.125,286.052 214.244,282.226 218.037 M98.000 216.124 C 98.000 216.480,98.360 216.965,98.800 217.200 C 99.240 217.435,99.600 217.470,99.600 217.276 C 99.600 217.082,99.240 216.598,98.800 216.200 C 98.094 215.561,98.000 215.552,98.000 216.124 M101.917 220.244 C 102.473 221.284,103.950 222.583,104.243 222.291 C 104.592 221.941,104.131 221.348,102.742 220.358 C 101.625 219.563,101.546 219.553,101.917 220.244 M190.370 223.071 L 189.400 224.142 190.700 223.244 C 192.012 222.337,192.275 222.000,191.670 222.000 C 191.488 222.000,190.903 222.482,190.370 223.071 M275.028 225.244 C 272.608 227.456,270.441 230.120,271.847 229.157 C 272.779 228.518,277.826 223.200,277.501 223.200 C 277.371 223.200,276.258 224.120,275.028 225.244 M106.126 224.533 C 106.277 224.936,106.400 225.341,106.400 225.433 C 106.400 225.525,106.574 225.600,106.787 225.600 C 107.144 225.600,108.398 226.794,110.742 229.366 C 111.260 229.935,111.860 230.400,112.076 230.400 C 112.573 230.400,109.952 227.441,107.626 225.375 C 106.537 224.408,105.958 224.083,106.126 224.533 M266.226 234.037 C 264.480 235.768,263.130 237.263,263.226 237.359 C 263.472 237.606,264.226 236.944,267.178 233.889 C 270.815 230.125,270.052 230.244,266.226 234.037 M114.000 232.124 C 114.000 232.480,114.360 232.965,114.800 233.200 C 115.240 233.435,115.600 233.470,115.600 233.276 C 115.600 233.082,115.240 232.598,114.800 232.200 C 114.094 231.561,114.000 231.552,114.000 232.124 M117.917 236.244 C 118.473 237.284,119.950 238.583,120.243 238.291 C 120.592 237.941,120.131 237.348,118.742 236.358 C 117.625 235.563,117.546 235.553,117.917 236.244 M174.575 238.900 L 173.400 240.200 174.700 239.025 C 175.912 237.930,176.184 237.600,175.875 237.600 C 175.806 237.600,175.221 238.185,174.575 238.900 M259.028 241.244 C 256.608 243.456,254.441 246.120,255.847 245.157 C 256.779 244.518,261.826 239.200,261.501 239.200 C 261.371 239.200,260.258 240.120,259.028 241.244 M122.000 240.298 C 122.000 240.792,124.553 243.200,125.076 243.200 C 126.331 243.200,125.733 242.052,123.958 241.054 C 122.881 240.449,122.000 240.109,122.000 240.298 M250.226 250.037 C 248.480 251.768,247.130 253.263,247.226 253.359 C 247.472 253.606,248.226 252.944,251.178 249.889 C 254.815 246.125,254.052 246.244,250.226 250.037 M242.026 258.199 C 240.831 259.402,239.976 260.509,240.126 260.660 C 240.277 260.810,240.445 260.854,240.500 260.757 C 240.555 260.661,241.584 259.551,242.786 258.291 C 245.576 255.368,244.918 255.289,242.026 258.199 M150.378 263.100 L 149.000 264.600 150.500 263.222 C 151.896 261.938,152.184 261.600,151.878 261.600 C 151.812 261.600,151.137 262.275,150.378 263.100 M236.929 262.900 C 236.148 263.768,235.443 265.200,235.797 265.200 C 236.070 265.200,237.628 263.469,238.047 262.700 C 238.588 261.707,237.891 261.832,236.929 262.900 M148.080 265.280 C 147.317 266.043,147.501 266.551,149.076 268.022 L 150.551 269.400 149.442 268.030 C 148.714 267.129,148.394 266.341,148.511 265.730 C 148.717 264.651,148.713 264.647,148.080 265.280 M156.226 275.300 C 157.972 277.115,160.570 279.673,162.000 280.985 C 163.430 282.297,162.082 280.812,159.005 277.685 C 155.928 274.558,153.330 272.000,153.231 272.000 C 153.133 272.000,154.480 273.485,156.226 275.300 M166.022 285.026 C 168.303 287.386,180.017 298.986,180.319 299.185 C 180.474 299.287,177.092 295.822,172.804 291.485 C 168.516 287.148,164.926 283.600,164.825 283.600 C 164.725 283.600,165.263 284.242,166.022 285.026 M182.008 300.941 C 182.774 301.788,185.065 304.128,187.099 306.141 C 189.134 308.153,190.799 310.014,190.799 310.276 C 190.800 310.538,190.963 310.854,191.163 310.977 C 192.846 312.017,190.198 308.804,185.878 304.565 C 182.984 301.724,181.242 300.093,182.008 300.941 " stroke="none" fill="#7cbad4" fill-rule="evenodd"></path><path id="path5" d="M238.010 269.017 C 239.655 270.676,256.793 287.821,276.095 307.117 C 295.398 326.412,311.146 342.341,311.091 342.513 C 311.036 342.686,291.396 342.818,267.447 342.807 L 223.903 342.787 207.703 326.603 C 195.040 313.954,191.546 310.249,191.706 309.640 C 191.842 309.117,191.741 308.924,191.399 309.056 C 191.118 309.164,190.973 309.574,191.076 309.969 C 191.246 310.620,222.777 342.433,224.055 343.242 C 225.132 343.925,312.077 343.683,311.929 342.998 C 311.810 342.441,235.650 266.000,235.215 266.000 C 235.108 266.000,236.366 267.357,238.010 269.017 " stroke="none" fill="#7ca4c4" fill-rule="evenodd"></path></g></svg>