<?xml version="1.0" encoding="UTF-8"?>
<svg version="1.1" viewBox="0 0 400 400" xmlns="http://www.w3.org/2000/svg">
<g fill-rule="evenodd">
<path d="m265 57.197l-40 0.203-3.383 3.2c-2.93 2.772-4.552 4.378-5.885 5.826-0.182 0.198-1.232 1.249-2.332 2.335-1.1 1.085-2.18 2.169-2.4 2.408-0.22 0.24-2.74 2.772-5.6 5.629-6.215 6.207-5.542 5.537-8 7.963-1.1 1.085-2.18 2.169-2.4 2.408-0.22 0.24-2.74 2.772-5.6 5.629-6.215 6.207-5.542 5.537-8 7.963-1.1 1.085-2.18 2.169-2.4 2.408-0.22 0.24-2.74 2.772-5.6 5.629-6.215 6.207-5.542 5.537-8 7.963-1.1 1.085-2.18 2.169-2.4 2.408-0.22 0.24-2.74 2.772-5.6 5.629-6.215 6.207-5.542 5.537-8 7.963-1.1 1.085-2.18 2.169-2.4 2.408-0.22 0.24-2.74 2.772-5.6 5.629-6.215 6.207-5.542 5.537-8 7.963-1.1 1.085-2.18 2.169-2.4 2.408-0.22 0.24-2.74 2.772-5.6 5.629-6.215 6.207-5.542 5.537-8 7.963-1.1 1.085-2.18 2.169-2.4 2.408-0.303 0.33-7.481 7.521-11.2 11.22-2.577 2.563-4.778 4.724-5.309 5.211-0.359 0.33-2.102 2.114-3.872 3.965-1.771 1.851-3.399 3.513-3.619 3.693-9.995 8.185-10.124 9.674-1.42 16.293 0.759 0.577 3.49 3.209 6.07 5.849s5.019 5.129 5.42 5.531c6.181 6.191 15.336 15.326 16.033 15.999 0.496 0.478 1.936 1.877 3.2 3.109 3.937 3.837 5.963 4.706 6.897 2.961 0.294-0.55 0.652-1 0.795-1s39.757-39.526 88.032-87.835 88.268-88.299 88.873-88.866 1.1-1.345 1.1-1.728 0.9-1.343 2-2.133c2.841-2.041 2.532-2.732-1.133-2.541-1.027 0.054-19.867 0.189-41.867 0.3m-41.281 133.92c-0.704 0.598-4.484 4.305-8.4 8.236-3.915 3.932-7.569 7.581-8.119 8.109-2.002 1.924-2.218 2.136-3.289 3.23-6.559 6.699-10.577 10.532-12.911 12.317-4 3.058-42.6 41.982-42.6 42.956 0 0.428 0.433 1.287 0.962 1.909 2.385 2.805 41.111 41.146 41.682 41.269 0.404 0.086 4.077-3.281 9.899-9.073 5.091-5.065 14.951-14.847 21.911-21.737 6.959-6.891 12.785-12.978 12.946-13.528 0.306-1.047 1.715-2.8 2.251-2.8 0.363 0 64.931-64.525 68.651-68.605 1.785-1.958 2.359-2.836 2-3.064-0.276-0.175-19.222-0.316-42.102-0.313l-41.6 6e-3 -1.281 1.088" fill="#4ec0f8"/>
<path d="m213.25 287.9c-11.916 11.825-21.661 21.751-21.657 22.059 5e-3 0.307 7.277 7.819 16.161 16.693l16.151 16.135 43.502 0.02c23.926 0.011 43.601-0.08 43.723-0.202 0.222-0.222-75.517-76.19-75.972-76.2-0.134-3e-3 -9.993 9.67-21.908 21.495" fill="#045397"/>
<path d="m0 200v200h200 200v-200-200h-200-200v200m312.27-143.36c0.32 0.834-186.08 187.36-187.23 187.36-0.849 0-43.658-42.497-44.077-43.755-0.201-0.605 13.993-14.999 71.493-72.5l71.744-71.745h43.913c39.916 0 43.935 0.058 44.159 0.641m-2.971 132.03c2.17 0.198 2.7 0.38 2.7 0.922 0 0.372-16.836 17.491-37.414 38.043s-37.589 37.672-37.803 38.045c-0.323 0.564 6.012 7.076 37.581 38.629 20.882 20.872 38.028 38.297 38.102 38.721 0.202 1.163-0.643 1.183-46.701 1.068l-41.821-0.103-38.257-38.41c-37.72-37.872-38.869-39.045-38.881-39.726-0.011-0.642 76.945-77.021 77.772-77.188 1.333-0.271 81.768-0.271 84.722-1e-3" fill="#fbfbfb"/>
<path d="m152.46 127.74c-57.5 57.501-71.694 71.895-71.493 72.5 0.419 1.258 43.228 43.755 44.077 43.755 1.154 0 187.55-186.52 187.23-187.36-0.224-0.583-4.243-0.641-44.159-0.641h-43.913l-71.744 71.745m157.1-70.695c1.622 0.324 1.58 0.756-0.156 1.58-1.596 0.757-2.141 1.37-1.218 1.37 0.343 0 0.624 0.18 0.624 0.4s-0.179 0.4-0.397 0.4c-0.782 0-7.863 6.653-7.703 7.236 0.055 0.2-0.125 0.366-0.4 0.369-0.615 6e-3 -7.739 7.182-7.6 7.655 0.055 0.187-0.072 0.34-0.283 0.34-0.535 0-7.84 7.258-7.717 7.667 0.055 0.183-0.125 0.335-0.4 0.338-0.615 6e-3 -7.739 7.182-7.6 7.655 0.055 0.187-0.072 0.34-0.283 0.34-0.535 0-7.84 7.258-7.717 7.667 0.055 0.183-0.125 0.335-0.4 0.338-0.615 6e-3 -7.739 7.182-7.6 7.655 0.055 0.187-0.072 0.34-0.283 0.34-0.535 0-7.84 7.258-7.717 7.667 0.055 0.183-0.125 0.335-0.4 0.338-0.615 6e-3 -7.739 7.182-7.6 7.655 0.055 0.187-0.072 0.34-0.283 0.34-0.535 0-7.84 7.258-7.717 7.667 0.055 0.183-0.125 0.335-0.4 0.338-0.615 6e-3 -7.739 7.182-7.6 7.655 0.055 0.187-0.072 0.34-0.283 0.34-0.535 0-7.84 7.258-7.717 7.667 0.055 0.183-0.125 0.335-0.4 0.338-0.615 6e-3 -7.739 7.182-7.6 7.655 0.055 0.187-0.072 0.34-0.283 0.34-0.535 0-7.84 7.258-7.717 7.667 0.055 0.183-0.125 0.335-0.4 0.338-0.615 6e-3 -7.739 7.182-7.6 7.655 0.055 0.187-0.072 0.34-0.283 0.34-0.535 0-7.84 7.258-7.717 7.667 0.055 0.183-0.125 0.335-0.4 0.338-0.615 6e-3 -7.739 7.182-7.6 7.655 0.055 0.187-0.072 0.34-0.283 0.34-0.535 0-7.84 7.258-7.717 7.667 0.055 0.183-0.125 0.335-0.4 0.338-0.615 6e-3 -7.739 7.182-7.6 7.655 0.055 0.187-0.072 0.34-0.283 0.34-0.535 0-7.84 7.258-7.717 7.667 0.055 0.183-0.125 0.335-0.4 0.338-0.615 6e-3 -7.739 7.182-7.6 7.655 0.055 0.187-0.072 0.34-0.283 0.34-0.535 0-7.84 7.258-7.717 7.667 0.055 0.183-0.125 0.335-0.4 0.338-0.615 6e-3 -7.739 7.182-7.6 7.655 0.055 0.187-0.076 0.34-0.29 0.34-0.215 0-1.935 1.53-3.821 3.4-1.887 1.87-3.568 3.4-3.735 3.4-0.449 0-2.484-2.207-3.012-3.267-0.252-0.504-0.866-1.121-1.365-1.37-1.051-0.523-4.477-4.001-4.477-4.543 0-0.201-0.355-0.479-0.789-0.617-0.435-0.137-1.02-0.721-1.3-1.297-0.281-0.575-1.141-1.394-1.911-1.819s-1.548-1.031-1.728-1.345c-0.475-0.828-3.043-3.342-3.413-3.342-0.173 0-0.572-0.583-0.887-1.295-0.315-0.713-0.984-1.498-1.487-1.745-1.052-0.516-4.485-3.992-4.485-4.54 0-0.201-0.355-0.479-0.789-0.617-0.435-0.137-1.02-0.721-1.3-1.297-0.281-0.575-1.141-1.394-1.911-1.819s-1.548-1.031-1.728-1.345c-0.478-0.833-3.044-3.342-3.418-3.342-0.175 0-0.56-0.45-0.854-1s-0.775-1-1.068-1c-0.292 0-0.532-0.176-0.532-0.391s-1.592-1.961-3.538-3.88l-3.538-3.489 71.208-71.22 71.208-71.22 40.63-0.204c22.346-0.112 41.373-0.247 42.28-0.3 0.908-0.053 2.213 0.017 2.9 0.154m-84.972 131.62c-0.827 0.167-77.783 76.546-77.772 77.188 3e-3 0.189 0.17 0.602 0.37 0.919 0.657 1.036 43.387 43.594 43.579 43.402 0.103-0.103-9.519-9.906-21.384-21.784-11.864-11.878-21.638-21.798-21.721-22.044-0.146-0.439 43.461-44.35 44.043-44.35 0.265 0 28.869-28.532 31.651-31.571l1.144-1.25 43.559 0.033 43.559 0.034-3.303 3.439c-1.817 1.892-3.654 3.726-4.083 4.077s-2.229 2.155-4 4.01-3.571 3.655-4 4-2.229 2.145-4 4-3.571 3.655-4 4-2.229 2.145-4 4-3.571 3.655-4 4-2.229 2.145-4 4-3.571 3.655-4 4-2.229 2.145-4 4-3.571 3.655-4 4-2.229 2.145-4 4-3.571 3.655-4 4-2.229 2.145-4 4-3.573 3.655-4.005 4c-0.954 0.764-2.908 2.723-5.738 5.754-1.167 1.251-2.208 2.274-2.313 2.274-0.185 0-1.252 1.083-3.404 3.455-0.736 0.811-0.958 1.38-0.759 1.946 0.28 0.799 0.281 0.799 0.545-1e-3 0.146-0.44 17.183-17.705 37.86-38.367 20.676-20.662 37.594-37.871 37.594-38.242 0-0.544-0.53-0.725-2.7-0.923-2.954-0.27-83.389-0.27-84.722 1e-3m22.222 88.208c0 0.11 0.36 0.616 0.8 1.123s0.8 0.743 0.8 0.523c0-0.219-0.36-0.725-0.8-1.123s-0.8-0.634-0.8-0.523m8 8c0 0.11 0.36 0.616 0.8 1.123s0.8 0.743 0.8 0.523c0-0.219-0.36-0.725-0.8-1.123s-0.8-0.634-0.8-0.523m8 8c0 0.11 0.36 0.616 0.8 1.123s0.8 0.743 0.8 0.523c0-0.219-0.36-0.725-0.8-1.123s-0.8-0.634-0.8-0.523m8 8c0 0.11 0.36 0.616 0.8 1.123s0.8 0.743 0.8 0.523c0-0.219-0.36-0.725-0.8-1.123s-0.8-0.634-0.8-0.523m8 8c0 0.11 0.36 0.616 0.8 1.123s0.8 0.743 0.8 0.523c0-0.219-0.36-0.725-0.8-1.123s-0.8-0.634-0.8-0.523m-85.2 4.638c0 0.169 0.36 0.615 0.8 0.992s0.8 0.547 0.8 0.378-0.36-0.615-0.8-0.992-0.8-0.547-0.8-0.378m93.2 3.362c0 0.11 0.36 0.616 0.8 1.123s0.8 0.743 0.8 0.523c0-0.219-0.36-0.725-0.8-1.123s-0.8-0.634-0.8-0.523m-87.2 2.638c0 0.169 0.36 0.615 0.8 0.992s0.8 0.547 0.8 0.378-0.36-0.615-0.8-0.992-0.8-0.547-0.8-0.378m2 2c0 0.169 0.36 0.615 0.8 0.992s0.8 0.547 0.8 0.378-0.36-0.615-0.8-0.992-0.8-0.547-0.8-0.378m2 2c0 0.169 0.36 0.615 0.8 0.992s0.8 0.547 0.8 0.378-0.36-0.615-0.8-0.992-0.8-0.547-0.8-0.378m91.2 1.362c0 0.11 0.36 0.616 0.8 1.123s0.8 0.743 0.8 0.523c0-0.219-0.36-0.725-0.8-1.123s-0.8-0.634-0.8-0.523m-89.2 0.638c0 0.169 0.36 0.615 0.8 0.992s0.8 0.547 0.8 0.378-0.36-0.615-0.8-0.992-0.8-0.547-0.8-0.378m2 2c0 0.169 0.36 0.615 0.8 0.992s0.8 0.547 0.8 0.378-0.36-0.615-0.8-0.992-0.8-0.547-0.8-0.378m95.2 5.362c0 0.11 0.36 0.616 0.8 1.123s0.8 0.743 0.8 0.523c0-0.219-0.36-0.725-0.8-1.123s-0.8-0.634-0.8-0.523m-87.2 2.638c0 0.169 0.36 0.615 0.8 0.992s0.8 0.547 0.8 0.378-0.36-0.615-0.8-0.992-0.8-0.547-0.8-0.378m2 2c0 0.169 0.36 0.615 0.8 0.992s0.8 0.547 0.8 0.378-0.36-0.615-0.8-0.992-0.8-0.547-0.8-0.378m2 2c0 0.169 0.36 0.615 0.8 0.992s0.8 0.547 0.8 0.378-0.36-0.615-0.8-0.992-0.8-0.547-0.8-0.378m91.422 1.785c0.145 0.385 0.445 0.7 0.667 0.7 0.223 0 0.317 0.457 0.21 1.016-0.123 0.644-0.03 0.958 0.253 0.858 0.641-0.225 0.321-1.538-0.603-2.474-0.668-0.676-0.749-0.692-0.527-0.1m-89.422 0.215c0 0.169 0.36 0.615 0.8 0.992s0.8 0.547 0.8 0.378-0.36-0.615-0.8-0.992-0.8-0.547-0.8-0.378m2.335 2.18c0.328 0.328 85.657 0.447 85.984 0.119 0.114-0.114-19.252-0.253-43.036-0.31s-43.11 0.029-42.948 0.191" fill="#8bcdec"/>
<path d="m155.15 126c-37.836 37.84-68.669 68.8-68.517 68.8s1.107-0.731 2.121-1.625c1.015-0.894 2.025-1.765 2.245-1.935s1.848-1.824 3.619-3.675c1.77-1.851 3.513-3.635 3.872-3.965 0.531-0.487 2.732-2.648 5.309-5.211 3.719-3.699 10.897-10.89 11.2-11.22 0.22-0.239 1.3-1.323 2.4-2.408 2.458-2.426 1.785-1.756 8-7.963 2.86-2.857 5.38-5.389 5.6-5.629 0.22-0.239 1.3-1.323 2.4-2.408 2.458-2.426 1.785-1.756 8-7.963 2.86-2.857 5.38-5.389 5.6-5.629 0.22-0.239 1.3-1.323 2.4-2.408 2.458-2.426 1.785-1.756 8-7.963 2.86-2.857 5.38-5.389 5.6-5.629 0.22-0.239 1.3-1.323 2.4-2.408 2.458-2.426 1.785-1.756 8-7.963 2.86-2.857 5.38-5.389 5.6-5.629 0.22-0.239 1.3-1.323 2.4-2.408 2.458-2.426 1.785-1.756 8-7.963 2.86-2.857 5.38-5.389 5.6-5.629 0.22-0.239 1.3-1.323 2.4-2.408 1.1-1.086 2.18-2.152 2.4-2.37s2.621-2.645 5.335-5.393c2.714-2.749 5.145-5.133 5.402-5.298s0.944-0.94 1.526-1.721c0.581-0.782 1.697-1.86 2.478-2.395 0.782-0.536 1.565-1.281 1.74-1.656 0.176-0.375 1.939-2.157 3.919-3.96 3.828-3.486 4.957-4.768 4.195-4.768-0.248 0-31.407 30.96-69.244 68.8m154.69-68.167c-0.15 0.39-0.061 0.573 0.232 0.475 0.598-0.199 0.927-1.108 0.401-1.108-0.215 0-0.5 0.285-0.633 0.633m-3.336 2.667c-0.979 1.251-0.897 2.328 0.121 1.588 0.521-0.378 0.953-0.823 0.959-0.988 7e-3 -0.165 0.283-0.3 0.613-0.3s0.6-0.18 0.6-0.4c0-0.574-1.828-0.494-2.293 0.1m-83.249 129.96c-0.692 0.708-1.258 1.439-1.258 1.625 0 0.475 1.264-0.256 2.166-1.253l0.758-0.837 41.638 6e-3c22.901 3e-3 41.864 0.15 42.14 0.325 0.358 0.227-0.132 0.998-1.713 2.694-2.573 2.76-4.398 5.129-3.224 4.185 0.403-0.324 1.926-1.843 3.384-3.375 1.458-1.533 3.071-3.192 3.585-3.688l0.933-0.901-43.576-0.034-43.576-0.033-1.257 1.286m-4.058 4.218c-0.783 0.812-1.047 1.262-0.6 1.021 0.993-0.534 2.874-2.51 2.37-2.488-0.204 9e-3 -1 0.669-1.77 1.467m-6.259 6.317c-2.523 2.53-4.442 4.596-4.264 4.591 0.433-0.013 9.601-9.191 9.18-9.191-0.181 0-2.394 2.07-4.916 4.6m-130.43-2.433c-1.225 1.273-1.252 1.365-0.568 1.984 0.958 0.867 1.223 0.818 0.962-0.18-0.131-0.502 0.125-1.29 0.65-2 1.164-1.574 0.549-1.458-1.044 0.196m215.71 3.47c-1.746 1.731-3.096 3.226-3 3.322 0.246 0.247 1-0.415 3.952-3.47 3.637-3.764 2.874-3.645-0.952 0.148m-91.356 4.889c-0.479 0.509-0.87 1.055-0.87 1.214 0 0.518 1.571-0.539 2.005-1.349 0.575-1.075-0.071-0.998-1.135 0.135m84.158 2.318c-2.42 2.212-4.587 4.876-3.181 3.913 0.932-0.639 5.979-5.957 5.654-5.957-0.13 0-1.243 0.92-2.473 2.044m-201.42-1.393c0.016 0.446 0.998 1.749 1.318 1.749 0.23 0 1.73 1.483 3.811 3.766 0.518 0.569 1.124 1.034 1.347 1.034 0.4 0-1.533-2.288-3.887-4.6-1.722-1.691-2.604-2.355-2.589-1.949m113.65 2.765c-0.733 0.761-1.183 1.38-1 1.375 0.418-0.011 1.796-1.164 2.5-2.091 0.927-1.22-0.112-0.724-1.5 0.716m-5.17 5.284c-1.934 1.925-3.957 4.04-4.494 4.7s1.132-0.867 3.71-3.393c2.579-2.527 4.688-4.642 4.688-4.7 0-0.392-0.793 0.297-3.904 3.393m84.13 2.137c-1.746 1.731-3.096 3.226-3 3.322 0.246 0.247 1-0.415 3.952-3.47 3.637-3.764 2.874-3.645-0.952 0.148m-184.23-1.913c0 0.356 0.36 0.841 0.8 1.076s0.8 0.27 0.8 0.076-0.36-0.678-0.8-1.076c-0.706-0.639-0.8-0.648-0.8-0.076m3.917 4.12c0.556 1.04 2.033 2.339 2.326 2.047 0.349-0.35-0.112-0.943-1.501-1.933-1.117-0.795-1.196-0.805-0.825-0.114m88.453 2.827l-0.97 1.071 1.3-0.898c1.312-0.907 1.575-1.244 0.97-1.244-0.182 0-0.767 0.482-1.3 1.071m84.658 2.173c-2.42 2.212-4.587 4.876-3.181 3.913 0.932-0.639 5.979-5.957 5.654-5.957-0.13 0-1.243 0.92-2.473 2.044m-168.9-0.711c0.151 0.403 0.274 0.808 0.274 0.9s0.174 0.167 0.387 0.167c0.357 0 1.611 1.194 3.955 3.766 0.518 0.569 1.118 1.034 1.334 1.034 0.497 0-2.124-2.959-4.45-5.025-1.089-0.967-1.668-1.292-1.5-0.842m160.1 9.504c-1.746 1.731-3.096 3.226-3 3.322 0.246 0.247 1-0.415 3.952-3.47 3.637-3.764 2.874-3.645-0.952 0.148m-152.23-1.913c0 0.356 0.36 0.841 0.8 1.076s0.8 0.27 0.8 0.076-0.36-0.678-0.8-1.076c-0.706-0.639-0.8-0.648-0.8-0.076m3.917 4.12c0.556 1.04 2.033 2.339 2.326 2.047 0.349-0.35-0.112-0.943-1.501-1.933-1.117-0.795-1.196-0.805-0.825-0.114m56.658 2.656l-1.175 1.3 1.3-1.175c1.212-1.095 1.484-1.425 1.175-1.425-0.069 0-0.654 0.585-1.3 1.3m84.453 2.344c-2.42 2.212-4.587 4.876-3.181 3.913 0.932-0.639 5.979-5.957 5.654-5.957-0.13 0-1.243 0.92-2.473 2.044m-137.03-0.946c0 0.494 2.553 2.902 3.076 2.902 1.255 0 0.657-1.148-1.118-2.146-1.077-0.605-1.958-0.945-1.958-0.756m128.23 9.739c-1.746 1.731-3.096 3.226-3 3.322 0.246 0.247 1-0.415 3.952-3.47 3.637-3.764 2.874-3.645-0.952 0.148m-8.2 8.162c-1.195 1.203-2.05 2.31-1.9 2.461 0.151 0.15 0.319 0.194 0.374 0.097 0.055-0.096 1.084-1.206 2.286-2.466 2.79-2.923 2.132-3.002-0.76-0.092m-91.648 4.901l-1.378 1.5 1.5-1.378c1.396-1.284 1.684-1.622 1.378-1.622-0.066 0-0.741 0.675-1.5 1.5m86.551-0.2c-0.781 0.868-1.486 2.3-1.132 2.3 0.273 0 1.831-1.731 2.25-2.5 0.541-0.993-0.156-0.868-1.118 0.2m-88.849 2.38c-0.763 0.763-0.579 1.271 0.996 2.742l1.475 1.378-1.109-1.37c-0.728-0.901-1.048-1.689-0.931-2.3 0.206-1.079 0.202-1.083-0.431-0.45m8.146 10.02c1.746 1.815 4.344 4.373 5.774 5.685s0.082-0.173-2.995-3.3-5.675-5.685-5.774-5.685c-0.098 0 1.249 1.485 2.995 3.3m9.796 9.726c2.281 2.36 13.995 13.96 14.297 14.159 0.155 0.102-3.227-3.363-7.515-7.7s-7.878-7.885-7.979-7.885c-0.1 0 0.438 0.642 1.197 1.426m15.986 15.915c0.766 0.847 3.057 3.187 5.091 5.2 2.035 2.012 3.7 3.873 3.7 4.135 1e-3 0.262 0.164 0.578 0.364 0.701 1.683 1.04-0.965-2.173-5.285-6.412-2.894-2.841-4.636-4.472-3.87-3.624" fill="#7cbad4"/>
<path d="m238.01 269.02c1.645 1.659 18.783 18.804 38.085 38.1 19.303 19.295 35.051 35.224 34.996 35.396-0.055 0.173-19.695 0.305-43.644 0.294l-43.544-0.02-16.2-16.184c-12.663-12.649-16.157-16.354-15.997-16.963 0.136-0.523 0.035-0.716-0.307-0.584-0.281 0.108-0.426 0.518-0.323 0.913 0.17 0.651 31.701 32.464 32.979 33.273 1.077 0.683 88.022 0.441 87.874-0.244-0.119-0.557-76.279-76.998-76.714-76.998-0.107 0 1.151 1.357 2.795 3.017" fill="#7ca4c4"/>
</g>
</svg>
