<?xml version="1.0" encoding="UTF-8"?>
<svg version="1.1" viewBox="0 0 400 400" xmlns="http://www.w3.org/2000/svg">
<g fill-rule="evenodd">
<path d="m26.973 135.06c-0.368 1.284-0.855 2.567-1.082 2.849-0.227 0.283-0.499 1.903-0.604 3.6-0.108 1.749-0.49 3.693-0.882 4.486-0.381 0.77-0.806 2.798-0.944 4.507-0.139 1.709-0.523 3.521-0.855 4.027-0.331 0.506-0.758 2.45-0.947 4.32-0.19 1.87-0.62 3.838-0.955 4.373-0.342 0.544-0.707 2.351-0.829 4.099-0.119 1.72-0.473 3.52-0.785 4-0.313 0.481-0.696 2.314-0.852 4.074s-0.56 3.623-0.896 4.139c-0.337 0.518-0.759 2.515-0.941 4.451-0.181 1.931-0.592 4.029-0.913 4.661-0.32 0.632-0.709 2.499-0.863 4.149-0.155 1.65-0.554 3.423-0.888 3.939-0.334 0.517-0.756 2.535-0.939 4.486-0.197 2.093-0.592 3.917-0.966 4.45-0.407 0.582-0.632 1.765-0.632 3.329 0 1.656-0.259 2.93-0.815 4.011-0.516 1.004-0.903 2.759-1.056 4.785-0.145 1.915-0.549 3.813-1.007 4.727-0.486 0.968-0.721 2.138-0.644 3.2l0.122 1.673 6.8 0.121c3.95 0.071 7.404-0.054 8.24-0.298l1.44-0.419 0.26-3.66c0.151-2.13 0.532-4.18 0.911-4.902s0.774-2.843 0.943-5.069c0.175-2.296 0.538-4.216 0.908-4.8 0.362-0.571 0.73-2.461 0.891-4.573 0.153-1.997 0.533-4.003 0.854-4.506 0.318-0.498 0.687-2.388 0.819-4.2s0.507-3.924 0.834-4.694 0.734-2.963 0.904-4.873c0.171-1.91 0.61-4.07 0.976-4.8 0.38-0.756 0.765-2.79 0.894-4.727 0.14-2.09 0.506-3.94 0.949-4.8 0.465-0.904 0.785-2.615 0.9-4.825 0.11-2.103 0.438-3.926 0.85-4.723 0.382-0.739 0.807-2.917 0.989-5.064 0.261-3.102 0.508-4.055 1.4-5.403 2.277-3.44 2.541-2.195 2.632 12.415 0.08 12.879 0.521 22.674 1.163 25.8 0.225 1.1 0.513 8.48 0.64 16.4 0.315 19.641 0.403 20.78 1.654 21.35 1.049 0.478 13.867 0.561 15.831 0.103 1.043-0.244 3.118-3.302 3.118-4.596 0-0.276 0.45-1.112 1-1.857s1-1.743 1-2.216 0.339-1.167 0.754-1.542c0.415-0.376 0.859-1.208 0.988-1.85 0.128-0.642 0.599-1.533 1.046-1.979 0.446-0.447 0.812-1.235 0.812-1.751s0.36-1.264 0.8-1.662 0.8-1.208 0.8-1.8 0.36-1.402 0.8-1.8 0.8-1.122 0.8-1.608 0.349-1.328 0.775-1.87c0.427-0.542 0.901-1.511 1.054-2.154 0.153-0.642 0.522-1.45 0.82-1.794 0.297-0.344 0.749-1.244 1.003-2s0.689-1.644 0.967-1.974c0.279-0.33 0.71-1.365 0.959-2.3s0.619-1.7 0.822-1.7 0.555-0.692 0.783-1.537 0.775-1.953 1.215-2.461c0.441-0.509 0.802-1.319 0.802-1.801s0.36-1.203 0.8-1.601 0.8-1.132 0.8-1.631 0.45-1.442 1-2.096 1-1.617 1-2.142c0-0.524 0.36-1.261 0.8-1.638s0.8-1.137 0.8-1.689 0.335-1.339 0.745-1.749 0.87-1.41 1.022-2.221c0.153-0.812 0.526-1.572 0.831-1.688 0.304-0.117 0.674-0.783 0.821-1.479 0.147-0.697 0.587-1.807 0.979-2.467 0.391-0.66 0.843-1.65 1.004-2.2s0.519-1.27 0.795-1.6 0.714-1.261 0.973-2.068 0.732-1.684 1.05-1.949c0.319-0.265 0.58-0.895 0.58-1.401s0.417-1.429 0.927-2.051 1.163-1.719 1.451-2.437c0.418-1.041 0.636-1.214 1.073-0.851 0.712 0.591 0.718 3.933 8e-3 4.968-0.297 0.434-0.658 1.947-0.801 3.361-0.144 1.415-0.553 3.019-0.911 3.564-0.357 0.546-0.741 2.178-0.852 3.628-0.112 1.45-0.516 3.266-0.898 4.036s-0.825 2.66-0.984 4.2c-0.158 1.54-0.546 3.09-0.862 3.444-0.315 0.354-0.735 2.064-0.934 3.8-0.198 1.736-0.642 3.696-0.986 4.356s-0.627 2.017-0.629 3.015c-1e-3 1.028-0.353 2.503-0.81 3.4-0.445 0.872-0.962 2.951-1.149 4.62-0.187 1.67-0.612 3.47-0.944 4-0.332 0.531-0.708 2.175-0.836 3.655-0.127 1.479-0.508 3.111-0.846 3.627s-0.726 2.096-0.863 3.511c-0.137 1.414-0.503 2.979-0.813 3.476-0.311 0.497-0.747 2.36-0.97 4.141-0.224 1.78-0.679 3.654-1.013 4.163-0.374 0.571-0.559 1.593-0.483 2.659l0.125 1.733 6.908 0.109c3.799 0.061 7.489-0.04 8.2-0.224l1.292-0.334 0.263-3.424c0.145-1.883 0.552-3.982 0.904-4.664 0.353-0.682 0.8-2.798 0.993-4.701 0.199-1.964 0.565-3.592 0.846-3.766 0.29-0.179 0.637-1.838 0.837-4.009 0.188-2.037 0.59-4.083 0.893-4.545 0.303-0.463 0.682-2.282 0.841-4.042 0.16-1.76 0.562-3.625 0.895-4.144 0.332-0.519 0.747-2.409 0.921-4.2 0.175-1.791 0.585-3.886 0.912-4.656s0.72-2.75 0.873-4.4 0.523-3.379 0.821-3.842c0.299-0.464 0.727-2.479 0.95-4.48s0.665-4.052 0.982-4.558 0.674-2.327 0.794-4.046c0.137-1.978 0.472-3.516 0.912-4.186 0.444-0.678 0.759-2.147 0.875-4.074 0.112-1.868 0.449-3.47 0.885-4.214 0.445-0.759 0.781-2.396 0.912-4.451 0.127-1.982 0.457-3.631 0.845-4.223 0.685-1.045 1.616-8.316 1.127-8.805-0.159-0.159-6.029-0.311-13.044-0.338l-12.755-0.048-0.925 0.998c-0.508 0.548-1.045 1.507-1.193 2.132-0.148 0.624-0.582 1.495-0.964 1.935s-0.82 1.326-0.972 1.968c-0.153 0.643-0.626 1.612-1.053 2.154-0.426 0.542-0.775 1.294-0.775 1.671 0 0.376-0.36 1.1-0.8 1.607s-0.8 1.231-0.8 1.607c0 0.377-0.349 1.129-0.775 1.671-0.427 0.542-0.902 1.511-1.057 2.154-0.154 0.642-0.615 1.49-1.024 1.884-0.409 0.393-0.744 1.151-0.744 1.684s-0.335 1.291-0.744 1.684c-0.409 0.394-0.87 1.242-1.024 1.884-0.155 0.643-0.63 1.612-1.057 2.154-0.426 0.542-0.775 1.323-0.775 1.736 0 0.412-0.36 1.058-0.8 1.435-0.443 0.379-0.8 1.18-0.8 1.793 0 0.679-0.313 1.302-0.81 1.611-0.474 0.294-0.909 1.118-1.048 1.985-0.131 0.814-0.577 1.787-0.99 2.162-0.414 0.374-0.752 1.102-0.752 1.618s-0.334 1.272-0.742 1.68-0.869 1.249-1.025 1.869c-0.155 0.619-0.631 1.569-1.058 2.111-0.426 0.542-0.775 1.297-0.775 1.678s-0.333 1.121-0.739 1.646-0.857 1.436-1.001 2.026c-0.143 0.59-0.522 1.333-0.841 1.652s-0.703 1.096-0.853 1.728c-0.15 0.631-0.517 1.43-0.815 1.774-0.297 0.344-0.749 1.244-1.003 2s-0.688 1.644-0.965 1.974-0.679 1.247-0.894 2.038c-0.214 0.79-0.679 1.78-1.032 2.2-0.353 0.419-0.904 1.122-1.225 1.562-1.612 2.211-2.012 0.227-2.283-11.314-0.138-5.877-0.459-12.666-0.713-15.086s-0.602-11.937-0.773-21.15c-0.292-15.738-0.356-16.782-1.063-17.3-0.6-0.438-3.211-0.55-12.844-0.55-6.65 0-12.366-0.106-12.702-0.235-0.467-0.179-0.769 0.316-1.281 2.1m130.97 22.323c-0.104 0.103-3.208 0.474-6.9 0.825-5.11 0.486-7.013 0.823-7.979 1.411-0.697 0.425-1.738 0.774-2.313 0.775-0.575 0-1.475 0.336-2 0.746s-1.404 0.883-1.954 1.052c-1.118 0.344-7.735 6.647-8.611 8.203-0.31 0.55-0.931 1.751-1.381 2.668-0.449 0.918-1.04 1.748-1.313 1.845-0.958 0.343 0.046 0.731 3.899 1.506 9.026 1.816 14.206 1.297 14.206-1.422 0-0.528 1.532-1.934 3.8-3.487 1.547-1.059 1.779-1.096 6.972-1.103l5.372-7e-3 1.918 1.3c1.316 0.891 2.063 1.74 2.377 2.7 0.252 0.77 0.616 1.571 0.809 1.78 0.462 0.499 0.456 4.109-8e-3 4.395-0.198 0.122-0.574 1.116-0.836 2.208-0.522 2.178-0.576 2.211-4.176 2.622-1.304 0.149-2.76 0.525-3.235 0.837-0.622 0.407-2.814 0.629-7.829 0.79-4.556 0.148-7.656 0.439-8.964 0.843-1.1 0.34-3.138 0.761-4.53 0.936-1.391 0.175-2.843 0.602-3.226 0.949s-1.315 0.752-2.07 0.901c-0.756 0.149-1.609 0.601-1.897 1.005-0.287 0.404-0.917 0.734-1.4 0.734-0.88 0-5.477 3.947-5.477 4.703 0 0.214-0.333 0.818-0.739 1.343s-0.864 1.467-1.018 2.094c-0.153 0.627-0.644 1.634-1.09 2.238-1.103 1.492-1.01 13.034 0.116 14.281 0.368 0.408 0.798 1.281 0.956 1.941s0.62 1.52 1.027 1.911c0.406 0.391 0.85 1.156 0.987 1.7 0.136 0.544 0.504 0.989 0.817 0.989s0.664 0.246 0.779 0.547c0.255 0.664 3.579 2.841 4.965 3.251 0.55 0.163 1.334 0.59 1.742 0.949 1.063 0.935 12.867 0.93 14.305-5e-3 0.524-0.342 1.673-0.851 2.553-1.133 0.88-0.283 1.844-0.708 2.143-0.946 0.298-0.237 0.857-0.619 1.242-0.847 1.784-1.059 3.899-2.655 4.757-3.59 1.983-2.161 3.658-1.254 3.658 1.981 0 0.957 0.177 2.206 0.393 2.775l0.394 1.035 8.106-0.109 8.107-0.108 0.127-1.328c0.076-0.79-0.159-1.763-0.579-2.4-0.891-1.352-0.983-8.866-0.121-9.905 0.314-0.378 0.634-2.31 0.792-4.782 0.19-2.983 0.468-4.458 0.988-5.252 0.474-0.723 0.789-2.148 0.912-4.119 0.12-1.944 0.432-3.369 0.878-4.014 0.456-0.661 0.765-2.125 0.91-4.314 0.15-2.271 0.451-3.656 0.956-4.4 0.639-0.942 0.755-2.11 0.874-8.811l0.137-7.725-1.037-1.496c-0.57-0.823-1.037-1.729-1.037-2.012 0-0.526-3.844-4.442-4.36-4.442-0.156 0-0.895-0.45-1.64-1s-1.743-1-2.216-1-1.173-0.346-1.556-0.769c-0.514-0.568-1.498-0.844-3.762-1.055-1.686-0.157-3.764-0.531-4.616-0.831-1.583-0.556-2.769-0.693-3.104-0.357m122.24 1.357c-0.886 0.157-2.051 0.593-2.589 0.97s-1.454 0.685-2.035 0.685-1.501 0.349-2.043 0.775c-0.542 0.427-1.466 0.896-2.054 1.044-0.587 0.147-1.068 0.425-1.068 0.616 0 0.192-0.675 0.714-1.5 1.161-2.289 1.24-2.81 1.639-5.037 3.867-2.22 2.219-2.627 2.749-3.848 5-0.437 0.805-0.933 1.525-1.104 1.6-0.418 0.184-2.511 4.13-2.511 4.733 0 0.263-0.339 0.909-0.754 1.436s-0.881 1.816-1.035 2.863c-0.155 1.048-0.581 2.239-0.947 2.647-1.017 1.136-1.002 21.4 0.017 22.526 0.374 0.414 0.801 1.505 0.948 2.424s0.606 1.977 1.019 2.352c0.414 0.374 0.752 0.984 0.752 1.355 0 0.762 0.636 1.567 4.59 5.808 1.534 1.646 3.018 2.993 3.296 2.993 0.279 0 0.732 0.36 1.007 0.8s0.802 0.8 1.173 0.8c0.37 0 1.181 0.423 1.803 0.94s1.936 1.065 2.921 1.219c0.984 0.153 2.128 0.586 2.542 0.96 1.118 1.012 17.15 0.998 18.673-0.017 0.553-0.368 1.936-0.869 3.074-1.113s2.283-0.702 2.544-1.017c0.261-0.314 0.732-0.572 1.047-0.572s1.235-0.45 2.044-1 1.618-1 1.796-1c0.468 0 7.89-7.416 7.89-7.884 0-0.216 0.36-0.718 0.8-1.116s0.8-0.952 0.8-1.231 0.455-1.048 1.01-1.708l1.011-1.201-2.311-0.268c-1.27-0.147-2.969-0.599-3.775-1.005-1.059-0.534-2.441-0.751-5-0.789-5.552-0.08-5.317-0.131-5.947 1.302-0.878 2-5.504 5.896-7.01 5.903-0.318 1e-3 -1.118 0.36-1.778 0.797-1.983 1.313-7.855 1.148-10.651-0.3-2.175-1.126-6.349-4.994-6.349-5.883 0-0.272-0.337-0.883-0.749-1.358-0.462-0.533-0.852-1.816-1.021-3.361-0.15-1.374-0.371-3.142-0.491-3.929-0.445-2.908-1.642-2.769 23.881-2.769h22.764l0.906-1.7c1.217-2.285 1.408-17.356 0.241-19.1-0.368-0.55-0.791-1.844-0.942-2.876-0.152-1.046-0.608-2.179-1.031-2.562-0.417-0.377-0.758-1.005-0.758-1.395 0-0.391-0.225-0.948-0.5-1.238-0.275-0.291-1.034-1.249-1.686-2.129-2.329-3.142-7.565-7.4-9.101-7.4-0.333 0-1.12-0.405-1.749-0.9-1.204-0.947-16.927-1.508-21.175-0.755m89.954-0.075c-0.958 0.099-1.954 0.501-2.362 0.951-0.388 0.428-1.1 0.779-1.582 0.779s-1.279 0.349-1.771 0.775c-0.491 0.427-1.419 0.891-2.061 1.032s-1.167 0.419-1.167 0.617-0.744 0.768-1.654 1.268c-2.79 1.531-3.071 1.727-3.824 2.657-1.487 1.837-2.16 0.8-2.087-3.214 0.079-4.371 1.069-3.856-7.634-3.972l-7.393-0.097-0.552 1.967c-0.304 1.082-0.727 2.078-0.941 2.213-0.213 0.135-0.52 1.849-0.682 3.809-0.172 2.074-0.558 3.978-0.923 4.554-0.345 0.545-0.753 2.431-0.907 4.191s-0.518 3.47-0.81 3.8c-0.291 0.33-0.717 2.283-0.946 4.34-0.228 2.057-0.625 3.993-0.882 4.302-0.256 0.309-0.613 2.016-0.792 3.794-0.183 1.819-0.615 3.674-0.987 4.242-0.385 0.588-0.787 2.373-0.96 4.266-0.164 1.791-0.572 3.796-0.907 4.456s-0.712 2.494-0.838 4.075c-0.127 1.582-0.511 3.304-0.854 3.828-0.343 0.523-0.779 2.481-0.968 4.351-0.203 1.997-0.625 3.827-1.024 4.437-0.478 0.728-0.643 1.671-0.557 3.173l0.122 2.136 8.171 0.109c9.124 0.121 8.813 0.216 8.823-2.72 3e-3 -0.996 0.284-2.207 0.623-2.692s0.793-2.426 1.007-4.314c0.215-1.888 0.636-3.827 0.936-4.308s0.649-2.084 0.776-3.561 0.599-3.492 1.048-4.478c0.51-1.121 0.823-2.662 0.834-4.114 9e-3 -1.277 0.297-3.042 0.638-3.922 0.342-0.88 0.802-2.86 1.023-4.4s0.645-3.075 0.942-3.41c0.298-0.336 0.662-1.416 0.811-2.4 0.148-0.985 0.607-2.351 1.019-3.037s0.749-1.531 0.749-1.878c0-0.346 0.334-0.865 0.743-1.152 0.408-0.288 0.869-0.923 1.023-1.411 0.366-1.159 5.274-6.112 6.056-6.112 0.332 0 0.707-0.27 0.833-0.6 0.127-0.33 0.446-0.6 0.71-0.6s1.053-0.423 1.754-0.94c1.454-1.073 6.396-1.619 9.799-1.083 2.47 0.389 4.517 2.261 4.891 4.474 0.143 0.85 0.425 1.646 0.626 1.771 0.487 0.3 0.467 2.316-0.027 2.81-0.216 0.216-0.509 2.277-0.651 4.58-0.179 2.89-0.477 4.56-0.961 5.388-0.433 0.739-0.773 2.353-0.885 4.2-0.106 1.751-0.475 3.565-0.886 4.356-0.387 0.746-0.84 2.857-1.007 4.691-0.168 1.834-0.516 3.589-0.774 3.9-0.259 0.312-0.648 2.132-0.865 4.046-0.218 1.914-0.638 3.958-0.935 4.543-0.296 0.585-0.665 2.414-0.82 4.064-0.159 1.697-0.639 3.722-1.105 4.663-0.542 1.093-0.735 2.019-0.564 2.7l0.26 1.037h8.185 8.185l0.228-1.1c0.126-0.605 0.57-1.82 0.987-2.7 0.455-0.96 0.835-2.851 0.95-4.726 0.12-1.952 0.441-3.506 0.855-4.137 0.401-0.613 0.746-2.219 0.875-4.074 0.119-1.712 0.484-3.496 0.829-4.044 0.34-0.541 0.763-2.582 0.945-4.558 0.182-1.968 0.576-3.957 0.876-4.419 0.299-0.463 0.664-2.273 0.809-4.023 0.162-1.946 0.574-3.775 1.063-4.712 0.554-1.063 0.798-2.312 0.798-4.084 0-1.429 0.35-3.667 0.795-5.087 1.078-3.439 1.076-8.3-4e-3 -10.68-0.435-0.959-0.791-2.049-0.791-2.422s-0.45-1.289-1-2.034-1-1.59-1-1.878c0-0.287-0.242-0.522-0.538-0.522s-0.86-0.355-1.253-0.79c-0.393-0.434-1.096-0.905-1.562-1.046s-1.266-0.639-1.777-1.108c-0.931-0.853-11.714-1.348-17.127-0.786m-78.767 11.143c0.428 0.323 1.371 0.587 2.097 0.587 0.887 0 1.484 0.263 1.82 0.8 0.275 0.44 0.717 0.8 0.983 0.8 0.573 0 2.919 2.418 2.922 3.011 1e-3 0.226 0.362 0.719 0.802 1.096s0.8 1.095 0.8 1.595 0.36 1.582 0.8 2.402c0.98 1.83 1.121 6.504 0.233 7.72-0.832 1.138-28.515 1.437-29.632 0.32-1.009-1.009-0.69-5.197 0.513-6.726 0.487-0.619 0.886-1.434 0.886-1.81s0.36-1.01 0.8-1.408 0.8-0.901 0.8-1.118c0-0.404 3.828-4.208 5.769-5.733 0.664-0.522 1.964-0.952 3.357-1.111 1.251-0.143 2.544-0.432 2.874-0.643 0.899-0.574 3.295-0.449 4.176 0.218m-131.38 25.773c0.85 0.538 0.591 5.41-0.373 7.014-0.397 0.66-0.842 1.875-0.988 2.699-0.407 2.288-4.883 8.301-6.178 8.301-0.182 0-0.751 0.365-1.266 0.811-0.514 0.446-1.396 0.908-1.961 1.028-0.564 0.119-1.752 0.474-2.639 0.789-2.086 0.739-5.022 0.732-6.011-0.015-0.427-0.323-1.258-0.593-1.847-0.6-0.655-8e-3 -1.376-0.401-1.858-1.013-0.432-0.55-0.94-1.003-1.129-1.006-0.739-0.012-2.542-4.016-2.542-5.647 0-2.411 3.523-7.53 5.2-7.556 0.33-5e-3 1.05-0.361 1.6-0.791s1.519-0.786 2.153-0.791 1.76-0.384 2.503-0.843c0.868-0.537 2.526-0.965 4.647-1.199 1.813-0.201 4.557-0.618 6.097-0.928 3.472-0.697 3.855-0.718 4.592-0.253" fill="#060606"/>
<path d="m0 200v200h200 200v-200-200h-200-200v200m55.033-67.824c0.444 0.609 0.572 2.559 0.589 9 0.011 4.523 0.192 9.664 0.401 11.424 0.764 6.447 1.15 14.338 1.425 29.172 0.155 8.344 0.422 14.791 0.594 14.326s0.662-1.033 1.089-1.261 0.892-1.033 1.033-1.788c0.142-0.754 0.497-1.464 0.79-1.576s0.646-0.774 0.786-1.471c0.139-0.697 0.615-1.727 1.056-2.288 0.442-0.562 0.804-1.358 0.804-1.768s0.342-1.088 0.759-1.505c0.418-0.418 0.886-1.336 1.041-2.041s0.623-1.623 1.041-2.041c0.417-0.417 0.759-1.181 0.759-1.697s0.35-1.255 0.777-1.641c0.428-0.387 0.901-1.27 1.052-1.962 0.152-0.693 0.612-1.688 1.023-2.213s0.752-1.245 0.757-1.6 0.361-1.096 0.791-1.646 0.786-1.28 0.791-1.622c5e-3 -0.343 0.459-1.233 1.009-1.978s1-1.743 1-2.216 0.342-1.17 0.76-1.548c0.419-0.379 0.879-1.316 1.022-2.083 0.144-0.767 0.505-1.488 0.801-1.602 0.296-0.113 0.65-0.799 0.786-1.524 0.135-0.724 0.603-1.64 1.039-2.034s0.792-1.115 0.792-1.601 0.334-1.313 0.742-1.838 0.962-1.629 1.231-2.454 0.648-1.5 0.843-1.5c0.194 0 0.541-0.699 0.771-1.553 0.231-0.855 0.666-1.759 0.968-2.009 0.302-0.251 0.659-1.007 0.793-1.679 0.135-0.673 0.607-1.684 1.048-2.245 0.442-0.562 0.804-1.333 0.804-1.714s0.333-1.121 0.739-1.646 0.856-1.435 1-2.023c0.143-0.588 0.815-1.623 1.492-2.3l1.231-1.231h13.54c16.315 0 15.976-0.131 14.031 5.404-0.423 1.201-0.893 3.401-1.045 4.89-0.152 1.488-0.518 3.246-0.814 3.906-0.295 0.66-0.738 2.72-0.985 4.577-0.247 1.858-0.705 3.874-1.019 4.48-0.313 0.607-0.57 1.928-0.57 2.936s-0.363 2.91-0.807 4.228c-0.444 1.317-0.907 3.517-1.03 4.887-0.123 1.371-0.558 3.482-0.965 4.692-0.408 1.21-0.857 3.359-0.998 4.775s-0.489 3.036-0.773 3.6c-0.285 0.564-0.634 2.205-0.775 3.648-0.142 1.443-0.617 3.643-1.055 4.89s-0.805 3.127-0.815 4.177c-9e-3 1.051-0.297 2.63-0.639 3.51s-0.839 3.13-1.104 5-0.706 3.809-0.979 4.309c-0.274 0.5-0.669 2.414-0.878 4.252-0.209 1.839-0.634 3.833-0.944 4.431-0.311 0.599-0.691 2.376-0.846 3.948-0.154 1.573-0.518 3.438-0.809 4.145-0.291 0.706-0.647 2.146-0.79 3.2-0.401 2.95-0.537 3.217-1.869 3.682-1.904 0.663-15.578 0.574-16.511-0.108-0.986-0.721-0.644-6.021 0.559-8.672 0.446-0.983 0.822-2.597 0.837-3.587 0.014-0.99 0.302-2.52 0.64-3.4 0.337-0.88 0.857-3.006 1.154-4.725s0.718-3.339 0.934-3.6 0.588-1.877 0.827-3.592c0.238-1.714 0.703-3.64 1.034-4.28s0.602-1.808 0.602-2.596 0.36-2.501 0.8-3.806c0.44-1.306 0.964-3.505 1.166-4.888 0.202-1.382 0.628-3.143 0.948-3.913 0.319-0.77 0.701-2.476 0.848-3.792 0.146-1.316 0.502-2.756 0.789-3.2 0.288-0.444 0.642-1.959 0.786-3.367 0.145-1.407 0.544-3.117 0.888-3.8 0.343-0.682 0.788-2.661 0.988-4.397 0.209-1.804 0.627-3.446 0.976-3.832 0.384-0.425 0.601-1.405 0.583-2.643-0.032-2.226-0.694-1.398-0.744 0.931-0.018 0.844-0.227 1.3-0.597 1.3-0.313 0-0.786 0.675-1.051 1.5-0.264 0.825-0.704 1.77-0.977 2.1-0.272 0.33-0.61 1.082-0.75 1.672s-0.51 1.328-0.822 1.64-0.764 1.296-1.004 2.187c-0.239 0.89-0.681 1.713-0.981 1.828s-0.662 0.835-0.806 1.6c-0.144 0.766-0.616 1.843-1.051 2.396-0.434 0.552-0.793 1.335-0.798 1.74s-0.361 1.187-0.791 1.737-0.787 1.18-0.793 1.4c-5e-3 0.22-0.549 1.48-1.207 2.8s-1.198 2.603-1.198 2.851c-1e-3 0.248-0.25 0.657-0.554 0.909-0.303 0.252-0.654 0.972-0.78 1.601-0.126 0.628-0.493 1.407-0.817 1.731-0.323 0.323-0.789 1.335-1.035 2.248s-0.613 1.66-0.816 1.66-0.557 0.699-0.787 1.553c-0.231 0.855-0.666 1.759-0.968 2.009-0.302 0.251-0.659 1.007-0.793 1.679-0.135 0.673-0.607 1.684-1.048 2.245-0.442 0.562-0.804 1.42-0.804 1.906s-0.339 1.191-0.754 1.566c-0.415 0.376-0.863 1.228-0.997 1.895-0.133 0.666-0.604 1.672-1.045 2.233-0.442 0.562-0.804 1.42-0.804 1.906s-0.339 1.191-0.754 1.566c-0.415 0.376-0.863 1.228-0.997 1.895-0.133 0.666-0.604 1.672-1.045 2.233-0.442 0.562-0.804 1.333-0.804 1.714s-0.333 1.121-0.739 1.646-0.868 1.48-1.025 2.122c-0.157 0.643-0.634 1.612-1.061 2.154-0.426 0.542-0.787 1.367-0.802 1.832-0.014 0.465-0.614 1.656-1.333 2.646l-1.307 1.8-8.966 0.111c-11.095 0.138-10.358 0.596-10.386-6.455-0.023-5.72-0.562-16.119-1.182-22.811-0.243-2.615-0.615-11.435-0.828-19.6-0.483-18.543-0.894-23.445-1.966-23.445-0.171 0-0.441 1.575-0.601 3.5-0.161 1.925-0.53 4.13-0.822 4.9s-0.733 3.007-0.981 4.972c-0.247 1.965-0.648 3.942-0.89 4.394-0.242 0.453-0.575 2.265-0.739 4.028s-0.586 4.042-0.937 5.063c-0.351 1.022-0.791 3.37-0.978 5.218-0.188 1.848-0.543 3.738-0.79 4.2s-0.656 2.614-0.908 4.782c-0.252 2.169-0.706 4.429-1.009 5.023-0.302 0.594-0.55 1.779-0.55 2.633 0 1.947-0.797 6.13-1.288 6.763-0.204 0.261-0.521 2.084-0.705 4.05-0.185 1.967-0.598 4.093-0.918 4.725s-0.677 2.383-0.793 3.892c-0.318 4.142-0.073 4.035-9.609 4.177-10.31 0.153-9.816 0.428-9.169-5.088 0.263-2.234 0.724-4.551 1.026-5.147 0.302-0.597 0.641-2.282 0.753-3.745 0.113-1.463 0.482-3.217 0.822-3.897 0.339-0.68 0.735-2.453 0.879-3.94 0.145-1.487 0.594-3.783 0.999-5.103s0.854-3.559 0.998-4.975 0.496-3.036 0.783-3.6 0.652-2.285 0.811-3.825c0.16-1.54 0.563-3.43 0.897-4.2s0.736-2.75 0.893-4.4c0.158-1.65 0.572-3.63 0.921-4.4 0.35-0.77 0.759-2.656 0.909-4.191 0.151-1.534 0.615-3.656 1.033-4.714 0.417-1.059 0.758-2.727 0.758-3.708s0.347-2.82 0.772-4.085c0.424-1.266 0.891-3.472 1.037-4.902s0.517-3.118 0.823-3.752c0.307-0.633 0.749-2.683 0.981-4.555 0.233-1.871 0.685-3.909 1.005-4.528s0.586-1.989 0.59-3.045c0.01-2.091 1.649-7.249 2.477-7.792 1.213-0.796 27.535-0.19 28.148 0.648m140.05 21.924c2.86 1.352 5.614 4.869 6.187 7.9 0.187 0.99 0.594 2.34 0.904 3s0.694 3.18 0.853 5.6c0.257 3.904 0.395 4.499 1.232 5.281 0.806 0.754 0.945 1.273 0.96 3.6 9e-3 1.495 0.277 3.439 0.594 4.319s0.579 2.455 0.582 3.5c4e-3 1.353 0.233 2.127 0.796 2.69 0.434 0.434 0.866 1.199 0.96 1.7 0.094 0.5 0.476 2.541 0.85 4.535 0.985 5.262 0.263 11.331-1.735 14.575-1.066 1.732-1.075 2-0.065 2 0.44 0 0.8-0.227 0.8-0.504s0.36-0.728 0.8-1.003 0.8-0.836 0.8-1.247c0-0.412 0.269-0.971 0.597-1.244 0.329-0.272 0.795-1.239 1.037-2.149 0.242-0.909 0.671-1.923 0.953-2.253 0.281-0.33 0.724-1.261 0.983-2.068s0.732-1.684 1.05-1.949c0.319-0.265 0.58-0.785 0.58-1.156s0.27-1.023 0.6-1.451c0.33-0.427 0.964-1.496 1.409-2.376 0.989-1.955 1.525-2.846 2.691-4.47 0.495-0.689 0.9-1.391 0.9-1.558 0-0.168 0.269-0.59 0.598-0.938 1.253-1.329 2.602-3.165 2.602-3.544 0-0.217 0.523-0.911 1.162-1.543 0.639-0.631 1.57-1.957 2.069-2.947 1.599-3.172 15.35-16.523 17.694-17.179 3.526-0.987 6.485 3.976 5.237 8.786-0.309 1.192-0.562 2.464-0.562 2.826 0 0.363-0.349 1.103-0.775 1.645-0.427 0.542-0.896 1.466-1.044 2.054-0.147 0.587-0.437 1.068-0.645 1.068-0.207 0-0.642 0.634-0.966 1.409-0.566 1.355-1 1.961-2.793 3.901-1.222 1.321-2.577 3.686-2.577 4.496 0 0.845-2.676 4.994-3.221 4.994-0.209 0-0.379 0.53-0.379 1.177 0 0.715-0.307 1.393-0.781 1.725-0.935 0.655-1.619 2.312-1.619 3.924 0 0.646-0.166 1.174-0.368 1.174-0.203 0-0.483 0.521-0.623 1.159-0.14 0.637-0.604 1.475-1.032 1.862-0.427 0.386-0.777 0.93-0.777 1.207 0 0.648-1.204 2.1-4.2 5.066-3.416 3.382-3.587 3.518-4.829 3.85-1.564 0.419-1.733 1.256-0.253 1.256 2.194 0 2.21 0.821 0.059 3.186-1.084 1.191-2.066 2.465-2.182 2.829-0.407 1.283-9.179 3.362-10.556 2.503-0.351-0.22-0.995-0.274-1.43-0.121-0.472 0.165-1.009 0.061-1.329-0.26-0.711-0.711-2.448-0.687-2.726 0.039-0.787 2.052-4.169 0.906-3.872-1.312 0.224-1.666 0.018-1.979-2.137-3.254-1.181-0.7-1.242-0.851-1.046-2.593 0.168-1.49 0.051-2.023-0.602-2.734-0.446-0.486-0.939-1.49-1.096-2.232-0.158-0.743-0.61-1.913-1.005-2.6-0.395-0.688-0.836-1.818-0.98-2.512-0.145-0.693-0.612-1.947-1.039-2.785s-0.777-1.986-0.777-2.552c0-0.567-0.34-2.013-0.756-3.216-0.416-1.202-0.883-3.944-1.038-6.092s-0.559-4.848-0.899-6c-0.723-2.451-1.092-21.117-0.543-27.466 0.494-5.717 2.619-7.466 6.718-5.528m-29.731 2.87c0.687 0.308 1.969 0.681 2.849 0.828 0.88 0.148 2.161 0.614 2.847 1.036 0.686 0.421 1.468 0.766 1.737 0.766 1.099 0 6.932 5.271 7.373 6.663 0.15 0.475 0.519 0.957 0.818 1.072 0.3 0.115 0.674 0.987 0.832 1.937s0.536 2.214 0.84 2.808c0.628 1.226 0.76 6.787 0.187 7.857-0.202 0.376-0.586 2.57-0.854 4.874s-0.732 4.729-1.031 5.389-0.721 2.596-0.937 4.301c-0.216 1.706-0.667 3.632-1.002 4.28-0.336 0.649-0.61 1.829-0.61 2.622 0 1.641-0.745 4.977-1.259 5.639-0.648 0.835-1.172 12.204-0.75 16.275 0.641 6.177 1.127 5.869-9.282 5.877-9.488 7e-3 -8.691 0.329-10.128-4.094-0.84-2.586-0.96-2.659-2.31-1.4-1.604 1.497-3.245 2.689-3.709 2.695-0.241 3e-3 -0.755 0.355-1.141 0.782-0.387 0.428-1.27 0.898-1.962 1.045-0.693 0.147-1.529 0.502-1.859 0.79-2.221 1.934-15.821 1.922-18-0.016-0.33-0.293-1.101-0.659-1.713-0.811-1.448-0.362-6.771-5.64-7.474-7.412-0.3-0.755-0.774-1.645-1.055-1.978-0.501-0.594-1.202-3.896-1.645-7.742-0.3-2.607 1.099-10.653 1.852-10.653 0.184 0 0.442-0.534 0.573-1.187 0.13-0.654 0.603-1.554 1.05-2 0.446-0.447 0.812-0.934 0.812-1.082 0-0.424 4.32-4.531 4.765-4.531 0.22 0 1.063-0.45 1.873-1 0.811-0.55 1.714-1 2.008-1s1.124-0.359 1.844-0.799c0.721-0.439 1.725-0.799 2.232-0.8 0.507 0 1.677-0.337 2.6-0.748 1.312-0.585 3.076-0.8 8.078-0.988 3.883-0.145 7.187-0.477 8.4-0.844 1.1-0.333 3.558-0.723 5.462-0.868 5.071-0.384 5.544-0.855 5.65-5.624 0.087-3.91-0.447-5.128-2.712-6.189-0.44-0.206-1.25-0.645-1.8-0.975-1.165-0.7-8.653-0.63-9.124 0.085-0.152 0.23-0.816 0.604-1.476 0.83-1.572 0.539-3.8 2.517-3.8 3.374 0 1.746-2.194 2.718-5.707 2.527-1.811-0.099-5.581-0.287-8.377-0.42-3.084-0.145-5.225-0.421-5.445-0.7-0.824-1.051-0.863-2.564-0.091-3.544 0.424-0.539 0.892-1.466 1.041-2.059 0.149-0.594 0.61-1.261 1.025-1.483s0.754-0.721 0.754-1.109c0-0.805 5.503-6.466 6.286-6.466 0.283 0 0.514-0.184 0.514-0.409 0-0.224 0.495-0.622 1.1-0.884 0.605-0.261 1.529-0.797 2.054-1.191s1.32-0.716 1.768-0.716 1.118-0.274 1.488-0.609 1.734-0.805 3.031-1.044c1.298-0.24 2.719-0.637 3.159-0.883 1.932-1.078 15.993-1.15 18.351-0.094m132.31 0.13c0.274 0.275 1.045 0.5 1.713 0.5 0.999 0 4.074 1.189 6.066 2.345 3.109 1.804 7.533 5.905 8.015 7.431 0.143 0.453 0.594 1.059 1.002 1.347 0.409 0.287 0.743 0.758 0.743 1.046s0.362 0.983 0.804 1.545c0.441 0.561 0.92 1.621 1.064 2.354 0.143 0.732 0.521 1.736 0.84 2.229 1.648 2.549 1.568 21.052-0.099 22.893-0.71 0.785-1.271 0.806-23.768 0.907l-23.041 0.103v3.459c0 2.612 0.158 3.64 0.646 4.2 0.356 0.408 0.757 1.206 0.891 1.775 0.323 1.363 4.114 5.127 5.429 5.391 0.569 0.115 1.819 0.596 2.779 1.071 1.717 0.849 1.786 0.852 4.2 0.168 1.35-0.382 3.239-0.886 4.196-1.121 0.958-0.234 2.062-0.697 2.455-1.029 2.157-1.827 4.804-4.533 4.804-4.913 0-1.944 3.406-2.943 6.138-1.801 0.79 0.33 2.394 0.6 3.565 0.6 2.074 0 5.78 0.767 7.997 1.656 1.419 0.569 1.459 2.002 0.1 3.617-0.55 0.654-1 1.438-1 1.744 0 0.305-0.36 0.748-0.8 0.983s-0.8 0.652-0.8 0.925c0 0.274-0.315 0.787-0.7 1.142s-1.42 1.539-2.3 2.632c-0.88 1.094-2.05 2.273-2.6 2.621-0.55 0.349-1.9 1.271-3 2.051-1.1 0.779-2.203 1.42-2.451 1.423s-0.674 0.275-0.947 0.603c-0.272 0.329-1.239 0.787-2.149 1.019-0.909 0.232-2.193 0.684-2.853 1.004-4.28 2.076-18.73 2.049-23.2-0.044-0.66-0.309-1.83-0.842-2.6-1.185-2.658-1.182-4.4-2.199-4.4-2.567 0-0.204-0.405-0.494-0.9-0.645-1.025-0.314-6.3-5.683-6.3-6.413 0-0.264-0.264-0.582-0.587-0.706s-0.868-0.818-1.211-1.543c-0.343-0.724-0.886-1.767-1.207-2.317s-0.586-1.383-0.589-1.851-0.271-1.071-0.595-1.34c-0.325-0.269-0.694-1.146-0.821-1.949s-0.492-2.577-0.81-3.942c-0.665-2.846-0.772-10.054-0.18-12.116 0.219-0.767 0.578-2.82 0.796-4.563 0.219-1.743 0.669-3.469 1.001-3.836 0.332-0.366 0.603-1.03 0.603-1.475 0-1.131 0.808-3.328 1.224-3.328 0.19 0 0.542-0.729 0.782-1.621 0.24-0.891 0.685-1.716 0.991-1.833 0.305-0.117 0.665-0.719 0.801-1.338s0.597-1.442 1.025-1.829c0.427-0.386 0.777-0.939 0.777-1.227s0.348-0.71 0.773-0.938c0.425-0.227 0.887-0.773 1.027-1.214 0.14-0.44 0.5-0.8 0.8-0.8s0.657-0.351 0.794-0.78c0.136-0.428 0.598-0.89 1.026-1.026 0.429-0.137 0.78-0.506 0.78-0.821s0.18-0.573 0.4-0.573 0.717-0.315 1.103-0.7c0.808-0.803 4.627-3.3 5.049-3.3 0.155 0 0.668-0.36 1.14-0.8s1.306-0.8 1.852-0.8 1.277-0.245 1.625-0.543c0.837-0.721 3.083-1.457 4.445-1.457 0.602 0 1.61-0.277 2.24-0.615 1.483-0.796 14.595-0.698 15.407 0.115m86.482-0.1c0.33 0.33 1.018 0.601 1.528 0.602 0.511 2e-3 1.469 0.296 2.129 0.655s1.708 0.917 2.329 1.242c0.622 0.324 1.223 0.832 1.337 1.13 0.115 0.297 0.551 0.65 0.971 0.783s0.763 0.501 0.763 0.818c0 0.316 0.45 0.967 1 1.445s1 1.221 1 1.65 0.381 1.396 0.846 2.149c1.422 2.301 1.398 13.828-0.034 16.504-0.204 0.381-0.556 2.171-0.783 3.979-0.227 1.807-0.671 3.861-0.988 4.565-0.317 0.703-0.699 2.538-0.848 4.078-0.15 1.54-0.536 3.43-0.858 4.2-0.323 0.77-0.759 2.901-0.969 4.736-0.211 1.835-0.628 3.815-0.928 4.4s-0.673 2.414-0.829 4.064-0.534 3.518-0.841 4.152c-0.307 0.633-0.749 2.703-0.982 4.6-0.306 2.483-0.701 3.868-1.411 4.948l-0.986 1.5h-8.515c-6.089 0-8.651-0.137-8.994-0.48-0.683-0.683-0.57-5.398 0.176-7.32 0.341-0.88 0.85-3.234 1.131-5.232 0.282-1.997 0.723-4.026 0.981-4.509 0.259-0.483 0.64-2.373 0.848-4.2 0.207-1.827 0.63-3.848 0.94-4.491 0.309-0.642 0.687-2.428 0.839-3.968 0.153-1.54 0.516-3.34 0.807-4 0.292-0.66 0.742-2.73 1.001-4.6 0.258-1.87 0.726-4.013 1.039-4.762 1.102-2.638 0.942-10.578-0.239-11.834-2.571-2.737-8.089-3.59-10.824-1.674-0.527 0.368-1.268 0.67-1.647 0.67-0.38 0-1.176 0.45-1.77 1-0.593 0.55-1.194 1-1.335 1-0.374 0-3.661 3.238-4.827 4.755-0.55 0.716-1.321 1.654-1.712 2.085-0.392 0.432-0.828 1.362-0.969 2.066-0.141 0.705-0.565 1.824-0.941 2.488-0.377 0.663-0.805 2.016-0.952 3.006-0.146 0.99-0.502 2.16-0.789 2.6-0.288 0.44-0.657 2.06-0.821 3.6s-0.573 3.61-0.91 4.6c-0.338 0.99-0.745 2.981-0.905 4.424-0.161 1.444-0.572 3.244-0.914 4-0.342 0.757-0.746 2.636-0.897 4.176s-0.552 3.338-0.892 3.996-0.76 2.606-0.934 4.33-0.489 3.345-0.701 3.604c-0.212 0.258-0.6 1.28-0.863 2.27-0.772 2.906-0.416 2.8-9.43 2.8-9.531 0-10.347-0.194-10.038-2.38 0.111-0.781 0.392-2.847 0.624-4.592s0.675-3.725 0.985-4.4 0.689-2.39 0.841-3.811c0.152-1.42 0.525-3.177 0.829-3.905 0.304-0.727 0.754-2.794 1-4.594 0.247-1.8 0.68-3.733 0.963-4.295 0.283-0.563 0.623-2.193 0.755-3.623s0.608-3.631 1.056-4.89c0.448-1.26 0.815-2.986 0.815-3.837s0.332-2.521 0.738-3.71c0.406-1.19 0.854-3.293 0.995-4.673 0.141-1.381 0.504-3.001 0.807-3.6 0.303-0.6 0.672-2.329 0.822-3.842 0.149-1.514 0.545-3.404 0.881-4.2 0.335-0.797 0.756-2.737 0.935-4.311 0.181-1.595 0.746-3.722 1.274-4.8l0.948-1.937 8.549-0.108c10.529-0.133 10.912 0.118 8.568 5.612-0.353 0.827-0.499 1.637-0.325 1.8 0.175 0.163 0.398 0.071 0.496-0.204s0.529-0.5 0.958-0.5c0.428 0 0.876-0.254 0.995-0.563 0.119-0.31 0.744-0.782 1.388-1.049s1.171-0.624 1.171-0.793c0-0.17 0.685-0.582 1.523-0.917 0.837-0.335 1.759-0.895 2.049-1.244 0.289-0.349 0.871-0.634 1.293-0.634s1.281-0.38 1.91-0.844c0.628-0.465 2.002-0.942 3.053-1.06 1.051-0.119 2.375-0.458 2.942-0.753 1.536-0.802 10.959-0.756 11.773 0.057m-98.34 14.076c-1.099 0.097-2.28 0.432-2.626 0.745s-1.206 0.77-1.911 1.016c-0.706 0.246-1.465 0.788-1.689 1.205-0.223 0.417-0.64 0.758-0.927 0.758s-0.727 0.45-0.977 1c-0.251 0.55-0.64 1-0.864 1-0.225 0-0.409 0.208-0.409 0.462s-0.45 1.052-1 1.774c-0.55 0.721-1 1.555-1 1.853s-0.353 1.234-0.784 2.079c-0.757 1.485-0.959 2.27-0.862 3.337 0.036 0.399 2.94 0.483 13.746 0.4l13.7-0.105-0.029-3.8c-0.034-4.467-2.627-10-4.686-10-0.175 0-0.805-0.354-1.401-0.788-1.172-0.851-4.708-1.251-8.281-0.936m-128 26.091c-0.44 0.174-2.772 0.441-5.183 0.593-2.977 0.187-4.95 0.527-6.151 1.058-0.972 0.43-2.095 0.782-2.496 0.782-0.4 0-1.574 0.45-2.608 1-1.035 0.55-2.304 1-2.822 1-0.517 0-0.94 0.218-0.94 0.485s-0.455 0.852-1.011 1.3c-2.283 1.84-1.852 7.788 0.714 9.85 2.633 2.115 10.04 2.369 12.508 0.428 0.603-0.475 1.433-0.863 1.843-0.863s0.746-0.241 0.746-0.536c0-0.294 0.45-0.741 1-0.991 0.55-0.251 1-0.686 1-0.968s0.344-0.727 0.764-0.99c0.42-0.262 0.882-1.013 1.026-1.668 0.144-0.656 0.5-1.39 0.792-1.632 0.292-0.243 0.658-1.29 0.812-2.328 0.155-1.038 0.633-2.662 1.064-3.609 0.43-0.948 0.671-2.072 0.535-2.5-0.269-0.848-0.401-0.882-1.593-0.411m61.1 20.709c0.385 0.1 1.015 0.1 1.4 0 0.385-0.101 0.07-0.183-0.7-0.183s-1.085 0.082-0.7 0.183m-15.694 2.624c-3e-3 0.605 0.174 1.1 0.394 1.1 0.506 0 0.506-0.817 0-1.6-0.302-0.468-0.389-0.357-0.394 0.5m7.194 1.924c0 0.713 0.167 1.12 0.4 0.976 0.22-0.136 0.4-0.687 0.4-1.224s-0.18-0.976-0.4-0.976-0.4 0.551-0.4 1.224m-3.54 6.289c-0.253 0.085-0.46 0.824-0.46 1.644 0 2.228-0.963 3.401-1.616 1.969-0.658-1.446-0.186-3.069 1.027-3.53 0.544-0.207 1.003-0.606 1.021-0.886 0.021-0.347 0.104-0.325 0.26 0.07 0.125 0.319 0.021 0.649-0.232 0.733m-4.277 9.634c0.302 0.95-0.451 2.982-0.982 2.653-0.447-0.276-0.551-2.716-0.134-3.133 0.465-0.466 0.872-0.291 1.116 0.48m6.5 3.348c-0.096 0.498-0.178 0.185-0.182-0.695-5e-3 -0.88 0.074-1.287 0.174-0.905 0.1 0.383 0.104 1.103 8e-3 1.6m-8.623 0.905c0 0.209-0.193 0.445-0.43 0.523-0.237 0.079-0.43-0.156-0.43-0.523s0.193-0.602 0.43-0.523c0.237 0.078 0.43 0.314 0.43 0.523" fill="#fbfbfb"/>
<path d="m189.12 174.7c-0.137 6.965-0.052 9.469 0.36 10.674 0.296 0.866 0.642 3.476 0.767 5.8 0.127 2.336 0.549 5.21 0.944 6.426 0.393 1.21 0.842 3.085 0.997 4.167 0.156 1.081 0.52 2.341 0.809 2.8 0.29 0.458 0.654 1.463 0.809 2.233s0.623 1.961 1.039 2.647 0.757 1.629 0.757 2.094c0 0.914 3.367 4.459 4.235 4.459 0.788 0 1.762-1.629 1.788-2.989l0.022-1.211 0.478 1.395c0.675 1.974 1.54 1.95 2.874-0.078 0.62-0.945 1.44-2.178 1.821-2.741 2.59-3.826 2.152-17.869-0.626-20.054-0.787-0.619-0.908-0.931-0.591-1.524 0.565-1.055 0.491-2.412-0.203-3.744-0.329-0.63-0.611-1.98-0.628-3-0.062-3.874-0.49-5.405-1.67-5.971-1.034-0.495-1.1-0.683-1.1-3.148 0-2.345-0.074-2.589-0.7-2.317-0.385 0.167-1.289 0.387-2.01 0.488-0.72 0.101-1.486 0.512-1.701 0.914-0.226 0.422-0.938 0.782-1.69 0.855-1.507 0.145-2.095 2.132-0.919 3.108 0.742 0.616 0.881 6.477 0.197 8.277-0.539 1.418-0.974 0.811-1.619-2.26-0.255-1.21-0.779-2.92-1.166-3.8-0.541-1.232-0.709-2.747-0.73-6.592-0.022-4.258-0.129-5.067-0.721-5.5-1.573-1.151-1.639-0.841-1.823 8.592m47.362-3.524c-0.507 0.563-1.047 1.217-1.2 1.453-0.154 0.236-0.595 0.546-0.98 0.688s-0.7 0.521-0.7 0.843c0 0.323-0.351 0.697-0.78 0.834-0.428 0.136-0.89 0.598-1.026 1.026-0.137 0.429-0.484 0.78-0.772 0.78-0.289 0-0.75 0.544-1.026 1.209-0.275 0.666-0.743 1.345-1.038 1.511-0.296 0.165-0.781 1.016-1.077 1.89-0.378 1.112-0.936 1.792-1.858 2.263-0.726 0.37-1.702 1.258-2.171 1.974-0.469 0.715-1.122 1.695-1.452 2.178-2.614 3.82-3.742 5.595-5.351 8.414-1.017 1.782-1.849 3.515-1.849 3.851 0 0.337-0.263 0.83-0.585 1.097-0.321 0.267-0.699 0.874-0.84 1.349s-0.668 1.764-1.172 2.864c-0.503 1.1-1.295 2.83-1.759 3.844-1.57 3.43 0.792 9.557 2.412 6.256 0.189-0.385 0.486-0.994 0.659-1.354 0.523-1.089 1.08-0.444 1.083 1.254 2e-3 1.94 1.441 2.143 4.68 0.66 1.033-0.473 2.004-0.86 2.159-0.86 1.48 0 6.463-4.581 8.486-7.8 0.691-1.1 1.416-2.191 1.612-2.425 0.871-1.039 1.384-2.454 1.338-3.689-0.053-1.391 1.579-4.486 2.364-4.486 0.259 0 0.33-0.44 0.18-1.124-0.2-0.91-0.068-1.22 0.69-1.626 1.401-0.75 3.624-4.674 3.324-5.869-0.169-0.674 2e-3 -1.214 0.563-1.775 0.443-0.443 0.806-1.076 0.806-1.406 0-0.333 0.356-0.6 0.8-0.6 0.622 0 0.8-0.267 0.8-1.2 0-1.019-0.153-1.2-1.019-1.2-0.573 0-1.425-0.438-1.946-1-1.307-1.411-4.635-0.823-4.635 0.819 0 0.329-0.45 0.803-1 1.054-0.55 0.25-1 0.686-1 0.969 0 0.282-0.333 0.748-0.74 1.035-0.408 0.288-1.042 1.108-1.411 1.823-0.368 0.715-0.854 1.3-1.08 1.3s-0.602 0.548-0.835 1.218c-0.378 1.085-1.356 1.491-1.32 0.549 0.112-2.934 0.744-4.696 1.831-5.106 0.635-0.24 1.155-0.654 1.155-0.92s0.239-0.723 0.532-1.016c0.292-0.292 0.787-1.012 1.1-1.6 0.312-0.588 1.693-2.442 3.068-4.12 2.071-2.529 2.499-3.306 2.494-4.529-9e-3 -2.139-0.434-2.503-1.514-1.3m-9.112 21.122c-0.498 1.418-1.623 1.498-1.429 0.102 0.19-1.368 0.869-2.152 1.402-1.619 0.277 0.277 0.286 0.782 0.027 1.517m-30.692 3.202c-0.101 0.385-0.183 0.07-0.183-0.7s0.082-1.085 0.183-0.7c0.1 0.385 0.1 1.015 0 1.4m28.924-0.933c0 1.351-0.394 2.233-0.998 2.233-0.282 0-0.628 0.613-0.768 1.361-0.141 0.749-0.504 1.457-0.807 1.573-0.303 0.117-0.678 0.786-0.832 1.488-0.167 0.762-0.584 1.355-1.037 1.473-0.555 0.145-0.758 0.56-0.758 1.548 0 0.923-0.256 1.509-0.81 1.854-0.477 0.296-0.909 1.12-1.051 2.003-0.137 0.85-0.469 1.5-0.767 1.5s-0.67 0.733-0.86 1.697c-0.221 1.113-0.573 1.742-1.024 1.829-1.129 0.218-0.91-2.369 0.312-3.688 0.55-0.594 1-1.424 1-1.845 0-0.42 0.336-0.945 0.747-1.164 0.45-0.241 0.849-1.041 1.004-2.014 0.164-1.021 0.471-1.615 0.836-1.615 0.343 0 0.684-0.571 0.841-1.411 0.146-0.776 0.604-1.592 1.019-1.814 0.414-0.222 0.753-0.748 0.753-1.168 0-0.421 0.45-1.251 1-1.845 0.55-0.593 1-1.383 1-1.754s0.12-0.795 0.267-0.941c0.538-0.539 0.933-0.242 0.933 0.7m-27.26 9.213c-0.19 0.213-0.315-0.754-0.284-2.2l0.057-2.58 0.284 2.2c0.156 1.21 0.131 2.371-0.057 2.58m2.06 4.62c0 1.333-0.178 2.4-0.4 2.4-0.44 0-0.561-4.106-0.133-4.533 0.484-0.485 0.533-0.289 0.533 2.133" fill="#c83543"/>
<path d="m26.885 131.53c-0.828 0.543-2.467 5.701-2.477 7.792-4e-3 1.056-0.27 2.426-0.59 3.045s-0.772 2.657-1.005 4.528c-0.232 1.872-0.674 3.922-0.981 4.555-0.306 0.634-0.677 2.322-0.823 3.752s-0.613 3.636-1.037 4.902c-0.425 1.265-0.772 3.104-0.772 4.085s-0.341 2.649-0.758 3.708c-0.418 1.058-0.882 3.18-1.033 4.714-0.15 1.535-0.559 3.421-0.909 4.191-0.349 0.77-0.763 2.75-0.921 4.4-0.157 1.65-0.559 3.63-0.893 4.4s-0.737 2.66-0.897 4.2c-0.159 1.54-0.524 3.261-0.811 3.825s-0.639 2.184-0.783 3.6-0.593 3.655-0.998 4.975-0.854 3.616-0.999 5.103c-0.144 1.487-0.54 3.26-0.879 3.94-0.34 0.68-0.709 2.434-0.822 3.897-0.112 1.463-0.451 3.148-0.753 3.745-0.302 0.596-0.763 2.913-1.026 5.147-0.647 5.516-1.141 5.241 9.169 5.088 9.536-0.142 9.291-0.035 9.609-4.177 0.116-1.509 0.473-3.26 0.793-3.892s0.733-2.758 0.918-4.725c0.184-1.966 0.501-3.789 0.705-4.05 0.491-0.633 1.288-4.816 1.288-6.763 0-0.854 0.248-2.039 0.55-2.633 0.303-0.594 0.757-2.854 1.009-5.023 0.252-2.168 0.661-4.32 0.908-4.782s0.602-2.352 0.79-4.2c0.187-1.848 0.627-4.196 0.978-5.218 0.351-1.021 0.773-3.3 0.937-5.063s0.497-3.575 0.739-4.028c0.242-0.452 0.643-2.429 0.89-4.394 0.248-1.965 0.689-4.202 0.981-4.972s0.661-2.975 0.822-4.9c0.16-1.925 0.43-3.5 0.601-3.5 1.072 0 1.483 4.902 1.966 23.445 0.213 8.165 0.585 16.985 0.828 19.6 0.62 6.692 1.159 17.091 1.182 22.811 0.028 7.051-0.709 6.593 10.386 6.455l8.966-0.111 1.307-1.8c0.719-0.99 1.319-2.181 1.333-2.646 0.015-0.465 0.376-1.29 0.802-1.832 0.427-0.542 0.904-1.511 1.061-2.154 0.157-0.642 0.619-1.597 1.025-2.122s0.739-1.265 0.739-1.646 0.362-1.152 0.804-1.714c0.441-0.561 0.912-1.567 1.045-2.233 0.134-0.667 0.582-1.519 0.997-1.895 0.415-0.375 0.754-1.08 0.754-1.566s0.362-1.344 0.804-1.906c0.441-0.561 0.912-1.567 1.045-2.233 0.134-0.667 0.582-1.519 0.997-1.895 0.415-0.375 0.754-1.08 0.754-1.566s0.362-1.344 0.804-1.906c0.441-0.561 0.913-1.572 1.048-2.245 0.134-0.672 0.491-1.428 0.793-1.679 0.302-0.25 0.737-1.154 0.968-2.009 0.23-0.854 0.584-1.553 0.787-1.553s0.57-0.747 0.816-1.66 0.712-1.925 1.035-2.248c0.324-0.324 0.691-1.103 0.817-1.731 0.126-0.629 0.477-1.349 0.78-1.601 0.304-0.252 0.553-0.661 0.554-0.909 0-0.248 0.54-1.531 1.198-2.851s1.202-2.58 1.207-2.8c6e-3 -0.22 0.363-0.85 0.793-1.4s0.786-1.332 0.791-1.737 0.364-1.188 0.798-1.74c0.435-0.553 0.907-1.63 1.051-2.396 0.144-0.765 0.506-1.485 0.806-1.6s0.742-0.938 0.981-1.828c0.24-0.891 0.692-1.875 1.004-2.187s0.682-1.05 0.822-1.64 0.478-1.342 0.75-1.672c0.273-0.33 0.713-1.275 0.977-2.1 0.265-0.825 0.738-1.5 1.051-1.5 0.37 0 0.579-0.456 0.597-1.3 0.05-2.329 0.712-3.157 0.744-0.931 0.018 1.238-0.199 2.218-0.583 2.643-0.349 0.386-0.767 2.028-0.976 3.832-0.2 1.736-0.645 3.715-0.988 4.397-0.344 0.683-0.743 2.393-0.888 3.8-0.144 1.408-0.498 2.923-0.786 3.367-0.287 0.444-0.643 1.884-0.789 3.2-0.147 1.316-0.529 3.022-0.848 3.792-0.32 0.77-0.746 2.531-0.948 3.913-0.202 1.383-0.726 3.582-1.166 4.888-0.44 1.305-0.8 3.018-0.8 3.806s-0.271 1.956-0.602 2.596-0.796 2.566-1.034 4.28c-0.239 1.715-0.611 3.331-0.827 3.592s-0.637 1.881-0.934 3.6-0.817 3.845-1.154 4.725c-0.338 0.88-0.626 2.41-0.64 3.4-0.015 0.99-0.391 2.604-0.837 3.587-1.203 2.651-1.545 7.951-0.559 8.672 0.933 0.682 14.607 0.771 16.511 0.108 1.332-0.465 1.468-0.732 1.869-3.682 0.143-1.054 0.499-2.494 0.79-3.2 0.291-0.707 0.655-2.572 0.809-4.145 0.155-1.572 0.535-3.349 0.846-3.948 0.31-0.598 0.735-2.592 0.944-4.431 0.209-1.838 0.604-3.752 0.878-4.252 0.273-0.5 0.714-2.439 0.979-4.309s0.762-4.12 1.104-5 0.63-2.459 0.639-3.51c0.01-1.05 0.377-2.93 0.815-4.177s0.913-3.447 1.055-4.89c0.141-1.443 0.49-3.084 0.775-3.648 0.284-0.564 0.632-2.184 0.773-3.6s0.59-3.565 0.998-4.775c0.407-1.21 0.842-3.321 0.965-4.692 0.123-1.37 0.586-3.57 1.03-4.887 0.444-1.318 0.807-3.22 0.807-4.228s0.257-2.329 0.57-2.936c0.314-0.606 0.772-2.622 1.019-4.48 0.247-1.857 0.69-3.917 0.985-4.577 0.296-0.66 0.662-2.418 0.814-3.906 0.152-1.489 0.622-3.689 1.045-4.89 1.945-5.535 2.284-5.404-14.031-5.404h-13.54l-1.231 1.231c-0.677 0.677-1.349 1.712-1.492 2.3-0.144 0.588-0.594 1.498-1 2.023s-0.739 1.265-0.739 1.646-0.362 1.152-0.804 1.714c-0.441 0.561-0.913 1.572-1.048 2.245-0.134 0.672-0.491 1.428-0.793 1.679-0.302 0.25-0.737 1.154-0.968 2.009-0.23 0.854-0.577 1.553-0.771 1.553-0.195 0-0.574 0.675-0.843 1.5s-0.823 1.929-1.231 2.454-0.742 1.352-0.742 1.838-0.356 1.207-0.792 1.601-0.904 1.31-1.039 2.034c-0.136 0.725-0.49 1.411-0.786 1.524-0.296 0.114-0.657 0.835-0.801 1.602-0.143 0.767-0.603 1.704-1.022 2.083-0.418 0.378-0.76 1.075-0.76 1.548s-0.45 1.471-1 2.216-1.004 1.635-1.009 1.978c-5e-3 0.342-0.361 1.072-0.791 1.622s-0.786 1.291-0.791 1.646-0.346 1.075-0.757 1.6-0.871 1.52-1.023 2.213c-0.151 0.692-0.624 1.575-1.052 1.962-0.427 0.386-0.777 1.125-0.777 1.641s-0.342 1.28-0.759 1.697c-0.418 0.418-0.886 1.336-1.041 2.041s-0.623 1.623-1.041 2.041c-0.417 0.417-0.759 1.095-0.759 1.505s-0.362 1.206-0.804 1.768c-0.441 0.561-0.917 1.591-1.056 2.288-0.14 0.697-0.493 1.359-0.786 1.471s-0.648 0.822-0.79 1.576c-0.141 0.755-0.606 1.56-1.033 1.788s-0.917 0.796-1.089 1.261-0.439-5.982-0.594-14.326c-0.275-14.834-0.661-22.725-1.425-29.172-0.209-1.76-0.39-6.901-0.401-11.424-0.017-6.441-0.145-8.391-0.589-9-0.613-0.838-26.935-1.444-28.148-0.648m27.595 1.192c0.395 0.394 0.584 3.768 0.786 14 0.147 7.414 0.459 15.73 0.695 18.48 0.909 10.611 1.239 16.987 1.244 24.059 7e-3 9.44 0.068 9.684 1.841 7.362 0.745-0.975 1.354-1.982 1.354-2.238 0-0.395 1.27-3.062 2.467-5.183 0.186-0.33 0.497-0.96 0.69-1.4 1.007-2.29 1.265-2.85 1.568-3.4 1.318-2.392 2.475-4.886 2.475-5.338 0-0.296 0.342-0.848 0.76-1.226 0.419-0.379 0.873-1.288 1.011-2.022 0.138-0.733 0.514-1.553 0.837-1.82 0.322-0.268 0.774-1.186 1.005-2.041 0.23-0.854 0.577-1.553 0.771-1.553s0.469-0.532 0.612-1.181c0.143-0.65 0.579-1.595 0.971-2.1 0.391-0.506 0.84-1.445 0.997-2.087 0.157-0.643 0.634-1.612 1.061-2.154 0.426-0.542 0.775-1.3 0.775-1.683s0.269-0.92 0.598-1.193c0.329-0.274 0.808-1.198 1.065-2.054 0.257-0.857 0.707-1.757 1.002-2.002 0.294-0.244 0.535-0.647 0.534-0.895 0-0.42 3.619-8.113 4.446-9.451 0.204-0.33 0.642-1.23 0.973-2s0.778-1.67 0.995-2c0.216-0.33 0.595-1.05 0.841-1.6 1.556-3.468 3.051-6.322 3.718-7.1l0.772-0.9h13.541c15.417 0 14.449-0.255 13.387 3.53-0.35 1.248-0.746 3.255-0.88 4.458-0.134 1.204-0.592 3.223-1.017 4.488-0.426 1.264-0.775 3.001-0.775 3.859 0 0.859-0.36 2.688-0.8 4.065s-0.8 2.982-0.8 3.565-0.281 2.045-0.625 3.248-0.859 3.627-1.146 5.387-0.808 4.37-1.158 5.8-0.806 3.5-1.013 4.6c-1.025 5.436-1.784 8.968-2.279 10.6-0.3 0.99-0.732 3.15-0.959 4.8s-0.677 3.72-0.999 4.6-0.594 2.335-0.603 3.234c-0.01 0.899-0.373 2.716-0.807 4.038s-0.897 3.467-1.027 4.766c-0.131 1.299-0.568 3.352-0.971 4.562s-0.854 3.362-1.002 4.783c-0.148 1.42-0.538 3.22-0.867 4-0.329 0.779-0.702 2.632-0.829 4.116-0.304 3.553 0.045 3.416-8.983 3.542-9.961 0.14-10.22-0.036-8.332-5.64 0.44-1.306 0.963-3.532 1.164-4.947 0.2-1.415 0.58-2.976 0.845-3.47 0.264-0.494 0.635-2.132 0.824-3.639 0.19-1.508 0.616-3.267 0.948-3.909s0.721-2.218 0.864-3.502c0.143-1.283 0.51-2.948 0.814-3.698s0.751-2.64 0.991-4.2c0.241-1.56 0.664-3.286 0.94-3.836s0.623-1.952 0.771-3.115c0.149-1.163 0.621-3.233 1.05-4.6 0.428-1.367 0.781-3.025 0.784-3.685s0.347-2.1 0.765-3.2c0.417-1.1 0.89-3.08 1.05-4.4 0.161-1.32 0.519-2.85 0.797-3.4s0.702-2.276 0.943-3.836c0.24-1.56 0.689-3.45 0.996-4.2 0.942-2.3 1.254-6.764 0.473-6.764-0.354 0-0.752 0.315-0.883 0.7s-1.115 2.552-2.187 4.817c-1.072 2.264-1.949 4.357-1.949 4.651s-0.261 0.75-0.58 1.015c-0.318 0.265-0.791 1.142-1.05 1.949s-0.698 1.738-0.976 2.068-0.627 1.173-0.775 1.872c-0.149 0.7-0.517 1.478-0.819 1.728s-0.663 0.974-0.802 1.609c-0.139 0.634-0.573 1.567-0.965 2.072-0.391 0.506-0.84 1.445-0.997 2.087-0.157 0.643-0.634 1.612-1.061 2.154-0.426 0.542-0.775 1.202-0.775 1.467s-0.8 2.086-1.777 4.046c-0.977 1.961-1.966 4.015-2.199 4.565-0.232 0.55-0.573 1.27-0.758 1.6-0.184 0.33-0.803 1.59-1.375 2.8s-1.861 3.917-2.865 6.015c-1.004 2.099-1.826 4.012-1.826 4.251 0 0.24-0.258 0.651-0.574 0.913s-0.7 1.049-0.852 1.749c-0.153 0.699-0.615 1.701-1.026 2.226s-0.748 1.265-0.748 1.646-0.36 1.15-0.8 1.709c-0.44 0.56-0.8 1.162-0.8 1.339s-0.8 1.948-1.777 3.937c-0.977 1.988-1.959 4.101-2.183 4.696-0.223 0.594-0.865 1.809-1.428 2.7l-1.022 1.619h-9.005c-10.892 0-9.599 1.791-9.959-13.8-0.152-6.6-0.536-15.24-0.854-19.2s-0.757-14.4-0.976-23.2c-0.457-18.346-0.481-18.608-1.637-18.305-1.076 0.281-1.39 1.232-1.708 5.172-0.145 1.797-0.532 3.909-0.86 4.693-0.328 0.785-0.77 3.005-0.981 4.933-0.212 1.929-0.653 4.227-0.98 5.107s-0.603 2.326-0.612 3.213c-0.01 0.887-0.293 2.597-0.628 3.8-0.336 1.203-0.793 3.537-1.016 5.187s-0.758 4.271-1.19 5.826c-0.431 1.554-0.784 3.534-0.784 4.401 0 0.866-0.339 2.761-0.753 4.209-0.414 1.449-0.877 3.788-1.027 5.199-0.151 1.411-0.52 3.375-0.82 4.365s-0.749 3.407-0.997 5.372c-0.249 1.965-0.647 3.937-0.886 4.382-0.238 0.446-0.588 2.341-0.778 4.211-0.451 4.453 0.063 4.201-9.058 4.453-9.974 0.275-10.197 0.077-8.086-7.218 0.414-1.43 0.873-3.68 1.02-5 0.147-1.319 0.495-2.849 0.773-3.4 0.278-0.55 0.626-2.103 0.773-3.452 0.147-1.348 0.621-3.687 1.053-5.198s0.786-3.4 0.786-4.198 0.287-2.239 0.639-3.202c0.351-0.962 0.883-3.19 1.18-4.95 0.298-1.76 0.821-4.184 1.162-5.387 0.34-1.203 0.619-2.755 0.619-3.448s0.36-2.388 0.8-3.765 0.8-3.205 0.8-4.062 0.353-2.563 0.785-3.792c0.432-1.228 0.899-3.339 1.038-4.69 0.138-1.351 0.57-3.356 0.959-4.456 0.39-1.1 0.827-3.202 0.971-4.671 0.145-1.468 0.526-3.3 0.848-4.07s0.693-2.448 0.826-3.729c0.132-1.282 0.563-3.5 0.957-4.93s0.9-3.77 1.123-5.2c0.224-1.43 0.802-3.642 1.284-4.915l0.878-2.315 13.346 0.115c10.289 0.089 13.465 0.234 13.865 0.635m135.32 22.076c-0.63 0.658-1.069 1.26-0.975 1.338s0.684-0.46 1.31-1.196c1.415-1.661 1.206-1.75-0.335-0.142m-37.804 1.555c-2.31 0.147-4.56 0.468-5 0.713-0.44 0.246-1.861 0.643-3.159 0.883-1.297 0.239-2.661 0.709-3.031 1.044s-1.04 0.609-1.488 0.609-1.243 0.322-1.768 0.716-1.449 0.93-2.054 1.191c-0.605 0.262-1.1 0.66-1.1 0.884 0 0.225-0.231 0.409-0.514 0.409-0.783 0-6.286 5.661-6.286 6.466 0 0.388-0.339 0.887-0.754 1.109s-0.876 0.889-1.025 1.483c-0.149 0.593-0.617 1.52-1.041 2.059-0.772 0.98-0.733 2.493 0.091 3.544 0.22 0.279 2.361 0.555 5.445 0.7 2.796 0.133 6.566 0.321 8.377 0.42 3.513 0.191 5.707-0.781 5.707-2.527 0-0.857 2.228-2.835 3.8-3.374 0.66-0.226 1.324-0.6 1.476-0.83 0.471-0.715 7.959-0.785 9.124-0.085 0.55 0.33 1.36 0.769 1.8 0.975 2.265 1.061 2.799 2.279 2.712 6.189-0.106 4.769-0.579 5.24-5.65 5.624-1.904 0.145-4.362 0.535-5.462 0.868-1.213 0.367-4.517 0.699-8.4 0.844-5.002 0.188-6.766 0.403-8.078 0.988-0.923 0.411-2.093 0.748-2.6 0.748-0.507 1e-3 -1.511 0.361-2.232 0.8-0.72 0.44-1.55 0.799-1.844 0.799s-1.197 0.45-2.008 1c-0.81 0.55-1.653 1-1.873 1-0.445 0-4.765 4.107-4.765 4.531 0 0.148-0.366 0.635-0.812 1.082-0.447 0.446-0.92 1.346-1.05 2-0.131 0.653-0.389 1.187-0.573 1.187-0.753 0-2.152 8.046-1.852 10.653 0.443 3.846 1.144 7.148 1.645 7.742 0.281 0.333 0.755 1.223 1.055 1.978 0.703 1.772 6.026 7.05 7.474 7.412 0.612 0.152 1.383 0.518 1.713 0.811 2.179 1.938 15.779 1.95 18 0.016 0.33-0.288 1.166-0.643 1.859-0.79 0.692-0.147 1.575-0.617 1.962-1.045 0.386-0.427 0.9-0.779 1.141-0.782 0.464-6e-3 2.105-1.198 3.709-2.695 1.35-1.259 1.47-1.186 2.31 1.4 1.437 4.423 0.64 4.101 10.128 4.094 10.409-8e-3 9.923 0.3 9.282-5.877-0.422-4.071 0.102-15.44 0.75-16.275 0.514-0.662 1.259-3.998 1.259-5.639 0-0.793 0.274-1.973 0.61-2.622 0.335-0.648 0.786-2.574 1.002-4.28 0.216-1.705 0.638-3.641 0.937-4.301s0.763-3.085 1.031-5.389 0.652-4.498 0.854-4.874c0.573-1.07 0.441-6.631-0.187-7.857-0.304-0.594-0.682-1.858-0.84-2.808s-0.532-1.822-0.832-1.937c-0.299-0.115-0.668-0.597-0.818-1.072-0.441-1.392-6.274-6.663-7.373-6.663-0.269 0-1.051-0.345-1.737-0.766-0.686-0.422-1.967-0.888-2.847-1.036-0.88-0.147-2.162-0.52-2.849-0.828-1.538-0.689-7.741-0.977-13.351-0.619m130.25 0.634c-0.63 0.338-1.638 0.615-2.24 0.615-1.362 0-3.608 0.736-4.445 1.457-0.348 0.298-1.079 0.543-1.625 0.543s-1.38 0.36-1.852 0.8-0.985 0.8-1.14 0.8c-0.422 0-4.241 2.497-5.049 3.3-0.386 0.385-0.883 0.7-1.103 0.7s-0.4 0.258-0.4 0.573-0.351 0.684-0.78 0.821c-0.428 0.136-0.89 0.598-1.026 1.026-0.137 0.429-0.494 0.78-0.794 0.78s-0.66 0.36-0.8 0.8c-0.14 0.441-0.602 0.987-1.027 1.214-0.425 0.228-0.773 0.65-0.773 0.938s-0.35 0.841-0.777 1.227c-0.428 0.387-0.889 1.21-1.025 1.829s-0.496 1.221-0.801 1.338c-0.306 0.117-0.751 0.942-0.991 1.833-0.24 0.892-0.592 1.621-0.782 1.621-0.416 0-1.224 2.197-1.224 3.328 0 0.445-0.271 1.109-0.603 1.475-0.332 0.367-0.782 2.093-1.001 3.836-0.218 1.743-0.577 3.796-0.796 4.563-0.592 2.062-0.485 9.27 0.18 12.116 0.318 1.365 0.683 3.139 0.81 3.942s0.496 1.68 0.821 1.949c0.324 0.269 0.592 0.872 0.595 1.34s0.268 1.301 0.589 1.851 0.864 1.593 1.207 2.317c0.343 0.725 0.888 1.419 1.211 1.543s0.587 0.442 0.587 0.706c0 0.73 5.275 6.099 6.3 6.413 0.495 0.151 0.9 0.441 0.9 0.645 0 0.368 1.742 1.385 4.4 2.567 0.77 0.343 1.94 0.876 2.6 1.185 4.47 2.093 18.92 2.12 23.2 0.044 0.66-0.32 1.944-0.772 2.853-1.004 0.91-0.232 1.877-0.69 2.149-1.019 0.273-0.328 0.699-0.6 0.947-0.603s1.351-0.644 2.451-1.423c1.1-0.78 2.45-1.702 3-2.051 0.55-0.348 1.72-1.527 2.6-2.621 0.88-1.093 1.915-2.277 2.3-2.632s0.7-0.868 0.7-1.142c0-0.273 0.36-0.69 0.8-0.925s0.8-0.678 0.8-0.983c0-0.306 0.45-1.09 1-1.744 1.359-1.615 1.319-3.048-0.1-3.617-2.217-0.889-5.923-1.656-7.997-1.656-1.171 0-2.775-0.27-3.565-0.6-2.732-1.142-6.138-0.143-6.138 1.801 0 0.38-2.647 3.086-4.804 4.913-0.393 0.332-1.497 0.795-2.455 1.029-0.957 0.235-2.846 0.739-4.196 1.121-2.414 0.684-2.483 0.681-4.2-0.168-0.96-0.475-2.21-0.956-2.779-1.071-1.315-0.264-5.106-4.028-5.429-5.391-0.134-0.569-0.535-1.367-0.891-1.775-0.488-0.56-0.646-1.588-0.646-4.2v-3.459l23.041-0.103c22.497-0.101 23.058-0.122 23.768-0.907 1.667-1.841 1.747-20.344 0.099-22.893-0.319-0.493-0.697-1.497-0.84-2.229-0.144-0.733-0.623-1.793-1.064-2.354-0.442-0.562-0.804-1.257-0.804-1.545s-0.334-0.759-0.743-1.046c-0.408-0.288-0.859-0.894-1.002-1.347-0.482-1.526-4.906-5.627-8.015-7.431-1.992-1.156-5.067-2.345-6.066-2.345-0.668 0-1.439-0.225-1.713-0.5-0.812-0.813-13.924-0.911-15.407-0.115m90.116-0.042c-0.567 0.295-1.891 0.634-2.942 0.753-1.051 0.118-2.425 0.595-3.053 1.06-0.629 0.464-1.488 0.844-1.91 0.844s-1.004 0.285-1.293 0.634c-0.29 0.349-1.212 0.909-2.049 1.244-0.838 0.335-1.523 0.747-1.523 0.917 0 0.169-0.527 0.526-1.171 0.793s-1.269 0.739-1.388 1.049c-0.119 0.309-0.567 0.563-0.995 0.563-0.429 0-0.86 0.225-0.958 0.5s-0.321 0.367-0.496 0.204c-0.174-0.163-0.028-0.973 0.325-1.8 2.344-5.494 1.961-5.745-8.568-5.612l-8.549 0.108-0.948 1.937c-0.528 1.078-1.093 3.205-1.274 4.8-0.179 1.574-0.6 3.514-0.935 4.311-0.336 0.796-0.732 2.686-0.881 4.2-0.15 1.513-0.519 3.242-0.822 3.842-0.303 0.599-0.666 2.219-0.807 3.6-0.141 1.38-0.589 3.483-0.995 4.673-0.406 1.189-0.738 2.859-0.738 3.71s-0.367 2.577-0.815 3.837c-0.448 1.259-0.924 3.46-1.056 4.89s-0.472 3.06-0.755 3.623c-0.283 0.562-0.716 2.495-0.963 4.295-0.246 1.8-0.696 3.867-1 4.594-0.304 0.728-0.677 2.485-0.829 3.905-0.152 1.421-0.531 3.136-0.841 3.811s-0.753 2.655-0.985 4.4-0.513 3.811-0.624 4.592c-0.309 2.186 0.507 2.38 10.038 2.38 9.014 0 8.658 0.106 9.43-2.8 0.263-0.99 0.651-2.012 0.863-2.27 0.212-0.259 0.527-1.88 0.701-3.604s0.594-3.672 0.934-4.33 0.741-2.456 0.892-3.996 0.555-3.419 0.897-4.176c0.342-0.756 0.753-2.556 0.914-4 0.16-1.443 0.567-3.434 0.905-4.424 0.337-0.99 0.746-3.06 0.91-4.6s0.533-3.16 0.821-3.6c0.287-0.44 0.643-1.61 0.789-2.6 0.147-0.99 0.575-2.343 0.952-3.006 0.376-0.664 0.8-1.783 0.941-2.488 0.141-0.704 0.577-1.634 0.969-2.066 0.391-0.431 1.162-1.369 1.712-2.085 1.166-1.517 4.453-4.755 4.827-4.755 0.141 0 0.742-0.45 1.335-1 0.594-0.55 1.39-1 1.77-1 0.379 0 1.12-0.302 1.647-0.67 2.735-1.916 8.253-1.063 10.824 1.674 1.181 1.256 1.341 9.196 0.239 11.834-0.313 0.749-0.781 2.892-1.039 4.762-0.259 1.87-0.709 3.94-1.001 4.6-0.291 0.66-0.654 2.46-0.807 4-0.152 1.54-0.53 3.326-0.839 3.968-0.31 0.643-0.733 2.664-0.94 4.491-0.208 1.827-0.589 3.717-0.848 4.2-0.258 0.483-0.699 2.512-0.981 4.509-0.281 1.998-0.79 4.352-1.131 5.232-0.746 1.922-0.859 6.637-0.176 7.32 0.343 0.343 2.905 0.48 8.994 0.48h8.515l0.986-1.5c0.71-1.08 1.105-2.465 1.411-4.948 0.233-1.897 0.675-3.967 0.982-4.6 0.307-0.634 0.685-2.502 0.841-4.152s0.529-3.479 0.829-4.064 0.717-2.565 0.928-4.4c0.21-1.835 0.646-3.966 0.969-4.736 0.322-0.77 0.708-2.66 0.858-4.2 0.149-1.54 0.531-3.375 0.848-4.078 0.317-0.704 0.761-2.758 0.988-4.565 0.227-1.808 0.579-3.598 0.783-3.979 1.432-2.676 1.456-14.203 0.034-16.504-0.465-0.753-0.846-1.72-0.846-2.149s-0.45-1.172-1-1.65-1-1.129-1-1.445c0-0.317-0.343-0.685-0.763-0.818s-0.856-0.486-0.971-0.783c-0.114-0.298-0.715-0.806-1.337-1.13-0.621-0.325-1.669-0.883-2.329-1.242s-1.618-0.653-2.129-0.655c-0.51-1e-3 -1.198-0.272-1.528-0.602-0.814-0.813-10.237-0.859-11.773-0.057m-207.39 0.701c6.093 1.421 14.619 6.471 14.619 8.659 0 0.214 0.368 0.856 0.817 1.428 0.873 1.109 2.185 7.806 1.818 9.273-0.111 0.442-0.395 2.848-0.63 5.348-0.236 2.5-0.784 5.597-1.217 6.884-0.433 1.286-0.788 3.026-0.788 3.865 0 0.84-0.36 2.551-0.8 3.803s-0.8 2.802-0.8 3.444-0.347 2.312-0.77 3.71c-1.507 4.97-2.228 15.362-1.447 20.835 0.511 3.575 0.679 3.507-8.623 3.507-9.034 0-8.784 0.096-9.367-3.6-0.438-2.781-1.872-3.747-3.07-2.068-0.288 0.403-1.063 1.075-1.723 1.495-0.66 0.419-1.438 0.99-1.729 1.268-0.29 0.278-0.668 0.505-0.838 0.505-0.171 0-0.726 0.36-1.233 0.8s-1.143 0.8-1.413 0.8-1.515 0.469-2.767 1.042c-3.621 1.658-12.946 1.609-16.42-0.087-8.462-4.129-11.471-9.042-11.471-18.731v-6.158l1.724-3.533c1.692-3.466 5.676-8.133 6.943-8.133 0.273 0 0.94-0.349 1.482-0.775 0.542-0.427 1.511-0.901 2.154-1.054 0.642-0.153 1.458-0.53 1.813-0.837 0.354-0.307 1.614-0.72 2.8-0.918 1.185-0.198 2.875-0.617 3.755-0.93 0.988-0.352 4.258-0.678 8.548-0.854 5.094-0.208 7.602-0.489 9.4-1.053 1.349-0.423 3.115-0.771 3.926-0.774 3.717-0.013 5.641-4.245 4.123-9.071-1.911-6.073-15.016-7.08-18.915-1.453-0.375 0.542-1.219 1.626-1.874 2.41l-1.193 1.425-5.789-0.263c-12.327-0.56-12.672-0.881-8.311-7.731 2.799-4.398 10.677-10.522 13.537-10.522 0.323 0 0.794-0.206 1.047-0.459 1.955-1.955 16.58-2.92 22.682-1.497m132.32 0.191c2.035 0.349 4.24 0.958 4.9 1.354s1.636 0.852 2.169 1.014 1.163 0.454 1.4 0.65c0.237 0.195 1.367 1.081 2.511 1.969 2.347 1.821 5.847 6.029 6.69 8.041 0.308 0.735 0.681 1.458 0.83 1.605 2.998 2.977 3.752 24.594 0.92 26.39-0.286 0.181-10.713 0.333-23.171 0.336-19.69 5e-3 -22.716 0.085-23.151 0.609-0.728 0.877-0.155 6.849 0.785 8.185 0.391 0.556 0.83 1.391 0.973 1.855 1.387 4.471 11.175 8.438 15.484 6.275 0.528-0.265 1.59-0.765 2.36-1.111 3.088-1.386 5.349-3.272 6.877-5.736 1.369-2.207 5.541-2.352 12.523-0.437 1.54 0.423 3.183 0.768 3.651 0.767 1.497-2e-3 2.005 1.075 1.008 2.137-0.473 0.502-0.859 1.092-0.859 1.31 0 1.534-6.989 9.125-10.4 11.297-0.55 0.35-1.09 0.731-1.2 0.846-5.134 5.371-26.153 6.164-34 1.283-0.77-0.479-1.535-0.872-1.7-0.873-1.104-5e-3 -9.9-9.093-9.9-10.228 0-0.256-0.349-0.909-0.775-1.451-0.427-0.542-0.902-1.511-1.057-2.154-0.155-0.642-0.59-1.798-0.967-2.568-3.804-7.77-0.625-27.181 5.963-36.4 0.707-0.99 1.574-2.25 1.925-2.8 0.787-1.232 5.807-5.702 7.711-6.867 2.838-1.736 5.539-3.133 6.062-3.135 0.296-2e-3 1.078-0.299 1.738-0.66 3.489-1.911 13.91-2.668 20.7-1.503m87.315 0.11c3.827 0.994 7.154 3.145 8.783 5.678 2.894 4.501 3.958 12.101 2.436 17.404-0.311 1.085-0.758 3.464-0.993 5.287-0.235 1.822-0.614 3.663-0.843 4.089-0.228 0.427-0.584 2.106-0.79 3.732s-0.649 3.746-0.985 4.711-0.718 2.924-0.85 4.354-0.514 3.32-0.849 4.2c-0.334 0.88-0.846 3.13-1.137 5s-0.812 4.384-1.158 5.587-0.629 2.739-0.629 3.414c0 1.308-1.399 5.665-2.086 6.499-0.835 1.013-16.588 0.683-17.146-0.36-0.51-0.953-0.223-4.151 0.445-4.956 0.227-0.273 0.573-1.911 0.771-3.641 0.197-1.73 0.635-3.961 0.973-4.957 0.339-0.996 0.724-2.886 0.856-4.199 0.133-1.313 0.57-3.377 0.971-4.587 0.402-1.21 0.833-3.287 0.958-4.615 0.126-1.329 0.496-3.056 0.823-3.839s0.779-2.895 1.005-4.692c0.225-1.797 0.591-3.608 0.814-4.024 0.447-0.835 1.353-7.716 1.348-10.23-0.022-9.425-12.898-9.638-21.343-0.352-2.834 3.115-4.829 6.755-5.565 10.152-0.167 0.77-0.596 2.085-0.953 2.923s-0.76 2.458-0.895 3.6c-0.134 1.142-0.489 2.887-0.788 3.877-0.298 0.99-0.751 3.24-1.005 5s-0.622 3.396-0.817 3.635c-0.196 0.239-0.554 1.857-0.796 3.596-0.241 1.738-0.69 3.761-0.997 4.496s-0.719 2.627-0.916 4.204c-0.197 1.578-0.651 3.566-1.008 4.418s-0.649 1.989-0.649 2.526c0 2.52-0.018 2.525-9.165 2.525-6.661 0-8.431-0.113-8.802-0.56-0.541-0.652-0.02-5.97 0.721-7.355 0.246-0.459 0.641-2.241 0.879-3.96s0.777-4.154 1.199-5.412c0.423-1.258 0.768-2.9 0.768-3.648 0-0.749 0.36-2.488 0.8-3.865s0.8-3.107 0.8-3.844c0-0.736 0.346-2.468 0.769-3.848 0.694-2.266 1.1-4.105 2.452-11.108 0.234-1.21 0.6-2.92 0.814-3.8s0.663-3.04 0.997-4.8 0.872-4.1 1.195-5.2c0.324-1.1 0.768-3.326 0.986-4.947 0.219-1.62 0.528-3.15 0.687-3.4 0.159-0.249 0.562-1.263 0.895-2.253l0.605-1.8 6.4-0.122c9.015-0.172 10.75 0.07 10.451 1.456-1.363 6.332-1.25 7.96 0.444 6.343 1.238-1.182 3.21-2.677 3.531-2.677 0.171 0 0.621-0.281 1.001-0.624 4.888-4.424 17.216-6.946 24.588-5.031m-196.41 16.855c0.084 7.618 0.264 10.73 0.715 12.294 0.331 1.152 0.729 3.852 0.884 6s0.622 4.89 1.038 6.092c0.416 1.203 0.756 2.649 0.756 3.216 0 0.566 0.35 1.714 0.777 2.552s0.894 2.092 1.039 2.785c0.144 0.694 0.585 1.824 0.98 2.512 0.395 0.687 0.847 1.857 1.005 2.6 0.157 0.742 0.65 1.746 1.096 2.232 0.653 0.711 0.77 1.244 0.602 2.734-0.196 1.742-0.135 1.893 1.046 2.593 2.155 1.275 2.361 1.588 2.137 3.254-0.297 2.218 3.085 3.364 3.872 1.312 0.278-0.726 2.015-0.75 2.726-0.039 0.32 0.321 0.857 0.425 1.329 0.26 0.435-0.153 1.079-0.099 1.43 0.121 1.377 0.859 10.149-1.22 10.556-2.503 0.116-0.364 1.098-1.638 2.182-2.829 2.151-2.365 2.135-3.186-0.059-3.186-1.48 0-1.311-0.837 0.253-1.256 1.242-0.332 1.413-0.468 4.829-3.85 2.996-2.966 4.2-4.418 4.2-5.066 0-0.277 0.35-0.821 0.777-1.207 0.428-0.387 0.892-1.225 1.032-1.862 0.14-0.638 0.42-1.159 0.623-1.159 0.202 0 0.368-0.528 0.368-1.174 0-1.612 0.684-3.269 1.619-3.924 0.474-0.332 0.781-1.01 0.781-1.725 0-0.647 0.17-1.177 0.379-1.177 0.555 0 3.219-4.153 3.233-5.041 0.014-0.798 1.297-3.045 2.498-4.374 1.864-2.061 2.69-3.135 2.69-3.498 0-0.219-0.545 0.303-1.211 1.158-0.667 0.855-1.842 2.275-2.613 3.155-0.77 0.88-1.51 2.05-1.643 2.6-0.4 1.649-2.623 5.113-3.626 5.65-0.758 0.406-0.89 0.716-0.69 1.626 0.15 0.684 0.079 1.124-0.18 1.124-0.785 0-2.417 3.095-2.364 4.486 0.05 1.35-0.55 2.848-1.536 3.834-0.295 0.296-0.537 0.779-0.537 1.075 0 0.93-5.786 7.405-6.618 7.405-0.273 0-0.591 0.247-0.707 0.549-0.116 0.301-0.72 0.675-1.343 0.83-0.622 0.156-1.672 0.528-2.332 0.827-4.779 2.167-5.648 2.058-5.283-0.664 0.11-0.82 0.1-1.591-0.022-1.713-0.375-0.376-1.295 0.626-1.295 1.411 0 0.408-0.443 1.032-0.984 1.387-0.542 0.354-1.103 1.033-1.248 1.509-0.144 0.475-0.556 1.197-0.915 1.604s-0.838 1.397-1.064 2.2c-0.343 1.217-0.652 1.52-1.856 1.82-2.497 0.622-2.733 0.311-2.733-3.6 0-3.811-0.099-3.639 3.986-6.941 0.668-0.54 1.214-1.15 1.214-1.356 0-0.207 0.377-1.205 0.838-2.219s1.159-2.564 1.55-3.444c1.441-3.239 4.999-10.43 5.642-11.4 0.364-0.55 1.361-2.057 2.216-3.349s1.824-2.741 2.154-3.219 1.018-1.528 1.529-2.333 1.276-1.574 1.7-1.708c0.424-0.135 0.771-0.469 0.771-0.743 0-1.672 2.49-5.137 6.8-9.462 1.87-1.876 3.741-3.856 4.158-4.399s-1.572 1.364-4.42 4.236c-2.847 2.873-5.591 6.023-6.096 7-0.505 0.978-1.441 2.293-2.08 2.924-0.639 0.632-1.162 1.326-1.162 1.543 0 0.379-1.349 2.215-2.602 3.544-0.329 0.348-0.598 0.77-0.598 0.938 0 0.167-0.405 0.869-0.9 1.558-1.166 1.624-1.702 2.515-2.691 4.47-0.445 0.88-1.079 1.949-1.409 2.376-0.33 0.428-0.6 1.08-0.6 1.451s-0.261 0.891-0.58 1.156c-0.318 0.265-0.791 1.142-1.05 1.949s-0.702 1.738-0.983 2.068c-0.282 0.33-0.711 1.344-0.953 2.253-0.242 0.91-0.708 1.877-1.037 2.149-0.328 0.273-0.597 0.832-0.597 1.244 0 0.411-0.36 0.972-0.8 1.247s-0.8 0.726-0.8 1.003-0.36 0.504-0.8 0.504c-1.01 0-1.001-0.268 0.065-2 1.998-3.244 2.72-9.313 1.735-14.575-0.374-1.994-0.756-4.035-0.85-4.535-0.094-0.501-0.526-1.266-0.96-1.7-0.563-0.563-0.792-1.337-0.796-2.69-3e-3 -1.045-0.265-2.62-0.582-3.5s-0.585-2.824-0.594-4.319c-0.016-2.359-0.148-2.839-0.997-3.627-0.802-0.743-1.005-1.372-1.123-3.48l-0.144-2.574-0.077 2.774c-0.063 2.272 0.065 2.925 0.706 3.608 0.594 0.633 0.844 1.65 1.037 4.226 0.14 1.865 0.525 3.996 0.856 4.735 0.401 0.894 0.518 1.902 0.351 3.017-0.218 1.453-0.12 1.789 0.739 2.535 1.1 0.957 1.312 1.813 1.799 7.265 0.358 4.003-0.098 9.63-0.899 11.088-3.391 6.17-4.707 7.168-5.356 4.061l-0.273-1.309-0.292 1.4c-0.161 0.77-0.521 2.163-0.8 3.096-0.447 1.491-0.428 1.758 0.155 2.2 1.293 0.981 1.977 4.532 1.131 5.868-0.247 0.39-0.442-0.113-0.631-1.626-0.246-1.969-0.397-2.237-1.492-2.65-1.198-0.452-1.207-0.477-0.552-1.477 0.647-0.987 0.636-1.032-0.345-1.479-0.656-0.299-1.011-0.784-1.011-1.382 0-0.508-0.54-1.475-1.2-2.15s-1.2-1.572-1.2-1.993c0-0.42-0.45-1.611-1-2.645-0.55-1.035-1-2.264-1-2.733 0-0.468-0.253-1.212-0.563-1.654-0.309-0.442-0.691-1.697-0.848-2.789s-0.607-2.976-1-4.186c-0.396-1.217-0.817-4.091-0.944-6.432-0.144-2.655-0.484-4.816-0.913-5.8-0.551-1.264-0.738-3.43-0.96-11.168l-0.276-9.6 0.111 10.2m14.307-7c3e-3 1.1 0.081 1.503 0.173 0.895 0.092-0.609 0.09-1.509-5e-3 -2-0.095-0.492-0.171 5e-3 -0.168 1.105m83.486 2.783c-3.996 0.561-8.532 3.623-10.682 7.212-2.323 3.878-3.518 7.628-2.925 9.185l0.387 1.02h13.61c16.876 0 16.792 0.051 14.268-8.678-0.765-2.645-3.724-6.922-4.789-6.922-0.209 0-0.594-0.291-0.854-0.648-0.772-1.055-5.478-1.665-9.015-1.169m8.084 1.429c0.596 0.434 1.226 0.788 1.401 0.788 2.059 0 4.652 5.533 4.686 10l0.029 3.8-13.7 0.105c-10.806 0.083-13.71-1e-3 -13.746-0.4-0.097-1.067 0.105-1.852 0.862-3.337 0.431-0.845 0.784-1.781 0.784-2.079s0.45-1.132 1-1.853c0.55-0.722 1-1.52 1-1.774s0.184-0.462 0.409-0.462c0.224 0 0.613-0.45 0.864-1 0.25-0.55 0.69-1 0.977-1s0.704-0.341 0.927-0.758c0.224-0.417 0.983-0.959 1.689-1.205 0.705-0.246 1.565-0.703 1.911-1.016 1.368-1.239 9.127-1.102 10.907 0.191m-45.79 4.091l-0.706 1.297 0.806-0.944c0.686-0.804 1.052-1.662 0.706-1.653-0.055 1e-3 -0.418 0.586-0.806 1.3m-54.091 5.469c-0.337 2.906 0.268 4.545 0.984 2.663 0.452-1.19 0.184-4.482-0.394-4.839-0.173-0.107-0.438 0.872-0.59 2.176m35.397 4.464c0 0.24-0.353 0.735-0.784 1.1-0.898 0.76-1.257 2.895-0.531 3.15 0.267 0.094 0.602-0.294 0.745-0.863 0.143-0.568 0.495-1.166 0.783-1.328 0.858-0.483 1.205-2.495 0.43-2.495-0.353 0-0.643 0.196-0.643 0.436m-3.098 4.847c-0.233 0.284-0.487 0.967-0.563 1.517-0.194 1.396 0.931 1.316 1.429-0.102 0.454-1.291-0.153-2.284-0.866-1.415m-30.009 3.917c0 0.77 0.082 1.085 0.183 0.7 0.1-0.385 0.1-1.015 0-1.4-0.101-0.385-0.183-0.07-0.183 0.7m28.174-0.933c-0.147 0.146-0.267 0.57-0.267 0.941s-0.45 1.161-1 1.754c-0.55 0.594-1 1.424-1 1.845 0 0.42-0.339 0.946-0.753 1.168-0.415 0.222-0.873 1.038-1.019 1.814-0.146 0.78-0.504 1.411-0.799 1.411-0.557 0-1.014 1.185-1.024 2.653-3e-3 0.494-0.32 0.936-0.751 1.049-0.479 0.125-0.843 0.713-1.018 1.646-0.153 0.816-0.508 1.452-0.811 1.452-0.66 0-1.025 0.876-1.025 2.462 0 1.917 1.296 1.338 1.712-0.765 0.19-0.964 0.562-1.697 0.86-1.697s0.63-0.65 0.767-1.5c0.142-0.883 0.574-1.707 1.051-2.003 0.554-0.345 0.81-0.931 0.81-1.854 0-1.013 0.199-1.402 0.8-1.559 0.479-0.125 0.8-0.546 0.8-1.047 0-0.46 0.366-1.203 0.813-1.649 0.446-0.447 0.919-1.347 1.05-2 0.13-0.654 0.465-1.188 0.744-1.188 0.599 0 0.993-0.886 0.993-2.233 0-0.942-0.395-1.239-0.933-0.7m-67.127 2.326c-0.312 0.312-7.717 1.407-9.516 1.407-0.795 0-1.801 0.246-2.235 0.547s-1.815 0.843-3.069 1.205c-1.253 0.362-2.389 0.836-2.523 1.053s-0.576 0.395-0.982 0.395c-3.14 0-5.971 6.022-4.556 9.692 3.783 9.811 20.814 5.245 23.703-6.354 0.211-0.846 0.674-2.332 1.031-3.303 1.153-3.141-0.133-6.362-1.853-4.642m1.853 1.385c0.136 0.428-0.105 1.552-0.535 2.5-0.431 0.947-0.909 2.571-1.064 3.609-0.154 1.038-0.52 2.085-0.812 2.328-0.292 0.242-0.648 0.976-0.792 1.632-0.144 0.655-0.606 1.406-1.026 1.668-0.42 0.263-0.764 0.708-0.764 0.99s-0.45 0.717-1 0.968c-0.55 0.25-1 0.697-1 0.991 0 0.295-0.336 0.536-0.746 0.536s-1.24 0.388-1.843 0.863c-2.468 1.941-9.875 1.687-12.508-0.428-2.566-2.062-2.997-8.01-0.714-9.85 0.556-0.448 1.011-1.033 1.011-1.3s0.423-0.485 0.94-0.485c0.518 0 1.787-0.45 2.822-1 1.034-0.55 2.208-1 2.608-1 0.401 0 1.524-0.352 2.496-0.782 1.201-0.531 3.174-0.871 6.151-1.058 2.411-0.152 4.743-0.419 5.183-0.593 1.192-0.471 1.324-0.437 1.593 0.411m38.735 4.022c0 1.43 0.073 2.015 0.161 1.3 0.089-0.715 0.089-1.885 0-2.6-0.088-0.715-0.161-0.13-0.161 1.3m1.739 4.667c-0.428 0.427-0.307 4.533 0.133 4.533 0.222 0 0.4-1.067 0.4-2.4 0-2.422-0.049-2.618-0.533-2.133m20.433 11.609c-0.385 0.1-1.015 0.1-1.4 0-0.385-0.101-0.07-0.183 0.7-0.183s1.085 0.082 0.7 0.183m-1.4 1.186c2.629 0.268 2.84 0.556 1 1.366-0.947 0.417-1.355 0.898-1.503 1.772-0.295 1.746-6.397 2.158-6.397 0.432 0-0.55 0.338-1.323 0.75-1.716 0.413-0.394 0.881-1.139 1.04-1.656 0.248-0.807 0.466-0.904 1.55-0.685 0.693 0.139 2.295 0.358 3.56 0.487m-14.906 2.038c3e-3 0.275-0.174 0.5-0.394 0.5s-0.397-0.495-0.394-1.1c6e-3 -1.126 0.774-0.542 0.788 0.6m7.206 1.076c0 0.537-0.18 1.088-0.4 1.224-0.233 0.144-0.4-0.263-0.4-0.976 0-0.673 0.18-1.224 0.4-1.224s0.4 0.439 0.4 0.976m-4.368 5.734c-0.018 0.28-0.477 0.679-1.021 0.886-1.213 0.461-1.685 2.084-1.027 3.53 0.653 1.432 1.616 0.259 1.616-1.969 0-0.82 0.207-1.559 0.46-1.644 0.253-0.084 0.357-0.414 0.232-0.733-0.156-0.395-0.239-0.417-0.26-0.07m-5.365 9.957c-0.417 0.417-0.313 2.857 0.134 3.133 0.22 0.137 0.585-0.236 0.81-0.829 0.6-1.578-0.06-3.189-0.944-2.304m7.434 3.133c4e-3 0.88 0.086 1.193 0.182 0.695 0.096-0.497 0.092-1.217-8e-3 -1.6-0.1-0.382-0.179 0.025-0.174 0.905m-9.301 1.6c0 0.367 0.193 0.602 0.43 0.523 0.237-0.078 0.43-0.314 0.43-0.523s-0.193-0.445-0.43-0.523c-0.237-0.079-0.43 0.156-0.43 0.523" fill="#969596"/>
<path d="m192.2 153.52c-1.136 0.226-2.61 1.661-3.252 3.166-0.668 1.569-0.813 25.542-0.148 24.513 0.215-0.332 0.39-3.949 0.394-8.1 6e-3 -7.872 0.09-8.205 1.747-6.992 0.592 0.433 0.699 1.242 0.721 5.5 0.021 3.86 0.187 5.355 0.735 6.592 0.389 0.88 0.881 2.41 1.093 3.4l0.386 1.8 0.317-2.125c0.318-2.136 0.785-2.334 1.119-0.475 0.098 0.55 0.204-0.193 0.234-1.651 0.04-1.958-0.108-2.786-0.566-3.166-1.176-0.976-0.588-2.963 0.919-3.108 0.752-0.073 1.464-0.433 1.69-0.855 0.215-0.402 0.981-0.813 1.701-0.914 0.721-0.101 1.616-0.317 1.991-0.481 0.597-0.26 0.695 0.035 0.8 2.408 0.065 1.487 0.302 2.764 0.526 2.837 0.6 0.198-0.097-9.33-0.818-11.178-0.324-0.83-0.589-2.01-0.589-2.622 0-0.613-0.45-1.725-1-2.47s-1-1.55-1-1.789c0-1.288-5.413-4.606-7-4.29m51.535 10.079c-1.141 0.46-2.195 1.351-4.68 3.954-1.13 1.185-3.673 3.795-5.652 5.8-4.622 4.686-7.003 8.007-7.003 9.77 0 1.066 1.044-0.226 1.551-1.919 0.265-0.883 0.657-1.605 0.872-1.605 0.214 0 0.69-0.63 1.058-1.4 0.367-0.77 0.892-1.4 1.166-1.4 0.275 0 0.61-0.351 0.747-0.78 0.136-0.428 0.578-0.884 0.983-1.013 0.405-0.128 0.829-0.588 0.942-1.02 0.114-0.433 0.493-0.787 0.844-0.787 0.35 0 0.637-0.153 0.637-0.341 0-0.805 2.338-2.798 2.57-2.192 0.725 1.889 0.221 3.297-2.27 6.338-1.375 1.678-2.756 3.532-3.068 4.12-0.313 0.588-0.808 1.308-1.1 1.6-0.293 0.293-0.532 0.75-0.532 1.016s-0.516 0.678-1.147 0.916c-0.836 0.316-1.194 0.76-1.324 1.644-0.159 1.086-0.103 1.164 0.547 0.759 0.398-0.249 0.724-0.679 0.724-0.956s0.29-0.504 0.643-0.504c0.495 0 0.587 0.255 0.399 1.1l-0.245 1.1 0.664-1.2c0.364-0.66 0.995-1.435 1.401-1.723 0.406-0.287 0.738-0.753 0.738-1.035 0-0.283 0.45-0.719 1-0.969 0.55-0.251 1-0.725 1-1.054 0-1.642 3.328-2.23 4.635-0.819 0.521 0.562 1.373 1 1.946 1 0.866 0 1.019 0.181 1.019 1.2 0 0.933-0.178 1.2-0.8 1.2-0.444 0-0.8 0.267-0.8 0.6 0 0.33-0.36 0.96-0.8 1.4-0.861 0.861-1.046 1.6-0.4 1.6 0.22 0 0.4-0.145 0.4-0.322s0.605-0.982 1.344-1.789c4.78-5.218 8.993-14.004 8.058-16.802-0.089-0.268-0.358-1.25-0.597-2.183-0.778-3.041-2.918-4.334-5.47-3.304" fill="#f18d30"/>
<path d="m26.391 134.28c-0.482 1.273-1.06 3.485-1.284 4.915-0.223 1.43-0.729 3.77-1.123 5.2s-0.825 3.648-0.957 4.93c-0.133 1.281-0.504 2.959-0.826 3.729s-0.703 2.602-0.848 4.07c-0.144 1.469-0.581 3.571-0.971 4.671-0.389 1.1-0.821 3.105-0.959 4.456-0.139 1.351-0.606 3.462-1.038 4.69-0.432 1.229-0.785 2.935-0.785 3.792s-0.36 2.685-0.8 4.062-0.8 3.072-0.8 3.765-0.279 2.245-0.619 3.448c-0.341 1.203-0.864 3.627-1.162 5.387-0.297 1.76-0.829 3.988-1.18 4.95-0.352 0.963-0.639 2.404-0.639 3.202s-0.354 2.687-0.786 4.198-0.906 3.85-1.053 5.198c-0.147 1.349-0.495 2.902-0.773 3.452-0.278 0.551-0.626 2.081-0.773 3.4-0.147 1.32-0.606 3.57-1.02 5-2.111 7.295-1.888 7.493 8.086 7.218 9.121-0.252 8.607 0 9.058-4.453 0.19-1.87 0.54-3.765 0.778-4.211 0.239-0.445 0.637-2.417 0.886-4.382 0.248-1.965 0.697-4.382 0.997-5.372s0.669-2.954 0.82-4.365c0.15-1.411 0.613-3.75 1.027-5.199 0.414-1.448 0.753-3.343 0.753-4.209 0-0.867 0.353-2.847 0.784-4.401 0.432-1.555 0.967-4.176 1.19-5.826s0.68-3.984 1.016-5.187c0.335-1.203 0.618-2.913 0.628-3.8 9e-3 -0.887 0.285-2.333 0.612-3.213s0.768-3.178 0.98-5.107c0.211-1.928 0.653-4.148 0.981-4.933 0.328-0.784 0.715-2.896 0.86-4.693 0.318-3.94 0.632-4.891 1.708-5.172 1.156-0.303 1.18-0.041 1.637 18.305 0.219 8.8 0.658 19.24 0.976 23.2s0.702 12.6 0.854 19.2c0.36 15.591-0.933 13.8 9.959 13.8h9.005l1.022-1.619c0.563-0.891 1.205-2.106 1.428-2.7 0.224-0.595 1.206-2.708 2.183-4.696 0.977-1.989 1.777-3.76 1.777-3.937s0.36-0.779 0.8-1.339c0.44-0.559 0.8-1.328 0.8-1.709s0.337-1.121 0.748-1.646 0.873-1.527 1.026-2.226c0.152-0.7 0.536-1.487 0.852-1.749s0.574-0.673 0.574-0.913c0-0.239 0.822-2.152 1.826-4.251 1.004-2.098 2.293-4.805 2.865-6.015s1.191-2.47 1.375-2.8c0.185-0.33 0.526-1.05 0.758-1.6 0.233-0.55 1.222-2.604 2.199-4.565 0.977-1.96 1.777-3.781 1.777-4.046s0.349-0.925 0.775-1.467c0.427-0.542 0.904-1.511 1.061-2.154 0.157-0.642 0.606-1.581 0.997-2.087 0.392-0.505 0.826-1.438 0.965-2.072 0.139-0.635 0.5-1.359 0.802-1.609s0.67-1.028 0.819-1.728c0.148-0.699 0.497-1.542 0.775-1.872s0.717-1.261 0.976-2.068 0.732-1.684 1.05-1.949c0.319-0.265 0.58-0.721 0.58-1.015s0.877-2.387 1.949-4.651c1.072-2.265 2.056-4.432 2.187-4.817s0.529-0.7 0.883-0.7c0.781 0 0.469 4.464-0.473 6.764-0.307 0.75-0.756 2.64-0.996 4.2-0.241 1.56-0.665 3.286-0.943 3.836s-0.636 2.08-0.797 3.4c-0.16 1.32-0.633 3.3-1.05 4.4-0.418 1.1-0.762 2.54-0.765 3.2s-0.356 2.318-0.784 3.685c-0.429 1.367-0.901 3.437-1.05 4.6-0.148 1.163-0.495 2.565-0.771 3.115s-0.699 2.276-0.94 3.836c-0.24 1.56-0.687 3.45-0.991 4.2s-0.671 2.415-0.814 3.698c-0.143 1.284-0.532 2.86-0.864 3.502s-0.758 2.401-0.948 3.909c-0.189 1.507-0.56 3.145-0.824 3.639-0.265 0.494-0.645 2.055-0.845 3.47-0.201 1.415-0.724 3.641-1.164 4.947-1.888 5.604-1.629 5.78 8.332 5.64 9.028-0.126 8.679 0.011 8.983-3.542 0.127-1.484 0.5-3.337 0.829-4.116 0.329-0.78 0.719-2.58 0.867-4 0.148-1.421 0.599-3.573 1.002-4.783s0.84-3.263 0.971-4.562c0.13-1.299 0.593-3.444 1.027-4.766s0.797-3.139 0.807-4.038c9e-3 -0.899 0.281-2.354 0.603-3.234s0.772-2.95 0.999-4.6 0.659-3.81 0.959-4.8c0.495-1.632 1.254-5.164 2.279-10.6 0.207-1.1 0.663-3.17 1.013-4.6s0.871-4.04 1.158-5.8 0.802-4.184 1.146-5.387 0.625-2.665 0.625-3.248 0.36-2.188 0.8-3.565 0.8-3.206 0.8-4.065c0-0.858 0.349-2.595 0.775-3.859 0.425-1.265 0.883-3.284 1.017-4.488 0.134-1.203 0.53-3.21 0.88-4.458 1.062-3.785 2.03-3.53-13.387-3.53h-13.541l-0.772 0.9c-0.667 0.778-2.162 3.632-3.718 7.1-0.246 0.55-0.625 1.27-0.841 1.6-0.217 0.33-0.664 1.23-0.995 2s-0.769 1.67-0.973 2c-0.827 1.338-4.446 9.031-4.446 9.451 1e-3 0.248-0.24 0.651-0.534 0.895-0.295 0.245-0.745 1.145-1.002 2.002-0.257 0.856-0.736 1.78-1.065 2.054-0.329 0.273-0.598 0.81-0.598 1.193s-0.349 1.141-0.775 1.683c-0.427 0.542-0.904 1.511-1.061 2.154-0.157 0.642-0.606 1.581-0.997 2.087-0.392 0.505-0.828 1.45-0.971 2.1-0.143 0.649-0.418 1.181-0.612 1.181s-0.541 0.699-0.771 1.553c-0.231 0.855-0.683 1.773-1.005 2.041-0.323 0.267-0.699 1.087-0.837 1.82-0.138 0.734-0.592 1.643-1.011 2.022-0.418 0.378-0.76 0.93-0.76 1.226 0 0.452-1.157 2.946-2.475 5.338-0.303 0.55-0.561 1.11-1.568 3.4-0.193 0.44-0.504 1.07-0.69 1.4-1.197 2.121-2.467 4.788-2.467 5.183 0 0.256-0.609 1.263-1.354 2.238-1.773 2.322-1.834 2.078-1.841-7.362-5e-3 -7.072-0.335-13.448-1.244-24.059-0.236-2.75-0.548-11.066-0.695-18.48-0.202-10.232-0.391-13.606-0.786-14-0.4-0.401-3.576-0.546-13.865-0.635l-13.346-0.115-0.878 2.315m14.565-1.085c9.633 0 12.244 0.112 12.844 0.55 0.707 0.518 0.771 1.562 1.063 17.3 0.171 9.213 0.519 18.73 0.773 21.15s0.575 9.209 0.713 15.086c0.271 11.541 0.671 13.525 2.283 11.314 0.321-0.44 0.872-1.143 1.225-1.562 0.353-0.42 0.818-1.41 1.032-2.2 0.215-0.791 0.617-1.708 0.894-2.038s0.711-1.218 0.965-1.974 0.706-1.656 1.003-2c0.298-0.344 0.665-1.143 0.815-1.774 0.15-0.632 0.534-1.409 0.853-1.728s0.698-1.062 0.841-1.652c0.144-0.59 0.595-1.501 1.001-2.026s0.739-1.265 0.739-1.646 0.349-1.136 0.775-1.678c0.427-0.542 0.903-1.492 1.058-2.111 0.156-0.62 0.617-1.461 1.025-1.869s0.742-1.164 0.742-1.68 0.338-1.244 0.752-1.618c0.413-0.375 0.859-1.348 0.99-2.162 0.139-0.867 0.574-1.691 1.048-1.985 0.497-0.309 0.81-0.932 0.81-1.611 0-0.613 0.357-1.414 0.8-1.793 0.44-0.377 0.8-1.023 0.8-1.435 0-0.413 0.349-1.194 0.775-1.736 0.427-0.542 0.902-1.511 1.057-2.154 0.154-0.642 0.615-1.49 1.024-1.884 0.409-0.393 0.744-1.151 0.744-1.684s0.335-1.291 0.744-1.684c0.409-0.394 0.87-1.242 1.024-1.884 0.155-0.643 0.63-1.612 1.057-2.154 0.426-0.542 0.775-1.294 0.775-1.671 0-0.376 0.36-1.1 0.8-1.607s0.8-1.231 0.8-1.607c0-0.377 0.349-1.129 0.775-1.671 0.427-0.542 0.9-1.511 1.053-2.154 0.152-0.642 0.59-1.528 0.972-1.968s0.816-1.311 0.964-1.935c0.148-0.625 0.685-1.584 1.193-2.132l0.925-0.998 12.755 0.048c7.015 0.027 12.885 0.179 13.044 0.338 0.489 0.489-0.442 7.76-1.127 8.805-0.388 0.592-0.718 2.241-0.845 4.223-0.131 2.055-0.467 3.692-0.912 4.451-0.436 0.744-0.773 2.346-0.885 4.214-0.116 1.927-0.431 3.396-0.875 4.074-0.44 0.67-0.775 2.208-0.912 4.186-0.12 1.719-0.477 3.54-0.794 4.046s-0.759 2.557-0.982 4.558-0.651 4.016-0.95 4.48c-0.298 0.463-0.668 2.192-0.821 3.842s-0.546 3.63-0.873 4.4-0.737 2.865-0.912 4.656c-0.174 1.791-0.589 3.681-0.921 4.2-0.333 0.519-0.735 2.384-0.895 4.144-0.159 1.76-0.538 3.579-0.841 4.042-0.303 0.462-0.705 2.508-0.893 4.545-0.2 2.171-0.547 3.83-0.837 4.009-0.281 0.174-0.647 1.802-0.846 3.766-0.193 1.903-0.64 4.019-0.993 4.701-0.352 0.682-0.759 2.781-0.904 4.664l-0.263 3.424-1.292 0.334c-0.711 0.184-4.401 0.285-8.2 0.224l-6.908-0.109-0.125-1.733c-0.076-1.066 0.109-2.088 0.483-2.659 0.334-0.509 0.789-2.383 1.013-4.163 0.223-1.781 0.659-3.644 0.97-4.141 0.31-0.497 0.676-2.062 0.813-3.476 0.137-1.415 0.525-2.995 0.863-3.511s0.719-2.148 0.846-3.627c0.128-1.48 0.504-3.124 0.836-3.655 0.332-0.53 0.757-2.33 0.944-4 0.187-1.669 0.704-3.748 1.149-4.62 0.457-0.897 0.809-2.372 0.81-3.4 2e-3 -0.998 0.285-2.355 0.629-3.015s0.788-2.62 0.986-4.356c0.199-1.736 0.619-3.446 0.934-3.8 0.316-0.354 0.704-1.904 0.862-3.444 0.159-1.54 0.602-3.43 0.984-4.2s0.786-2.586 0.898-4.036c0.111-1.45 0.495-3.082 0.852-3.628 0.358-0.545 0.767-2.149 0.911-3.564 0.143-1.414 0.504-2.927 0.801-3.361 0.71-1.035 0.704-4.377-8e-3 -4.968-0.437-0.363-0.655-0.19-1.073 0.851-0.288 0.718-0.941 1.815-1.451 2.437s-0.927 1.545-0.927 2.051-0.261 1.136-0.58 1.401c-0.318 0.265-0.791 1.142-1.05 1.949s-0.697 1.738-0.973 2.068-0.634 1.05-0.795 1.6-0.613 1.54-1.004 2.2c-0.392 0.66-0.832 1.77-0.979 2.467-0.147 0.696-0.517 1.362-0.821 1.479-0.305 0.116-0.678 0.876-0.831 1.688-0.152 0.811-0.612 1.811-1.022 2.221s-0.745 1.197-0.745 1.749-0.36 1.312-0.8 1.689-0.8 1.114-0.8 1.638c0 0.525-0.45 1.488-1 2.142s-1 1.597-1 2.096-0.36 1.233-0.8 1.631-0.8 1.119-0.8 1.601-0.361 1.292-0.802 1.801c-0.44 0.508-0.987 1.616-1.215 2.461s-0.58 1.537-0.783 1.537-0.573 0.765-0.822 1.7-0.68 1.97-0.959 2.3c-0.278 0.33-0.713 1.218-0.967 1.974s-0.706 1.656-1.003 2c-0.298 0.344-0.667 1.152-0.82 1.794-0.153 0.643-0.627 1.612-1.054 2.154-0.426 0.542-0.775 1.384-0.775 1.87s-0.36 1.21-0.8 1.608-0.8 1.208-0.8 1.8-0.36 1.402-0.8 1.8-0.8 1.146-0.8 1.662-0.366 1.304-0.812 1.751c-0.447 0.446-0.918 1.337-1.046 1.979-0.129 0.642-0.573 1.474-0.988 1.85-0.415 0.375-0.754 1.069-0.754 1.542s-0.45 1.471-1 2.216-1 1.581-1 1.857c0 1.294-2.075 4.352-3.118 4.596-1.964 0.458-14.782 0.375-15.831-0.103-1.251-0.57-1.339-1.709-1.654-21.35-0.127-7.92-0.415-15.3-0.64-16.4-0.642-3.126-1.083-12.921-1.163-25.8-0.091-14.61-0.355-15.855-2.632-12.415-0.892 1.348-1.139 2.301-1.4 5.403-0.182 2.147-0.607 4.325-0.989 5.064-0.412 0.797-0.74 2.62-0.85 4.723-0.115 2.21-0.435 3.921-0.9 4.825-0.443 0.86-0.809 2.71-0.949 4.8-0.129 1.937-0.514 3.971-0.894 4.727-0.366 0.73-0.805 2.89-0.976 4.8-0.17 1.91-0.577 4.103-0.904 4.873s-0.702 2.882-0.834 4.694-0.501 3.702-0.819 4.2c-0.321 0.503-0.701 2.509-0.854 4.506-0.161 2.112-0.529 4.002-0.891 4.573-0.37 0.584-0.733 2.504-0.908 4.8-0.169 2.226-0.564 4.347-0.943 5.069s-0.76 2.772-0.911 4.902l-0.26 3.66-1.44 0.419c-0.836 0.244-4.29 0.369-8.24 0.298l-6.8-0.121-0.122-1.673c-0.077-1.062 0.158-2.232 0.644-3.2 0.458-0.914 0.862-2.812 1.007-4.727 0.153-2.026 0.54-3.781 1.056-4.785 0.556-1.081 0.815-2.355 0.815-4.011 0-1.564 0.225-2.747 0.632-3.329 0.374-0.533 0.769-2.357 0.966-4.45 0.183-1.951 0.605-3.969 0.939-4.486 0.334-0.516 0.733-2.289 0.888-3.939 0.154-1.65 0.543-3.517 0.863-4.149 0.321-0.632 0.732-2.73 0.913-4.661 0.182-1.936 0.604-3.933 0.941-4.451 0.336-0.516 0.74-2.379 0.896-4.139s0.539-3.593 0.852-4.074c0.312-0.48 0.666-2.28 0.785-4 0.122-1.748 0.487-3.555 0.829-4.099 0.335-0.535 0.765-2.503 0.955-4.373 0.189-1.87 0.616-3.814 0.947-4.32 0.332-0.506 0.716-2.318 0.855-4.027 0.138-1.709 0.563-3.737 0.944-4.507 0.392-0.793 0.774-2.737 0.882-4.486 0.105-1.697 0.377-3.317 0.604-3.6 0.227-0.282 0.714-1.565 1.082-2.849 0.512-1.784 0.814-2.279 1.281-2.1 0.336 0.129 6.052 0.235 12.702 0.235m106.32 24.588c-2.487 0.492-4.728 1.101-4.98 1.353-0.253 0.253-0.724 0.459-1.047 0.459-2.86 0-10.738 6.124-13.537 10.522-4.361 6.85-4.016 7.171 8.311 7.731l5.789 0.263 1.193-1.425c0.655-0.784 1.499-1.868 1.874-2.41 2.576-3.717 11.678-4.904 16.068-2.095 5.219 3.338 4.282 12.6-1.276 12.619-0.811 3e-3 -2.577 0.351-3.926 0.774-1.798 0.564-4.306 0.845-9.4 1.053-4.29 0.176-7.56 0.502-8.548 0.854-0.88 0.313-2.57 0.732-3.755 0.93-1.186 0.198-2.446 0.611-2.8 0.918-0.355 0.307-1.171 0.684-1.813 0.837-0.643 0.153-1.612 0.627-2.154 1.054-0.542 0.426-1.209 0.775-1.482 0.775-1.267 0-5.251 4.667-6.943 8.133l-1.724 3.533v6.158c0 9.689 3.009 14.602 11.471 18.731 3.474 1.696 12.799 1.745 16.42 0.087 1.252-0.573 2.497-1.042 2.767-1.042s0.906-0.36 1.413-0.8 1.062-0.8 1.233-0.8c0.17 0 0.548-0.227 0.838-0.505 0.291-0.278 1.069-0.849 1.729-1.268 0.66-0.42 1.435-1.092 1.723-1.495 1.198-1.679 2.632-0.713 3.07 2.068 0.583 3.696 0.333 3.6 9.367 3.6 9.302 0 9.134 0.068 8.623-3.507-0.781-5.473-0.06-15.865 1.447-20.835 0.423-1.398 0.77-3.068 0.77-3.71s0.36-2.192 0.8-3.444 0.8-2.963 0.8-3.803c0-0.839 0.355-2.579 0.788-3.865 0.433-1.287 0.981-4.384 1.217-6.884 0.235-2.5 0.519-4.906 0.63-5.348 0.367-1.467-0.945-8.164-1.818-9.273-0.449-0.572-0.817-1.214-0.817-1.428 0-1.025-4.429-4.615-7.6-6.159-7.031-3.425-15.328-4.215-24.721-2.356m13.771-0.043c0.852 0.3 2.93 0.674 4.616 0.831 2.264 0.211 3.248 0.487 3.762 1.055 0.383 0.423 1.083 0.769 1.556 0.769s1.471 0.45 2.216 1 1.484 1 1.64 1c0.516 0 4.36 3.916 4.36 4.442 0 0.283 0.467 1.189 1.037 2.012l1.037 1.496-0.137 7.725c-0.119 6.701-0.235 7.869-0.874 8.811-0.505 0.744-0.806 2.129-0.956 4.4-0.145 2.189-0.454 3.653-0.91 4.314-0.446 0.645-0.758 2.07-0.878 4.014-0.123 1.971-0.438 3.396-0.912 4.119-0.52 0.794-0.798 2.269-0.988 5.252-0.158 2.472-0.478 4.404-0.792 4.782-0.862 1.039-0.77 8.553 0.121 9.905 0.42 0.637 0.655 1.61 0.579 2.4l-0.127 1.328-8.107 0.108-8.106 0.109-0.394-1.035c-0.216-0.569-0.393-1.818-0.393-2.775 0-3.235-1.675-4.142-3.658-1.981-0.858 0.935-2.973 2.531-4.757 3.59-0.385 0.228-0.944 0.61-1.242 0.847-0.299 0.238-1.263 0.663-2.143 0.946-0.88 0.282-2.029 0.791-2.553 1.133-1.438 0.935-13.242 0.94-14.305 5e-3 -0.408-0.359-1.192-0.786-1.742-0.949-1.386-0.41-4.71-2.587-4.965-3.251-0.115-0.301-0.466-0.547-0.779-0.547s-0.681-0.445-0.817-0.989c-0.137-0.544-0.581-1.309-0.987-1.7-0.407-0.391-0.869-1.251-1.027-1.911s-0.588-1.533-0.956-1.941c-1.126-1.247-1.219-12.789-0.116-14.281 0.446-0.604 0.937-1.611 1.09-2.238 0.154-0.627 0.612-1.569 1.018-2.094s0.739-1.129 0.739-1.343c0-0.756 4.597-4.703 5.477-4.703 0.483 0 1.113-0.33 1.4-0.734 0.288-0.404 1.141-0.856 1.897-1.005 0.755-0.149 1.687-0.554 2.07-0.901s1.835-0.774 3.226-0.949c1.392-0.175 3.43-0.596 4.53-0.936 1.308-0.404 4.408-0.695 8.964-0.843 5.015-0.161 7.207-0.383 7.829-0.79 0.475-0.312 1.931-0.688 3.235-0.837 3.6-0.411 3.654-0.444 4.176-2.622 0.262-1.092 0.638-2.086 0.836-2.208 0.464-0.286 0.47-3.896 8e-3 -4.395-0.193-0.209-0.557-1.01-0.809-1.78-0.314-0.96-1.061-1.809-2.377-2.7l-1.918-1.3-5.372 7e-3c-5.193 7e-3 -5.425 0.044-6.972 1.103-2.268 1.553-3.8 2.959-3.8 3.487 0 2.719-5.18 3.238-14.206 1.422-3.853-0.775-4.857-1.163-3.899-1.506 0.273-0.097 0.864-0.927 1.313-1.845 0.45-0.917 1.071-2.118 1.381-2.668 0.876-1.556 7.493-7.859 8.611-8.203 0.55-0.169 1.429-0.642 1.954-1.052s1.425-0.746 2-0.746c0.575-1e-3 1.616-0.35 2.313-0.775 0.966-0.588 2.869-0.925 7.979-1.411 3.692-0.351 6.796-0.722 6.9-0.825 0.335-0.336 1.521-0.199 3.104 0.357m120.15 0.24c-1.87 0.383-3.94 0.991-4.6 1.353-0.66 0.361-1.442 0.658-1.738 0.66-0.523 2e-3 -3.224 1.399-6.062 3.135-1.904 1.165-6.924 5.635-7.711 6.867-0.351 0.55-1.218 1.81-1.925 2.8-6.588 9.219-9.767 28.63-5.963 36.4 0.377 0.77 0.812 1.926 0.967 2.568 0.155 0.643 0.63 1.612 1.057 2.154 0.426 0.542 0.775 1.195 0.775 1.451 0 1.135 8.796 10.223 9.9 10.228 0.165 1e-3 0.93 0.394 1.7 0.873 7.411 4.61 21.872 4.598 31.6-0.028 1.21-0.575 2.29-1.14 2.4-1.255s0.65-0.496 1.2-0.846c3.411-2.172 10.4-9.763 10.4-11.297 0-0.218 0.386-0.808 0.859-1.31 0.997-1.062 0.489-2.139-1.008-2.137-0.468 1e-3 -2.111-0.344-3.651-0.767-6.982-1.915-11.154-1.77-12.523 0.437-1.528 2.464-3.789 4.35-6.877 5.736-0.77 0.346-1.832 0.846-2.36 1.111-4.309 2.163-14.097-1.804-15.484-6.275-0.143-0.464-0.582-1.299-0.973-1.855-0.94-1.336-1.513-7.308-0.785-8.185 0.435-0.524 3.461-0.604 23.151-0.609 12.458-3e-3 22.885-0.155 23.171-0.336 2.832-1.796 2.078-23.413-0.92-26.39-0.149-0.147-0.522-0.87-0.83-1.605-0.843-2.012-4.343-6.22-6.69-8.041-1.144-0.888-2.274-1.774-2.511-1.969-0.237-0.196-0.867-0.488-1.4-0.65s-1.509-0.618-2.169-1.014c-3.122-1.873-14.53-2.527-21-1.204m90 6e-3c-3.263 0.672-9.466 3.44-11.173 4.985-0.38 0.343-0.83 0.624-1.001 0.624-0.321 0-2.293 1.495-3.531 2.677-1.694 1.617-1.807-0.011-0.444-6.343 0.299-1.386-1.436-1.628-10.451-1.456l-6.4 0.122-0.605 1.8c-0.333 0.99-0.736 2.004-0.895 2.253-0.159 0.25-0.468 1.78-0.687 3.4-0.218 1.621-0.662 3.847-0.986 4.947-0.323 1.1-0.861 3.44-1.195 5.2s-0.783 3.92-0.997 4.8-0.58 2.59-0.814 3.8c-1.352 7.003-1.758 8.842-2.452 11.108-0.423 1.38-0.769 3.112-0.769 3.848 0 0.737-0.36 2.467-0.8 3.844s-0.8 3.116-0.8 3.865c0 0.748-0.345 2.39-0.768 3.648-0.422 1.258-0.961 3.693-1.199 5.412s-0.633 3.501-0.879 3.96c-0.741 1.385-1.262 6.703-0.721 7.355 0.371 0.447 2.141 0.56 8.802 0.56 9.147 0 9.165-5e-3 9.165-2.525 0-0.537 0.292-1.674 0.649-2.526s0.811-2.84 1.008-4.418c0.197-1.577 0.609-3.469 0.916-4.204s0.756-2.758 0.997-4.496c0.242-1.739 0.6-3.357 0.796-3.596 0.195-0.239 0.563-1.875 0.817-3.635s0.707-4.01 1.005-5c0.299-0.99 0.654-2.735 0.788-3.877 0.135-1.142 0.538-2.762 0.895-3.6s0.786-2.153 0.953-2.923c3.368-15.541 26.875-24.102 26.908-9.8 5e-3 2.514-0.901 9.395-1.348 10.23-0.223 0.416-0.589 2.227-0.814 4.024-0.226 1.797-0.678 3.909-1.005 4.692s-0.697 2.51-0.823 3.839c-0.125 1.328-0.556 3.405-0.958 4.615-0.401 1.21-0.838 3.274-0.971 4.587-0.132 1.313-0.517 3.203-0.856 4.199-0.338 0.996-0.776 3.227-0.973 4.957-0.198 1.73-0.544 3.368-0.771 3.641-0.668 0.805-0.955 4.003-0.445 4.956 0.558 1.043 16.311 1.373 17.146 0.36 0.687-0.834 2.086-5.191 2.086-6.499 0-0.675 0.283-2.211 0.629-3.414s0.867-3.717 1.158-5.587 0.803-4.12 1.137-5c0.335-0.88 0.717-2.77 0.849-4.2s0.514-3.389 0.85-4.354 0.779-3.085 0.985-4.711 0.562-3.305 0.79-3.732c0.229-0.426 0.608-2.267 0.843-4.089 0.235-1.823 0.682-4.202 0.993-5.287 1.522-5.303 0.458-12.903-2.436-17.404-3.478-5.408-12.355-7.661-22.198-5.632m-69.836 1.509c0.629 0.495 1.416 0.9 1.749 0.9 1.536 0 6.772 4.258 9.101 7.4 0.652 0.88 1.411 1.838 1.686 2.129 0.275 0.29 0.5 0.847 0.5 1.238 0 0.39 0.341 1.018 0.758 1.395 0.423 0.383 0.879 1.516 1.031 2.562 0.151 1.032 0.574 2.326 0.942 2.876 1.167 1.744 0.976 16.815-0.241 19.1l-0.906 1.7h-22.764c-25.523 0-24.326-0.139-23.881 2.769 0.12 0.787 0.341 2.555 0.491 3.929 0.169 1.545 0.559 2.828 1.021 3.361 0.412 0.475 0.749 1.086 0.749 1.358 0 0.889 4.174 4.757 6.349 5.883 2.796 1.448 8.668 1.613 10.651 0.3 0.66-0.437 1.46-0.796 1.778-0.797 1.506-7e-3 6.132-3.903 7.01-5.903 0.63-1.433 0.395-1.382 5.947-1.302 2.559 0.038 3.941 0.255 5 0.789 0.806 0.406 2.505 0.858 3.775 1.005l2.311 0.268-1.011 1.201c-0.555 0.66-1.01 1.429-1.01 1.708s-0.36 0.833-0.8 1.231-0.8 0.9-0.8 1.116c0 0.468-7.422 7.884-7.89 7.884-0.178 0-0.987 0.45-1.796 1s-1.729 1-2.044 1-0.786 0.258-1.047 0.572c-0.261 0.315-1.406 0.773-2.544 1.017s-2.521 0.745-3.074 1.113c-1.523 1.015-17.555 1.029-18.673 0.017-0.414-0.374-1.558-0.807-2.542-0.96-0.985-0.154-2.299-0.702-2.921-1.219s-1.433-0.94-1.803-0.94c-0.371 0-0.898-0.36-1.173-0.8s-0.728-0.8-1.007-0.8c-0.278 0-1.762-1.347-3.296-2.993-3.954-4.241-4.59-5.046-4.59-5.808 0-0.371-0.338-0.981-0.752-1.355-0.413-0.375-0.872-1.433-1.019-2.352s-0.574-2.01-0.948-2.424c-1.019-1.126-1.034-21.39-0.017-22.526 0.366-0.408 0.792-1.599 0.947-2.647 0.154-1.047 0.62-2.336 1.035-2.863s0.754-1.173 0.754-1.436c0-0.603 2.093-4.549 2.511-4.733 0.171-0.075 0.667-0.795 1.104-1.6 1.221-2.251 1.628-2.781 3.848-5 2.227-2.228 2.748-2.627 5.037-3.867 0.825-0.447 1.5-0.969 1.5-1.161 0-0.191 0.481-0.469 1.068-0.616 0.588-0.148 1.512-0.617 2.054-1.044 0.542-0.426 1.462-0.775 2.043-0.775s1.497-0.308 2.035-0.685c2.366-1.657 21.708-1.832 23.764-0.215m85.906-0.044c0.511 0.469 1.311 0.967 1.777 1.108s1.169 0.612 1.562 1.046c0.393 0.435 0.957 0.79 1.253 0.79s0.538 0.235 0.538 0.522c0 0.288 0.45 1.133 1 1.878s1 1.661 1 2.034 0.356 1.463 0.791 2.422c1.08 2.38 1.082 7.241 4e-3 10.68-0.445 1.42-0.795 3.658-0.795 5.087 0 1.772-0.244 3.021-0.798 4.084-0.489 0.937-0.901 2.766-1.063 4.712-0.145 1.75-0.51 3.56-0.809 4.023-0.3 0.462-0.694 2.451-0.876 4.419-0.182 1.976-0.605 4.017-0.945 4.558-0.345 0.548-0.71 2.332-0.829 4.044-0.129 1.855-0.474 3.461-0.875 4.074-0.414 0.631-0.735 2.185-0.855 4.137-0.115 1.875-0.495 3.766-0.95 4.726-0.417 0.88-0.861 2.095-0.987 2.7l-0.228 1.1h-8.185-8.185l-0.26-1.037c-0.171-0.681 0.022-1.607 0.564-2.7 0.466-0.941 0.946-2.966 1.105-4.663 0.155-1.65 0.524-3.479 0.82-4.064 0.297-0.585 0.717-2.629 0.935-4.543 0.217-1.914 0.606-3.734 0.865-4.046 0.258-0.311 0.606-2.066 0.774-3.9 0.167-1.834 0.62-3.945 1.007-4.691 0.411-0.791 0.78-2.605 0.886-4.356 0.112-1.847 0.452-3.461 0.885-4.2 0.484-0.828 0.782-2.498 0.961-5.388 0.142-2.303 0.435-4.364 0.651-4.58 0.494-0.494 0.514-2.51 0.027-2.81-0.201-0.125-0.483-0.921-0.626-1.771-0.374-2.213-2.421-4.085-4.891-4.474-3.403-0.536-8.345 0.01-9.799 1.083-0.701 0.517-1.49 0.94-1.754 0.94s-0.583 0.27-0.71 0.6c-0.126 0.33-0.501 0.6-0.833 0.6-0.782 0-5.69 4.953-6.056 6.112-0.154 0.488-0.615 1.123-1.023 1.411-0.409 0.287-0.743 0.806-0.743 1.152 0 0.347-0.337 1.192-0.749 1.878s-0.871 2.052-1.019 3.037c-0.149 0.984-0.513 2.064-0.811 2.4-0.297 0.335-0.721 1.87-0.942 3.41s-0.681 3.52-1.023 4.4c-0.341 0.88-0.629 2.645-0.638 3.922-0.011 1.452-0.324 2.993-0.834 4.114-0.449 0.986-0.921 3.001-1.048 4.478s-0.476 3.08-0.776 3.561-0.721 2.42-0.936 4.308c-0.214 1.888-0.668 3.829-1.007 4.314s-0.62 1.696-0.623 2.692c-0.01 2.936 0.301 2.841-8.823 2.72l-8.171-0.109-0.122-2.136c-0.086-1.502 0.079-2.445 0.557-3.173 0.399-0.61 0.821-2.44 1.024-4.437 0.189-1.87 0.625-3.828 0.968-4.351 0.343-0.524 0.727-2.246 0.854-3.828 0.126-1.581 0.503-3.415 0.838-4.075s0.743-2.665 0.907-4.456c0.173-1.893 0.575-3.678 0.96-4.266 0.372-0.568 0.804-2.423 0.987-4.242 0.179-1.778 0.536-3.485 0.792-3.794 0.257-0.309 0.654-2.245 0.882-4.302 0.229-2.057 0.655-4.01 0.946-4.34 0.292-0.33 0.656-2.04 0.81-3.8s0.562-3.646 0.907-4.191c0.365-0.576 0.751-2.48 0.923-4.554 0.162-1.96 0.469-3.674 0.682-3.809 0.214-0.135 0.637-1.131 0.941-2.213l0.552-1.967 7.393 0.097c8.703 0.116 7.713-0.399 7.634 3.972-0.073 4.014 0.6 5.051 2.087 3.214 0.753-0.93 1.034-1.126 3.824-2.657 0.91-0.5 1.654-1.07 1.654-1.268s0.525-0.476 1.167-0.617 1.57-0.605 2.061-1.032c0.492-0.426 1.289-0.775 1.771-0.775s1.194-0.351 1.582-0.779c1.377-1.522 17.856-1.661 19.489-0.165m-100.07 10.139c-0.33 0.211-1.623 0.5-2.874 0.643-1.393 0.159-2.693 0.589-3.357 1.111-1.941 1.525-5.769 5.329-5.769 5.733 0 0.217-0.36 0.72-0.8 1.118s-0.8 1.032-0.8 1.408-0.399 1.191-0.886 1.81c-1.203 1.529-1.522 5.717-0.513 6.726 1.117 1.117 28.8 0.818 29.632-0.32 0.888-1.216 0.747-5.89-0.233-7.72-0.44-0.82-0.8-1.902-0.8-2.402s-0.36-1.218-0.8-1.595-0.801-0.87-0.802-1.096c-3e-3 -0.593-2.349-3.011-2.922-3.011-0.266 0-0.708-0.36-0.983-0.8-0.336-0.537-0.933-0.8-1.82-0.8-0.726 0-1.669-0.264-2.097-0.587-0.881-0.667-3.277-0.792-4.176-0.218m7.815 2.157c0.26 0.357 0.645 0.648 0.854 0.648 1.065 0 4.024 4.277 4.789 6.922 2.524 8.729 2.608 8.678-14.268 8.678h-13.61l-0.387-1.02c-0.593-1.557 0.602-5.307 2.925-9.185 0.814-1.358 4.393-4.778 6.082-5.812 3.205-1.961 12.237-2.114 13.615-0.231m-139.62 24.087c-1.54 0.31-4.284 0.727-6.097 0.928-2.121 0.234-3.779 0.662-4.647 1.199-0.743 0.459-1.869 0.838-2.503 0.843s-1.603 0.361-2.153 0.791-1.27 0.786-1.6 0.791c-1.677 0.026-5.2 5.145-5.2 7.556 0 1.631 1.803 5.635 2.542 5.647 0.189 3e-3 0.697 0.456 1.129 1.006 0.482 0.612 1.203 1.005 1.858 1.013 0.589 7e-3 1.42 0.277 1.847 0.6 0.989 0.747 3.925 0.754 6.011 0.015 0.887-0.315 2.075-0.67 2.639-0.789 0.565-0.12 1.447-0.582 1.961-1.028 0.515-0.446 1.084-0.811 1.266-0.811 1.295 0 5.771-6.013 6.178-8.301 0.146-0.824 0.591-2.039 0.988-2.699 0.964-1.604 1.223-6.476 0.373-7.014-0.737-0.465-1.12-0.444-4.592 0.253m4.52 1.796c0.066 0.79-0.171 2.23-0.527 3.2-0.357 0.971-0.82 2.457-1.031 3.303-2.889 11.599-19.92 16.165-23.703 6.354-1.415-3.67 1.416-9.692 4.556-9.692 0.406 0 0.848-0.178 0.982-0.395s1.27-0.691 2.523-1.053c1.254-0.362 2.635-0.904 3.069-1.205s1.44-0.547 2.235-0.547c1.799 0 9.204-1.095 9.516-1.407 0.81-0.81 2.265 0.072 2.38 1.442m48.785 15.235c-0.591 0.512-1.708 1.47-2.482 2.13l-1.406 1.2-9e-3 3.513c-9e-3 3.964 0.22 4.271 2.725 3.647 1.199-0.299 1.515-0.606 1.856-1.804 0.226-0.793 0.681-1.765 1.011-2.158 1.151-1.371 1.492-2.71 0.966-3.792-0.269-0.553-0.736-1.604-1.037-2.336l-0.548-1.329-1.076 0.929m-10.797 2.682c0.107 0.735 0.523 1.316 1.142 1.598 0.94 0.429 0.951 0.477 0.306 1.461-0.655 1-0.646 1.025 0.552 1.477 1.095 0.413 1.246 0.681 1.492 2.65 0.189 1.513 0.384 2.016 0.631 1.626 0.849-1.342-0.129-5.964-1.263-5.964-0.314 0-0.399-0.455-0.253-1.354 0.188-1.161 0.117-1.327-0.5-1.166-0.409 0.107-1.056-0.172-1.498-0.647l-0.779-0.836 0.17 1.155m15.882 3.708c-0.159 0.517-0.627 1.262-1.04 1.656-0.412 0.393-0.75 1.166-0.75 1.716 0 1.726 6.102 1.314 6.397-0.432 0.148-0.874 0.556-1.355 1.503-1.772 1.84-0.81 1.629-1.098-1-1.366-1.265-0.129-2.867-0.348-3.56-0.487-1.084-0.219-1.302-0.122-1.55 0.685" fill="#747474"/>
</g>
</svg>
