<svg id="svg" version="1.1" width="400" height="400" viewBox="0 0 400 400" xmlns="http://www.w3.org/2000/svg" xmlns:xlink="http://www.w3.org/1999/xlink" ><g id="svgg"><path id="path0" d="M13.197 119.500 C 13.195 119.555,13.191 150.202,13.190 187.606 L 13.186 255.611 68.745 255.603 C 122.933 255.595,124.328 255.613,125.252 256.362 L 126.200 257.130 126.200 268.665 C 126.200 275.892,126.349 280.310,126.600 280.494 C 127.078 280.845,197.655 280.907,198.567 280.557 C 199.125 280.343,199.200 278.893,199.200 268.371 C 199.200 256.957,199.234 256.410,199.977 256.012 C 200.508 255.728,231.059 255.598,296.640 255.602 C 349.378 255.604,392.590 255.543,392.667 255.466 C 392.849 255.284,392.850 119.917,392.668 119.735 C 392.512 119.578,13.202 119.344,13.197 119.500 M125.558 144.162 L 126.400 144.924 126.400 187.530 C 126.400 226.615,126.345 230.197,125.738 230.869 C 124.791 231.915,99.843 232.009,99.443 230.967 C 99.309 230.619,99.200 215.319,99.200 196.967 L 99.200 163.600 88.100 163.613 C 79.470 163.623,76.843 163.744,76.295 164.160 C 75.633 164.663,75.592 166.636,75.605 197.491 C 75.612 215.529,75.505 230.583,75.366 230.944 C 75.039 231.796,31.727 231.967,30.880 231.120 C 30.165 230.405,30.185 144.672,30.900 144.092 C 31.864 143.310,33.344 143.287,78.858 143.343 C 123.350 143.398,124.741 143.423,125.558 144.162 M225.609 144.000 C 226.025 144.659,226.171 229.890,225.757 230.967 C 225.540 231.533,223.229 231.600,203.774 231.600 L 182.033 231.600 181.917 243.815 C 181.818 254.150,181.708 256.088,181.200 256.409 C 180.398 256.915,144.801 256.915,144.000 256.408 C 142.901 255.714,142.907 145.093,144.005 143.995 C 145.102 142.898,224.915 142.903,225.609 144.000 M374.971 143.829 C 375.664 144.521,375.953 230.025,375.267 231.106 C 375.017 231.500,372.165 231.588,362.373 231.506 L 349.800 231.400 349.698 200.550 L 349.595 169.699 348.348 169.450 C 346.743 169.129,333.866 169.123,333.033 169.443 C 332.463 169.661,332.400 172.742,332.400 200.175 L 332.400 230.665 331.500 231.142 C 330.845 231.489,327.219 231.589,318.200 231.509 L 305.800 231.400 305.600 200.400 L 305.400 169.400 297.000 169.400 L 288.600 169.400 288.394 200.400 C 288.280 217.450,288.145 231.445,288.094 231.500 C 287.585 232.042,243.654 231.518,243.443 230.967 C 242.811 229.320,243.186 144.471,243.829 143.829 C 244.790 142.867,374.010 142.867,374.971 143.829 M189.000 169.428 C 188.571 169.613,188.582 210.524,189.012 211.219 C 189.152 211.445,193.709 211.600,200.216 211.600 L 211.185 211.600 211.403 210.700 C 211.523 210.205,211.572 200.710,211.511 189.600 L 211.400 169.400 200.400 169.328 C 194.350 169.289,189.220 169.334,189.000 169.428 " stroke="none" fill="#cc3a33" fill-rule="evenodd"></path><path id="path1" d="M0.000 200.000 L 0.000 400.000 200.000 400.000 L 400.000 400.000 400.000 200.000 L 400.000 0.000 200.000 0.000 L 0.000 0.000 0.000 200.000 M393.666 118.277 L 395.200 118.954 395.200 187.669 L 395.200 256.385 394.100 256.692 C 393.495 256.862,349.938 257.000,297.306 257.000 L 201.611 257.000 201.506 268.966 L 201.400 280.933 199.706 281.875 L 198.012 282.817 161.845 282.708 L 125.677 282.600 124.638 281.479 L 123.600 280.359 123.600 268.679 L 123.600 257.000 67.985 257.000 C 18.985 257.000,12.326 256.929,11.992 256.400 C 11.261 255.244,11.488 119.537,12.223 118.489 L 12.845 117.600 202.488 117.600 C 379.773 117.600,392.231 117.644,393.666 118.277 M32.800 187.600 L 32.800 230.400 53.400 230.400 L 74.000 230.400 74.000 196.429 C 74.000 166.079,74.067 162.390,74.629 161.829 C 75.777 160.680,99.295 160.906,100.384 162.075 C 100.833 162.557,101.206 163.232,101.213 163.575 C 101.221 163.919,101.215 179.095,101.200 197.300 L 101.174 230.400 112.387 230.400 L 123.600 230.400 123.600 187.600 L 123.600 144.800 78.200 144.800 L 32.800 144.800 32.800 187.600 M144.800 200.000 L 144.800 255.200 162.700 255.200 L 180.600 255.201 180.483 243.606 C 180.404 235.861,180.509 231.744,180.797 231.206 C 181.221 230.414,181.585 230.400,202.414 230.400 L 223.600 230.400 223.600 187.600 L 223.600 144.800 184.200 144.800 L 144.800 144.800 144.800 200.000 M244.400 187.600 L 244.400 230.400 265.200 230.400 L 286.000 230.400 286.006 200.100 C 286.009 183.435,286.148 169.586,286.314 169.325 C 287.545 167.389,307.554 167.402,307.614 169.339 C 307.622 169.593,307.616 183.435,307.600 200.100 L 307.572 230.400 318.786 230.400 L 330.000 230.400 330.006 199.900 C 330.010 181.407,330.161 169.164,330.391 168.800 C 330.987 167.856,349.622 167.679,350.552 168.609 C 351.138 169.195,351.200 172.172,351.200 199.829 L 351.200 230.400 362.800 230.400 L 374.400 230.400 374.400 187.600 L 374.400 144.800 309.400 144.800 L 244.400 144.800 244.400 187.600 M213.615 168.800 C 214.249 169.789,213.927 212.634,213.280 213.280 C 212.361 214.199,187.847 214.018,186.914 213.086 C 186.250 212.422,186.192 210.912,186.082 191.486 C 185.956 169.124,185.965 168.956,187.312 168.397 C 188.929 167.726,213.164 168.098,213.615 168.800 " stroke="none" fill="#fcfbfb" fill-rule="evenodd"></path><path id="path2" d="M12.780 119.380 C 12.263 119.897,12.263 255.468,12.780 255.787 C 12.989 255.917,38.061 256.015,68.496 256.006 C 112.476 255.993,123.972 256.093,124.513 256.495 C 125.124 256.948,125.205 258.224,125.297 268.795 C 125.397 280.240,125.424 280.593,126.200 280.716 C 126.652 280.788,126.826 280.703,126.600 280.522 C 126.350 280.321,126.200 275.874,126.200 268.665 L 126.200 257.130 125.252 256.362 C 124.328 255.613,122.933 255.595,68.745 255.603 L 13.186 255.611 13.186 187.605 L 13.186 119.598 202.858 119.597 C 307.177 119.596,392.592 119.658,392.668 119.735 C 392.850 119.917,392.849 255.284,392.667 255.466 C 392.590 255.543,349.378 255.604,296.640 255.602 C 231.059 255.598,200.508 255.728,199.977 256.012 C 199.234 256.410,199.200 256.957,199.200 268.406 L 199.200 280.385 198.100 280.627 C 196.354 281.012,196.134 281.135,197.126 281.168 C 199.657 281.255,199.600 281.543,199.600 268.576 L 199.600 256.780 200.635 256.387 C 201.302 256.133,235.496 255.997,297.086 256.003 C 367.874 256.011,392.644 255.896,393.051 255.558 C 393.868 254.879,393.873 120.324,393.056 119.646 C 392.353 119.063,13.363 118.797,12.780 119.380 M32.200 143.486 C 30.321 143.956,30.400 142.020,30.400 187.569 C 30.400 220.535,30.513 230.753,30.880 231.120 C 31.727 231.967,75.039 231.796,75.366 230.944 C 75.505 230.583,75.612 215.529,75.605 197.491 C 75.592 166.636,75.633 164.663,76.295 164.160 C 76.843 163.744,79.470 163.623,88.100 163.613 L 99.200 163.600 99.200 196.967 C 99.200 215.319,99.309 230.619,99.443 230.967 C 99.843 232.009,124.791 231.915,125.738 230.869 C 126.345 230.197,126.400 226.615,126.400 187.530 L 126.400 144.924 125.558 144.162 C 124.746 143.427,35.036 142.777,32.200 143.486 M144.005 143.995 C 142.907 145.093,142.901 255.714,144.000 256.408 C 144.801 256.915,180.398 256.915,181.200 256.409 C 181.708 256.088,181.818 254.150,181.917 243.815 L 182.033 231.600 203.774 231.600 C 223.229 231.600,225.540 231.533,225.757 230.967 C 226.171 229.890,226.025 144.659,225.609 144.000 C 224.915 142.903,145.102 142.898,144.005 143.995 M243.829 143.829 C 243.186 144.471,242.811 229.320,243.443 230.967 C 243.654 231.518,287.585 232.042,288.094 231.500 C 288.145 231.445,288.280 217.450,288.394 200.400 L 288.600 169.400 297.000 169.400 L 305.400 169.400 305.600 200.400 L 305.800 231.400 318.200 231.509 C 327.219 231.589,330.845 231.489,331.500 231.142 L 332.400 230.665 332.400 200.175 C 332.400 172.742,332.463 169.661,333.033 169.443 C 333.866 169.123,346.743 169.129,348.348 169.450 L 349.595 169.699 349.698 200.550 L 349.800 231.400 362.373 231.506 C 372.165 231.588,375.017 231.500,375.267 231.106 C 375.953 230.025,375.664 144.521,374.971 143.829 C 374.010 142.867,244.790 142.867,243.829 143.829 M124.181 144.064 L 125.200 144.528 125.200 187.621 C 125.200 226.548,125.139 230.738,124.567 230.957 C 123.289 231.448,100.588 231.228,100.080 230.720 C 99.714 230.354,99.600 222.354,99.600 197.153 C 99.600 178.955,99.491 163.781,99.357 163.433 C 99.063 162.666,77.376 162.464,75.974 163.214 C 75.218 163.618,75.200 164.415,75.200 196.934 C 75.200 222.305,75.086 230.354,74.720 230.720 C 74.211 231.229,33.132 231.456,31.833 230.957 C 31.261 230.738,31.200 226.547,31.200 187.618 L 31.200 144.522 32.100 144.088 C 33.426 143.449,122.780 143.426,124.181 144.064 M224.939 144.349 C 225.848 145.104,225.970 229.995,225.063 230.747 C 224.687 231.060,218.129 231.224,203.163 231.296 L 181.800 231.400 181.600 243.400 C 181.490 250.000,181.254 255.625,181.076 255.900 C 180.516 256.766,145.296 256.611,144.331 255.738 C 143.244 254.754,143.183 145.524,144.269 144.324 C 145.161 143.338,223.750 143.363,224.939 144.349 M374.753 144.143 C 375.082 144.540,375.176 156.285,375.102 187.843 L 375.000 231.000 363.048 231.106 C 354.563 231.181,350.937 231.080,350.548 230.757 C 350.093 230.379,350.000 225.171,350.000 199.965 C 350.000 170.381,349.981 169.618,349.226 169.214 C 348.194 168.662,333.533 168.665,332.319 169.219 L 331.400 169.637 331.507 200.001 C 331.613 229.911,331.603 230.370,330.822 230.788 C 330.302 231.067,325.943 231.176,318.115 231.106 L 306.200 231.000 306.097 200.438 C 306.024 178.406,305.869 169.724,305.542 169.330 C 305.180 168.894,303.390 168.806,296.645 168.892 L 288.200 169.000 288.097 199.562 C 288.024 221.447,287.867 230.278,287.546 230.665 C 287.176 231.111,283.256 231.188,265.448 231.103 L 243.800 231.000 243.698 187.688 L 243.596 144.376 244.498 144.013 C 246.104 143.368,374.215 143.496,374.753 144.143 M188.700 169.232 C 187.810 169.751,187.597 210.637,188.480 211.520 C 189.165 212.205,210.835 212.205,211.520 211.520 C 212.212 210.828,212.212 169.972,211.520 169.280 C 210.902 168.662,189.756 168.617,188.700 169.232 M211.511 189.600 C 211.572 200.710,211.523 210.205,211.403 210.700 L 211.185 211.600 200.216 211.600 C 193.709 211.600,189.152 211.445,189.012 211.219 C 188.582 210.524,188.571 169.613,189.000 169.428 C 189.220 169.334,194.350 169.289,200.400 169.328 L 211.400 169.400 211.511 189.600 " stroke="none" fill="#dc8484" fill-rule="evenodd"></path><path id="path3" d="M12.629 119.029 C 12.062 119.595,12.000 126.367,12.000 187.600 C 12.000 262.253,11.819 256.873,14.329 256.746 L 15.400 256.691 14.400 256.507 C 13.850 256.406,13.175 256.139,12.900 255.913 C 12.130 255.280,12.170 119.889,12.940 119.249 C 13.338 118.920,63.708 118.774,203.040 118.700 L 392.600 118.599 202.929 118.500 C 30.949 118.409,13.199 118.459,12.629 119.029 M393.120 119.280 C 393.805 119.965,393.820 255.417,393.135 255.840 C 392.879 255.998,392.114 256.276,391.435 256.457 C 390.305 256.758,390.330 256.771,391.736 256.612 C 392.580 256.517,393.525 256.228,393.836 255.970 C 394.317 255.571,394.400 245.565,394.400 187.631 C 394.400 118.697,394.402 118.800,393.040 118.800 C 392.818 118.800,392.853 119.013,393.120 119.280 M31.900 144.432 C 30.749 145.102,30.822 230.169,31.974 230.786 C 32.892 231.277,73.525 231.362,74.293 230.874 C 74.676 230.631,74.810 223.092,74.893 197.100 C 74.979 170.313,75.104 163.536,75.519 163.120 C 76.573 162.065,98.437 162.158,99.297 163.221 C 99.955 164.033,100.000 166.217,100.000 197.402 C 100.000 227.410,100.063 230.738,100.633 230.957 C 101.755 231.388,123.596 231.231,124.426 230.786 C 125.642 230.135,125.642 145.065,124.426 144.414 C 123.361 143.844,32.880 143.861,31.900 144.432 M144.448 144.543 C 144.117 144.941,144.024 159.863,144.099 200.443 L 144.200 255.800 162.376 255.904 C 172.373 255.961,180.689 255.871,180.856 255.704 C 181.023 255.537,172.889 255.449,162.779 255.508 L 144.397 255.616 144.499 200.108 L 144.600 144.600 183.800 144.490 C 205.360 144.430,223.405 144.478,223.900 144.598 L 224.800 144.815 224.800 187.574 C 224.800 221.407,224.696 230.375,224.300 230.535 C 224.001 230.656,224.082 230.750,224.500 230.768 C 225.163 230.798,225.200 228.490,225.200 187.647 L 225.200 144.493 224.300 144.252 C 222.226 143.696,144.917 143.978,144.448 144.543 M244.080 144.480 C 243.383 145.177,243.383 230.023,244.080 230.720 C 244.444 231.084,249.657 231.177,265.580 231.105 L 286.600 231.011 265.400 230.805 L 244.200 230.600 244.200 187.600 L 244.200 144.600 309.400 144.600 L 374.600 144.600 374.600 187.600 L 374.600 230.600 362.538 230.600 C 355.904 230.600,350.560 230.735,350.662 230.900 C 350.993 231.435,374.178 231.262,374.720 230.720 C 375.417 230.023,375.417 145.177,374.720 144.480 C 374.022 143.782,244.778 143.782,244.080 144.480 M124.200 187.600 L 124.200 230.600 112.400 230.600 L 100.600 230.600 100.400 196.961 C 100.235 169.258,100.103 163.206,99.651 162.661 C 99.163 162.074,97.796 162.000,87.400 162.000 C 77.004 162.000,75.637 162.074,75.149 162.661 C 74.697 163.206,74.565 169.258,74.400 196.961 L 74.200 230.600 53.200 230.600 L 32.200 230.600 32.097 188.000 C 32.040 164.570,32.080 145.174,32.185 144.898 C 32.337 144.499,41.770 144.417,78.288 144.498 L 124.200 144.600 124.200 187.600 M187.900 168.832 C 187.247 169.212,187.200 170.662,187.206 190.320 C 187.212 212.032,187.208 211.969,188.674 212.740 C 189.898 213.385,210.115 213.380,211.326 212.735 C 213.207 211.733,213.174 212.135,213.187 190.323 L 213.200 169.645 212.311 169.023 C 211.242 168.274,189.154 168.102,187.900 168.832 M288.000 168.791 C 287.348 169.203,286.653 230.800,287.300 230.800 C 287.465 230.800,287.600 217.066,287.600 200.280 C 287.600 177.076,287.715 169.645,288.080 169.280 C 288.760 168.600,305.240 168.600,305.920 169.280 C 306.241 169.601,306.400 169.615,306.400 169.323 C 306.400 168.362,289.453 167.873,288.000 168.791 M331.679 168.906 L 330.758 169.400 330.679 200.062 C 330.636 216.926,330.735 230.640,330.900 230.538 C 331.065 230.436,331.200 216.690,331.200 199.990 C 331.200 170.382,331.219 169.618,331.974 169.214 C 333.119 168.601,349.301 168.661,349.920 169.280 C 350.241 169.601,350.400 169.615,350.400 169.323 C 350.400 168.262,333.577 167.888,331.679 168.906 M211.920 169.280 C 212.768 170.128,212.594 210.723,211.738 211.669 C 210.603 212.922,189.110 212.779,188.223 211.511 C 187.403 210.341,187.267 170.093,188.080 169.280 C 188.765 168.595,211.235 168.595,211.920 169.280 M306.097 201.686 C 306.002 229.690,306.018 230.382,306.774 230.786 C 307.266 231.050,311.660 231.168,318.874 231.112 L 330.200 231.024 318.400 230.797 C 311.910 230.672,306.556 230.531,306.503 230.485 C 306.449 230.438,306.358 217.485,306.300 201.700 L 306.195 173.000 306.097 201.686 M181.467 231.067 C 180.960 231.574,181.201 232.097,181.737 231.653 C 182.112 231.341,188.519 231.175,203.037 231.100 L 223.800 230.993 202.767 230.896 C 191.198 230.843,181.613 230.920,181.467 231.067 M123.900 256.665 C 124.284 256.820,124.400 259.590,124.400 268.611 C 124.400 280.293,124.405 280.358,125.289 280.977 C 126.877 282.090,198.723 281.904,199.925 280.784 C 200.786 279.982,200.800 279.785,200.800 268.418 C 200.800 259.564,200.917 256.814,201.300 256.640 C 201.575 256.516,201.440 256.458,201.000 256.512 C 200.223 256.608,200.197 256.950,200.094 268.494 C 199.993 279.806,199.951 280.398,199.209 280.795 C 198.337 281.262,125.865 281.199,125.398 280.731 C 125.250 280.584,125.152 275.529,125.180 269.499 C 125.231 258.686,125.005 256.364,123.910 256.432 C 123.509 256.456,123.507 256.506,123.900 256.665 " stroke="none" fill="#e4aca4" fill-rule="evenodd"></path><path id="path4" d="M12.223 118.489 C 11.488 119.537,11.261 255.244,11.992 256.400 C 12.326 256.929,18.985 257.000,67.985 257.000 L 123.600 257.000 123.600 268.679 L 123.600 280.359 124.638 281.479 L 125.677 282.600 161.845 282.708 L 198.012 282.817 199.706 281.875 L 201.400 280.933 201.506 268.966 L 201.611 257.000 297.306 257.000 C 349.938 257.000,393.495 256.862,394.100 256.692 L 395.200 256.385 395.200 187.669 L 395.200 118.954 393.666 118.277 C 392.231 117.644,379.773 117.600,202.488 117.600 L 12.845 117.600 12.223 118.489 M393.200 118.918 L 394.200 119.424 394.301 187.462 C 394.387 245.020,394.317 255.571,393.848 255.960 C 393.435 256.303,369.126 256.416,297.692 256.405 C 245.111 256.397,201.800 256.502,201.445 256.638 C 200.872 256.858,200.800 258.178,200.800 268.427 C 200.800 279.785,200.786 279.982,199.925 280.784 C 198.723 281.904,126.877 282.090,125.289 280.977 C 124.405 280.358,124.400 280.293,124.400 268.620 C 124.400 258.131,124.331 256.859,123.746 256.635 C 123.387 256.497,98.247 256.395,67.880 256.408 C 23.185 256.428,12.605 256.335,12.340 255.916 C 11.647 254.824,11.932 119.725,12.629 119.029 C 13.484 118.173,391.511 118.063,393.200 118.918 M32.185 144.898 C 32.080 145.174,32.040 164.570,32.097 188.000 L 32.200 230.600 53.200 230.600 L 74.200 230.600 74.400 196.961 C 74.565 169.258,74.697 163.206,75.149 162.661 C 75.637 162.074,77.004 162.000,87.400 162.000 C 97.796 162.000,99.163 162.074,99.651 162.661 C 100.103 163.206,100.235 169.258,100.400 196.961 L 100.600 230.600 112.400 230.600 L 124.200 230.600 124.200 187.600 L 124.200 144.600 78.288 144.498 C 41.770 144.417,32.337 144.499,32.185 144.898 M144.667 144.667 C 144.520 144.813,144.400 169.835,144.400 200.271 L 144.400 255.608 162.700 255.504 L 181.000 255.400 181.200 243.200 L 181.400 231.000 203.000 230.791 C 214.880 230.677,224.645 230.542,224.700 230.491 C 225.247 229.992,224.719 144.854,224.167 144.643 C 223.300 144.310,145.000 144.334,144.667 144.667 M244.185 144.899 C 244.080 145.174,244.040 164.570,244.097 188.000 L 244.200 230.600 265.600 230.600 L 287.000 230.600 287.200 199.885 C 287.374 173.166,287.478 169.121,288.000 168.791 C 288.651 168.380,304.731 168.245,305.767 168.643 C 306.337 168.861,306.400 171.965,306.400 199.635 L 306.400 230.385 307.300 230.605 C 307.795 230.725,313.240 230.774,319.400 230.712 L 330.600 230.600 330.677 200.000 L 330.754 169.400 331.677 168.906 C 332.726 168.344,349.043 168.185,349.897 168.728 C 350.286 168.975,350.418 175.809,350.497 199.822 L 350.600 230.600 362.600 230.600 L 374.600 230.600 374.600 187.600 L 374.600 144.600 309.488 144.499 C 257.609 144.418,244.337 144.499,244.185 144.899 M123.600 187.600 L 123.600 230.400 112.387 230.400 L 101.174 230.400 101.200 197.300 C 101.215 179.095,101.221 163.919,101.213 163.575 C 101.206 163.232,100.833 162.557,100.384 162.075 C 99.295 160.906,75.777 160.680,74.629 161.829 C 74.067 162.390,74.000 166.079,74.000 196.429 L 74.000 230.400 53.400 230.400 L 32.800 230.400 32.800 187.600 L 32.800 144.800 78.200 144.800 L 123.600 144.800 123.600 187.600 M223.600 187.600 L 223.600 230.400 202.414 230.400 C 181.585 230.400,181.221 230.414,180.797 231.206 C 180.509 231.744,180.404 235.861,180.483 243.606 L 180.600 255.201 162.700 255.200 L 144.800 255.200 144.800 200.000 L 144.800 144.800 184.200 144.800 L 223.600 144.800 223.600 187.600 M374.400 187.600 L 374.400 230.400 362.800 230.400 L 351.200 230.400 351.200 199.829 C 351.200 172.172,351.138 169.195,350.552 168.609 C 349.622 167.679,330.987 167.856,330.391 168.800 C 330.161 169.164,330.010 181.407,330.006 199.900 L 330.000 230.400 318.786 230.400 L 307.572 230.400 307.600 200.100 C 307.616 183.435,307.622 169.593,307.614 169.339 C 307.554 167.402,287.545 167.389,286.314 169.325 C 286.148 169.586,286.009 183.435,286.006 200.100 L 286.000 230.400 265.200 230.400 L 244.400 230.400 244.400 187.600 L 244.400 144.800 309.400 144.800 L 374.400 144.800 374.400 187.600 M187.312 168.397 C 185.965 168.956,185.956 169.124,186.082 191.486 C 186.192 210.912,186.250 212.422,186.914 213.086 C 187.847 214.018,212.361 214.199,213.280 213.280 C 213.927 212.634,214.249 169.789,213.615 168.800 C 213.164 168.098,188.929 167.726,187.312 168.397 M212.311 169.023 L 213.200 169.645 213.187 190.323 C 213.174 212.135,213.207 211.733,211.326 212.735 C 210.115 213.380,189.898 213.385,188.674 212.740 C 187.208 211.969,187.212 212.032,187.206 190.320 C 187.200 170.662,187.247 169.212,187.900 168.832 C 189.154 168.102,211.242 168.274,212.311 169.023 " stroke="none" fill="#f4e4e4" fill-rule="evenodd"></path><path id="path5" d="M108.900 119.100 C 160.545 119.156,245.055 119.156,296.700 119.100 C 348.345 119.044,306.090 118.998,202.800 118.998 C 99.510 118.998,57.255 119.044,108.900 119.100 M55.531 143.900 C 68.143 143.959,88.663 143.959,101.131 143.900 C 113.599 143.841,103.280 143.793,78.200 143.793 C 53.120 143.793,42.919 143.841,55.531 143.900 M144.261 144.333 C 143.648 145.010,143.605 149.325,143.700 200.233 L 143.803 255.400 143.901 200.149 C 143.983 154.414,144.093 144.821,144.539 144.451 C 144.925 144.130,156.113 143.975,184.239 143.900 L 223.400 143.796 184.162 143.698 C 146.557 143.604,144.896 143.631,144.261 144.333 M309.560 143.900 C 360.390 143.981,374.257 144.109,374.760 144.501 C 375.327 144.943,375.337 144.920,374.851 144.300 C 374.332 143.638,370.815 143.605,309.651 143.699 L 245.000 143.798 309.560 143.900 M225.393 187.600 C 225.393 211.250,225.441 220.925,225.500 209.100 C 225.559 197.275,225.559 177.925,225.500 166.100 C 225.441 154.275,225.393 163.950,225.393 187.600 M82.500 162.699 C 85.525 162.767,90.475 162.767,93.500 162.699 C 96.525 162.631,94.050 162.575,88.000 162.575 C 81.950 162.575,79.475 162.631,82.500 162.699 M99.791 197.200 C 99.791 215.570,99.840 223.085,99.900 213.900 C 99.960 204.715,99.960 189.685,99.900 180.500 C 99.840 171.315,99.791 178.830,99.791 197.200 M74.991 197.400 C 74.991 215.660,75.040 223.188,75.100 214.130 C 75.160 205.071,75.160 190.131,75.100 180.930 C 75.040 171.728,74.991 179.140,74.991 197.400 M188.045 169.345 C 187.718 169.739,187.622 175.594,187.700 190.445 L 187.807 211.000 187.904 190.320 C 187.993 171.106,188.050 169.611,188.700 169.232 C 189.085 169.008,189.197 168.819,188.949 168.812 C 188.701 168.805,188.294 169.045,188.045 169.345 M211.500 169.199 C 212.210 169.995,212.229 210.811,211.520 211.520 C 210.819 212.221,189.187 212.202,188.399 211.500 C 187.922 211.075,187.918 211.104,188.368 211.700 C 189.198 212.797,210.743 212.768,211.738 211.669 C 212.783 210.513,212.747 169.961,211.700 169.168 C 211.104 168.718,211.075 168.722,211.500 169.199 M305.472 169.208 C 305.732 169.542,306.016 170.622,306.103 171.608 L 306.260 173.400 306.330 171.549 C 306.381 170.202,306.209 169.548,305.700 169.149 C 305.088 168.669,305.060 168.677,305.472 169.208 M349.300 169.232 C 349.956 169.614,350.006 171.573,350.097 200.120 L 350.195 230.600 350.300 200.244 C 350.406 169.711,350.369 168.777,349.051 168.812 C 348.803 168.819,348.915 169.008,349.300 169.232 M287.790 200.000 C 287.790 216.830,287.840 223.715,287.900 215.300 C 287.960 206.885,287.960 193.115,287.900 184.700 C 287.840 176.285,287.790 183.170,287.790 200.000 M331.200 200.480 C 331.090 217.134,331.136 230.624,331.303 230.458 C 331.469 230.291,331.559 216.665,331.502 200.177 L 331.400 170.200 331.200 200.480 M181.377 243.600 C 181.377 250.090,181.432 252.745,181.499 249.500 C 181.566 246.255,181.566 240.945,181.499 237.700 C 181.432 234.455,181.377 237.110,181.377 243.600 M162.800 256.000 L 144.600 256.212 162.676 256.306 C 174.398 256.367,180.840 256.259,181.000 256.000 C 181.136 255.780,181.192 255.642,181.124 255.694 C 181.056 255.746,172.810 255.883,162.800 256.000 M41.700 256.300 C 56.825 256.358,81.575 256.358,96.700 256.300 C 111.825 256.242,99.450 256.194,69.200 256.194 C 38.950 256.194,26.575 256.242,41.700 256.300 M248.732 256.300 C 274.985 256.357,317.825 256.357,343.932 256.300 C 370.039 256.243,348.560 256.197,296.200 256.197 C 243.840 256.197,222.479 256.243,248.732 256.300 M199.792 256.900 C 199.482 257.745,199.381 280.780,199.688 280.472 C 199.951 280.209,200.346 256.399,200.087 256.400 C 200.026 256.400,199.893 256.625,199.792 256.900 M145.730 281.100 C 155.151 281.160,170.451 281.160,179.730 281.100 C 189.008 281.040,181.300 280.991,162.600 280.991 C 143.900 280.991,136.308 281.040,145.730 281.100 " stroke="none" fill="#e09494" fill-rule="evenodd"></path></g></svg>