<?xml version="1.0" encoding="UTF-8"?>
<svg version="1.1" viewBox="0 0 400 400" xmlns="http://www.w3.org/2000/svg">
<g fill-rule="evenodd">
<path d="m13.197 119.5c-2e-3 0.055-6e-3 30.702-7e-3 68.106l-4e-3 68.005 55.559-8e-3c54.188-8e-3 55.583 0.01 56.507 0.759l0.948 0.768v11.535c0 7.227 0.149 11.645 0.4 11.829 0.478 0.351 71.055 0.413 71.967 0.063 0.558-0.214 0.633-1.664 0.633-12.186 0-11.414 0.034-11.961 0.777-12.359 0.531-0.284 31.082-0.414 96.663-0.41 52.738 2e-3 95.95-0.059 96.027-0.136 0.182-0.182 0.183-135.55 1e-3 -135.73-0.156-0.157-379.47-0.391-379.47-0.235m112.36 24.662l0.842 0.762v42.606c0 39.085-0.055 42.667-0.662 43.339-0.947 1.046-25.895 1.14-26.295 0.098-0.134-0.348-0.243-15.648-0.243-34v-33.367l-11.1 0.013c-8.63 0.01-11.257 0.131-11.805 0.547-0.662 0.503-0.703 2.476-0.69 33.331 7e-3 18.038-0.1 33.092-0.239 33.453-0.327 0.852-43.639 1.023-44.486 0.176-0.715-0.715-0.695-86.448 0.02-87.028 0.964-0.782 2.444-0.805 47.958-0.749 44.492 0.055 45.883 0.08 46.7 0.819m100.05-0.162c0.416 0.659 0.562 85.89 0.148 86.967-0.217 0.566-2.528 0.633-21.983 0.633h-21.741l-0.116 12.215c-0.099 10.335-0.209 12.273-0.717 12.594-0.802 0.506-36.399 0.506-37.2-1e-3 -1.099-0.694-1.093-111.32 5e-3 -112.41 1.097-1.097 80.91-1.092 81.604 5e-3m149.36-0.171c0.693 0.692 0.982 86.196 0.296 87.277-0.25 0.394-3.102 0.482-12.894 0.4l-12.573-0.106-0.102-30.85-0.103-30.851-1.247-0.249c-1.605-0.321-14.482-0.327-15.315-7e-3 -0.57 0.218-0.633 3.299-0.633 30.732v30.49l-0.9 0.477c-0.655 0.347-4.281 0.447-13.3 0.367l-12.4-0.109-0.2-31-0.2-31h-8.4-8.4l-0.206 31c-0.114 17.05-0.249 31.045-0.3 31.1-0.509 0.542-44.44 0.018-44.651-0.533-0.632-1.647-0.257-86.496 0.386-87.138 0.961-0.962 130.18-0.962 131.14 0m-185.97 25.599c-0.429 0.185-0.418 41.096 0.012 41.791 0.14 0.226 4.697 0.381 11.204 0.381h10.969l0.218-0.9c0.12-0.495 0.169-9.99 0.108-21.1l-0.111-20.2-11-0.072c-6.05-0.039-11.18 6e-3 -11.4 0.1" fill="#cc3a33"/>
<path d="m0 200v200h200 200v-200-200h-200-200v200m393.67-81.723l1.534 0.677v68.715 68.716l-1.1 0.307c-0.605 0.17-44.162 0.308-96.794 0.308h-95.695l-0.105 11.966-0.106 11.967-1.694 0.942-1.694 0.942-36.167-0.109-36.168-0.108-1.039-1.121-1.038-1.12v-11.68-11.679h-55.615c-49 0-55.659-0.071-55.993-0.6-0.731-1.156-0.504-136.86 0.231-137.91l0.622-0.889h189.64c177.28 0 189.74 0.044 191.18 0.677m-360.87 69.323v42.8h20.6 20.6v-33.971c0-30.35 0.067-34.039 0.629-34.6 1.148-1.149 24.666-0.923 25.755 0.246 0.449 0.482 0.822 1.157 0.829 1.5 8e-3 0.344 2e-3 15.52-0.013 33.725l-0.026 33.1h11.213 11.213v-42.8-42.8h-45.4-45.4v42.8m112 12.4v55.2h17.9l17.9 1e-3 -0.117-11.595c-0.079-7.745 0.026-11.862 0.314-12.4 0.424-0.792 0.788-0.806 21.617-0.806h21.186v-42.8-42.8h-39.4-39.4v55.2m99.6-12.4v42.8h20.8 20.8l6e-3 -30.3c3e-3 -16.665 0.142-30.514 0.308-30.775 1.231-1.936 21.24-1.923 21.3 0.014 8e-3 0.254 2e-3 14.096-0.014 30.761l-0.028 30.3h11.214 11.214l6e-3 -30.5c4e-3 -18.493 0.155-30.736 0.385-31.1 0.596-0.944 19.231-1.121 20.161-0.191 0.586 0.586 0.648 3.563 0.648 31.22v30.571h11.6 11.6v-42.8-42.8h-65-65v42.8m-30.785-18.8c0.634 0.989 0.312 43.834-0.335 44.48-0.919 0.919-25.433 0.738-26.366-0.194-0.664-0.664-0.722-2.174-0.832-21.6-0.126-22.362-0.117-22.53 1.23-23.089 1.617-0.671 25.852-0.299 26.303 0.403" fill="#fcfbfb"/>
<path d="m12.78 119.38c-0.517 0.517-0.517 136.09 0 136.41 0.209 0.13 25.281 0.228 55.716 0.219 43.98-0.013 55.476 0.087 56.017 0.489 0.611 0.453 0.692 1.729 0.784 12.3 0.1 11.445 0.127 11.798 0.903 11.921 0.452 0.072 0.626-0.013 0.4-0.194-0.25-0.201-0.4-4.648-0.4-11.857v-11.535l-0.948-0.768c-0.924-0.749-2.319-0.767-56.507-0.759l-55.559 8e-3v-68.006-68.007l189.67-1e-3c104.32-1e-3 189.73 0.061 189.81 0.138 0.182 0.182 0.181 135.55-1e-3 135.73-0.077 0.077-43.289 0.138-96.027 0.136-65.581-4e-3 -96.132 0.126-96.663 0.41-0.743 0.398-0.777 0.945-0.777 12.394v11.979l-1.1 0.242c-1.746 0.385-1.966 0.508-0.974 0.541 2.531 0.087 2.474 0.375 2.474-12.592v-11.796l1.035-0.393c0.667-0.254 34.861-0.39 96.451-0.384 70.788 8e-3 95.558-0.107 95.965-0.445 0.817-0.679 0.822-135.23 5e-3 -135.91-0.703-0.583-379.69-0.849-380.28-0.266m19.42 24.106c-1.879 0.47-1.8-1.466-1.8 44.083 0 32.966 0.113 43.184 0.48 43.551 0.847 0.847 44.159 0.676 44.486-0.176 0.139-0.361 0.246-15.415 0.239-33.453-0.013-30.855 0.028-32.828 0.69-33.331 0.548-0.416 3.175-0.537 11.805-0.547l11.1-0.013v33.367c0 18.352 0.109 33.652 0.243 34 0.4 1.042 25.348 0.948 26.295-0.098 0.607-0.672 0.662-4.254 0.662-43.339v-42.606l-0.842-0.762c-0.812-0.735-90.522-1.385-93.358-0.676m111.8 0.509c-1.098 1.098-1.104 111.72-5e-3 112.41 0.801 0.507 36.398 0.507 37.2 1e-3 0.508-0.321 0.618-2.259 0.717-12.594l0.116-12.215h21.741c19.455 0 21.766-0.067 21.983-0.633 0.414-1.077 0.268-86.308-0.148-86.967-0.694-1.097-80.507-1.102-81.604-5e-3m99.824-0.166c-0.643 0.642-1.018 85.491-0.386 87.138 0.211 0.551 44.142 1.075 44.651 0.533 0.051-0.055 0.186-14.05 0.3-31.1l0.206-31h8.4 8.4l0.2 31 0.2 31 12.4 0.109c9.019 0.08 12.645-0.02 13.3-0.367l0.9-0.477v-30.49c0-27.433 0.063-30.514 0.633-30.732 0.833-0.32 13.71-0.314 15.315 7e-3l1.247 0.249 0.103 30.851 0.102 30.85 12.573 0.106c9.792 0.082 12.644-6e-3 12.894-0.4 0.686-1.081 0.397-86.585-0.296-87.277-0.961-0.962-130.18-0.962-131.14 0m-119.65 0.235l1.019 0.464v43.093c0 38.927-0.061 43.117-0.633 43.336-1.278 0.491-23.979 0.271-24.487-0.237-0.366-0.366-0.48-8.366-0.48-33.567 0-18.198-0.109-33.372-0.243-33.72-0.294-0.767-21.981-0.969-23.383-0.219-0.756 0.404-0.774 1.201-0.774 33.72 0 25.371-0.114 33.42-0.48 33.786-0.509 0.509-41.588 0.736-42.887 0.237-0.572-0.219-0.633-4.41-0.633-43.339v-43.096l0.9-0.434c1.326-0.639 90.68-0.662 92.081-0.024m100.76 0.285c0.909 0.755 1.031 85.646 0.124 86.398-0.376 0.313-6.934 0.477-21.9 0.549l-21.363 0.104-0.2 12c-0.11 6.6-0.346 12.225-0.524 12.5-0.56 0.866-35.78 0.711-36.745-0.162-1.087-0.984-1.148-110.21-0.062-111.41 0.892-0.986 79.481-0.961 80.67 0.025m149.81-0.206c0.329 0.397 0.423 12.142 0.349 43.7l-0.102 43.157-11.952 0.106c-8.485 0.075-12.111-0.026-12.5-0.349-0.455-0.378-0.548-5.586-0.548-30.792 0-29.584-0.019-30.347-0.774-30.751-1.032-0.552-15.693-0.549-16.907 5e-3l-0.919 0.418 0.107 30.364c0.106 29.91 0.096 30.369-0.685 30.787-0.52 0.279-4.879 0.388-12.707 0.318l-11.915-0.106-0.103-30.562c-0.073-22.032-0.228-30.714-0.555-31.108-0.362-0.436-2.152-0.524-8.897-0.438l-8.445 0.108-0.103 30.562c-0.073 21.885-0.23 30.716-0.551 31.103-0.37 0.446-4.29 0.523-22.098 0.438l-21.648-0.103-0.102-43.312-0.102-43.312 0.902-0.363c1.606-0.645 129.72-0.517 130.26 0.13m-186.05 25.089c-0.89 0.519-1.103 41.405-0.22 42.288 0.685 0.685 22.355 0.685 23.04 0 0.692-0.692 0.692-41.548 0-42.24-0.618-0.618-21.764-0.663-22.82-0.048m22.811 20.368c0.061 11.11 0.012 20.605-0.108 21.1l-0.218 0.9h-10.969c-6.507 0-11.064-0.155-11.204-0.381-0.43-0.695-0.441-41.606-0.012-41.791 0.22-0.094 5.35-0.139 11.4-0.1l11 0.072 0.111 20.2" fill="#dc8484"/>
<path d="m12.629 119.03c-0.567 0.566-0.629 7.338-0.629 68.571 0 74.653-0.181 69.273 2.329 69.146l1.071-0.055-1-0.184c-0.55-0.101-1.225-0.368-1.5-0.594-0.77-0.633-0.73-136.02 0.04-136.66 0.398-0.329 50.768-0.475 190.1-0.549l189.56-0.101-189.67-0.099c-171.98-0.091-189.73-0.041-190.3 0.529m380.49 0.251c0.685 0.685 0.7 136.14 0.015 136.56-0.256 0.158-1.021 0.436-1.7 0.617-1.13 0.301-1.105 0.314 0.301 0.155 0.844-0.095 1.789-0.384 2.1-0.642 0.481-0.399 0.564-10.405 0.564-68.339 0-68.934 2e-3 -68.831-1.36-68.831-0.222 0-0.187 0.213 0.08 0.48m-361.22 25.152c-1.151 0.67-1.078 85.737 0.074 86.354 0.918 0.491 41.551 0.576 42.319 0.088 0.383-0.243 0.517-7.782 0.6-33.774 0.086-26.787 0.211-33.564 0.626-33.98 1.054-1.055 22.918-0.962 23.778 0.101 0.658 0.812 0.703 2.996 0.703 34.181 0 30.008 0.063 33.336 0.633 33.555 1.122 0.431 22.963 0.274 23.793-0.171 1.216-0.651 1.216-85.721 0-86.372-1.065-0.57-91.546-0.553-92.526 0.018m112.55 0.111c-0.331 0.398-0.424 15.32-0.349 55.9l0.101 55.357 18.176 0.104c9.997 0.057 18.313-0.033 18.48-0.2s-7.967-0.255-18.077-0.196l-18.382 0.108 0.102-55.508 0.101-55.508 39.2-0.11c21.56-0.06 39.605-0.012 40.1 0.108l0.9 0.217v42.759c0 33.833-0.104 42.801-0.5 42.961-0.299 0.121-0.218 0.215 0.2 0.233 0.663 0.03 0.7-2.278 0.7-43.121v-43.154l-0.9-0.241c-2.074-0.556-79.383-0.274-79.852 0.291m99.632-0.063c-0.697 0.697-0.697 85.543 0 86.24 0.364 0.364 5.577 0.457 21.5 0.385l21.02-0.094-21.2-0.206-21.2-0.205v-43-43h65.2 65.2v43 43h-12.062c-6.634 0-11.978 0.135-11.876 0.3 0.331 0.535 23.516 0.362 24.058-0.18 0.697-0.697 0.697-85.543 0-86.24-0.698-0.698-129.94-0.698-130.64 0m-119.88 43.12v43h-11.8-11.8l-0.2-33.639c-0.165-27.703-0.297-33.755-0.749-34.3-0.488-0.587-1.855-0.661-12.251-0.661s-11.763 0.074-12.251 0.661c-0.452 0.545-0.584 6.597-0.749 34.3l-0.2 33.639h-21-21l-0.103-42.6c-0.057-23.43-0.017-42.826 0.088-43.102 0.152-0.399 9.585-0.481 46.103-0.4l45.912 0.102v43m63.7-18.768c-0.653 0.38-0.7 1.83-0.694 21.488 6e-3 21.712 2e-3 21.649 1.468 22.42 1.224 0.645 21.441 0.64 22.652-5e-3 1.881-1.002 1.848-0.6 1.861-22.412l0.013-20.678-0.889-0.622c-1.069-0.749-23.157-0.921-24.411-0.191m100.1-0.041c-0.652 0.412-1.347 62.009-0.7 62.009 0.165 0 0.3-13.734 0.3-30.52 0-23.204 0.115-30.635 0.48-31 0.68-0.68 17.16-0.68 17.84 0 0.321 0.321 0.48 0.335 0.48 0.043 0-0.961-16.947-1.45-18.4-0.532m43.679 0.115l-0.921 0.494-0.079 30.662c-0.043 16.864 0.056 30.578 0.221 30.476s0.3-13.848 0.3-30.548c0-29.608 0.019-30.372 0.774-30.776 1.145-0.613 17.327-0.553 17.946 0.066 0.321 0.321 0.48 0.335 0.48 0.043 0-1.061-16.823-1.435-18.721-0.417m-119.76 0.374c0.848 0.848 0.674 41.443-0.182 42.389-1.135 1.253-22.628 1.11-23.515-0.158-0.82-1.17-0.956-41.418-0.143-42.231 0.685-0.685 23.155-0.685 23.84 0m94.177 32.406c-0.095 28.004-0.079 28.696 0.677 29.1 0.492 0.264 4.886 0.382 12.1 0.326l11.326-0.088-11.8-0.227c-6.49-0.125-11.844-0.266-11.897-0.312-0.054-0.047-0.145-13-0.203-28.785l-0.105-28.7-0.098 28.686m-124.63 29.381c-0.507 0.507-0.266 1.03 0.27 0.586 0.375-0.312 6.782-0.478 21.3-0.553l20.763-0.107-21.033-0.097c-11.569-0.053-21.154 0.024-21.3 0.171m-57.567 25.598c0.384 0.155 0.5 2.925 0.5 11.946 0 11.682 5e-3 11.747 0.889 12.366 1.588 1.113 73.434 0.927 74.636-0.193 0.861-0.802 0.875-0.999 0.875-12.366 0-8.854 0.117-11.604 0.5-11.778 0.275-0.124 0.14-0.182-0.3-0.128-0.777 0.096-0.803 0.438-0.906 11.982-0.101 11.312-0.143 11.904-0.885 12.301-0.872 0.467-73.344 0.404-73.811-0.064-0.148-0.147-0.246-5.202-0.218-11.232 0.051-10.813-0.175-13.135-1.27-13.067-0.401 0.024-0.403 0.074-0.01 0.233" fill="#e4aca4"/>
<path d="m12.223 118.49c-0.735 1.048-0.962 136.76-0.231 137.91 0.334 0.529 6.993 0.6 55.993 0.6h55.615v11.679 11.68l1.038 1.12 1.039 1.121 36.168 0.108 36.167 0.109 1.694-0.942 1.694-0.942 0.106-11.967 0.105-11.966h95.695c52.632 0 96.189-0.138 96.794-0.308l1.1-0.307v-68.716-68.715l-1.534-0.677c-1.435-0.633-13.893-0.677-191.18-0.677h-189.64l-0.622 0.889m380.98 0.429l1 0.506 0.101 68.038c0.086 57.558 0.016 68.109-0.453 68.498-0.413 0.343-24.722 0.456-96.156 0.445-52.581-8e-3 -95.892 0.097-96.247 0.233-0.573 0.22-0.645 1.54-0.645 11.789 0 11.358-0.014 11.555-0.875 12.357-1.202 1.12-73.048 1.306-74.636 0.193-0.884-0.619-0.889-0.684-0.889-12.357 0-10.489-0.069-11.761-0.654-11.985-0.359-0.138-25.499-0.24-55.866-0.227-44.695 0.02-55.275-0.073-55.54-0.492-0.693-1.092-0.408-136.19 0.289-136.89 0.855-0.856 378.88-0.966 380.57-0.111m-361.02 25.98c-0.105 0.276-0.145 19.672-0.088 43.102l0.103 42.6h21 21l0.2-33.639c0.165-27.703 0.297-33.755 0.749-34.3 0.488-0.587 1.855-0.661 12.251-0.661s11.763 0.074 12.251 0.661c0.452 0.545 0.584 6.597 0.749 34.3l0.2 33.639h11.8 11.8v-43-43l-45.912-0.102c-36.518-0.081-45.951 1e-3 -46.103 0.4m112.48-0.231c-0.147 0.146-0.267 25.168-0.267 55.604v55.337l18.3-0.104 18.3-0.104 0.2-12.2 0.2-12.2 21.6-0.209c11.88-0.114 21.645-0.249 21.7-0.3 0.547-0.499 0.019-85.637-0.533-85.848-0.867-0.333-79.167-0.309-79.5 0.024m99.518 0.232c-0.105 0.275-0.145 19.671-0.088 43.101l0.103 42.6h21.4 21.4l0.2-30.715c0.174-26.719 0.278-30.764 0.8-31.094 0.651-0.411 16.731-0.546 17.767-0.148 0.57 0.218 0.633 3.322 0.633 30.992v30.75l0.9 0.22c0.495 0.12 5.94 0.169 12.1 0.107l11.2-0.112 0.077-30.6 0.077-30.6 0.923-0.494c1.049-0.562 17.366-0.721 18.22-0.178 0.389 0.247 0.521 7.081 0.6 31.094l0.103 30.778h12 12v-43-43l-65.112-0.101c-51.879-0.081-65.151 0-65.303 0.4m-120.58 42.701v42.8h-11.213-11.213l0.026-33.1c0.015-18.205 0.021-33.381 0.013-33.725-7e-3 -0.343-0.38-1.018-0.829-1.5-1.089-1.169-24.607-1.395-25.755-0.246-0.562 0.561-0.629 4.25-0.629 34.6v33.971h-20.6-20.6v-42.8-42.8h45.4 45.4v42.8m100 0v42.8h-21.186c-20.829 0-21.193 0.014-21.617 0.806-0.288 0.538-0.393 4.655-0.314 12.4l0.117 11.595-17.9-1e-3h-17.9v-55.2-55.2h39.4 39.4v42.8m150.8 0v42.8h-11.6-11.6v-30.571c0-27.657-0.062-30.634-0.648-31.22-0.93-0.93-19.565-0.753-20.161 0.191-0.23 0.364-0.381 12.607-0.385 31.1l-6e-3 30.5h-11.214-11.214l0.028-30.3c0.016-16.665 0.022-30.507 0.014-30.761-0.06-1.937-20.069-1.95-21.3-0.014-0.166 0.261-0.305 14.11-0.308 30.775l-6e-3 30.3h-20.8-20.8v-42.8-42.8h65 65v42.8m-187.09-19.203c-1.347 0.559-1.356 0.727-1.23 23.089 0.11 19.426 0.168 20.936 0.832 21.6 0.933 0.932 25.447 1.113 26.366 0.194 0.647-0.646 0.969-43.491 0.335-44.48-0.451-0.702-24.686-1.074-26.303-0.403m24.999 0.626l0.889 0.622-0.013 20.678c-0.013 21.812 0.02 21.41-1.861 22.412-1.211 0.645-21.428 0.65-22.652 5e-3 -1.466-0.771-1.462-0.708-1.468-22.42-6e-3 -19.658 0.041-21.108 0.694-21.488 1.254-0.73 23.342-0.558 24.411 0.191" fill="#f4e4e4"/>
<path d="m108.9 119.1c51.645 0.056 136.16 0.056 187.8 0s9.39-0.102-93.9-0.102-145.54 0.046-93.9 0.102m-53.369 24.8c12.612 0.059 33.132 0.059 45.6 0s2.149-0.107-22.931-0.107-35.281 0.048-22.669 0.107m88.73 0.433c-0.613 0.677-0.656 4.992-0.561 55.9l0.103 55.167 0.098-55.251c0.082-45.735 0.192-55.328 0.638-55.698 0.386-0.321 11.574-0.476 39.7-0.551l39.161-0.104-39.238-0.098c-37.605-0.094-39.266-0.067-39.901 0.635m165.3-0.433c50.83 0.081 64.697 0.209 65.2 0.601 0.567 0.442 0.577 0.419 0.091-0.201-0.519-0.662-4.036-0.695-65.2-0.601l-64.651 0.099 64.56 0.102m-84.167 43.7c0 23.65 0.048 33.325 0.107 21.5s0.059-31.175 0-43-0.107-2.15-0.107 21.5m-142.89-24.901c3.025 0.068 7.975 0.068 11 0s0.55-0.124-5.5-0.124-8.525 0.056-5.5 0.124m17.291 34.501c0 18.37 0.049 25.885 0.109 16.7s0.06-24.215 0-33.4-0.109-1.67-0.109 16.7m-24.8 0.2c0 18.26 0.049 25.788 0.109 16.73 0.06-9.059 0.06-23.999 0-33.2-0.06-9.202-0.109-1.79-0.109 16.47m113.05-28.055c-0.327 0.394-0.423 6.249-0.345 21.1l0.107 20.555 0.097-20.68c0.089-19.214 0.146-20.709 0.796-21.088 0.385-0.224 0.497-0.413 0.249-0.42s-0.655 0.233-0.904 0.533m23.455-0.146c0.71 0.796 0.729 41.612 0.02 42.321-0.701 0.701-22.333 0.682-23.121-0.02-0.477-0.425-0.481-0.396-0.031 0.2 0.83 1.097 22.375 1.068 23.37-0.031 1.045-1.156 1.009-41.708-0.038-42.501-0.596-0.45-0.625-0.446-0.2 0.031m93.972 9e-3c0.26 0.334 0.544 1.414 0.631 2.4l0.157 1.792 0.07-1.851c0.051-1.347-0.121-2.001-0.63-2.4-0.612-0.48-0.64-0.472-0.228 0.059m43.828 0.024c0.656 0.382 0.706 2.341 0.797 30.888l0.098 30.48 0.105-30.356c0.106-30.533 0.069-31.467-1.249-31.432-0.248 7e-3 -0.136 0.196 0.249 0.42m-61.51 30.768c0 16.83 0.05 23.715 0.11 15.3s0.06-22.185 0-30.6-0.11-1.53-0.11 15.3m43.41 0.48c-0.11 16.654-0.064 30.144 0.103 29.978 0.166-0.167 0.256-13.793 0.199-30.281l-0.102-29.977-0.2 30.28m-149.82 43.12c0 6.49 0.055 9.145 0.122 5.9s0.067-8.555 0-11.8-0.122-0.59-0.122 5.9m-18.577 12.4l-18.2 0.212 18.076 0.094c11.722 0.061 18.164-0.047 18.324-0.306 0.136-0.22 0.192-0.358 0.124-0.306s-8.314 0.189-18.324 0.306m-121.1 0.3c15.125 0.058 39.875 0.058 55 0s2.75-0.106-27.5-0.106-42.625 0.048-27.5 0.106m207.03 0c26.253 0.057 69.093 0.057 95.2 0s4.628-0.103-47.732-0.103-73.721 0.046-47.468 0.103m-48.94 0.6c-0.31 0.845-0.411 23.88-0.104 23.572 0.263-0.263 0.658-24.073 0.399-24.072-0.061 0-0.194 0.225-0.295 0.5m-54.062 24.2c9.421 0.06 24.721 0.06 34 0 9.278-0.06 1.57-0.109-17.13-0.109s-26.292 0.049-16.87 0.109" fill="#e09494"/>
</g>
</svg>
