<?xml version="1.0" encoding="UTF-8"?>
<svg version="1.1" viewBox="0 0 400 400" xmlns="http://www.w3.org/2000/svg">
<g fill-rule="evenodd">
<path d="m276.6 71.031c-18.766 2.61-32.346 15.132-37.056 34.169-0.717 2.899-0.709 13.817 0.012 16.8 0.722 2.982 2.329 7.817 3.084 9.277 0.935 1.808 0.55 2.29-1.509 1.892-2.803-0.541-10.668-0.416-15.161 0.241-15.556 2.277-25.149 6.842-43.57 20.736-12.621 9.52-31.047 26.803-43.373 40.683-0.865 0.974-2.395 2.678-3.4 3.786-3.595 3.964-15.662 18.3-17.721 21.053-0.602 0.805-1.323 1.703-1.603 1.997-0.525 0.551-6.319 7.337-9.503 11.128-4.472 5.326-16.291 19.219-18.042 21.207-1.534 1.743-1.938 2.498-1.947 3.632-0.02 2.666 0.672 2.704 10.432 0.576 4.706-1.026 11.077-2.4 14.157-3.052s6.365-1.359 7.3-1.571c3.736-0.847 5.572-1.257 7.1-1.585 0.88-0.189 2.41-0.528 3.4-0.752 0.99-0.225 2.79-0.613 4-0.863s2.851-0.619 3.646-0.82c2.802-0.707 2.698-0.455-1.688 4.074-2.003 2.069-7.538 7.808-12.3 12.755-15 15.582-26.581 27.542-36.557 37.755-3.07 3.144-5.608 5.432-5.855 5.28-0.239-0.148-1.022 0.402-1.74 1.222-0.719 0.821-5.45 5.673-10.514 10.782-5.064 5.11-10.194 10.409-11.4 11.776s-4.847 5.134-8.092 8.372-5.9 6.097-5.9 6.353-0.18 0.466-0.4 0.466-0.4 0.675-0.4 1.5c1e-3 1.676 1.525 3.855 2.452 3.505 0.589-0.222 4.478 3.444 20.048 18.901 5.225 5.186 9.5 9.674 9.5 9.973 0 0.298 0.765 1.337 1.7 2.309s2.439 2.542 3.343 3.49c5.183 5.432 7.347 6.368 9.575 4.14 1.019-1.019 1.382-3.524 0.582-4.018-0.22-0.136-0.4-0.856-0.4-1.6s-0.18-1.464-0.4-1.6-0.4-0.957-0.4-1.824-0.18-1.576-0.4-1.576-0.4-0.709-0.4-1.576-0.18-1.688-0.4-1.824-0.4-0.957-0.4-1.824-0.18-1.576-0.4-1.576-0.4-0.72-0.4-1.6-0.18-1.6-0.4-1.6-0.4-0.709-0.4-1.576-0.18-1.688-0.4-1.824-0.4-0.946-0.4-1.8-0.18-1.664-0.4-1.8-0.4-0.856-0.4-1.6-0.18-1.464-0.4-1.6-0.4-0.867-0.4-1.624-0.18-1.376-0.4-1.376-0.4-0.799-0.4-1.776-0.18-1.888-0.4-2.024-0.4-0.942-0.4-1.79c0-0.858-0.222-1.635-0.5-1.75-0.303-0.125-0.145-0.314 0.4-0.48 0.495-0.15 0.9-0.432 0.9-0.627 0-0.194 0.36-0.353 0.8-0.353s0.8-0.18 0.8-0.4 0.36-0.4 0.8-0.4 0.8-0.18 0.8-0.4 0.36-0.4 0.8-0.4 0.8-0.18 0.8-0.4 0.27-0.4 0.6-0.4 0.6-0.18 0.6-0.4 0.27-0.4 0.6-0.4 0.6-0.18 0.6-0.4 0.36-0.4 0.8-0.4 0.8-0.18 0.8-0.4 0.27-0.4 0.6-0.4 0.6-0.158 0.6-0.351c0-0.194 0.54-0.576 1.2-0.849s1.2-0.655 1.2-0.849c0-0.193 0.36-0.351 0.8-0.351s0.8-0.135 0.801-0.3c0-0.165 1.08-0.826 2.4-1.47 1.319-0.643 2.399-1.318 2.399-1.5 0-0.181 0.236-0.33 0.525-0.33 0.288 0 0.873-0.315 1.3-0.7 0.426-0.385 1.27-0.955 1.875-1.268 0.605-0.312 1.1-0.717 1.1-0.9 0-0.182 0.27-0.332 0.6-0.332s0.6-0.18 0.6-0.4 0.193-0.4 0.429-0.4c0.603 0 1.571-1.038 1.571-1.686 0-0.298 1.755-1.791 3.9-3.317 4.449-3.165 16.494-12.218 18.314-13.765 0.668-0.568 1.908-1.572 2.756-2.232s1.741-1.381 1.986-1.603c0.244-0.222 1.974-1.653 3.844-3.18 3.32-2.711 13.208-11.153 16-13.659 3.092-2.775 17.488-15.164 20.4-17.556 1.921-1.578 3.337-2.797 11.2-9.645 14.2-12.366 29.363-27.987 39.516-40.708 0.724-0.907 1.535-1.919 1.802-2.249 19.428-24.033 32.213-54.21 30.401-71.76-0.366-3.547-0.245-3.599 3.631-1.587 10.953 5.686 22.976 6.343 34.905 1.906 2.011-0.747 3.94-1.359 4.288-1.359 0.758 0 2.733-1.083 6.026-3.303 16.531-11.149 22.73-34.962 13.928-53.497-2.626-5.529-9.383-14.4-10.969-14.4-0.153 0-1.969-1.146-4.035-2.547-5.28-3.58-9.626-5.526-15.693-7.026-2.003-0.495-11.743-0.91-14-0.596m34.256 17.669c11.313 12.259 12.616 32.426 3.017 46.7-3.223 4.794-11.276 11.868-12.83 11.272-0.453-0.174-20.428-21.312-24.8-26.244l-1.558-1.757 2.164-2.036c1.189-1.119 3.432-3.205 4.983-4.635s4.788-4.419 7.194-6.643c13.292-12.285 19.792-18.157 20.1-18.157 0.19 0 0.968 0.675 1.73 1.5m-3.351 17.729c-1.432 0.835-1.543 1.747-0.663 5.443 0.996 4.182 0.823 6.841-0.657 10.073-2.614 5.71 2.04 8.021 4.881 2.424 3.748-7.382 1.111-20.662-3.561-17.94m-63.305 32.14c1.32 0.367 2.61 0.885 2.868 1.15 0.488 0.503-1.298 2.329-69.741 71.279-15.88 15.997-29.059 29.023-29.286 28.944-0.227-0.078-4.139-3.652-8.694-7.942s-9.642-9.08-11.305-10.644l-3.023-2.844 2.383-2.956c2.56-3.177 2.474-3.075 7.416-8.756 13.715-15.765 24.73-26.945 39.182-39.769 6.412-5.69 24.903-19.431 26.147-19.431 0.094 0 1.315-0.687 2.712-1.526 6.764-4.062 14.423-6.624 24.541-8.21 2.824-0.443 14.428 0.044 16.8 0.705m8.354 7.049c2.161 2.569 2.908 13.112 1.26 17.782-1.542 4.369-7.296 12.809-12.272 18-1.476 1.54-3.045 3.22-3.488 3.732-0.442 0.513-12.387 12.663-26.544 27-14.157 14.338-29.951 30.347-35.098 35.577s-9.497 9.46-9.666 9.4c-0.644-0.228-14.369-13.238-14.26-13.518 0.379-0.973 97.968-99.191 98.557-99.191 0.267 0 0.947 0.548 1.511 1.218m-120.37 87.575c5.48 5.496 9.858 10.097 9.73 10.226-0.275 0.274-2.733 0.859-10.915 2.597-9.551 2.028-19.544 4.181-22.2 4.781-0.77 0.174-3.29 0.716-5.6 1.204s-4.602 0.978-5.093 1.089c-1.07 0.241-2.461-0.21-1.885-0.612 0.219-0.153 1.384-1.448 2.588-2.878 1.205-1.43 2.288-2.69 2.407-2.8 0.12-0.11 4.168-4.88 8.995-10.6 10.551-12.501 10.995-13 11.563-13 0.245 0 4.93 4.497 10.41 9.993m21.624 19.407c9.06 8.456 8.601 7.504 3.991 8.27-1.32 0.219-3.21 0.548-4.2 0.73s-2.97 0.542-4.4 0.8-3.41 0.618-4.4 0.8-2.88 0.518-4.2 0.746c-5.668 0.978-6.862 1.2-7.952 1.475-0.762 0.193-1.101 0.146-1-0.139 0.372-1.054 16.209-17.23 16.799-17.159 0.356 0.042 2.769 2.057 5.362 4.477" fill="#cbcac9"/>
<path d="m301.09 94.257c-4.229 3.882-9.658 8.877-12.064 11.1-2.406 2.224-5.643 5.213-7.194 6.643s-3.794 3.516-4.983 4.635l-2.164 2.036 1.558 1.757c4.372 4.932 24.347 26.07 24.8 26.244 1.554 0.596 9.607-6.478 12.83-11.272 9.599-14.274 8.296-34.441-3.017-46.7-1.834-1.987-1.072-2.421-9.766 5.557m8.927 12.152c3.105 1.662 3.746 12.647 1.049 17.96-2.841 5.597-7.495 3.286-4.881-2.424 1.48-3.232 1.653-5.891 0.657-10.073-0.88-3.696-0.769-4.608 0.663-5.443 0.896-0.522 1.564-0.527 2.512-0.02m-95.038 73.838c-41.3 41.611-62.332 62.93-62.493 63.344-0.109 0.28 13.616 13.29 14.26 13.518 0.169 0.06 4.519-4.17 9.666-9.4s20.941-21.239 35.098-35.577c14.157-14.337 26.102-26.487 26.544-27 0.443-0.512 2.012-2.192 3.488-3.732 4.976-5.191 10.73-13.631 12.272-18 2.145-6.078 0.261-19-2.771-19-0.267 0-16.496 16.131-36.064 35.847m-75.179 76.201c-8.639 9.074-8.914 9.419-7.152 8.973 1.09-0.275 2.284-0.497 7.952-1.475 1.32-0.228 3.21-0.564 4.2-0.746s2.97-0.542 4.4-0.8 3.41-0.618 4.4-0.8 2.88-0.511 4.2-0.73c3.947-0.655 4.015-0.728 2.253-2.41-6.585-6.286-11.059-10.272-11.606-10.337-0.379-0.046-3.956 3.398-8.647 8.325" fill="#646464"/>
<path d="m195.4 14.8c-0.139 0.225-2.063 0.4-4.4 0.4s-4.261 0.175-4.4 0.4c-0.136 0.22-1.486 0.4-3 0.4s-2.864 0.18-3 0.4-1.317 0.4-2.624 0.4c-1.317 0-2.376 0.178-2.376 0.4 0 0.22-0.799 0.4-1.776 0.4s-1.888 0.18-2.024 0.4-1.036 0.4-2 0.4-1.864 0.18-2 0.4-0.856 0.4-1.6 0.4-1.464 0.18-1.6 0.4-0.867 0.4-1.624 0.4-1.376 0.18-1.376 0.4-0.54 0.4-1.2 0.4-1.2 0.18-1.2 0.4-0.63 0.4-1.4 0.4-1.4 0.18-1.4 0.4-0.63 0.4-1.4 0.4-1.4 0.18-1.4 0.4-0.54 0.4-1.2 0.4-1.2 0.18-1.2 0.4-0.54 0.4-1.2 0.4-1.2 0.18-1.2 0.4-0.362 0.4-0.805 0.4-1.163 0.18-1.6 0.4-1.153 0.58-1.59 0.8-1.067 0.4-1.4 0.4-0.605 0.156-0.605 0.348c0 0.191-0.596 0.444-1.325 0.562-0.729 0.119-2.214 0.613-3.3 1.099s-2.605 1.151-3.375 1.478c-2.949 1.252-7.406 3.499-7.533 3.799-0.074 0.173-0.464 0.314-0.867 0.314s-0.793 0.135-0.867 0.3c-0.073 0.165-0.988 0.733-2.033 1.263-1.045 0.529-1.9 1.114-1.9 1.3 0 0.185-0.36 0.337-0.8 0.337s-0.8 0.18-0.8 0.4-0.278 0.4-0.617 0.4-1.003 0.36-1.475 0.8-1.095 0.8-1.383 0.8c-0.289 0-0.525 0.18-0.525 0.4s-0.36 0.4-0.8 0.4-0.8 0.15-0.8 0.332c0 0.183-0.495 0.588-1.1 0.9-0.605 0.313-1.403 0.838-1.773 1.168s-1.36 0.96-2.2 1.4-1.876 1.115-2.302 1.5c-0.427 0.385-0.93 0.7-1.119 0.7-0.188 0-0.792 0.45-1.342 1s-1.164 1-1.364 1-0.814 0.45-1.364 1-1.159 1-1.354 1-1.215 0.813-2.266 1.806c-1.052 0.993-2.431 2.112-3.064 2.486-0.634 0.374-1.152 0.82-1.152 0.991 0 0.405-2.421 2.717-2.846 2.717-0.956 0-15.554 14.666-15.554 15.626 0 0.234-0.9 1.303-2 2.374s-2 2.056-2 2.187c0 0.132-0.63 0.87-1.4 1.64s-1.4 1.555-1.4 1.744-0.54 0.922-1.2 1.629-1.2 1.427-1.2 1.6-0.531 0.884-1.18 1.578c-0.648 0.695-1.29 1.614-1.426 2.042-0.137 0.429-0.404 0.78-0.594 0.78s-0.453 0.338-0.584 0.751c-0.132 0.413-0.688 1.268-1.238 1.9-0.549 0.632-1.104 1.554-1.232 2.049s-0.393 0.9-0.589 0.9c-0.197 0-0.357 0.27-0.357 0.6s-0.18 0.6-0.4 0.6-0.4 0.32-0.4 0.712c0 0.391-0.36 0.971-0.8 1.288s-0.8 0.897-0.8 1.288c0 0.392-0.135 0.715-0.3 0.718-0.165 4e-3 -0.74 0.904-1.279 2-0.538 1.097-1.123 1.994-1.3 1.994-0.176 0-0.321 0.36-0.321 0.8s-0.18 0.8-0.4 0.8-0.4 0.36-0.4 0.8-0.18 0.8-0.4 0.8-0.4 0.36-0.4 0.8-0.135 0.801-0.3 0.801c-0.165 1e-3 -0.75 0.991-1.3 2.199s-1.135 2.198-1.3 2.199c-0.165 0-0.3 0.361-0.3 0.801s-0.18 0.8-0.4 0.8-0.4 0.272-0.4 0.605-0.208 1.008-0.462 1.5c-0.971 1.877-1.138 2.302-1.138 2.89 0 0.333-0.18 0.605-0.4 0.605s-0.4 0.272-0.4 0.605-0.208 1.008-0.462 1.5c-0.989 1.913-1.131 2.312-1.382 3.878-0.142 0.889-0.415 1.617-0.607 1.617s-0.349 0.54-0.349 1.2-0.18 1.2-0.4 1.2-0.4 0.45-0.4 1-0.18 1-0.4 1-0.4 0.63-0.4 1.4-0.18 1.4-0.4 1.4-0.4 0.54-0.4 1.2-0.18 1.2-0.4 1.2-0.4 0.54-0.4 1.2-0.18 1.2-0.4 1.2-0.4 0.72-0.4 1.6-0.18 1.6-0.4 1.6-0.4 0.63-0.4 1.4-0.18 1.4-0.4 1.4-0.4 0.72-0.4 1.6-0.18 1.6-0.4 1.6-0.4 0.799-0.4 1.776-0.18 1.888-0.4 2.024-0.4 0.946-0.4 1.8-0.18 1.664-0.4 1.8-0.4 1.306-0.4 2.6-0.18 2.464-0.4 2.6-0.4 1.306-0.4 2.6-0.18 2.464-0.4 2.6-0.4 1.857-0.4 3.824c0 2.117-0.163 3.576-0.4 3.576-0.549 0-0.549 28.661 0 29 0.22 0.136 0.4 1.846 0.4 3.8s0.18 3.664 0.4 3.8 0.4 1.407 0.4 2.824c0 1.451 0.175 2.576 0.4 2.576 0.22 0 0.4 0.979 0.4 2.176s0.18 2.288 0.4 2.424 0.4 1.047 0.4 2.024 0.18 1.776 0.4 1.776 0.4 0.9 0.4 2 0.18 2 0.4 2 0.4 0.619 0.4 1.376 0.18 1.488 0.4 1.624 0.4 0.856 0.4 1.6 0.18 1.464 0.4 1.6 0.4 0.777 0.4 1.424 0.18 1.176 0.4 1.176 0.4 0.529 0.4 1.176 0.18 1.288 0.4 1.424 0.4 0.777 0.4 1.424 0.18 1.176 0.4 1.176 0.4 0.54 0.4 1.2 0.18 1.2 0.4 1.2 0.4 0.54 0.4 1.2 0.18 1.2 0.4 1.2 0.4 0.36 0.4 0.8 0.156 0.8 0.346 0.8 0.456 0.806 0.591 1.791 0.415 2.11 0.621 2.5c0.901 1.698 2.042 4.55 2.042 5.105 0 0.332 0.18 0.604 0.4 0.604s0.4 0.36 0.4 0.8 0.18 0.8 0.4 0.8 0.4 0.36 0.4 0.8 0.18 0.8 0.4 0.8 0.4 0.36 0.4 0.8 0.18 0.8 0.4 0.8 0.4 0.253 0.4 0.562c0 0.666 1.668 3.979 2.1 4.171 0.165 0.074 0.3 0.479 0.3 0.9 0 0.422 0.18 0.767 0.4 0.767s0.4 0.36 0.4 0.8 0.18 0.8 0.4 0.8 0.4 0.27 0.4 0.6 0.18 0.6 0.4 0.6 0.4 0.36 0.4 0.8 0.18 0.8 0.4 0.8 0.4 0.32 0.4 0.712c0 0.391 0.36 0.971 0.8 1.288s0.8 0.897 0.8 1.288c0 0.392 0.18 0.712 0.4 0.712s0.4 0.236 0.4 0.525c0 0.288 0.36 0.911 0.8 1.383s0.8 1.136 0.8 1.475 0.145 0.617 0.323 0.617 0.641 0.72 1.029 1.6 0.873 1.6 1.077 1.6 0.371 0.236 0.371 0.525c0 0.288 0.36 0.911 0.8 1.383s0.8 1.046 0.8 1.275 0.135 0.418 0.3 0.42c0.165 1e-3 0.75 0.676 1.3 1.499 0.55 0.824 1.405 1.911 1.9 2.416s0.9 1.084 0.9 1.287 0.63 0.998 1.4 1.768 1.4 1.6 1.4 1.845 0.72 1.136 1.6 1.982 1.6 1.639 1.6 1.764c0 0.603 5.708 6.636 6.278 6.636 0.397 0 4.379-3.988 17.939-17.968 3.291-3.393 7.153-7.372 8.583-8.844 1.43-1.471 4.391-4.545 6.58-6.831 2.189-2.287 8.489-8.802 14-14.48 10.683-11.006 10.978-11.357 9.172-10.895-0.634 0.163-3.672 0.824-6.752 1.47s-6.5 1.368-7.6 1.605-2.765 0.591-3.7 0.787-2.51 0.536-3.5 0.756-2.61 0.58-3.6 0.8-2.655 0.59-3.7 0.822-2.53 0.514-3.3 0.625-1.76 0.357-2.2 0.546-1.52 0.463-2.4 0.61c-1.629 0.272-3.502 0.659-6.9 1.426-4.293 0.969-5.112 0.936-6.043-0.247-1.54-1.958-0.987-3.069 4.543-9.143 0.22-0.241 2.28-2.689 4.577-5.439s4.817-5.725 5.6-6.61c0.783-0.886 2.233-2.589 3.223-3.786 0.99-1.196 2.354-2.812 3.032-3.59 3.878-4.452 10.275-12.087 11.463-13.679 0.601-0.806 1.321-1.706 1.601-2 0.279-0.294 1.317-1.52 2.306-2.724 0.989-1.203 2.191-2.643 2.672-3.2 0.48-0.556 2.715-3.171 4.967-5.811 8.711-10.216 17.725-19.667 30.138-31.6 3.927-3.775 9.519-8.739 13.293-11.8 0.407-0.33 1.638-1.335 2.734-2.234 3.047-2.497 8.498-6.607 11.391-8.588 1.429-0.978 2.948-2.093 3.376-2.478s1.014-0.7 1.302-0.7c0.289 0 0.525-0.158 0.525-0.351 0-0.194 0.54-0.576 1.2-0.849s1.2-0.634 1.2-0.802 0.315-0.408 0.7-0.534 1.6-0.774 2.7-1.442c11.349-6.882 24.464-10.13 38.3-9.486 3.182 0.149 5.1 0.092 5.1-0.149 0-0.213-0.18-0.387-0.4-0.387s-0.4-0.272-0.4-0.605c0-0.588-0.167-1.013-1.138-2.89-0.254-0.492-0.462-1.246-0.462-1.676s-0.18-0.893-0.4-1.029-0.4-0.678-0.4-1.205c0-0.526-0.165-1.371-0.366-1.876-1.675-4.201-1.172-17.304 0.813-21.214 0.194-0.382 0.353-0.969 0.353-1.305s0.16-0.923 0.355-1.305 1.313-2.63 2.484-4.995c1.172-2.365 2.272-4.3 2.446-4.3 0.173 0 0.315-0.2 0.315-0.445 0-1.409 9.766-11.155 11.179-11.155 0.231 0 0.421-0.152 0.421-0.337 0-0.186 0.855-0.771 1.9-1.3 1.045-0.53 1.96-1.098 2.033-1.263 0.074-0.165 0.383-0.3 0.688-0.3s1.145-0.324 1.867-0.721c6.601-3.625 18.584-4.872 27.112-2.821 4.141 0.996 11.594 4.008 11.933 4.822 0.074 0.176 0.344 0.324 0.6 0.328 0.464 8e-3 4.512 2.874 8.612 6.097 3.652 2.871 8.435 9.989 10.95 16.295 0.219 0.55 0.557 1.313 0.752 1.695 0.194 0.382 0.353 1.046 0.353 1.476s0.154 0.877 0.343 0.994c1.307 0.807 1.334 15.233 0.038 20.335-1.052 4.144-1.287 4.954-1.62 5.595-0.199 0.382-0.361 0.937-0.361 1.235 0 6.07-15.002 21.538-22.4 23.096-0.77 0.162-2.48 0.696-3.8 1.186-9.632 3.58-20.37 3.584-30 0.01-0.44-0.163-2.24-0.996-4-1.851-1.76-0.856-3.355-1.626-3.545-1.712s-0.23 1.081-0.089 2.593c0.267 2.858-0.237 9.941-0.978 13.748-0.236 1.21-0.529 2.876-0.651 3.703-0.122 0.826-0.382 1.602-0.579 1.723-0.197 0.122-0.358 0.603-0.358 1.069 0 0.811-0.544 2.796-1.234 4.505-0.178 0.44-0.887 2.51-1.575 4.6-1.241 3.765-6.437 14.749-8.8 18.6-0.674 1.1-1.329 2.315-1.455 2.7s-0.388 0.7-0.583 0.7c-0.194 0-0.353 0.192-0.353 0.426 0 0.86-12.875 19.466-14.375 20.774-0.126 0.11-0.721 0.859-1.321 1.665-0.601 0.806-1.324 1.706-1.607 2s-1.623 1.885-2.978 3.535c-9.26 11.279-27.246 29.151-38.869 38.625-0.523 0.426-1.337 1.135-1.81 1.575-0.894 0.832-2.746 2.432-6.084 5.254-4.391 3.712-8.892 7.562-11.156 9.541-1.32 1.155-3.03 2.614-3.8 3.244s-1.67 1.421-2 1.758-1.77 1.599-3.2 2.805-2.69 2.287-2.8 2.401c-0.11 0.115-1.46 1.286-3 2.603s-2.89 2.486-3 2.599c-0.11 0.114-1.19 1.013-2.4 1.999s-2.402 1.983-2.649 2.215c-0.248 0.233-1.214 1.043-2.147 1.802-0.934 0.758-1.902 1.565-2.151 1.792-2.138 1.947-13.759 10.991-18.488 14.387-0.613 0.44-1.575 1.175-2.139 1.633s-2.191 1.617-3.615 2.575-2.992 2.178-3.485 2.709l-0.896 0.967 2.567 1.758c1.412 0.967 2.756 1.758 2.985 1.758 0.23 0 0.418 0.158 0.418 0.351 0 0.194 0.54 0.576 1.2 0.849s1.2 0.655 1.2 0.849c0 0.193 0.36 0.351 0.8 0.351s0.8 0.147 0.8 0.326c0 0.398 2.601 1.674 3.414 1.674 0.322 0 0.586 0.18 0.586 0.4s0.36 0.4 0.8 0.4 0.8 0.18 0.8 0.4 0.236 0.4 0.525 0.4c0.288 0 0.911 0.36 1.383 0.8s1.028 0.8 1.235 0.8 1.402 0.54 2.657 1.2 2.533 1.2 2.841 1.2c0.307 0 0.559 0.18 0.559 0.4s0.36 0.4 0.8 0.4 0.8 0.18 0.8 0.4 0.36 0.4 0.8 0.4 0.8 0.147 0.8 0.328c0 0.18 0.9 0.572 2 0.872s2 0.692 2 0.872c0 0.181 0.272 0.328 0.605 0.328 0.588 0 1.013 0.167 2.89 1.138 0.492 0.254 1.257 0.462 1.7 0.462s0.805 0.141 0.805 0.313 0.855 0.562 1.9 0.867 2.17 0.687 2.5 0.848c0.33 0.162 1.41 0.509 2.4 0.772s2.113 0.64 2.495 0.839 1.147 0.361 1.7 0.361 1.005 0.16 1.005 0.356 0.585 0.452 1.3 0.57c4.826 0.792 7.1 1.292 7.1 1.563 0 0.171 0.9 0.311 2 0.311s2 0.18 2 0.4 0.9 0.4 2 0.4 2 0.18 2 0.4 0.979 0.4 2.176 0.4 2.288 0.18 2.424 0.4 1.407 0.4 2.824 0.4c1.451 0 2.576 0.175 2.576 0.4 0 0.237 1.459 0.4 3.576 0.4 1.967 0 3.688 0.18 3.824 0.4 0.158 0.255 5.604 0.4 15.024 0.4 9.584 0 14.776-0.141 14.776-0.4 0-0.237 1.459-0.4 3.576-0.4 1.967 0 3.688-0.18 3.824-0.4s1.407-0.4 2.824-0.4c1.451 0 2.576-0.175 2.576-0.4 0-0.22 0.99-0.4 2.2-0.4s2.2-0.18 2.2-0.4 0.9-0.4 2-0.4 2-0.18 2-0.4 0.9-0.4 2-0.4 2-0.147 2-0.326c0-0.18 1.305-0.544 2.9-0.81 5.105-0.851 5.5-0.945 5.5-1.308 0-0.196 0.452-0.356 1.005-0.356s1.318-0.159 1.7-0.354 1.955-0.744 3.495-1.22c2.735-0.847 4.089-1.357 5.495-2.073 0.382-0.194 0.969-0.353 1.305-0.353s0.968-0.18 1.405-0.4 1.153-0.58 1.59-0.8 1.067-0.4 1.4-0.4 0.605-0.18 0.605-0.4 0.36-0.4 0.8-0.4 0.8-0.18 0.8-0.4 0.54-0.4 1.2-0.4 1.2-0.18 1.2-0.4 0.36-0.4 0.8-0.4 0.8-0.18 0.8-0.4 0.36-0.4 0.8-0.4 0.8-0.18 0.8-0.4 0.36-0.4 0.8-0.4 0.8-0.18 0.8-0.4 0.36-0.4 0.8-0.4 0.8-0.18 0.8-0.4 0.36-0.4 0.8-0.4 0.8-0.18 0.8-0.4 0.36-0.4 0.8-0.4 0.8-0.18 0.8-0.4 0.36-0.4 0.8-0.4 0.8-0.146 0.8-0.325 0.63-0.573 1.4-0.875 1.4-0.696 1.4-0.875 0.347-0.325 0.771-0.325c0.425 0 1.042-0.27 1.372-0.6s0.883-0.6 1.228-0.6c0.346 0 0.629-0.18 0.629-0.4s0.236-0.4 0.525-0.4c0.288 0 0.911-0.36 1.383-0.8s1.136-0.8 1.475-0.8 0.617-0.18 0.617-0.4 0.236-0.4 0.525-0.4c0.288 0 0.911-0.36 1.383-0.8s1.024-0.8 1.226-0.8c0.203 0 0.595-0.273 0.872-0.607s1.109-0.895 1.849-1.246 1.345-0.798 1.345-0.993 0.198-0.354 0.44-0.354c0.241 0 0.943-0.54 1.56-1.2s1.337-1.2 1.6-1.2 0.983-0.54 1.6-1.2 1.337-1.2 1.6-1.2 0.956-0.511 1.54-1.135c0.583-0.624 1.536-1.389 2.117-1.7 2.188-1.169 18.959-17.316 22.208-21.382 0.696-0.871 1.641-1.98 2.1-2.466s0.835-1.071 0.835-1.3 0.18-0.417 0.4-0.417 0.4-0.198 0.4-0.44c0-0.241 0.54-0.943 1.2-1.56s1.2-1.337 1.2-1.6 0.54-0.983 1.2-1.6 1.2-1.327 1.2-1.579c0-0.251 0.405-0.877 0.9-1.389 1.474-1.525 2.3-2.616 2.3-3.037 0-0.217 0.18-0.395 0.4-0.395s0.4-0.188 0.4-0.417 0.36-0.803 0.8-1.275 0.8-1.095 0.8-1.383c0-0.289 0.18-0.525 0.4-0.525s0.4-0.236 0.4-0.525c0-0.288 0.36-0.911 0.8-1.383s0.8-1.136 0.8-1.475 0.158-0.617 0.351-0.617c0.194 0 0.576-0.54 0.849-1.2s0.655-1.2 0.849-1.2c0.193 0 0.351-0.287 0.351-0.638 0-0.706 1.227-3.085 1.7-3.295 0.165-0.074 0.3-0.389 0.3-0.7 0-0.312 0.18-0.567 0.4-0.567s0.4-0.36 0.4-0.8 0.18-0.8 0.4-0.8 0.4-0.36 0.4-0.8 0.18-0.8 0.4-0.8 0.4-0.36 0.4-0.8 0.18-0.8 0.4-0.8 0.4-0.36 0.4-0.8 0.18-0.8 0.4-0.8 0.4-0.36 0.4-0.8 0.18-0.8 0.4-0.8 0.4-0.36 0.4-0.8 0.18-0.8 0.4-0.8 0.4-0.36 0.4-0.8 0.18-0.8 0.4-0.8 0.4-0.54 0.4-1.2 0.136-1.2 0.302-1.2c0.167 0 0.538-0.585 0.827-1.3 0.288-0.715 0.692-1.613 0.897-1.995 0.206-0.382 0.374-0.967 0.374-1.3s0.18-0.605 0.4-0.605 0.4-0.362 0.4-0.805 0.208-1.208 0.462-1.7c0.996-1.926 1.138-2.312 1.138-3.09 0-0.443 0.18-0.805 0.4-0.805s0.4-0.529 0.4-1.176 0.18-1.288 0.4-1.424 0.4-0.676 0.4-1.2 0.18-1.064 0.4-1.2 0.4-0.676 0.4-1.2 0.162-1.053 0.361-1.176c0.198-0.122 0.486-1.303 0.639-2.624s0.441-2.502 0.639-2.624c0.199-0.123 0.361-0.843 0.361-1.6s0.18-1.376 0.4-1.376 0.4-0.709 0.4-1.576 0.18-1.688 0.4-1.824 0.4-1.047 0.4-2.024 0.18-1.776 0.4-1.776 0.4-0.799 0.4-1.776 0.18-1.888 0.4-2.024 0.4-1.407 0.4-2.824c0-1.451 0.175-2.576 0.4-2.576 0.229 0 0.4-1.2 0.4-2.8s0.171-2.8 0.4-2.8c0.241 0 0.4-1.659 0.4-4.176 0-2.353 0.175-4.285 0.4-4.424 0.252-0.156 0.4-4.596 0.4-12s-0.148-11.844-0.4-12c-0.225-0.139-0.4-2.071-0.4-4.424 0-2.297-0.165-4.176-0.367-4.176s-0.469-1.215-0.594-2.7c-0.589-7.022-0.732-8.1-1.073-8.1-0.201 0-0.366-0.81-0.366-1.8s-0.18-1.8-0.4-1.8-0.4-0.889-0.4-1.976-0.18-2.088-0.4-2.224-0.4-0.867-0.4-1.624-0.18-1.376-0.4-1.376-0.4-0.72-0.4-1.6-0.159-1.6-0.354-1.6-0.483-1.035-0.64-2.3-0.401-2.48-0.543-2.7c-0.456-0.711-1.251-3.18-1.257-3.905-3e-3 -0.388-0.214-1.108-0.468-1.6-0.994-1.921-1.138-2.311-1.138-3.066 0-0.43-0.18-0.893-0.4-1.029s-0.4-0.597-0.4-1.024-0.18-0.776-0.4-0.776-0.4-0.54-0.4-1.2-0.18-1.2-0.4-1.2-0.4-0.36-0.4-0.8-0.18-0.8-0.4-0.8-0.4-0.439-0.4-0.976-0.18-1.088-0.4-1.224-0.4-0.597-0.4-1.024-0.18-0.776-0.4-0.776-0.4-0.36-0.4-0.8-0.18-0.8-0.4-0.8-0.4-0.349-0.4-0.776-0.18-0.888-0.4-1.024-0.4-0.597-0.4-1.024-0.18-0.776-0.4-0.776-0.4-0.36-0.4-0.8-0.18-0.8-0.4-0.8-0.4-0.36-0.4-0.8-0.18-0.8-0.4-0.8-0.4-0.36-0.4-0.8-0.18-0.8-0.4-0.8-0.4-0.278-0.4-0.617-0.36-1.003-0.8-1.475-0.8-1.095-0.8-1.383c0-0.289-0.18-0.525-0.4-0.525s-0.4-0.36-0.4-0.8-0.18-0.8-0.4-0.8-0.4-0.318-0.4-0.707-0.45-1.37-1-2.179-1-1.584-1-1.721-0.54-1.034-1.2-1.993-1.2-1.897-1.2-2.084-0.36-0.599-0.8-0.916-0.8-0.831-0.8-1.141c0-0.311-0.316-0.856-0.703-1.212-0.386-0.356-0.957-1.142-1.267-1.747-0.311-0.605-0.715-1.1-0.898-1.1-0.182 0-0.332-0.243-0.332-0.541 0-0.297-0.54-1.105-1.2-1.796s-1.2-1.455-1.2-1.699-0.54-0.947-1.2-1.564-1.2-1.319-1.2-1.56c0-0.242-0.18-0.44-0.4-0.44s-0.4-0.198-0.4-0.44c0-0.241-0.54-0.943-1.2-1.56s-1.2-1.281-1.2-1.478c0-0.196-1.26-1.691-2.8-3.322s-2.8-3.106-2.8-3.278c0-0.409-8.227-8.583-10.417-10.351-0.934-0.754-2.659-2.316-3.832-3.471-1.174-1.155-2.318-2.1-2.542-2.1-0.225 0-0.409-0.18-0.409-0.4s-0.18-0.4-0.4-0.4c-0.219 0-1.141-0.72-2.048-1.6s-1.825-1.6-2.04-1.6-0.895-0.54-1.512-1.2-1.343-1.2-1.614-1.2c-0.27 0-0.783-0.323-1.139-0.717-0.93-1.032-5.994-4.483-6.578-4.483-0.271 0-0.752-0.36-1.069-0.8s-0.857-0.8-1.2-0.8-0.883-0.36-1.2-0.8-0.897-0.8-1.288-0.8c-0.392 0-0.712-0.18-0.712-0.4s-0.32-0.4-0.712-0.4c-0.391 0-0.971-0.36-1.288-0.8s-0.897-0.8-1.288-0.8c-0.392 0-0.712-0.18-0.712-0.4s-0.36-0.4-0.8-0.4-0.8-0.18-0.8-0.4-0.27-0.4-0.6-0.4-0.601-0.135-0.603-0.3-0.407-0.501-0.9-0.747-3.085-1.551-5.759-2.9-5.149-2.453-5.5-2.453-0.638-0.18-0.638-0.4-0.236-0.4-0.525-0.4-1.301-0.375-2.249-0.833c-0.949-0.458-2.332-0.932-3.075-1.052-0.743-0.121-1.351-0.376-1.351-0.567 0-0.192-0.45-0.348-1-0.348s-1-0.18-1-0.4-0.439-0.4-0.976-0.4-1.088-0.18-1.224-0.4-0.597-0.4-1.024-0.4-0.776-0.18-0.776-0.4-0.54-0.4-1.2-0.4-1.2-0.18-1.2-0.4-0.529-0.4-1.176-0.4-1.288-0.18-1.424-0.4-0.777-0.4-1.424-0.4-1.176-0.18-1.176-0.4-0.54-0.4-1.2-0.4-1.2-0.18-1.2-0.4-0.72-0.4-1.6-0.4-1.6-0.18-1.6-0.4-0.72-0.4-1.6-0.4-1.6-0.18-1.6-0.4-0.72-0.4-1.6-0.4-1.6-0.18-1.6-0.4-0.9-0.4-2-0.4-2-0.18-2-0.4-0.81-0.4-1.8-0.4-1.8-0.18-1.8-0.4c0-0.222-1.059-0.4-2.376-0.4-1.307 0-2.488-0.18-2.624-0.4s-1.587-0.4-3.224-0.4c-1.717 0-2.976-0.169-2.976-0.4 0-0.241-1.659-0.4-4.176-0.4-2.353 0-4.285-0.175-4.424-0.4-0.337-0.545-22.463-0.545-22.8 0m-74.267 209.16c-0.073 0.198-2.473 3.097-5.333 6.444s-5.529 6.47-5.931 6.94c-0.401 0.471-1.508 1.756-2.459 2.856-3.631 4.199-10.635 12.6-10.507 12.6 0.075 0 2.287-0.461 4.916-1.025 2.63-0.564 6.131-1.303 7.781-1.643 1.65-0.339 3.63-0.759 4.4-0.934 2.225-0.504 5.654-1.255 7.5-1.642 0.935-0.196 2.555-0.546 3.6-0.778s2.53-0.514 3.3-0.625 1.76-0.359 2.2-0.551c0.826-0.359 2.429-0.688 5.2-1.066 0.88-0.12 1.771-0.38 1.98-0.577s1.064-0.359 1.9-0.359c2.234 0 2.321 0.111-8.101-10.346-9.263-9.296-10.152-10.086-10.446-9.294m-80.634 132.97c-1.816 1.798-5.506 5.495-8.2 8.215-2.695 2.72-7.842 7.868-11.44 11.441-7.199 7.148-7.625 7.914-4.526 8.137 0.949 0.069 1.95-0.061 2.224-0.288 0.314-0.261 4.59-0.426 11.561-0.448 6.441-0.021 11.161-0.193 11.297-0.412 0.136-0.22 4.773-0.376 11.185-0.376 6.87 0 11.045-0.149 11.2-0.4 0.142-0.229 2.204-0.4 4.824-0.4 5.799 0 5.868 0.315-1.524-6.919-3.355-3.283-9.71-9.55-14.122-13.925-4.413-4.376-8.283-7.942-8.6-7.925-0.318 0.018-2.064 1.503-3.879 3.3" fill="#f45c24"/>
<path d="m228 138.45c-4.044 0.439-7.43 1.11-11.6 2.3-0.77 0.22-1.85 0.517-2.4 0.66-4.27 1.112-17.568 8.591-23.589 13.268-0.336 0.261-2.231 1.681-4.211 3.155-3.257 2.426-7.288 5.619-7.8 6.179-0.11 0.12-1.46 1.271-3 2.557-7.823 6.535-24.03 22.366-31.976 31.235-5.483 6.119-6.131 6.857-8.622 9.801-1.208 1.43-2.299 2.689-2.423 2.799s-1.475 1.73-3.003 3.6c-1.527 1.87-2.911 3.46-3.076 3.533-0.748 0.333-0.128 1.382 1.976 3.344 1.251 1.168 4.086 3.848 6.3 5.956 2.213 2.108 6.184 5.847 8.824 8.309l4.8 4.475 24.154-24.308c68.276-68.714 74.445-75.034 73.726-75.53-2.039-1.406-11.186-2.081-18.08-1.333" fill="#fc941c"/>
<path d="m278 70.419c-1.077 0.178-0.273 0.214 2 0.089 2.09-0.115 3.875-0.277 3.967-0.359 0.274-0.246-4.032-0.051-5.967 0.27m7.105 0.264c0.497 0.096 1.217 0.092 1.6-8e-3 0.382-0.1-0.025-0.179-0.905-0.174-0.88 4e-3 -1.193 0.086-0.695 0.182m-12.705 0.514c-0.55 0.183-1.516 0.448-2.147 0.587-0.631 0.14-1.068 0.335-0.97 0.432 0.097 0.097 1.153-0.076 2.347-0.386 1.193-0.309 2.71-0.641 3.37-0.736 1.136-0.165 1.125-0.176-0.2-0.202-0.77-0.016-1.85 0.121-2.4 0.305m16-0.133c2.616 0.405 6.413 1.515 9.9 2.894 2.354 0.931 2.916 0.794 0.642-0.156-3.918-1.637-8.856-3.028-10.462-2.948-1.064 0.054-1.065 0.057-0.08 0.21m12.8 4.119c1.206 0.892 2 1.241 2 0.878 0-0.202-0.315-0.479-0.7-0.615-0.385-0.135-0.97-0.35-1.3-0.477-0.533-0.204-0.533-0.181 0 0.214m-42.971 1.826c-0.424 0.32-0.691 0.662-0.594 0.76 0.097 0.097 0.624-0.167 1.171-0.587 0.547-0.421 0.814-0.762 0.594-0.76s-0.747 0.266-1.171 0.587m45.404-0.445c0.613 0.603 4.411 3.03 4.195 2.681-0.321-0.519-3.646-2.845-4.067-2.845-0.162 0-0.219 0.074-0.128 0.164m-47.871 2.298l-0.762 0.862 1.1-0.708c1.134-0.73 1.349-1.016 0.762-1.016-0.186 0-0.681 0.388-1.1 0.862m-3.418 2.839c-2.688 2.501-6.556 7.02-6.261 7.315 0.115 0.115 0.532-0.285 0.928-0.889 0.395-0.603 2.336-2.769 4.313-4.812 4.02-4.156 4.404-4.763 1.02-1.614m61.262 2.528c1.653 1.744 3.453 3.721 4 4.393 1.584 1.948 0.711 0.607-1.317-2.022-1.018-1.32-2.714-3.107-3.77-3.971-1.55-1.269-1.341-0.962 1.087 1.6m-68.733 6.371c-0.251 0.55-0.39 1-0.31 1s0.44-0.45 0.8-1c0.361-0.55 0.5-1 0.31-1-0.189 0-0.55 0.45-0.8 1m73.945 0c0 0.22 0.352 0.85 0.782 1.4s0.782 0.82 0.782 0.6-0.352-0.85-0.782-1.4-0.782-0.82-0.782-0.6m-78.151 8.467c-0.147 0.146-0.256 0.641-0.242 1.1 0.024 0.766 0.057 0.756 0.409-0.125 0.392-0.979 0.31-1.453-0.167-0.975m-0.8 2.4c-0.147 0.146-0.252 0.731-0.233 1.3 0.034 1.014 0.041 1.012 0.387-0.147 0.364-1.217 0.31-1.618-0.154-1.153m84.561 1.609c0.09 1.039 0.716 1.92 0.744 1.048 0.015-0.482-0.152-0.988-0.372-1.124s-0.387-0.102-0.372 0.076m-85.355 1.805c-0.78 3.22-1.179 9.122-0.779 11.531l0.431 2.588-0.191-3.2c-0.108-1.82 0.07-5.009 0.412-7.393 0.566-3.95 0.625-5.579 0.127-3.526m86.323 7.336c-2e-3 3.223 0.115 5.439 0.26 4.922 0.341-1.212 0.344-8.658 4e-3 -9.862-0.143-0.507-0.262 1.716-0.264 4.94m-86.59 8.416c3e-3 0.862 0.182 1.837 0.397 2.167 0.267 0.41 0.311-0.035 0.138-1.4-0.316-2.495-0.543-2.819-0.535-0.767m85.847 1.108c-0.167 0.847-0.212 1.634-0.098 1.747 0.303 0.303 0.742-1.703 0.559-2.556-0.094-0.442-0.277-0.121-0.461 0.809m-85.053 2.769c0 0.573 0.187 1.158 0.416 1.3 0.273 0.169 0.322-0.133 0.144-0.876-0.368-1.533-0.56-1.678-0.56-0.424m84.229 0.919c-0.148 0.586-0.178 1.155-0.068 1.265s0.32-0.279 0.468-0.865c0.147-0.587 0.177-1.156 0.067-1.266s-0.32 0.279-0.467 0.866m-83.401 1.647c-0.015 0.482 0.152 0.988 0.372 1.124 0.473 0.292 0.473-0.099 0-1.2-0.331-0.771-0.345-0.769-0.372 0.076m-8.311 5.621c1.494 0.077 3.834 0.077 5.2-1e-3 1.365-0.078 0.143-0.141-2.717-0.141-2.86 1e-3 -3.978 0.065-2.483 0.142m-8.517 0.503l-1.4 0.295 1.4 5e-3c0.77 3e-3 1.94-0.132 2.6-0.3l1.2-0.305-1.2 5e-3c-0.66 3e-3 -1.83 0.138-2.6 0.3m-4 0.8l-1 0.32 1 0.012c0.55 6e-3 1.36-0.143 1.8-0.332l0.8-0.344-0.8 0.012c-0.44 6e-3 -1.25 0.156-1.8 0.332m100.68 1.005c-0.366 0.767-0.583 1.395-0.482 1.395 0.274 0 1.488-2.449 1.305-2.632-0.087-0.087-0.457 0.47-0.823 1.237m-103.88-0.205c-0.804 0.257-0.843 0.323-0.2 0.332 0.44 6e-3 1.16-0.143 1.6-0.332 1.019-0.438-0.032-0.438-1.4 0m-5.2 1.452c-1.65 0.56-3.162 1.173-3.36 1.363-0.288 0.276 3.52-0.893 6.96-2.135 0.533-0.193 0.533-0.218 0-0.231-0.33-8e-3 -1.95 0.444-3.6 1.003m107.04 2.159c-0.592 0.895-1.719 2.339-2.505 3.208-0.785 0.87-1.292 1.581-1.126 1.581 0.167 0 0.503-0.248 0.747-0.552 2.816-3.502 4.296-5.529 4.145-5.681-0.101-0.101-0.669 0.549-1.261 1.444m-113.54 0.615c-1.045 0.544-1.9 1.079-1.9 1.188 0 0.179 3.96-1.691 4.367-2.062 0.495-0.451-0.806 0.01-2.467 0.874m-3.9 2.21c-0.664 0.543-0.731 0.679-0.2 0.404 1.305-0.674 2.028-1.228 1.6-1.225-0.22 2e-3 -0.85 0.371-1.4 0.821m-2.8 1.597l-1 0.815 1.3-0.634c0.715-0.349 1.3-0.72 1.3-0.824 0-0.398-0.637-0.142-1.6 0.643m-3.5 2.055c-0.495 0.239-0.9 0.591-0.9 0.782 0 0.192 0.45 0.054 1-0.307 1.467-0.961 1.416-1.206-0.1-0.475m-2.671 1.721c-0.424 0.32-0.691 0.662-0.594 0.76 0.097 0.097 0.624-0.167 1.171-0.587 0.547-0.421 0.814-0.762 0.594-0.76s-0.747 0.266-1.171 0.587m118.74 0.223c-0.414 0.457-2.034 1.672-3.6 2.7-1.566 1.027-3.19 2.095-3.609 2.372-0.419 0.278-0.042 0.162 0.838-0.258 2.476-1.179 8.402-5.646 7.491-5.646-0.202 0-0.706 0.374-1.12 0.832m-127.01 5.868c-7.042 5.321-8.724 6.671-8.743 7.014-9e-3 0.173 1.378-0.819 3.083-2.205 1.705-1.385 4.765-3.753 6.8-5.26 3.247-2.405 4.006-3.049 3.596-3.049-0.057 0-2.188 1.575-4.736 3.5m75.24-2.394c0 0.394 5.986 3.704 6.661 3.683 0.186-5e-3 -0.964-0.702-2.558-1.548-1.593-0.845-3.168-1.763-3.5-2.038-0.343-0.285-0.603-0.326-0.603-0.097m-25.614 3.594l-2.186 2.3 2.3-2.186c2.137-2.032 2.483-2.414 2.186-2.414-0.062 0-1.097 1.035-2.3 2.3m67.414-1.1c-1.107 0.282-1.123 0.309-0.2 0.347 0.55 0.022 1.27-0.134 1.6-0.347 0.681-0.44 0.329-0.44-1.4 0m-41.672 3.2c0 1.43 0.073 2.015 0.161 1.3 0.089-0.715 0.089-1.885 0-2.6-0.088-0.715-0.161-0.13-0.161 1.3m36.672-1.6c-0.533 0.345-0.533 0.388 0 0.388 0.33 0 0.87-0.175 1.2-0.388 0.533-0.345 0.533-0.388 0-0.388-0.33 0-0.87 0.175-1.2 0.388m-26.8 0.8c0.33 0.213 0.87 0.388 1.2 0.388 0.533 0 0.533-0.043 0-0.388-0.33-0.213-0.87-0.388-1.2-0.388-0.533 0-0.533 0.043 0 0.388m24.4 0c-0.533 0.345-0.533 0.388 0 0.388 0.33 0 0.87-0.175 1.2-0.388 0.533-0.345 0.533-0.388 0-0.388-0.33 0-0.87 0.175-1.2 0.388m-21.6 0.8c0.33 0.213 0.96 0.378 1.4 0.366l0.8-0.022-0.8-0.344c-1.196-0.514-2.195-0.514-1.4 0m18.6 0l-0.8 0.344 0.8 0.022c0.44 0.012 1.07-0.153 1.4-0.366 0.795-0.514-0.204-0.514-1.4 0m-14.285 0.872c0.377 0.149 2.935 0.272 5.685 0.272s5.308-0.123 5.685-0.272c0.377-0.15-2.181-0.272-5.685-0.272s-6.062 0.122-5.685 0.272m-102.92 4.154c-4.984 4.26-8.685 7.559-11.301 10.074-0.514 0.495-0.781 0.9-0.592 0.9s0.872-0.557 1.518-1.237c0.646-0.681 3.56-3.319 6.475-5.863 2.915-2.543 5.3-4.686 5.3-4.762 0-0.263-0.206-0.132-1.4 0.888m85.47 0.824c-0.039 0.688-0.165 1.858-0.281 2.6-0.193 1.236-0.174 1.267 0.219 0.364 0.236-0.542 0.363-1.712 0.281-2.6-0.121-1.312-0.162-1.381-0.219-0.364m-0.821 5.35c-0.033 0.33-0.16 1.05-0.282 1.6-0.192 0.864-0.16 0.903 0.232 0.288 0.249-0.391 0.376-1.111 0.282-1.6-0.095-0.488-0.199-0.618-0.232-0.288m-0.803 3.867c-0.025 0.257-0.162 0.797-0.305 1.2-0.201 0.569-0.147 0.63 0.238 0.275 0.273-0.251 0.41-0.791 0.305-1.2-0.105-0.408-0.212-0.532-0.238-0.275m-104.54 9.213c-3.893 3.894-6.995 7.164-6.892 7.267 0.102 0.102 0.231 0.105 0.286 5e-3 0.055-0.099 3.248-3.369 7.096-7.266 3.847-3.898 6.904-7.086 6.792-7.086s-3.389 3.186-7.282 7.08m103.49-5.48c-0.15 0.473-0.183 0.95-0.073 1.06s0.323-0.187 0.473-0.66 0.183-0.95 0.073-1.06-0.323 0.187-0.473 0.66m-3.978 11.649c-0.63 1.623-2.463 5.561-4.073 8.751-1.611 3.19-2.655 5.44-2.32 5 1.654-2.17 7.929-15.525 7.666-16.314-0.071-0.213-0.644 0.94-1.273 2.563m-109.22 3.666c-0.222 0.267-2.112 2.377-4.2 4.689-6.424 7.113-8.894 9.997-8.538 9.97 0.187-0.014 1.042-0.869 1.899-1.9 2.102-2.528 6.716-7.699 9.605-10.766 1.3-1.379 2.2-2.501 2-2.493-0.199 9e-3 -0.545 0.234-0.766 0.5m41.984 12.785l-1.581 1.7 1.7-1.581c1.581-1.471 1.884-1.819 1.581-1.819-0.065 0-0.83 0.765-1.7 1.7m59.205-0.4l-0.634 1.3 0.815-1c0.785-0.963 1.041-1.6 0.643-1.6-0.104 0-0.475 0.585-0.824 1.3m-115.43 3.8c-1.345 1.487-2.095 2.5-1.852 2.5 0.11 0 0.864-0.81 1.676-1.8 1.627-1.986 1.738-2.428 0.176-0.7m113.22-0.234c-0.272 0.514-0.757 1.339-1.078 1.834s-0.497 0.9-0.391 0.9c0.335 0 2.368-3.264 2.161-3.471-0.108-0.109-0.42 0.223-0.692 0.737m-116.17 3.674c-0.22 0.253-1.209 1.45-2.198 2.66s-2.027 2.441-2.306 2.735c-0.28 0.294-1 1.194-1.601 2-1.188 1.592-7.585 9.227-11.463 13.679-0.678 0.778-2.042 2.394-3.032 3.59-0.99 1.197-2.438 2.9-3.218 3.786-0.779 0.885-2.923 3.41-4.763 5.61-1.841 2.2-3.709 4.405-4.153 4.9-0.443 0.495-0.696 0.9-0.563 0.9 0.134 0 1.647-1.665 3.363-3.7s3.304-3.898 3.527-4.139c0.431-0.466 1.796-2.062 7.848-9.183 11.101-13.058 19.282-22.992 19.087-23.177-0.071-0.066-0.308 0.087-0.528 0.339m105.85 11.46c-1.98 2.64-3.476 4.793-3.325 4.784 0.398-0.024 7.502-9.584 7.122-9.584-0.108 0-1.817 2.16-3.797 4.8m-110.33 2.546c-0.176 0.3-1.157 1.515-2.18 2.7-6.764 7.832-9.043 10.574-8.907 10.715 0.086 0.089 0.558-0.351 1.05-0.976 0.928-1.179 7.951-9.402 9.981-11.685 0.635-0.715 0.98-1.3 0.766-1.3-0.215 0-0.534 0.246-0.71 0.546m104.9 4.454c-0.811 0.99-1.347 1.8-1.192 1.8 0.282 0 0.65-0.417 2.204-2.5 1.316-1.763 0.601-1.268-1.012 0.7m-93.642 5.712c1.969 2.015 3.65 3.592 3.737 3.506 0.173-0.174-5.275-5.675-6.53-6.594-0.432-0.316 0.825 1.073 2.793 3.088m86.197 3.188c-2.279 2.585-8.29 8.93-13.356 14.1-5.067 5.17-8.325 8.59-7.24 7.6 2.732-2.494 11.442-11.218 14.82-14.846 5.435-5.836 10.431-11.554 10.096-11.554-0.097 0-2.041 2.115-4.32 4.7m-110.31 1.722c-0.512 0.648-0.782 1.168-0.6 1.156 0.181-0.012 0.749-0.552 1.26-1.2 0.512-0.648 0.782-1.168 0.6-1.156-0.181 0.012-0.749 0.552-1.26 1.2m-3.716 4.478c-5.456 6.371-8.025 9.563-7.842 9.745 0.228 0.228 6.343-0.965 6.676-1.302 0.243-0.246-2.322 0.158-4.388 0.691-0.77 0.199-1.545 0.363-1.723 0.364s1.61-2.293 3.973-5.098 4.562-5.415 4.885-5.8c0.324-0.385 0.505-0.7 0.403-0.7s-0.995 0.945-1.984 2.1m36.046-1.324c0 0.233 0.18 0.424 0.4 0.424s0.4 0.27 0.4 0.6 0.186 0.6 0.414 0.6c0.285 0 0.284-0.243-2e-3 -0.778-0.502-0.937-1.212-1.433-1.212-0.846m-2.61 2.04c-0.169 0.273 0.133 0.322 0.876 0.144 1.533-0.368 1.678-0.56 0.424-0.56-0.573 0-1.158 0.187-1.3 0.416m-3.79 0.784c-0.764 0.494 0.058 0.494 1.6 0l1-0.32-1-0.034c-0.55-0.019-1.27 0.141-1.6 0.354m-3.41 0.816c-0.169 0.273 0.133 0.322 0.876 0.144 1.533-0.368 1.678-0.56 0.424-0.56-0.573 0-1.158 0.187-1.3 0.416m-3.79 0.784c-0.795 0.514 0.204 0.514 1.4 0l0.8-0.344-0.8-0.022c-0.44-0.012-1.07 0.153-1.4 0.366m-3.6 0.8c-0.795 0.514 0.204 0.514 1.4 0l0.8-0.344-0.8-0.022c-0.44-0.012-1.07 0.153-1.4 0.366m-3.8 0.8l-0.8 0.344h0.8c0.44 0 1.16-0.155 1.6-0.344l0.8-0.344h-0.8c-0.44 0-1.16 0.155-1.6 0.344m-3.6 0.8l-0.8 0.344h0.8c0.44 0 1.16-0.155 1.6-0.344l0.8-0.344h-0.8c-0.44 0-1.16 0.155-1.6 0.344m-3.6 0.8l-0.8 0.344h0.8c0.44 0 1.16-0.155 1.6-0.344l0.8-0.344h-0.8c-0.44 0-1.16 0.155-1.6 0.344m25 0.394c0.485 0.308-0.052 1.037-2.791 3.794-1.865 1.876-3.295 3.412-3.177 3.412s1.894-1.71 3.947-3.8c3.526-3.589 3.669-3.8 2.577-3.794-0.887 5e-3 -1.017 0.095-0.556 0.388m-46.766 1.359l-0.965 1.247 1.144-1.088c0.63-0.598 1.064-1.159 0.966-1.247-0.099-0.088-0.614 0.402-1.145 1.088m17.766-0.953c-1.089 0.277-1.107 0.307-0.2 0.325 0.55 0.01 1.36-0.136 1.8-0.325 0.986-0.424 0.066-0.424-1.6 0m25.6 0l-0.8 0.344 0.8-0.012c0.44-6e-3 1.25-0.156 1.8-0.332l1-0.32-1-0.012c-0.55-6e-3 -1.36 0.143-1.8 0.332m-29.2 0.8c-1.089 0.277-1.107 0.307-0.2 0.325 0.55 0.01 1.36-0.136 1.8-0.325 0.986-0.424 0.066-0.424-1.6 0m25.6 0l-0.8 0.344 0.8-0.012c0.44-6e-3 1.25-0.156 1.8-0.332l1-0.32-1-0.012c-0.55-6e-3 -1.36 0.143-1.8 0.332m-3.8 0.8c-1.344 0.431 0.108 0.431 1.8 0 1.078-0.274 1.098-0.306 0.2-0.313-0.55-4e-3 -1.45 0.137-2 0.313m-3.8 0.8l-0.8 0.344h0.8c0.44 0 1.16-0.155 1.6-0.344l0.8-0.344h-0.8c-0.44 0-1.16 0.155-1.6 0.344m-34.905 1.67c-2.894 3.611-0.373 7.744 3.398 5.57 0.516-0.297 0.15-0.344-1.351-0.173-3.644 0.415-4.351-2.077-1.526-5.378 0.796-0.929 1.297-1.68 1.115-1.668-0.182 0.011-0.918 0.753-1.636 1.649m31.505-0.87c-0.795 0.514 0.204 0.514 1.4 0l0.8-0.344-0.8-0.022c-0.44-0.012-1.07 0.153-1.4 0.366m-3.8 0.8l-0.8 0.344 0.8 0.022c0.44 0.012 1.07-0.153 1.4-0.366 0.795-0.514-0.204-0.514-1.4 0m-3.6 0.8l-0.8 0.344 0.8 0.022c0.44 0.012 1.07-0.153 1.4-0.366 0.795-0.514-0.204-0.514-1.4 0m-3.6 0.8l-0.8 0.344 0.8 0.022c0.44 0.012 1.07-0.153 1.4-0.366 0.795-0.514-0.204-0.514-1.4 0m-3.8 0.8l-1 0.32 1 0.034c0.55 0.019 1.27-0.141 1.6-0.354 0.764-0.494-0.058-0.494-1.6 0m-3.6 0.8l-1 0.32 1.076 0.04c0.592 0.022 1.188-0.14 1.324-0.36 0.281-0.455 0.02-0.455-1.4 0m-3.8 0.8c-1.089 0.277-1.107 0.307-0.2 0.325 0.55 0.01 1.36-0.136 1.8-0.325 0.986-0.424 0.066-0.424-1.6 0m-3.8 0.8l-1 0.32 1 0.034c0.55 0.019 1.27-0.141 1.6-0.354 0.764-0.494-0.058-0.494-1.6 0m97.74 5.323c-2.233 2.022-4.078 3.831-4.1 4.018-0.048 0.408 1.913-1.266 5.856-4.999 4.233-4.008 2.978-3.307-1.756 0.981m-66.14-0.943c-0.99 1.062-4.796 5.056-8.459 8.875-7.535 7.859-7.931 8.293-5.8 6.345 2.665-2.436 16.769-17.201 16.406-17.175-0.191 0.013-1.157 0.893-2.147 1.955m59.2 7.283c-1.21 1.121-1.84 1.79-1.4 1.487 0.997-0.686 4.072-3.544 3.8-3.533-0.11 5e-3 -1.19 0.925-2.4 2.046m-5.2 4.449c-1.43 1.335-2.22 2.171-1.756 1.858 1.32-0.892 4.682-3.978 4.51-4.14-0.084-0.08-1.324 0.947-2.754 2.282m-4.4 3.584c-3.973 3.49-4.872 4.261-7.119 6.104-1.342 1.1-2.448 2.157-2.46 2.349s1.104-0.625 2.479-1.816c1.375-1.19 3.666-3.147 5.09-4.349 3.338-2.814 3.736-3.191 3.557-3.37-0.081-0.081-0.777 0.406-1.547 1.082m-74.465 10.478c-3.447 3.534-6.184 6.508-6.085 6.609 0.1 0.1 0.909-0.62 1.798-1.6 0.889-0.981 3.701-3.899 6.25-6.484 2.548-2.586 4.558-4.758 4.467-4.826-0.091-0.069-2.984 2.766-6.43 6.301m61.665 0.705c-1.43 1.324-1.97 1.914-1.2 1.312 2.29-1.792 4.094-3.431 3.942-3.58-0.078-0.077-1.312 0.943-2.742 2.268m-3.379 2.687c-0.143 0.231-2.677 2.503-5.631 5.05-2.954 2.546-5.499 4.844-5.656 5.107-0.222 0.372 4.586-3.604 5.466-4.52 0.11-0.114 1.37-1.197 2.8-2.405 3.427-2.897 3.733-3.199 3.488-3.444-0.114-0.114-0.325-0.018-0.467 0.212m-70.421 9.137c-2.86 2.964-4.84 5.148-4.4 4.853 1.129-0.755 10.446-10.368 9.982-10.299-0.21 0.032-2.722 2.482-5.582 5.446m56.189 3.357l-2.189 2.017 2.2-1.719c1.21-0.946 2.275-1.773 2.367-1.839 0.091-0.065 0.086-0.199-0.012-0.297-0.097-0.098-1.162 0.73-2.366 1.838m-4.989 4.195c-1.1 1.011-1.64 1.592-1.2 1.291 0.44-0.3 0.89-0.639 1-0.752 0.11-0.114 0.799-0.699 1.531-1.3 0.732-0.602 1.182-1.09 1-1.086-0.182 5e-3 -1.231 0.836-2.331 1.847m-5.2 4.179c-2.341 1.963-5.189 4.194-11.311 8.859-3.102 2.365-3.931 3.082-2.889 2.501 1.911-1.066 17.516-13.402 16.931-13.384-0.182 6e-3 -1.411 0.916-2.731 2.024m-20.8 15.78c-1.98 1.415-3.862 2.98-4.182 3.479-0.499 0.779-0.44 0.761 0.419-0.126 0.55-0.568 2.375-1.96 4.054-3.094 2.524-1.703 4.03-2.954 3.433-2.852-0.068 0.012-1.744 1.179-3.724 2.593m-67.4 24.69c0 0.057 3.555 3.612 7.9 7.9l7.9 7.796-7.796-7.9c-7.244-7.34-8.004-8.081-8.004-7.796m19.2 18.841c0 0.182 1.871 2.159 4.157 4.393 2.287 2.234 4.253 4.332 4.369 4.662 0.186 0.529 0.215 0.528 0.242-7e-3 0.018-0.334-1.948-2.581-4.368-4.993s-4.4-4.237-4.4-4.055" fill="#f59673"/>
<path d="m280.7 70.689c0.715 0.089 1.885 0.089 2.6 0 0.715-0.088 0.13-0.161-1.3-0.161s-2.015 0.073-1.3 0.161m44.64 41.311c0 1.87 0.069 2.635 0.153 1.7s0.084-2.465 0-3.4-0.153-0.17-0.153 1.7m-86.812 1.6c0 1.43 0.073 2.015 0.161 1.3 0.089-0.715 0.089-1.885 0-2.6-0.088-0.715-0.161-0.13-0.161 1.3m-11.528 24.361c-0.88 0.136 2.25 0.245 6.955 0.243s7.855-0.129 7-0.281c-1.878-0.334-11.719-0.308-13.955 0.038m-4.6 0.839c-0.916 0.293-0.883 0.323 0.4 0.354 0.77 0.019 1.67-0.141 2-0.354 0.754-0.487-0.878-0.487-2.4 0m20.8-0.04c0.33 0.235 0.971 0.431 1.424 0.434 0.452 3e-3 1.142 0.239 1.532 0.524 0.78 0.571 0.777 0.574-67.219 69.025l-30.737 30.943-4.2-3.914c-2.31-2.154-6.924-6.499-10.253-9.656-3.33-3.158-6.435-6.072-6.9-6.476-1.358-1.177-1.169-1.548 3.595-7.039 0.573-0.66 2.819-3.271 4.99-5.801s4.132-4.799 4.358-5.042c0.225-0.244 1.753-1.954 3.395-3.8 8.02-9.021 25.831-26.269 34.389-33.302 2.104-1.729 4.276-3.53 4.826-4.002 5.376-4.619 17.896-12.889 24.287-16.042 2.592-1.279 5.026-2.48 5.408-2.669s1.046-0.343 1.476-0.343 0.893-0.18 1.029-0.4 0.766-0.4 1.4-0.4 1.264-0.18 1.4-0.4 0.732-0.413 1.324-0.428c0.592-0.016 1.436-0.195 1.876-0.399 1.692-0.783-2.878 0.155-6.4 1.315-4.105 1.351-7.67 2.981-11.341 5.186-1.397 0.839-2.618 1.526-2.712 1.526-1.244 0-19.735 13.741-26.147 19.431-14.452 12.824-25.467 24.004-39.182 39.769-4.942 5.681-4.856 5.579-7.416 8.756l-2.383 2.956 3.023 2.844c1.663 1.564 6.749 6.354 11.302 10.644s8.509 7.852 8.792 7.915c0.282 0.063 5.076-4.527 10.653-10.2 5.576-5.673 27.771-28.069 49.321-49.769s39.187-39.61 39.192-39.8c0.013-0.476-1.74-1.301-3.36-1.581-1.017-0.176-1.197-0.129-0.742 0.195m69.578 5.94l-1.378 1.5 1.5-1.378c1.396-1.284 1.684-1.622 1.378-1.622-0.066 0-0.741 0.675-1.5 1.5m-54.258 7.7c0 1.21 0.075 1.705 0.167 1.1 0.091-0.605 0.091-1.595 0-2.2-0.092-0.605-0.167-0.11-0.167 1.1m-6e-3 6.6c3e-3 1.1 0.081 1.503 0.173 0.895 0.092-0.609 0.09-1.509-5e-3 -2-0.095-0.492-0.171 5e-3 -0.168 1.105m-100.13 15.7l-2.588 2.7 2.7-2.588c1.485-1.424 2.7-2.639 2.7-2.7 0-0.295-0.407 0.08-2.812 2.588m-11.413 11.4l-1.175 1.3 1.3-1.175c0.715-0.646 1.3-1.231 1.3-1.3 0-0.309-0.33-0.037-1.425 1.175m64.603 58.2l-1.378 1.5 1.5-1.378c1.396-1.284 1.684-1.622 1.378-1.622-0.066 0-0.741 0.675-1.5 1.5m-81.397 14.2l-1.581 1.7 1.7-1.581c1.581-1.471 1.884-1.819 1.581-1.819-0.065 0-0.83 0.765-1.7 1.7m66.619 0.5c-0.972 0.99-1.677 1.8-1.567 1.8s0.995-0.81 1.967-1.8 1.677-1.8 1.567-1.8-0.995 0.81-1.967 1.8m-75.819 9.1l-1.581 1.7 1.7-1.581c1.581-1.471 1.884-1.819 1.581-1.819-0.065 0-0.83 0.765-1.7 1.7m-10.995 11.4l-2.186 2.3 2.3-2.186c2.137-2.032 2.483-2.414 2.186-2.414-0.062 0-1.097 1.035-2.3 2.3m-10.798 11.2l-2.588 2.7 2.7-2.588c1.485-1.424 2.7-2.639 2.7-2.7 0-0.295-0.407 0.08-2.812 2.588m-40.588 76.1c2.412 2.42 4.476 4.4 4.586 4.4s-1.774-1.98-4.186-4.4-4.476-4.4-4.586-4.4 1.774 1.98 4.186 4.4" fill="#fcbe75"/>
</g>
</svg>
