<svg id="svg" version="1.1" width="400" height="400" viewBox="0 0 400 400" xmlns="http://www.w3.org/2000/svg" xmlns:xlink="http://www.w3.org/1999/xlink" ><g id="svgg"><path id="path0" d="M276.600 71.031 C 257.834 73.641,244.254 86.163,239.544 105.200 C 238.827 108.099,238.835 119.017,239.556 122.000 C 240.278 124.982,241.885 129.817,242.640 131.277 C 243.575 133.085,243.190 133.567,241.131 133.169 C 238.328 132.628,230.463 132.753,225.970 133.410 C 210.414 135.687,200.821 140.252,182.400 154.146 C 169.779 163.666,151.353 180.949,139.027 194.829 C 138.162 195.803,136.632 197.507,135.627 198.615 C 132.032 202.579,119.965 216.915,117.906 219.668 C 117.304 220.473,116.583 221.371,116.303 221.665 C 115.778 222.216,109.984 229.002,106.800 232.793 C 102.328 238.119,90.509 252.012,88.758 254.000 C 87.224 255.743,86.820 256.498,86.811 257.632 C 86.791 260.298,87.483 260.336,97.243 258.208 C 101.949 257.182,108.320 255.808,111.400 255.156 C 114.480 254.504,117.765 253.797,118.700 253.585 C 122.436 252.738,124.272 252.328,125.800 252.000 C 126.680 251.811,128.210 251.472,129.200 251.248 C 130.190 251.023,131.990 250.635,133.200 250.385 C 134.410 250.135,136.051 249.766,136.846 249.565 C 139.648 248.858,139.544 249.110,135.158 253.639 C 133.155 255.708,127.620 261.447,122.858 266.394 C 107.858 281.976,96.277 293.936,86.301 304.149 C 83.231 307.293,80.693 309.581,80.446 309.429 C 80.207 309.281,79.424 309.831,78.706 310.651 C 77.987 311.472,73.256 316.324,68.192 321.433 C 63.128 326.543,57.998 331.842,56.792 333.209 C 55.586 334.576,51.945 338.343,48.700 341.581 C 45.455 344.819,42.800 347.678,42.800 347.934 C 42.800 348.190,42.620 348.400,42.400 348.400 C 42.180 348.400,42.000 349.075,42.000 349.900 C 42.001 351.576,43.525 353.755,44.452 353.405 C 45.041 353.183,48.930 356.849,64.500 372.306 C 69.725 377.492,74.000 381.980,74.000 382.279 C 74.000 382.577,74.765 383.616,75.700 384.588 C 76.635 385.560,78.139 387.130,79.043 388.078 C 84.226 393.510,86.390 394.446,88.618 392.218 C 89.637 391.199,90.000 388.694,89.200 388.200 C 88.980 388.064,88.800 387.344,88.800 386.600 C 88.800 385.856,88.620 385.136,88.400 385.000 C 88.180 384.864,88.000 384.043,88.000 383.176 C 88.000 382.309,87.820 381.600,87.600 381.600 C 87.380 381.600,87.200 380.891,87.200 380.024 C 87.200 379.157,87.020 378.336,86.800 378.200 C 86.580 378.064,86.400 377.243,86.400 376.376 C 86.400 375.509,86.220 374.800,86.000 374.800 C 85.780 374.800,85.600 374.080,85.600 373.200 C 85.600 372.320,85.420 371.600,85.200 371.600 C 84.980 371.600,84.800 370.891,84.800 370.024 C 84.800 369.157,84.620 368.336,84.400 368.200 C 84.180 368.064,84.000 367.254,84.000 366.400 C 84.000 365.546,83.820 364.736,83.600 364.600 C 83.380 364.464,83.200 363.744,83.200 363.000 C 83.200 362.256,83.020 361.536,82.800 361.400 C 82.580 361.264,82.400 360.533,82.400 359.776 C 82.400 359.019,82.220 358.400,82.000 358.400 C 81.780 358.400,81.600 357.601,81.600 356.624 C 81.600 355.647,81.420 354.736,81.200 354.600 C 80.980 354.464,80.800 353.658,80.800 352.810 C 80.800 351.952,80.578 351.175,80.300 351.060 C 79.997 350.935,80.155 350.746,80.700 350.580 C 81.195 350.430,81.600 350.148,81.600 349.953 C 81.600 349.759,81.960 349.600,82.400 349.600 C 82.840 349.600,83.200 349.420,83.200 349.200 C 83.200 348.980,83.560 348.800,84.000 348.800 C 84.440 348.800,84.800 348.620,84.800 348.400 C 84.800 348.180,85.160 348.000,85.600 348.000 C 86.040 348.000,86.400 347.820,86.400 347.600 C 86.400 347.380,86.670 347.200,87.000 347.200 C 87.330 347.200,87.600 347.020,87.600 346.800 C 87.600 346.580,87.870 346.400,88.200 346.400 C 88.530 346.400,88.800 346.220,88.800 346.000 C 88.800 345.780,89.160 345.600,89.600 345.600 C 90.040 345.600,90.400 345.420,90.400 345.200 C 90.400 344.980,90.670 344.800,91.000 344.800 C 91.330 344.800,91.600 344.642,91.600 344.449 C 91.600 344.255,92.140 343.873,92.800 343.600 C 93.460 343.327,94.000 342.945,94.000 342.751 C 94.000 342.558,94.360 342.400,94.800 342.400 C 95.240 342.400,95.600 342.265,95.601 342.100 C 95.601 341.935,96.681 341.274,98.001 340.630 C 99.320 339.987,100.400 339.312,100.400 339.130 C 100.400 338.949,100.636 338.800,100.925 338.800 C 101.213 338.800,101.798 338.485,102.225 338.100 C 102.651 337.715,103.495 337.145,104.100 336.832 C 104.705 336.520,105.200 336.115,105.200 335.932 C 105.200 335.750,105.470 335.600,105.800 335.600 C 106.130 335.600,106.400 335.420,106.400 335.200 C 106.400 334.980,106.593 334.800,106.829 334.800 C 107.432 334.800,108.400 333.762,108.400 333.114 C 108.400 332.816,110.155 331.323,112.300 329.797 C 116.749 326.632,128.794 317.579,130.614 316.032 C 131.282 315.464,132.522 314.460,133.370 313.800 C 134.218 313.140,135.111 312.419,135.356 312.197 C 135.600 311.975,137.330 310.544,139.200 309.017 C 142.520 306.306,152.408 297.864,155.200 295.358 C 158.292 292.583,172.688 280.194,175.600 277.802 C 177.521 276.224,178.937 275.005,186.800 268.157 C 201.000 255.791,216.163 240.170,226.316 227.449 C 227.040 226.542,227.851 225.530,228.118 225.200 C 247.546 201.167,260.331 170.990,258.519 153.440 C 258.153 149.893,258.274 149.841,262.150 151.853 C 273.103 157.539,285.126 158.196,297.055 153.759 C 299.066 153.012,300.995 152.400,301.343 152.400 C 302.101 152.400,304.076 151.317,307.369 149.097 C 323.900 137.948,330.099 114.135,321.297 95.600 C 318.671 90.071,311.914 81.200,310.328 81.200 C 310.175 81.200,308.359 80.054,306.293 78.653 C 301.013 75.073,296.667 73.127,290.600 71.627 C 288.597 71.132,278.857 70.717,276.600 71.031 M310.856 88.700 C 322.169 100.959,323.472 121.126,313.873 135.400 C 310.650 140.194,302.597 147.268,301.043 146.672 C 300.590 146.498,280.615 125.360,276.243 120.428 L 274.685 118.671 276.849 116.635 C 278.038 115.516,280.281 113.430,281.832 112.000 C 283.383 110.570,286.620 107.581,289.026 105.357 C 302.318 93.072,308.818 87.200,309.126 87.200 C 309.316 87.200,310.094 87.875,310.856 88.700 M307.505 106.429 C 306.073 107.264,305.962 108.176,306.842 111.872 C 307.838 116.054,307.665 118.713,306.185 121.945 C 303.571 127.655,308.225 129.966,311.066 124.369 C 314.814 116.987,312.177 103.707,307.505 106.429 M244.200 138.569 C 245.520 138.936,246.810 139.454,247.068 139.719 C 247.556 140.222,245.770 142.048,177.327 210.998 C 161.447 226.995,148.268 240.021,148.041 239.942 C 147.814 239.864,143.902 236.290,139.347 232.000 C 134.792 227.710,129.705 222.920,128.042 221.356 L 125.019 218.512 127.402 215.556 C 129.962 212.379,129.876 212.481,134.818 206.800 C 148.533 191.035,159.548 179.855,174.000 167.031 C 180.412 161.341,198.903 147.600,200.147 147.600 C 200.241 147.600,201.462 146.913,202.859 146.074 C 209.623 142.012,217.282 139.450,227.400 137.864 C 230.224 137.421,241.828 137.908,244.200 138.569 M252.554 145.618 C 254.715 148.187,255.462 158.730,253.814 163.400 C 252.272 167.769,246.518 176.209,241.542 181.400 C 240.066 182.940,238.497 184.620,238.054 185.132 C 237.612 185.645,225.667 197.795,211.510 212.132 C 197.353 226.470,181.559 242.479,176.412 247.709 C 171.265 252.939,166.915 257.169,166.746 257.109 C 166.102 256.881,152.377 243.871,152.486 243.591 C 152.865 242.618,250.454 144.400,251.043 144.400 C 251.310 144.400,251.990 144.948,252.554 145.618 M132.185 233.193 C 137.665 238.689,142.043 243.290,141.915 243.419 C 141.640 243.693,139.182 244.278,131.000 246.016 C 121.449 248.044,111.456 250.197,108.800 250.797 C 108.030 250.971,105.510 251.513,103.200 252.001 C 100.890 252.489,98.598 252.979,98.107 253.090 C 97.037 253.331,95.646 252.880,96.222 252.478 C 96.441 252.325,97.606 251.030,98.810 249.600 C 100.015 248.170,101.098 246.910,101.217 246.800 C 101.337 246.690,105.385 241.920,110.212 236.200 C 120.763 223.699,121.207 223.200,121.775 223.200 C 122.020 223.200,126.705 227.697,132.185 233.193 M153.809 252.600 C 162.869 261.056,162.410 260.104,157.800 260.870 C 156.480 261.089,154.590 261.418,153.600 261.600 C 152.610 261.782,150.630 262.142,149.200 262.400 C 147.770 262.658,145.790 263.018,144.800 263.200 C 143.810 263.382,141.920 263.718,140.600 263.946 C 134.932 264.924,133.738 265.146,132.648 265.421 C 131.886 265.614,131.547 265.567,131.648 265.282 C 132.020 264.228,147.857 248.052,148.447 248.123 C 148.803 248.165,151.216 250.180,153.809 252.600 " stroke="none" fill="#cbcac9" fill-rule="evenodd"></path><path id="path1" d="M301.090 94.257 C 296.861 98.139,291.432 103.134,289.026 105.357 C 286.620 107.581,283.383 110.570,281.832 112.000 C 280.281 113.430,278.038 115.516,276.849 116.635 L 274.685 118.671 276.243 120.428 C 280.615 125.360,300.590 146.498,301.043 146.672 C 302.597 147.268,310.650 140.194,313.873 135.400 C 323.472 121.126,322.169 100.959,310.856 88.700 C 309.022 86.713,309.784 86.279,301.090 94.257 M310.017 106.409 C 313.122 108.071,313.763 119.056,311.066 124.369 C 308.225 129.966,303.571 127.655,306.185 121.945 C 307.665 118.713,307.838 116.054,306.842 111.872 C 305.962 108.176,306.073 107.264,307.505 106.429 C 308.401 105.907,309.069 105.902,310.017 106.409 M214.979 180.247 C 173.679 221.858,152.647 243.177,152.486 243.591 C 152.377 243.871,166.102 256.881,166.746 257.109 C 166.915 257.169,171.265 252.939,176.412 247.709 C 181.559 242.479,197.353 226.470,211.510 212.132 C 225.667 197.795,237.612 185.645,238.054 185.132 C 238.497 184.620,240.066 182.940,241.542 181.400 C 246.518 176.209,252.272 167.769,253.814 163.400 C 255.959 157.322,254.075 144.400,251.043 144.400 C 250.776 144.400,234.547 160.531,214.979 180.247 M139.800 256.448 C 131.161 265.522,130.886 265.867,132.648 265.421 C 133.738 265.146,134.932 264.924,140.600 263.946 C 141.920 263.718,143.810 263.382,144.800 263.200 C 145.790 263.018,147.770 262.658,149.200 262.400 C 150.630 262.142,152.610 261.782,153.600 261.600 C 154.590 261.418,156.480 261.089,157.800 260.870 C 161.747 260.215,161.815 260.142,160.053 258.460 C 153.468 252.174,148.994 248.188,148.447 248.123 C 148.068 248.077,144.491 251.521,139.800 256.448 " stroke="none" fill="#646464" fill-rule="evenodd"></path><path id="path2" d="M195.400 14.800 C 195.261 15.025,193.337 15.200,191.000 15.200 C 188.663 15.200,186.739 15.375,186.600 15.600 C 186.464 15.820,185.114 16.000,183.600 16.000 C 182.086 16.000,180.736 16.180,180.600 16.400 C 180.464 16.620,179.283 16.800,177.976 16.800 C 176.659 16.800,175.600 16.978,175.600 17.200 C 175.600 17.420,174.801 17.600,173.824 17.600 C 172.847 17.600,171.936 17.780,171.800 18.000 C 171.664 18.220,170.764 18.400,169.800 18.400 C 168.836 18.400,167.936 18.580,167.800 18.800 C 167.664 19.020,166.944 19.200,166.200 19.200 C 165.456 19.200,164.736 19.380,164.600 19.600 C 164.464 19.820,163.733 20.000,162.976 20.000 C 162.219 20.000,161.600 20.180,161.600 20.400 C 161.600 20.620,161.060 20.800,160.400 20.800 C 159.740 20.800,159.200 20.980,159.200 21.200 C 159.200 21.420,158.570 21.600,157.800 21.600 C 157.030 21.600,156.400 21.780,156.400 22.000 C 156.400 22.220,155.770 22.400,155.000 22.400 C 154.230 22.400,153.600 22.580,153.600 22.800 C 153.600 23.020,153.060 23.200,152.400 23.200 C 151.740 23.200,151.200 23.380,151.200 23.600 C 151.200 23.820,150.660 24.000,150.000 24.000 C 149.340 24.000,148.800 24.180,148.800 24.400 C 148.800 24.620,148.438 24.800,147.995 24.800 C 147.552 24.800,146.832 24.980,146.395 25.200 C 145.958 25.420,145.242 25.780,144.805 26.000 C 144.368 26.220,143.738 26.400,143.405 26.400 C 143.072 26.400,142.800 26.556,142.800 26.748 C 142.800 26.939,142.204 27.192,141.475 27.310 C 140.746 27.429,139.261 27.923,138.175 28.409 C 137.089 28.895,135.570 29.560,134.800 29.887 C 131.851 31.139,127.394 33.386,127.267 33.686 C 127.193 33.859,126.803 34.000,126.400 34.000 C 125.997 34.000,125.607 34.135,125.533 34.300 C 125.460 34.465,124.545 35.033,123.500 35.563 C 122.455 36.092,121.600 36.677,121.600 36.863 C 121.600 37.048,121.240 37.200,120.800 37.200 C 120.360 37.200,120.000 37.380,120.000 37.600 C 120.000 37.820,119.722 38.000,119.383 38.000 C 119.044 38.000,118.380 38.360,117.908 38.800 C 117.436 39.240,116.813 39.600,116.525 39.600 C 116.236 39.600,116.000 39.780,116.000 40.000 C 116.000 40.220,115.640 40.400,115.200 40.400 C 114.760 40.400,114.400 40.550,114.400 40.732 C 114.400 40.915,113.905 41.320,113.300 41.632 C 112.695 41.945,111.897 42.470,111.527 42.800 C 111.157 43.130,110.167 43.760,109.327 44.200 C 108.487 44.640,107.451 45.315,107.025 45.700 C 106.598 46.085,106.095 46.400,105.906 46.400 C 105.718 46.400,105.114 46.850,104.564 47.400 C 104.014 47.950,103.400 48.400,103.200 48.400 C 103.000 48.400,102.386 48.850,101.836 49.400 C 101.286 49.950,100.677 50.400,100.482 50.400 C 100.287 50.400,99.267 51.213,98.216 52.206 C 97.164 53.199,95.785 54.318,95.152 54.692 C 94.518 55.066,94.000 55.512,94.000 55.683 C 94.000 56.088,91.579 58.400,91.154 58.400 C 90.198 58.400,75.600 73.066,75.600 74.026 C 75.600 74.260,74.700 75.329,73.600 76.400 C 72.500 77.471,71.600 78.456,71.600 78.587 C 71.600 78.719,70.970 79.457,70.200 80.227 C 69.430 80.997,68.800 81.782,68.800 81.971 C 68.800 82.160,68.260 82.893,67.600 83.600 C 66.940 84.307,66.400 85.027,66.400 85.200 C 66.400 85.373,65.869 86.084,65.220 86.778 C 64.572 87.473,63.930 88.392,63.794 88.820 C 63.657 89.249,63.390 89.600,63.200 89.600 C 63.010 89.600,62.747 89.938,62.616 90.351 C 62.484 90.764,61.928 91.619,61.378 92.251 C 60.829 92.883,60.274 93.805,60.146 94.300 C 60.018 94.795,59.753 95.200,59.557 95.200 C 59.360 95.200,59.200 95.470,59.200 95.800 C 59.200 96.130,59.020 96.400,58.800 96.400 C 58.580 96.400,58.400 96.720,58.400 97.112 C 58.400 97.503,58.040 98.083,57.600 98.400 C 57.160 98.717,56.800 99.297,56.800 99.688 C 56.800 100.080,56.665 100.403,56.500 100.406 C 56.335 100.410,55.760 101.310,55.221 102.406 C 54.683 103.503,54.098 104.400,53.921 104.400 C 53.745 104.400,53.600 104.760,53.600 105.200 C 53.600 105.640,53.420 106.000,53.200 106.000 C 52.980 106.000,52.800 106.360,52.800 106.800 C 52.800 107.240,52.620 107.600,52.400 107.600 C 52.180 107.600,52.000 107.960,52.000 108.400 C 52.000 108.840,51.865 109.201,51.700 109.201 C 51.535 109.202,50.950 110.192,50.400 111.400 C 49.850 112.608,49.265 113.598,49.100 113.599 C 48.935 113.599,48.800 113.960,48.800 114.400 C 48.800 114.840,48.620 115.200,48.400 115.200 C 48.180 115.200,48.000 115.472,48.000 115.805 C 48.000 116.138,47.792 116.813,47.538 117.305 C 46.567 119.182,46.400 119.607,46.400 120.195 C 46.400 120.528,46.220 120.800,46.000 120.800 C 45.780 120.800,45.600 121.072,45.600 121.405 C 45.600 121.738,45.392 122.413,45.138 122.905 C 44.149 124.818,44.007 125.217,43.756 126.783 C 43.614 127.672,43.341 128.400,43.149 128.400 C 42.957 128.400,42.800 128.940,42.800 129.600 C 42.800 130.260,42.620 130.800,42.400 130.800 C 42.180 130.800,42.000 131.250,42.000 131.800 C 42.000 132.350,41.820 132.800,41.600 132.800 C 41.380 132.800,41.200 133.430,41.200 134.200 C 41.200 134.970,41.020 135.600,40.800 135.600 C 40.580 135.600,40.400 136.140,40.400 136.800 C 40.400 137.460,40.220 138.000,40.000 138.000 C 39.780 138.000,39.600 138.540,39.600 139.200 C 39.600 139.860,39.420 140.400,39.200 140.400 C 38.980 140.400,38.800 141.120,38.800 142.000 C 38.800 142.880,38.620 143.600,38.400 143.600 C 38.180 143.600,38.000 144.230,38.000 145.000 C 38.000 145.770,37.820 146.400,37.600 146.400 C 37.380 146.400,37.200 147.120,37.200 148.000 C 37.200 148.880,37.020 149.600,36.800 149.600 C 36.580 149.600,36.400 150.399,36.400 151.376 C 36.400 152.353,36.220 153.264,36.000 153.400 C 35.780 153.536,35.600 154.346,35.600 155.200 C 35.600 156.054,35.420 156.864,35.200 157.000 C 34.980 157.136,34.800 158.306,34.800 159.600 C 34.800 160.894,34.620 162.064,34.400 162.200 C 34.180 162.336,34.000 163.506,34.000 164.800 C 34.000 166.094,33.820 167.264,33.600 167.400 C 33.380 167.536,33.200 169.257,33.200 171.224 C 33.200 173.341,33.037 174.800,32.800 174.800 C 32.251 174.800,32.251 203.461,32.800 203.800 C 33.020 203.936,33.200 205.646,33.200 207.600 C 33.200 209.554,33.380 211.264,33.600 211.400 C 33.820 211.536,34.000 212.807,34.000 214.224 C 34.000 215.675,34.175 216.800,34.400 216.800 C 34.620 216.800,34.800 217.779,34.800 218.976 C 34.800 220.173,34.980 221.264,35.200 221.400 C 35.420 221.536,35.600 222.447,35.600 223.424 C 35.600 224.401,35.780 225.200,36.000 225.200 C 36.220 225.200,36.400 226.100,36.400 227.200 C 36.400 228.300,36.580 229.200,36.800 229.200 C 37.020 229.200,37.200 229.819,37.200 230.576 C 37.200 231.333,37.380 232.064,37.600 232.200 C 37.820 232.336,38.000 233.056,38.000 233.800 C 38.000 234.544,38.180 235.264,38.400 235.400 C 38.620 235.536,38.800 236.177,38.800 236.824 C 38.800 237.471,38.980 238.000,39.200 238.000 C 39.420 238.000,39.600 238.529,39.600 239.176 C 39.600 239.823,39.780 240.464,40.000 240.600 C 40.220 240.736,40.400 241.377,40.400 242.024 C 40.400 242.671,40.580 243.200,40.800 243.200 C 41.020 243.200,41.200 243.740,41.200 244.400 C 41.200 245.060,41.380 245.600,41.600 245.600 C 41.820 245.600,42.000 246.140,42.000 246.800 C 42.000 247.460,42.180 248.000,42.400 248.000 C 42.620 248.000,42.800 248.360,42.800 248.800 C 42.800 249.240,42.956 249.600,43.146 249.600 C 43.336 249.600,43.602 250.406,43.737 251.391 C 43.872 252.376,44.152 253.501,44.358 253.891 C 45.259 255.589,46.400 258.441,46.400 258.996 C 46.400 259.328,46.580 259.600,46.800 259.600 C 47.020 259.600,47.200 259.960,47.200 260.400 C 47.200 260.840,47.380 261.200,47.600 261.200 C 47.820 261.200,48.000 261.560,48.000 262.000 C 48.000 262.440,48.180 262.800,48.400 262.800 C 48.620 262.800,48.800 263.160,48.800 263.600 C 48.800 264.040,48.980 264.400,49.200 264.400 C 49.420 264.400,49.600 264.653,49.600 264.962 C 49.600 265.628,51.268 268.941,51.700 269.133 C 51.865 269.207,52.000 269.612,52.000 270.033 C 52.000 270.455,52.180 270.800,52.400 270.800 C 52.620 270.800,52.800 271.160,52.800 271.600 C 52.800 272.040,52.980 272.400,53.200 272.400 C 53.420 272.400,53.600 272.670,53.600 273.000 C 53.600 273.330,53.780 273.600,54.000 273.600 C 54.220 273.600,54.400 273.960,54.400 274.400 C 54.400 274.840,54.580 275.200,54.800 275.200 C 55.020 275.200,55.200 275.520,55.200 275.912 C 55.200 276.303,55.560 276.883,56.000 277.200 C 56.440 277.517,56.800 278.097,56.800 278.488 C 56.800 278.880,56.980 279.200,57.200 279.200 C 57.420 279.200,57.600 279.436,57.600 279.725 C 57.600 280.013,57.960 280.636,58.400 281.108 C 58.840 281.580,59.200 282.244,59.200 282.583 C 59.200 282.922,59.345 283.200,59.523 283.200 C 59.701 283.200,60.164 283.920,60.552 284.800 C 60.940 285.680,61.425 286.400,61.629 286.400 C 61.833 286.400,62.000 286.636,62.000 286.925 C 62.000 287.213,62.360 287.836,62.800 288.308 C 63.240 288.780,63.600 289.354,63.600 289.583 C 63.600 289.812,63.735 290.001,63.900 290.003 C 64.065 290.004,64.650 290.679,65.200 291.502 C 65.750 292.326,66.605 293.413,67.100 293.918 C 67.595 294.423,68.000 295.002,68.000 295.205 C 68.000 295.408,68.630 296.203,69.400 296.973 C 70.170 297.743,70.800 298.573,70.800 298.818 C 70.800 299.063,71.520 299.954,72.400 300.800 C 73.280 301.646,74.000 302.439,74.000 302.564 C 74.000 303.167,79.708 309.200,80.278 309.200 C 80.675 309.200,84.657 305.212,98.217 291.232 C 101.508 287.839,105.370 283.860,106.800 282.388 C 108.230 280.917,111.191 277.843,113.380 275.557 C 115.569 273.270,121.869 266.755,127.380 261.077 C 138.063 250.071,138.358 249.720,136.552 250.182 C 135.918 250.345,132.880 251.006,129.800 251.652 C 126.720 252.298,123.300 253.020,122.200 253.257 C 121.100 253.494,119.435 253.848,118.500 254.044 C 117.565 254.240,115.990 254.580,115.000 254.800 C 114.010 255.020,112.390 255.380,111.400 255.600 C 110.410 255.820,108.745 256.190,107.700 256.422 C 106.655 256.654,105.170 256.936,104.400 257.047 C 103.630 257.158,102.640 257.404,102.200 257.593 C 101.760 257.782,100.680 258.056,99.800 258.203 C 98.171 258.475,96.298 258.862,92.900 259.629 C 88.607 260.598,87.788 260.565,86.857 259.382 C 85.317 257.424,85.870 256.313,91.400 250.239 C 91.620 249.998,93.680 247.550,95.977 244.800 C 98.274 242.050,100.794 239.075,101.577 238.190 C 102.360 237.304,103.810 235.601,104.800 234.404 C 105.790 233.208,107.154 231.592,107.832 230.814 C 111.710 226.362,118.107 218.727,119.295 217.135 C 119.896 216.329,120.616 215.429,120.896 215.135 C 121.175 214.841,122.213 213.615,123.202 212.411 C 124.191 211.208,125.393 209.768,125.874 209.211 C 126.354 208.655,128.589 206.040,130.841 203.400 C 139.552 193.184,148.566 183.733,160.979 171.800 C 164.906 168.025,170.498 163.061,174.272 160.000 C 174.679 159.670,175.910 158.665,177.006 157.766 C 180.053 155.269,185.504 151.159,188.397 149.178 C 189.826 148.200,191.345 147.085,191.773 146.700 C 192.201 146.315,192.787 146.000,193.075 146.000 C 193.364 146.000,193.600 145.842,193.600 145.649 C 193.600 145.455,194.140 145.073,194.800 144.800 C 195.460 144.527,196.000 144.166,196.000 143.998 C 196.000 143.830,196.315 143.590,196.700 143.464 C 197.085 143.338,198.300 142.690,199.400 142.022 C 210.749 135.140,223.864 131.892,237.700 132.536 C 240.882 132.685,242.800 132.628,242.800 132.387 C 242.800 132.174,242.620 132.000,242.400 132.000 C 242.180 132.000,242.000 131.728,242.000 131.395 C 242.000 130.807,241.833 130.382,240.862 128.505 C 240.608 128.013,240.400 127.259,240.400 126.829 C 240.400 126.399,240.220 125.936,240.000 125.800 C 239.780 125.664,239.600 125.122,239.600 124.595 C 239.600 124.069,239.435 123.224,239.234 122.719 C 237.559 118.518,238.062 105.415,240.047 101.505 C 240.241 101.123,240.400 100.536,240.400 100.200 C 240.400 99.864,240.560 99.277,240.755 98.895 C 240.950 98.513,242.068 96.265,243.239 93.900 C 244.411 91.535,245.511 89.600,245.685 89.600 C 245.858 89.600,246.000 89.400,246.000 89.155 C 246.000 87.746,255.766 78.000,257.179 78.000 C 257.410 78.000,257.600 77.848,257.600 77.663 C 257.600 77.477,258.455 76.892,259.500 76.363 C 260.545 75.833,261.460 75.265,261.533 75.100 C 261.607 74.935,261.916 74.800,262.221 74.800 C 262.526 74.800,263.366 74.476,264.088 74.079 C 270.689 70.454,282.672 69.207,291.200 71.258 C 295.341 72.254,302.794 75.266,303.133 76.080 C 303.207 76.256,303.477 76.404,303.733 76.408 C 304.197 76.416,308.245 79.282,312.345 82.505 C 315.997 85.376,320.780 92.494,323.295 98.800 C 323.514 99.350,323.852 100.113,324.047 100.495 C 324.241 100.877,324.400 101.541,324.400 101.971 C 324.400 102.401,324.554 102.848,324.743 102.965 C 326.050 103.772,326.077 118.198,324.781 123.300 C 323.729 127.444,323.494 128.254,323.161 128.895 C 322.962 129.277,322.800 129.832,322.800 130.130 C 322.800 136.200,307.798 151.668,300.400 153.226 C 299.630 153.388,297.920 153.922,296.600 154.412 C 286.968 157.992,276.230 157.996,266.600 154.422 C 266.160 154.259,264.360 153.426,262.600 152.571 C 260.840 151.715,259.245 150.945,259.055 150.859 C 258.865 150.773,258.825 151.940,258.966 153.452 C 259.233 156.310,258.729 163.393,257.988 167.200 C 257.752 168.410,257.459 170.076,257.337 170.903 C 257.215 171.729,256.955 172.505,256.758 172.626 C 256.561 172.748,256.400 173.229,256.400 173.695 C 256.400 174.506,255.856 176.491,255.166 178.200 C 254.988 178.640,254.279 180.710,253.591 182.800 C 252.350 186.565,247.154 197.549,244.791 201.400 C 244.117 202.500,243.462 203.715,243.336 204.100 C 243.210 204.485,242.948 204.800,242.753 204.800 C 242.559 204.800,242.400 204.992,242.400 205.226 C 242.400 206.086,229.525 224.692,228.025 226.000 C 227.899 226.110,227.304 226.859,226.704 227.665 C 226.103 228.471,225.380 229.371,225.097 229.665 C 224.814 229.959,223.474 231.550,222.119 233.200 C 212.859 244.479,194.873 262.351,183.250 271.825 C 182.727 272.251,181.913 272.960,181.440 273.400 C 180.546 274.232,178.694 275.832,175.356 278.654 C 170.965 282.366,166.464 286.216,164.200 288.195 C 162.880 289.350,161.170 290.809,160.400 291.439 C 159.630 292.069,158.730 292.860,158.400 293.197 C 158.070 293.534,156.630 294.796,155.200 296.002 C 153.770 297.208,152.510 298.289,152.400 298.403 C 152.290 298.518,150.940 299.689,149.400 301.006 C 147.860 302.323,146.510 303.492,146.400 303.605 C 146.290 303.719,145.210 304.618,144.000 305.604 C 142.790 306.590,141.598 307.587,141.351 307.819 C 141.103 308.052,140.137 308.862,139.204 309.621 C 138.270 310.379,137.302 311.186,137.053 311.413 C 134.915 313.360,123.294 322.404,118.565 325.800 C 117.952 326.240,116.990 326.975,116.426 327.433 C 115.862 327.891,114.235 329.050,112.811 330.008 C 111.387 330.966,109.819 332.186,109.326 332.717 L 108.430 333.684 110.997 335.442 C 112.409 336.409,113.753 337.200,113.982 337.200 C 114.212 337.200,114.400 337.358,114.400 337.551 C 114.400 337.745,114.940 338.127,115.600 338.400 C 116.260 338.673,116.800 339.055,116.800 339.249 C 116.800 339.442,117.160 339.600,117.600 339.600 C 118.040 339.600,118.400 339.747,118.400 339.926 C 118.400 340.324,121.001 341.600,121.814 341.600 C 122.136 341.600,122.400 341.780,122.400 342.000 C 122.400 342.220,122.760 342.400,123.200 342.400 C 123.640 342.400,124.000 342.580,124.000 342.800 C 124.000 343.020,124.236 343.200,124.525 343.200 C 124.813 343.200,125.436 343.560,125.908 344.000 C 126.380 344.440,126.936 344.800,127.143 344.800 C 127.350 344.800,128.545 345.340,129.800 346.000 C 131.055 346.660,132.333 347.200,132.641 347.200 C 132.948 347.200,133.200 347.380,133.200 347.600 C 133.200 347.820,133.560 348.000,134.000 348.000 C 134.440 348.000,134.800 348.180,134.800 348.400 C 134.800 348.620,135.160 348.800,135.600 348.800 C 136.040 348.800,136.400 348.947,136.400 349.128 C 136.400 349.308,137.300 349.700,138.400 350.000 C 139.500 350.300,140.400 350.692,140.400 350.872 C 140.400 351.053,140.672 351.200,141.005 351.200 C 141.593 351.200,142.018 351.367,143.895 352.338 C 144.387 352.592,145.152 352.800,145.595 352.800 C 146.038 352.800,146.400 352.941,146.400 353.113 C 146.400 353.285,147.255 353.675,148.300 353.980 C 149.345 354.285,150.470 354.667,150.800 354.828 C 151.130 354.990,152.210 355.337,153.200 355.600 C 154.190 355.863,155.313 356.240,155.695 356.439 C 156.077 356.638,156.842 356.800,157.395 356.800 C 157.948 356.800,158.400 356.960,158.400 357.156 C 158.400 357.352,158.985 357.608,159.700 357.726 C 164.526 358.518,166.800 359.018,166.800 359.289 C 166.800 359.460,167.700 359.600,168.800 359.600 C 169.900 359.600,170.800 359.780,170.800 360.000 C 170.800 360.220,171.700 360.400,172.800 360.400 C 173.900 360.400,174.800 360.580,174.800 360.800 C 174.800 361.020,175.779 361.200,176.976 361.200 C 178.173 361.200,179.264 361.380,179.400 361.600 C 179.536 361.820,180.807 362.000,182.224 362.000 C 183.675 362.000,184.800 362.175,184.800 362.400 C 184.800 362.637,186.259 362.800,188.376 362.800 C 190.343 362.800,192.064 362.980,192.200 363.200 C 192.358 363.455,197.804 363.600,207.224 363.600 C 216.808 363.600,222.000 363.459,222.000 363.200 C 222.000 362.963,223.459 362.800,225.576 362.800 C 227.543 362.800,229.264 362.620,229.400 362.400 C 229.536 362.180,230.807 362.000,232.224 362.000 C 233.675 362.000,234.800 361.825,234.800 361.600 C 234.800 361.380,235.790 361.200,237.000 361.200 C 238.210 361.200,239.200 361.020,239.200 360.800 C 239.200 360.580,240.100 360.400,241.200 360.400 C 242.300 360.400,243.200 360.220,243.200 360.000 C 243.200 359.780,244.100 359.600,245.200 359.600 C 246.300 359.600,247.200 359.453,247.200 359.274 C 247.200 359.094,248.505 358.730,250.100 358.464 C 255.205 357.613,255.600 357.519,255.600 357.156 C 255.600 356.960,256.052 356.800,256.605 356.800 C 257.158 356.800,257.923 356.641,258.305 356.446 C 258.687 356.251,260.260 355.702,261.800 355.226 C 264.535 354.379,265.889 353.869,267.295 353.153 C 267.677 352.959,268.264 352.800,268.600 352.800 C 268.936 352.800,269.568 352.620,270.005 352.400 C 270.442 352.180,271.158 351.820,271.595 351.600 C 272.032 351.380,272.662 351.200,272.995 351.200 C 273.328 351.200,273.600 351.020,273.600 350.800 C 273.600 350.580,273.960 350.400,274.400 350.400 C 274.840 350.400,275.200 350.220,275.200 350.000 C 275.200 349.780,275.740 349.600,276.400 349.600 C 277.060 349.600,277.600 349.420,277.600 349.200 C 277.600 348.980,277.960 348.800,278.400 348.800 C 278.840 348.800,279.200 348.620,279.200 348.400 C 279.200 348.180,279.560 348.000,280.000 348.000 C 280.440 348.000,280.800 347.820,280.800 347.600 C 280.800 347.380,281.160 347.200,281.600 347.200 C 282.040 347.200,282.400 347.020,282.400 346.800 C 282.400 346.580,282.760 346.400,283.200 346.400 C 283.640 346.400,284.000 346.220,284.000 346.000 C 284.000 345.780,284.360 345.600,284.800 345.600 C 285.240 345.600,285.600 345.420,285.600 345.200 C 285.600 344.980,285.960 344.800,286.400 344.800 C 286.840 344.800,287.200 344.620,287.200 344.400 C 287.200 344.180,287.560 344.000,288.000 344.000 C 288.440 344.000,288.800 343.854,288.800 343.675 C 288.800 343.496,289.430 343.102,290.200 342.800 C 290.970 342.498,291.600 342.104,291.600 341.925 C 291.600 341.746,291.947 341.600,292.371 341.600 C 292.796 341.600,293.413 341.330,293.743 341.000 C 294.073 340.670,294.626 340.400,294.971 340.400 C 295.317 340.400,295.600 340.220,295.600 340.000 C 295.600 339.780,295.836 339.600,296.125 339.600 C 296.413 339.600,297.036 339.240,297.508 338.800 C 297.980 338.360,298.644 338.000,298.983 338.000 C 299.322 338.000,299.600 337.820,299.600 337.600 C 299.600 337.380,299.836 337.200,300.125 337.200 C 300.413 337.200,301.036 336.840,301.508 336.400 C 301.980 335.960,302.532 335.600,302.734 335.600 C 302.937 335.600,303.329 335.327,303.606 334.993 C 303.883 334.659,304.715 334.098,305.455 333.747 C 306.195 333.396,306.800 332.949,306.800 332.754 C 306.800 332.559,306.998 332.400,307.240 332.400 C 307.481 332.400,308.183 331.860,308.800 331.200 C 309.417 330.540,310.137 330.000,310.400 330.000 C 310.663 330.000,311.383 329.460,312.000 328.800 C 312.617 328.140,313.337 327.600,313.600 327.600 C 313.863 327.600,314.556 327.089,315.140 326.465 C 315.723 325.841,316.676 325.076,317.257 324.765 C 319.445 323.596,336.216 307.449,339.465 303.383 C 340.161 302.512,341.106 301.403,341.565 300.917 C 342.024 300.431,342.400 299.846,342.400 299.617 C 342.400 299.388,342.580 299.200,342.800 299.200 C 343.020 299.200,343.200 299.002,343.200 298.760 C 343.200 298.519,343.740 297.817,344.400 297.200 C 345.060 296.583,345.600 295.863,345.600 295.600 C 345.600 295.337,346.140 294.617,346.800 294.000 C 347.460 293.383,348.000 292.673,348.000 292.421 C 348.000 292.170,348.405 291.544,348.900 291.032 C 350.374 289.507,351.200 288.416,351.200 287.995 C 351.200 287.778,351.380 287.600,351.600 287.600 C 351.820 287.600,352.000 287.412,352.000 287.183 C 352.000 286.954,352.360 286.380,352.800 285.908 C 353.240 285.436,353.600 284.813,353.600 284.525 C 353.600 284.236,353.780 284.000,354.000 284.000 C 354.220 284.000,354.400 283.764,354.400 283.475 C 354.400 283.187,354.760 282.564,355.200 282.092 C 355.640 281.620,356.000 280.956,356.000 280.617 C 356.000 280.278,356.158 280.000,356.351 280.000 C 356.545 280.000,356.927 279.460,357.200 278.800 C 357.473 278.140,357.855 277.600,358.049 277.600 C 358.242 277.600,358.400 277.313,358.400 276.962 C 358.400 276.256,359.627 273.877,360.100 273.667 C 360.265 273.593,360.400 273.278,360.400 272.967 C 360.400 272.655,360.580 272.400,360.800 272.400 C 361.020 272.400,361.200 272.040,361.200 271.600 C 361.200 271.160,361.380 270.800,361.600 270.800 C 361.820 270.800,362.000 270.440,362.000 270.000 C 362.000 269.560,362.180 269.200,362.400 269.200 C 362.620 269.200,362.800 268.840,362.800 268.400 C 362.800 267.960,362.980 267.600,363.200 267.600 C 363.420 267.600,363.600 267.240,363.600 266.800 C 363.600 266.360,363.780 266.000,364.000 266.000 C 364.220 266.000,364.400 265.640,364.400 265.200 C 364.400 264.760,364.580 264.400,364.800 264.400 C 365.020 264.400,365.200 264.040,365.200 263.600 C 365.200 263.160,365.380 262.800,365.600 262.800 C 365.820 262.800,366.000 262.440,366.000 262.000 C 366.000 261.560,366.180 261.200,366.400 261.200 C 366.620 261.200,366.800 260.660,366.800 260.000 C 366.800 259.340,366.936 258.800,367.102 258.800 C 367.269 258.800,367.640 258.215,367.929 257.500 C 368.217 256.785,368.621 255.887,368.826 255.505 C 369.032 255.123,369.200 254.538,369.200 254.205 C 369.200 253.872,369.380 253.600,369.600 253.600 C 369.820 253.600,370.000 253.238,370.000 252.795 C 370.000 252.352,370.208 251.587,370.462 251.095 C 371.458 249.169,371.600 248.783,371.600 248.005 C 371.600 247.562,371.780 247.200,372.000 247.200 C 372.220 247.200,372.400 246.671,372.400 246.024 C 372.400 245.377,372.580 244.736,372.800 244.600 C 373.020 244.464,373.200 243.924,373.200 243.400 C 373.200 242.876,373.380 242.336,373.600 242.200 C 373.820 242.064,374.000 241.524,374.000 241.000 C 374.000 240.476,374.162 239.947,374.361 239.824 C 374.559 239.702,374.847 238.521,375.000 237.200 C 375.153 235.879,375.441 234.698,375.639 234.576 C 375.838 234.453,376.000 233.733,376.000 232.976 C 376.000 232.219,376.180 231.600,376.400 231.600 C 376.620 231.600,376.800 230.891,376.800 230.024 C 376.800 229.157,376.980 228.336,377.200 228.200 C 377.420 228.064,377.600 227.153,377.600 226.176 C 377.600 225.199,377.780 224.400,378.000 224.400 C 378.220 224.400,378.400 223.601,378.400 222.624 C 378.400 221.647,378.580 220.736,378.800 220.600 C 379.020 220.464,379.200 219.193,379.200 217.776 C 379.200 216.325,379.375 215.200,379.600 215.200 C 379.829 215.200,380.000 214.000,380.000 212.400 C 380.000 210.800,380.171 209.600,380.400 209.600 C 380.641 209.600,380.800 207.941,380.800 205.424 C 380.800 203.071,380.975 201.139,381.200 201.000 C 381.452 200.844,381.600 196.404,381.600 189.000 C 381.600 181.596,381.452 177.156,381.200 177.000 C 380.975 176.861,380.800 174.929,380.800 172.576 C 380.800 170.279,380.635 168.400,380.433 168.400 C 380.231 168.400,379.964 167.185,379.839 165.700 C 379.250 158.678,379.107 157.600,378.766 157.600 C 378.565 157.600,378.400 156.790,378.400 155.800 C 378.400 154.810,378.220 154.000,378.000 154.000 C 377.780 154.000,377.600 153.111,377.600 152.024 C 377.600 150.937,377.420 149.936,377.200 149.800 C 376.980 149.664,376.800 148.933,376.800 148.176 C 376.800 147.419,376.620 146.800,376.400 146.800 C 376.180 146.800,376.000 146.080,376.000 145.200 C 376.000 144.320,375.841 143.600,375.646 143.600 C 375.451 143.600,375.163 142.565,375.006 141.300 C 374.849 140.035,374.605 138.820,374.463 138.600 C 374.007 137.889,373.212 135.420,373.206 134.695 C 373.203 134.307,372.992 133.587,372.738 133.095 C 371.744 131.174,371.600 130.784,371.600 130.029 C 371.600 129.599,371.420 129.136,371.200 129.000 C 370.980 128.864,370.800 128.403,370.800 127.976 C 370.800 127.549,370.620 127.200,370.400 127.200 C 370.180 127.200,370.000 126.660,370.000 126.000 C 370.000 125.340,369.820 124.800,369.600 124.800 C 369.380 124.800,369.200 124.440,369.200 124.000 C 369.200 123.560,369.020 123.200,368.800 123.200 C 368.580 123.200,368.400 122.761,368.400 122.224 C 368.400 121.687,368.220 121.136,368.000 121.000 C 367.780 120.864,367.600 120.403,367.600 119.976 C 367.600 119.549,367.420 119.200,367.200 119.200 C 366.980 119.200,366.800 118.840,366.800 118.400 C 366.800 117.960,366.620 117.600,366.400 117.600 C 366.180 117.600,366.000 117.251,366.000 116.824 C 366.000 116.397,365.820 115.936,365.600 115.800 C 365.380 115.664,365.200 115.203,365.200 114.776 C 365.200 114.349,365.020 114.000,364.800 114.000 C 364.580 114.000,364.400 113.640,364.400 113.200 C 364.400 112.760,364.220 112.400,364.000 112.400 C 363.780 112.400,363.600 112.040,363.600 111.600 C 363.600 111.160,363.420 110.800,363.200 110.800 C 362.980 110.800,362.800 110.440,362.800 110.000 C 362.800 109.560,362.620 109.200,362.400 109.200 C 362.180 109.200,362.000 108.922,362.000 108.583 C 362.000 108.244,361.640 107.580,361.200 107.108 C 360.760 106.636,360.400 106.013,360.400 105.725 C 360.400 105.436,360.220 105.200,360.000 105.200 C 359.780 105.200,359.600 104.840,359.600 104.400 C 359.600 103.960,359.420 103.600,359.200 103.600 C 358.980 103.600,358.800 103.282,358.800 102.893 C 358.800 102.504,358.350 101.523,357.800 100.714 C 357.250 99.905,356.800 99.130,356.800 98.993 C 356.800 98.856,356.260 97.959,355.600 97.000 C 354.940 96.041,354.400 95.103,354.400 94.916 C 354.400 94.729,354.040 94.317,353.600 94.000 C 353.160 93.683,352.800 93.169,352.800 92.859 C 352.800 92.548,352.484 92.003,352.097 91.647 C 351.711 91.291,351.140 90.505,350.830 89.900 C 350.519 89.295,350.115 88.800,349.932 88.800 C 349.750 88.800,349.600 88.557,349.600 88.259 C 349.600 87.962,349.060 87.154,348.400 86.463 C 347.740 85.772,347.200 85.008,347.200 84.764 C 347.200 84.520,346.660 83.817,346.000 83.200 C 345.340 82.583,344.800 81.881,344.800 81.640 C 344.800 81.398,344.620 81.200,344.400 81.200 C 344.180 81.200,344.000 81.002,344.000 80.760 C 344.000 80.519,343.460 79.817,342.800 79.200 C 342.140 78.583,341.600 77.919,341.600 77.722 C 341.600 77.526,340.340 76.031,338.800 74.400 C 337.260 72.769,336.000 71.294,336.000 71.122 C 336.000 70.713,327.773 62.539,325.583 60.771 C 324.649 60.017,322.924 58.455,321.751 57.300 C 320.577 56.145,319.433 55.200,319.209 55.200 C 318.984 55.200,318.800 55.020,318.800 54.800 C 318.800 54.580,318.620 54.400,318.400 54.400 C 318.181 54.400,317.259 53.680,316.352 52.800 C 315.445 51.920,314.527 51.200,314.312 51.200 C 314.097 51.200,313.417 50.660,312.800 50.000 C 312.183 49.340,311.457 48.800,311.186 48.800 C 310.916 48.800,310.403 48.477,310.047 48.083 C 309.117 47.051,304.053 43.600,303.469 43.600 C 303.198 43.600,302.717 43.240,302.400 42.800 C 302.083 42.360,301.543 42.000,301.200 42.000 C 300.857 42.000,300.317 41.640,300.000 41.200 C 299.683 40.760,299.103 40.400,298.712 40.400 C 298.320 40.400,298.000 40.220,298.000 40.000 C 298.000 39.780,297.680 39.600,297.288 39.600 C 296.897 39.600,296.317 39.240,296.000 38.800 C 295.683 38.360,295.103 38.000,294.712 38.000 C 294.320 38.000,294.000 37.820,294.000 37.600 C 294.000 37.380,293.640 37.200,293.200 37.200 C 292.760 37.200,292.400 37.020,292.400 36.800 C 292.400 36.580,292.130 36.400,291.800 36.400 C 291.470 36.400,291.199 36.265,291.197 36.100 C 291.195 35.935,290.790 35.599,290.297 35.353 C 289.804 35.107,287.212 33.802,284.538 32.453 C 281.864 31.104,279.389 30.000,279.038 30.000 C 278.687 30.000,278.400 29.820,278.400 29.600 C 278.400 29.380,278.164 29.200,277.875 29.200 C 277.586 29.200,276.574 28.825,275.626 28.367 C 274.677 27.909,273.294 27.435,272.551 27.315 C 271.808 27.194,271.200 26.939,271.200 26.748 C 271.200 26.556,270.750 26.400,270.200 26.400 C 269.650 26.400,269.200 26.220,269.200 26.000 C 269.200 25.780,268.761 25.600,268.224 25.600 C 267.687 25.600,267.136 25.420,267.000 25.200 C 266.864 24.980,266.403 24.800,265.976 24.800 C 265.549 24.800,265.200 24.620,265.200 24.400 C 265.200 24.180,264.660 24.000,264.000 24.000 C 263.340 24.000,262.800 23.820,262.800 23.600 C 262.800 23.380,262.271 23.200,261.624 23.200 C 260.977 23.200,260.336 23.020,260.200 22.800 C 260.064 22.580,259.423 22.400,258.776 22.400 C 258.129 22.400,257.600 22.220,257.600 22.000 C 257.600 21.780,257.060 21.600,256.400 21.600 C 255.740 21.600,255.200 21.420,255.200 21.200 C 255.200 20.980,254.480 20.800,253.600 20.800 C 252.720 20.800,252.000 20.620,252.000 20.400 C 252.000 20.180,251.280 20.000,250.400 20.000 C 249.520 20.000,248.800 19.820,248.800 19.600 C 248.800 19.380,248.080 19.200,247.200 19.200 C 246.320 19.200,245.600 19.020,245.600 18.800 C 245.600 18.580,244.700 18.400,243.600 18.400 C 242.500 18.400,241.600 18.220,241.600 18.000 C 241.600 17.780,240.790 17.600,239.800 17.600 C 238.810 17.600,238.000 17.420,238.000 17.200 C 238.000 16.978,236.941 16.800,235.624 16.800 C 234.317 16.800,233.136 16.620,233.000 16.400 C 232.864 16.180,231.413 16.000,229.776 16.000 C 228.059 16.000,226.800 15.831,226.800 15.600 C 226.800 15.359,225.141 15.200,222.624 15.200 C 220.271 15.200,218.339 15.025,218.200 14.800 C 217.863 14.255,195.737 14.255,195.400 14.800 M121.133 223.960 C 121.060 224.158,118.660 227.057,115.800 230.404 C 112.940 233.751,110.271 236.874,109.869 237.344 C 109.468 237.815,108.361 239.100,107.410 240.200 C 103.779 244.399,96.775 252.800,96.903 252.800 C 96.978 252.800,99.190 252.339,101.819 251.775 C 104.449 251.211,107.950 250.472,109.600 250.132 C 111.250 249.793,113.230 249.373,114.000 249.198 C 116.225 248.694,119.654 247.943,121.500 247.556 C 122.435 247.360,124.055 247.010,125.100 246.778 C 126.145 246.546,127.630 246.264,128.400 246.153 C 129.170 246.042,130.160 245.794,130.600 245.602 C 131.426 245.243,133.029 244.914,135.800 244.536 C 136.680 244.416,137.571 244.156,137.780 243.959 C 137.989 243.762,138.844 243.600,139.680 243.600 C 141.914 243.600,142.001 243.711,131.579 233.254 C 122.316 223.958,121.427 223.168,121.133 223.960 M40.499 356.931 C 38.683 358.729,34.993 362.426,32.299 365.146 C 29.604 367.866,24.457 373.014,20.859 376.587 C 13.660 383.735,13.234 384.501,16.333 384.724 C 17.282 384.793,18.283 384.663,18.557 384.436 C 18.871 384.175,23.147 384.010,30.118 383.988 C 36.559 383.967,41.279 383.795,41.415 383.576 C 41.551 383.356,46.188 383.200,52.600 383.200 C 59.470 383.200,63.645 383.051,63.800 382.800 C 63.942 382.571,66.004 382.400,68.624 382.400 C 74.423 382.400,74.492 382.715,67.100 375.481 C 63.745 372.198,57.390 365.931,52.978 361.556 C 48.565 357.180,44.695 353.614,44.378 353.631 C 44.060 353.649,42.314 355.134,40.499 356.931 " stroke="none" fill="#f45c24" fill-rule="evenodd"></path><path id="path3" d="M228.000 138.446 C 223.956 138.885,220.570 139.556,216.400 140.746 C 215.630 140.966,214.550 141.263,214.000 141.406 C 209.730 142.518,196.432 149.997,190.411 154.674 C 190.075 154.935,188.180 156.355,186.200 157.829 C 182.943 160.255,178.912 163.448,178.400 164.008 C 178.290 164.128,176.940 165.279,175.400 166.565 C 167.577 173.100,151.370 188.931,143.424 197.800 C 137.941 203.919,137.293 204.657,134.802 207.601 C 133.594 209.031,132.503 210.290,132.379 210.400 C 132.255 210.510,130.904 212.130,129.376 214.000 C 127.849 215.870,126.465 217.460,126.300 217.533 C 125.552 217.866,126.172 218.915,128.276 220.877 C 129.527 222.045,132.362 224.725,134.576 226.833 C 136.789 228.941,140.760 232.680,143.400 235.142 L 148.200 239.617 172.354 215.309 C 240.630 146.595,246.799 140.275,246.080 139.779 C 244.041 138.373,234.894 137.698,228.000 138.446 " stroke="none" fill="#fc941c" fill-rule="evenodd"></path><path id="path4" d="M278.000 70.419 C 276.923 70.597,277.727 70.633,280.000 70.508 C 282.090 70.393,283.875 70.231,283.967 70.149 C 284.241 69.903,279.935 70.098,278.000 70.419 M285.105 70.683 C 285.602 70.779,286.322 70.775,286.705 70.675 C 287.087 70.575,286.680 70.496,285.800 70.501 C 284.920 70.505,284.607 70.587,285.105 70.683 M272.400 71.197 C 271.850 71.380,270.884 71.645,270.253 71.784 C 269.622 71.924,269.185 72.119,269.283 72.216 C 269.380 72.313,270.436 72.140,271.630 71.830 C 272.823 71.521,274.340 71.189,275.000 71.094 C 276.136 70.929,276.125 70.918,274.800 70.892 C 274.030 70.876,272.950 71.013,272.400 71.197 M288.400 71.064 C 291.016 71.469,294.813 72.579,298.300 73.958 C 300.654 74.889,301.216 74.752,298.942 73.802 C 295.024 72.165,290.086 70.774,288.480 70.854 C 287.416 70.908,287.415 70.911,288.400 71.064 M301.200 75.183 C 302.406 76.075,303.200 76.424,303.200 76.061 C 303.200 75.859,302.885 75.582,302.500 75.446 C 302.115 75.311,301.530 75.096,301.200 74.969 C 300.667 74.765,300.667 74.788,301.200 75.183 M258.229 77.009 C 257.805 77.329,257.538 77.671,257.635 77.769 C 257.732 77.866,258.259 77.602,258.806 77.182 C 259.353 76.761,259.620 76.420,259.400 76.422 C 259.180 76.424,258.653 76.688,258.229 77.009 M303.633 76.564 C 304.246 77.167,308.044 79.594,307.828 79.245 C 307.507 78.726,304.182 76.400,303.761 76.400 C 303.599 76.400,303.542 76.474,303.633 76.564 M255.762 78.862 L 255.000 79.724 256.100 79.016 C 257.234 78.286,257.449 78.000,256.862 78.000 C 256.676 78.000,256.181 78.388,255.762 78.862 M252.344 81.701 C 249.656 84.202,245.788 88.721,246.083 89.016 C 246.198 89.131,246.615 88.731,247.011 88.127 C 247.406 87.524,249.347 85.358,251.324 83.315 C 255.344 79.159,255.728 78.552,252.344 81.701 M313.606 84.229 C 315.259 85.973,317.059 87.950,317.606 88.622 C 319.190 90.570,318.317 89.229,316.289 86.600 C 315.271 85.280,313.575 83.493,312.519 82.629 C 310.969 81.360,311.178 81.667,313.606 84.229 M244.873 90.600 C 244.622 91.150,244.483 91.600,244.563 91.600 C 244.643 91.600,245.003 91.150,245.363 90.600 C 245.724 90.050,245.863 89.600,245.673 89.600 C 245.484 89.600,245.123 90.050,244.873 90.600 M318.818 90.600 C 318.818 90.820,319.170 91.450,319.600 92.000 C 320.030 92.550,320.382 92.820,320.382 92.600 C 320.382 92.380,320.030 91.750,319.600 91.200 C 319.170 90.650,318.818 90.380,318.818 90.600 M240.667 99.067 C 240.520 99.213,240.411 99.708,240.425 100.167 C 240.449 100.933,240.482 100.923,240.834 100.042 C 241.226 99.063,241.144 98.589,240.667 99.067 M239.867 101.467 C 239.720 101.613,239.615 102.198,239.634 102.767 C 239.668 103.781,239.675 103.779,240.021 102.620 C 240.385 101.403,240.331 101.002,239.867 101.467 M324.428 103.076 C 324.518 104.115,325.144 104.996,325.172 104.124 C 325.187 103.642,325.020 103.136,324.800 103.000 C 324.580 102.864,324.413 102.898,324.428 103.076 M239.073 104.881 C 238.293 108.101,237.894 114.003,238.294 116.412 L 238.725 119.000 238.534 115.800 C 238.426 113.980,238.604 110.791,238.946 108.407 C 239.512 104.457,239.571 102.828,239.073 104.881 M325.396 112.217 C 325.394 115.440,325.511 117.656,325.656 117.139 C 325.997 115.927,326.000 108.481,325.660 107.277 C 325.517 106.770,325.398 108.993,325.396 112.217 M238.806 120.633 C 238.809 121.495,238.988 122.470,239.203 122.800 C 239.470 123.210,239.514 122.765,239.341 121.400 C 239.025 118.905,238.798 118.581,238.806 120.633 M324.653 121.741 C 324.486 122.588,324.441 123.375,324.555 123.488 C 324.858 123.791,325.297 121.785,325.114 120.932 C 325.020 120.490,324.837 120.811,324.653 121.741 M239.600 124.510 C 239.600 125.083,239.787 125.668,240.016 125.810 C 240.289 125.979,240.338 125.677,240.160 124.934 C 239.792 123.401,239.600 123.256,239.600 124.510 M323.829 125.429 C 323.681 126.015,323.651 126.584,323.761 126.694 C 323.871 126.804,324.081 126.415,324.229 125.829 C 324.376 125.242,324.406 124.673,324.296 124.563 C 324.186 124.453,323.976 124.842,323.829 125.429 M240.428 127.076 C 240.413 127.558,240.580 128.064,240.800 128.200 C 241.273 128.492,241.273 128.101,240.800 127.000 C 240.469 126.229,240.455 126.231,240.428 127.076 M232.117 132.697 C 233.611 132.774,235.951 132.774,237.317 132.696 C 238.682 132.618,237.460 132.555,234.600 132.555 C 231.740 132.556,230.622 132.620,232.117 132.697 M223.600 133.200 L 222.200 133.495 223.600 133.500 C 224.370 133.503,225.540 133.368,226.200 133.200 L 227.400 132.895 226.200 132.900 C 225.540 132.903,224.370 133.038,223.600 133.200 M219.600 134.000 L 218.600 134.320 219.600 134.332 C 220.150 134.338,220.960 134.189,221.400 134.000 L 222.200 133.656 221.400 133.668 C 220.960 133.674,220.150 133.824,219.600 134.000 M320.278 135.005 C 319.912 135.772,319.695 136.400,319.796 136.400 C 320.070 136.400,321.284 133.951,321.101 133.768 C 321.014 133.681,320.644 134.238,320.278 135.005 M216.400 134.800 C 215.596 135.057,215.557 135.123,216.200 135.132 C 216.640 135.138,217.360 134.989,217.800 134.800 C 218.819 134.362,217.768 134.362,216.400 134.800 M211.200 136.252 C 209.550 136.812,208.038 137.425,207.840 137.615 C 207.552 137.891,211.360 136.722,214.800 135.480 C 215.333 135.287,215.333 135.262,214.800 135.249 C 214.470 135.241,212.850 135.693,211.200 136.252 M318.240 138.411 C 317.648 139.306,316.521 140.750,315.735 141.619 C 314.950 142.489,314.443 143.200,314.609 143.200 C 314.776 143.200,315.112 142.952,315.356 142.648 C 318.172 139.146,319.652 137.119,319.501 136.967 C 319.400 136.866,318.832 137.516,318.240 138.411 M204.700 139.026 C 203.655 139.570,202.800 140.105,202.800 140.214 C 202.800 140.393,206.760 138.523,207.167 138.152 C 207.662 137.701,206.361 138.162,204.700 139.026 M200.800 141.236 C 200.136 141.779,200.069 141.915,200.600 141.640 C 201.905 140.966,202.628 140.412,202.200 140.415 C 201.980 140.417,201.350 140.786,200.800 141.236 M198.000 142.833 L 197.000 143.648 198.300 143.014 C 199.015 142.665,199.600 142.294,199.600 142.190 C 199.600 141.792,198.963 142.048,198.000 142.833 M194.500 144.888 C 194.005 145.127,193.600 145.479,193.600 145.670 C 193.600 145.862,194.050 145.724,194.600 145.363 C 196.067 144.402,196.016 144.157,194.500 144.888 M191.829 146.609 C 191.405 146.929,191.138 147.271,191.235 147.369 C 191.332 147.466,191.859 147.202,192.406 146.782 C 192.953 146.361,193.220 146.020,193.000 146.022 C 192.780 146.024,192.253 146.288,191.829 146.609 M310.571 146.832 C 310.157 147.289,308.537 148.504,306.971 149.532 C 305.405 150.559,303.781 151.627,303.362 151.904 C 302.943 152.182,303.320 152.066,304.200 151.646 C 306.676 150.467,312.602 146.000,311.691 146.000 C 311.489 146.000,310.985 146.374,310.571 146.832 M183.560 152.700 C 176.518 158.021,174.836 159.371,174.817 159.714 C 174.808 159.887,176.195 158.895,177.900 157.509 C 179.605 156.124,182.665 153.756,184.700 152.249 C 187.947 149.844,188.706 149.200,188.296 149.200 C 188.239 149.200,186.108 150.775,183.560 152.700 M258.800 150.306 C 258.800 150.700,264.786 154.010,265.461 153.989 C 265.647 153.984,264.497 153.287,262.903 152.441 C 261.310 151.596,259.735 150.678,259.403 150.403 C 259.060 150.118,258.800 150.077,258.800 150.306 M233.186 153.900 L 231.000 156.200 233.300 154.014 C 235.437 151.982,235.783 151.600,235.486 151.600 C 235.424 151.600,234.389 152.635,233.186 153.900 M300.600 152.800 C 299.493 153.082,299.477 153.109,300.400 153.147 C 300.950 153.169,301.670 153.013,302.000 152.800 C 302.681 152.360,302.329 152.360,300.600 152.800 M258.928 156.000 C 258.928 157.430,259.001 158.015,259.089 157.300 C 259.178 156.585,259.178 155.415,259.089 154.700 C 259.001 153.985,258.928 154.570,258.928 156.000 M295.600 154.400 C 295.067 154.745,295.067 154.788,295.600 154.788 C 295.930 154.788,296.470 154.613,296.800 154.400 C 297.333 154.055,297.333 154.012,296.800 154.012 C 296.470 154.012,295.930 154.187,295.600 154.400 M268.800 155.200 C 269.130 155.413,269.670 155.588,270.000 155.588 C 270.533 155.588,270.533 155.545,270.000 155.200 C 269.670 154.987,269.130 154.812,268.800 154.812 C 268.267 154.812,268.267 154.855,268.800 155.200 M293.200 155.200 C 292.667 155.545,292.667 155.588,293.200 155.588 C 293.530 155.588,294.070 155.413,294.400 155.200 C 294.933 154.855,294.933 154.812,294.400 154.812 C 294.070 154.812,293.530 154.987,293.200 155.200 M271.600 156.000 C 271.930 156.213,272.560 156.378,273.000 156.366 L 273.800 156.344 273.000 156.000 C 271.804 155.486,270.805 155.486,271.600 156.000 M290.200 156.000 L 289.400 156.344 290.200 156.366 C 290.640 156.378,291.270 156.213,291.600 156.000 C 292.395 155.486,291.396 155.486,290.200 156.000 M275.915 156.872 C 276.292 157.021,278.850 157.144,281.600 157.144 C 284.350 157.144,286.908 157.021,287.285 156.872 C 287.662 156.722,285.104 156.600,281.600 156.600 C 278.096 156.600,275.538 156.722,275.915 156.872 M173.000 161.026 C 168.016 165.286,164.315 168.585,161.699 171.100 C 161.185 171.595,160.918 172.000,161.107 172.000 C 161.296 172.000,161.979 171.443,162.625 170.763 C 163.271 170.082,166.185 167.444,169.100 164.900 C 172.015 162.357,174.400 160.214,174.400 160.138 C 174.400 159.875,174.194 160.006,173.000 161.026 M258.470 161.850 C 258.431 162.538,258.305 163.708,258.189 164.450 C 257.996 165.686,258.015 165.717,258.408 164.814 C 258.644 164.272,258.771 163.102,258.689 162.214 C 258.568 160.902,258.527 160.833,258.470 161.850 M257.649 167.200 C 257.616 167.530,257.489 168.250,257.367 168.800 C 257.175 169.664,257.207 169.703,257.599 169.088 C 257.848 168.697,257.975 167.977,257.881 167.488 C 257.786 167.000,257.682 166.870,257.649 167.200 M256.846 171.067 C 256.821 171.324,256.684 171.864,256.541 172.267 C 256.340 172.836,256.394 172.897,256.779 172.542 C 257.052 172.291,257.189 171.751,257.084 171.342 C 256.979 170.934,256.872 170.810,256.846 171.067 M152.306 180.280 C 148.413 184.174,145.311 187.444,145.414 187.547 C 145.516 187.649,145.645 187.652,145.700 187.552 C 145.755 187.453,148.948 184.183,152.796 180.286 C 156.643 176.388,159.700 173.200,159.588 173.200 C 159.476 173.200,156.199 176.386,152.306 180.280 M255.800 174.800 C 255.650 175.273,255.617 175.750,255.727 175.860 C 255.837 175.970,256.050 175.673,256.200 175.200 C 256.350 174.727,256.383 174.250,256.273 174.140 C 256.163 174.030,255.950 174.327,255.800 174.800 M251.822 186.449 C 251.192 188.072,249.359 192.010,247.749 195.200 C 246.138 198.390,245.094 200.640,245.429 200.200 C 247.083 198.030,253.358 184.675,253.095 183.886 C 253.024 183.673,252.451 184.826,251.822 186.449 M142.597 190.115 C 142.375 190.382,140.485 192.492,138.397 194.804 C 131.973 201.917,129.503 204.801,129.859 204.774 C 130.046 204.760,130.901 203.905,131.758 202.874 C 133.860 200.346,138.474 195.175,141.363 192.108 C 142.663 190.729,143.563 189.607,143.363 189.615 C 143.164 189.624,142.818 189.849,142.597 190.115 M184.581 202.900 L 183.000 204.600 184.700 203.019 C 186.281 201.548,186.584 201.200,186.281 201.200 C 186.216 201.200,185.451 201.965,184.581 202.900 M243.786 202.500 L 243.152 203.800 243.967 202.800 C 244.752 201.837,245.008 201.200,244.610 201.200 C 244.506 201.200,244.135 201.785,243.786 202.500 M128.355 206.300 C 127.010 207.787,126.260 208.800,126.503 208.800 C 126.613 208.800,127.367 207.990,128.179 207.000 C 129.806 205.014,129.917 204.572,128.355 206.300 M241.570 206.066 C 241.298 206.580,240.813 207.405,240.492 207.900 C 240.171 208.395,239.995 208.800,240.101 208.800 C 240.436 208.800,242.469 205.536,242.262 205.329 C 242.154 205.220,241.842 205.552,241.570 206.066 M125.400 209.740 C 125.180 209.993,124.191 211.190,123.202 212.400 C 122.213 213.610,121.175 214.841,120.896 215.135 C 120.616 215.429,119.896 216.329,119.295 217.135 C 118.107 218.727,111.710 226.362,107.832 230.814 C 107.154 231.592,105.790 233.208,104.800 234.404 C 103.810 235.601,102.362 237.304,101.582 238.190 C 100.803 239.075,98.659 241.600,96.819 243.800 C 94.978 246.000,93.110 248.205,92.666 248.700 C 92.223 249.195,91.970 249.600,92.103 249.600 C 92.237 249.600,93.750 247.935,95.466 245.900 C 97.182 243.865,98.770 242.002,98.993 241.761 C 99.424 241.295,100.789 239.699,106.841 232.578 C 117.942 219.520,126.123 209.586,125.928 209.401 C 125.857 209.335,125.620 209.488,125.400 209.740 M231.249 221.200 C 229.269 223.840,227.773 225.993,227.924 225.984 C 228.322 225.960,235.426 216.400,235.046 216.400 C 234.938 216.400,233.229 218.560,231.249 221.200 M120.920 223.746 C 120.744 224.046,119.763 225.261,118.740 226.446 C 111.976 234.278,109.697 237.020,109.833 237.161 C 109.919 237.250,110.391 236.810,110.883 236.185 C 111.811 235.006,118.834 226.783,120.864 224.500 C 121.499 223.785,121.844 223.200,121.630 223.200 C 121.415 223.200,121.096 223.446,120.920 223.746 M225.821 228.200 C 225.010 229.190,224.474 230.000,224.629 230.000 C 224.911 230.000,225.279 229.583,226.833 227.500 C 228.149 225.737,227.434 226.232,225.821 228.200 M132.179 233.912 C 134.148 235.927,135.829 237.504,135.916 237.418 C 136.089 237.244,130.641 231.743,129.386 230.824 C 128.954 230.508,130.211 231.897,132.179 233.912 M218.376 237.100 C 216.097 239.685,210.086 246.030,205.020 251.200 C 199.953 256.370,196.695 259.790,197.780 258.800 C 200.512 256.306,209.222 247.582,212.600 243.954 C 218.035 238.118,223.031 232.400,222.696 232.400 C 222.599 232.400,220.655 234.515,218.376 237.100 M108.070 238.822 C 107.558 239.470,107.288 239.990,107.470 239.978 C 107.651 239.966,108.219 239.426,108.730 238.778 C 109.242 238.130,109.512 237.610,109.330 237.622 C 109.149 237.634,108.581 238.174,108.070 238.822 M104.354 243.300 C 98.898 249.671,96.329 252.863,96.512 253.045 C 96.740 253.273,102.855 252.080,103.188 251.743 C 103.431 251.497,100.866 251.901,98.800 252.434 C 98.030 252.633,97.255 252.797,97.077 252.798 C 96.899 252.799,98.687 250.505,101.050 247.700 C 103.413 244.895,105.612 242.285,105.935 241.900 C 106.259 241.515,106.440 241.200,106.338 241.200 C 106.236 241.200,105.343 242.145,104.354 243.300 M140.400 241.976 C 140.400 242.209,140.580 242.400,140.800 242.400 C 141.020 242.400,141.200 242.670,141.200 243.000 C 141.200 243.330,141.386 243.600,141.614 243.600 C 141.899 243.600,141.898 243.357,141.612 242.822 C 141.110 241.885,140.400 241.389,140.400 241.976 M137.790 244.016 C 137.621 244.289,137.923 244.338,138.666 244.160 C 140.199 243.792,140.344 243.600,139.090 243.600 C 138.517 243.600,137.932 243.787,137.790 244.016 M134.000 244.800 C 133.236 245.294,134.058 245.294,135.600 244.800 L 136.600 244.480 135.600 244.446 C 135.050 244.427,134.330 244.587,134.000 244.800 M130.590 245.616 C 130.421 245.889,130.723 245.938,131.466 245.760 C 132.999 245.392,133.144 245.200,131.890 245.200 C 131.317 245.200,130.732 245.387,130.590 245.616 M126.800 246.400 C 126.005 246.914,127.004 246.914,128.200 246.400 L 129.000 246.056 128.200 246.034 C 127.760 246.022,127.130 246.187,126.800 246.400 M123.200 247.200 C 122.405 247.714,123.404 247.714,124.600 247.200 L 125.400 246.856 124.600 246.834 C 124.160 246.822,123.530 246.987,123.200 247.200 M119.400 248.000 L 118.600 248.344 119.400 248.344 C 119.840 248.344,120.560 248.189,121.000 248.000 L 121.800 247.656 121.000 247.656 C 120.560 247.656,119.840 247.811,119.400 248.000 M115.800 248.800 L 115.000 249.144 115.800 249.144 C 116.240 249.144,116.960 248.989,117.400 248.800 L 118.200 248.456 117.400 248.456 C 116.960 248.456,116.240 248.611,115.800 248.800 M112.200 249.600 L 111.400 249.944 112.200 249.944 C 112.640 249.944,113.360 249.789,113.800 249.600 L 114.600 249.256 113.800 249.256 C 113.360 249.256,112.640 249.411,112.200 249.600 M137.200 249.994 C 137.685 250.302,137.148 251.031,134.409 253.788 C 132.544 255.664,131.114 257.200,131.232 257.200 C 131.350 257.200,133.126 255.490,135.179 253.400 C 138.705 249.811,138.848 249.600,137.756 249.606 C 136.869 249.611,136.739 249.701,137.200 249.994 M90.434 251.353 L 89.469 252.600 90.613 251.512 C 91.243 250.914,91.677 250.353,91.579 250.265 C 91.480 250.177,90.965 250.667,90.434 251.353 M108.200 250.400 C 107.111 250.677,107.093 250.707,108.000 250.725 C 108.550 250.735,109.360 250.589,109.800 250.400 C 110.786 249.976,109.866 249.976,108.200 250.400 M133.800 250.400 L 133.000 250.744 133.800 250.732 C 134.240 250.726,135.050 250.576,135.600 250.400 L 136.600 250.080 135.600 250.068 C 135.050 250.062,134.240 250.211,133.800 250.400 M104.600 251.200 C 103.511 251.477,103.493 251.507,104.400 251.525 C 104.950 251.535,105.760 251.389,106.200 251.200 C 107.186 250.776,106.266 250.776,104.600 251.200 M130.200 251.200 L 129.400 251.544 130.200 251.532 C 130.640 251.526,131.450 251.376,132.000 251.200 L 133.000 250.880 132.000 250.868 C 131.450 250.862,130.640 251.011,130.200 251.200 M126.400 252.000 C 125.056 252.431,126.508 252.431,128.200 252.000 C 129.278 251.726,129.298 251.694,128.400 251.687 C 127.850 251.683,126.950 251.824,126.400 252.000 M122.600 252.800 L 121.800 253.144 122.600 253.144 C 123.040 253.144,123.760 252.989,124.200 252.800 L 125.000 252.456 124.200 252.456 C 123.760 252.456,123.040 252.611,122.600 252.800 M87.695 254.470 C 84.801 258.081,87.322 262.214,91.093 260.040 C 91.609 259.743,91.243 259.696,89.742 259.867 C 86.098 260.282,85.391 257.790,88.216 254.489 C 89.012 253.560,89.513 252.809,89.331 252.821 C 89.149 252.832,88.413 253.574,87.695 254.470 M119.200 253.600 C 118.405 254.114,119.404 254.114,120.600 253.600 L 121.400 253.256 120.600 253.234 C 120.160 253.222,119.530 253.387,119.200 253.600 M115.400 254.400 L 114.600 254.744 115.400 254.766 C 115.840 254.778,116.470 254.613,116.800 254.400 C 117.595 253.886,116.596 253.886,115.400 254.400 M111.800 255.200 L 111.000 255.544 111.800 255.566 C 112.240 255.578,112.870 255.413,113.200 255.200 C 113.995 254.686,112.996 254.686,111.800 255.200 M108.200 256.000 L 107.400 256.344 108.200 256.366 C 108.640 256.378,109.270 256.213,109.600 256.000 C 110.395 255.486,109.396 255.486,108.200 256.000 M104.400 256.800 L 103.400 257.120 104.400 257.154 C 104.950 257.173,105.670 257.013,106.000 256.800 C 106.764 256.306,105.942 256.306,104.400 256.800 M100.800 257.600 L 99.800 257.920 100.876 257.960 C 101.468 257.982,102.064 257.820,102.200 257.600 C 102.481 257.145,102.220 257.145,100.800 257.600 M97.000 258.400 C 95.911 258.677,95.893 258.707,96.800 258.725 C 97.350 258.735,98.160 258.589,98.600 258.400 C 99.586 257.976,98.666 257.976,97.000 258.400 M93.200 259.200 L 92.200 259.520 93.200 259.554 C 93.750 259.573,94.470 259.413,94.800 259.200 C 95.564 258.706,94.742 258.706,93.200 259.200 M190.940 264.523 C 188.707 266.545,186.862 268.354,186.840 268.541 C 186.792 268.949,188.753 267.275,192.696 263.542 C 196.929 259.534,195.674 260.235,190.940 264.523 M124.800 263.580 C 123.810 264.642,120.004 268.636,116.341 272.455 C 108.806 280.314,108.410 280.748,110.541 278.800 C 113.206 276.364,127.310 261.599,126.947 261.625 C 126.756 261.638,125.790 262.518,124.800 263.580 M184.000 270.863 C 182.790 271.984,182.160 272.653,182.600 272.350 C 183.597 271.664,186.672 268.806,186.400 268.817 C 186.290 268.822,185.210 269.742,184.000 270.863 M178.800 275.312 C 177.370 276.647,176.580 277.483,177.044 277.170 C 178.364 276.278,181.726 273.192,181.554 273.030 C 181.470 272.950,180.230 273.977,178.800 275.312 M174.400 278.896 C 170.427 282.386,169.528 283.157,167.281 285.000 C 165.939 286.100,164.833 287.157,164.821 287.349 C 164.809 287.541,165.925 286.724,167.300 285.533 C 168.675 284.343,170.966 282.386,172.390 281.184 C 175.728 278.370,176.126 277.993,175.947 277.814 C 175.866 277.733,175.170 278.220,174.400 278.896 M99.935 289.374 C 96.488 292.908,93.751 295.882,93.850 295.983 C 93.950 296.083,94.759 295.363,95.648 294.383 C 96.537 293.402,99.349 290.484,101.898 287.899 C 104.446 285.313,106.456 283.141,106.365 283.073 C 106.274 283.004,103.381 285.839,99.935 289.374 M161.600 290.079 C 160.170 291.403,159.630 291.993,160.400 291.391 C 162.690 289.599,164.494 287.960,164.342 287.811 C 164.264 287.734,163.030 288.754,161.600 290.079 M158.221 292.766 C 158.078 292.997,155.544 295.269,152.590 297.816 C 149.636 300.362,147.091 302.660,146.934 302.923 C 146.712 303.295,151.520 299.319,152.400 298.403 C 152.510 298.289,153.770 297.206,155.200 295.998 C 158.627 293.101,158.933 292.799,158.688 292.554 C 158.574 292.440,158.363 292.536,158.221 292.766 M87.800 301.903 C 84.940 304.867,82.960 307.051,83.400 306.756 C 84.529 306.001,93.846 296.388,93.382 296.457 C 93.172 296.489,90.660 298.939,87.800 301.903 M143.989 305.260 L 141.800 307.277 144.000 305.558 C 145.210 304.612,146.275 303.785,146.367 303.719 C 146.458 303.654,146.453 303.520,146.355 303.422 C 146.258 303.324,145.193 304.152,143.989 305.260 M139.000 309.455 C 137.900 310.466,137.360 311.047,137.800 310.746 C 138.240 310.446,138.690 310.107,138.800 309.994 C 138.910 309.880,139.599 309.295,140.331 308.694 C 141.063 308.092,141.513 307.604,141.331 307.608 C 141.149 307.613,140.100 308.444,139.000 309.455 M133.800 313.634 C 131.459 315.597,128.611 317.828,122.489 322.493 C 119.387 324.858,118.558 325.575,119.600 324.994 C 121.511 323.928,137.116 311.592,136.531 311.610 C 136.349 311.616,135.120 312.526,133.800 313.634 M113.000 329.414 C 111.020 330.829,109.138 332.394,108.818 332.893 C 108.319 333.672,108.378 333.654,109.237 332.767 C 109.787 332.199,111.612 330.807,113.291 329.673 C 115.815 327.970,117.321 326.719,116.724 326.821 C 116.656 326.833,114.980 328.000,113.000 329.414 M45.600 354.104 C 45.600 354.161,49.155 357.716,53.500 362.004 L 61.400 369.800 53.604 361.900 C 46.360 354.560,45.600 353.819,45.600 354.104 M64.800 372.945 C 64.800 373.127,66.671 375.104,68.957 377.338 C 71.244 379.572,73.210 381.670,73.326 382.000 C 73.512 382.529,73.541 382.528,73.568 381.993 C 73.586 381.659,71.620 379.412,69.200 377.000 C 66.780 374.588,64.800 372.763,64.800 372.945 " stroke="none" fill="#f59673" fill-rule="evenodd"></path><path id="path5" d="M280.700 70.689 C 281.415 70.778,282.585 70.778,283.300 70.689 C 284.015 70.601,283.430 70.528,282.000 70.528 C 280.570 70.528,279.985 70.601,280.700 70.689 M325.340 112.000 C 325.340 113.870,325.409 114.635,325.493 113.700 C 325.577 112.765,325.577 111.235,325.493 110.300 C 325.409 109.365,325.340 110.130,325.340 112.000 M238.528 113.600 C 238.528 115.030,238.601 115.615,238.689 114.900 C 238.778 114.185,238.778 113.015,238.689 112.300 C 238.601 111.585,238.528 112.170,238.528 113.600 M227.000 137.961 C 226.120 138.097,229.250 138.206,233.955 138.204 C 238.660 138.202,241.810 138.075,240.955 137.923 C 239.077 137.589,229.236 137.615,227.000 137.961 M222.400 138.800 C 221.484 139.093,221.517 139.123,222.800 139.154 C 223.570 139.173,224.470 139.013,224.800 138.800 C 225.554 138.313,223.922 138.313,222.400 138.800 M243.200 138.760 C 243.530 138.995,244.171 139.191,244.624 139.194 C 245.076 139.197,245.766 139.433,246.156 139.718 C 246.936 140.289,246.933 140.292,178.937 208.743 L 148.200 239.686 144.000 235.772 C 141.690 233.618,137.076 229.273,133.747 226.116 C 130.417 222.958,127.312 220.044,126.847 219.640 C 125.489 218.463,125.678 218.092,130.442 212.601 C 131.015 211.941,133.261 209.330,135.432 206.800 C 137.603 204.270,139.564 202.001,139.790 201.758 C 140.015 201.514,141.543 199.804,143.185 197.958 C 151.205 188.937,169.016 171.689,177.574 164.656 C 179.678 162.927,181.850 161.126,182.400 160.654 C 187.776 156.035,200.296 147.765,206.687 144.612 C 209.279 143.333,211.713 142.132,212.095 141.943 C 212.477 141.754,213.141 141.600,213.571 141.600 C 214.001 141.600,214.464 141.420,214.600 141.200 C 214.736 140.980,215.366 140.800,216.000 140.800 C 216.634 140.800,217.264 140.620,217.400 140.400 C 217.536 140.180,218.132 139.987,218.724 139.972 C 219.316 139.956,220.160 139.777,220.600 139.573 C 222.292 138.790,217.722 139.728,214.200 140.888 C 210.095 142.239,206.530 143.869,202.859 146.074 C 201.462 146.913,200.241 147.600,200.147 147.600 C 198.903 147.600,180.412 161.341,174.000 167.031 C 159.548 179.855,148.533 191.035,134.818 206.800 C 129.876 212.481,129.962 212.379,127.402 215.556 L 125.019 218.512 128.042 221.356 C 129.705 222.920,134.791 227.710,139.344 232.000 C 143.897 236.290,147.853 239.852,148.136 239.915 C 148.418 239.978,153.212 235.388,158.789 229.715 C 164.365 224.042,186.560 201.646,208.110 179.946 C 229.660 158.246,247.297 140.336,247.302 140.146 C 247.315 139.670,245.562 138.845,243.942 138.565 C 242.925 138.389,242.745 138.436,243.200 138.760 M312.778 144.700 L 311.400 146.200 312.900 144.822 C 314.296 143.538,314.584 143.200,314.278 143.200 C 314.212 143.200,313.537 143.875,312.778 144.700 M258.520 152.400 C 258.520 153.610,258.595 154.105,258.687 153.500 C 258.778 152.895,258.778 151.905,258.687 151.300 C 258.595 150.695,258.520 151.190,258.520 152.400 M258.514 159.000 C 258.517 160.100,258.595 160.503,258.687 159.895 C 258.779 159.286,258.777 158.386,258.682 157.895 C 258.587 157.403,258.511 157.900,258.514 159.000 M158.388 174.700 L 155.800 177.400 158.500 174.812 C 159.985 173.388,161.200 172.173,161.200 172.112 C 161.200 171.817,160.793 172.192,158.388 174.700 M146.975 186.100 L 145.800 187.400 147.100 186.225 C 147.815 185.579,148.400 184.994,148.400 184.925 C 148.400 184.616,148.070 184.888,146.975 186.100 M211.578 244.300 L 210.200 245.800 211.700 244.422 C 213.096 243.138,213.384 242.800,213.078 242.800 C 213.012 242.800,212.337 243.475,211.578 244.300 M130.181 258.500 L 128.600 260.200 130.300 258.619 C 131.881 257.148,132.184 256.800,131.881 256.800 C 131.816 256.800,131.051 257.565,130.181 258.500 M196.800 259.000 C 195.828 259.990,195.123 260.800,195.233 260.800 C 195.343 260.800,196.228 259.990,197.200 259.000 C 198.172 258.010,198.877 257.200,198.767 257.200 C 198.657 257.200,197.772 258.010,196.800 259.000 M120.981 268.100 L 119.400 269.800 121.100 268.219 C 122.681 266.748,122.984 266.400,122.681 266.400 C 122.616 266.400,121.851 267.165,120.981 268.100 M109.986 279.500 L 107.800 281.800 110.100 279.614 C 112.237 277.582,112.583 277.200,112.286 277.200 C 112.224 277.200,111.189 278.235,109.986 279.500 M99.188 290.700 L 96.600 293.400 99.300 290.812 C 100.785 289.388,102.000 288.173,102.000 288.112 C 102.000 287.817,101.593 288.192,99.188 290.700 M58.600 366.800 C 61.012 369.220,63.076 371.200,63.186 371.200 C 63.296 371.200,61.412 369.220,59.000 366.800 C 56.588 364.380,54.524 362.400,54.414 362.400 C 54.304 362.400,56.188 364.380,58.600 366.800 " stroke="none" fill="#fcbe75" fill-rule="evenodd"></path></g></svg>