<svg id="svg" version="1.1" width="400" height="400" viewBox="0 0 400 400" xmlns="http://www.w3.org/2000/svg" xmlns:xlink="http://www.w3.org/1999/xlink" ><g id="svgg"><path id="path0" d="M101.067 176.267 C 100.920 176.413,100.800 184.130,100.800 193.414 L 100.800 210.295 102.300 210.543 C 103.125 210.680,114.445 210.793,127.456 210.796 C 150.147 210.800,151.150 210.831,152.056 211.565 L 153.000 212.329 153.103 292.383 C 153.197 365.751,153.261 372.521,153.861 373.437 L 154.516 374.437 173.273 374.318 C 189.423 374.216,192.082 374.117,192.409 373.600 C 192.644 373.227,192.790 342.903,192.794 293.597 C 192.800 215.168,192.851 211.922,194.093 211.134 C 194.372 210.957,205.612 210.809,219.071 210.806 C 245.612 210.799,244.786 210.868,244.809 208.671 C 244.969 192.996,244.706 176.588,244.291 176.324 C 243.695 175.946,101.445 175.889,101.067 176.267 M310.800 176.388 C 305.958 176.907,294.320 179.060,292.800 179.718 C 292.030 180.051,290.551 180.451,289.513 180.605 C 288.475 180.760,287.425 181.129,287.179 181.425 C 286.934 181.721,285.803 182.237,284.666 182.573 C 282.051 183.346,274.987 186.955,273.438 188.310 C 272.977 188.714,271.875 189.505,270.989 190.068 C 269.287 191.151,263.741 196.507,261.921 198.826 C 259.145 202.362,256.000 207.507,256.000 208.511 C 256.000 208.831,255.643 209.547,255.206 210.102 C 254.769 210.657,254.159 212.167,253.850 213.456 C 253.541 214.745,253.072 216.340,252.809 217.000 C 250.801 222.023,250.767 242.657,252.759 247.200 C 253.000 247.750,253.451 249.321,253.761 250.691 C 254.071 252.061,254.612 253.469,254.962 253.820 C 255.313 254.170,255.600 254.699,255.600 254.995 C 255.600 255.658,258.607 261.391,259.757 262.921 C 260.221 263.538,261.185 264.730,261.900 265.570 C 262.615 266.410,263.200 267.179,263.200 267.279 C 263.200 267.570,268.383 272.800,268.672 272.800 C 268.816 272.800,269.398 273.244,269.967 273.787 C 271.862 275.598,274.409 277.549,275.209 277.803 C 275.644 277.941,276.000 278.219,276.000 278.420 C 276.000 278.622,276.887 279.236,277.972 279.786 C 279.056 280.335,280.058 280.971,280.199 281.198 C 280.340 281.426,281.027 281.886,281.727 282.222 C 284.384 283.494,286.221 284.435,286.800 284.819 C 287.130 285.037,288.030 285.488,288.800 285.820 C 289.570 286.153,291.370 286.988,292.800 287.676 C 294.230 288.364,296.120 289.242,297.000 289.626 C 304.338 292.829,314.802 298.002,315.642 298.842 C 316.059 299.259,316.625 299.600,316.900 299.601 C 318.004 299.602,325.549 305.769,327.969 308.647 C 332.415 313.936,333.768 321.753,331.354 328.200 C 330.627 330.141,325.528 336.000,324.566 336.000 C 324.314 336.000,323.638 336.369,323.065 336.821 C 322.491 337.272,321.162 337.931,320.111 338.286 C 319.060 338.640,317.827 339.170,317.372 339.464 C 313.558 341.923,287.756 341.924,282.904 339.465 C 282.297 339.158,280.810 338.669,279.600 338.378 C 278.390 338.088,276.770 337.553,276.000 337.188 C 275.230 336.824,273.748 336.295,272.708 336.013 C 271.667 335.731,270.617 335.262,270.376 334.971 C 270.134 334.679,269.275 334.226,268.468 333.962 C 267.661 333.699,266.571 333.150,266.046 332.742 C 265.521 332.334,264.917 332.000,264.704 332.000 C 264.491 332.000,263.516 331.460,262.538 330.800 C 261.560 330.140,260.651 329.600,260.518 329.600 C 260.384 329.600,259.636 329.105,258.853 328.500 C 255.425 325.848,252.358 323.908,252.062 324.204 C 251.713 324.552,251.477 357.915,251.801 361.057 C 252.080 363.758,253.817 365.379,257.503 366.376 C 258.326 366.598,259.360 367.030,259.800 367.336 C 260.240 367.642,261.810 368.194,263.290 368.562 C 264.769 368.931,266.569 369.478,267.290 369.780 C 268.010 370.081,270.130 370.547,272.000 370.816 C 273.870 371.084,275.910 371.563,276.532 371.879 C 277.603 372.423,282.966 372.971,297.365 374.008 C 301.115 374.279,304.572 374.276,307.965 374.002 C 321.784 372.882,326.017 372.413,327.065 371.886 C 327.689 371.572,329.640 371.092,331.400 370.819 C 333.160 370.546,335.410 370.001,336.400 369.608 C 337.390 369.215,339.010 368.661,340.000 368.376 C 340.990 368.091,342.070 367.638,342.400 367.368 C 342.730 367.099,343.762 366.654,344.694 366.378 C 345.625 366.103,346.688 365.545,347.056 365.139 C 347.423 364.732,347.949 364.400,348.224 364.400 C 348.993 364.400,356.506 359.260,357.333 358.168 C 357.737 357.636,358.301 357.200,358.587 357.200 C 358.874 357.200,359.384 356.795,359.722 356.300 C 360.060 355.805,361.026 354.652,361.868 353.737 C 363.582 351.877,363.692 351.732,365.467 348.971 C 366.164 347.887,367.019 346.685,367.367 346.300 C 367.715 345.915,368.000 345.442,368.000 345.248 C 368.000 345.055,368.627 343.660,369.393 342.148 C 370.158 340.637,370.788 339.089,370.793 338.708 C 370.797 338.327,371.243 336.887,371.784 335.508 C 373.347 331.523,374.574 319.459,373.999 313.745 C 373.161 305.431,372.421 300.687,371.863 300.045 C 371.554 299.690,371.076 298.410,370.800 297.200 C 370.524 295.990,370.066 294.730,369.783 294.400 C 369.499 294.070,368.955 292.990,368.573 292.000 C 368.191 291.010,367.572 289.840,367.199 289.400 C 366.825 288.960,366.415 288.304,366.288 287.942 C 365.826 286.623,362.184 282.218,359.031 279.164 C 354.889 275.150,354.489 274.795,352.803 273.632 C 352.031 273.099,350.617 272.109,349.659 271.432 C 348.702 270.754,347.622 270.020,347.261 269.800 C 346.899 269.580,346.072 269.040,345.423 268.600 C 344.047 267.668,341.851 266.466,338.900 265.031 C 337.745 264.470,336.800 263.849,336.800 263.653 C 336.800 263.456,336.025 263.100,335.077 262.861 C 334.129 262.622,332.932 262.061,332.416 261.614 C 331.900 261.166,331.270 260.800,331.017 260.800 C 330.764 260.800,329.667 260.369,328.579 259.841 C 327.490 259.314,325.430 258.344,324.000 257.687 C 319.022 255.397,317.796 254.818,317.200 254.474 C 316.870 254.284,315.340 253.514,313.800 252.764 C 312.260 252.014,310.460 251.040,309.800 250.601 C 309.140 250.161,308.133 249.531,307.563 249.201 C 304.704 247.545,303.654 246.803,300.885 244.481 C 298.088 242.135,295.213 239.003,295.204 238.291 C 295.202 238.122,294.705 237.235,294.100 236.321 C 293.031 234.706,293.000 234.502,293.000 229.030 L 293.000 223.400 294.591 220.845 C 297.031 216.925,299.879 214.309,303.303 212.842 C 304.298 212.415,305.225 211.883,305.363 211.660 C 305.501 211.437,306.646 211.050,307.907 210.800 C 309.168 210.550,311.280 209.976,312.600 209.524 C 315.784 208.433,331.940 208.328,335.600 209.375 C 336.810 209.721,339.466 210.268,341.501 210.592 C 343.537 210.916,345.762 211.470,346.447 211.824 C 347.131 212.178,348.705 212.731,349.945 213.054 C 351.185 213.377,352.560 213.874,353.000 214.160 C 353.440 214.445,354.520 214.909,355.400 215.190 C 356.280 215.471,357.294 215.957,357.653 216.270 C 358.012 216.582,358.932 217.011,359.698 217.223 C 360.465 217.435,361.558 218.040,362.128 218.568 C 363.430 219.775,365.561 220.305,366.044 219.543 C 366.441 218.915,366.529 187.851,366.141 185.021 C 365.972 183.789,365.658 183.065,365.241 182.944 C 364.888 182.842,363.865 182.398,362.967 181.959 C 359.855 180.436,354.152 179.161,340.600 176.958 C 336.070 176.222,315.943 175.837,310.800 176.388 " stroke="none" fill="#f7f9fb" fill-rule="evenodd"></path><path id="path1" d="M0.000 200.000 L 0.000 400.000 200.000 400.000 L 400.000 400.000 400.000 200.000 L 400.000 0.000 200.000 0.000 L 0.000 0.000 0.000 200.000 M246.278 174.165 L 247.400 175.131 247.400 193.354 L 247.400 211.578 246.489 212.489 L 245.578 213.400 221.119 213.509 C 204.072 213.585,196.499 213.751,196.130 214.058 C 195.693 214.421,195.600 228.431,195.600 293.689 C 195.600 379.691,195.720 374.865,193.554 376.024 C 192.053 376.828,152.147 376.319,151.314 375.486 C 150.635 374.806,150.590 370.857,150.400 294.286 L 150.200 213.800 125.527 213.697 L 100.853 213.594 100.027 212.543 C 98.731 210.896,98.733 175.901,100.029 174.254 L 100.858 173.200 173.007 173.200 L 245.155 173.200 246.278 174.165 M339.200 174.136 C 341.510 174.474,344.930 174.911,346.800 175.108 C 348.670 175.304,350.830 175.764,351.601 176.131 C 352.371 176.497,354.261 176.960,355.801 177.159 C 358.468 177.503,359.869 177.926,361.200 178.786 C 361.530 178.999,362.830 179.371,364.089 179.613 C 366.163 180.011,366.493 180.222,367.589 181.846 L 368.800 183.640 368.800 202.591 L 368.800 221.542 367.746 222.371 C 366.240 223.556,362.898 223.119,362.336 221.665 C 362.261 221.471,361.390 220.932,360.400 220.466 C 359.410 220.001,358.330 219.454,358.000 219.252 C 356.353 218.241,351.973 216.418,350.200 216.005 C 349.100 215.749,347.904 215.273,347.542 214.946 C 347.180 214.619,345.704 214.184,344.263 213.980 C 342.822 213.776,340.958 213.266,340.121 212.847 C 335.969 210.766,313.964 210.913,309.361 213.052 C 308.240 213.573,306.967 214.000,306.533 214.000 C 306.098 214.000,305.035 214.535,304.171 215.189 C 303.307 215.843,302.365 216.383,302.078 216.389 C 300.972 216.412,296.814 221.347,296.170 223.400 C 294.683 228.143,295.341 234.802,297.556 237.444 C 298.130 238.129,299.226 239.434,299.991 240.344 C 300.756 241.255,301.547 242.000,301.749 242.000 C 301.951 242.000,302.495 242.358,302.958 242.796 C 305.756 245.441,306.399 245.889,310.352 247.945 C 310.929 248.245,312.030 248.902,312.800 249.405 C 313.570 249.908,314.650 250.449,315.200 250.606 C 315.750 250.763,316.560 251.215,317.000 251.610 C 317.440 252.005,318.542 252.525,319.448 252.766 C 320.354 253.006,321.524 253.539,322.048 253.949 C 322.572 254.360,323.563 254.819,324.251 254.969 C 324.939 255.119,326.099 255.682,326.828 256.221 C 327.558 256.759,328.489 257.200,328.898 257.200 C 329.821 257.200,332.000 258.300,332.000 258.766 C 332.000 258.956,332.675 259.236,333.500 259.388 C 334.325 259.540,335.360 259.986,335.800 260.379 C 336.240 260.772,337.443 261.407,338.474 261.791 C 339.505 262.175,340.445 262.739,340.562 263.045 C 340.679 263.350,341.114 263.600,341.528 263.600 C 341.943 263.600,342.893 264.042,343.641 264.583 C 344.388 265.123,345.540 265.815,346.200 266.121 C 346.860 266.426,347.647 266.974,347.949 267.338 C 348.251 267.702,348.708 268.000,348.964 268.000 C 349.220 268.000,350.053 268.533,350.815 269.184 C 351.577 269.835,352.412 270.375,352.671 270.384 C 352.930 270.393,353.477 270.826,353.886 271.346 C 354.295 271.866,355.006 272.412,355.466 272.558 C 356.520 272.892,364.687 281.024,365.451 282.500 C 365.764 283.105,366.205 283.600,366.431 283.600 C 366.656 283.600,367.095 284.208,367.406 284.951 C 367.716 285.695,368.219 286.398,368.523 286.515 C 368.827 286.632,369.307 287.554,369.590 288.564 C 369.873 289.574,370.263 290.400,370.458 290.400 C 370.653 290.400,371.104 291.075,371.461 291.900 C 371.817 292.725,372.519 294.300,373.020 295.400 C 373.521 296.500,374.049 298.300,374.193 299.400 C 374.337 300.500,374.847 302.210,375.327 303.200 C 376.676 305.981,376.679 329.607,375.331 332.400 C 374.854 333.390,374.277 335.436,374.051 336.947 C 373.824 338.458,373.382 339.988,373.070 340.347 C 372.757 340.706,372.276 341.720,372.001 342.600 C 371.726 343.480,371.185 344.560,370.799 345.000 C 370.412 345.440,369.849 346.501,369.548 347.358 C 369.247 348.216,368.685 349.114,368.300 349.355 C 367.915 349.595,367.600 350.003,367.600 350.260 C 367.600 350.516,366.747 351.778,365.703 353.063 C 364.660 354.348,363.535 355.737,363.203 356.149 C 362.425 357.114,360.120 359.284,358.649 360.437 C 358.016 360.932,357.079 361.757,356.567 362.269 C 356.055 362.781,355.367 363.200,355.038 363.200 C 354.709 363.200,354.296 363.447,354.120 363.748 C 353.944 364.049,353.068 364.666,352.173 365.119 C 351.279 365.571,350.315 366.220,350.033 366.560 C 349.751 366.900,348.908 367.294,348.160 367.434 C 347.412 367.574,346.800 367.844,346.800 368.034 C 346.800 368.539,344.834 369.451,343.045 369.775 C 342.190 369.930,341.014 370.409,340.432 370.839 C 339.850 371.270,338.660 371.733,337.787 371.868 C 336.914 372.003,335.535 372.447,334.722 372.854 C 333.810 373.310,331.324 373.804,328.228 374.143 C 325.468 374.446,322.968 374.895,322.671 375.141 C 320.733 376.749,286.380 376.892,281.800 375.312 C 280.480 374.856,277.334 374.275,274.808 374.020 C 272.057 373.742,269.511 373.244,268.457 372.778 C 267.490 372.350,266.298 372.000,265.809 372.000 C 264.663 372.000,262.370 371.229,261.600 370.585 C 261.270 370.309,259.950 369.869,258.666 369.606 C 257.342 369.336,256.048 368.798,255.677 368.365 C 255.317 367.944,254.724 367.600,254.360 367.600 C 253.135 367.600,250.860 366.420,250.619 365.660 C 250.487 365.245,250.024 364.584,249.590 364.191 C 248.638 363.329,248.329 324.043,249.260 322.274 C 250.409 320.090,253.995 320.632,255.923 323.282 C 256.210 323.677,256.701 324.000,257.013 324.000 C 257.326 324.000,257.876 324.450,258.237 325.000 C 258.597 325.550,259.123 326.000,259.406 326.000 C 259.951 326.000,263.579 328.252,265.118 329.546 C 265.624 329.970,266.653 330.434,267.407 330.575 C 268.160 330.716,269.013 331.169,269.302 331.582 C 269.591 331.994,270.498 332.457,271.317 332.611 C 272.137 332.765,273.231 333.224,273.749 333.631 C 274.267 334.039,275.570 334.567,276.645 334.805 C 277.720 335.043,279.320 335.577,280.200 335.993 C 281.080 336.408,283.823 337.024,286.296 337.362 C 288.769 337.699,291.325 338.251,291.976 338.588 C 293.678 339.468,308.613 339.486,309.864 338.610 C 310.327 338.286,312.302 337.743,314.253 337.404 C 318.444 336.675,319.200 336.461,319.200 336.004 C 319.200 335.816,319.875 335.446,320.700 335.183 C 321.525 334.919,322.650 334.297,323.200 333.801 C 323.750 333.304,324.605 332.689,325.100 332.435 C 325.595 332.180,326.000 331.704,326.000 331.377 C 326.000 331.050,326.409 330.596,326.910 330.368 C 327.470 330.113,328.020 329.310,328.341 328.277 C 328.628 327.355,329.164 326.266,329.531 325.857 C 330.478 324.805,330.505 317.240,329.566 316.142 C 329.217 315.734,328.691 314.770,328.396 314.000 C 328.102 313.230,327.546 312.291,327.162 311.914 C 326.777 311.536,326.349 310.870,326.211 310.434 C 326.072 309.998,325.608 309.530,325.180 309.394 C 324.751 309.257,324.400 308.969,324.400 308.753 C 324.400 308.222,321.666 305.698,320.300 304.967 C 319.695 304.644,319.200 304.137,319.200 303.840 C 319.200 303.543,318.655 303.191,317.988 303.058 C 317.321 302.924,316.356 302.362,315.842 301.808 C 315.328 301.253,314.639 300.800,314.310 300.800 C 313.981 300.800,313.049 300.350,312.238 299.800 C 311.428 299.250,310.620 298.800,310.442 298.800 C 310.265 298.800,309.328 298.263,308.360 297.607 C 307.392 296.951,306.220 296.411,305.756 296.407 C 305.292 296.403,304.260 295.958,303.464 295.418 C 302.668 294.877,301.316 294.247,300.460 294.016 C 299.605 293.786,298.448 293.238,297.889 292.799 C 297.331 292.359,296.522 292.000,296.093 292.000 C 295.663 292.000,294.650 291.551,293.841 291.002 C 293.032 290.453,291.561 289.800,290.572 289.551 C 289.583 289.302,288.555 288.799,288.287 288.432 C 288.019 288.066,287.043 287.543,286.117 287.272 C 285.191 287.000,284.319 286.593,284.180 286.368 C 284.041 286.142,282.953 285.527,281.763 285.001 C 280.573 284.475,279.600 283.854,279.600 283.622 C 279.600 283.390,279.257 283.200,278.838 283.200 C 278.419 283.200,277.322 282.570,276.400 281.800 C 275.478 281.030,274.482 280.400,274.185 280.400 C 273.888 280.400,273.410 280.069,273.123 279.663 C 272.835 279.258,272.195 278.712,271.700 278.450 C 269.804 277.443,259.200 267.058,259.200 266.207 C 259.200 265.889,258.852 265.442,258.427 265.214 C 258.002 264.987,257.526 264.396,257.370 263.900 C 257.213 263.405,256.690 262.460,256.206 261.800 C 255.723 261.140,255.097 260.015,254.815 259.300 C 254.534 258.585,254.167 258.000,254.000 258.000 C 253.629 258.000,252.946 256.281,252.575 254.416 C 252.423 253.654,251.962 252.574,251.550 252.016 C 251.113 251.423,250.653 249.822,250.447 248.169 C 250.252 246.613,249.757 244.723,249.346 243.969 C 248.672 242.732,248.600 241.594,248.600 232.200 C 248.600 222.806,248.672 221.668,249.346 220.431 C 249.757 219.677,250.244 217.857,250.428 216.385 C 250.620 214.856,251.201 212.889,251.782 211.795 C 252.342 210.742,252.800 209.536,252.800 209.114 C 252.800 208.234,253.504 206.786,254.217 206.200 C 254.485 205.980,254.809 205.346,254.937 204.792 C 255.064 204.238,255.526 203.401,255.962 202.933 C 256.398 202.465,257.026 201.433,257.357 200.641 C 257.688 199.848,258.219 199.200,258.536 199.200 C 258.854 199.200,259.219 198.779,259.348 198.264 C 259.723 196.772,268.699 188.000,269.851 188.000 C 270.106 188.000,270.421 187.721,270.552 187.381 C 270.683 187.041,271.336 186.572,272.003 186.339 C 272.671 186.106,273.392 185.589,273.605 185.190 C 273.819 184.791,274.670 184.243,275.497 183.974 C 276.324 183.704,277.416 183.160,277.925 182.765 C 278.434 182.369,279.514 181.829,280.325 181.565 C 281.136 181.300,282.203 180.771,282.695 180.388 C 283.188 180.005,284.448 179.565,285.495 179.411 C 286.543 179.256,287.670 178.898,288.000 178.615 C 288.791 177.937,290.899 177.329,293.544 177.015 C 294.723 176.875,296.091 176.497,296.583 176.174 C 297.076 175.852,298.991 175.400,300.839 175.170 C 302.688 174.940,305.910 174.490,308.000 174.170 C 310.090 173.850,312.340 173.516,313.000 173.428 C 315.945 173.035,335.238 173.556,339.200 174.136 " stroke="none" fill="#0474c4" fill-rule="evenodd"></path><path id="path2" d="M101.434 174.417 C 100.793 174.609,100.121 174.999,99.940 175.283 C 99.266 176.346,99.532 210.525,100.223 211.511 L 100.845 212.400 124.373 212.400 C 149.929 212.400,150.093 212.409,150.754 213.860 C 151.077 214.568,151.200 236.826,151.200 294.557 L 151.200 374.276 152.042 375.038 C 152.875 375.792,189.906 376.497,192.682 375.812 C 194.408 375.385,194.395 375.989,194.398 293.327 L 194.400 214.054 195.577 213.216 C 196.743 212.386,197.005 212.378,220.489 212.412 C 235.610 212.435,244.610 212.300,245.288 212.043 C 247.053 211.372,247.196 209.926,247.192 192.800 C 247.188 175.411,247.179 175.343,244.790 174.523 C 243.117 173.948,103.347 173.845,101.434 174.417 M309.400 174.794 C 304.028 175.288,299.900 175.905,298.578 176.413 C 297.930 176.661,296.014 177.110,294.320 177.410 C 292.626 177.710,290.826 178.215,290.320 178.533 C 289.814 178.850,288.410 179.335,287.200 179.610 C 285.990 179.884,284.229 180.535,283.286 181.055 C 282.343 181.575,281.332 182.000,281.040 182.000 C 280.747 182.000,280.079 182.327,279.554 182.727 C 279.029 183.127,277.970 183.700,277.200 184.002 C 276.430 184.303,275.350 184.886,274.800 185.298 C 274.250 185.710,272.630 186.802,271.200 187.724 C 268.435 189.506,259.812 197.901,259.395 199.217 C 259.258 199.648,258.981 200.000,258.780 200.000 C 258.446 200.000,257.649 201.316,255.400 205.577 C 254.960 206.411,254.392 207.342,254.138 207.647 C 253.884 207.951,253.370 209.280,252.997 210.600 C 252.623 211.920,252.070 213.393,251.767 213.874 C 251.463 214.355,251.015 216.065,250.770 217.674 C 250.526 219.283,250.075 221.680,249.769 223.000 C 249.121 225.793,249.017 237.977,249.618 240.800 C 249.828 241.790,250.273 244.185,250.605 246.122 C 250.938 248.059,251.460 250.039,251.764 250.522 C 252.069 251.005,252.617 252.390,252.983 253.600 C 253.349 254.810,254.258 256.880,255.002 258.200 C 255.746 259.520,256.818 261.455,257.384 262.500 C 257.950 263.545,258.562 264.400,258.743 264.400 C 258.924 264.400,259.263 264.805,259.496 265.300 C 260.497 267.423,269.445 276.414,271.862 277.726 C 272.268 277.946,273.158 278.593,273.841 279.163 C 274.523 279.733,275.685 280.560,276.422 281.000 C 279.932 283.095,281.511 284.020,282.800 284.738 C 286.180 286.621,288.170 287.600,288.619 287.600 C 288.885 287.600,289.318 287.861,289.583 288.180 C 289.848 288.498,290.725 288.972,291.532 289.232 C 292.339 289.492,294.170 290.237,295.600 290.889 C 297.030 291.541,299.100 292.482,300.200 292.981 C 304.014 294.709,305.043 295.216,309.778 297.702 C 311.770 298.748,314.131 299.956,315.025 300.387 C 315.919 300.818,316.981 301.537,317.387 301.985 C 317.792 302.433,318.293 302.800,318.499 302.800 C 319.968 302.800,327.046 309.943,329.002 313.400 L 330.587 316.200 330.592 321.000 C 330.598 325.743,330.582 325.828,329.221 328.200 C 327.961 330.396,323.899 334.800,323.134 334.800 C 322.957 334.800,321.954 335.313,320.906 335.939 C 319.858 336.566,317.920 337.307,316.600 337.586 C 315.280 337.865,313.721 338.339,313.134 338.639 C 310.255 340.114,292.208 340.085,287.994 338.598 C 287.091 338.279,284.813 337.750,282.932 337.422 C 281.051 337.093,279.307 336.663,279.056 336.465 C 278.805 336.268,277.610 335.792,276.400 335.408 C 275.190 335.024,273.840 334.489,273.400 334.220 C 272.960 333.950,271.740 333.440,270.689 333.086 C 269.638 332.731,268.309 332.072,267.735 331.621 C 267.162 331.169,266.491 330.792,266.246 330.783 C 265.492 330.754,259.717 326.982,255.647 323.859 C 253.070 321.881,251.702 321.486,250.601 322.399 C 249.644 323.194,249.703 362.774,250.664 364.401 C 251.379 365.611,253.467 366.924,255.400 367.380 C 256.060 367.535,256.875 367.910,257.212 368.213 C 257.548 368.516,258.840 369.029,260.083 369.353 C 261.326 369.677,262.723 370.145,263.188 370.394 C 264.882 371.300,274.707 373.563,278.742 373.976 C 281.020 374.209,283.990 374.708,285.342 375.084 C 289.039 376.114,315.522 376.134,318.828 375.110 C 320.053 374.730,322.843 374.228,325.028 373.994 C 330.812 373.374,341.912 370.128,345.342 368.052 C 346.034 367.634,347.050 367.155,347.600 366.988 C 348.150 366.821,349.157 366.261,349.838 365.742 C 350.519 365.224,351.239 364.800,351.438 364.800 C 351.637 364.799,352.323 364.349,352.962 363.800 C 353.601 363.250,354.273 362.800,354.455 362.800 C 354.637 362.800,355.348 362.305,356.034 361.700 C 359.353 358.773,361.804 356.525,362.468 355.800 C 364.673 353.390,364.507 353.608,367.387 349.348 C 370.734 344.398,373.411 338.150,374.017 333.879 C 374.237 332.329,374.600 330.841,374.824 330.571 C 376.277 328.820,376.336 309.348,374.901 305.000 C 374.466 303.680,373.978 301.707,373.817 300.615 C 373.657 299.522,372.924 297.182,372.189 295.415 C 370.981 292.510,370.401 291.381,367.783 286.843 C 365.963 283.688,356.244 273.200,355.141 273.200 C 354.961 273.200,354.316 272.744,353.707 272.186 C 353.098 271.628,351.987 270.773,351.237 270.286 C 350.488 269.799,349.138 268.911,348.237 268.314 C 347.337 267.716,345.880 266.837,345.000 266.360 C 344.120 265.883,343.304 265.344,343.186 265.162 C 343.068 264.980,342.258 264.536,341.386 264.176 C 340.514 263.815,339.530 263.290,339.200 263.007 C 338.870 262.725,338.150 262.358,337.600 262.191 C 337.050 262.024,335.975 261.464,335.211 260.946 C 334.447 260.429,332.962 259.719,331.911 259.370 C 330.860 259.021,330.000 258.577,330.000 258.383 C 330.000 258.189,329.235 257.827,328.300 257.579 C 327.365 257.330,326.060 256.811,325.400 256.425 C 324.740 256.040,323.570 255.487,322.800 255.196 C 322.030 254.906,321.130 254.450,320.800 254.183 C 320.470 253.917,319.480 253.459,318.600 253.167 C 317.720 252.875,316.640 252.342,316.200 251.983 C 315.760 251.623,314.770 251.089,314.000 250.795 C 313.230 250.501,312.122 249.932,311.538 249.530 C 310.954 249.129,310.355 248.800,310.206 248.800 C 309.868 248.800,305.933 246.233,303.800 244.621 C 302.338 243.516,298.400 239.639,296.944 237.873 C 296.615 237.473,296.085 236.408,295.767 235.507 C 295.449 234.606,294.971 233.606,294.704 233.284 C 293.812 232.210,294.108 225.654,295.127 223.888 C 295.607 223.056,296.000 222.131,296.000 221.831 C 296.000 221.090,300.759 216.000,301.453 216.000 C 301.758 216.000,302.315 215.641,302.691 215.202 C 303.066 214.764,304.010 214.201,304.787 213.952 C 305.564 213.703,306.939 213.169,307.843 212.766 C 312.521 210.677,324.002 209.541,330.249 210.549 C 332.422 210.899,335.683 211.377,337.495 211.611 C 339.308 211.845,341.388 212.287,342.119 212.592 C 342.850 212.897,344.695 213.437,346.219 213.790 C 347.743 214.143,349.352 214.667,349.795 214.953 C 350.238 215.239,351.140 215.603,351.800 215.762 C 353.012 216.053,358.492 218.474,359.600 219.208 C 359.930 219.426,360.830 219.915,361.600 220.294 C 362.370 220.672,363.509 221.391,364.131 221.891 C 365.514 223.003,365.786 223.014,366.800 222.000 C 367.870 220.930,368.070 183.649,367.014 182.141 C 366.261 181.066,364.275 180.131,361.556 179.572 C 360.370 179.329,358.680 178.803,357.800 178.403 C 356.920 178.004,355.300 177.561,354.200 177.418 C 353.100 177.275,351.280 176.900,350.156 176.584 C 344.232 174.920,319.737 173.844,309.400 174.794 M245.220 175.410 L 246.400 176.021 246.400 193.201 L 246.400 210.382 245.318 211.091 C 244.321 211.745,242.309 211.816,219.551 212.000 C 205.974 212.110,194.716 212.350,194.533 212.533 C 194.350 212.717,194.110 249.103,194.000 293.391 C 193.805 371.867,193.781 373.938,193.038 374.758 C 192.039 375.862,155.330 376.102,153.234 375.017 C 151.536 374.140,151.600 377.357,151.594 293.050 C 151.589 230.285,151.485 213.996,151.082 213.200 L 150.576 212.200 126.016 212.097 C 103.862 212.004,101.385 211.929,100.728 211.335 C 99.801 210.496,99.584 177.055,100.496 175.595 C 101.179 174.502,243.114 174.321,245.220 175.410 M337.000 175.398 C 344.719 176.027,354.270 177.641,357.200 178.812 C 358.190 179.207,359.720 179.664,360.600 179.826 C 362.772 180.226,365.375 181.375,366.375 182.375 C 367.184 183.184,367.200 183.549,367.200 201.574 C 367.200 222.912,367.133 223.335,364.084 221.264 C 360.989 219.161,357.497 217.408,351.200 214.797 C 337.298 209.033,317.276 208.145,306.320 212.807 C 300.127 215.442,297.194 218.186,294.355 224.000 C 293.187 226.392,293.709 232.738,295.326 235.800 C 299.519 243.744,305.940 248.079,329.200 258.672 C 330.850 259.424,332.740 260.319,333.400 260.662 C 334.060 261.004,336.220 262.107,338.200 263.113 C 340.180 264.118,342.250 265.242,342.800 265.609 C 343.350 265.976,344.970 266.967,346.400 267.811 C 359.643 275.632,370.686 288.952,373.192 300.126 C 373.399 301.047,373.961 303.510,374.442 305.600 C 378.005 321.086,372.585 345.439,363.804 353.400 C 363.562 353.620,363.102 354.169,362.782 354.620 C 361.000 357.130,354.917 362.037,349.810 365.083 C 342.958 369.169,332.291 372.654,323.100 373.809 C 320.515 374.134,316.292 374.670,313.715 375.000 C 307.837 375.753,296.847 375.755,290.800 375.004 C 288.270 374.690,283.860 374.155,281.000 373.816 C 273.327 372.906,264.740 370.635,255.831 367.160 C 254.527 366.652,252.772 365.581,251.931 364.780 L 250.400 363.324 250.405 343.962 C 250.412 320.205,250.281 320.847,254.512 323.791 C 262.902 329.629,264.652 330.792,265.046 330.796 C 265.291 330.798,265.921 331.136,266.446 331.546 C 273.405 336.988,293.562 341.183,307.255 340.039 C 332.886 337.898,339.898 317.163,319.800 302.941 C 315.960 300.224,307.897 295.863,301.200 292.880 C 300.210 292.439,298.050 291.454,296.400 290.690 C 294.750 289.926,292.950 289.167,292.400 289.004 C 291.850 288.840,291.121 288.461,290.780 288.163 C 290.439 287.865,289.375 287.344,288.415 287.005 C 287.455 286.666,286.474 286.231,286.235 286.039 C 285.996 285.846,284.180 284.832,282.200 283.786 C 280.220 282.739,278.150 281.544,277.600 281.128 C 277.050 280.713,275.070 279.278,273.200 277.938 C 269.285 275.135,269.224 275.081,265.111 270.923 C 259.880 265.636,258.385 263.563,255.064 257.000 C 247.297 241.650,248.148 217.829,256.965 203.800 C 264.311 192.109,277.428 182.193,288.966 179.608 C 290.019 179.372,291.358 178.938,291.941 178.644 C 297.832 175.674,320.419 174.046,337.000 175.398 " stroke="none" fill="#4f9ed5" fill-rule="evenodd"></path><path id="path3" d="M100.662 175.931 C 99.734 176.957,99.645 209.362,100.568 210.624 C 101.116 211.374,101.970 211.407,125.951 211.600 C 150.177 211.795,150.780 211.819,151.370 212.600 C 151.904 213.307,151.976 222.620,151.987 292.920 C 152.001 379.092,151.880 374.353,154.084 374.944 C 156.495 375.589,192.289 375.215,192.851 374.539 C 193.311 373.985,193.432 360.800,193.600 293.359 C 193.762 228.058,193.898 212.742,194.320 212.320 C 194.730 211.909,200.014 211.758,219.520 211.600 C 238.649 211.445,244.403 211.284,245.104 210.884 L 246.009 210.367 245.904 193.295 L 245.800 176.223 244.800 175.718 C 242.940 174.777,101.517 174.987,100.662 175.931 M313.400 175.440 C 306.432 175.877,296.917 177.393,293.200 178.659 C 292.210 178.996,290.181 179.618,288.692 180.040 C 287.202 180.462,285.315 181.166,284.498 181.604 C 283.680 182.042,282.863 182.400,282.681 182.400 C 282.218 182.400,277.212 184.814,276.000 185.621 C 275.450 185.988,273.659 187.168,272.020 188.244 C 249.928 202.748,243.431 235.602,257.600 261.164 C 259.351 264.322,264.081 269.725,268.678 273.818 C 275.564 279.949,283.576 284.692,296.800 290.464 C 301.122 292.351,312.624 298.015,315.220 299.534 C 336.946 312.252,337.570 331.517,316.487 338.647 C 310.139 340.794,294.675 341.214,287.000 339.448 C 282.334 338.374,277.951 337.127,276.882 336.569 C 276.287 336.259,275.570 336.004,275.289 336.002 C 274.770 336.000,269.594 333.720,267.400 332.527 C 266.740 332.168,265.570 331.536,264.800 331.122 C 262.864 330.082,259.075 327.570,254.086 324.020 C 250.747 321.644,250.800 321.322,250.800 344.072 L 250.800 363.292 252.233 364.604 C 253.598 365.855,255.369 366.642,262.600 369.209 C 276.409 374.112,301.495 376.434,316.781 374.224 C 318.882 373.921,321.860 373.552,323.400 373.406 C 348.411 371.026,370.380 352.819,373.599 331.800 C 373.835 330.260,374.292 327.703,374.614 326.117 C 378.886 305.095,367.068 279.941,347.800 269.042 C 347.140 268.669,345.430 267.650,344.000 266.777 C 342.570 265.905,339.690 264.325,337.600 263.266 C 335.510 262.208,333.440 261.147,333.000 260.910 C 332.560 260.672,331.030 259.944,329.600 259.292 C 310.905 250.765,304.911 247.323,299.645 242.091 C 287.140 229.665,293.330 214.947,313.000 210.337 C 317.696 209.237,329.714 208.998,333.417 209.932 C 334.526 210.211,336.956 210.688,338.817 210.991 C 342.239 211.548,349.829 213.734,352.400 214.903 C 353.170 215.253,355.150 216.114,356.800 216.816 C 358.450 217.518,360.070 218.315,360.400 218.585 C 362.498 220.308,365.794 221.622,366.296 220.937 C 367.195 219.707,367.010 183.509,366.100 182.709 C 364.981 181.725,362.296 180.491,360.581 180.174 C 359.712 180.012,358.010 179.539,356.800 179.122 C 349.094 176.465,326.977 174.589,313.400 175.440 M244.291 176.324 C 244.706 176.588,244.969 192.996,244.809 208.671 C 244.786 210.868,245.612 210.799,219.071 210.806 C 205.612 210.809,194.372 210.957,194.093 211.134 C 192.851 211.922,192.800 215.168,192.794 293.597 C 192.790 342.903,192.644 373.227,192.409 373.600 C 192.082 374.117,189.423 374.216,173.273 374.318 L 154.516 374.437 153.861 373.437 C 153.261 372.521,153.197 365.751,153.103 292.383 L 153.000 212.329 152.056 211.565 C 151.150 210.831,150.147 210.800,127.456 210.796 C 114.445 210.793,103.125 210.680,102.300 210.543 L 100.800 210.295 100.800 193.414 C 100.800 184.130,100.920 176.413,101.067 176.267 C 101.445 175.889,243.695 175.946,244.291 176.324 M340.600 176.958 C 354.152 179.161,359.855 180.436,362.967 181.959 C 363.865 182.398,364.888 182.842,365.241 182.944 C 365.658 183.065,365.972 183.789,366.141 185.021 C 366.529 187.851,366.441 218.915,366.044 219.543 C 365.561 220.305,363.430 219.775,362.128 218.568 C 361.558 218.040,360.465 217.435,359.698 217.223 C 358.932 217.011,358.012 216.582,357.653 216.270 C 357.294 215.957,356.280 215.471,355.400 215.190 C 354.520 214.909,353.440 214.445,353.000 214.160 C 352.560 213.874,351.185 213.377,349.945 213.054 C 348.705 212.731,347.131 212.178,346.447 211.824 C 345.762 211.470,343.537 210.916,341.501 210.592 C 339.466 210.268,336.810 209.721,335.600 209.375 C 331.940 208.328,315.784 208.433,312.600 209.524 C 311.280 209.976,309.168 210.550,307.907 210.800 C 306.646 211.050,305.501 211.437,305.363 211.660 C 305.225 211.883,304.298 212.415,303.303 212.842 C 299.879 214.309,297.031 216.925,294.591 220.845 L 293.000 223.400 293.000 229.030 C 293.000 234.502,293.031 234.706,294.100 236.321 C 294.705 237.235,295.202 238.122,295.204 238.291 C 295.213 239.003,298.088 242.135,300.885 244.481 C 303.654 246.803,304.704 247.545,307.563 249.201 C 308.133 249.531,309.140 250.161,309.800 250.601 C 310.460 251.040,312.260 252.014,313.800 252.764 C 315.340 253.514,316.870 254.284,317.200 254.474 C 317.796 254.818,319.022 255.397,324.000 257.687 C 325.430 258.344,327.490 259.314,328.579 259.841 C 329.667 260.369,330.764 260.800,331.017 260.800 C 331.270 260.800,331.900 261.166,332.416 261.614 C 332.932 262.061,334.129 262.622,335.077 262.861 C 336.025 263.100,336.800 263.456,336.800 263.653 C 336.800 263.849,337.745 264.470,338.900 265.031 C 341.851 266.466,344.047 267.668,345.423 268.600 C 346.072 269.040,346.899 269.580,347.261 269.800 C 347.622 270.020,348.702 270.754,349.659 271.432 C 350.617 272.109,352.031 273.099,352.803 273.632 C 354.489 274.795,354.889 275.150,359.031 279.164 C 362.184 282.218,365.826 286.623,366.288 287.942 C 366.415 288.304,366.825 288.960,367.199 289.400 C 367.572 289.840,368.191 291.010,368.573 292.000 C 368.955 292.990,369.499 294.070,369.783 294.400 C 370.066 294.730,370.524 295.990,370.800 297.200 C 371.076 298.410,371.554 299.690,371.863 300.045 C 372.421 300.687,373.161 305.431,373.999 313.745 C 374.574 319.459,373.347 331.523,371.784 335.508 C 371.243 336.887,370.797 338.327,370.793 338.708 C 370.788 339.089,370.158 340.637,369.393 342.148 C 368.627 343.660,368.000 345.055,368.000 345.248 C 368.000 345.442,367.715 345.915,367.367 346.300 C 367.019 346.685,366.164 347.887,365.467 348.971 C 363.692 351.732,363.582 351.877,361.868 353.737 C 361.026 354.652,360.060 355.805,359.722 356.300 C 359.384 356.795,358.874 357.200,358.587 357.200 C 358.301 357.200,357.737 357.636,357.333 358.168 C 356.506 359.260,348.993 364.400,348.224 364.400 C 347.949 364.400,347.423 364.732,347.056 365.139 C 346.688 365.545,345.625 366.103,344.694 366.378 C 343.762 366.654,342.730 367.099,342.400 367.368 C 342.070 367.638,340.990 368.091,340.000 368.376 C 339.010 368.661,337.390 369.215,336.400 369.608 C 335.410 370.001,333.160 370.546,331.400 370.819 C 329.640 371.092,327.689 371.572,327.065 371.886 C 326.017 372.413,321.784 372.882,307.965 374.002 C 304.572 374.276,301.115 374.279,297.365 374.008 C 282.966 372.971,277.603 372.423,276.532 371.879 C 275.910 371.563,273.870 371.084,272.000 370.816 C 270.130 370.547,268.010 370.081,267.290 369.780 C 266.569 369.478,264.769 368.931,263.290 368.562 C 261.810 368.194,260.240 367.642,259.800 367.336 C 259.360 367.030,258.326 366.598,257.503 366.376 C 253.817 365.379,252.080 363.758,251.801 361.057 C 251.477 357.915,251.713 324.552,252.062 324.204 C 252.358 323.908,255.425 325.848,258.853 328.500 C 259.636 329.105,260.384 329.600,260.518 329.600 C 260.651 329.600,261.560 330.140,262.538 330.800 C 263.516 331.460,264.491 332.000,264.704 332.000 C 264.917 332.000,265.521 332.334,266.046 332.742 C 266.571 333.150,267.661 333.699,268.468 333.962 C 269.275 334.226,270.134 334.679,270.376 334.971 C 270.617 335.262,271.667 335.731,272.708 336.013 C 273.748 336.295,275.230 336.824,276.000 337.188 C 276.770 337.553,278.390 338.088,279.600 338.378 C 280.810 338.669,282.297 339.158,282.904 339.465 C 287.756 341.924,313.558 341.923,317.372 339.464 C 317.827 339.170,319.060 338.640,320.111 338.286 C 321.162 337.931,322.491 337.272,323.065 336.821 C 323.638 336.369,324.314 336.000,324.566 336.000 C 325.528 336.000,330.627 330.141,331.354 328.200 C 333.768 321.753,332.415 313.936,327.969 308.647 C 325.549 305.769,318.004 299.602,316.900 299.601 C 316.625 299.600,316.059 299.259,315.642 298.842 C 314.802 298.002,304.338 292.829,297.000 289.626 C 296.120 289.242,294.230 288.364,292.800 287.676 C 291.370 286.988,289.570 286.153,288.800 285.820 C 288.030 285.488,287.130 285.037,286.800 284.819 C 286.221 284.435,284.384 283.494,281.727 282.222 C 281.027 281.886,280.340 281.426,280.199 281.198 C 280.058 280.971,279.056 280.335,277.972 279.786 C 276.887 279.236,276.000 278.622,276.000 278.420 C 276.000 278.219,275.644 277.941,275.209 277.803 C 274.409 277.549,271.862 275.598,269.967 273.787 C 269.398 273.244,268.816 272.800,268.672 272.800 C 268.383 272.800,263.200 267.570,263.200 267.279 C 263.200 267.179,262.615 266.410,261.900 265.570 C 261.185 264.730,260.221 263.538,259.757 262.921 C 258.607 261.391,255.600 255.658,255.600 254.995 C 255.600 254.699,255.313 254.170,254.962 253.820 C 254.612 253.469,254.071 252.061,253.761 250.691 C 253.451 249.321,253.000 247.750,252.759 247.200 C 250.767 242.657,250.801 222.023,252.809 217.000 C 253.072 216.340,253.541 214.745,253.850 213.456 C 254.159 212.167,254.769 210.657,255.206 210.102 C 255.643 209.547,256.000 208.831,256.000 208.511 C 256.000 207.507,259.145 202.362,261.921 198.826 C 263.741 196.507,269.287 191.151,270.989 190.068 C 271.875 189.505,272.977 188.714,273.438 188.310 C 274.987 186.955,282.051 183.346,284.666 182.573 C 285.803 182.237,286.934 181.721,287.179 181.425 C 287.425 181.129,288.475 180.760,289.513 180.605 C 290.551 180.451,292.030 180.051,292.800 179.718 C 294.320 179.060,305.958 176.907,310.800 176.388 C 315.943 175.837,336.070 176.222,340.600 176.958 " stroke="none" fill="#8cbce4" fill-rule="evenodd"></path><path id="path4" d="M100.029 174.254 C 98.733 175.901,98.731 210.896,100.027 212.543 L 100.853 213.594 125.527 213.697 L 150.200 213.800 150.400 294.286 C 150.590 370.857,150.635 374.806,151.314 375.486 C 152.147 376.319,192.053 376.828,193.554 376.024 C 195.720 374.865,195.600 379.691,195.600 293.689 C 195.600 228.431,195.693 214.421,196.130 214.058 C 196.499 213.751,204.072 213.585,221.119 213.509 L 245.578 213.400 246.489 212.489 L 247.400 211.578 247.400 193.354 L 247.400 175.131 246.278 174.165 L 245.155 173.200 173.007 173.200 L 100.858 173.200 100.029 174.254 M313.000 173.428 C 312.340 173.516,310.090 173.850,308.000 174.170 C 305.910 174.490,302.688 174.940,300.839 175.170 C 298.991 175.400,297.076 175.852,296.583 176.174 C 296.091 176.497,294.723 176.875,293.544 177.015 C 290.899 177.329,288.791 177.937,288.000 178.615 C 287.670 178.898,286.543 179.256,285.495 179.411 C 284.448 179.565,283.188 180.005,282.695 180.388 C 282.203 180.771,281.136 181.300,280.325 181.565 C 279.514 181.829,278.434 182.369,277.925 182.765 C 277.416 183.160,276.324 183.704,275.497 183.974 C 274.670 184.243,273.819 184.791,273.605 185.190 C 273.392 185.589,272.671 186.106,272.003 186.339 C 271.336 186.572,270.683 187.041,270.552 187.381 C 270.421 187.721,270.106 188.000,269.851 188.000 C 268.699 188.000,259.723 196.772,259.348 198.264 C 259.219 198.779,258.854 199.200,258.536 199.200 C 258.219 199.200,257.688 199.848,257.357 200.641 C 257.026 201.433,256.398 202.465,255.962 202.933 C 255.526 203.401,255.064 204.238,254.937 204.792 C 254.809 205.346,254.485 205.980,254.217 206.200 C 253.504 206.786,252.800 208.234,252.800 209.114 C 252.800 209.536,252.342 210.742,251.782 211.795 C 251.201 212.889,250.620 214.856,250.428 216.385 C 250.244 217.857,249.757 219.677,249.346 220.431 C 248.672 221.668,248.600 222.806,248.600 232.200 C 248.600 241.594,248.672 242.732,249.346 243.969 C 249.757 244.723,250.252 246.613,250.447 248.169 C 250.653 249.822,251.113 251.423,251.550 252.016 C 251.962 252.574,252.423 253.654,252.575 254.416 C 252.946 256.281,253.629 258.000,254.000 258.000 C 254.167 258.000,254.534 258.585,254.815 259.300 C 255.097 260.015,255.723 261.140,256.206 261.800 C 256.690 262.460,257.213 263.405,257.370 263.900 C 257.526 264.396,258.002 264.987,258.427 265.214 C 258.852 265.442,259.200 265.889,259.200 266.207 C 259.200 267.058,269.804 277.443,271.700 278.450 C 272.195 278.712,272.835 279.258,273.123 279.663 C 273.410 280.069,273.888 280.400,274.185 280.400 C 274.482 280.400,275.478 281.030,276.400 281.800 C 277.322 282.570,278.419 283.200,278.838 283.200 C 279.257 283.200,279.600 283.390,279.600 283.622 C 279.600 283.854,280.573 284.475,281.763 285.001 C 282.953 285.527,284.041 286.142,284.180 286.368 C 284.319 286.593,285.191 287.000,286.117 287.272 C 287.043 287.543,288.019 288.066,288.287 288.432 C 288.555 288.799,289.583 289.302,290.572 289.551 C 291.561 289.800,293.032 290.453,293.841 291.002 C 294.650 291.551,295.663 292.000,296.093 292.000 C 296.522 292.000,297.331 292.359,297.889 292.799 C 298.448 293.238,299.605 293.786,300.460 294.016 C 301.316 294.247,302.668 294.877,303.464 295.418 C 304.260 295.958,305.292 296.403,305.756 296.407 C 306.220 296.411,307.392 296.951,308.360 297.607 C 309.328 298.263,310.265 298.800,310.442 298.800 C 310.620 298.800,311.428 299.250,312.238 299.800 C 313.049 300.350,313.981 300.800,314.310 300.800 C 314.639 300.800,315.328 301.253,315.842 301.808 C 316.356 302.362,317.321 302.924,317.988 303.058 C 318.655 303.191,319.200 303.543,319.200 303.840 C 319.200 304.137,319.695 304.644,320.300 304.967 C 321.666 305.698,324.400 308.222,324.400 308.753 C 324.400 308.969,324.751 309.257,325.180 309.394 C 325.608 309.530,326.072 309.998,326.211 310.434 C 326.349 310.870,326.777 311.536,327.162 311.914 C 327.546 312.291,328.102 313.230,328.396 314.000 C 328.691 314.770,329.217 315.734,329.566 316.142 C 330.505 317.240,330.478 324.805,329.531 325.857 C 329.164 326.266,328.628 327.355,328.341 328.277 C 328.020 329.310,327.470 330.113,326.910 330.368 C 326.409 330.596,326.000 331.050,326.000 331.377 C 326.000 331.704,325.595 332.180,325.100 332.435 C 324.605 332.689,323.750 333.304,323.200 333.801 C 322.650 334.297,321.525 334.919,320.700 335.183 C 319.875 335.446,319.200 335.816,319.200 336.004 C 319.200 336.461,318.444 336.675,314.253 337.404 C 312.302 337.743,310.327 338.286,309.864 338.610 C 308.613 339.486,293.678 339.468,291.976 338.588 C 291.325 338.251,288.769 337.699,286.296 337.362 C 283.823 337.024,281.080 336.408,280.200 335.993 C 279.320 335.577,277.720 335.043,276.645 334.805 C 275.570 334.567,274.267 334.039,273.749 333.631 C 273.231 333.224,272.137 332.765,271.317 332.611 C 270.498 332.457,269.591 331.994,269.302 331.582 C 269.013 331.169,268.160 330.716,267.407 330.575 C 266.653 330.434,265.624 329.970,265.118 329.546 C 263.579 328.252,259.951 326.000,259.406 326.000 C 259.123 326.000,258.597 325.550,258.237 325.000 C 257.876 324.450,257.326 324.000,257.013 324.000 C 256.701 324.000,256.210 323.677,255.923 323.282 C 253.995 320.632,250.409 320.090,249.260 322.274 C 248.329 324.043,248.638 363.329,249.590 364.191 C 250.024 364.584,250.487 365.245,250.619 365.660 C 250.860 366.420,253.135 367.600,254.360 367.600 C 254.724 367.600,255.317 367.944,255.677 368.365 C 256.048 368.798,257.342 369.336,258.666 369.606 C 259.950 369.869,261.270 370.309,261.600 370.585 C 262.370 371.229,264.663 372.000,265.809 372.000 C 266.298 372.000,267.490 372.350,268.457 372.778 C 269.511 373.244,272.057 373.742,274.808 374.020 C 277.334 374.275,280.480 374.856,281.800 375.312 C 286.380 376.892,320.733 376.749,322.671 375.141 C 322.968 374.895,325.468 374.446,328.228 374.143 C 331.324 373.804,333.810 373.310,334.722 372.854 C 335.535 372.447,336.914 372.003,337.787 371.868 C 338.660 371.733,339.850 371.270,340.432 370.839 C 341.014 370.409,342.190 369.930,343.045 369.775 C 344.834 369.451,346.800 368.539,346.800 368.034 C 346.800 367.844,347.412 367.574,348.160 367.434 C 348.908 367.294,349.751 366.900,350.033 366.560 C 350.315 366.220,351.279 365.571,352.173 365.119 C 353.068 364.666,353.944 364.049,354.120 363.748 C 354.296 363.447,354.709 363.200,355.038 363.200 C 355.367 363.200,356.055 362.781,356.567 362.269 C 357.079 361.757,358.016 360.932,358.649 360.437 C 360.120 359.284,362.425 357.114,363.203 356.149 C 363.535 355.737,364.660 354.348,365.703 353.063 C 366.747 351.778,367.600 350.516,367.600 350.260 C 367.600 350.003,367.915 349.595,368.300 349.355 C 368.685 349.114,369.247 348.216,369.548 347.358 C 369.849 346.501,370.412 345.440,370.799 345.000 C 371.185 344.560,371.726 343.480,372.001 342.600 C 372.276 341.720,372.757 340.706,373.070 340.347 C 373.382 339.988,373.824 338.458,374.051 336.947 C 374.277 335.436,374.854 333.390,375.331 332.400 C 376.679 329.607,376.676 305.981,375.327 303.200 C 374.847 302.210,374.337 300.500,374.193 299.400 C 374.049 298.300,373.521 296.500,373.020 295.400 C 372.519 294.300,371.817 292.725,371.461 291.900 C 371.104 291.075,370.653 290.400,370.458 290.400 C 370.263 290.400,369.873 289.574,369.590 288.564 C 369.307 287.554,368.827 286.632,368.523 286.515 C 368.219 286.398,367.716 285.695,367.406 284.951 C 367.095 284.208,366.656 283.600,366.431 283.600 C 366.205 283.600,365.764 283.105,365.451 282.500 C 364.687 281.024,356.520 272.892,355.466 272.558 C 355.006 272.412,354.295 271.866,353.886 271.346 C 353.477 270.826,352.930 270.393,352.671 270.384 C 352.412 270.375,351.577 269.835,350.815 269.184 C 350.053 268.533,349.220 268.000,348.964 268.000 C 348.708 268.000,348.251 267.702,347.949 267.338 C 347.647 266.974,346.860 266.426,346.200 266.121 C 345.540 265.815,344.388 265.123,343.641 264.583 C 342.893 264.042,341.943 263.600,341.528 263.600 C 341.114 263.600,340.679 263.350,340.562 263.045 C 340.445 262.739,339.505 262.175,338.474 261.791 C 337.443 261.407,336.240 260.772,335.800 260.379 C 335.360 259.986,334.325 259.540,333.500 259.388 C 332.675 259.236,332.000 258.956,332.000 258.766 C 332.000 258.300,329.821 257.200,328.898 257.200 C 328.489 257.200,327.558 256.759,326.828 256.221 C 326.099 255.682,324.939 255.119,324.251 254.969 C 323.563 254.819,322.572 254.360,322.048 253.949 C 321.524 253.539,320.354 253.006,319.448 252.766 C 318.542 252.525,317.440 252.005,317.000 251.610 C 316.560 251.215,315.750 250.763,315.200 250.606 C 314.650 250.449,313.570 249.908,312.800 249.405 C 312.030 248.902,310.929 248.245,310.352 247.945 C 306.399 245.889,305.756 245.441,302.958 242.796 C 302.495 242.358,301.951 242.000,301.749 242.000 C 301.547 242.000,300.756 241.255,299.991 240.344 C 299.226 239.434,298.130 238.129,297.556 237.444 C 295.341 234.802,294.683 228.143,296.170 223.400 C 296.814 221.347,300.972 216.412,302.078 216.389 C 302.365 216.383,303.307 215.843,304.171 215.189 C 305.035 214.535,306.098 214.000,306.533 214.000 C 306.967 214.000,308.240 213.573,309.361 213.052 C 313.964 210.913,335.969 210.766,340.121 212.847 C 340.958 213.266,342.822 213.776,344.263 213.980 C 345.704 214.184,347.180 214.619,347.542 214.946 C 347.904 215.273,349.100 215.749,350.200 216.005 C 351.973 216.418,356.353 218.241,358.000 219.252 C 358.330 219.454,359.410 220.001,360.400 220.466 C 361.390 220.932,362.261 221.471,362.336 221.665 C 362.898 223.119,366.240 223.556,367.746 222.371 L 368.800 221.542 368.800 202.591 L 368.800 183.640 367.589 181.846 C 366.493 180.222,366.163 180.011,364.089 179.613 C 362.830 179.371,361.530 178.999,361.200 178.786 C 359.869 177.926,358.468 177.503,355.801 177.159 C 354.261 176.960,352.371 176.497,351.601 176.131 C 350.830 175.764,348.670 175.304,346.800 175.108 C 344.930 174.911,341.510 174.474,339.200 174.136 C 335.238 173.556,315.945 173.035,313.000 173.428 M244.790 174.523 C 247.179 175.343,247.188 175.411,247.192 192.800 C 247.196 209.926,247.053 211.372,245.288 212.043 C 244.610 212.300,235.610 212.435,220.489 212.412 C 197.005 212.378,196.743 212.386,195.577 213.216 L 194.400 214.054 194.398 293.327 C 194.395 375.989,194.408 375.385,192.682 375.812 C 189.906 376.497,152.875 375.792,152.042 375.038 L 151.200 374.276 151.200 294.557 C 151.200 236.826,151.077 214.568,150.754 213.860 C 150.093 212.409,149.929 212.400,124.373 212.400 L 100.845 212.400 100.223 211.511 C 99.532 210.525,99.266 176.346,99.940 175.283 C 100.121 174.999,100.793 174.609,101.434 174.417 C 103.347 173.845,243.117 173.948,244.790 174.523 M343.556 175.383 C 346.062 175.728,349.032 176.269,350.156 176.584 C 351.280 176.900,353.100 177.275,354.200 177.418 C 355.300 177.561,356.920 178.004,357.800 178.403 C 358.680 178.803,360.370 179.329,361.556 179.572 C 364.275 180.131,366.261 181.066,367.014 182.141 C 368.070 183.649,367.870 220.930,366.800 222.000 C 365.786 223.014,365.514 223.003,364.131 221.891 C 363.509 221.391,362.370 220.672,361.600 220.294 C 360.830 219.915,359.930 219.426,359.600 219.208 C 358.492 218.474,353.012 216.053,351.800 215.762 C 351.140 215.603,350.238 215.239,349.795 214.953 C 349.352 214.667,347.743 214.143,346.219 213.790 C 344.695 213.437,342.850 212.897,342.119 212.592 C 341.388 212.287,339.308 211.845,337.495 211.611 C 335.683 211.377,332.422 210.899,330.249 210.549 C 324.002 209.541,312.521 210.677,307.843 212.766 C 306.939 213.169,305.564 213.703,304.787 213.952 C 304.010 214.201,303.066 214.764,302.691 215.202 C 302.315 215.641,301.758 216.000,301.453 216.000 C 300.759 216.000,296.000 221.090,296.000 221.831 C 296.000 222.131,295.607 223.056,295.127 223.888 C 294.108 225.654,293.812 232.210,294.704 233.284 C 294.971 233.606,295.449 234.606,295.767 235.507 C 296.085 236.408,296.615 237.473,296.944 237.873 C 298.400 239.639,302.338 243.516,303.800 244.621 C 305.933 246.233,309.868 248.800,310.206 248.800 C 310.355 248.800,310.954 249.129,311.538 249.530 C 312.122 249.932,313.230 250.501,314.000 250.795 C 314.770 251.089,315.760 251.623,316.200 251.983 C 316.640 252.342,317.720 252.875,318.600 253.167 C 319.480 253.459,320.470 253.917,320.800 254.183 C 321.130 254.450,322.030 254.906,322.800 255.196 C 323.570 255.487,324.740 256.040,325.400 256.425 C 326.060 256.811,327.365 257.330,328.300 257.579 C 329.235 257.827,330.000 258.189,330.000 258.383 C 330.000 258.577,330.860 259.021,331.911 259.370 C 332.962 259.719,334.447 260.429,335.211 260.946 C 335.975 261.464,337.050 262.024,337.600 262.191 C 338.150 262.358,338.870 262.725,339.200 263.007 C 339.530 263.290,340.514 263.815,341.386 264.176 C 342.258 264.536,343.068 264.980,343.186 265.162 C 343.304 265.344,344.120 265.883,345.000 266.360 C 345.880 266.837,347.337 267.716,348.237 268.314 C 349.138 268.911,350.488 269.799,351.237 270.286 C 351.987 270.773,353.098 271.628,353.707 272.186 C 354.316 272.744,354.961 273.200,355.141 273.200 C 356.244 273.200,365.963 283.688,367.783 286.843 C 370.401 291.381,370.981 292.510,372.189 295.415 C 372.924 297.182,373.657 299.522,373.817 300.615 C 373.978 301.707,374.466 303.680,374.901 305.000 C 376.336 309.348,376.277 328.820,374.824 330.571 C 374.600 330.841,374.237 332.329,374.017 333.879 C 373.411 338.150,370.734 344.398,367.387 349.348 C 364.507 353.608,364.673 353.390,362.468 355.800 C 361.804 356.525,359.353 358.773,356.034 361.700 C 355.348 362.305,354.637 362.800,354.455 362.800 C 354.273 362.800,353.601 363.250,352.962 363.800 C 352.323 364.349,351.637 364.799,351.438 364.800 C 351.239 364.800,350.519 365.224,349.838 365.742 C 349.157 366.261,348.150 366.821,347.600 366.988 C 347.050 367.155,346.034 367.634,345.342 368.052 C 341.912 370.128,330.812 373.374,325.028 373.994 C 322.843 374.228,320.053 374.730,318.828 375.110 C 315.522 376.134,289.039 376.114,285.342 375.084 C 283.990 374.708,281.020 374.209,278.742 373.976 C 274.707 373.563,264.882 371.300,263.188 370.394 C 262.723 370.145,261.326 369.677,260.083 369.353 C 258.840 369.029,257.548 368.516,257.212 368.213 C 256.875 367.910,256.060 367.535,255.400 367.380 C 253.467 366.924,251.379 365.611,250.664 364.401 C 249.703 362.774,249.644 323.194,250.601 322.399 C 251.702 321.486,253.070 321.881,255.647 323.859 C 259.717 326.982,265.492 330.754,266.246 330.783 C 266.491 330.792,267.162 331.169,267.735 331.621 C 268.309 332.072,269.638 332.731,270.689 333.086 C 271.740 333.440,272.960 333.950,273.400 334.220 C 273.840 334.489,275.190 335.024,276.400 335.408 C 277.610 335.792,278.805 336.268,279.056 336.465 C 279.307 336.663,281.051 337.093,282.932 337.422 C 284.813 337.750,287.091 338.279,287.994 338.598 C 292.208 340.085,310.255 340.114,313.134 338.639 C 313.721 338.339,315.280 337.865,316.600 337.586 C 317.920 337.307,319.858 336.566,320.906 335.939 C 321.954 335.313,322.957 334.800,323.134 334.800 C 323.899 334.800,327.961 330.396,329.221 328.200 C 330.582 325.828,330.598 325.743,330.592 321.000 L 330.587 316.200 329.002 313.400 C 327.046 309.943,319.968 302.800,318.499 302.800 C 318.293 302.800,317.792 302.433,317.387 301.985 C 316.981 301.537,315.919 300.818,315.025 300.387 C 314.131 299.956,311.770 298.748,309.778 297.702 C 305.043 295.216,304.014 294.709,300.200 292.981 C 299.100 292.482,297.030 291.541,295.600 290.889 C 294.170 290.237,292.339 289.492,291.532 289.232 C 290.725 288.972,289.848 288.498,289.583 288.180 C 289.318 287.861,288.885 287.600,288.619 287.600 C 288.170 287.600,286.180 286.621,282.800 284.738 C 281.511 284.020,279.932 283.095,276.422 281.000 C 275.685 280.560,274.523 279.733,273.841 279.163 C 273.158 278.593,272.268 277.946,271.862 277.726 C 269.445 276.414,260.497 267.423,259.496 265.300 C 259.263 264.805,258.924 264.400,258.743 264.400 C 258.562 264.400,257.950 263.545,257.384 262.500 C 256.818 261.455,255.746 259.520,255.002 258.200 C 254.258 256.880,253.349 254.810,252.983 253.600 C 252.617 252.390,252.069 251.005,251.764 250.522 C 251.460 250.039,250.938 248.059,250.605 246.122 C 250.273 244.185,249.828 241.790,249.618 240.800 C 249.017 237.977,249.121 225.793,249.769 223.000 C 250.075 221.680,250.526 219.283,250.770 217.674 C 251.015 216.065,251.463 214.355,251.767 213.874 C 252.070 213.393,252.623 211.920,252.997 210.600 C 253.370 209.280,253.884 207.951,254.138 207.647 C 254.392 207.342,254.960 206.411,255.400 205.577 C 257.649 201.316,258.446 200.000,258.780 200.000 C 258.981 200.000,259.258 199.648,259.395 199.217 C 259.812 197.901,268.435 189.506,271.200 187.724 C 272.630 186.802,274.250 185.710,274.800 185.298 C 275.350 184.886,276.430 184.303,277.200 184.002 C 277.970 183.700,279.029 183.127,279.554 182.727 C 280.079 182.327,280.747 182.000,281.040 182.000 C 281.332 182.000,282.343 181.575,283.286 181.055 C 284.229 180.535,285.990 179.884,287.200 179.610 C 288.410 179.335,289.814 178.850,290.320 178.533 C 290.826 178.215,292.626 177.710,294.320 177.410 C 296.014 177.110,297.930 176.661,298.578 176.413 C 299.900 175.905,304.028 175.288,309.400 174.794 C 315.216 174.260,338.286 174.657,343.556 175.383 " stroke="none" fill="#3694cc" fill-rule="evenodd"></path><path id="path5" d="M100.440 175.700 C 99.901 176.576,99.908 176.581,100.675 175.900 C 101.707 174.983,242.995 174.804,244.800 175.718 L 245.800 176.223 245.904 193.330 L 246.009 210.437 244.617 211.019 C 243.453 211.505,239.364 211.600,219.639 211.600 C 196.490 211.600,193.992 211.726,194.006 212.890 C 194.010 213.242,194.130 213.214,194.391 212.800 C 194.719 212.281,198.102 212.173,219.503 212.000 C 242.307 211.816,244.321 211.745,245.318 211.091 L 246.400 210.382 246.400 193.201 L 246.400 176.021 245.220 175.410 C 244.175 174.870,235.845 174.800,172.516 174.800 L 100.992 174.800 100.440 175.700 M311.400 175.167 C 310.080 175.295,315.390 175.400,323.200 175.400 C 331.010 175.400,335.870 175.283,334.000 175.140 C 329.888 174.825,314.740 174.843,311.400 175.167 M304.247 175.892 C 301.606 176.285,294.269 177.951,295.074 177.975 C 295.554 177.989,297.264 177.711,298.874 177.357 C 300.483 177.004,303.420 176.483,305.400 176.200 C 307.646 175.878,308.323 175.691,307.200 175.702 C 306.210 175.712,304.881 175.797,304.247 175.892 M338.707 175.890 C 339.426 175.979,340.506 175.977,341.107 175.886 C 341.708 175.795,341.120 175.722,339.800 175.724 C 338.480 175.726,337.988 175.801,338.707 175.890 M345.200 176.631 C 350.159 177.555,351.604 177.647,348.200 176.822 C 346.440 176.395,344.370 176.052,343.600 176.059 C 342.720 176.067,343.314 176.280,345.200 176.631 M291.400 178.822 C 290.520 179.238,290.070 179.570,290.400 179.560 C 291.209 179.534,294.361 178.059,293.600 178.062 C 293.270 178.064,292.280 178.405,291.400 178.822 M356.578 178.999 C 358.106 179.549,359.636 179.994,359.978 179.987 C 360.835 179.969,356.483 178.379,355.000 178.168 C 354.340 178.074,355.050 178.448,356.578 178.999 M285.800 180.635 C 284.480 181.193,282.767 181.886,281.993 182.175 C 280.366 182.781,277.608 184.397,278.200 184.397 C 278.420 184.397,279.144 184.065,279.810 183.659 C 280.475 183.254,281.735 182.691,282.610 182.409 C 283.484 182.127,284.420 181.721,284.689 181.508 C 284.958 181.295,286.218 180.788,287.489 180.382 C 288.760 179.975,289.440 179.638,289.000 179.631 C 288.560 179.624,287.120 180.076,285.800 180.635 M361.603 180.374 C 362.993 180.797,365.262 181.976,366.100 182.710 C 367.013 183.510,367.195 219.707,366.293 220.941 C 365.823 221.583,365.577 221.516,362.993 220.040 C 359.982 218.320,355.243 215.985,354.845 216.025 C 354.710 216.038,355.770 216.646,357.200 217.375 C 361.342 219.488,364.366 221.221,364.616 221.626 C 365.089 222.390,366.422 221.994,366.810 220.974 C 367.695 218.646,367.297 183.297,366.375 182.375 C 365.436 181.436,362.265 179.983,361.267 180.034 C 360.882 180.054,361.025 180.198,361.603 180.374 M273.320 186.904 C 266.021 191.854,261.680 196.338,256.960 203.800 C 255.610 205.933,253.199 210.974,253.230 211.596 C 253.247 211.928,253.481 211.660,253.751 211.000 C 257.360 202.155,264.731 193.018,272.214 188.111 C 277.182 184.854,277.817 184.400,277.394 184.404 C 277.177 184.406,275.344 185.531,273.320 186.904 M321.317 209.497 C 322.811 209.574,325.151 209.574,326.517 209.496 C 327.882 209.418,326.660 209.355,323.800 209.355 C 320.940 209.356,319.822 209.420,321.317 209.497 M314.000 210.200 C 311.615 210.891,312.775 210.906,315.800 210.224 C 317.294 209.886,317.747 209.681,317.000 209.680 C 316.340 209.679,314.990 209.913,314.000 210.200 M332.200 210.207 C 335.853 210.898,337.208 210.884,334.400 210.183 C 333.190 209.881,331.570 209.644,330.800 209.655 C 329.842 209.670,330.283 209.844,332.200 210.207 M100.000 210.262 C 100.000 211.978,100.147 211.988,126.016 212.097 L 150.576 212.200 151.082 213.200 C 151.485 213.996,151.589 230.285,151.594 293.050 C 151.597 336.418,151.714 372.470,151.853 373.167 C 152.340 375.602,152.324 375.600,173.318 375.600 C 193.711 375.600,193.615 375.610,193.594 373.569 C 193.591 373.256,193.361 373.450,193.082 374.000 L 192.577 375.000 174.188 375.115 C 164.075 375.178,155.215 375.125,154.501 374.997 C 151.809 374.515,152.001 380.794,151.987 292.920 C 151.976 222.620,151.904 213.307,151.370 212.600 C 150.780 211.819,150.177 211.795,125.951 211.600 C 101.970 211.407,101.116 211.374,100.568 210.624 C 100.255 210.196,100.000 210.034,100.000 210.262 M337.300 211.076 C 337.685 211.176,338.315 211.176,338.700 211.076 C 339.085 210.975,338.770 210.893,338.000 210.893 C 337.230 210.893,336.915 210.975,337.300 211.076 M305.800 212.547 C 299.139 215.551,293.502 221.697,293.646 225.800 C 293.680 226.781,293.751 226.680,294.033 225.244 C 294.222 224.278,294.618 223.198,294.911 222.844 C 295.205 222.490,295.641 221.750,295.881 221.200 C 297.216 218.136,301.447 214.820,306.878 212.583 C 308.705 211.830,309.840 211.230,309.400 211.250 C 308.960 211.269,307.340 211.853,305.800 212.547 M342.800 212.220 C 347.257 213.638,348.720 213.790,344.800 212.427 C 342.930 211.777,341.040 211.250,340.600 211.255 C 340.160 211.261,341.150 211.695,342.800 212.220 M252.099 214.713 C 251.605 215.988,251.204 217.384,251.208 217.816 C 251.213 218.247,251.662 217.340,252.207 215.800 C 253.422 212.361,253.338 211.517,252.099 214.713 M193.796 293.200 C 193.796 337.090,193.843 355.045,193.900 333.100 C 193.957 311.155,193.957 275.245,193.900 253.300 C 193.843 231.355,193.796 249.310,193.796 293.200 M351.338 214.847 C 352.184 215.293,352.968 215.565,353.081 215.452 C 353.276 215.257,350.580 213.980,350.051 214.018 C 349.913 214.027,350.492 214.400,351.338 214.847 M250.893 220.000 C 250.893 220.770,250.975 221.085,251.076 220.700 C 251.176 220.315,251.176 219.685,251.076 219.300 C 250.975 218.915,250.893 219.230,250.893 220.000 M250.064 225.374 C 249.393 230.838,249.846 243.487,250.683 242.650 C 250.769 242.565,250.632 240.162,250.380 237.310 C 250.034 233.402,250.035 230.866,250.383 227.018 C 250.927 220.996,250.728 219.971,250.064 225.374 M293.309 228.800 C 293.309 229.790,293.387 230.195,293.482 229.700 C 293.578 229.205,293.578 228.395,293.482 227.900 C 293.387 227.405,293.309 227.810,293.309 228.800 M294.000 233.929 C 294.000 237.046,302.600 245.801,308.748 248.942 C 309.547 249.349,310.516 249.963,310.902 250.306 C 311.289 250.648,311.690 250.843,311.794 250.739 C 311.898 250.635,311.260 250.111,310.377 249.575 C 301.697 244.307,297.966 240.922,295.528 236.100 C 294.300 233.672,294.000 233.246,294.000 233.929 M250.893 244.400 C 250.893 245.170,250.975 245.485,251.076 245.100 C 251.176 244.715,251.176 244.085,251.076 243.700 C 250.975 243.315,250.893 243.630,250.893 244.400 M251.225 246.600 C 251.213 247.040,251.649 248.480,252.192 249.800 C 253.461 252.879,253.476 252.214,252.220 248.600 C 251.685 247.060,251.237 246.160,251.225 246.600 M313.400 251.534 C 314.615 252.275,319.088 254.453,324.200 256.793 C 325.740 257.498,327.810 258.488,328.800 258.992 C 329.790 259.497,331.050 260.046,331.600 260.212 C 332.150 260.379,333.010 260.783,333.511 261.111 C 334.743 261.917,339.502 264.147,339.000 263.684 C 338.505 263.227,333.217 260.529,329.200 258.684 C 323.511 256.071,320.587 254.691,316.625 252.748 C 312.471 250.712,311.370 250.297,313.400 251.534 M253.222 252.770 C 253.210 253.084,253.864 254.704,254.676 256.370 C 256.186 259.468,257.600 261.648,257.600 260.878 C 257.600 260.641,257.410 260.330,257.179 260.187 C 256.790 259.947,255.699 257.790,253.947 253.800 C 253.561 252.920,253.235 252.457,253.222 252.770 M257.600 261.724 C 257.600 262.010,259.779 265.064,261.292 266.901 C 262.190 267.989,267.453 273.366,269.000 274.775 C 269.440 275.176,271.330 276.599,273.200 277.938 C 275.070 279.278,277.050 280.706,277.600 281.113 C 278.917 282.087,283.837 284.802,284.265 284.791 C 284.449 284.786,283.610 284.218,282.400 283.529 C 272.767 278.041,264.941 271.269,258.900 263.193 C 258.185 262.237,257.600 261.576,257.600 261.724 M342.000 265.570 C 343.430 266.434,345.466 267.649,346.524 268.270 C 354.246 272.806,362.802 280.784,366.932 287.300 C 368.779 290.213,369.175 290.320,367.439 287.437 C 363.540 280.961,354.789 272.793,346.400 267.799 C 344.970 266.948,343.004 265.745,342.031 265.126 C 341.059 264.506,340.069 264.000,339.831 264.000 C 339.594 264.000,340.570 264.707,342.000 265.570 M284.800 284.967 C 284.800 285.270,287.379 286.703,288.400 286.969 C 288.984 287.121,288.740 286.887,287.812 286.406 C 286.938 285.954,286.047 285.407,285.832 285.192 C 285.436 284.796,284.800 284.658,284.800 284.967 M290.446 287.936 C 291.293 288.590,293.718 289.615,294.360 289.591 C 294.600 289.582,289.937 287.226,289.646 287.209 C 289.561 287.204,289.921 287.531,290.446 287.936 M294.800 289.789 C 294.800 289.929,295.835 290.496,297.100 291.048 C 298.365 291.600,300.132 292.401,301.026 292.826 C 301.921 293.252,302.821 293.596,303.026 293.592 C 303.406 293.583,299.904 291.811,297.000 290.541 C 296.120 290.157,295.265 289.773,295.100 289.688 C 294.935 289.603,294.800 289.648,294.800 289.789 M368.838 290.200 C 368.838 290.420,369.361 291.590,370.000 292.800 C 370.639 294.010,371.162 294.820,371.162 294.600 C 371.162 294.380,370.639 293.210,370.000 292.000 C 369.361 290.790,368.838 289.980,368.838 290.200 M304.211 294.140 C 304.645 294.437,306.800 295.581,309.000 296.682 C 320.629 302.503,326.266 307.151,329.752 313.797 C 330.329 314.895,330.800 315.557,330.800 315.268 C 330.800 314.561,328.920 311.329,327.502 309.600 C 323.369 304.559,318.757 301.242,308.650 296.043 C 303.985 293.643,302.647 293.070,304.211 294.140 M371.200 295.553 C 371.200 295.821,371.473 296.567,371.806 297.212 C 372.140 297.857,372.668 299.333,372.980 300.492 C 373.292 301.651,373.559 302.199,373.574 301.709 C 373.588 301.219,373.145 299.609,372.589 298.131 C 371.543 295.353,371.200 294.716,371.200 295.553 M374.044 305.800 C 374.039 306.240,374.279 307.680,374.576 309.000 C 375.028 311.002,375.124 311.168,375.153 310.000 C 375.172 309.230,374.933 307.790,374.621 306.800 C 374.309 305.810,374.049 305.360,374.044 305.800 M375.361 317.600 C 375.361 321.010,375.422 322.405,375.497 320.700 C 375.572 318.995,375.572 316.205,375.497 314.500 C 375.422 312.795,375.361 314.190,375.361 317.600 M331.337 321.000 C 331.339 322.760,331.409 323.430,331.493 322.489 C 331.578 321.549,331.577 320.109,331.491 319.289 C 331.405 318.470,331.336 319.240,331.337 321.000 M251.200 322.791 C 250.682 323.119,250.585 325.907,250.489 343.142 L 250.379 363.113 251.357 364.276 C 251.896 364.916,252.936 365.740,253.668 366.107 C 256.052 367.302,260.721 369.200,261.267 369.196 C 261.976 369.191,258.326 367.505,255.768 366.655 C 254.650 366.284,253.075 365.376,252.268 364.636 L 250.800 363.292 250.800 344.072 C 250.800 321.322,250.747 321.644,254.086 324.020 C 259.075 327.570,262.864 330.082,264.800 331.122 C 265.570 331.536,266.740 332.168,267.400 332.527 C 269.545 333.693,274.764 336.000,275.289 336.014 C 275.570 336.021,276.520 336.375,277.400 336.800 C 278.280 337.225,279.360 337.571,279.800 337.569 C 280.568 337.565,279.975 337.303,275.400 335.626 C 271.822 334.314,267.422 332.309,266.446 331.546 C 265.921 331.136,265.309 330.800,265.084 330.800 C 264.688 330.800,259.280 327.217,254.800 323.987 C 252.461 322.301,252.143 322.195,251.200 322.791 M374.252 327.919 C 373.841 330.184,373.616 332.149,373.752 332.285 C 373.888 332.422,374.000 332.200,374.000 331.792 C 374.000 331.385,374.283 329.923,374.628 328.545 C 374.974 327.167,375.199 325.535,375.128 324.920 C 375.054 324.274,374.684 325.542,374.252 327.919 M329.453 328.773 C 328.010 331.424,325.370 334.071,322.622 335.622 C 321.380 336.323,320.434 336.968,320.521 337.054 C 320.879 337.413,324.505 335.013,326.528 333.078 C 328.558 331.137,331.127 327.394,330.713 326.980 C 330.612 326.879,330.045 327.686,329.453 328.773 M372.071 337.671 C 371.585 339.019,371.257 340.190,371.341 340.274 C 371.424 340.358,371.901 339.334,372.400 338.000 C 372.899 336.666,373.227 335.494,373.130 335.397 C 373.032 335.299,372.556 336.322,372.071 337.671 M317.200 338.023 C 315.990 338.462,313.920 339.071,312.600 339.378 C 311.149 339.716,310.636 339.949,311.301 339.968 C 312.339 339.998,320.000 337.700,320.000 337.359 C 320.000 337.078,319.446 337.210,317.200 338.023 M283.717 338.609 C 285.432 339.134,287.952 339.658,289.317 339.772 L 291.800 339.981 288.800 339.413 C 287.150 339.101,284.916 338.566,283.836 338.223 C 282.756 337.880,281.586 337.612,281.236 337.626 C 280.886 337.641,282.003 338.083,283.717 338.609 M293.091 340.289 C 293.801 340.377,295.061 340.379,295.891 340.292 C 296.721 340.205,296.140 340.133,294.600 340.131 C 293.060 340.129,292.381 340.200,293.091 340.289 M305.891 340.289 C 306.601 340.377,307.861 340.379,308.691 340.292 C 309.521 340.205,308.940 340.133,307.400 340.131 C 305.860 340.129,305.181 340.200,305.891 340.289 M300.500 340.676 C 300.885 340.776,301.515 340.776,301.900 340.676 C 302.285 340.575,301.970 340.493,301.200 340.493 C 300.430 340.493,300.115 340.575,300.500 340.676 M369.800 343.366 C 364.660 353.790,356.689 361.526,345.642 366.810 C 343.795 367.694,342.357 368.491,342.447 368.581 C 342.598 368.731,347.943 366.191,349.810 365.081 C 354.876 362.070,361.000 357.130,362.782 354.620 C 363.102 354.169,363.562 353.620,363.804 353.400 C 365.589 351.782,371.446 342.011,371.114 341.207 C 371.051 341.056,370.460 342.028,369.800 343.366 M337.800 370.023 C 336.040 370.660,334.960 371.175,335.400 371.167 C 335.840 371.160,337.550 370.634,339.200 370.000 C 343.105 368.499,341.958 368.518,337.800 370.023 M263.800 370.019 C 264.900 370.448,266.430 370.888,267.200 370.996 C 268.389 371.162,268.329 371.109,266.800 370.644 C 265.810 370.343,264.493 369.895,263.874 369.648 C 263.255 369.402,262.535 369.208,262.274 369.219 C 262.013 369.229,262.700 369.589,263.800 370.019 M268.833 371.354 C 269.174 371.669,275.612 373.199,276.489 373.174 C 276.990 373.159,275.690 372.716,273.600 372.190 C 269.989 371.280,268.464 371.013,268.833 371.354 M329.800 372.217 C 328.040 372.722,326.913 373.149,327.296 373.167 C 327.991 373.200,334.052 371.647,334.367 371.355 C 334.759 370.990,332.774 371.365,329.800 372.217 M278.305 373.483 C 278.802 373.579,279.522 373.575,279.905 373.475 C 280.287 373.375,279.880 373.296,279.000 373.301 C 278.120 373.305,277.807 373.387,278.305 373.483 M324.305 373.483 C 324.802 373.579,325.522 373.575,325.905 373.475 C 326.287 373.375,325.880 373.296,325.000 373.301 C 324.120 373.305,323.807 373.387,324.305 373.483 M281.900 373.882 C 282.395 373.978,283.205 373.978,283.700 373.882 C 284.195 373.787,283.790 373.709,282.800 373.709 C 281.810 373.709,281.405 373.787,281.900 373.882 M316.400 374.277 C 311.767 375.075,294.845 375.182,289.281 374.448 C 287.015 374.150,285.071 373.995,284.961 374.105 C 283.568 375.498,309.911 375.810,318.000 374.496 C 320.750 374.049,322.280 373.685,321.400 373.688 C 320.520 373.690,318.270 373.955,316.400 374.277 " stroke="none" fill="#7cbce4" fill-rule="evenodd"></path></g></svg>