<?xml version="1.0" encoding="UTF-8"?>
<svg version="1.1" viewBox="0 0 400 400" xmlns="http://www.w3.org/2000/svg">
<g fill-rule="evenodd">
<path d="m101.07 176.27c-0.147 0.146-0.267 7.863-0.267 17.147v16.881l1.5 0.248c0.825 0.137 12.145 0.25 25.156 0.253 22.691 4e-3 23.694 0.035 24.6 0.769l0.944 0.764 0.103 80.054c0.094 73.368 0.158 80.138 0.758 81.054l0.655 1 18.757-0.119c16.15-0.102 18.809-0.201 19.136-0.718 0.235-0.373 0.381-30.697 0.385-80.003 6e-3 -78.429 0.057-81.675 1.299-82.463 0.279-0.177 11.519-0.325 24.978-0.328 26.541-7e-3 25.715 0.062 25.738-2.135 0.16-15.675-0.103-32.083-0.518-32.347-0.596-0.378-142.85-0.435-143.22-0.057m209.73 0.121c-4.842 0.519-16.48 2.672-18 3.33-0.77 0.333-2.249 0.733-3.287 0.887-1.038 0.155-2.088 0.524-2.334 0.82-0.245 0.296-1.376 0.812-2.513 1.148-2.615 0.773-9.679 4.382-11.228 5.737-0.461 0.404-1.563 1.195-2.449 1.758-1.702 1.083-7.248 6.439-9.068 8.758-2.776 3.536-5.921 8.681-5.921 9.685 0 0.32-0.357 1.036-0.794 1.591s-1.047 2.065-1.356 3.354-0.778 2.884-1.041 3.544c-2.008 5.023-2.042 25.657-0.05 30.2 0.241 0.55 0.692 2.121 1.002 3.491s0.851 2.778 1.201 3.129c0.351 0.35 0.638 0.879 0.638 1.175 0 0.663 3.007 6.396 4.157 7.926 0.464 0.617 1.428 1.809 2.143 2.649s1.3 1.609 1.3 1.709c0 0.291 5.183 5.521 5.472 5.521 0.144 0 0.726 0.444 1.295 0.987 1.895 1.811 4.442 3.762 5.242 4.016 0.435 0.138 0.791 0.416 0.791 0.617 0 0.202 0.887 0.816 1.972 1.366 1.084 0.549 2.086 1.185 2.227 1.412 0.141 0.228 0.828 0.688 1.528 1.024 2.657 1.272 4.494 2.213 5.073 2.597 0.33 0.218 1.23 0.669 2 1.001 0.77 0.333 2.57 1.168 4 1.856s3.32 1.566 4.2 1.95c7.338 3.203 17.802 8.376 18.642 9.216 0.417 0.417 0.983 0.758 1.258 0.759 1.104 1e-3 8.649 6.168 11.069 9.046 4.446 5.289 5.799 13.106 3.385 19.553-0.727 1.941-5.826 7.8-6.788 7.8-0.252 0-0.928 0.369-1.501 0.821-0.574 0.451-1.903 1.11-2.954 1.465-1.051 0.354-2.284 0.884-2.739 1.178-3.814 2.459-29.616 2.46-34.468 1e-3 -0.607-0.307-2.094-0.796-3.304-1.087-1.21-0.29-2.83-0.825-3.6-1.19-0.77-0.364-2.252-0.893-3.292-1.175-1.041-0.282-2.091-0.751-2.332-1.042-0.242-0.292-1.101-0.745-1.908-1.009-0.807-0.263-1.897-0.812-2.422-1.22s-1.129-0.742-1.342-0.742-1.188-0.54-2.166-1.2-1.887-1.2-2.02-1.2c-0.134 0-0.882-0.495-1.665-1.1-3.428-2.652-6.495-4.592-6.791-4.296-0.349 0.348-0.585 33.711-0.261 36.853 0.279 2.701 2.016 4.322 5.702 5.319 0.823 0.222 1.857 0.654 2.297 0.96s2.01 0.858 3.49 1.226c1.479 0.369 3.279 0.916 4 1.218 0.72 0.301 2.84 0.767 4.71 1.036 1.87 0.268 3.91 0.747 4.532 1.063 1.071 0.544 6.434 1.092 20.833 2.129 3.75 0.271 7.207 0.268 10.6-6e-3 13.819-1.12 18.052-1.589 19.1-2.116 0.624-0.314 2.575-0.794 4.335-1.067s4.01-0.818 5-1.211 2.61-0.947 3.6-1.232 2.07-0.738 2.4-1.008c0.33-0.269 1.362-0.714 2.294-0.99 0.931-0.275 1.994-0.833 2.362-1.239 0.367-0.407 0.893-0.739 1.168-0.739 0.769 0 8.282-5.14 9.109-6.232 0.404-0.532 0.968-0.968 1.254-0.968 0.287 0 0.797-0.405 1.135-0.9s1.304-1.648 2.146-2.563c1.714-1.86 1.824-2.005 3.599-4.766 0.697-1.084 1.552-2.286 1.9-2.671s0.633-0.858 0.633-1.052c0-0.193 0.627-1.588 1.393-3.1 0.765-1.511 1.395-3.059 1.4-3.44 4e-3 -0.381 0.45-1.821 0.991-3.2 1.563-3.985 2.79-16.049 2.215-21.763-0.838-8.314-1.578-13.058-2.136-13.7-0.309-0.355-0.787-1.635-1.063-2.845s-0.734-2.47-1.017-2.8c-0.284-0.33-0.828-1.41-1.21-2.4s-1.001-2.16-1.374-2.6c-0.374-0.44-0.784-1.096-0.911-1.458-0.462-1.319-4.104-5.724-7.257-8.778-4.142-4.014-4.542-4.369-6.228-5.532-0.772-0.533-2.186-1.523-3.144-2.2-0.957-0.678-2.037-1.412-2.398-1.632-0.362-0.22-1.189-0.76-1.838-1.2-1.376-0.932-3.572-2.134-6.523-3.569-1.155-0.561-2.1-1.182-2.1-1.378 0-0.197-0.775-0.553-1.723-0.792s-2.145-0.8-2.661-1.247c-0.516-0.448-1.146-0.814-1.399-0.814s-1.35-0.431-2.438-0.959c-1.089-0.527-3.149-1.497-4.579-2.154-4.978-2.29-6.204-2.869-6.8-3.213-0.33-0.19-1.86-0.96-3.4-1.71s-3.34-1.724-4-2.163c-0.66-0.44-1.667-1.07-2.237-1.4-2.859-1.656-3.909-2.398-6.678-4.72-2.797-2.346-5.672-5.478-5.681-6.19-2e-3 -0.169-0.499-1.056-1.104-1.97-1.069-1.615-1.1-1.819-1.1-7.291v-5.63l1.591-2.555c2.44-3.92 5.288-6.536 8.712-8.003 0.995-0.427 1.922-0.959 2.06-1.182s1.283-0.61 2.544-0.86 3.373-0.824 4.693-1.276c3.184-1.091 19.34-1.196 23-0.149 1.21 0.346 3.866 0.893 5.901 1.217 2.036 0.324 4.261 0.878 4.946 1.232 0.684 0.354 2.258 0.907 3.498 1.23s2.615 0.82 3.055 1.106c0.44 0.285 1.52 0.749 2.4 1.03s1.894 0.767 2.253 1.08c0.359 0.312 1.279 0.741 2.045 0.953 0.767 0.212 1.86 0.817 2.43 1.345 1.302 1.207 3.433 1.737 3.916 0.975 0.397-0.628 0.485-31.692 0.097-34.522-0.169-1.232-0.483-1.956-0.9-2.077-0.353-0.102-1.376-0.546-2.274-0.985-3.112-1.523-8.815-2.798-22.367-5.001-4.53-0.736-24.657-1.121-29.8-0.57" fill="#f7f9fb"/>
<path d="m0 200v200h200 200v-200-200h-200-200v200m246.28-25.835l1.122 0.966v18.223 18.224l-0.911 0.911-0.911 0.911-24.459 0.109c-17.047 0.076-24.62 0.242-24.989 0.549-0.437 0.363-0.53 14.373-0.53 79.631 0 86.002 0.12 81.176-2.046 82.335-1.501 0.804-41.407 0.295-42.24-0.538-0.679-0.68-0.724-4.629-0.914-81.2l-0.2-80.486-24.673-0.103-24.674-0.103-0.826-1.051c-1.296-1.647-1.294-36.642 2e-3 -38.289l0.829-1.054h72.149 72.148l1.123 0.965m92.922-0.029c2.31 0.338 5.73 0.775 7.6 0.972 1.87 0.196 4.03 0.656 4.801 1.023 0.77 0.366 2.66 0.829 4.2 1.028 2.667 0.344 4.068 0.767 5.399 1.627 0.33 0.213 1.63 0.585 2.889 0.827 2.074 0.398 2.404 0.609 3.5 2.233l1.211 1.794v18.951 18.951l-1.054 0.829c-1.506 1.185-4.848 0.748-5.41-0.706-0.075-0.194-0.946-0.733-1.936-1.199-0.99-0.465-2.07-1.012-2.4-1.214-1.647-1.011-6.027-2.834-7.8-3.247-1.1-0.256-2.296-0.732-2.658-1.059s-1.838-0.762-3.279-0.966-3.305-0.714-4.142-1.133c-4.152-2.081-26.157-1.934-30.76 0.205-1.121 0.521-2.394 0.948-2.828 0.948-0.435 0-1.498 0.535-2.362 1.189s-1.806 1.194-2.093 1.2c-1.106 0.023-5.264 4.958-5.908 7.011-1.487 4.743-0.829 11.402 1.386 14.044 0.574 0.685 1.67 1.99 2.435 2.9 0.765 0.911 1.556 1.656 1.758 1.656s0.746 0.358 1.209 0.796c2.798 2.645 3.441 3.093 7.394 5.149 0.577 0.3 1.678 0.957 2.448 1.46s1.85 1.044 2.4 1.201 1.36 0.609 1.8 1.004 1.542 0.915 2.448 1.156c0.906 0.24 2.076 0.773 2.6 1.183 0.524 0.411 1.515 0.87 2.203 1.02s1.848 0.713 2.577 1.252c0.73 0.538 1.661 0.979 2.07 0.979 0.923 0 3.102 1.1 3.102 1.566 0 0.19 0.675 0.47 1.5 0.622s1.86 0.598 2.3 0.991 1.643 1.028 2.674 1.412 1.971 0.948 2.088 1.254c0.117 0.305 0.552 0.555 0.966 0.555 0.415 0 1.365 0.442 2.113 0.983 0.747 0.54 1.899 1.232 2.559 1.538 0.66 0.305 1.447 0.853 1.749 1.217s0.759 0.662 1.015 0.662 1.089 0.533 1.851 1.184 1.597 1.191 1.856 1.2 0.806 0.442 1.215 0.962 1.12 1.066 1.58 1.212c1.054 0.334 9.221 8.466 9.985 9.942 0.313 0.605 0.754 1.1 0.98 1.1 0.225 0 0.664 0.608 0.975 1.351 0.31 0.744 0.813 1.447 1.117 1.564s0.784 1.039 1.067 2.049 0.673 1.836 0.868 1.836 0.646 0.675 1.003 1.5c0.356 0.825 1.058 2.4 1.559 3.5s1.029 2.9 1.173 4 0.654 2.81 1.134 3.8c1.349 2.781 1.352 26.407 4e-3 29.2-0.477 0.99-1.054 3.036-1.28 4.547-0.227 1.511-0.669 3.041-0.981 3.4-0.313 0.359-0.794 1.373-1.069 2.253s-0.816 1.96-1.202 2.4c-0.387 0.44-0.95 1.501-1.251 2.358-0.301 0.858-0.863 1.756-1.248 1.997-0.385 0.24-0.7 0.648-0.7 0.905 0 0.256-0.853 1.518-1.897 2.803-1.043 1.285-2.168 2.674-2.5 3.086-0.778 0.965-3.083 3.135-4.554 4.288-0.633 0.495-1.57 1.32-2.082 1.832s-1.2 0.931-1.529 0.931-0.742 0.247-0.918 0.548-1.052 0.918-1.947 1.371c-0.894 0.452-1.858 1.101-2.14 1.441s-1.125 0.734-1.873 0.874-1.36 0.41-1.36 0.6c0 0.505-1.966 1.417-3.755 1.741-0.855 0.155-2.031 0.634-2.613 1.064-0.582 0.431-1.772 0.894-2.645 1.029s-2.252 0.579-3.065 0.986c-0.912 0.456-3.398 0.95-6.494 1.289-2.76 0.303-5.26 0.752-5.557 0.998-1.938 1.608-36.291 1.751-40.871 0.171-1.32-0.456-4.466-1.037-6.992-1.292-2.751-0.278-5.297-0.776-6.351-1.242-0.967-0.428-2.159-0.778-2.648-0.778-1.146 0-3.439-0.771-4.209-1.415-0.33-0.276-1.65-0.716-2.934-0.979-1.324-0.27-2.618-0.808-2.989-1.241-0.36-0.421-0.953-0.765-1.317-0.765-1.225 0-3.5-1.18-3.741-1.94-0.132-0.415-0.595-1.076-1.029-1.469-0.952-0.862-1.261-40.148-0.33-41.917 1.149-2.184 4.735-1.642 6.663 1.008 0.287 0.395 0.778 0.718 1.09 0.718 0.313 0 0.863 0.45 1.224 1 0.36 0.55 0.886 1 1.169 1 0.545 0 4.173 2.252 5.712 3.546 0.506 0.424 1.535 0.888 2.289 1.029 0.753 0.141 1.606 0.594 1.895 1.007 0.289 0.412 1.196 0.875 2.015 1.029 0.82 0.154 1.914 0.613 2.432 1.02 0.518 0.408 1.821 0.936 2.896 1.174s2.675 0.772 3.555 1.188c0.88 0.415 3.623 1.031 6.096 1.369 2.473 0.337 5.029 0.889 5.68 1.226 1.702 0.88 16.637 0.898 17.888 0.022 0.463-0.324 2.438-0.867 4.389-1.206 4.191-0.729 4.947-0.943 4.947-1.4 0-0.188 0.675-0.558 1.5-0.821 0.825-0.264 1.95-0.886 2.5-1.382 0.55-0.497 1.405-1.112 1.9-1.366 0.495-0.255 0.9-0.731 0.9-1.058s0.409-0.781 0.91-1.009c0.56-0.255 1.11-1.058 1.431-2.091 0.287-0.922 0.823-2.011 1.19-2.42 0.947-1.052 0.974-8.617 0.035-9.715-0.349-0.408-0.875-1.372-1.17-2.142-0.294-0.77-0.85-1.709-1.234-2.086-0.385-0.378-0.813-1.044-0.951-1.48-0.139-0.436-0.603-0.904-1.031-1.04-0.429-0.137-0.78-0.425-0.78-0.641 0-0.531-2.734-3.055-4.1-3.786-0.605-0.323-1.1-0.83-1.1-1.127s-0.545-0.649-1.212-0.782c-0.667-0.134-1.632-0.696-2.146-1.25-0.514-0.555-1.203-1.008-1.532-1.008s-1.261-0.45-2.072-1c-0.81-0.55-1.618-1-1.796-1-0.177 0-1.114-0.537-2.082-1.193s-2.14-1.196-2.604-1.2-1.496-0.449-2.292-0.989c-0.796-0.541-2.148-1.171-3.004-1.402-0.855-0.23-2.012-0.778-2.571-1.217-0.558-0.44-1.367-0.799-1.796-0.799-0.43 0-1.443-0.449-2.252-0.998s-2.28-1.202-3.269-1.451-2.017-0.752-2.285-1.119c-0.268-0.366-1.244-0.889-2.17-1.16-0.926-0.272-1.798-0.679-1.937-0.904-0.139-0.226-1.227-0.841-2.417-1.367s-2.163-1.147-2.163-1.379-0.343-0.422-0.762-0.422-1.516-0.63-2.438-1.4-1.918-1.4-2.215-1.4-0.775-0.331-1.062-0.737c-0.288-0.405-0.928-0.951-1.423-1.213-1.896-1.007-12.5-11.392-12.5-12.243 0-0.318-0.348-0.765-0.773-0.993-0.425-0.227-0.901-0.818-1.057-1.314-0.157-0.495-0.68-1.44-1.164-2.1-0.483-0.66-1.109-1.785-1.391-2.5-0.281-0.715-0.648-1.3-0.815-1.3-0.371 0-1.054-1.719-1.425-3.584-0.152-0.762-0.613-1.842-1.025-2.4-0.437-0.593-0.897-2.194-1.103-3.847-0.195-1.556-0.69-3.446-1.101-4.2-0.674-1.237-0.746-2.375-0.746-11.769s0.072-10.532 0.746-11.769c0.411-0.754 0.898-2.574 1.082-4.046 0.192-1.529 0.773-3.496 1.354-4.59 0.56-1.053 1.018-2.259 1.018-2.681 0-0.88 0.704-2.328 1.417-2.914 0.268-0.22 0.592-0.854 0.72-1.408 0.127-0.554 0.589-1.391 1.025-1.859s1.064-1.5 1.395-2.292c0.331-0.793 0.862-1.441 1.179-1.441 0.318 0 0.683-0.421 0.812-0.936 0.375-1.492 9.351-10.264 10.503-10.264 0.255 0 0.57-0.279 0.701-0.619s0.784-0.809 1.451-1.042c0.668-0.233 1.389-0.75 1.602-1.149 0.214-0.399 1.065-0.947 1.892-1.216 0.827-0.27 1.919-0.814 2.428-1.209 0.509-0.396 1.589-0.936 2.4-1.2 0.811-0.265 1.878-0.794 2.37-1.177 0.493-0.383 1.753-0.823 2.8-0.977 1.048-0.155 2.175-0.513 2.505-0.796 0.791-0.678 2.899-1.286 5.544-1.6 1.179-0.14 2.547-0.518 3.039-0.841 0.493-0.322 2.408-0.774 4.256-1.004 1.849-0.23 5.071-0.68 7.161-1s4.34-0.654 5-0.742c2.945-0.393 22.238 0.128 26.2 0.708" fill="#0474c4"/>
<path d="m101.43 174.42c-0.641 0.192-1.313 0.582-1.494 0.866-0.674 1.063-0.408 35.242 0.283 36.228l0.622 0.889h23.528c25.556 0 25.72 9e-3 26.381 1.46 0.323 0.708 0.446 22.966 0.446 80.697v79.719l0.842 0.762c0.833 0.754 37.864 1.459 40.64 0.774 1.726-0.427 1.713 0.177 1.716-82.485l2e-3 -79.273 1.177-0.838c1.166-0.83 1.428-0.838 24.912-0.804 15.121 0.023 24.121-0.112 24.799-0.369 1.765-0.671 1.908-2.117 1.904-19.243-4e-3 -17.389-0.013-17.457-2.402-18.277-1.673-0.575-141.44-0.678-143.36-0.106m207.97 0.377c-5.372 0.494-9.5 1.111-10.822 1.619-0.648 0.248-2.564 0.697-4.258 0.997s-3.494 0.805-4 1.123c-0.506 0.317-1.91 0.802-3.12 1.077-1.21 0.274-2.971 0.925-3.914 1.445s-1.954 0.945-2.246 0.945c-0.293 0-0.961 0.327-1.486 0.727s-1.584 0.973-2.354 1.275c-0.77 0.301-1.85 0.884-2.4 1.296s-2.17 1.504-3.6 2.426c-2.765 1.782-11.388 10.177-11.805 11.493-0.137 0.431-0.414 0.783-0.615 0.783-0.334 0-1.131 1.316-3.38 5.577-0.44 0.834-1.008 1.765-1.262 2.07-0.254 0.304-0.768 1.633-1.141 2.953-0.374 1.32-0.927 2.793-1.23 3.274-0.304 0.481-0.752 2.191-0.997 3.8-0.244 1.609-0.695 4.006-1.001 5.326-0.648 2.793-0.752 14.977-0.151 17.8 0.21 0.99 0.655 3.385 0.987 5.322 0.333 1.937 0.855 3.917 1.159 4.4 0.305 0.483 0.853 1.868 1.219 3.078s1.275 3.28 2.019 4.6 1.816 3.255 2.382 4.3 1.178 1.9 1.359 1.9 0.52 0.405 0.753 0.9c1.001 2.123 9.949 11.114 12.366 12.426 0.406 0.22 1.296 0.867 1.979 1.437 0.682 0.57 1.844 1.397 2.581 1.837 3.51 2.095 5.089 3.02 6.378 3.738 3.38 1.883 5.37 2.862 5.819 2.862 0.266 0 0.699 0.261 0.964 0.58 0.265 0.318 1.142 0.792 1.949 1.052s2.638 1.005 4.068 1.657 3.5 1.593 4.6 2.092c3.814 1.728 4.843 2.235 9.578 4.721 1.992 1.046 4.353 2.254 5.247 2.685s1.956 1.15 2.362 1.598c0.405 0.448 0.906 0.815 1.112 0.815 1.469 0 8.547 7.143 10.503 10.6l1.585 2.8 5e-3 4.8c6e-3 4.743-0.01 4.828-1.371 7.2-1.26 2.196-5.322 6.6-6.087 6.6-0.177 0-1.18 0.513-2.228 1.139-1.048 0.627-2.986 1.368-4.306 1.647s-2.879 0.753-3.466 1.053c-2.879 1.475-20.926 1.446-25.14-0.041-0.903-0.319-3.181-0.848-5.062-1.176-1.881-0.329-3.625-0.759-3.876-0.957-0.251-0.197-1.446-0.673-2.656-1.057s-2.56-0.919-3-1.188c-0.44-0.27-1.66-0.78-2.711-1.134-1.051-0.355-2.38-1.014-2.954-1.465-0.573-0.452-1.244-0.829-1.489-0.838-0.754-0.029-6.529-3.801-10.599-6.924-2.577-1.978-3.945-2.373-5.046-1.46-0.957 0.795-0.898 40.375 0.063 42.002 0.715 1.21 2.803 2.523 4.736 2.979 0.66 0.155 1.475 0.53 1.812 0.833 0.336 0.303 1.628 0.816 2.871 1.14s2.64 0.792 3.105 1.041c1.694 0.906 11.519 3.169 15.554 3.582 2.278 0.233 5.248 0.732 6.6 1.108 3.697 1.03 30.18 1.05 33.486 0.026 1.225-0.38 4.015-0.882 6.2-1.116 5.784-0.62 16.884-3.866 20.314-5.942 0.692-0.418 1.708-0.897 2.258-1.064s1.557-0.727 2.238-1.246c0.681-0.518 1.401-0.942 1.6-0.942 0.199-1e-3 0.885-0.451 1.524-1 0.639-0.55 1.311-1 1.493-1s0.893-0.495 1.579-1.1c3.319-2.927 5.77-5.175 6.434-5.9 2.205-2.41 2.039-2.192 4.919-6.452 3.347-4.95 6.024-11.198 6.63-15.469 0.22-1.55 0.583-3.038 0.807-3.308 1.453-1.751 1.512-21.223 0.077-25.571-0.435-1.32-0.923-3.293-1.084-4.385-0.16-1.093-0.893-3.433-1.628-5.2-1.208-2.905-1.788-4.034-4.406-8.572-1.82-3.155-11.539-13.643-12.642-13.643-0.18 0-0.825-0.456-1.434-1.014s-1.72-1.413-2.47-1.9c-0.749-0.487-2.099-1.375-3-1.972-0.9-0.598-2.357-1.477-3.237-1.954s-1.696-1.016-1.814-1.198-0.928-0.626-1.8-0.986c-0.872-0.361-1.856-0.886-2.186-1.169-0.33-0.282-1.05-0.649-1.6-0.816s-1.625-0.727-2.389-1.245c-0.764-0.517-2.249-1.227-3.3-1.576s-1.911-0.793-1.911-0.987-0.765-0.556-1.7-0.804c-0.935-0.249-2.24-0.768-2.9-1.154-0.66-0.385-1.83-0.938-2.6-1.229-0.77-0.29-1.67-0.746-2-1.013-0.33-0.266-1.32-0.724-2.2-1.016s-1.96-0.825-2.4-1.184c-0.44-0.36-1.43-0.894-2.2-1.188s-1.878-0.863-2.462-1.265c-0.584-0.401-1.183-0.73-1.332-0.73-0.338 0-4.273-2.567-6.406-4.179-1.462-1.105-5.4-4.982-6.856-6.748-0.329-0.4-0.859-1.465-1.177-2.366s-0.796-1.901-1.063-2.223c-0.892-1.074-0.596-7.63 0.423-9.396 0.48-0.832 0.873-1.757 0.873-2.057 0-0.741 4.759-5.831 5.453-5.831 0.305 0 0.862-0.359 1.238-0.798 0.375-0.438 1.319-1.001 2.096-1.25s2.152-0.783 3.056-1.186c4.678-2.089 16.159-3.225 22.406-2.217 2.173 0.35 5.434 0.828 7.246 1.062 1.813 0.234 3.893 0.676 4.624 0.981s2.576 0.845 4.1 1.198 3.133 0.877 3.576 1.163 1.345 0.65 2.005 0.809c1.212 0.291 6.692 2.712 7.8 3.446 0.33 0.218 1.23 0.707 2 1.086 0.77 0.378 1.909 1.097 2.531 1.597 1.383 1.112 1.655 1.123 2.669 0.109 1.07-1.07 1.27-38.351 0.214-39.859-0.753-1.075-2.739-2.01-5.458-2.569-1.186-0.243-2.876-0.769-3.756-1.169-0.88-0.399-2.5-0.842-3.6-0.985s-2.92-0.518-4.044-0.834c-5.924-1.664-30.419-2.74-40.756-1.79m-64.18 0.616l1.18 0.611v17.18 17.181l-1.082 0.709c-0.997 0.654-3.009 0.725-25.767 0.909-13.577 0.11-24.835 0.35-25.018 0.533-0.183 0.184-0.423 36.57-0.533 80.858-0.195 78.476-0.219 80.547-0.962 81.367-0.999 1.104-37.708 1.344-39.804 0.259-1.698-0.877-1.634 2.34-1.64-81.967-5e-3 -62.765-0.109-79.054-0.512-79.85l-0.506-1-24.56-0.103c-22.154-0.093-24.631-0.168-25.288-0.762-0.927-0.839-1.144-34.28-0.232-35.74 0.683-1.093 142.62-1.274 144.72-0.185m91.78-0.012c7.719 0.629 17.27 2.243 20.2 3.414 0.99 0.395 2.52 0.852 3.4 1.014 2.172 0.4 4.775 1.549 5.775 2.549 0.809 0.809 0.825 1.174 0.825 19.199 0 21.338-0.067 21.761-3.116 19.69-3.095-2.103-6.587-3.856-12.884-6.467-13.902-5.764-33.924-6.652-44.88-1.99-6.193 2.635-9.126 5.379-11.965 11.193-1.168 2.392-0.646 8.738 0.971 11.8 4.193 7.944 10.614 12.279 33.874 22.872 1.65 0.752 3.54 1.647 4.2 1.99 0.66 0.342 2.82 1.445 4.8 2.451 1.98 1.005 4.05 2.129 4.6 2.496s2.17 1.358 3.6 2.202c13.243 7.821 24.286 21.141 26.792 32.315 0.207 0.921 0.769 3.384 1.25 5.474 3.563 15.486-1.857 39.839-10.638 47.8-0.242 0.22-0.702 0.769-1.022 1.22-1.782 2.51-7.865 7.417-12.972 10.463-6.852 4.086-17.519 7.571-26.71 8.726-2.585 0.325-6.808 0.861-9.385 1.191-5.878 0.753-16.868 0.755-22.915 4e-3 -2.53-0.314-6.94-0.849-9.8-1.188-7.673-0.91-16.26-3.181-25.169-6.656-1.304-0.508-3.059-1.579-3.9-2.38l-1.531-1.456 5e-3 -19.362c7e-3 -23.757-0.124-23.115 4.107-20.171 8.39 5.838 10.14 7.001 10.534 7.005 0.245 2e-3 0.875 0.34 1.4 0.75 6.959 5.442 27.116 9.637 40.809 8.493 25.631-2.141 32.643-22.876 12.545-37.098-3.84-2.717-11.903-7.078-18.6-10.061-0.99-0.441-3.15-1.426-4.8-2.19s-3.45-1.523-4-1.686c-0.55-0.164-1.279-0.543-1.62-0.841s-1.405-0.819-2.365-1.158-1.941-0.774-2.18-0.966c-0.239-0.193-2.055-1.207-4.035-2.253-1.98-1.047-4.05-2.242-4.6-2.658-0.55-0.415-2.53-1.85-4.4-3.19-3.915-2.803-3.976-2.857-8.089-7.015-5.231-5.287-6.726-7.36-10.047-13.923-7.767-15.35-6.916-39.171 1.901-53.2 7.346-11.691 20.463-21.607 32.001-24.192 1.053-0.236 2.392-0.67 2.975-0.964 5.891-2.97 28.478-4.598 45.059-3.246" fill="#4f9ed5"/>
<path d="m100.66 175.93c-0.928 1.026-1.017 33.431-0.094 34.693 0.548 0.75 1.402 0.783 25.383 0.976 24.226 0.195 24.829 0.219 25.419 1 0.534 0.707 0.606 10.02 0.617 80.32 0.014 86.172-0.107 81.433 2.097 82.024 2.411 0.645 38.205 0.271 38.767-0.405 0.46-0.554 0.581-13.739 0.749-81.18 0.162-65.301 0.298-80.617 0.72-81.039 0.41-0.411 5.694-0.562 25.2-0.72 19.129-0.155 24.883-0.316 25.584-0.716l0.905-0.517-0.105-17.072-0.104-17.072-1-0.505c-1.86-0.941-143.28-0.731-144.14 0.213m212.74-0.491c-6.968 0.437-16.483 1.953-20.2 3.219-0.99 0.337-3.019 0.959-4.508 1.381-1.49 0.422-3.377 1.126-4.194 1.564-0.818 0.438-1.635 0.796-1.817 0.796-0.463 0-5.469 2.414-6.681 3.221-0.55 0.367-2.341 1.547-3.98 2.623-22.092 14.504-28.589 47.358-14.42 72.92 1.751 3.158 6.481 8.561 11.078 12.654 6.886 6.131 14.898 10.874 28.122 16.646 4.322 1.887 15.824 7.551 18.42 9.07 21.726 12.718 22.35 31.983 1.267 39.113-6.348 2.147-21.812 2.567-29.487 0.801-4.666-1.074-9.049-2.321-10.118-2.879-0.595-0.31-1.312-0.565-1.593-0.567-0.519-2e-3 -5.695-2.282-7.889-3.475-0.66-0.359-1.83-0.991-2.6-1.405-1.936-1.04-5.725-3.552-10.714-7.102-3.339-2.376-3.286-2.698-3.286 20.052v19.22l1.433 1.312c1.365 1.251 3.136 2.038 10.367 4.605 13.809 4.903 38.895 7.225 54.181 5.015 2.101-0.303 5.079-0.672 6.619-0.818 25.011-2.38 46.98-20.587 50.199-41.606 0.236-1.54 0.693-4.097 1.015-5.683 4.272-21.022-7.546-46.176-26.814-57.075-0.66-0.373-2.37-1.392-3.8-2.265-1.43-0.872-4.31-2.452-6.4-3.511-2.09-1.058-4.16-2.119-4.6-2.356-0.44-0.238-1.97-0.966-3.4-1.618-18.695-8.527-24.689-11.969-29.955-17.201-12.505-12.426-6.315-27.144 13.355-31.754 4.696-1.1 16.714-1.339 20.417-0.405 1.109 0.279 3.539 0.756 5.4 1.059 3.422 0.557 11.012 2.743 13.583 3.912 0.77 0.35 2.75 1.211 4.4 1.913s3.27 1.499 3.6 1.769c2.098 1.723 5.394 3.037 5.896 2.352 0.899-1.23 0.714-37.428-0.196-38.228-1.119-0.984-3.804-2.218-5.519-2.535-0.869-0.162-2.571-0.635-3.781-1.052-7.706-2.657-29.823-4.533-43.4-3.682m-69.109 0.884c0.415 0.264 0.678 16.672 0.518 32.347-0.023 2.197 0.803 2.128-25.738 2.135-13.459 3e-3 -24.699 0.151-24.978 0.328-1.242 0.788-1.293 4.034-1.299 82.463-4e-3 49.306-0.15 79.63-0.385 80.003-0.327 0.517-2.986 0.616-19.136 0.718l-18.757 0.119-0.655-1c-0.6-0.916-0.664-7.686-0.758-81.054l-0.103-80.054-0.944-0.764c-0.906-0.734-1.909-0.765-24.6-0.769-13.011-3e-3 -24.331-0.116-25.156-0.253l-1.5-0.248v-16.881c0-9.284 0.12-17.001 0.267-17.147 0.378-0.378 142.63-0.321 143.22 0.057m96.309 0.634c13.552 2.203 19.255 3.478 22.367 5.001 0.898 0.439 1.921 0.883 2.274 0.985 0.417 0.121 0.731 0.845 0.9 2.077 0.388 2.83 0.3 33.894-0.097 34.522-0.483 0.762-2.614 0.232-3.916-0.975-0.57-0.528-1.663-1.133-2.43-1.345-0.766-0.212-1.686-0.641-2.045-0.953-0.359-0.313-1.373-0.799-2.253-1.08s-1.96-0.745-2.4-1.03c-0.44-0.286-1.815-0.783-3.055-1.106s-2.814-0.876-3.498-1.23c-0.685-0.354-2.91-0.908-4.946-1.232-2.035-0.324-4.691-0.871-5.901-1.217-3.66-1.047-19.816-0.942-23 0.149-1.32 0.452-3.432 1.026-4.693 1.276s-2.406 0.637-2.544 0.86-1.065 0.755-2.06 1.182c-3.424 1.467-6.272 4.083-8.712 8.003l-1.591 2.555v5.63c0 5.472 0.031 5.676 1.1 7.291 0.605 0.914 1.102 1.801 1.104 1.97 9e-3 0.712 2.884 3.844 5.681 6.19 2.769 2.322 3.819 3.064 6.678 4.72 0.57 0.33 1.577 0.96 2.237 1.4 0.66 0.439 2.46 1.413 4 2.163s3.07 1.52 3.4 1.71c0.596 0.344 1.822 0.923 6.8 3.213 1.43 0.657 3.49 1.627 4.579 2.154 1.088 0.528 2.185 0.959 2.438 0.959s0.883 0.366 1.399 0.814c0.516 0.447 1.713 1.008 2.661 1.247s1.723 0.595 1.723 0.792c0 0.196 0.945 0.817 2.1 1.378 2.951 1.435 5.147 2.637 6.523 3.569 0.649 0.44 1.476 0.98 1.838 1.2 0.361 0.22 1.441 0.954 2.398 1.632 0.958 0.677 2.372 1.667 3.144 2.2 1.686 1.163 2.086 1.518 6.228 5.532 3.153 3.054 6.795 7.459 7.257 8.778 0.127 0.362 0.537 1.018 0.911 1.458 0.373 0.44 0.992 1.61 1.374 2.6s0.926 2.07 1.21 2.4c0.283 0.33 0.741 1.59 1.017 2.8s0.754 2.49 1.063 2.845c0.558 0.642 1.298 5.386 2.136 13.7 0.575 5.714-0.652 17.778-2.215 21.763-0.541 1.379-0.987 2.819-0.991 3.2-5e-3 0.381-0.635 1.929-1.4 3.44-0.766 1.512-1.393 2.907-1.393 3.1 0 0.194-0.285 0.667-0.633 1.052s-1.203 1.587-1.9 2.671c-1.775 2.761-1.885 2.906-3.599 4.766-0.842 0.915-1.808 2.068-2.146 2.563s-0.848 0.9-1.135 0.9c-0.286 0-0.85 0.436-1.254 0.968-0.827 1.092-8.34 6.232-9.109 6.232-0.275 0-0.801 0.332-1.168 0.739-0.368 0.406-1.431 0.964-2.362 1.239-0.932 0.276-1.964 0.721-2.294 0.99-0.33 0.27-1.41 0.723-2.4 1.008s-2.61 0.839-3.6 1.232-3.24 0.938-5 1.211-3.711 0.753-4.335 1.067c-1.048 0.527-5.281 0.996-19.1 2.116-3.393 0.274-6.85 0.277-10.6 6e-3 -14.399-1.037-19.762-1.585-20.833-2.129-0.622-0.316-2.662-0.795-4.532-1.063-1.87-0.269-3.99-0.735-4.71-1.036-0.721-0.302-2.521-0.849-4-1.218-1.48-0.368-3.05-0.92-3.49-1.226s-1.474-0.738-2.297-0.96c-3.686-0.997-5.423-2.618-5.702-5.319-0.324-3.142-0.088-36.505 0.261-36.853 0.296-0.296 3.363 1.644 6.791 4.296 0.783 0.605 1.531 1.1 1.665 1.1 0.133 0 1.042 0.54 2.02 1.2s1.953 1.2 2.166 1.2 0.817 0.334 1.342 0.742 1.615 0.957 2.422 1.22c0.807 0.264 1.666 0.717 1.908 1.009 0.241 0.291 1.291 0.76 2.332 1.042 1.04 0.282 2.522 0.811 3.292 1.175 0.77 0.365 2.39 0.9 3.6 1.19 1.21 0.291 2.697 0.78 3.304 1.087 4.852 2.459 30.654 2.458 34.468-1e-3 0.455-0.294 1.688-0.824 2.739-1.178 1.051-0.355 2.38-1.014 2.954-1.465 0.573-0.452 1.249-0.821 1.501-0.821 0.962 0 6.061-5.859 6.788-7.8 2.414-6.447 1.061-14.264-3.385-19.553-2.42-2.878-9.965-9.045-11.069-9.046-0.275-1e-3 -0.841-0.342-1.258-0.759-0.84-0.84-11.304-6.013-18.642-9.216-0.88-0.384-2.77-1.262-4.2-1.95s-3.23-1.523-4-1.856c-0.77-0.332-1.67-0.783-2-1.001-0.579-0.384-2.416-1.325-5.073-2.597-0.7-0.336-1.387-0.796-1.528-1.024-0.141-0.227-1.143-0.863-2.227-1.412-1.085-0.55-1.972-1.164-1.972-1.366 0-0.201-0.356-0.479-0.791-0.617-0.8-0.254-3.347-2.205-5.242-4.016-0.569-0.543-1.151-0.987-1.295-0.987-0.289 0-5.472-5.23-5.472-5.521 0-0.1-0.585-0.869-1.3-1.709s-1.679-2.032-2.143-2.649c-1.15-1.53-4.157-7.263-4.157-7.926 0-0.296-0.287-0.825-0.638-1.175-0.35-0.351-0.891-1.759-1.201-3.129s-0.761-2.941-1.002-3.491c-1.992-4.543-1.958-25.177 0.05-30.2 0.263-0.66 0.732-2.255 1.041-3.544s0.919-2.799 1.356-3.354 0.794-1.271 0.794-1.591c0-1.004 3.145-6.149 5.921-9.685 1.82-2.319 7.366-7.675 9.068-8.758 0.886-0.563 1.988-1.354 2.449-1.758 1.549-1.355 8.613-4.964 11.228-5.737 1.137-0.336 2.268-0.852 2.513-1.148 0.246-0.296 1.296-0.665 2.334-0.82 1.038-0.154 2.517-0.554 3.287-0.887 1.52-0.658 13.158-2.811 18-3.33 5.143-0.551 25.27-0.166 29.8 0.57" fill="#8cbce4"/>
<path d="m100.03 174.25c-1.296 1.647-1.298 36.642-2e-3 38.289l0.826 1.051 24.674 0.103 24.673 0.103 0.2 80.486c0.19 76.571 0.235 80.52 0.914 81.2 0.833 0.833 40.739 1.342 42.24 0.538 2.166-1.159 2.046 3.667 2.046-82.335 0-65.258 0.093-79.268 0.53-79.631 0.369-0.307 7.942-0.473 24.989-0.549l24.459-0.109 0.911-0.911 0.911-0.911v-18.224-18.223l-1.122-0.966-1.123-0.965h-72.148-72.149l-0.829 1.054m212.97-0.826c-0.66 0.088-2.91 0.422-5 0.742s-5.312 0.77-7.161 1c-1.848 0.23-3.763 0.682-4.256 1.004-0.492 0.323-1.86 0.701-3.039 0.841-2.645 0.314-4.753 0.922-5.544 1.6-0.33 0.283-1.457 0.641-2.505 0.796-1.047 0.154-2.307 0.594-2.8 0.977-0.492 0.383-1.559 0.912-2.37 1.177-0.811 0.264-1.891 0.804-2.4 1.2-0.509 0.395-1.601 0.939-2.428 1.209-0.827 0.269-1.678 0.817-1.892 1.216-0.213 0.399-0.934 0.916-1.602 1.149-0.667 0.233-1.32 0.702-1.451 1.042s-0.446 0.619-0.701 0.619c-1.152 0-10.128 8.772-10.503 10.264-0.129 0.515-0.494 0.936-0.812 0.936-0.317 0-0.848 0.648-1.179 1.441-0.331 0.792-0.959 1.824-1.395 2.292s-0.898 1.305-1.025 1.859c-0.128 0.554-0.452 1.188-0.72 1.408-0.713 0.586-1.417 2.034-1.417 2.914 0 0.422-0.458 1.628-1.018 2.681-0.581 1.094-1.162 3.061-1.354 4.59-0.184 1.472-0.671 3.292-1.082 4.046-0.674 1.237-0.746 2.375-0.746 11.769s0.072 10.532 0.746 11.769c0.411 0.754 0.906 2.644 1.101 4.2 0.206 1.653 0.666 3.254 1.103 3.847 0.412 0.558 0.873 1.638 1.025 2.4 0.371 1.865 1.054 3.584 1.425 3.584 0.167 0 0.534 0.585 0.815 1.3 0.282 0.715 0.908 1.84 1.391 2.5 0.484 0.66 1.007 1.605 1.164 2.1 0.156 0.496 0.632 1.087 1.057 1.314 0.425 0.228 0.773 0.675 0.773 0.993 0 0.851 10.604 11.236 12.5 12.243 0.495 0.262 1.135 0.808 1.423 1.213 0.287 0.406 0.765 0.737 1.062 0.737s1.293 0.63 2.215 1.4 2.019 1.4 2.438 1.4 0.762 0.19 0.762 0.422 0.973 0.853 2.163 1.379 2.278 1.141 2.417 1.367c0.139 0.225 1.011 0.632 1.937 0.904 0.926 0.271 1.902 0.794 2.17 1.16 0.268 0.367 1.296 0.87 2.285 1.119s2.46 0.902 3.269 1.451 1.822 0.998 2.252 0.998c0.429 0 1.238 0.359 1.796 0.799 0.559 0.439 1.716 0.987 2.571 1.217 0.856 0.231 2.208 0.861 3.004 1.402 0.796 0.54 1.828 0.985 2.292 0.989s1.636 0.544 2.604 1.2 1.905 1.193 2.082 1.193c0.178 0 0.986 0.45 1.796 1 0.811 0.55 1.743 1 2.072 1s1.018 0.453 1.532 1.008c0.514 0.554 1.479 1.116 2.146 1.25 0.667 0.133 1.212 0.485 1.212 0.782s0.495 0.804 1.1 1.127c1.366 0.731 4.1 3.255 4.1 3.786 0 0.216 0.351 0.504 0.78 0.641 0.428 0.136 0.892 0.604 1.031 1.04 0.138 0.436 0.566 1.102 0.951 1.48 0.384 0.377 0.94 1.316 1.234 2.086 0.295 0.77 0.821 1.734 1.17 2.142 0.939 1.098 0.912 8.663-0.035 9.715-0.367 0.409-0.903 1.498-1.19 2.42-0.321 1.033-0.871 1.836-1.431 2.091-0.501 0.228-0.91 0.682-0.91 1.009s-0.405 0.803-0.9 1.058c-0.495 0.254-1.35 0.869-1.9 1.366-0.55 0.496-1.675 1.118-2.5 1.382-0.825 0.263-1.5 0.633-1.5 0.821 0 0.457-0.756 0.671-4.947 1.4-1.951 0.339-3.926 0.882-4.389 1.206-1.251 0.876-16.186 0.858-17.888-0.022-0.651-0.337-3.207-0.889-5.68-1.226-2.473-0.338-5.216-0.954-6.096-1.369-0.88-0.416-2.48-0.95-3.555-1.188s-2.378-0.766-2.896-1.174c-0.518-0.407-1.612-0.866-2.432-1.02-0.819-0.154-1.726-0.617-2.015-1.029-0.289-0.413-1.142-0.866-1.895-1.007-0.754-0.141-1.783-0.605-2.289-1.029-1.539-1.294-5.167-3.546-5.712-3.546-0.283 0-0.809-0.45-1.169-1-0.361-0.55-0.911-1-1.224-1-0.312 0-0.803-0.323-1.09-0.718-1.928-2.65-5.514-3.192-6.663-1.008-0.931 1.769-0.622 41.055 0.33 41.917 0.434 0.393 0.897 1.054 1.029 1.469 0.241 0.76 2.516 1.94 3.741 1.94 0.364 0 0.957 0.344 1.317 0.765 0.371 0.433 1.665 0.971 2.989 1.241 1.284 0.263 2.604 0.703 2.934 0.979 0.77 0.644 3.063 1.415 4.209 1.415 0.489 0 1.681 0.35 2.648 0.778 1.054 0.466 3.6 0.964 6.351 1.242 2.526 0.255 5.672 0.836 6.992 1.292 4.58 1.58 38.933 1.437 40.871-0.171 0.297-0.246 2.797-0.695 5.557-0.998 3.096-0.339 5.582-0.833 6.494-1.289 0.813-0.407 2.192-0.851 3.065-0.986s2.063-0.598 2.645-1.029c0.582-0.43 1.758-0.909 2.613-1.064 1.789-0.324 3.755-1.236 3.755-1.741 0-0.19 0.612-0.46 1.36-0.6s1.591-0.534 1.873-0.874 1.246-0.989 2.14-1.441c0.895-0.453 1.771-1.07 1.947-1.371s0.589-0.548 0.918-0.548 1.017-0.419 1.529-0.931 1.449-1.337 2.082-1.832c1.471-1.153 3.776-3.323 4.554-4.288 0.332-0.412 1.457-1.801 2.5-3.086 1.044-1.285 1.897-2.547 1.897-2.803 0-0.257 0.315-0.665 0.7-0.905 0.385-0.241 0.947-1.139 1.248-1.997 0.301-0.857 0.864-1.918 1.251-2.358 0.386-0.44 0.927-1.52 1.202-2.4s0.756-1.894 1.069-2.253c0.312-0.359 0.754-1.889 0.981-3.4 0.226-1.511 0.803-3.557 1.28-4.547 1.348-2.793 1.345-26.419-4e-3 -29.2-0.48-0.99-0.99-2.7-1.134-3.8s-0.672-2.9-1.173-4-1.203-2.675-1.559-3.5c-0.357-0.825-0.808-1.5-1.003-1.5s-0.585-0.826-0.868-1.836-0.763-1.932-1.067-2.049-0.807-0.82-1.117-1.564c-0.311-0.743-0.75-1.351-0.975-1.351-0.226 0-0.667-0.495-0.98-1.1-0.764-1.476-8.931-9.608-9.985-9.942-0.46-0.146-1.171-0.692-1.58-1.212s-0.956-0.953-1.215-0.962-1.094-0.549-1.856-1.2-1.595-1.184-1.851-1.184-0.713-0.298-1.015-0.662-1.089-0.912-1.749-1.217c-0.66-0.306-1.812-0.998-2.559-1.538-0.748-0.541-1.698-0.983-2.113-0.983-0.414 0-0.849-0.25-0.966-0.555-0.117-0.306-1.057-0.87-2.088-1.254s-2.234-1.019-2.674-1.412-1.475-0.839-2.3-0.991-1.5-0.432-1.5-0.622c0-0.466-2.179-1.566-3.102-1.566-0.409 0-1.34-0.441-2.07-0.979-0.729-0.539-1.889-1.102-2.577-1.252s-1.679-0.609-2.203-1.02c-0.524-0.41-1.694-0.943-2.6-1.183-0.906-0.241-2.008-0.761-2.448-1.156s-1.25-0.847-1.8-1.004-1.63-0.698-2.4-1.201-1.871-1.16-2.448-1.46c-3.953-2.056-4.596-2.504-7.394-5.149-0.463-0.438-1.007-0.796-1.209-0.796s-0.993-0.745-1.758-1.656c-0.765-0.91-1.861-2.215-2.435-2.9-2.215-2.642-2.873-9.301-1.386-14.044 0.644-2.053 4.802-6.988 5.908-7.011 0.287-6e-3 1.229-0.546 2.093-1.2s1.927-1.189 2.362-1.189c0.434 0 1.707-0.427 2.828-0.948 4.603-2.139 26.608-2.286 30.76-0.205 0.837 0.419 2.701 0.929 4.142 1.133s2.917 0.639 3.279 0.966 1.558 0.803 2.658 1.059c1.773 0.413 6.153 2.236 7.8 3.247 0.33 0.202 1.41 0.749 2.4 1.214 0.99 0.466 1.861 1.005 1.936 1.199 0.562 1.454 3.904 1.891 5.41 0.706l1.054-0.829v-18.951-18.951l-1.211-1.794c-1.096-1.624-1.426-1.835-3.5-2.233-1.259-0.242-2.559-0.614-2.889-0.827-1.331-0.86-2.732-1.283-5.399-1.627-1.54-0.199-3.43-0.662-4.2-1.028-0.771-0.367-2.931-0.827-4.801-1.023-1.87-0.197-5.29-0.634-7.6-0.972-3.962-0.58-23.255-1.101-26.2-0.708m-68.21 1.095c2.389 0.82 2.398 0.888 2.402 18.277 4e-3 17.126-0.139 18.572-1.904 19.243-0.678 0.257-9.678 0.392-24.799 0.369-23.484-0.034-23.746-0.026-24.912 0.804l-1.177 0.838-2e-3 79.273c-3e-3 82.662 0.01 82.058-1.716 82.485-2.776 0.685-39.807-0.02-40.64-0.774l-0.842-0.762v-79.719c0-57.731-0.123-79.989-0.446-80.697-0.661-1.451-0.825-1.46-26.381-1.46h-23.528l-0.622-0.889c-0.691-0.986-0.957-35.165-0.283-36.228 0.181-0.284 0.853-0.674 1.494-0.866 1.913-0.572 141.68-0.469 143.36 0.106m98.766 0.86c2.506 0.345 5.476 0.886 6.6 1.201 1.124 0.316 2.944 0.691 4.044 0.834s2.72 0.586 3.6 0.985c0.88 0.4 2.57 0.926 3.756 1.169 2.719 0.559 4.705 1.494 5.458 2.569 1.056 1.508 0.856 38.789-0.214 39.859-1.014 1.014-1.286 1.003-2.669-0.109-0.622-0.5-1.761-1.219-2.531-1.597-0.77-0.379-1.67-0.868-2-1.086-1.108-0.734-6.588-3.155-7.8-3.446-0.66-0.159-1.562-0.523-2.005-0.809s-2.052-0.81-3.576-1.163-3.369-0.893-4.1-1.198-2.811-0.747-4.624-0.981c-1.812-0.234-5.073-0.712-7.246-1.062-6.247-1.008-17.728 0.128-22.406 2.217-0.904 0.403-2.279 0.937-3.056 1.186s-1.721 0.812-2.096 1.25c-0.376 0.439-0.933 0.798-1.238 0.798-0.694 0-5.453 5.09-5.453 5.831 0 0.3-0.393 1.225-0.873 2.057-1.019 1.766-1.315 8.322-0.423 9.396 0.267 0.322 0.745 1.322 1.063 2.223s0.848 1.966 1.177 2.366c1.456 1.766 5.394 5.643 6.856 6.748 2.133 1.612 6.068 4.179 6.406 4.179 0.149 0 0.748 0.329 1.332 0.73 0.584 0.402 1.692 0.971 2.462 1.265s1.76 0.828 2.2 1.188c0.44 0.359 1.52 0.892 2.4 1.184s1.87 0.75 2.2 1.016c0.33 0.267 1.23 0.723 2 1.013 0.77 0.291 1.94 0.844 2.6 1.229 0.66 0.386 1.965 0.905 2.9 1.154 0.935 0.248 1.7 0.61 1.7 0.804s0.86 0.638 1.911 0.987 2.536 1.059 3.3 1.576c0.764 0.518 1.839 1.078 2.389 1.245s1.27 0.534 1.6 0.816c0.33 0.283 1.314 0.808 2.186 1.169 0.872 0.36 1.682 0.804 1.8 0.986s0.934 0.721 1.814 1.198 2.337 1.356 3.237 1.954c0.901 0.597 2.251 1.485 3 1.972 0.75 0.487 1.861 1.342 2.47 1.9s1.254 1.014 1.434 1.014c1.103 0 10.822 10.488 12.642 13.643 2.618 4.538 3.198 5.667 4.406 8.572 0.735 1.767 1.468 4.107 1.628 5.2 0.161 1.092 0.649 3.065 1.084 4.385 1.435 4.348 1.376 23.82-0.077 25.571-0.224 0.27-0.587 1.758-0.807 3.308-0.606 4.271-3.283 10.519-6.63 15.469-2.88 4.26-2.714 4.042-4.919 6.452-0.664 0.725-3.115 2.973-6.434 5.9-0.686 0.605-1.397 1.1-1.579 1.1s-0.854 0.45-1.493 1c-0.639 0.549-1.325 0.999-1.524 1-0.199 0-0.919 0.424-1.6 0.942-0.681 0.519-1.688 1.079-2.238 1.246s-1.566 0.646-2.258 1.064c-3.43 2.076-14.53 5.322-20.314 5.942-2.185 0.234-4.975 0.736-6.2 1.116-3.306 1.024-29.789 1.004-33.486-0.026-1.352-0.376-4.322-0.875-6.6-1.108-4.035-0.413-13.86-2.676-15.554-3.582-0.465-0.249-1.862-0.717-3.105-1.041s-2.535-0.837-2.871-1.14c-0.337-0.303-1.152-0.678-1.812-0.833-1.933-0.456-4.021-1.769-4.736-2.979-0.961-1.627-1.02-41.207-0.063-42.002 1.101-0.913 2.469-0.518 5.046 1.46 4.07 3.123 9.845 6.895 10.599 6.924 0.245 9e-3 0.916 0.386 1.489 0.838 0.574 0.451 1.903 1.11 2.954 1.465 1.051 0.354 2.271 0.864 2.711 1.134 0.44 0.269 1.79 0.804 3 1.188s2.405 0.86 2.656 1.057c0.251 0.198 1.995 0.628 3.876 0.957 1.881 0.328 4.159 0.857 5.062 1.176 4.214 1.487 22.261 1.516 25.14 0.041 0.587-0.3 2.146-0.774 3.466-1.053s3.258-1.02 4.306-1.647c1.048-0.626 2.051-1.139 2.228-1.139 0.765 0 4.827-4.404 6.087-6.6 1.361-2.372 1.377-2.457 1.371-7.2l-5e-3 -4.8-1.585-2.8c-1.956-3.457-9.034-10.6-10.503-10.6-0.206 0-0.707-0.367-1.112-0.815-0.406-0.448-1.468-1.167-2.362-1.598s-3.255-1.639-5.247-2.685c-4.735-2.486-5.764-2.993-9.578-4.721-1.1-0.499-3.17-1.44-4.6-2.092s-3.261-1.397-4.068-1.657-1.684-0.734-1.949-1.052c-0.265-0.319-0.698-0.58-0.964-0.58-0.449 0-2.439-0.979-5.819-2.862-1.289-0.718-2.868-1.643-6.378-3.738-0.737-0.44-1.899-1.267-2.581-1.837-0.683-0.57-1.573-1.217-1.979-1.437-2.417-1.312-11.365-10.303-12.366-12.426-0.233-0.495-0.572-0.9-0.753-0.9s-0.793-0.855-1.359-1.9-1.638-2.98-2.382-4.3-1.653-3.39-2.019-4.6-0.914-2.595-1.219-3.078c-0.304-0.483-0.826-2.463-1.159-4.4-0.332-1.937-0.777-4.332-0.987-5.322-0.601-2.823-0.497-15.007 0.151-17.8 0.306-1.32 0.757-3.717 1.001-5.326 0.245-1.609 0.693-3.319 0.997-3.8 0.303-0.481 0.856-1.954 1.23-3.274 0.373-1.32 0.887-2.649 1.141-2.953 0.254-0.305 0.822-1.236 1.262-2.07 2.249-4.261 3.046-5.577 3.38-5.577 0.201 0 0.478-0.352 0.615-0.783 0.417-1.316 9.04-9.711 11.805-11.493 1.43-0.922 3.05-2.014 3.6-2.426s1.63-0.995 2.4-1.296c0.77-0.302 1.829-0.875 2.354-1.275s1.193-0.727 1.486-0.727c0.292 0 1.303-0.425 2.246-0.945s2.704-1.171 3.914-1.445c1.21-0.275 2.614-0.76 3.12-1.077 0.506-0.318 2.306-0.823 4-1.123s3.61-0.749 4.258-0.997c1.322-0.508 5.45-1.125 10.822-1.619 5.816-0.534 28.886-0.137 34.156 0.589" fill="#3694cc"/>
<path d="m100.44 175.7c-0.539 0.876-0.532 0.881 0.235 0.2 1.032-0.917 142.32-1.096 144.12-0.182l1 0.505 0.104 17.107 0.105 17.107-1.392 0.582c-1.164 0.486-5.253 0.581-24.978 0.581-23.149 0-25.647 0.126-25.633 1.29 4e-3 0.352 0.124 0.324 0.385-0.09 0.328-0.519 3.711-0.627 25.112-0.8 22.804-0.184 24.818-0.255 25.815-0.909l1.082-0.709v-17.181-17.18l-1.18-0.611c-1.045-0.54-9.375-0.61-72.704-0.61h-71.524l-0.552 0.9m210.96-0.533c-1.32 0.128 3.99 0.233 11.8 0.233s12.67-0.117 10.8-0.26c-4.112-0.315-19.26-0.297-22.6 0.027m-7.153 0.725c-2.641 0.393-9.978 2.059-9.173 2.083 0.48 0.014 2.19-0.264 3.8-0.618 1.609-0.353 4.546-0.874 6.526-1.157 2.246-0.322 2.923-0.509 1.8-0.498-0.99 0.01-2.319 0.095-2.953 0.19m34.46-2e-3c0.719 0.089 1.799 0.087 2.4-4e-3s0.013-0.164-1.307-0.162-1.812 0.077-1.093 0.166m6.493 0.741c4.959 0.924 6.404 1.016 3 0.191-1.76-0.427-3.83-0.77-4.6-0.763-0.88 8e-3 -0.286 0.221 1.6 0.572m-53.8 2.191c-0.88 0.416-1.33 0.748-1 0.738 0.809-0.026 3.961-1.501 3.2-1.498-0.33 2e-3 -1.32 0.343-2.2 0.76m65.178 0.177c1.528 0.55 3.058 0.995 3.4 0.988 0.857-0.018-3.495-1.608-4.978-1.819-0.66-0.094 0.05 0.28 1.578 0.831m-70.778 1.636c-1.32 0.558-3.033 1.251-3.807 1.54-1.627 0.606-4.385 2.222-3.793 2.222 0.22 0 0.944-0.332 1.61-0.738 0.665-0.405 1.925-0.968 2.8-1.25 0.874-0.282 1.81-0.688 2.079-0.901s1.529-0.72 2.8-1.126c1.271-0.407 1.951-0.744 1.511-0.751s-1.88 0.445-3.2 1.004m75.803-0.261c1.39 0.423 3.659 1.602 4.497 2.336 0.913 0.8 1.095 36.997 0.193 38.231-0.47 0.642-0.716 0.575-3.3-0.901-3.011-1.72-7.75-4.055-8.148-4.015-0.135 0.013 0.925 0.621 2.355 1.35 4.142 2.113 7.166 3.846 7.416 4.251 0.473 0.764 1.806 0.368 2.194-0.652 0.885-2.328 0.487-37.677-0.435-38.599-0.939-0.939-4.11-2.392-5.108-2.341-0.385 0.02-0.242 0.164 0.336 0.34m-88.283 6.53c-7.299 4.95-11.64 9.434-16.36 16.896-1.35 2.133-3.761 7.174-3.73 7.796 0.017 0.332 0.251 0.064 0.521-0.596 3.609-8.845 10.98-17.982 18.463-22.889 4.968-3.257 5.603-3.711 5.18-3.707-0.217 2e-3 -2.05 1.127-4.074 2.5m47.997 22.593c1.494 0.077 3.834 0.077 5.2-1e-3 1.365-0.078 0.143-0.141-2.717-0.141-2.86 1e-3 -3.978 0.065-2.483 0.142m-7.317 0.703c-2.385 0.691-1.225 0.706 1.8 0.024 1.494-0.338 1.947-0.543 1.2-0.544-0.66-1e-3 -2.01 0.233-3 0.52m18.2 7e-3c3.653 0.691 5.008 0.677 2.2-0.024-1.21-0.302-2.83-0.539-3.6-0.528-0.958 0.015-0.517 0.189 1.4 0.552m-232.2 0.055c0 1.716 0.147 1.726 26.016 1.835l24.56 0.103 0.506 1c0.403 0.796 0.507 17.085 0.512 79.85 3e-3 43.368 0.12 79.42 0.259 80.117 0.487 2.435 0.471 2.433 21.465 2.433 20.393 0 20.297 0.01 20.276-2.031-3e-3 -0.313-0.233-0.119-0.512 0.431l-0.505 1-18.389 0.115c-10.113 0.063-18.973 0.01-19.687-0.118-2.692-0.482-2.5 5.797-2.514-82.077-0.011-70.3-0.083-79.613-0.617-80.32-0.59-0.781-1.193-0.805-25.419-1-23.981-0.193-24.835-0.226-25.383-0.976-0.313-0.428-0.568-0.59-0.568-0.362m237.3 0.814c0.385 0.1 1.015 0.1 1.4 0 0.385-0.101 0.07-0.183-0.7-0.183s-1.085 0.082-0.7 0.183m-31.5 1.471c-6.661 3.004-12.298 9.15-12.154 13.253 0.034 0.981 0.105 0.88 0.387-0.556 0.189-0.966 0.585-2.046 0.878-2.4 0.294-0.354 0.73-1.094 0.97-1.644 1.335-3.064 5.566-6.38 10.997-8.617 1.827-0.753 2.962-1.353 2.522-1.333-0.44 0.019-2.06 0.603-3.6 1.297m37-0.327c4.457 1.418 5.92 1.57 2 0.207-1.87-0.65-3.76-1.177-4.2-1.172-0.44 6e-3 0.55 0.44 2.2 0.965m-90.701 2.493c-0.494 1.275-0.895 2.671-0.891 3.103 5e-3 0.431 0.454-0.476 0.999-2.016 1.215-3.439 1.131-4.283-0.108-1.087m-58.303 78.487c0 43.89 0.047 61.845 0.104 39.9s0.057-57.855 0-79.8-0.104-3.99-0.104 39.9m157.54-78.353c0.846 0.446 1.63 0.718 1.743 0.605 0.195-0.195-2.501-1.472-3.03-1.434-0.138 9e-3 0.441 0.382 1.287 0.829m-100.44 5.153c0 0.77 0.082 1.085 0.183 0.7 0.1-0.385 0.1-1.015 0-1.4-0.101-0.385-0.183-0.07-0.183 0.7m-0.829 5.374c-0.671 5.464-0.218 18.113 0.619 17.276 0.086-0.085-0.051-2.488-0.303-5.34-0.346-3.908-0.345-6.444 3e-3 -10.292 0.544-6.022 0.345-7.047-0.319-1.644m43.245 3.426c0 0.99 0.078 1.395 0.173 0.9 0.096-0.495 0.096-1.305 0-1.8-0.095-0.495-0.173-0.09-0.173 0.9m0.691 5.129c0 3.117 8.6 11.872 14.748 15.013 0.799 0.407 1.768 1.021 2.154 1.364 0.387 0.342 0.788 0.537 0.892 0.433s-0.534-0.628-1.417-1.164c-8.68-5.268-12.411-8.653-14.849-13.475-1.228-2.428-1.528-2.854-1.528-2.171m-43.107 10.471c0 0.77 0.082 1.085 0.183 0.7 0.1-0.385 0.1-1.015 0-1.4-0.101-0.385-0.183-0.07-0.183 0.7m0.332 2.2c-0.012 0.44 0.424 1.88 0.967 3.2 1.269 3.079 1.284 2.414 0.028-1.2-0.535-1.54-0.983-2.44-0.995-2m62.175 4.934c1.215 0.741 5.688 2.919 10.8 5.259 1.54 0.705 3.61 1.695 4.6 2.199 0.99 0.505 2.25 1.054 2.8 1.22 0.55 0.167 1.41 0.571 1.911 0.899 1.232 0.806 5.991 3.036 5.489 2.573-0.495-0.457-5.783-3.155-9.8-5-5.689-2.613-8.613-3.993-12.575-5.936-4.154-2.036-5.255-2.451-3.225-1.214m-60.178 1.236c-0.012 0.314 0.642 1.934 1.454 3.6 1.51 3.098 2.924 5.278 2.924 4.508 0-0.237-0.19-0.548-0.421-0.691-0.389-0.24-1.48-2.397-3.232-6.387-0.386-0.88-0.712-1.343-0.725-1.03m4.378 8.954c0 0.286 2.179 3.34 3.692 5.177 0.898 1.088 6.161 6.465 7.708 7.874 0.44 0.401 2.33 1.824 4.2 3.163 1.87 1.34 3.85 2.768 4.4 3.175 1.317 0.974 6.237 3.689 6.665 3.678 0.184-5e-3 -0.655-0.573-1.865-1.262-9.633-5.488-17.459-12.26-23.5-20.336-0.715-0.956-1.3-1.617-1.3-1.469m84.4 3.846c1.43 0.864 3.466 2.079 4.524 2.7 7.722 4.536 16.278 12.514 20.408 19.03 1.847 2.913 2.243 3.02 0.507 0.137-3.899-6.476-12.65-14.644-21.039-19.638-1.43-0.851-3.396-2.054-4.369-2.673-0.972-0.62-1.962-1.126-2.2-1.126-0.237 0 0.739 0.707 2.169 1.57m-57.2 19.397c0 0.303 2.579 1.736 3.6 2.002 0.584 0.152 0.34-0.082-0.588-0.563-0.874-0.452-1.765-0.999-1.98-1.214-0.396-0.396-1.032-0.534-1.032-0.225m5.646 2.969c0.847 0.654 3.272 1.679 3.914 1.655 0.24-9e-3 -4.423-2.365-4.714-2.382-0.085-5e-3 0.275 0.322 0.8 0.727m4.354 1.853c0 0.14 1.035 0.707 2.3 1.259s3.032 1.353 3.926 1.778c0.895 0.426 1.795 0.77 2 0.766 0.38-9e-3 -3.122-1.781-6.026-3.051-0.88-0.384-1.735-0.768-1.9-0.853s-0.3-0.04-0.3 0.101m74.038 0.411c0 0.22 0.523 1.39 1.162 2.6s1.162 2.02 1.162 1.8-0.523-1.39-1.162-2.6-1.162-2.02-1.162-1.8m-64.627 3.94c0.434 0.297 2.589 1.441 4.789 2.542 11.629 5.821 17.266 10.469 20.752 17.115 0.577 1.098 1.048 1.76 1.048 1.471 0-0.707-1.88-3.939-3.298-5.668-4.133-5.041-8.745-8.358-18.852-13.557-4.665-2.4-6.003-2.973-4.439-1.903m66.989 1.413c0 0.268 0.273 1.014 0.606 1.659 0.334 0.645 0.862 2.121 1.174 3.28s0.579 1.707 0.594 1.217c0.014-0.49-0.429-2.1-0.985-3.578-1.046-2.778-1.389-3.415-1.389-2.578m2.844 10.247c-5e-3 0.44 0.235 1.88 0.532 3.2 0.452 2.002 0.548 2.168 0.577 1 0.019-0.77-0.22-2.21-0.532-3.2s-0.572-1.44-0.577-1m1.317 11.8c0 3.41 0.061 4.805 0.136 3.1s0.075-4.495 0-6.2-0.136-0.31-0.136 3.1m-44.024 3.4c2e-3 1.76 0.072 2.43 0.156 1.489 0.085-0.94 0.084-2.38-2e-3 -3.2-0.086-0.819-0.155-0.049-0.154 1.711m-80.137 1.791c-0.518 0.328-0.615 3.116-0.711 20.351l-0.11 19.971 0.978 1.163c0.539 0.64 1.579 1.464 2.311 1.831 2.384 1.195 7.053 3.093 7.599 3.089 0.709-5e-3 -2.941-1.691-5.499-2.541-1.118-0.371-2.693-1.279-3.5-2.019l-1.468-1.344v-19.22c0-22.75-0.053-22.428 3.286-20.052 4.989 3.55 8.778 6.062 10.714 7.102 0.77 0.414 1.94 1.046 2.6 1.405 2.145 1.166 7.364 3.473 7.889 3.487 0.281 7e-3 1.231 0.361 2.111 0.786s1.96 0.771 2.4 0.769c0.768-4e-3 0.175-0.266-4.4-1.943-3.578-1.312-7.978-3.317-8.954-4.08-0.525-0.41-1.137-0.746-1.362-0.746-0.396 0-5.804-3.583-10.284-6.813-2.339-1.686-2.657-1.792-3.6-1.196m123.05 5.128c-0.411 2.265-0.636 4.23-0.5 4.366 0.136 0.137 0.248-0.085 0.248-0.493 0-0.407 0.283-1.869 0.628-3.247 0.346-1.378 0.571-3.01 0.5-3.625-0.074-0.646-0.444 0.622-0.876 2.999m-44.799 0.854c-1.443 2.651-4.083 5.298-6.831 6.849-1.242 0.701-2.188 1.346-2.101 1.432 0.358 0.359 3.984-2.041 6.007-3.976 2.03-1.941 4.599-5.684 4.185-6.098-0.101-0.101-0.668 0.706-1.26 1.793m42.618 8.898c-0.486 1.348-0.814 2.519-0.73 2.603 0.083 0.084 0.56-0.94 1.059-2.274s0.827-2.506 0.73-2.603c-0.098-0.098-0.574 0.925-1.059 2.274m-54.871 0.352c-1.21 0.439-3.28 1.048-4.6 1.355-1.451 0.338-1.964 0.571-1.299 0.59 1.038 0.03 8.699-2.268 8.699-2.609 0-0.281-0.554-0.149-2.8 0.664m-33.483 0.586c1.715 0.525 4.235 1.049 5.6 1.163l2.483 0.209-3-0.568c-1.65-0.312-3.884-0.847-4.964-1.19s-2.25-0.611-2.6-0.597c-0.35 0.015 0.767 0.457 2.481 0.983m9.374 1.68c0.71 0.088 1.97 0.09 2.8 3e-3s0.249-0.159-1.291-0.161-2.219 0.069-1.509 0.158m12.8 0c0.71 0.088 1.97 0.09 2.8 3e-3s0.249-0.159-1.291-0.161-2.219 0.069-1.509 0.158m-5.391 0.387c0.385 0.1 1.015 0.1 1.4 0 0.385-0.101 0.07-0.183-0.7-0.183s-1.085 0.082-0.7 0.183m69.3 2.69c-5.14 10.424-13.111 18.16-24.158 23.444-1.847 0.884-3.285 1.681-3.195 1.771 0.151 0.15 5.496-2.39 7.363-3.5 5.066-3.011 11.19-7.951 12.972-10.461 0.32-0.451 0.78-1 1.022-1.22 1.785-1.618 7.642-11.389 7.31-12.193-0.063-0.151-0.654 0.821-1.314 2.159m-32 26.657c-1.76 0.637-2.84 1.152-2.4 1.144 0.44-7e-3 2.15-0.533 3.8-1.167 3.905-1.501 2.758-1.482-1.4 0.023m-74-4e-3c1.1 0.429 2.63 0.869 3.4 0.977 1.189 0.166 1.129 0.113-0.4-0.352-0.99-0.301-2.307-0.749-2.926-0.996-0.619-0.246-1.339-0.44-1.6-0.429-0.261 0.01 0.426 0.37 1.526 0.8m5.033 1.335c0.341 0.315 6.779 1.845 7.656 1.82 0.501-0.015-0.799-0.458-2.889-0.984-3.611-0.91-5.136-1.177-4.767-0.836m60.967 0.863c-1.76 0.505-2.887 0.932-2.504 0.95 0.695 0.033 6.756-1.52 7.071-1.812 0.392-0.365-1.593 0.01-4.567 0.862m-51.495 1.266c0.497 0.096 1.217 0.092 1.6-8e-3 0.382-0.1-0.025-0.179-0.905-0.174-0.88 4e-3 -1.193 0.086-0.695 0.182m46 0c0.497 0.096 1.217 0.092 1.6-8e-3 0.382-0.1-0.025-0.179-0.905-0.174-0.88 4e-3 -1.193 0.086-0.695 0.182m-42.405 0.399c0.495 0.096 1.305 0.096 1.8 0 0.495-0.095 0.09-0.173-0.9-0.173s-1.395 0.078-0.9 0.173m34.5 0.395c-4.633 0.798-21.555 0.905-27.119 0.171-2.266-0.298-4.21-0.453-4.32-0.343-1.393 1.393 24.95 1.705 33.039 0.391 2.75-0.447 4.28-0.811 3.4-0.808-0.88 2e-3 -3.13 0.267-5 0.589" fill="#7cbce4"/>
</g>
</svg>
