<?xml version="1.0" encoding="UTF-8"?>
<svg version="1.1" viewBox="0 0 400 400" xmlns="http://www.w3.org/2000/svg">
<g fill-rule="evenodd">
<path d="m156.79 121.7c-23.536 12.945-42.792 23.58-42.792 23.632 0 0.11 85.638 49.591 85.77 49.558 0.223-0.055 85.729-49.489 85.728-49.562-1e-3 -0.108-85.573-47.167-85.767-47.165-0.081 0-19.404 10.592-42.939 23.537m91.875 59.196l-42.75 24.706-0.042 45.456-0.042 45.457 1.306-0.718c0.719-0.395 19.994-10.994 42.834-23.552l41.527-22.833v-46.625c0-25.644-0.019-46.619-0.042-46.611s-19.279 11.132-42.791 24.72m-140.67 21.976v46.571l42.639 23.443c23.452 12.893 42.689 23.442 42.75 23.442s0.11-20.418 0.109-45.375l-2e-3 -45.375-42.582-24.583c-23.42-13.521-42.656-24.608-42.748-24.639-0.11-0.037-0.166 15.64-0.166 46.516" fill="#1c7cc4"/>
<path d="m205.88 57.76l0.042 29.627 46.102 25.357 46.101 25.356 24.827-14.341c13.655-7.888 25.002-14.459 25.215-14.602 0.377-0.252-1.686-1.433-70.428-40.324-38.95-22.035-71.061-40.207-71.359-40.382l-0.543-0.318 0.043 29.627m-83.458 10.673c-38.959 22.049-71.004 40.181-71.212 40.293-0.541 0.291 49.778 29.41 50.409 29.17 0.212-0.08 20.973-11.471 46.134-25.313l45.748-25.166 2e-3 -29.542c1e-3 -16.248-0.054-29.539-0.123-29.536s-32 18.046-70.958 40.094m-77.584 133.62v82.25l7.125-4.118c3.919-2.264 15.357-8.873 25.417-14.685l18.292-10.568-3e-3 -52.925-4e-3 -52.926-25.271-14.583c-13.9-8.021-25.336-14.608-25.414-14.639-0.078-0.03-0.142 36.957-0.142 82.194m284.29-67.593l-25.292 14.609v52.946 52.947l25.042 14.463c13.773 7.955 25.21 14.572 25.417 14.704l0.375 0.241v-82.269c0-45.249-0.057-82.265-0.125-82.26-0.069 5e-3 -11.507 6.584-25.417 14.619m-248.51 143.5c-14.373 8.301-26.073 15.15-26 15.22 0.153 0.147 138.34 78.316 138.67 78.442 0.178 0.068 0.217-5.469 0.217-30.489v-30.572l-42.542-23.399c-23.398-12.87-42.916-23.601-43.375-23.848l-0.833-0.448-26.133 15.094m168.6 8.768l-43.368 23.858-7e-3 30.642-8e-3 30.641 0.542-0.318c0.298-0.174 31.616-17.893 69.595-39.375l69.054-39.058-0.471-0.291c-0.775-0.482-51.918-29.992-51.945-29.974-0.014 9e-3 -19.54 10.753-43.392 23.875" fill="#8cd4fc"/>
<path d="m111.46 49.963l-88.292 49.954v100.08 100.08l88.311 49.959c48.57 27.477 88.407 49.958 88.526 49.958s39.954-22.48 88.522-49.956l88.307-49.957v-100.09-100.09l-88.307-49.957c-48.568-27.476-88.412-49.954-88.541-49.951-0.129 2e-3 -39.966 22.483-88.526 49.958m82.208 7.833v29.629l-13.625 7.493c-7.494 4.121-28.25 15.539-46.124 25.373-19.422 10.687-32.599 17.842-32.75 17.784-1.855-0.709-50.47-29.167-50.139-29.35 0.213-0.117 32.3-18.283 71.304-40.369 39.004-22.085 71.011-40.163 71.125-40.172 0.166-0.014 0.209 6.011 0.209 29.612m83.666 10.689c39.188 22.173 71.243 40.378 71.234 40.456-0.022 0.199-50.273 29.23-50.511 29.182-0.106-0.022-20.9-11.433-46.208-25.357l-46.015-25.318v-29.64c0-16.303 0.057-29.64 0.125-29.639 0.069 1e-3 32.188 18.144 71.375 40.316m-34.523 53.173c23.571 12.966 42.857 23.62 42.857 23.676s-19.331 11.266-42.957 24.91l-42.956 24.809-0.752-0.424c-5.117-2.883-85.097-49.169-85.131-49.266-0.054-0.161 85.631-47.353 85.898-47.31 0.102 0.017 19.47 10.639 43.041 23.605m-172.56 12.649l25.333 14.628 0.037 53.074 0.037 53.074-24.683 14.25c-13.575 7.838-25.047 14.463-25.494 14.722l-0.813 0.473v-82.431c0-45.337 0.056-82.428 0.125-82.425 0.068 4e-3 11.525 6.589 25.458 14.635m284.58 67.712c0 78.351-0.014 82.349-0.291 82.274-0.161-0.043-11.655-6.645-25.542-14.671l-25.25-14.593-0.042-52.989-0.042-52.989 25.458-14.692c14.002-8.081 25.515-14.692 25.584-14.692s0.125 37.058 0.125 82.352m-203.79-21.057l42.625 24.611v45.463c0 25.495-0.064 45.464-0.145 45.464-0.079 0-19.373-10.572-42.875-23.493l-42.73-23.492-0.042-46.692c-0.04-44.428-0.028-46.687 0.25-46.582 0.16 0.061 19.473 11.186 42.917 24.721m140.42 21.908l-0.042 46.703-42.667 23.462c-23.467 12.904-42.723 23.463-42.792 23.464-0.068 0-0.125-20.464-0.125-45.477v-45.477l42.709-24.677c23.489-13.573 42.764-24.683 42.833-24.689 0.069-7e-3 0.107 21.004 0.084 46.691m-141.07 83.859l43.279 23.812v30.646c0 16.856-0.063 30.646-0.139 30.646-0.3 0-139.06-78.593-139.04-78.75 0.039-0.247 52.05-30.255 52.357-30.207 0.145 0.022 19.738 10.756 43.542 23.853m168.62-8.784c14.394 8.311 26.112 15.166 26.04 15.234-0.169 0.158-138.6 78.456-138.95 78.589-0.24 0.092-0.26-2.68-0.221-30.598l0.042-30.699 43.25-23.808c23.787-13.094 43.344-23.812 43.46-23.819 0.115-6e-3 11.987 6.789 26.38 15.101" fill="#fbfbfb"/>
<path d="m193.58 57.833c0 16.363 0.019 23.057 0.043 14.875 0.024-8.181 0.024-21.568 0-29.75-0.024-8.181-0.043-1.487-0.043 14.875m161.17 144.17c0 45.329 0.019 63.873 0.043 41.208 0.023-22.664 0.023-59.752 0-82.416-0.024-22.665-0.043-4.121-0.043 41.208m-50.971-53.056c-0.155 0.155-0.141 106.02 0.014 106.11 0.068 0.042 0.125-23.841 0.125-53.074s-7e-3 -53.151-0.014-53.151c-8e-3 0-0.064 0.05-0.125 0.111m-110.28 192.19l0.083 30.784 0.042-30.658c0.024-16.862-0.014-30.715-0.083-30.784s-0.088 13.727-0.042 30.658" fill="#b6e2f9"/>
<path d="m44.749 202c0 45.329 0.019 63.873 0.043 41.208 0.023-22.664 0.023-59.752 0-82.416-0.024-22.665-0.043-4.121-0.043 41.208m63.167 0.833c0 25.713 0.019 36.232 0.042 23.375 0.024-12.856 0.024-33.893 0-46.75-0.023-12.856-0.042-2.337-0.042 23.375" fill="#9ad6f7"/>
<path d="m193.46 251.08c-0.023 24.98 0.014 45.417 0.083 45.417 0.068 0 0.125-20.437 0.125-45.417 0-24.979-0.038-45.416-0.083-45.416-0.046 0-0.102 20.437-0.125 45.416" fill="#6fa9d6"/>
</g>
</svg>
